<?xml version="1.0" encoding="UTF-8" standalone="no"?>
<!-- Generator: Adobe Illustrator 16.0.0, SVG Export Plug-In . SVG Version: 6.00 Build 0)  -->

<svg version="1.1" id="Version_1.0" x="0px" y="0px" width="612px" height="792px" viewBox="0 0 612 792" enable-background="new 0 0 612 792" xml:space="preserve" sodipodi:docname="60091.svg" inkscape:version="1.2.2 (732a01da63, 2022-12-09)" xmlns:inkscape="http://www.inkscape.org/namespaces/inkscape" xmlns:sodipodi="http://sodipodi.sourceforge.net/DTD/sodipodi-0.dtd" xmlns="http://www.w3.org/2000/svg" xmlns:svg="http://www.w3.org/2000/svg"><defs id="defs184" /><sodipodi:namedview id="namedview182" pagecolor="#ffffff" bordercolor="#666666" borderopacity="1.0" inkscape:showpageshadow="2" inkscape:pageopacity="0.0" inkscape:pagecheckerboard="0" inkscape:deskcolor="#d1d1d1" showgrid="false" inkscape:zoom="0.76603235" inkscape:cx="80.93653" inkscape:cy="539.14172" inkscape:window-width="1920" inkscape:window-height="1009" inkscape:window-x="-8" inkscape:window-y="-8" inkscape:window-maximized="1" inkscape:current-layer="Version_1.0" />
<g id="octagon" display="none">
	
		<line id="mod2_1_" display="inline" fill="none" stroke="#0000ff" stroke-width="2" x1="203.966" y1="445.01501" x2="406.19901" y2="445.29501" />
	
		<line id="mod1_1_" display="inline" fill="none" stroke="#0000ff" stroke-width="2" x1="203.966" y1="346.98499" x2="406.19901" y2="346.70499" />
	<g id="outFrame" display="inline">
		<line fill="none" stroke="#0000ff" stroke-width="2" x1="220" y1="309.5" x2="306" y2="273" id="line161" />
		<line fill="none" stroke="#0000ff" stroke-width="2" x1="306" y1="273" x2="390.5" y2="309.5" id="line163" />
		<line fill="none" stroke="#0000ff" stroke-width="2" x1="390.5" y1="309.5" x2="427" y2="396" id="line165" />
		<line fill="none" stroke="#0000ff" stroke-width="2" x1="427" y1="396" x2="390.5" y2="482.5" id="line167" />
		<line fill="none" stroke="#0000ff" stroke-width="2" x1="390.5" y1="482.5" x2="306" y2="516" id="line169" />
		<line fill="none" stroke="#0000ff" stroke-width="2" x1="306" y1="516" x2="220" y2="482.5" id="line171" />
		<line fill="none" stroke="#0000ff" stroke-width="2" x1="220" y1="482.5" x2="183" y2="396" id="line173" />
		<line fill="none" stroke="#0000ff" stroke-width="2" x1="183" y1="396" x2="220" y2="309.5" id="line175" />
	</g>
</g>

<g id="g1131" transform="matrix(0.9,0,0,0.9,-237.93315,24.062103)"><path id="path419" style="fill:#000000;fill-opacity:1;stroke:none;stroke-width:1px;stroke-linecap:butt;stroke-linejoin:miter;stroke-opacity:1" d="m 564.02734,303.42969 -4.65234,6.52734 -3.91602,0.082 -6.52734,-5.2207 -4.56836,2.2832 1.63281,8.73047 -2.9375,3.3457 -8.24023,-0.49023 -0.73438,5.79297 5.71094,4.16015 0.48828,4.97852 -5.30273,5.62891 1.55078,4.81445 9.46484,-1.38672 2.60938,2.93555 0.49023,8.64844 5.79297,1.71484 3.99805,-7.26172 4.56836,-0.082 6.03711,5.79297 4.40625,-2.5293 -1.14258,-8.24023 2.61133,-3.50782 8.8125,-0.082 0.97851,-5.63086 -6.52734,-4.16015 v -5.54883 l 4.97656,-4.73242 -1.87695,-5.0586 -9.13672,0.89844 -2.36719,-2.61133 -0.4082,-8.48437 z m -4.64257,13.28125 a 13,13 0 0 1 13,13 13,13 0 0 1 -13,13 13,13 0 0 1 -13,-13 13,13 0 0 1 13,-13 z" /><path id="path1127" style="fill:#000000;fill-opacity:1;stroke:none;stroke-width:1px;stroke-linecap:butt;stroke-linejoin:miter;stroke-opacity:1" d="m 606.01362,282.756 -3.4482,7.23605 -3.84229,0.76076 -7.33474,-4.00793 -4.10248,3.0418 3.12403,8.3143 -2.3119,3.80497 -8.20017,0.94812 0.28272,5.83248 6.34658,3.10526 1.34537,4.81809 -4.24472,6.46421 2.36324,4.47201 9.08025,-3.0092 3.07949,2.43784 1.98457,8.43192 6.00274,0.68285 2.67632,-7.84565 4.48472,-0.87405 6.95133,4.65663 3.9001,-3.25601 -2.55612,-7.91663 1.96253,-3.90798 8.66438,-1.61103 -0.0141,-5.71523 -7.15058,-2.96349 -0.96354,-5.46453 4.07917,-5.5247 -2.72685,-4.65582 -8.8419,2.47137 -2.78468,-2.1606 -1.87529,-8.28459 z m -2.26578,13.88565 a 13,13 0 0 1 15.05993,10.54508 13,13 0 0 1 -10.54507,15.05992 13,13 0 0 1 -15.05993,-10.54507 13,13 0 0 1 10.54507,-15.05993 z" /></g></svg>
