<?xml version="1.0" encoding="UTF-8" standalone="no"?>
<!-- Generator: Adobe Illustrator 16.0.0, SVG Export Plug-In . SVG Version: 6.00 Build 0)  -->

<svg version="1.1" id="Version_1.0" x="0px" y="0px" width="612px" height="792px" viewBox="0 0 612 792" enable-background="new 0 0 612 792" xml:space="preserve" sodipodi:docname="10582.svg" inkscape:version="1.2.2 (732a01da63, 2022-12-09)" xmlns:inkscape="http://www.inkscape.org/namespaces/inkscape" xmlns:sodipodi="http://sodipodi.sourceforge.net/DTD/sodipodi-0.dtd" xmlns="http://www.w3.org/2000/svg" xmlns:svg="http://www.w3.org/2000/svg"><defs id="defs246" /><sodipodi:namedview id="namedview244" pagecolor="#ffffff" bordercolor="#666666" borderopacity="1.0" inkscape:showpageshadow="2" inkscape:pageopacity="0.0" inkscape:pagecheckerboard="0" inkscape:deskcolor="#d1d1d1" showgrid="false" inkscape:zoom="1.4856385" inkscape:cx="303.57318" inkscape:cy="424.73321" inkscape:window-width="1920" inkscape:window-height="1009" inkscape:window-x="1912" inkscape:window-y="-8" inkscape:window-maximized="1" inkscape:current-layer="Version_1.0" />
<g id="octagon" display="none">
	<g id="outFrame" display="inline">
		<line fill="none" stroke="#0000FF" stroke-width="2" x1="220" y1="309.5" x2="306" y2="273" id="line204" />
		<line fill="none" stroke="#0000FF" stroke-width="2" x1="306" y1="273" x2="390.5" y2="309.5" id="line206" />
		<line fill="none" stroke="#0000FF" stroke-width="2" x1="390.5" y1="309.5" x2="427" y2="396" id="line208" />
		<line fill="none" stroke="#0000FF" stroke-width="2" x1="427" y1="396" x2="390.5" y2="482.5" id="line210" />
		<line fill="none" stroke="#0000FF" stroke-width="2" x1="390.5" y1="482.5" x2="306" y2="516" id="line212" />
		<line fill="none" stroke="#0000FF" stroke-width="2" x1="306" y1="516" x2="220" y2="482.5" id="line214" />
		<line fill="none" stroke="#0000FF" stroke-width="2" x1="220" y1="482.5" x2="183" y2="396" id="line216" />
		<line fill="none" stroke="#0000FF" stroke-width="2" x1="183" y1="396" x2="220" y2="309.5" id="line218" />
	</g>
	
		<line id="bottom" display="inline" fill="none" stroke="#0000FF" stroke-width="2" x1="203.966" y1="445.015" x2="406.199" y2="445.295" />
	
		<line id="top" display="inline" fill="none" stroke="#0000FF" stroke-width="2" x1="203.966" y1="346.985" x2="406.199" y2="346.705" />
</g>

<g id="g6982" transform="matrix(0.18897638,0,0,0.18897638,279.99994,451.8278)"><path style="fill:#000000;fill-opacity:1;stroke:#000000;stroke-width:2.64583;stroke-linecap:butt;stroke-linejoin:miter;stroke-dasharray:none;stroke-opacity:1" d="m 237.39189,127.44763 -0.33053,8.73308 c -0.97272,19.94076 -22.92886,47.62102 -47.24687,57.1861 -10.05144,7.45752 -53.47248,10.25093 -75.68293,-1.74596 C 92.569594,180.59669 80.356597,157.09174 79.383876,139.90701 l -2.014335,-11.2839 C 82.557383,125.54283 88.040595,116.42428 88.040595,111.88492 82.852753,101.67136 62.395496,94.863138 42.941089,96.160098 13.597358,96.646458 2.2974962,103.96886 -0.45854477,111.42638 0.51417559,119.85662 8.2538058,125.74776 9.8750064,127.6932 l -0.5141755,12.07951 c 1.2969601,23.02105 19.7579181,54.89024 39.3744451,69.48105 10.537804,11.83476 41.539956,28.82792 76.882124,32.88092 17.50897,3.08028 46.10482,-2.04239 50.31994,-3.98783 44.58301,-11.67264 68.59178,-48.15116 74.4281,-61.60712 2.26968,-5.34996 9.36083,-29.86976 9.03659,-39.9212 l -0.0278,-8.17036 c 1.13484,-0.48636 5.01616,-3.50147 5.66464,-7.39235 -1.14636,-2.98054 -9.17088,-5.73181 -16.5076,-5.27326 -6.41963,0 -13.06852,1.14636 -15.13197,4.58544 -1.94544,4.053 3.9926,7.07963 3.9926,7.07963 z" id="path1744" sodipodi:nodetypes="ccccccccccccccccccccc" /><path style="fill:none;stroke:#000000;stroke-width:5.29167;stroke-linecap:butt;stroke-linejoin:miter;stroke-dasharray:none;stroke-opacity:1" d="m 89.814513,169.57758 c 24.804367,-12.48324 47.014817,-51.22994 54.472337,-71.332826 9.40296,-19.454407 17.50897,-65.010142 17.50897,-75.872186 1.13484,11.024164 9.24085,60.308662 21.23773,85.275152 9.7272,24.64225 29.66797,45.55574 43.12393,55.60718" id="path1842" sodipodi:nodetypes="ccccc" /><path style="fill:#000000;fill-opacity:1;stroke:#000000;stroke-width:2.64583;stroke-linecap:butt;stroke-linejoin:miter;stroke-dasharray:none;stroke-opacity:1" d="m 165.76776,17.914266 c -3.48558,3.971942 -8.8798,6.762365 -10.49862,9.64661 -6.71926,6.32993 -11.97012,21.290466 -17.14285,16.860021 0,0 -5.31716,-4.876474 2.14036,-17.521839 -7.2954,-9.727204 -3.59944,-15.145354 -1.81612,-15.631714 6.4848,-3.2424011 14.10445,20.427127 23.02105,20.265007 9.7272,0.89166 18.40063,-24.5611891 23.83165,-20.670308 2.35074,1.13484 2.59059,6.646538 -2.27302,16.697982 4.21513,5.674202 7.21767,17.671471 1.30029,17.995711 -6.97116,-0.56742 -10.78098,-17.427905 -18.40062,-20.913487 -2.77672,-1.887672 -4.40311,-5.936957 -7.91265,-7.505287 -7.15656,-3.684003 -17.89256,-9.5554029 -12.6766,-13.1650206 3.99774,-2.8041921 8.65706,-2.3256049 15.64216,2.2393297 11.68866,-6.59021498 16.37655,-2.5635697 16.37655,-2.5635697 6.64692,5.4310219 -4.70148,7.7007026 -11.59158,14.2665646 z" id="path1844" sodipodi:nodetypes="ccccccccccccccc" /></g></svg>
