<?xml version="1.0" encoding="UTF-8" standalone="no"?>
<!-- Generator: Adobe Illustrator 16.0.0, SVG Export Plug-In . SVG Version: 6.00 Build 0)  -->

<svg
   version="1.1"
   id="Version_1.0"
   x="0px"
   y="0px"
   width="612px"
   height="792px"
   viewBox="0 0 612 792"
   enable-background="new 0 0 612 792"
   xml:space="preserve"
   sodipodi:docname="27110227.svg"
   inkscape:version="1.1 (c68e22c387, 2021-05-23)"
   xmlns:inkscape="http://www.inkscape.org/namespaces/inkscape"
   xmlns:sodipodi="http://sodipodi.sourceforge.net/DTD/sodipodi-0.dtd"
   xmlns="http://www.w3.org/2000/svg"
   xmlns:svg="http://www.w3.org/2000/svg"><defs
   id="defs1581" /><sodipodi:namedview
   id="namedview1579"
   pagecolor="#ffffff"
   bordercolor="#666666"
   borderopacity="1.0"
   inkscape:pageshadow="2"
   inkscape:pageopacity="0.0"
   inkscape:pagecheckerboard="0"
   showgrid="false"
   inkscape:zoom="1.0214646"
   inkscape:cx="304.46477"
   inkscape:cy="396"
   inkscape:window-width="1920"
   inkscape:window-height="1017"
   inkscape:window-x="-8"
   inkscape:window-y="-8"
   inkscape:window-maximized="1"
   inkscape:current-layer="Version_1.0" />
<g
   id="octagon"
   display="none">
	<g
   id="outFrame"
   display="inline">
		<line
   fill="none"
   stroke="#0000FF"
   stroke-width="2"
   x1="220"
   y1="309.5"
   x2="306"
   y2="273"
   id="line1551" />
		<line
   fill="none"
   stroke="#0000FF"
   stroke-width="2"
   x1="306"
   y1="273"
   x2="390.5"
   y2="309.5"
   id="line1553" />
		<line
   fill="none"
   stroke="#0000FF"
   stroke-width="2"
   x1="390.5"
   y1="309.5"
   x2="427"
   y2="396"
   id="line1555" />
		<line
   fill="none"
   stroke="#0000FF"
   stroke-width="2"
   x1="427"
   y1="396"
   x2="390.5"
   y2="482.5"
   id="line1557" />
		<line
   fill="none"
   stroke="#0000FF"
   stroke-width="2"
   x1="390.5"
   y1="482.5"
   x2="306"
   y2="516"
   id="line1559" />
		<line
   fill="none"
   stroke="#0000FF"
   stroke-width="2"
   x1="306"
   y1="516"
   x2="220"
   y2="482.5"
   id="line1561" />
		<line
   fill="none"
   stroke="#0000FF"
   stroke-width="2"
   x1="220"
   y1="482.5"
   x2="183"
   y2="396"
   id="line1563" />
		<line
   fill="none"
   stroke="#0000FF"
   stroke-width="2"
   x1="183"
   y1="396"
   x2="220"
   y2="309.5"
   id="line1565" />
	</g>
	
		<line
   id="mod2_1_"
   display="inline"
   fill="none"
   stroke="#0000FF"
   stroke-width="2"
   x1="203.966"
   y1="445.015"
   x2="406.199"
   y2="445.295" />
	
		<line
   id="mod1_1_"
   display="inline"
   fill="none"
   stroke="#0000FF"
   stroke-width="2"
   x1="203.966"
   y1="346.985"
   x2="406.199"
   y2="346.705" />
</g>
<g
   id="main">
	<path
   fill="none"
   stroke="#000000"
   stroke-width="5"
   d="M205.008,356.7c21.705,0,39.3,17.595,39.3,39.299   c0,21.706-17.595,39.301-39.3,39.301"
   id="path1571" />
	<line
   fill="none"
   stroke="#000000"
   stroke-width="5"
   x1="244.308"
   y1="396"
   x2="365.342"
   y2="396"
   id="line1573" />
	<path
   fill="none"
   stroke="#000000"
   stroke-width="5"
   d="M404.642,435.3c-21.704,0-39.3-17.596-39.3-39.3s17.597-39.299,39.3-39.299   "
   id="path1575" />
</g>
<g
   id="mod_1"
   transform="matrix(0.5,0,0,0.5,152.13911,120.73023)"><polygon
     stroke="#000000"
     points="305.082,396.307 387.486,348.322 387.838,443.678 "
     id="polygon1729" /><polygon
     stroke="#000000"
     points="223.915,348.518 306,396.264 223.609,443.481 "
     id="polygon1731" /></g></svg>
