<?xml version="1.0" encoding="UTF-8" standalone="no"?>
<svg
   xmlns:dc="http://purl.org/dc/elements/1.1/"
   xmlns:cc="http://creativecommons.org/ns#"
   xmlns:rdf="http://www.w3.org/1999/02/22-rdf-syntax-ns#"
   xmlns:svg="http://www.w3.org/2000/svg"
   xmlns="http://www.w3.org/2000/svg"
   xmlns:sodipodi="http://sodipodi.sourceforge.net/DTD/sodipodi-0.dtd"
   xmlns:inkscape="http://www.inkscape.org/namespaces/inkscape"
   version="1.1"
   id="Version_1.0"
   width="612"
   height="792"
   viewBox="0 0 612 792"
   overflow="visible"
   enable-background="new 0 0 612 792"
   xml:space="preserve"
   sodipodi:docname="374.svg"
   inkscape:version="1.0 (4035a4fb49, 2020-05-01)"><metadata
     id="metadata852"><rdf:RDF><cc:Work
         rdf:about=""><dc:format>image/svg+xml</dc:format><dc:type
           rdf:resource="http://purl.org/dc/dcmitype/StillImage" /><dc:title></dc:title></cc:Work></rdf:RDF></metadata><defs
     id="defs850" /><sodipodi:namedview
     inkscape:current-layer="Version_1.0"
     inkscape:window-maximized="1"
     inkscape:window-y="-8"
     inkscape:window-x="1912"
     inkscape:cy="396"
     inkscape:cx="306"
     inkscape:zoom="1.1464646"
     inkscape:document-rotation="0"
     pagecolor="#ffffff"
     bordercolor="#666666"
     borderopacity="1"
     objecttolerance="10"
     gridtolerance="10"
     guidetolerance="10"
     inkscape:pageopacity="0"
     inkscape:pageshadow="2"
     inkscape:window-width="1920"
     inkscape:window-height="1017"
     id="namedview848"
     showgrid="false" /><g
     id="octagon"
     display="none"><polygon
       fill="none"
       stroke="#0000FF"
       stroke-width="2"
       points="305,516.5 218.733,480.768 183,394.5 218.733,308.233 305,272.5    391.268,308.233 427,394.5 391.268,480.768  "
       id="octagonOutline" /><line
       fill="none"
       stroke="#0000FF"
       stroke-width="2"
       x1="202.5"
       y1="345.7"
       x2="407.5"
       y2="345.7"
       id="mod1" /><line
       fill="none"
       stroke="#0000FF"
       stroke-width="2"
       x1="202.5"
       y1="443.3"
       x2="407.5"
       y2="443.3"
       id="mod2" /><path
       id="amplifierD"
       style="fill:none;stroke:#0000ff;stroke-width:1.999;stroke-linecap:butt;stroke-linejoin:miter;stroke-miterlimit:4;stroke-dasharray:none;stroke-opacity:1"
       d="m 179.56,317.5 126.44,-73 127.44223,72.99999 m -253.88223,0 v 0 -80.26865 0 h 253.88223 v 80.26865 0" /><rect
       style="fill:none;fill-opacity:1;stroke:#0000ff;stroke-width:1.99172;stroke-linecap:round;stroke-linejoin:miter;stroke-miterlimit:4;stroke-dasharray:none;stroke-opacity:1;paint-order:markers fill stroke"
       id="amplifierAC"
       width="168.22823"
       height="97.589767"
       x="441.47321"
       y="150.52045" /><rect
       y="248.11023"
       x="441.47321"
       height="97.589767"
       width="168.22823"
       id="amplifierG"
       style="fill:none;fill-opacity:1;stroke:#0000ff;stroke-width:1.99172;stroke-linecap:round;stroke-linejoin:miter;stroke-miterlimit:4;stroke-dasharray:none;stroke-opacity:1;paint-order:markers fill stroke" /><rect
       style="fill:none;fill-opacity:1;stroke:#0000ff;stroke-width:1.99172;stroke-linecap:round;stroke-linejoin:miter;stroke-miterlimit:4;stroke-dasharray:none;stroke-opacity:1;paint-order:markers fill stroke"
       id="amplifierH"
       width="168.22823"
       height="97.589767"
       x="441.47321"
       y="345.70001" /><rect
       y="443.28979"
       x="441.47321"
       height="97.589767"
       width="168.22823"
       id="amplifierM"
       style="fill:none;fill-opacity:1;stroke:#0000ff;stroke-width:1.99172;stroke-linecap:round;stroke-linejoin:miter;stroke-miterlimit:4;stroke-dasharray:none;stroke-opacity:1;paint-order:markers fill stroke" /><rect
       style="fill:none;fill-opacity:1;stroke:#0000ff;stroke-width:1.99172;stroke-linecap:round;stroke-linejoin:miter;stroke-miterlimit:4;stroke-dasharray:none;stroke-opacity:1;paint-order:markers fill stroke"
       id="amplifierJKP"
       width="168.22823"
       height="97.589767"
       x="441.47321"
       y="540.87958" /><rect
       y="150.52045"
       x="2.8270514"
       height="97.589767"
       width="168.22823"
       id="amplifierW"
       style="fill:none;fill-opacity:1;stroke:#0000ff;stroke-width:1.99172;stroke-linecap:round;stroke-linejoin:miter;stroke-miterlimit:4;stroke-dasharray:none;stroke-opacity:1;paint-order:markers fill stroke" /><rect
       style="fill:none;fill-opacity:1;stroke:#0000ff;stroke-width:1.99172;stroke-linecap:round;stroke-linejoin:miter;stroke-miterlimit:4;stroke-dasharray:none;stroke-opacity:1;paint-order:markers fill stroke"
       id="amplifierXY"
       width="168.22823"
       height="97.589767"
       x="2.8270514"
       y="248.11021" /><rect
       y="345.69998"
       x="2.8270514"
       height="97.589767"
       width="168.22823"
       id="amplifierVAF"
       style="fill:none;fill-opacity:1;stroke:#0000ff;stroke-width:1.99172;stroke-linecap:round;stroke-linejoin:miter;stroke-miterlimit:4;stroke-dasharray:none;stroke-opacity:1;paint-order:markers fill stroke" /><rect
       style="fill:none;fill-opacity:1;stroke:#0000ff;stroke-width:1.99172;stroke-linecap:round;stroke-linejoin:miter;stroke-miterlimit:4;stroke-dasharray:none;stroke-opacity:1;paint-order:markers fill stroke"
       id="amplifierT"
       width="168.22823"
       height="97.589767"
       x="2.8270514"
       y="443.28973" /><rect
       y="540.87952"
       x="2.8270514"
       height="97.589767"
       width="168.22823"
       id="amplifierZ"
       style="fill:none;fill-opacity:1;stroke:#0000ff;stroke-width:1.99172;stroke-linecap:round;stroke-linejoin:miter;stroke-miterlimit:4;stroke-dasharray:none;stroke-opacity:1;paint-order:markers fill stroke" /><rect
       style="fill:none;fill-opacity:1;stroke:#0000ff;stroke-width:2.43953;stroke-linecap:round;stroke-linejoin:miter;stroke-miterlimit:4;stroke-dasharray:none;stroke-opacity:1;paint-order:markers fill stroke"
       id="amplifierAB"
       width="253.54138"
       height="97.141968"
       x="179.78391"
       y="139.86548" /><rect
       y="547.46027"
       x="179.45253"
       height="97.141968"
       width="253.54138"
       id="amplifierR"
       style="fill:none;fill-opacity:1;stroke:#0000ff;stroke-width:2.43953;stroke-linecap:round;stroke-linejoin:miter;stroke-miterlimit:4;stroke-dasharray:none;stroke-opacity:1;paint-order:markers fill stroke" /><path
       style="fill:#0000ff;stroke:#0000ff;stroke-width:1.999;stroke-linecap:butt;stroke-linejoin:miter;stroke-opacity:1;fill-opacity:1;stroke-miterlimit:4;stroke-dasharray:none"
       d="m 306.85589,644.52992 v 52.02633"
       id="amplifierQ" /></g><g
     transform="translate(481.95332,340.9514)"
     id="g1016"><path
       inkscape:connector-curvature="0"
       style="fill:#3c3624;fill-opacity:1"
       id="path6"
       d="M -3.083,44.584 C 18.08,60.6 34.478,82.578 43.634,108.004 52.788,82.578 69.187,60.6 90.351,44.584 c 0,-25.673 -21.205,-45.501 -46.717,-45.501 -25.512,0 -46.717,19.828 -46.717,45.501 z" /><g
       id="g3284"
       transform="translate(-3.283,-0.5395)"
       style="fill:#f4e6d9;fill-opacity:1"><path
         inkscape:connector-curvature="0"
         style="fill:#f4e6d9;fill-opacity:1;stroke:#f3c463;stroke-width:0.1559"
         id="path8"
         d="m 23.085,47.622 z m 13.674,4.568 c 0,0 0.016,0.008 0.045,0.022" /><path
         inkscape:connector-curvature="0"
         style="fill:#f4e6d9;fill-opacity:1"
         id="path10"
         d="m 24.115,44.318 c 0.31,0 0.561,-0.252 0.561,-0.562 0,-0.309 -0.251,-0.56 -0.561,-0.56 -0.309,0 -0.561,0.251 -0.561,0.56 0.001,0.31 0.252,0.562 0.561,0.562 z" /><path
         inkscape:connector-curvature="0"
         style="fill:#f4e6d9;fill-opacity:1"
         id="path12"
         d="m 21.569,43.483 c 0.229,0 0.416,-0.188 0.416,-0.417 0,-0.23 -0.186,-0.417 -0.416,-0.417 -0.231,0 -0.417,0.187 -0.417,0.417 0,0.229 0.186,0.417 0.417,0.417 z" /><path
         inkscape:connector-curvature="0"
         style="fill:#f4e6d9;fill-opacity:1"
         id="path14"
         d="m 24.309,45.884 c 0.318,0 0.576,-0.258 0.576,-0.577 0,-0.319 -0.258,-0.576 -0.576,-0.576 -0.318,0 -0.577,0.258 -0.577,0.576 0,0.318 0.258,0.577 0.577,0.577 z" /><path
         inkscape:connector-curvature="0"
         style="fill:#f4e6d9;fill-opacity:1"
         id="path16"
         d="m 21.716,47.901 c 0.239,0 0.432,-0.193 0.432,-0.431 0,-0.239 -0.193,-0.434 -0.432,-0.434 -0.239,0 -0.432,0.194 -0.432,0.434 0,0.238 0.193,0.431 0.432,0.431 z" /><path
         inkscape:connector-curvature="0"
         style="fill:#f4e6d9;fill-opacity:1"
         id="path18"
         d="m 23.357,47.865 c 0.212,0 0.384,-0.173 0.384,-0.384 0,-0.213 -0.172,-0.385 -0.384,-0.385 -0.213,0 -0.384,0.172 -0.384,0.385 0,0.211 0.171,0.384 0.384,0.384 z" /><path
         inkscape:connector-curvature="0"
         style="fill:#f4e6d9;fill-opacity:1;stroke:#f4e6d9;stroke-width:0.1559;stroke-opacity:1"
         id="path20"
         d="m 23.357,47.865 c 0.212,0 0.384,-0.173 0.384,-0.384 0,-0.213 -0.172,-0.385 -0.384,-0.385 -0.213,0 -0.384,0.172 -0.384,0.385 0,0.211 0.171,0.384 0.384,0.384 z" /><path
         inkscape:connector-curvature="0"
         style="fill:#f4e6d9;fill-opacity:1"
         id="path22"
         d="m 26.244,48.166 c 0.31,0 0.56,-0.251 0.56,-0.561 0,-0.31 -0.25,-0.559 -0.56,-0.559 -0.31,0 -0.561,0.249 -0.561,0.559 0,0.31 0.251,0.561 0.561,0.561 z" /><path
         inkscape:connector-curvature="0"
         style="fill:#f4e6d9;fill-opacity:1;stroke:#f3c463;stroke-width:0.1559"
         id="path24"
         d="m 27.16,48.904 c 0.336,0 0.608,-0.273 0.608,-0.609 0,-0.336 -0.271,-0.607 -0.608,-0.607 -0.335,0 -0.608,0.271 -0.608,0.607 0,0.336 0.273,0.609 0.608,0.609 z" /><path
         inkscape:connector-curvature="0"
         style="fill:#f4e6d9;fill-opacity:1"
         id="path26"
         d="m 28.293,49.538 c 0.335,0 0.607,-0.273 0.607,-0.608 0,-0.336 -0.272,-0.609 -0.607,-0.609 -0.336,0 -0.609,0.273 -0.609,0.609 0,0.335 0.273,0.608 0.609,0.608 z" /><path
         inkscape:connector-curvature="0"
         style="fill:#f4e6d9;fill-opacity:1"
         id="path28"
         d="m 26.561,49.932 c 0.308,0 0.56,-0.251 0.56,-0.561 0,-0.31 -0.252,-0.56 -0.56,-0.56 -0.31,0 -0.561,0.25 -0.561,0.56 0,0.309 0.251,0.561 0.561,0.561 z" /><path
         inkscape:connector-curvature="0"
         style="fill:#f4e6d9;fill-opacity:1;stroke:#f3c463;stroke-width:0.1559"
         id="path30"
         d="m 40.858,30.773 0.076,-0.014 m 13.588,-2.341 c -0.002,0.022 -0.006,0.045 -0.014,0.068 m 8.129,-13.357 0.009,0.035 M 61.161,40.7 C 61.148,40.68 61.135,40.661 61.12,40.643 m -7.697,3.441 v 0.034" /><polygon
         style="fill:#f4e6d9;fill-opacity:1"
         id="polygon32"
         points="64.651,44.312 65.829,44.538 65.648,42.728 " /><polygon
         style="fill:#f4e6d9;fill-opacity:1"
         id="polygon34"
         points="70.225,38.985 71.306,39.504 71.595,37.708 " /><polygon
         style="fill:#f4e6d9;fill-opacity:1"
         id="polygon36"
         points="71.562,39.861 72.592,40.475 73.04,38.71 " /><polygon
         style="fill:#f4e6d9;fill-opacity:1"
         id="polygon38"
         points="66.079,42.633 67.225,42.988 67.245,41.168 " /><polygon
         style="fill:#f4e6d9;fill-opacity:1"
         id="polygon40"
         points="68.419,47.472 69.177,48.401 70.2,46.897 " /><polygon
         style="fill:#f4e6d9;fill-opacity:1"
         id="polygon42"
         points="69.79,46.05 70.587,46.947 71.546,45.399 " /><polygon
         style="fill:#f4e6d9;fill-opacity:1"
         id="polygon44"
         points="71.671,43.158 72.515,44.011 73.39,42.416 " /><polygon
         style="fill:#f4e6d9;fill-opacity:1"
         id="polygon46"
         points="71.544,41.903 72.479,42.652 73.163,40.965 " /><polygon
         style="fill:#f4e6d9;fill-opacity:1"
         id="polygon48"
         points="67.552,40.915 68.673,41.341 68.807,39.525 " /><polygon
         style="fill:#f4e6d9;fill-opacity:1"
         id="polygon50"
         points="67.859,42.288 68.946,42.792 69.208,40.99 " /><polygon
         style="fill:#f4e6d9;fill-opacity:1"
         id="polygon52"
         points="69.462,41.735 70.52,42.3 70.882,40.517 " /><polygon
         style="fill:#f4e6d9;fill-opacity:1"
         id="polygon54"
         points="68.075,44.393 69.067,45.063 69.614,43.328 " /><polygon
         style="fill:#f4e6d9;fill-opacity:1"
         id="polygon56"
         points="69.562,44.348 70.497,45.095 71.18,43.408 " /><path
         inkscape:connector-curvature="0"
         style="fill:none;fill-opacity:1;stroke:#f4e6d9;stroke-width:0.1559;stroke-opacity:1"
         id="path58"
         d="m 65.241,44.447 -0.996,5.252 m 2.399,-6.86 -2.264,6.928 m 3.758,-8.579 -3.623,8.671 m 4.031,-5.141 -3.621,5.457 m 3.759,-2.379 -3.285,2.696 m 4.823,-3.985 -0.838,0.657 m -0.543,0.792 -3.328,2.626 m 6.564,-6.973 -6.769,6.836 m 4.732,-5.727 -4.822,5.638 m 6.793,-8.082 -1.223,1.335 m -0.793,-1.606 -1.154,1.856 m -0.431,0.769 -3.556,5.479 m 5.934,-10.822 -1.768,3.26 m -0.156,0.227 -4.121,7.268 m 3.645,-7.495 -3.759,7.426 m 7.472,-9.803 -2.739,4.029 m -0.455,0.747 -3.869,5.321 m 4.867,-5.637 -4.801,5.682 m -5.228,6.725 h -0.748 l 1.088,-1.586 0.858,-0.316 -0.044,0.837" /><polygon
         style="fill:#f4e6d9;fill-opacity:1;stroke:#f4e6d9;stroke-width:0.156;stroke-miterlimit:4;stroke-dasharray:none;stroke-opacity:1"
         id="polygon60"
         points="58.58,55.123 59.49,54.999 59.265,55.806 57.869,57.283 57.882,56.527 57.176,56.432 " /><polygon
         style="fill:#f4e6d9;fill-opacity:1;stroke:#f4e6d9;stroke-width:0.156;stroke-miterlimit:4;stroke-dasharray:none;stroke-opacity:1"
         id="polygon62"
         points="61.347,56.371 62.155,55.936 62.228,56.771 61.442,58.644 61.189,57.943 60.494,58.092 " /><polygon
         style="fill:#f4e6d9;fill-opacity:1;stroke:#f4e6d9;stroke-width:0.156;stroke-miterlimit:4;stroke-dasharray:none;stroke-opacity:1"
         id="polygon64"
         points="60.034,55.724 60.079,54.808 59.294,55.1 57.941,56.617 58.684,56.542 58.847,57.234 " /><polygon
         style="fill:#f4e6d9;fill-opacity:1;stroke:#f4e6d9;stroke-width:0.156;stroke-miterlimit:4;stroke-dasharray:none;stroke-opacity:1"
         id="polygon66"
         points="62.287,56.723 62.995,56.139 63.229,56.945 62.821,58.935 62.422,58.308 61.785,58.579 " /><path
         inkscape:connector-curvature="0"
         style="fill:#f4e6d9;fill-opacity:1;stroke:#f4e6d9;stroke-width:0.1559;stroke-opacity:1"
         id="path68"
         d="m 61.074,55.132 1.109,-1.539 m -1.901,1.722 1.789,-1.994 m -2.581,1.653 2.423,-2.037 m -2.603,1.245 2.535,-1.54 m -0.703,3.283 1.268,-2.105 m -0.249,2.128 0.725,-1.833 m 0.113,2.014 0.34,-1.857 m -21.944,1.9 0.03,-0.032 m 2.927,2.079 0.014,-0.054 m 3.125,1.36 0.018,0.071 M 30.149,49.065 c 0,0 -0.026,0 -0.068,0.012" /><path
         inkscape:connector-curvature="0"
         style="fill:#f4e6d9;fill-opacity:1"
         id="path70"
         d="m 23.668,47.721 -0.653,-0.088 c -0.689,-0.022 -1.399,0.168 -2.104,0.89 0,0 0.793,0.793 1.78,0.735 -0.439,0.342 -0.843,0.784 -1.1,1.438 0,0 2.308,0.632 4.436,-1.496 l -0.005,0.048 0.323,-0.432 c -0.523,-0.523 -1.2,-0.465 -1.2,-0.465 0,0 -0.65,-0.471 -1.477,-0.63 z" /><path
         inkscape:connector-curvature="0"
         style="fill:#f4e6d9;fill-opacity:1;stroke:#f4e6d9;stroke-width:0.1559;stroke-opacity:1"
         id="path72"
         d="m 26.912,49.889 -0.748,-0.121 c 0,0 -2.763,0.204 -2.808,3.553 0,0 0.891,-0.122 1.75,-0.796 0,0 -0.166,2.064 0.061,2.291 10e-4,0 2.47,-1.509 1.745,-4.927 z" /><polygon
         style="fill:#f4e6d9;fill-opacity:1;stroke:#f4e6d9;stroke-width:0.156;stroke-miterlimit:4;stroke-dasharray:none;stroke-opacity:1"
         id="polygon74"
         points="61.166,55.904 61.173,56.742 60.242,58.546 60.064,57.808 59.341,57.922 59.876,57.035 59.128,57.035 60.216,55.449 61.074,55.132 61.034,55.974 " /><polygon
         style="fill:#f4e6d9;fill-opacity:1;stroke:#f4e6d9;stroke-width:0.156;stroke-miterlimit:4;stroke-dasharray:none;stroke-opacity:1"
         id="polygon76"
         points="59.294,54.163 58.923,54.917 58.712,55.063 57.281,56.11 57.442,55.374 56.757,55.148 58.379,54.117 " /><path
         inkscape:connector-curvature="0"
         style="fill:#f4e6d9;fill-opacity:1"
         id="path78"
         d="m 42.585,27.542 0.062,0.593 c -0.181,0.068 0.067,1.8 0.067,1.8 -0.235,0.511 -1.46,0.766 -1.779,0.824 -0.659,0.177 -0.778,-0.938 -0.778,-0.938 -0.046,-0.679 -1.223,-1.449 -1.223,-1.449 -0.189,-0.474 -0.138,-0.699 -0.023,-0.792 0,0 1.382,-0.565 1.2,-0.997 -1.666,-2.358 -6.021,-4.792 -9.324,-5.16 -0.205,-0.022 -0.251,-0.342 -0.251,-0.431 0,-0.064 -0.074,-1.054 -0.113,-1.62 -0.045,-0.135 -1.073,-0.833 -1.268,-1.029 -0.193,-0.193 -0.238,-0.306 -0.305,-0.623 -0.068,-0.317 0.125,-0.985 0.169,-1.052 0.045,-0.068 0.747,-2.049 0.747,-2.049 0.021,-0.293 0.102,-0.537 0.317,-0.691 0.316,-0.226 0.613,-0.1 0.724,-0.068 0.272,0.08 0.397,0.363 0.431,0.634 v 0.07 l -0.34,1.651 c 0.894,0.556 2.586,1.476 2.74,1.63 0.083,0.084 0.101,0.198 0.084,0.309 l -0.167,1.594 c 5.13,1.386 8.284,5.056 8.821,6.362 0,0 -1.254,1.399 -1.629,1.449 0,0 -0.102,0.412 -0.589,0.338 1.246,0.974 1.358,2.468 1.358,2.468 0,0 0.136,-0.317 0.226,-1.812 -0.002,10e-4 0.027,-0.876 0.843,-1.011 z" /><path
         inkscape:connector-curvature="0"
         style="fill:#f4e6d9;fill-opacity:1"
         id="path80"
         d="m 43.778,33.162 c -0.407,-1.404 0.136,-3.34 0.136,-3.34 0.183,-0.498 0.183,-1.947 0.183,-1.947 l 1.176,0.317 c 0,0 -0.044,1.087 -0.135,1.359 0,0 -0.588,1.336 -0.361,2.399 z" /><path
         inkscape:connector-curvature="0"
         style="fill:#f4e6d9;fill-opacity:1"
         id="path82"
         d="m 42.165,35.855 h -0.038 c -0.34,-0.634 2.649,-3.906 2.649,-3.906 1.041,-0.587 1.176,-2.535 1.176,-2.535 -0.135,0 -0.724,-0.498 -0.724,-0.498 l -1.177,-0.453 c -0.239,-0.198 -0.862,-0.225 -1.011,-0.228 -0.193,0.227 -0.212,0.476 -0.212,0.476 0,0 -0.906,-2.06 0.95,-2.195 1.857,-0.137 1.268,0.045 1.72,-0.181 0.453,-0.227 -0.044,-0.635 1.269,-0.499 1.313,0.136 3.089,0.718 3.939,1.448 0.656,0.567 -0.092,0.408 -0.092,0.408 0,0 0.271,0.588 -0.09,2.264 -0.324,1.498 0.09,2.083 0.137,2.219 0,0 1.613,3.483 1.387,3.69 h 0.787 v 1.018 c 5.206,-0.406 4.936,-5.07 2.76,-6.655 0,0 -0.451,-1.042 -0.044,-1.54 0.407,-0.499 7.108,-9.011 15.396,-10.143 0,0 -0.092,0.589 -0.544,0.996 0,0 -1.604,0.985 -3.563,2.188 0,0 1.482,-0.779 1.889,0.031 0.311,0.622 -1.059,1.633 -2.873,2.646 l 0.055,-0.019 c 0.77,-0.137 1.459,0.271 1.459,0.271 0.129,0.528 -0.947,1.206 -2.443,1.901 0.679,0.046 1.131,0.724 1.131,0.724 0.086,0.323 -0.304,0.655 -0.951,0.952 0.588,-0.091 1.27,0.771 1.27,0.771 0.135,0.09 -0.59,1.041 -0.59,1.041 -0.056,0.025 -0.119,0.066 -0.227,0.09 0.454,0.091 0.816,0.588 0.816,0.815 0,0.227 -0.228,0.409 -0.635,0.679 -0.047,0.031 -0.172,0.057 -0.358,0.079 l 0.04,0.057 c 0.453,0.045 0.861,0.905 0.861,0.905 0,0 -0.045,0.182 -0.634,0.499 -0.099,0.053 -0.351,0.078 -0.702,0.083 l 0.113,0.053 c 0.68,0.045 0.952,0.906 0.952,0.906 0,0.362 -0.997,0.634 -0.997,0.634 -0.148,-0.003 -0.301,-0.009 -0.455,-0.019 l 0.047,0.019 c 0.681,0.317 0.771,1.132 0.771,1.132 -0.499,0.634 -1.313,0.543 -1.313,0.543 -0.119,0.014 -0.237,-0.021 -0.408,-0.044 0.859,0.497 0.906,1.222 0.906,1.222 -0.498,0.542 -1.223,0.453 -1.223,0.453 -0.088,-0.028 -0.205,-0.047 -0.314,-0.089 0.585,0.274 0.496,1.268 0.496,1.268 -0.453,0.271 -1.086,0.18 -1.086,0.18 -0.053,-0.01 -0.139,-0.058 -0.261,-0.12 0.438,0.195 0.261,1.296 0.261,1.296 -0.816,0.136 -1.225,0 -1.225,0 L 61.161,40.7 c 0.299,0.467 0.049,1.303 0.049,1.303 -0.136,0.044 -1.041,-0.136 -1.041,-0.136 -0.08,-0.025 -0.186,-0.094 -0.318,-0.19 0.289,0.217 0.138,1.276 0.138,1.276 0,0 -1.132,-0.045 -1.448,-0.136 -0.039,-0.01 -0.102,-0.06 -0.204,-0.169 0.407,0.361 0.112,1.211 0.112,1.211 -0.407,0.091 -1.041,-0.045 -1.041,-0.045 -0.17,-0.094 -0.386,-0.324 -0.656,-0.69 0.182,1.675 -0.521,1.641 -0.521,1.641 -0.316,0.046 -0.769,-0.408 -0.769,-0.408 -0.132,-0.11 -0.284,-0.303 -0.437,-0.558 0.166,0.631 -0.289,1.374 -0.289,1.374 l -0.453,-0.136 c -0.363,-0.229 -0.652,-0.558 -0.859,-0.918 -0.006,0.21 -0.097,1.334 -0.588,1.294 l 0.021,0.439 c 0,0 2.083,0.045 2.536,1.086 0,0 1.54,0.544 1.812,1.676 0,0 1.132,0.362 1.132,1.177 l -0.073,0.064 c 0.261,0.125 0.551,0.348 0.752,0.75 h 2.758 c -1.098,-1.393 1.283,-2.383 1.975,-1.087 0.089,0.171 0.272,-0.044 0.542,0.226 0.272,0.273 1.585,0.906 1.585,1.449 0,0.544 -0.271,1.042 -0.77,0.906 -0.144,-0.039 -0.498,-0.271 -0.498,-0.271 0,0 0.227,0.136 0.544,0.587 0.317,0.454 -0.407,0.998 -0.771,0.906 -0.048,-0.012 -0.135,-0.056 -0.135,-0.056 0,0 0.18,1.233 -0.996,0.962 -1.178,-0.272 -1.313,-1.268 -1.313,-1.268 l -0.113,-0.453 c 0,0 -0.235,-0.128 -0.272,-0.475 l -2.521,0.026 c 0.012,0.042 0.021,0.086 0.031,0.132 0,0 -0.301,0.196 -0.766,0.074 l 0.064,0.015 c -0.408,0.499 -2.038,0 -2.038,0 -0.472,0.116 -1.302,0.138 -2.422,-0.452 h 0.136 c 0,0 -1.677,-0.045 -2.898,-1.449 L 51.029,50.242 H 49.29 c 0.136,0.067 0.646,0.475 0.736,0.702 0.012,0.027 0.186,0.115 0.204,0.792 0.004,0.144 -0.023,0.304 -0.198,0.334 3.951,3.475 3.797,5.145 3.797,5.145 -0.905,0.271 -2.309,-1.358 -2.309,-1.358 L 51.467,55.84 c 0.594,1.463 0.852,2.904 0.846,3.367 -0.008,0.657 -1.599,-1.396 -1.734,-1.572 0.291,1.639 0.082,2.885 0.082,2.885 -0.701,-0.395 -1.551,-1.953 -1.605,-2.055 0.158,2.063 -0.251,3.459 -0.251,3.459 -0.726,-0.281 -1.2,-1.961 -1.296,-2.329 -0.154,2.354 -0.878,3.054 -0.878,3.054 -0.699,-0.566 -0.955,-1.739 -0.996,-3.057 0.023,0.814 -0.952,2.332 -0.952,2.332 -0.559,-0.849 -0.545,-2.273 -0.332,-3.706 -0.338,1.25 -1.615,2.438 -1.615,2.438 -0.28,-1.086 -0.045,-2.465 0.373,-3.736 -0.889,1.38 -2.184,2.196 -2.184,2.196 -0.176,-0.954 0.055,-2.001 0.469,-2.945 -0.81,0.868 -1.917,1.179 -1.917,1.179 0.176,-2.121 3.694,-5.192 3.865,-5.341 -0.114,-0.059 -0.136,-0.19 -0.108,-0.307 0.11,-0.451 0.231,-0.724 0.25,-0.747 0.272,-0.317 0.475,-0.658 0.612,-0.725 l -1.777,0.032 c -1.201,1.435 -3.024,1.564 -3.024,1.564 h 0.136 c -1.503,0.791 -2.418,0.477 -2.626,0.385 -0.658,0.472 -1.857,0.159 -1.857,0.159 l 0.005,-0.088 c -0.417,0.08 -0.684,-0.092 -0.684,-0.092 0.018,-0.089 0.04,-0.171 0.066,-0.246 l -0.021,0.064 H 31.78 l -0.047,-0.017 c 0.012,0.182 -0.013,0.373 -0.125,0.512 l 0.173,0.229 c 2.127,2.626 2.127,6.068 2.127,6.068 -1.222,0.09 -1.54,-1.132 -1.54,-1.132 0.272,-2.627 -1.131,-4.256 -1.131,-4.256 l -0.025,-0.066 c -0.302,0.349 -0.704,0.777 -0.79,0.835 -0.136,0.09 -0.227,0.272 -0.816,0.09 -0.588,-0.18 -0.452,-0.996 -0.452,-0.996 -0.408,0.045 -0.316,0.182 -0.77,-0.136 -0.453,-0.317 -0.09,-1.041 -0.09,-1.041 l 0.136,-0.045 c -1.359,0.271 -0.952,-0.905 -0.952,-0.905 0.174,-0.473 0.468,-0.792 0.778,-1.007 l -0.052,0.011 c 0.18,-0.454 -1.133,-0.543 -1.133,-0.543 l -1.607,-1.257 c 0,0 -0.145,-0.219 -0.343,-0.539 -0.543,-1.006 -1.536,-1.067 -1.536,-1.067 -2.219,0.996 -4.075,-1.212 -4.075,-1.212 0.498,-0.337 0.934,-0.51 1.358,-0.577 -1.222,-0.226 -1.946,-1.596 -1.946,-1.596 1.038,-0.269 1.694,-0.308 2.265,-0.175 l 0.617,0.246 c 1.161,0.472 1.691,1.559 1.691,1.559 l 0.157,0.272 c -0.634,0.181 -0.843,0.149 -0.843,0.149 0.674,0.459 1.047,1.074 1.047,1.074 0,0 0.012,-0.09 0.622,0.283 l 0.052,0.041 c -0.786,-1.411 -1.917,-3.435 -2.078,-3.675 -0.16,-0.24 -0.235,-0.617 -0.266,-1.003 l -0.073,0.029 c -3.021,0.33 -3.554,-3.464 -3.554,-3.464 1.374,0.081 2.277,0.738 2.811,1.479 -1.37,-1.983 -0.048,-4.919 -0.048,-4.919 0,0 1.177,1.449 1.131,2.807 l 0.058,0.099 c 0.278,-0.802 0.788,-1.653 1.707,-2.318 0,0 0.428,1.567 -0.359,3.301 l 0.31,0.306 c 0.248,-0.181 0.452,-0.298 0.775,-0.481 0,0 -0.316,3.939 -1.812,4.572 l -0.063,0.035 c 0.233,0.347 0.569,0.854 0.885,1.352 l 0.568,0.91 c 0.562,0.92 1.06,1.802 1.078,2.074 0,0 -2.287,-3.873 0.793,-5.909 0,0 0.633,3.984 -0.543,5.206 l 0.996,0.454 c 0,0 -0.816,-2.491 1.811,-4.619 0,0 0.272,1.9 0.09,2.625 0.489,-0.633 1.236,-1.114 2.265,-1.131 0,0 -0.498,3.125 -2.762,3.85 l -0.498,0.769 c 0,0 0.951,0.588 0.951,0.724 0.411,-0.169 0.771,-0.181 0.771,-0.181 0.233,-0.466 0.491,-0.589 0.611,-0.622 1.476,-1.237 2.227,0.59 1.596,1.498 l 0.103,0.03 h 2.535 c 0.185,-0.371 0.447,-0.59 0.691,-0.72 l -0.012,-0.095 c 0,-0.815 1.132,-1.177 1.132,-1.177 0.272,-1.131 1.81,-1.676 1.81,-1.676 0.454,-1.041 2.538,-1.086 2.538,-1.086 l 0.089,-0.016 v -0.68 c -0.544,0.045 -0.566,-1.274 -0.566,-1.274 -0.211,0.377 -0.482,0.712 -0.861,0.95 l -0.452,0.136 c 0,0 -0.467,-0.753 -0.292,-1.385 -0.153,0.259 -0.3,0.46 -0.433,0.571 0,0 -0.453,0.452 -0.77,0.407 0,0 -0.704,0.027 -0.522,-1.649 -0.261,0.35 -0.49,0.606 -0.655,0.698 0,0 -0.633,0.136 -1.04,0.045 0,0 -0.297,-0.848 0.107,-1.211 -0.094,0.099 -0.163,0.159 -0.199,0.168 -0.315,0.091 -1.448,0.138 -1.448,0.138 0,0 -0.154,-1.1 0.159,-1.286 -0.14,0.103 -0.256,0.173 -0.34,0.199 0,0 -0.905,0.18 -1.042,0.135 0,0 -0.271,-0.908 0.092,-1.36 -0.036,0.021 -0.067,0.037 -0.092,0.047 0,0 -0.407,0.136 -1.222,0 0,0 -0.145,-1.127 0.307,-1.309 -0.143,0.074 -0.25,0.12 -0.307,0.131 0,0 -0.634,0.091 -1.087,-0.181 0,0 -0.09,-0.997 0.498,-1.268 -0.137,0.053 -0.21,0.057 -0.316,0.092 0,0 -0.725,0.089 -1.224,-0.454 0,0 0.044,-0.705 0.885,-1.187 -0.149,0.018 -0.28,0.021 -0.386,0.009 0,0 -0.815,0.091 -1.313,-0.542 0,0 0.089,-0.816 0.769,-1.133 -0.157,0.01 -0.258,-0.003 -0.408,0 0,0 -0.996,-0.271 -0.996,-0.634 0,0 0.277,-0.915 0.957,-0.96 -0.295,-0.008 -0.506,-0.033 -0.594,-0.08 -0.589,-0.317 -0.634,-0.499 -0.634,-0.499 0,0 0.407,-0.86 0.859,-0.905 -0.187,-0.022 -0.271,-0.105 -0.318,-0.136 -0.406,-0.271 -0.633,-0.453 -0.633,-0.679 0,-0.226 0.362,-0.724 0.816,-0.815 -0.107,-0.025 -0.171,-0.065 -0.228,-0.091 0,0 -0.725,-0.95 -0.588,-1.041 0,0 0.692,-0.869 1.282,-0.778 -0.654,-0.298 -1.051,-0.618 -0.964,-0.942 0,0 0.453,-0.68 1.132,-0.725 -1.501,-0.698 -2.574,-1.374 -2.445,-1.902 0,0 0.72,-0.402 1.49,-0.266 -1.802,-1.007 -3.158,-2.012 -2.848,-2.632 0.404,-0.809 1.888,-0.031 1.888,-0.031 -1.961,-1.202 -3.564,-2.187 -3.564,-2.187 -0.452,-0.408 -0.542,-0.996 -0.542,-0.996 8.286,1.132 14.988,9.645 15.396,10.143 0.407,0.498 -0.046,1.54 -0.046,1.54 -2.173,1.584 -2.468,6.274 2.739,6.681 v -0.841 z" /><path
         inkscape:connector-curvature="0"
         style="fill:#f4e6d9;fill-opacity:1"
         id="path84"
         d="m 50.522,30.021 -0.064,0.955 1.199,2.513 c 0.18,0.339 1.335,-0.068 1.335,-0.068 -0.045,-2.152 1.856,-3.215 1.856,-3.215 L 54.87,28.19 c 0.249,-1.131 -0.497,-0.769 -0.497,-0.769 l -0.045,0.068 c 0,0 -1.246,-0.271 -0.974,-0.567 l -0.042,0.049 c 3.484,-5.15 9.754,-5.572 9.754,-5.572 0.1,-0.133 0.102,-1.19 0.096,-1.746 0,0 1.512,-1.084 1.647,-1.221 0.135,-0.137 0.362,-0.611 0.34,-0.792 -0.022,-0.182 -0.226,-0.611 -0.452,-0.929 -0.184,-0.256 -0.381,-1.159 -0.451,-1.5 0.024,-0.173 -0.014,-0.373 -0.161,-0.696 0,0 -0.521,-0.882 -1.358,-0.112 0,0 -0.26,0.427 -0.082,0.76 0.054,0.211 0.331,1.323 0.353,1.364 -0.419,0.255 -0.792,0.456 -0.792,0.456 -1.402,0.703 -2.218,1.45 -2.218,1.45 v 0.137 c 0,0 0.384,0.789 0.36,1.061 -5.511,1.334 -9.189,6.433 -9.189,6.433 -0.453,0.361 1.945,1.765 1.945,1.765 l -0.066,-0.023 c 0,0 0.52,0.248 0.959,0.013 0,0 0.543,0.286 0.525,0.599 l -0.02,0.085 c -1.91,1.161 -2.411,2.6 -2.494,3.607 10e-4,10e-4 -0.987,-1.318 -1.486,-2.089 z" /></g></g></svg>
