<?xml version="1.0" encoding="UTF-8" standalone="no"?>
<svg version="1.1" id="Version_1.0" width="612" height="792" viewBox="0 0 612 792" overflow="visible" enable-background="new 0 0 612 792" xml:space="preserve" sodipodi:docname="378-1.svg" inkscape:version="1.2.2 (732a01da63, 2022-12-09)" xmlns:inkscape="http://www.inkscape.org/namespaces/inkscape" xmlns:sodipodi="http://sodipodi.sourceforge.net/DTD/sodipodi-0.dtd" xmlns="http://www.w3.org/2000/svg" xmlns:svg="http://www.w3.org/2000/svg" xmlns:rdf="http://www.w3.org/1999/02/22-rdf-syntax-ns#" xmlns:cc="http://creativecommons.org/ns#" xmlns:dc="http://purl.org/dc/elements/1.1/"><metadata id="metadata852"><rdf:RDF><cc:Work rdf:about=""><dc:format>image/svg+xml</dc:format><dc:type rdf:resource="http://purl.org/dc/dcmitype/StillImage" /></cc:Work></rdf:RDF></metadata><defs id="defs850" /><sodipodi:namedview inkscape:current-layer="octagon" inkscape:window-maximized="1" inkscape:window-y="-8" inkscape:window-x="1912" inkscape:cy="396.87226" inkscape:cx="173.14098" inkscape:zoom="1.1464646" inkscape:document-rotation="0" pagecolor="#ffffff" bordercolor="#666666" borderopacity="1" objecttolerance="10" gridtolerance="10" guidetolerance="10" inkscape:pageopacity="0" inkscape:pageshadow="2" inkscape:window-width="1920" inkscape:window-height="1009" id="namedview848" showgrid="false" inkscape:showpageshadow="2" inkscape:pagecheckerboard="0" inkscape:deskcolor="#d1d1d1" /><g id="octagon" display="none"><polygon fill="none" stroke="#0000FF" stroke-width="2" points="305,516.5 218.733,480.768 183,394.5 218.733,308.233 305,272.5    391.268,308.233 427,394.5 391.268,480.768  " id="octagonOutline" /><line fill="none" stroke="#0000FF" stroke-width="2" x1="202.5" y1="345.7" x2="407.5" y2="345.7" id="mod1" /><line fill="none" stroke="#0000FF" stroke-width="2" x1="202.5" y1="443.3" x2="407.5" y2="443.3" id="mod2" /><path id="amplifierD" style="fill:none;stroke:#0000ff;stroke-width:1.999;stroke-linecap:butt;stroke-linejoin:miter;stroke-miterlimit:4;stroke-dasharray:none;stroke-opacity:1" d="m 179.56,317.5 126.44,-73 127.44223,72.99999 m -253.88223,0 v 0 -80.26865 0 h 253.88223 v 80.26865 0" /><rect style="fill:none;fill-opacity:1;stroke:#0000ff;stroke-width:1.99172;stroke-linecap:round;stroke-linejoin:miter;stroke-miterlimit:4;stroke-dasharray:none;stroke-opacity:1;paint-order:markers fill stroke" id="amplifierAC" width="168.22823" height="97.589767" x="441.47321" y="150.52045" /><rect y="248.11023" x="441.47321" height="97.589767" width="168.22823" id="amplifierG" style="fill:none;fill-opacity:1;stroke:#0000ff;stroke-width:1.99172;stroke-linecap:round;stroke-linejoin:miter;stroke-miterlimit:4;stroke-dasharray:none;stroke-opacity:1;paint-order:markers fill stroke" /><rect style="fill:none;fill-opacity:1;stroke:#0000ff;stroke-width:1.99172;stroke-linecap:round;stroke-linejoin:miter;stroke-miterlimit:4;stroke-dasharray:none;stroke-opacity:1;paint-order:markers fill stroke" id="amplifierH" width="168.22823" height="97.589767" x="441.47321" y="345.70001" /><rect y="443.28979" x="441.47321" height="97.589767" width="168.22823" id="amplifierM" style="fill:none;fill-opacity:1;stroke:#0000ff;stroke-width:1.99172;stroke-linecap:round;stroke-linejoin:miter;stroke-miterlimit:4;stroke-dasharray:none;stroke-opacity:1;paint-order:markers fill stroke" /><rect style="fill:none;fill-opacity:1;stroke:#0000ff;stroke-width:1.99172;stroke-linecap:round;stroke-linejoin:miter;stroke-miterlimit:4;stroke-dasharray:none;stroke-opacity:1;paint-order:markers fill stroke" id="amplifierJKP" width="168.22823" height="97.589767" x="441.47321" y="540.87958" /><rect y="150.52045" x="2.8270514" height="97.589767" width="168.22823" id="amplifierW" style="fill:none;fill-opacity:1;stroke:#0000ff;stroke-width:1.99172;stroke-linecap:round;stroke-linejoin:miter;stroke-miterlimit:4;stroke-dasharray:none;stroke-opacity:1;paint-order:markers fill stroke" /><rect style="fill:none;fill-opacity:1;stroke:#0000ff;stroke-width:1.99172;stroke-linecap:round;stroke-linejoin:miter;stroke-miterlimit:4;stroke-dasharray:none;stroke-opacity:1;paint-order:markers fill stroke" id="amplifierXY" width="168.22823" height="97.589767" x="2.8270514" y="248.11021" /><rect y="345.69998" x="2.8270514" height="97.589767" width="168.22823" id="amplifierVAF" style="fill:none;fill-opacity:1;stroke:#0000ff;stroke-width:1.99172;stroke-linecap:round;stroke-linejoin:miter;stroke-miterlimit:4;stroke-dasharray:none;stroke-opacity:1;paint-order:markers fill stroke" /><rect style="fill:none;fill-opacity:1;stroke:#0000ff;stroke-width:1.99172;stroke-linecap:round;stroke-linejoin:miter;stroke-miterlimit:4;stroke-dasharray:none;stroke-opacity:1;paint-order:markers fill stroke" id="amplifierT" width="168.22823" height="97.589767" x="2.8270514" y="443.28973" /><rect y="540.87952" x="2.8270514" height="97.589767" width="168.22823" id="amplifierZ" style="fill:none;fill-opacity:1;stroke:#0000ff;stroke-width:1.99172;stroke-linecap:round;stroke-linejoin:miter;stroke-miterlimit:4;stroke-dasharray:none;stroke-opacity:1;paint-order:markers fill stroke" /><rect style="fill:none;fill-opacity:1;stroke:#0000ff;stroke-width:2.43953;stroke-linecap:round;stroke-linejoin:miter;stroke-miterlimit:4;stroke-dasharray:none;stroke-opacity:1;paint-order:markers fill stroke" id="amplifierAB" width="253.54138" height="97.141968" x="179.78391" y="139.86548" /><rect y="547.46027" x="179.45253" height="97.141968" width="253.54138" id="amplifierR" style="fill:none;fill-opacity:1;stroke:#0000ff;stroke-width:2.43953;stroke-linecap:round;stroke-linejoin:miter;stroke-miterlimit:4;stroke-dasharray:none;stroke-opacity:1;paint-order:markers fill stroke" /><path style="fill:#0000ff;stroke:#0000ff;stroke-width:1.999;stroke-linecap:butt;stroke-linejoin:miter;stroke-opacity:1;fill-opacity:1;stroke-miterlimit:4;stroke-dasharray:none" d="m 306.85589,644.52992 v 52.02633" id="amplifierQ" /></g><g id="g4883" transform="matrix(0.27,0,0,0.27,303.1611,464.27549)" style="fill:#f6d140;fill-opacity:1;stroke:#d4aa00;stroke-opacity:1"><path id="path2216-7" style="fill:#d40000;fill-opacity:1;fill-rule:evenodd;stroke:#aa0000;stroke-width:1px;stroke-linecap:butt;stroke-linejoin:miter;stroke-opacity:1" d="M 636.55879,-29.603994 V -350.4423 c 85.79504,-58.95342 138.16999,-122.83464 187.24199,-205.70244 49.072,82.8678 101.44695,146.74902 187.24202,205.70244 v 320.838304 c 0,0 -87.22067,69.336731 -187.22067,69.336731 -100,0 -187.26334,-69.336729 -187.26334,-69.336729 z" inkscape:connector-curvature="0" sodipodi:nodetypes="ccccczc" /><path id="path3238-9" style="fill:#f6d140;fill-opacity:1;fill-rule:evenodd;stroke:#d4aa00;stroke-width:1px;stroke-linecap:butt;stroke-linejoin:miter;stroke-opacity:1" d="m 823.80113,-453.45522 c -45.44107,59.71937 -96.88673,121.25774 -163.31274,166.36451 v -49.98973 c 74.44634,-60.93368 124.48605,-121.58378 163.31274,-186.42944 38.82669,64.84569 88.8664,125.49579 163.31274,186.42947 v 49.98973 C 920.68786,-332.19745 869.2422,-393.73585 823.80113,-453.45522 Z" inkscape:connector-curvature="0" /><path id="path2336-6" style="fill:#f6d140;fill-opacity:1;fill-rule:evenodd;stroke:#d4aa00;stroke-width:1px;stroke-linecap:butt;stroke-linejoin:miter;stroke-opacity:1" d="m 660.48839,-219.09071 v -50 c 66.42601,-45.10677 117.87167,-106.64514 163.31274,-166.36451 45.44107,59.71937 96.88673,121.25777 163.31274,166.36454 v 50 c -66.42601,-45.10677 -117.87167,-96.64517 -163.31274,-156.36454 -45.44107,59.71937 -96.88673,111.25774 -163.31274,156.36451 z" inkscape:connector-curvature="0" /><path id="path2274-5" style="fill:#f6d140;fill-opacity:1;fill-rule:evenodd;stroke:#d4aa00;stroke-width:1px;stroke-linecap:butt;stroke-linejoin:miter;stroke-opacity:1" d="m 823.81416,-297.28212 c 35.86526,47.13468 83.98852,85.6613 131.76715,120.33395 -54.38305,95.486048 -200.93651,96.292288 -263.04549,0 47.77863,-34.67265 95.41308,-73.19927 131.27834,-120.33395 z m -0.002,-60.02857 c 45.44107,59.71937 97.39026,109.23821 163.81627,154.34498 l -0.002,45.99985 c -96.61815,114.488628 -234.36463,111.582738 -327.13635,0 l -0.002,-45.99985 c 66.42632,-45.10677 117.88332,-94.62561 163.32439,-154.34498 z" inkscape:connector-curvature="0" /><path id="path2226-3" style="fill:#f6d140;fill-opacity:1;fill-rule:evenodd;stroke:#d4aa00;stroke-width:1px;stroke-linecap:butt;stroke-linejoin:miter;stroke-opacity:1" d="m 660.49039,-142.96586 v 43.999998 c 92.77172,93.5990997 230.5182,92.5613297 327.13635,0 v -43.999998 c -96.61815,111.156318 -234.36463,107.653868 -327.13635,0 z" inkscape:connector-curvature="0" /><path id="path2209-7" style="fill:#f6d140;fill-opacity:1;fill-rule:evenodd;stroke:#d4aa00;stroke-width:1px;stroke-linecap:butt;stroke-linejoin:miter;stroke-opacity:1" d="m 660.49039,-42.965862 v -44 c 92.77172,93.5990997 230.5182,92.5613297 327.13635,0 v 44 c -96.61815,76.42283 -234.36463,77.73809 -327.13635,0 z" inkscape:connector-curvature="0" /></g></svg>
