<?xml version="1.0" encoding="UTF-8" standalone="no"?>
<svg
   xmlns:dc="http://purl.org/dc/elements/1.1/"
   xmlns:cc="http://creativecommons.org/ns#"
   xmlns:rdf="http://www.w3.org/1999/02/22-rdf-syntax-ns#"
   xmlns:svg="http://www.w3.org/2000/svg"
   xmlns="http://www.w3.org/2000/svg"
   xmlns:sodipodi="http://sodipodi.sourceforge.net/DTD/sodipodi-0.dtd"
   xmlns:inkscape="http://www.inkscape.org/namespaces/inkscape"
   version="1.1"
   id="Version_1.0"
   x="0px"
   y="0px"
   width="612px"
   height="792px"
   viewBox="0 0 612 792"
   enable-background="new 0 0 612 792"
   xml:space="preserve"
   sodipodi:docname="15180105.svg"
   inkscape:version="1.0 (4035a4fb49, 2020-05-01)"><metadata
   id="metadata909"><rdf:RDF><cc:Work
       rdf:about=""><dc:format>image/svg+xml</dc:format><dc:type
         rdf:resource="http://purl.org/dc/dcmitype/StillImage" /><dc:title /></cc:Work></rdf:RDF></metadata><defs
   id="defs907" /><sodipodi:namedview
   inkscape:document-rotation="0"
   pagecolor="#ffffff"
   bordercolor="#666666"
   borderopacity="1"
   objecttolerance="10"
   gridtolerance="10"
   guidetolerance="10"
   inkscape:pageopacity="0"
   inkscape:pageshadow="2"
   inkscape:window-width="1920"
   inkscape:window-height="1017"
   id="namedview905"
   showgrid="false"
   inkscape:zoom="1.0732323"
   inkscape:cx="306"
   inkscape:cy="396"
   inkscape:window-x="1912"
   inkscape:window-y="-8"
   inkscape:window-maximized="1"
   inkscape:current-layer="Version_1.0" />
<g
   id="octagon"
   display="none">
	<g
   id="outFrame"
   display="inline">
		<line
   fill="none"
   stroke="#0000FF"
   stroke-width="2"
   x1="220"
   y1="309.5"
   x2="306"
   y2="273"
   id="line881" />
		<line
   fill="none"
   stroke="#0000FF"
   stroke-width="2"
   x1="306"
   y1="273"
   x2="390.5"
   y2="309.5"
   id="line883" />
		<line
   fill="none"
   stroke="#0000FF"
   stroke-width="2"
   x1="390.5"
   y1="309.5"
   x2="427"
   y2="396"
   id="line885" />
		<line
   fill="none"
   stroke="#0000FF"
   stroke-width="2"
   x1="427"
   y1="396"
   x2="390.5"
   y2="482.5"
   id="line887" />
		<line
   fill="none"
   stroke="#0000FF"
   stroke-width="2"
   x1="390.5"
   y1="482.5"
   x2="306"
   y2="516"
   id="line889" />
		<line
   fill="none"
   stroke="#0000FF"
   stroke-width="2"
   x1="306"
   y1="516"
   x2="220"
   y2="482.5"
   id="line891" />
		<line
   fill="none"
   stroke="#0000FF"
   stroke-width="2"
   x1="220"
   y1="482.5"
   x2="183"
   y2="396"
   id="line893" />
		<line
   fill="none"
   stroke="#0000FF"
   stroke-width="2"
   x1="183"
   y1="396"
   x2="220"
   y2="309.5"
   id="line895" />
	</g>
	
		<line
   id="mod2_1_"
   display="inline"
   fill="none"
   stroke="#0000FF"
   stroke-width="2"
   x1="203.966"
   y1="445.015"
   x2="406.199"
   y2="445.295" />
	
		<line
   id="mod1_1_"
   display="inline"
   fill="none"
   stroke="#0000FF"
   stroke-width="2"
   x1="203.966"
   y1="346.985"
   x2="406.199"
   y2="346.705" />
</g>
<g
   id="main"
   transform="matrix(1.08,0,0,1.08,-24.211721,-28.543653)">
	
<path
   style="stroke-width:0.336471"
   id="path48"
   d="m 226.56215,433.71697 c 0.2875,-3.41454 1.38942,-5.20648 1.40163,-13.60382 0.0348,-16.28148 -2.31091,-33.25523 1.33406,-23.26929 1.49755,4.1263 2.59524,3.8032 2.62995,9.2656 0.0786,10.01489 1.56699,20.0803 -7.00613,48.26375 -0.1025,1.15522 9.82365,1.11464 12.9634,-0.0982 0.56853,-0.53704 0.62657,-0.84119 0.36984,-1.80503 -1.41988,-5.36109 -0.76749,-4.89802 1.33444,-15.62841 2.42086,-12.2291 1.85197,-8.29683 6.50737,3.38499 1.14766,2.87838 2.5134,6.08506 2.70557,11.59754 0.031,0.87781 -0.22429,1.4972 0.71881,1.61585 5.7317,0.72001 18.5754,1.28077 15.2165,-3.47338 -1.27628,-1.80253 -7.44079,-5.24511 -9.90892,-22.72979 -2.30044,-16.26087 2.32044,-13.50393 4.40239,-15.11393 1.39972,-1.08072 1.52763,-4.4461 3.97461,-5.39112 3.39209,-1.23872 6.10604,1.31656 15.25136,-2.47571 3.47908,-1.35666 7.84345,-3.37137 14.59859,-5.83675 7.66428,-0.44506 6.68549,-1.22945 6.21374,2.69356 -2.30537,19.74027 2.31437,9.2583 -0.68253,31.66939 -2.12702,16.45302 -2.4817,13.79849 -4.80641,18.87918 -0.24641,0.54594 7.01994,3.10628 14.69998,1.45804 2.48449,-0.51942 3.38959,-0.33607 -0.55675,-5.54526 -2.6083,-3.42835 -2.46874,-1.0409 5.88984,-24.48175 0.95527,-2.68213 0.68572,-3.51828 3.55853,1.07286 10.34553,16.90441 9.25445,29.75383 9.0182,29.04758 0.23648,0.68665 9.71836,4.25739 16.37732,-2.03517 1.06245,-1.0161 0.95371,-0.6614 0.17854,-1.82639 -6.4477,-9.78067 -6.61732,-5.50978 -6.79157,-12.22369 -0.2766,-10.72592 -6.19772,-18.1361 -8.32988,-27.2447 -3.39835,-14.25952 -3.82108,-13.48433 -3.29849,-19.2354 0.54324,-6.32591 1.6114,-7.43775 10.14938,-6.09367 4.5307,0.82928 9.51928,-0.0805 9.92044,-0.46657 0.28911,-0.2813 0.28103,-4.77772 0.28621,-5.19451 3.94042,0.16794 5.46303,2.34724 11.18674,4.6086 3.56033,1.40786 7.79388,2.41556 11.18341,21.40901 3.02241,16.90496 5.42836,40.26166 3.59387,48.40327 -0.57683,2.5699 -0.64799,2.8289 -0.031,2.9443 0.3504,0.0662 4.22612,-0.41385 4.16024,-0.80814 -0.20522,-1.16407 -0.094,-2.91232 0.58347,-9.85028 5.45227,-55.79834 -4.7869,-53.85342 4.50084,-54.20871 2.84644,-0.10953 3.85629,-0.3184 4.76034,-0.98477 1.86983,-1.37593 0.51243,-1.37717 -2.3742,-2.13601 -7.36628,-1.9594 -6.91183,-2.09854 -8.14139,-7.02252 -12.11633,-47.96367 -27.58718,-37.82235 -39.90311,-44.23279 -15.09119,-7.69283 -19.97134,-3.37271 -32.26246,0.43536 -23.36633,7.35156 -30.94871,-0.143 -48.57594,2.33062 -42.97124,6.10861 -25.17565,60.00942 -27.55167,82.86514 -0.75648,7.36187 0.25935,14.67208 0.5507,11.07109 z"
   inkscape:connector-curvature="0" /></g>
</svg>
