<?xml version="1.0" encoding="utf-8"?>
<!-- Generator: Adobe Illustrator 16.0.0, SVG Export Plug-In . SVG Version: 6.00 Build 0)  -->
<!DOCTYPE svg PUBLIC "-//W3C//DTD SVG 1.1//EN" "http://www.w3.org/Graphics/SVG/1.1/DTD/svg11.dtd">
<svg version="1.1" id="Version_1.0" xmlns="http://www.w3.org/2000/svg" xmlns:xlink="http://www.w3.org/1999/xlink" x="0px" y="0px"
	 width="612px" height="792px" viewBox="0 0 612 792" enable-background="new 0 0 612 792" xml:space="preserve">
<g id="octagon" display="none">
	<g id="outFrame" display="inline">
		<line fill="none" stroke="#0000FF" stroke-width="2" x1="220" y1="309.5" x2="306" y2="273"/>
		<line fill="none" stroke="#0000FF" stroke-width="2" x1="306" y1="273" x2="390.5" y2="309.5"/>
		<line fill="none" stroke="#0000FF" stroke-width="2" x1="390.5" y1="309.5" x2="427" y2="396"/>
		<line fill="none" stroke="#0000FF" stroke-width="2" x1="427" y1="396" x2="390.5" y2="482.5"/>
		<line fill="none" stroke="#0000FF" stroke-width="2" x1="390.5" y1="482.5" x2="306" y2="516"/>
		<line fill="none" stroke="#0000FF" stroke-width="2" x1="306" y1="516" x2="220" y2="482.5"/>
		<line fill="none" stroke="#0000FF" stroke-width="2" x1="220" y1="482.5" x2="183" y2="396"/>
		<line fill="none" stroke="#0000FF" stroke-width="2" x1="183" y1="396" x2="220" y2="309.5"/>
	</g>
	
		<line id="mod2_1_" display="inline" fill="none" stroke="#0000FF" stroke-width="2" x1="203.966" y1="445.015" x2="406.199" y2="445.295"/>
	
		<line id="mod1_1_" display="inline" fill="none" stroke="#0000FF" stroke-width="2" x1="203.966" y1="346.985" x2="406.199" y2="346.705"/>
</g>
<g id="main">
	<g transform="translate(74,65)">
		<path id="_102634488" d="M 230.8 288.2 c 18.6 0 57.6 -11.1 64.3 -21.1 c -7 -3.7 -62.7 -39.9 -63.2 -39.9 c -1.1 0 -62.3 38.5 -63.7 40.5 c 6.4 8.7 41.5 20.5 58.2 20.5 H 230.8 z"/>
		<path id="_100750160" d="M 277.4 377.9 l 1.1 13.3 l 1.7 32.1 h 7.2 c 0 -15.2 -2.8 -31.5 -2.8 -46.6 c 0 -8.5 -1 -15.6 -1.1 -23.9 C 283.3 339.5 284.1 345.4 290.1 336.4 L 289.4 328.6 l 0.1 -2.8 H 279 V 285.4 C 272.8 286.8 265.9 289.9 258.3 291.8 C 251.9 293.4 242.2 295.4 234.7 295.4 H 228.6 c -18.9 0 -30.5 -6.6 -44.9 -10 v 40.5 H 173.2 v 1.7 L 172.5 336.9 l 8 9.3 l -5 77.1 h 7.7 V 415.1 l 3.5 -54.3 c 1.3 1 5.3 6.8 7.5 9 c 2.2 2.2 6 5.4 8.7 7.3 c 5.5 3.7 13.9 9.6 21.8 10.3 v 36 h 13.9 v -36 c 9.3 -2.2 15.4 -5.6 22 -10.7 C 264.1 374 266.1 372.3 269.2 369.2 c 1.7 -1.7 6.2 -7.9 7.6 -8.5 v 7.8 L 277.4 377.9 z"/>
		<line id="_62107160" fill="none" x1="183.7" y1="285.4" x2="183.8" y2="277.5"/>
		<line id="_40108936" fill="none" x1="279.0" y1="285.4" x2="279.0" y2="277.2"/>
		<path id="_38781984" fill="#FFFFFF" d="M 226.4 288.2 c -10.8 0 -29.2 -4.9 -42.6 -10.7 L 183.7 285.4 c 14.4 3.4 26 10 44.9 10 h 6.1 c 7.5 0 17.2 -1.9 23.6 -3.5 C 265.8 290 272.8 286.9 279 285.5 V 277.3 C 264.1 283.4 243 288.2 230.8 288.2 H 226.4 z"/>
	</g>
</g>
</svg>
