<?xml version="1.0" encoding="UTF-8" standalone="no"?>
<!-- Generator: Adobe Illustrator 16.0.0, SVG Export Plug-In . SVG Version: 6.00 Build 0)  -->

<svg
   version="1.1"
   id="Version_1.0"
   x="0px"
   y="0px"
   width="612px"
   height="792px"
   viewBox="0 0 612 792"
   enable-background="new 0 0 612 792"
   xml:space="preserve"
   sodipodi:docname="20120200.svg"
   inkscape:version="1.1 (c68e22c387, 2021-05-23)"
   xmlns:inkscape="http://www.inkscape.org/namespaces/inkscape"
   xmlns:sodipodi="http://sodipodi.sourceforge.net/DTD/sodipodi-0.dtd"
   xmlns="http://www.w3.org/2000/svg"
   xmlns:svg="http://www.w3.org/2000/svg"><defs
   id="defs884" /><sodipodi:namedview
   id="namedview882"
   pagecolor="#ffffff"
   bordercolor="#666666"
   borderopacity="1.0"
   inkscape:pageshadow="2"
   inkscape:pageopacity="0.0"
   inkscape:pagecheckerboard="0"
   showgrid="false"
   inkscape:zoom="1.0113636"
   inkscape:cx="257.57303"
   inkscape:cy="396"
   inkscape:window-width="1920"
   inkscape:window-height="1009"
   inkscape:window-x="1912"
   inkscape:window-y="-8"
   inkscape:window-maximized="1"
   inkscape:current-layer="Version_1.0" />
<g
   id="octagon"
   display="none">
	<g
   id="outFrame"
   display="inline">
		<line
   fill="none"
   stroke="#0000FF"
   stroke-width="2"
   x1="220"
   y1="309.5"
   x2="306"
   y2="273"
   id="line855" />
		<line
   fill="none"
   stroke="#0000FF"
   stroke-width="2"
   x1="306"
   y1="273"
   x2="390.5"
   y2="309.5"
   id="line857" />
		<line
   fill="none"
   stroke="#0000FF"
   stroke-width="2"
   x1="390.5"
   y1="309.5"
   x2="427"
   y2="396"
   id="line859" />
		<line
   fill="none"
   stroke="#0000FF"
   stroke-width="2"
   x1="427"
   y1="396"
   x2="390.5"
   y2="482.5"
   id="line861" />
		<line
   fill="none"
   stroke="#0000FF"
   stroke-width="2"
   x1="390.5"
   y1="482.5"
   x2="306"
   y2="516"
   id="line863" />
		<line
   fill="none"
   stroke="#0000FF"
   stroke-width="2"
   x1="306"
   y1="516"
   x2="220"
   y2="482.5"
   id="line865" />
		<line
   fill="none"
   stroke="#0000FF"
   stroke-width="2"
   x1="220"
   y1="482.5"
   x2="183"
   y2="396"
   id="line867" />
		<line
   fill="none"
   stroke="#0000FF"
   stroke-width="2"
   x1="183"
   y1="396"
   x2="220"
   y2="309.5"
   id="line869" />
	</g>
	
		<line
   id="mod2_1_"
   display="inline"
   fill="none"
   stroke="#0000FF"
   stroke-width="2"
   x1="203.966"
   y1="445.015"
   x2="406.199"
   y2="445.295" />
	
		<line
   id="mod1_1_"
   display="inline"
   fill="none"
   stroke="#0000FF"
   stroke-width="2"
   x1="203.966"
   y1="346.985"
   x2="406.199"
   y2="346.705" />
</g>
<g id="main">
	<g id="g878" transform="translate(68.224719,81.078652)">
		<path id="_85660424" d="m 142,305.1 h -5.6 l -1.5,5.2 h 6.4 v 5.5 h -5 l -1.4,5.1 h 6.4 c 1.1,4.8 1.4,9.7 2.6,14.5 1.2,4.6 3.3,8.3 5.3,12.1 3.2,6.2 12.1,13 21.5,13 h 3.5 c 6.4,0 13.4,-3 16.7,-6.2 2.6,-2.6 9.1,-9.3 9.9,-13.1 l -1.6,-1 c -1.4,0.9 -5.9,7.3 -8.2,9.4 -2.4,2.1 -8.4,5.1 -12.7,5.1 h -4.5 c -12.8,0 -19.6,-19.9 -19.6,-33.8 H 188 c 1.2,0 2,-4 2.3,-5.1 h -36 v -5.5 h 37 c 1.4,0 1.8,-4.1 2.3,-5.1 h -39.1 c 0.3,-0.5 1.7,-9.5 2.1,-11.1 0.8,-3.4 2.4,-7.2 3.7,-9.9 2.5,-5 8,-11.6 15.4,-11.6 h 3.9 c 10.2,0 17.1,10.2 17.1,20.6 h 2.6 v -18.6 c 0,-2.2 -15.2,-6.1 -19.3,-6.1 h -5.2 c -9.7,0 -18.5,6.4 -22.8,12 -3.8,4.9 -9.8,16.4 -10,24.6 z" />
		<path id="_87409168" d="m 278.4,350.5 c 0,-2.6 2.4,-4.5 5.1,-4.5 h 1.6 c 2.3,0 3,1.2 4.8,1.6 -1,4.1 -2.6,9 -7.7,9 h -0.3 c -1.8,0 -3.5,-2.1 -3.5,-3.9 z m 21.2,-63.7 c 0,-6.8 3.8,-14.5 10.3,-14.5 h 2.3 c 11,0 4.6,14.5 11.6,14.5 h 1.2 c 2.2,0 4.5,-2.7 4.5,-5.1 v -1 c 0,-5.9 -7.8,-12.2 -14.2,-12.2 h -2.8 c -14.7,0 -23.5,13 -23.5,28 v 6.1 h -12.2 v 6.4 h 12.5 l 0.7,6.1 h -13.2 v 6.4 h 13.5 l 0.7,12.6 -0.1,8.4 -3.5,-0.4 h -3.2 c -5,0 -9.7,4.4 -9.7,9.3 0,5 2.5,9 7.4,9 h 1.3 c 4.5,0 10.1,-6.7 10.9,-10.3 1,0.3 7.3,5.2 8.9,6.2 2.7,1.8 6.8,4.1 11.1,4.1 h 3.5 c 8.6,0 16.7,-12.4 16.7,-21.6 -1.3,0 -0.6,-0.2 -1.9,-0.2 -0.8,0 -2.4,10.3 -12.5,10.3 h -3.2 c -3.9,0 -16.9,-3.8 -19.6,-5.1 1.4,-5.9 3.9,-11.6 3.9,-19 v -3.3 h 17 v -6.4 h -17.1 v -2.6 l -0.4,-3.5 h 17.4 v -6.4 h -17.6 l -0.8,-13.6 0.1,-2.2 z" />
		<path id="_87516072" d="m 238.2,321.2 c 1.3,0.3 8.4,6 9.6,7.2 3.2,3.1 4.8,5.2 5.6,10.8 1.1,8.2 -7,16.9 -15.2,17.1 V 321.2 Z M 234,303.5 c -4.8,-2.5 -12.4,-9.2 -12.9,-15.7 -0.6,-8.7 4.3,-14.8 12.9,-14.8 z m 4.2,-30.9 c 1.8,0.9 5.5,0.8 8.1,2.2 2.1,1.2 4.3,2.4 5.7,4.3 4.3,5.9 3.4,7 5.2,14.8 h 2.6 v -19 c 0,-2.3 -17.1,-6.1 -21.6,-6.1 V 262 H 234 v 6.8 c -11.6,0 -23.2,9.1 -23.2,20.9 v 1.9 c 0,6.8 4.7,13.1 8.6,16.1 2.7,2.1 11.8,9.6 14.6,10.3 v 38.3 c -5.8,0 -12,-2.8 -14.9,-5.7 -1.6,-1.6 -3.1,-4.1 -4,-6.3 -0.5,-1.3 -1,-7.6 -2.3,-7.6 h -2.3 v 19 c 1.7,0.1 7.9,2.6 10.6,3.3 3.1,0.8 8,1.5 12,1.5 h 1 v 8 h 4.2 v -8 c 13.4,0 25.7,-10.5 25.7,-24.1 0,-8.6 -5,-14.2 -9.9,-18.1 -5.4,-4.2 -10.3,-8.1 -15.9,-11.9 v -33.8 z" />
	</g>
</g>
</svg>
