<?xml version="1.0" encoding="utf-8"?>
<!-- Generator: Adobe Illustrator 16.0.0, SVG Export Plug-In . SVG Version: 6.00 Build 0)  -->
<!DOCTYPE svg PUBLIC "-//W3C//DTD SVG 1.1//EN" "http://www.w3.org/Graphics/SVG/1.1/DTD/svg11.dtd">
<svg version="1.1" id="Version_1.0" xmlns="http://www.w3.org/2000/svg" xmlns:xlink="http://www.w3.org/1999/xlink" x="0px" y="0px"
	 width="612px" height="792px" viewBox="0 0 612 792" enable-background="new 0 0 612 792" xml:space="preserve">
<g id="octagon" display="none">
	<g id="outFrame" display="inline">
		<line fill="none" stroke="#0000FF" stroke-width="2" x1="220" y1="309.5" x2="306" y2="273"/>
		<line fill="none" stroke="#0000FF" stroke-width="2" x1="306" y1="273" x2="390.5" y2="309.5"/>
		<line fill="none" stroke="#0000FF" stroke-width="2" x1="390.5" y1="309.5" x2="427" y2="396"/>
		<line fill="none" stroke="#0000FF" stroke-width="2" x1="427" y1="396" x2="390.5" y2="482.5"/>
		<line fill="none" stroke="#0000FF" stroke-width="2" x1="390.5" y1="482.5" x2="306" y2="516"/>
		<line fill="none" stroke="#0000FF" stroke-width="2" x1="306" y1="516" x2="220" y2="482.5"/>
		<line fill="none" stroke="#0000FF" stroke-width="2" x1="220" y1="482.5" x2="183" y2="396"/>
		<line fill="none" stroke="#0000FF" stroke-width="2" x1="183" y1="396" x2="220" y2="309.5"/>
	</g>
	
		<line id="mod2_1_" display="inline" fill="none" stroke="#0000FF" stroke-width="2" x1="203.966" y1="445.015" x2="406.199" y2="445.295"/>
	
		<line id="mod1_1_" display="inline" fill="none" stroke="#0000FF" stroke-width="2" x1="203.966" y1="346.985" x2="406.199" y2="346.705"/>
</g>
<g id="main">
	<g>
		<path id="_65451144" d="M 244.35 426.45 v -6 c 0 -5.55 6.45 -18.45 7.8 -23.55 C 253.95 390.15 259.95 382.05 264 376.8 c 8.85 -11.4 21.3 -22.35 41.25 -22.35 h 10.95 c 8.55 0 22.05 10.8 26.1 16.2 C 345.6 375 347.85 378.45 350.7 383.1 C 351.9 384.9 357.45 396 357.45 397.8 v 1.65 H 358.5 v 1.65 c 0 1.05 2.25 3.75 2.1 7.8 l 1.2 1.65 c 0 5.1 2.7 16.95 3.3 22.5 C 366 441 368.4 447 363.45 454.35 c 0 6 -12.9 21.75 -15.45 21.9 L 325.05 472.5 c -4.5 -0.75 -16.95 4.95 -23.1 4.95 c -5.1 0 -13.95 -4.35 -18.75 -4.35 c -4.05 0 -8.1 3.3 -13.8 3.3 h -1.5 c -4.8 0 -14.85 -15.3 -17.55 -19.2 C 245.85 450.75 244.35 437.1 244.35 426.45 z M 321 348.9 L 305.85 346.2 C 303.9 345.9 292.8 348.9 291.45 349.5 L 275.7 320.7 l 4.35 1.2 V 314.55 l 22.35 8.4 l 0.75 -8.85 l 8.1 6.15 L 325.5 313.65 v 6.45 L 344.25 316.5 L 321 348.9 L 321 348.9 z M 350.4 312.75 L 327.75 316.8 V 309.9 C 325.5 311.1 313.5 317.1 311.25 317.1 c -0.15 0 -8.4 -6.45 -9.9 -7.2 L 299.7 319.8 l -21.9 -9 v 7.35 L 270.15 315.75 l 20.25 37.8 L 289.8 353.85 C 278.25 356.55 264.15 370.8 258.15 379.8 C 256.2 382.65 255 386.4 253.05 388.95 c -3.45 4.5 -2.25 6.15 -4.35 9.9 C 247.2 401.7 241.5 416.85 241.5 420.3 v 9.3 c 0 2.55 1.8 14.4 2.4 16.8 C 244.95 449.85 244.8 451.35 245.85 454.5 c 0.75 2.25 2.25 3.9 3.45 5.85 c 3.3 5.1 12 18.75 19.05 18.75 c 6.3 0 10.65 -3.3 14.25 -3.3 c 5.7 0 13.05 4.35 18.15 4.35 h 1.65 c 5.1 0 14.25 -3.6 20.1 -4.65 c 4.5 -0.75 14.7 2.55 21.15 2.55 H 348 c 4.2 0 12 -10.5 14.4 -13.65 C 365.1 460.95 365.7 459 366.75 454.35 c 0.3 -1.05 2.7 -10.8 2.7 -10.95 c 0 -7.5 -2.25 -10.2 -2.7 -14.85 C 366.15 422.55 365.85 418.5 365.1 413.25 C 364.5 408.9 358.05 391.65 356.1 387.6 c -6 -12.3 -19.2 -33 -34.95 -34.35 L 350.4 312.75 z"/>
		<path id="_66403824" fill="#FFFFFF" d="M 344.25 316.5 L 325.65 320.25 V 313.8 L 311.25 320.25 l -8.1 -6 L 302.4 323.1 L 280.05 314.7 v 7.35 L 275.7 320.7 L 291.45 349.5 c 1.35 -0.6 12.6 -3.6 14.4 -3.3 L 321 348.9 L 344.25 316.5 L 344.25 316.5 z"/>
		<path id="_65363480" fill="#FFFFFF" d="M 307.5 412.05 C 316.5 414.15 330 418.5 330 429.15 V 433.5 c 0 11.85 -10.35 20.25 -22.5 20.25 v 9.9 H 302.55 V 453.9 c -5.1 0 -10.5 -1.8 -13.65 -3.9 C 283.95 446.7 284.55 443.85 281.7 439.5 L 281.1 430.8 h 8.25 c 0 8.7 4.5 15.15 13.2 15.45 V 419.85 C 299.25 419.55 292.2 416.55 289.8 414.9 c -2.55 -1.5 -7.5 -7.5 -7.5 -10.5 V 397.8 c 0 -8.85 10.5 -17.4 20.25 -17.55 v -6 H 307.5 v 6 c 10.95 2.55 20.25 5.85 20.25 19.2 H 319.05 V 397.2 c 0 -4.65 -6.15 -8.85 -11.55 -8.85 V 412.05 L 307.5 412.05 z M 244.35 426.45 c 0 10.65 1.5 24.45 6 30.75 c 2.7 3.9 12.75 19.2 17.55 19.2 h 1.65 c 5.7 0 9.75 -3.3 13.8 -3.3 c 4.65 0 13.65 4.35 18.75 4.35 c 6.15 0 18.6 -5.7 23.1 -4.95 L 348 476.25 c 2.55 0 15.45 -15.9 15.45 -21.9 C 368.4 447 366 441 365.1 432.9 C 364.5 427.35 361.8 415.65 361.8 410.4 l -1.2 -1.5 C 360.75 404.85 358.5 402.15 358.5 401.1 V 399.45 H 357.45 V 397.8 c 0 -1.8 -5.55 -12.9 -6.75 -14.7 C 347.85 378.45 345.45 375.15 342.3 370.65 C 338.25 365.25 324.9 354.45 316.2 354.45 H 305.25 c -19.95 0 -32.4 11.1 -41.25 22.35 C 259.95 382.05 253.95 390.15 252.15 396.9 c -1.35 4.95 -7.8 18 -7.8 23.55 V 426.45 z"/>
		<path id="_20229752" fill="#FFFFFF" d="M 291 399.45 v 2.25 c 0 5.4 6.9 8.25 11.55 9.3 V 388.5 H 300.9 C 295.2 388.5 291 393.6 291 399.45 z"/>
		<path id="_65371184" fill="#FFFFFF" d="M 307.5 446.1 c 7.95 0 13.2 -4.35 13.2 -12.15 v -1.5 c 0 -6.15 -7.2 -10.8 -13.2 -10.95 V 446.1 z"/>
		<path id="_63700480" d="M 307.5 421.5 c 6 0 13.2 4.65 13.2 10.95 v 1.65 c 0 7.8 -5.25 12.15 -13.2 12.15 V 421.5 z M 291 399.45 c 0 -5.85 4.2 -10.95 9.9 -10.95 h 1.65 v 22.5 C 297.9 409.95 291 407.1 291 401.7 V 399.45 z M 307.5 388.5 c 5.4 0 11.55 4.05 11.55 8.85 v 2.25 h 8.85 c 0 -13.35 -9.3 -16.65 -20.25 -19.2 v -6 H 302.55 v 6 c -9.75 0 -20.4 8.7 -20.4 17.4 v 6.6 c 0 3.15 5.1 9 7.5 10.5 s 9.45 4.5 12.75 4.8 v 26.4 C 293.85 445.95 289.35 439.5 289.35 430.8 H 281.1 L 281.7 439.5 c 2.85 4.35 2.25 7.05 7.2 10.35 c 3.15 2.1 8.55 3.9 13.65 3.9 v 9.9 H 307.5 V 453.9 c 12.15 0 22.5 -8.55 22.5 -20.25 v -4.5 c 0 -10.5 -13.5 -15 -22.5 -17.1 V 388.5 z"/>
	</g>
</g>
</svg>
