<?xml version="1.0" encoding="utf-8"?>
<!-- Generator: Adobe Illustrator 16.0.0, SVG Export Plug-In . SVG Version: 6.00 Build 0)  -->
<!DOCTYPE svg PUBLIC "-//W3C//DTD SVG 1.1//EN" "http://www.w3.org/Graphics/SVG/1.1/DTD/svg11.dtd">
<svg version="1.1" id="Version_1.0" xmlns="http://www.w3.org/2000/svg" xmlns:xlink="http://www.w3.org/1999/xlink" x="0px" y="0px"
	 width="612px" height="792px" viewBox="0 0 612 792" enable-background="new 0 0 612 792" xml:space="preserve">
<g id="octagon" display="none">
	<g id="outFrame" display="inline">
		<line fill="none" stroke="#0000FF" stroke-width="2" x1="220" y1="309.5" x2="306" y2="273"/>
		<line fill="none" stroke="#0000FF" stroke-width="2" x1="306" y1="273" x2="390.5" y2="309.5"/>
		<line fill="none" stroke="#0000FF" stroke-width="2" x1="390.5" y1="309.5" x2="427" y2="396"/>
		<line fill="none" stroke="#0000FF" stroke-width="2" x1="427" y1="396" x2="390.5" y2="482.5"/>
		<line fill="none" stroke="#0000FF" stroke-width="2" x1="390.5" y1="482.5" x2="306" y2="516"/>
		<line fill="none" stroke="#0000FF" stroke-width="2" x1="306" y1="516" x2="220" y2="482.5"/>
		<line fill="none" stroke="#0000FF" stroke-width="2" x1="220" y1="482.5" x2="183" y2="396"/>
		<line fill="none" stroke="#0000FF" stroke-width="2" x1="183" y1="396" x2="220" y2="309.5"/>
	</g>
	
		<line id="mod2_1_" display="inline" fill="none" stroke="#0000FF" stroke-width="2" x1="203.966" y1="445.015" x2="406.199" y2="445.295"/>
	
		<line id="mod1_1_" display="inline" fill="none" stroke="#0000FF" stroke-width="2" x1="203.966" y1="346.985" x2="406.199" y2="346.705"/>
</g>
<g id="main">
	<g transform="translate(72,65)">
		<polygon id="_99450424" points="289.3,279.2 309.0,279.3 309.0,274.2 286.9,274.1"/>
		<path id="_100260264" d="M 286.8 285.1 h 2.7 v 1.6 c 0 1.5 2 5.2 3 5.9 c 1.3 0.9 4.7 2.3 6.7 2.3 c 6.5 0 9.7 -4.7 9.7 -11.3 V 282.4 H 290.3 C 289.1 282.4 287.3 284.3 286.8 285.1 z"/>
		<path id="_43726000" fill="#FFFFFF" d="M 165.4 326.3 H 237 c 0 -1.2 -3.8 -11.2 -4.4 -12.3 C 230 309.6 231.7 304.9 224.5 304.9 H 178.2 c -5.9 0 -6.6 4.8 -8.2 8.9 C 169.4 315.7 165.5 325.2 165.4 326.3 z"/>
		<path id="_101638640" d="M 255.3 302.2 C 255.8 300 257.7 298.4 260.3 298.3 v 5.4 h -5 c 0.1 3.5 1.9 5.4 5.4 5.4 V 304.2 h 5.1 c -0.1 3.2 -1.9 3.6 -3.5 5 h 19.5 l 0.1 25.4 L 307 298.8 L 281.7 298.3 h -16 v -19 c 0 -2.9 -1.9 -5.4 -4.7 -5.4 H 259.9 c -5.6 0 -5.1 6 -5.1 11.7 C 254.9 288.9 253.9 300.1 255.3 302.2 z M 255.3 302.2 v 1.6 h 5.1 V 298.3 C 257.7 298.4 255.8 300 255.3 302.2 z M 260.7 309.2 h 1.6 c 1.6 -1.4 3.4 -1.8 3.5 -5.1 H 260.7 V 309.2 z"/>
		<path id="_42932440" fill="#FFFFFF" d="M 156.1 343.8 v 1.9 c 0 3.6 3.7 6.6 7.4 6.6 c 4.4 0 8.6 -3.3 8.6 -7.4 V 344.2 c 0 -4.1 -3.9 -7.8 -8.2 -7.8 C 159.4 336.4 156.1 339.3 156.1 343.8 z"/>
		<path id="_43758872" fill="#FFFFFF" d="M 230.4 343.8 V 345 c 0 4.2 4.2 7.4 8.6 7.4 c 3.4 0 7.8 -3.4 7.8 -6.6 V 344.2 c 0 -4.2 -3.6 -7.8 -7.8 -7.8 C 234.6 336.4 230.4 339.6 230.4 343.8 z"/>
		<path id="_95493544" d="M 297.3 379.2 L 298.1 371 l 1.2 -15.6 h 4.3 l 1.9 32.3 h 14.4 V 303 c 0 -1.4 -3.1 -4.7 -5.1 -4.7 L 313.4 298.5 L 288.7 334.9 h 21 v 8.9 h -28 v 44 h 15.2 l -0.1 -2 L 297.3 379.2 z"/>
		<path id="_231756312" d="M 230.4 343.8 c 0 -4.2 4.2 -7.4 8.6 -7.4 c 4.2 0 7.8 3.6 7.8 7.8 v 1.6 c 0 3.2 -4.3 6.6 -7.8 6.6 c -4.3 0 -8.6 -3.2 -8.6 -7.4 V 343.8 z M 156.1 343.8 c 0 -4.5 3.3 -7.4 7.8 -7.4 c 4.3 0 8.2 3.6 8.2 7.8 V 345 c 0 4.1 -4.1 7.4 -8.6 7.4 c -3.7 0 -7.4 -3 -7.4 -6.6 V 343.8 z M 165.4 326.3 c 0.1 -1.1 4 -10.6 4.7 -12.5 c 1.6 -4.2 2.3 -8.9 8.2 -8.9 h 46.3 c 7.1 0 5.5 4.6 8 9.1 C 233.2 315.1 237 325.2 237 326.3 H 165.4 z M 156.1 328.7 c -5.3 0 -9.3 3.7 -9.3 8.9 v 23 c 0 2.6 4.2 5.8 7.8 5.8 v 13.2 c 0 4.5 3.3 8.2 8.2 8.2 c 3.5 0 7.8 -4 7.8 -6.6 V 366.4 h 61.9 V 382 c 0 2.4 4.2 5.8 7.4 5.8 h 0.4 c 3.5 0 7.8 -3.3 7.8 -6.6 V 366.4 c 4.8 0 8.2 -3.4 8.2 -8.2 V 338 c 0 -5.1 -3.4 -8.3 -7.9 -9.2 C 245 328.2 245.6 326.7 244.3 324.1 C 243.4 322.2 242.6 320 241.7 318.1 c -3.1 -6.6 -5.4 -20.6 -14 -20.6 h -53 c -7.3 0 -8.8 8.3 -11.2 13.7 C 161.9 314.8 156.8 325.7 156.1 328.7 z"/>
		<line id="_40606696" fill="none" x1="281.7" y1="343.8" x2="281.9" y2="334.6"/>
		<line id="_37667632" fill="none" x1="307.0" y1="298.8" x2="314.8" y2="298.3"/>
		<polygon id="_63065104" fill="#FFFFFF" points="309.7,334.9 288.7,334.9 313.4,298.5 314.8,298.3 307.0,298.8 281.9,334.6 281.7,343.8 309.7,343.8"/>
		<line id="_38001312" fill="none" x1="289.3" y1="279.2" x2="290.3" y2="282.4"/>
		<line id="_62862760" fill="none" x1="309.0" y1="279.3" x2="309.0" y2="282.4"/>
		<polygon id="_40505440" fill="#FFFFFF" points="309.0,282.4 309.0,279.3 289.3,279.2 290.3,282.4"/>
	</g>
</g>
</svg>
