<?xml version="1.0" encoding="UTF-8" standalone="no"?>
<!-- Generator: Adobe Illustrator 16.0.0, SVG Export Plug-In . SVG Version: 6.00 Build 0)  -->

<svg
   version="1.1"
   id="Version_1.0"
   x="0px"
   y="0px"
   width="612px"
   height="792px"
   viewBox="0 0 612 792"
   enable-background="new 0 0 612 792"
   xml:space="preserve"
   sodipodi:docname="20120205.svg"
   inkscape:version="1.1 (c68e22c387, 2021-05-23)"
   xmlns:inkscape="http://www.inkscape.org/namespaces/inkscape"
   xmlns:sodipodi="http://sodipodi.sourceforge.net/DTD/sodipodi-0.dtd"
   xmlns="http://www.w3.org/2000/svg"
   xmlns:svg="http://www.w3.org/2000/svg"><defs
   id="defs1472" /><sodipodi:namedview
   id="namedview1470"
   pagecolor="#ffffff"
   bordercolor="#666666"
   borderopacity="1.0"
   inkscape:pageshadow="2"
   inkscape:pageopacity="0.0"
   inkscape:pagecheckerboard="0"
   showgrid="false"
   inkscape:zoom="1.040404"
   inkscape:cx="250.86408"
   inkscape:cy="395.51942"
   inkscape:window-width="1920"
   inkscape:window-height="1009"
   inkscape:window-x="1912"
   inkscape:window-y="-8"
   inkscape:window-maximized="1"
   inkscape:current-layer="Version_1.0" />
<g
   id="octagon"
   display="none">
	<g
   id="outFrame"
   display="inline">
		<line
   fill="none"
   stroke="#0000FF"
   stroke-width="2"
   x1="220"
   y1="309.5"
   x2="306"
   y2="273"
   id="line1435" />
		<line
   fill="none"
   stroke="#0000FF"
   stroke-width="2"
   x1="306"
   y1="273"
   x2="390.5"
   y2="309.5"
   id="line1437" />
		<line
   fill="none"
   stroke="#0000FF"
   stroke-width="2"
   x1="390.5"
   y1="309.5"
   x2="427"
   y2="396"
   id="line1439" />
		<line
   fill="none"
   stroke="#0000FF"
   stroke-width="2"
   x1="427"
   y1="396"
   x2="390.5"
   y2="482.5"
   id="line1441" />
		<line
   fill="none"
   stroke="#0000FF"
   stroke-width="2"
   x1="390.5"
   y1="482.5"
   x2="306"
   y2="516"
   id="line1443" />
		<line
   fill="none"
   stroke="#0000FF"
   stroke-width="2"
   x1="306"
   y1="516"
   x2="220"
   y2="482.5"
   id="line1445" />
		<line
   fill="none"
   stroke="#0000FF"
   stroke-width="2"
   x1="220"
   y1="482.5"
   x2="183"
   y2="396"
   id="line1447" />
		<line
   fill="none"
   stroke="#0000FF"
   stroke-width="2"
   x1="183"
   y1="396"
   x2="220"
   y2="309.5"
   id="line1449" />
	</g>
	
		<line
   id="mod2_1_"
   display="inline"
   fill="none"
   stroke="#0000FF"
   stroke-width="2"
   x1="203.966"
   y1="445.015"
   x2="406.199"
   y2="445.295" />
	
		<line
   id="mod1_1_"
   display="inline"
   fill="none"
   stroke="#0000FF"
   stroke-width="2"
   x1="203.966"
   y1="346.985"
   x2="406.199"
   y2="346.705" />
</g>
<g id="main" transform="translate(-11.708048,14.883152)">
	<g id="g1466" transform="translate(92.034005,75.289987)">
		<path id="_64577904" fill="#ffffff" d="m 145.825,270.37 158.365,0.095 c -0.95,-0.855 -17.29,-8.455 -20.14,-9.88 -6.65,-3.325 -13.11,-6.84 -19.855,-10.165 -6.745,-3.325 -13.015,-6.745 -19.855,-10.165 -3.42,-1.71 -17.955,-8.74 -19.665,-10.165 z" />
        <polygon id="_65451144" fill="#ffffff" points="138.605,274.55 138.605,285.95 310.65,285.95 310.65,274.55 " />
		<path id="_94581568" fill="#ffffff" d="M 226.86,348.745 V 328.7 c 4.275,0.95 9.975,2.565 9.975,7.695 v 3.705 c 0.095,3.61 -5.605,8.645 -9.975,8.645 z M 212.8,313.69 v -5.035 c 0,-3.23 5.89,-6.08 9.12,-6.84 v 18.62 c -3.705,-0.19 -9.12,-2.85 -9.12,-6.745 z m 9.12,-16.815 h -1.9 c -7.505,0 -15.485,5.7 -15.485,13.205 v 4.56 c 0,6.365 11.59,12.635 17.29,12.73 v 21.375 c -5.89,0 -10.925,-6.365 -10.925,-12.16 l -7.695,1.235 v 2.28 c 0,3.325 3.99,8.645 6.08,10.355 2.47,2.09 8.36,4.085 12.635,4.18 V 361 h 5.035 v -6.365 c 9.69,0 18.24,-6.84 18.24,-16.815 v -2.755 c 0,-7.41 -10.64,-12.54 -18.24,-13.205 v -19.57 c 1.995,0.19 4.75,1.615 5.7,2.945 0.855,1.14 2.85,5.795 3.42,5.89 l 7.22,-1.045 c 0,-7.41 -7.79,-13.205 -15.01,-13.205 h -1.425 v -3.61 h -4.94 z" />
		<path id="_65379072" d="m 212.8,313.69 c 0,3.895 5.51,6.555 9.12,6.84 v -18.62 c -3.325,0.76 -9.12,3.61 -9.12,6.745 z" />
		<path id="_94401360" d="m 226.86,348.745 c 4.275,0 9.975,-5.035 9.975,-8.645 v -3.61 c 0,-5.13 -5.7,-6.745 -9.975,-7.695 z" />
		<path id="_65375856" d="M 138.605,367.84 H 310.65 v 10.925 H 138.605 Z m 145.16,-78.28 h 13.205 v 74.67 h -13.205 z m -26.41,0 h 12.73 v 74.67 h -12.73 z m -78.28,0 h 13.205 v 74.67 h -13.205 z m -26.41,0 h 12.73 v 74.67 h -12.73 z m 69.255,3.705 h 5.035 v 3.61 h 1.33 c 7.22,0 15.01,5.795 15.01,13.205 l -7.315,1.045 c -0.475,-0.095 -2.47,-4.75 -3.42,-5.89 -1.045,-1.33 -3.705,-2.755 -5.7,-2.945 v 19.57 c 7.6,0.665 18.24,5.795 18.24,13.205 v 2.755 c 0,9.975 -8.455,16.815 -18.24,16.815 V 361 h -4.94 v -6.365 c -4.275,-0.095 -10.165,-2.09 -12.635,-4.18 -2.09,-1.71 -6.08,-7.03 -6.08,-10.355 v -2.28 l 7.79,-1.235 c 0,5.795 5.035,12.16 10.925,12.16 V 327.37 c -5.7,-0.095 -17.29,-6.365 -17.29,-12.73 v -4.56 c 0,-7.505 7.98,-13.205 15.485,-13.205 h 1.805 z M 138.605,274.55 H 310.65 v 11.4 H 138.605 Z m 86.07,-44.46 c 1.71,1.425 16.245,8.455 19.665,10.165 6.84,3.42 13.11,6.84 19.855,10.165 6.745,3.325 13.205,6.84 19.855,10.165 2.85,1.425 19.19,8.93 20.14,9.88 H 145.825 Z m -89.68,42.655 v 15.01 c 0,1.045 0.76,1.805 1.805,1.805 h 12.255 v 74.67 h -14.06 v 18.62 h 179.36 V 364.23 H 300.58 v -74.67 h 12.255 c 1.045,0 1.33,-0.285 1.33,-1.33 v -16.815 c -5.035,-1.805 -16.625,-8.55 -22.325,-11.4 -7.505,-3.705 -14.725,-7.6 -22.325,-11.4 -4.18,-2.09 -44.46,-22.8 -44.65,-22.8 -0.95,0 -40.66,20.52 -45.315,22.895 -4.845,2.565 -44.555,21.66 -44.555,24.035 z" />
        <polygon id="_66403960" fill="#ffffff" points="152.665,289.56 152.665,364.23 165.49,364.23 165.49,289.56 " />
        <polygon id="_65373216" fill="#ffffff" points="179.075,289.56 179.075,364.23 192.28,364.23 192.28,289.56 " />
        <polygon id="_65450568" fill="#ffffff" points="257.355,289.56 257.355,364.23 270.085,364.23 270.085,289.56 " />
        <polygon id="_65369168" fill="#ffffff" points="283.765,289.56 283.765,364.23 296.97,364.23 296.97,289.56 " />
        <polygon id="_94571432" fill="#ffffff" points="138.605,367.84 138.605,378.765 310.65,378.765 310.65,367.84 " />
	</g>
</g>
</svg>
