<?xml version="1.0" encoding="UTF-8" standalone="no"?>
<!-- Generator: Adobe Illustrator 16.0.0, SVG Export Plug-In . SVG Version: 6.00 Build 0)  -->

<svg
   version="1.1"
   id="Version_1.0"
   x="0px"
   y="0px"
   width="612px"
   height="792px"
   viewBox="0 0 612 792"
   enable-background="new 0 0 612 792"
   xml:space="preserve"
   sodipodi:docname="20120102.svg"
   inkscape:version="1.1 (c68e22c387, 2021-05-23)"
   xmlns:inkscape="http://www.inkscape.org/namespaces/inkscape"
   xmlns:sodipodi="http://sodipodi.sourceforge.net/DTD/sodipodi-0.dtd"
   xmlns="http://www.w3.org/2000/svg"
   xmlns:svg="http://www.w3.org/2000/svg"><defs
   id="defs1619" /><sodipodi:namedview
   id="namedview1617"
   pagecolor="#ffffff"
   bordercolor="#666666"
   borderopacity="1.0"
   inkscape:pageshadow="2"
   inkscape:pageopacity="0.0"
   inkscape:pagecheckerboard="0"
   showgrid="false"
   inkscape:zoom="1.1010101"
   inkscape:cx="282.46789"
   inkscape:cy="395.54587"
   inkscape:window-width="1920"
   inkscape:window-height="1009"
   inkscape:window-x="1912"
   inkscape:window-y="-8"
   inkscape:window-maximized="1"
   inkscape:current-layer="Version_1.0" />
<g
   id="octagon"
   display="none">
	<g
   id="outFrame"
   display="inline">
		<line
   fill="none"
   stroke="#0000FF"
   stroke-width="2"
   x1="220"
   y1="309.5"
   x2="306"
   y2="273"
   id="line1588" />
		<line
   fill="none"
   stroke="#0000FF"
   stroke-width="2"
   x1="306"
   y1="273"
   x2="390.5"
   y2="309.5"
   id="line1590" />
		<line
   fill="none"
   stroke="#0000FF"
   stroke-width="2"
   x1="390.5"
   y1="309.5"
   x2="427"
   y2="396"
   id="line1592" />
		<line
   fill="none"
   stroke="#0000FF"
   stroke-width="2"
   x1="427"
   y1="396"
   x2="390.5"
   y2="482.5"
   id="line1594" />
		<line
   fill="none"
   stroke="#0000FF"
   stroke-width="2"
   x1="390.5"
   y1="482.5"
   x2="306"
   y2="516"
   id="line1596" />
		<line
   fill="none"
   stroke="#0000FF"
   stroke-width="2"
   x1="306"
   y1="516"
   x2="220"
   y2="482.5"
   id="line1598" />
		<line
   fill="none"
   stroke="#0000FF"
   stroke-width="2"
   x1="220"
   y1="482.5"
   x2="183"
   y2="396"
   id="line1600" />
		<line
   fill="none"
   stroke="#0000FF"
   stroke-width="2"
   x1="183"
   y1="396"
   x2="220"
   y2="309.5"
   id="line1602" />
	</g>
	
		<line
   id="mod2_1_"
   display="inline"
   fill="none"
   stroke="#0000FF"
   stroke-width="2"
   x1="203.966"
   y1="445.015"
   x2="406.199"
   y2="445.295" />
	
		<line
   id="mod1_1_"
   display="inline"
   fill="none"
   stroke="#0000FF"
   stroke-width="2"
   x1="203.966"
   y1="346.985"
   x2="406.199"
   y2="346.705" />
</g>
<g id="main" transform="translate(73.200957,63.06113)">
	<g id="g1613">
		<path id="_94682064" fill="#489cbf" d="m 285.8,349.3 c 0,-2 0,-4.8 -1,-5.7 z" />
		<path id="_96915728" fill="#489cbf" d="m 326,360.1 c 1,-0.9 1,-3.7 1,-5.7 z" />
		<path id="_65972368" fill="#ffffff" d="m 284.8,343.6 c 1,0.9 1,3.7 1,5.7 l 2.6,20.6 v 1.5 h 32.4 l 4.2,-33 h -40.8 z" />
		<path id="_64897752" d="m 289.4,287.9 c -8.2,-1.9 -11.4,0.9 -17,4.7 h -3.6 c -0.8,1.1 -1.5,3.1 -3.1,3.1 h -2.6 c -5.5,0 -9.8,-4.6 -14.4,-4.6 h -1.6 c -2.2,0 -5.2,2.1 -9.8,2.1 -12.8,0 -9.8,0.6 -20,3.7 -4.9,1.5 -15.6,2 -22.2,2 h -12.9 c -7,0 -12.4,-1.6 -18,-1.6 -6.5,0 -11.7,0.5 -18.6,0.5 -1.2,0 -1.3,-0.2 -2.1,-0.5 -5.9,3.1 -7.8,10.6 -7.7,19.5 0,8.9 -1.5,15.8 -1.5,25.3 v 0.5 c 0,1.4 0.2,1.4 0.5,2.6 l 2.5,-0.8 0.1,-1.3 h 1 l 0.6,-30.4 h 0.4 c 0,5 0.3,11.3 1.5,15 1.1,3 4.2,9.4 4.2,12.3 v 0.5 l -4.1,33.1 h 9.2 c 0,-3.5 -1,-2.8 -1,-5.2 v -5.2 c 0,-3.5 2.6,-10.6 5.7,-10.8 0.9,3.8 8.2,9.3 8.2,17 v 1.6 c 0,1.4 -0.2,1.4 -0.5,2.6 1.1,-0.3 1.2,-0.6 2.6,-0.6 2.9,0 8.8,1.7 8.8,-1 0,-0.7 -4.8,-7.9 -5.6,-8.8 -1,-1.2 -3.2,-9.1 -3.2,-10.8 v -0.5 c 0,-0.5 3.1,-5.8 3.1,-11.9 10.1,5.4 8.8,6.7 24.7,6.7 5.4,0 10.5,1.2 15,1.1 2.6,-0.1 8.2,-3.4 10.8,-4.7 0,3 0.9,5.9 0.5,8.2 l -3,20.1 c 2.4,0.7 4,1.6 7.1,1.6 h 1.6 -0.6 l 1.8,-28.3 c 1.5,1.1 6.9,17.7 6.5,21.1 l -0.7,5.7 c 1.9,0.9 3.7,1.5 6.4,1.5 h 2.6 l -2.9,-18.6 -0.3,-2 c 0,-2.3 4.1,-1.8 6.2,-3.1 1.4,-0.8 3.4,-2.9 4.5,-4.3 2.7,-3.7 4.9,-6.7 7.6,-10.4 9.8,-13.5 8.8,-6.1 25.6,-10 V 323 h 4.1 c 2.5,0 4.6,-2.1 4.6,-4.6 v -1 c 0,-6 -6.2,-6.3 -6.2,-13.9 l -8.2,-8.4 z" />
		<path id="_65323192" d="m 285.8,349.3 -1,-5.7 -0.6,-5.1 H 325 l -4.2,33 h -32.4 v -1.6 z m 40.2,10.8 1,-5.7 2.3,-15.4 -0.2,-4.1 h -49 l 3.4,26.8 0.8,1.5 1.2,10.8 -0.2,1.6 h 39.2 v -4.1 z" />
	</g>
</g>
</svg>
