<?xml version="1.0" encoding="UTF-8" standalone="no"?>
<!-- Generator: Adobe Illustrator 16.0.0, SVG Export Plug-In . SVG Version: 6.00 Build 0)  -->

<svg version="1.1" id="Version_1.0" x="0px" y="0px" width="612px" height="792px" viewBox="0 0 612 792" enable-background="new 0 0 612 792" xml:space="preserve" sodipodi:docname="20120303.svg" inkscape:version="1.1 (c68e22c387, 2021-05-23)" xmlns:inkscape="http://www.inkscape.org/namespaces/inkscape" xmlns:sodipodi="http://sodipodi.sourceforge.net/DTD/sodipodi-0.dtd" xmlns="http://www.w3.org/2000/svg" xmlns:svg="http://www.w3.org/2000/svg"><defs id="defs894" /><sodipodi:namedview id="namedview892" pagecolor="#ffffff" bordercolor="#666666" borderopacity="1.0" inkscape:pageshadow="2" inkscape:pageopacity="0.0" inkscape:pagecheckerboard="0" showgrid="false" inkscape:zoom="1.0113636" inkscape:cx="257.57303" inkscape:cy="396" inkscape:window-width="1920" inkscape:window-height="1009" inkscape:window-x="1912" inkscape:window-y="-8" inkscape:window-maximized="1" inkscape:current-layer="Version_1.0" />
<g id="octagon" display="none">
	<g id="outFrame" display="inline">
		<line fill="none" stroke="#0000FF" stroke-width="2" x1="220" y1="309.5" x2="306" y2="273" id="line860" />
		<line fill="none" stroke="#0000FF" stroke-width="2" x1="306" y1="273" x2="390.5" y2="309.5" id="line862" />
		<line fill="none" stroke="#0000FF" stroke-width="2" x1="390.5" y1="309.5" x2="427" y2="396" id="line864" />
		<line fill="none" stroke="#0000FF" stroke-width="2" x1="427" y1="396" x2="390.5" y2="482.5" id="line866" />
		<line fill="none" stroke="#0000FF" stroke-width="2" x1="390.5" y1="482.5" x2="306" y2="516" id="line868" />
		<line fill="none" stroke="#0000FF" stroke-width="2" x1="306" y1="516" x2="220" y2="482.5" id="line870" />
		<line fill="none" stroke="#0000FF" stroke-width="2" x1="220" y1="482.5" x2="183" y2="396" id="line872" />
		<line fill="none" stroke="#0000FF" stroke-width="2" x1="183" y1="396" x2="220" y2="309.5" id="line874" />
	</g>
	
		<line id="mod2_1_" display="inline" fill="none" stroke="#0000FF" stroke-width="2" x1="203.966" y1="445.015" x2="406.199" y2="445.295" />
	
		<line id="mod1_1_" display="inline" fill="none" stroke="#0000FF" stroke-width="2" x1="203.966" y1="346.985" x2="406.199" y2="346.705" />
</g>
<g id="main">
	<g transform="translate(58.56,54.6)" id="g882">
		<path id="_65378808" fill="none" d="m 232.44,333.48 c 3.96,0.36 12.48,4.2 16.56,5.52 3.84,1.2 14.16,-2.28 19.44,-2.28 V 317.4 h -36 z" />
		<path id="_63583088" d="m 232.44,317.4 h 36 v 19.32 c -5.28,0 -15.48,3.48 -19.44,2.28 -4.08,-1.32 -12.6,-5.16 -16.56,-5.52 z m -63.84,0 h 55.2 v 19.8 c 0,2.04 9.96,4.68 12.12,5.52 1.2,0.48 12.96,4.68 13.08,4.92 l 23.88,-2.88 2.52,9 3.48,12.36 c 0.84,1.32 3.24,7.92 3.24,10.2 v 0.48 c 0,3.72 -2.16,6.36 -2.16,11.76 h 45.12 l -2.76,-9.84 -1.92,-5.88 -10.08,-33.48 c -0.84,-1.2 -1.56,-2.28 -1.56,-4.32 0,-4.2 12.96,-13.8 15.48,-17.64 l -9.12,-27.84 H 168.6 v 27.84 z" />
	</g>
	<path fill="#FFFFFF" stroke="#000000" stroke-width="4" d="M319.778,407.339l-20.889-16.445l-78.222-0.888l0.889,64.889L302,454.45   l18.222-21.778L319.778,407.339z" id="path884" />
	<line fill="none" stroke="#000000" stroke-width="2" x1="307" y1="424" x2="327" y2="372" id="line886" />
	<text transform="matrix(1 0 0 1 251 442)" font-family="sans-serif" font-size="55" id="text888">$</text>
</g>
</svg>
