<?xml version="1.0" encoding="UTF-8" standalone="no"?>
<!-- Generator: Adobe Illustrator 16.0.0, SVG Export Plug-In . SVG Version: 6.00 Build 0)  -->

<svg version="1.1" id="Version_1.0" x="0px" y="0px" width="612px" height="792px" viewBox="0 0 612 792" enable-background="new 0 0 612 792" xml:space="preserve" sodipodi:docname="20121101.svg" inkscape:version="1.1 (c68e22c387, 2021-05-23)" xmlns:inkscape="http://www.inkscape.org/namespaces/inkscape" xmlns:sodipodi="http://sodipodi.sourceforge.net/DTD/sodipodi-0.dtd" xmlns="http://www.w3.org/2000/svg" xmlns:svg="http://www.w3.org/2000/svg"><defs id="defs1048" /><sodipodi:namedview id="namedview1046" pagecolor="#ffffff" bordercolor="#666666" borderopacity="1.0" inkscape:pageshadow="2" inkscape:pageopacity="0.0" inkscape:pagecheckerboard="0" showgrid="false" inkscape:zoom="1.040404" inkscape:cx="250.86408" inkscape:cy="395.51942" inkscape:window-width="1920" inkscape:window-height="1009" inkscape:window-x="1912" inkscape:window-y="-8" inkscape:window-maximized="1" inkscape:current-layer="Version_1.0" />
<g id="octagon" display="none">
	<g id="outFrame" display="inline">
		<line fill="none" stroke="#0000FF" stroke-width="2" x1="220" y1="309.5" x2="306" y2="273" id="line1018" />
		<line fill="none" stroke="#0000FF" stroke-width="2" x1="306" y1="273" x2="390.5" y2="309.5" id="line1020" />
		<line fill="none" stroke="#0000FF" stroke-width="2" x1="390.5" y1="309.5" x2="427" y2="396" id="line1022" />
		<line fill="none" stroke="#0000FF" stroke-width="2" x1="427" y1="396" x2="390.5" y2="482.5" id="line1024" />
		<line fill="none" stroke="#0000FF" stroke-width="2" x1="390.5" y1="482.5" x2="306" y2="516" id="line1026" />
		<line fill="none" stroke="#0000FF" stroke-width="2" x1="306" y1="516" x2="220" y2="482.5" id="line1028" />
		<line fill="none" stroke="#0000FF" stroke-width="2" x1="220" y1="482.5" x2="183" y2="396" id="line1030" />
		<line fill="none" stroke="#0000FF" stroke-width="2" x1="183" y1="396" x2="220" y2="309.5" id="line1032" />
	</g>
	
		<line id="mod2_1_" display="inline" fill="none" stroke="#0000FF" stroke-width="2" x1="203.966" y1="445.015" x2="406.199" y2="445.295" />
	
		<line id="mod1_1_" display="inline" fill="none" stroke="#0000FF" stroke-width="2" x1="203.966" y1="346.985" x2="406.199" y2="346.705" />
</g>
<g id="main">
	<g id="g1042" transform="translate(57.520957,35.935639)">
		<path id="_98139752" d="m 209.415,287.845 v 4.37 c 0,1.495 2.415,5.175 3.45,6.21 1.495,1.38 4.485,2.99 7.13,2.99 h 2.415 c 5.06,0 10.58,-5.405 10.58,-10.12 v -3.45 c 0,-4.025 -6.21,-9.66 -11.155,-9.66 h -1.84 c -4.485,0 -10.58,5.52 -10.58,9.66 z" />
		<path id="_100133920" d="m 280.37,326.945 v 3.91 c 0,3.795 5.865,9.66 10.58,9.66 h 1.955 c 5.29,0 10.58,-5.75 10.58,-11.155 v -1.84 c 0,-5.52 -5.52,-10.58 -11.155,-10.58 h -0.345 c -5.865,-0.115 -11.615,4.945 -11.615,10.005 z" />
		<path id="_100133944" d="m 204.585,351.095 c 0,-5.52 8.165,-12.075 11.155,-16.445 3.45,2.415 3.565,4.6 8.51,7.015 3.45,1.725 6.44,3.45 10.12,4.83 6.095,2.3 5.52,-0.345 10.695,4.83 2.3,2.3 4.6,6.21 8.855,6.21 0.92,0 1.955,-1.955 1.955,-3.335 v -2.645 c 0,-7.015 -8.165,-9.085 -13.34,-11.27 -5.635,-2.185 -13.225,-4.025 -15.18,-9.545 -2.07,-5.865 -5.52,-11.5 -7.36,-17.25 -1.725,-5.29 -4.715,-12.65 -11.5,-12.65 h -1.035 c -7.59,0 -18.4,18.86 -20.24,26.105 -1.38,5.865 -3.91,11.845 -5.175,18.055 -1.265,6.9 -1.495,12.995 -2.76,19.895 -0.805,4.6 0.23,5.75 -1.495,10.12 -1.035,2.99 -2.07,5.635 -3.105,8.395 -2.185,5.635 -4.255,11.5 -6.21,17.02 -1.955,5.175 -12.19,29.555 -12.19,33.695 0,6.44 15.525,3.22 19.32,2.875 -0.115,-4.715 -5.635,-3.91 -7.705,-6.67 5.175,-7.705 9.43,-15.755 14.375,-23.805 2.53,-4.14 11.5,-23 13.57,-24.495 1.61,1.035 7.59,7.82 9.545,9.775 4.83,4.83 4.945,4.6 6.9,11.96 2.76,10.58 4.83,19.205 4.83,32.775 l 4.37,0.575 10.58,-0.115 c 3.22,0 4.485,-0.46 5.75,-2.415 -1.61,-2.53 -7.82,-4.37 -11.5,-5.29 v -2.875 c 0,-1.035 -0.345,-1.035 -0.92,-1.955 v -30.36 c -3.795,-5.635 -7.36,-12.305 -11.385,-17.71 -2.875,-3.91 -9.43,-12.995 -9.43,-18.975 z" />
		<path id="_43666704" d="m 264.96,404.225 v -0.46 c 0,-38.87 56.005,-36.685 56.005,-1.495 v 3.335 c 0,13.57 -13.34,26.105 -27.025,26.105 h -1.495 c -14.835,0 -27.485,-12.65 -27.485,-27.485 z m -3.91,-55.545 h 11.615 v 25.07 c 0,0 -8.05,8.28 -9.545,10.81 -1.15,2.07 -5.52,11.845 -5.52,14.375 v 5.75 c 0,17.02 16.445,34.27 33.35,34.27 h 2.415 c 14.375,0 26.91,-12.535 27.485,-12.535 h 17.825 v -4.83 h -8.05 c 0.575,-1.15 1.955,-3.335 1.955,-4.83 v -27.485 c 0,-4.83 -2.415,-8.165 -5.29,-10.12 h -8.28 l -2.07,-1.84 c 2.645,-0.69 4.945,-2.3 4.945,-5.405 v -1.035 c 0,-1.15 -2.415,-4.37 -3.91,-4.37 H 305.44 V 353.05 c 0,-6.67 -3.795,-10.58 -10.58,-10.58 h -5.29 c -14.72,0 -11.615,14.605 -11.615,28.98 l -1.38,1.035 v -27.14 c -0.92,-0.575 -0.92,-0.92 -1.955,-0.92 h -13.57 z" />
	</g>
</g>
</svg>
