<?xml version="1.0" encoding="UTF-8" standalone="no"?>
<!-- Generator: Adobe Illustrator 16.0.0, SVG Export Plug-In . SVG Version: 6.00 Build 0)  -->

<svg
   version="1.1"
   id="Version_1.0"
   x="0px"
   y="0px"
   width="612px"
   height="792px"
   viewBox="0 0 612 792"
   enable-background="new 0 0 612 792"
   xml:space="preserve"
   sodipodi:docname="20120310.svg"
   inkscape:version="1.1 (c68e22c387, 2021-05-23)"
   xmlns:inkscape="http://www.inkscape.org/namespaces/inkscape"
   xmlns:sodipodi="http://sodipodi.sourceforge.net/DTD/sodipodi-0.dtd"
   xmlns="http://www.w3.org/2000/svg"
   xmlns:svg="http://www.w3.org/2000/svg"><defs
   id="defs1303" /><sodipodi:namedview
   id="namedview1301"
   pagecolor="#ffffff"
   bordercolor="#666666"
   borderopacity="1.0"
   inkscape:pageshadow="2"
   inkscape:pageopacity="0.0"
   inkscape:pagecheckerboard="0"
   showgrid="false"
   inkscape:zoom="1.4713535"
   inkscape:cx="267.44083"
   inkscape:cy="498.52058"
   inkscape:window-width="1920"
   inkscape:window-height="1009"
   inkscape:window-x="1912"
   inkscape:window-y="-8"
   inkscape:window-maximized="1"
   inkscape:current-layer="main" />
<g id="octagon" display="none">
	<g id="outFrame" display="inline">
		<line fill="none" stroke="#0000FF" stroke-width="2" x1="220" y1="309.5" x2="306" y2="273" id="line1255" />
		<line fill="none" stroke="#0000FF" stroke-width="2" x1="306" y1="273" x2="390.5" y2="309.5" id="line1257" />
		<line fill="none" stroke="#0000FF" stroke-width="2" x1="390.5" y1="309.5" x2="427" y2="396" id="line1259" />
		<line fill="none" stroke="#0000FF" stroke-width="2" x1="427" y1="396" x2="390.5" y2="482.5" id="line1261" />
		<line fill="none" stroke="#0000FF" stroke-width="2" x1="390.5" y1="482.5" x2="306" y2="516" id="line1263" />
		<line fill="none" stroke="#0000FF" stroke-width="2" x1="306" y1="516" x2="220" y2="482.5" id="line1265" />
		<line fill="none" stroke="#0000FF" stroke-width="2" x1="220" y1="482.5" x2="183" y2="396" id="line1267" />
		<line fill="none" stroke="#0000FF" stroke-width="2" x1="183" y1="396" x2="220" y2="309.5" id="line1269" />
	</g>
		<line id="mod2_1_" display="inline" fill="none" stroke="#0000FF" stroke-width="2" x1="203.966" y1="445.015" x2="406.199" y2="445.295" />
		<line id="mod1_1_" display="inline" fill="none" stroke="#0000FF" stroke-width="2" x1="203.966" y1="346.985" x2="406.199" y2="346.705" />
</g>
<g id="main">
	<text transform="matrix(1 0 0 1 257 333)" font-family="sans-serif" font-size="52" id="text1275">REL</text>
	<path fill="#FFFFFF" stroke="#000000" stroke-width="4" d="M266.81,425.467c-4.079,1.021-30.313-2.496-31.81,0   c-3.522,5.87,12.62,9.851,12,16.666c-0.62,6.821-26.769,5-27.333,8.667c-1.73,11.244,54.028,18.209,60,20   c11.033,3.311,14.489,13.345,26.666,16.667c13.019,3.551,30.872-12.56,46-11.334c3.214,0.262,23.762,7.096,27.334,4   c13.535-11.729-22.724-20.949-27.334-27.333c-6.435-8.909,35.087-10.044-4.285-18.189" id="path1277" />
		<g transform="matrix(6.12303e-017 1 -1 6.12303e-017 273.25 -56.75) translate(121.333 -50) translate(1 0) translate(1 0) translate(0 -1) translate(1 0) translate(-1 0) translate(1 0) translate(1 0)" id="g1287">
			<rect x="292.499" y="-35.5" transform="matrix(2.578893e-006 1 -1 2.578893e-006 348.4982 -314.4991)" fill="#FFFFFF" stroke="#000000" stroke-width="3" width="78" height="105" id="rect1279" />
			<ellipse transform="matrix(2.578893e-006 1 -1 2.578893e-006 295.9988 -261.9995)" fill="#FFFFFF" stroke="#000000" stroke-width="3" cx="279" cy="17" rx="39" ry="10" id="ellipse1281" />
			<ellipse transform="matrix(2.578893e-006 1 -1 2.578893e-006 400.498 -367.4991)" fill="#FFFFFF" stroke="#000000" stroke-width="3" cx="383.999" cy="16.5" rx="39" ry="10" id="ellipse1283" />
			<rect x="339.293" y="9.1" transform="matrix(2.578893e-006 1 -1 2.578893e-006 393.2983 -359.899)" fill="#FFFFFF" width="74.611" height="15.2" id="rect1285" />
	</g>
		<g id="g1295" transform="translate(67.964632,61.168169)">
		<path id="_65846384" fill="#ffffff" d="m 207.06,335.75 v 9.095 h 7.565 v -16.66 c -1.02,0.68 -7.565,6.63 -7.565,7.565 z" />
		<polygon id="_65247944" fill="#ffffff" points="223.72,344.845 232.9,344.845 232.815,310.25 223.975,318.92 " />
		<path id="_64268320" fill="#ffffff" d="m 243.525,344.845 h 9.095 V 319.43 c 0,-0.935 -7.99,-8.33 -9.095,-9.095 z" />
		<path id="_64249792" fill="#ffffff" d="m 261.715,344.845 h 7.565 v -8.33 c 0,-1.445 -0.085,-0.17 0.34,-1.105 l -7.905,-7.225 z" />
		<polygon id="_94571432" fill="#ffffff" points="279.14,346.035 197.115,346.035 238.085,385.645 " />
		<path id="_94539784" d="m 197.115,346.035 h 82.025 l -41.055,39.61 z m 46.41,-35.7 c 1.105,0.765 9.095,8.16 9.095,9.095 v 25.415 h -9.095 z m -10.71,-0.085 0.085,34.595 h -9.18 l 0.255,-25.925 8.84,-8.67 z m -25.755,25.5 c 0,-0.935 6.63,-6.885 7.565,-7.565 v 16.745 h -7.565 z m 54.655,-7.565 7.905,7.31 c -0.425,0.935 -0.34,-0.425 -0.34,1.02 v 8.33 h -7.565 z m 20.06,17.425 -43.52,-42.5 -43.52,42.415 43.435,42.33 z" />
	</g>
	<path fill="none" stroke="#000000" d="M359.707,437.609l-4.572-1.429" id="path1297" />
</g>
</svg>
