<?xml version="1.0" encoding="utf-8"?>
<!-- Generator: Adobe Illustrator 16.0.0, SVG Export Plug-In . SVG Version: 6.00 Build 0)  -->
<!DOCTYPE svg PUBLIC "-//W3C//DTD SVG 1.1//EN" "http://www.w3.org/Graphics/SVG/1.1/DTD/svg11.dtd">
<svg version="1.1" id="Version_1.0" xmlns="http://www.w3.org/2000/svg" xmlns:xlink="http://www.w3.org/1999/xlink" x="0px" y="0px"
	 width="612px" height="792px" viewBox="0 0 612 792" enable-background="new 0 0 612 792" xml:space="preserve">
<g id="octagon" display="none">
	
		<line id="mod2_1_" display="inline" fill="none" stroke="#0000FF" stroke-width="2" x1="203.966" y1="445.015" x2="406.199" y2="445.295"/>
	
		<line id="mod1_1_" display="inline" fill="none" stroke="#0000FF" stroke-width="2" x1="203.966" y1="346.985" x2="406.199" y2="346.705"/>
	<g id="outFrame" display="inline">
		<line fill="none" stroke="#0000FF" stroke-width="2" x1="220" y1="309.5" x2="306" y2="273"/>
		<line fill="none" stroke="#0000FF" stroke-width="2" x1="306" y1="273" x2="390.5" y2="309.5"/>
		<line fill="none" stroke="#0000FF" stroke-width="2" x1="390.5" y1="309.5" x2="427" y2="396"/>
		<line fill="none" stroke="#0000FF" stroke-width="2" x1="427" y1="396" x2="390.5" y2="482.5"/>
		<line fill="none" stroke="#0000FF" stroke-width="2" x1="390.5" y1="482.5" x2="306" y2="516"/>
		<line fill="none" stroke="#0000FF" stroke-width="2" x1="306" y1="516" x2="220" y2="482.5"/>
		<line fill="none" stroke="#0000FF" stroke-width="2" x1="220" y1="482.5" x2="183" y2="396"/>
		<line fill="none" stroke="#0000FF" stroke-width="2" x1="183" y1="396" x2="220" y2="309.5"/>
	</g>
</g>
<g id="main">
	<g transform="translate(74,74)">
		<path id="_65378144" d="M 228.3 254.3 v 0.5 c 0 2.5 1.3 3.8 3.8 3.8 c 1.3 0 2.7 -1.5 2.7 -2.7 c 0 -1.9 -0.4 -2.1 -0.5 -3.8 C 233.1 251.9 233.1 251.6 231.6 251.6 H 231.1 C 229.8 251.6 228.3 253.1 228.3 254.3 z"/>
		<path id="_66411088" fill="#FFFFFF" d="M 234.3 252.1 c 0.2 1.8 0.6 2 0.6 3.9 c 0 1.3 -1.5 2.7 -2.7 2.7 c -2.5 0 -3.8 -1.3 -3.8 -3.8 V 254.3 c 0 -1.3 1.5 -2.7 2.7 -2.7 h 0.5 C 233.1 251.6 233.1 251.9 234.3 252.1 z M 224.5 254.3 V 256 c 0 3.1 4 6 6.5 6 c 3.6 0 7.6 -2.4 7.6 -6 V 253.2 c 0 -2.6 -3.9 -4.9 -7.1 -4.9 C 228 248.3 224.5 250.9 224.5 254.3 z"/>
		<path id="_95332856" fill="#FFFFFF" d="M 227.2 267.4 c 0 1.4 -1.4 2.1 -2.2 3.3 l 13.8 -0.2 L 236 268.5 V 264.2 C 234.3 264.3 234 264.7 232.2 264.7 H 231.1 c -1.9 0 -2.1 -0.4 -3.8 -0.5 L 227.2 267.4 L 227.2 267.4 z"/>
		<path id="_63642984" fill="#FFFFFF" d="M 198.3 242.9 h 5.5 v 15.3 c 0 2 -5.8 3.4 -7.6 3.8 v 10.4 h 12.6 V 234.1 H 198.3 V 242.9 z" />
		<path id="_64590056" fill="#FFFFFF" d="M 255.1 272.3 h 10.4 V 263.1 c 0 -1.9 -4.3 -3.1 -6 -3.3 V 242.9 h 4.4 V 234.1 H 255.1 V 272.3 z" />
		<path id="_94384416" fill="#FFFFFF" d="M 171 300.2 v 10.4 h 121.2 V 300.2 c 0 -3 -18.1 -14.2 -21.3 -16.4 C 264.7 279.6 252.2 274.5 242 274.5 H 220.7 c -9.8 0 -22 5.6 -28.4 9.3 C 189.1 285.7 171 297.4 171 300.2 L 171 300.2 z"/>
		<path id="_94576280" fill="#FFFFFF" d="M 171 377.7 c 0 4.7 22.6 19.1 25.1 19.1 h 71.5 c 2.5 0 24.6 -14.7 24.6 -19.6 V 368.9 H 171 V 377.7 L 171 377.7 z"/>
		<polygon id="_95536176" fill="#FFFFFF" points="196.7,408.8 267.6,408.8 267.6,400.6 196.7,400.6 		"/>
		<path id="_65729432" d="M 196.7 400.6 h 71 v 8.2 h -71 V 400.6 z M 171 368.9 h 121.2 v 8.2 c 0 4.9 -22 19.6 -24.6 19.6 H 196.1 c -2.5 0 -25.1 -14.4 -25.1 -19.1 V 368.9 L 171 368.9 z M 171 300.2 c 0 -2.7 18.1 -14.5 21.3 -16.4 c 6.4 -3.7 18.6 -9.3 28.4 -9.3 H 242 c 10.2 0 22.8 5.1 28.9 9.3 C 274.1 286 292.2 297.2 292.2 300.2 v 10.4 H 171 V 300.2 L 171 300.2 z M 227.2 264.2 C 228.9 264.3 229.1 264.7 231 264.7 h 1.1 c 1.9 0 2.1 -0.4 3.8 -0.5 v 4.4 l 2.9 2 L 225.1 270.7 c 0.8 -1.2 2.2 -1.9 2.2 -3.3 L 227.2 264.2 L 227.2 264.2 z M 224.5 254.3 c 0 -3.5 3.5 -6 7.1 -6 c 3.2 0 7.1 2.3 7.1 4.9 V 256 c 0 3.6 -4 6 -7.6 6 c -2.6 0 -6.5 -2.9 -6.5 -6 V 254.3 H 224.5 z M 255.1 234.1 h 8.7 v 8.7 H 259.4 v 16.9 c 1.8 0.1 6 1.4 6 3.3 v 9.3 H 255.1 V 234.1 z M 198.3 234.1 h 10.4 v 38.2 H 196.1 V 262 C 198 261.5 203.8 260.1 203.8 258.2 V 242.9 H 198.3 V 234.1 z M 212.5 234.1 h 38.7 v 38.2 c -4 -0.9 -12 -2.3 -12 -6.5 V 263.6 c 0 -3.8 2.2 -5.2 2.2 -6.5 V 254.3 c 0 -8 -7.4 -8.1 -8.2 -10.9 h 10.4 V 239.6 h -24 v 3.8 H 230 V 245 C 225.2 245.2 222.3 249.8 222.3 254.9 v 1.6 c 0 2.4 2.2 4.9 2.2 6 v 3.3 c 0 3.6 -8.4 5.7 -12 6.5 V 234.1 L 212.5 234.1 z M 194.5 246.1 H 200 V 256 c 0 1.9 -5.2 3.1 -7.1 3.3 v 16.9 h 7.6 C 199 277.2 193.8 279.3 191.4 280.7 C 188.3 282.5 185.8 284.1 183 286 C 180.7 287.5 167.8 297.8 167.2 298 v 79.1 c 0 4.7 7.9 11 11.2 13.3 C 180.8 392 192.9 398.6 192.9 400.6 v 12 h 78 v -12 c 0 -3.9 25.1 -11.6 25.1 -25.1 V 299.1 c 0 -2.3 -12.6 -11.1 -15.1 -12.8 C 278 284.3 275.7 282.8 272.6 281 C 270.3 279.5 264.7 277.4 263.3 276.2 h 6 v -17 C 267.5 258.8 262.7 257.9 262.7 256 V 246.1 h 4.9 V 230.3 H 194.5 V 246.1 z"/>
	</g>
</g>
</svg>
