<?xml version="1.0" encoding="UTF-8" standalone="no"?>
<!-- Generator: Adobe Illustrator 16.0.0, SVG Export Plug-In . SVG Version: 6.00 Build 0)  -->

<svg
   version="1.1"
   id="Version_1.0"
   x="0px"
   y="0px"
   width="612px"
   height="792px"
   viewBox="0 0 612 792"
   enable-background="new 0 0 612 792"
   xml:space="preserve"
   sodipodi:docname="20120201.svg"
   inkscape:version="1.1 (c68e22c387, 2021-05-23)"
   xmlns:inkscape="http://www.inkscape.org/namespaces/inkscape"
   xmlns:sodipodi="http://sodipodi.sourceforge.net/DTD/sodipodi-0.dtd"
   xmlns="http://www.w3.org/2000/svg"
   xmlns:svg="http://www.w3.org/2000/svg"><defs
   id="defs1200" /><sodipodi:namedview
   id="namedview1198"
   pagecolor="#ffffff"
   bordercolor="#666666"
   borderopacity="1.0"
   inkscape:pageshadow="2"
   inkscape:pageopacity="0.0"
   inkscape:pagecheckerboard="0"
   showgrid="false"
   inkscape:zoom="1.040404"
   inkscape:cx="259.03398"
   inkscape:cy="395.51942"
   inkscape:window-width="1920"
   inkscape:window-height="1009"
   inkscape:window-x="1912"
   inkscape:window-y="-8"
   inkscape:window-maximized="1"
   inkscape:current-layer="Version_1.0" />
<g
   id="octagon"
   display="none">
	<g
   id="outFrame"
   display="inline">
		<line
   fill="none"
   stroke="#0000FF"
   stroke-width="2"
   x1="220"
   y1="309.5"
   x2="306"
   y2="273"
   id="line1160" />
		<line
   fill="none"
   stroke="#0000FF"
   stroke-width="2"
   x1="306"
   y1="273"
   x2="390.5"
   y2="309.5"
   id="line1162" />
		<line
   fill="none"
   stroke="#0000FF"
   stroke-width="2"
   x1="390.5"
   y1="309.5"
   x2="427"
   y2="396"
   id="line1164" />
		<line
   fill="none"
   stroke="#0000FF"
   stroke-width="2"
   x1="427"
   y1="396"
   x2="390.5"
   y2="482.5"
   id="line1166" />
		<line
   fill="none"
   stroke="#0000FF"
   stroke-width="2"
   x1="390.5"
   y1="482.5"
   x2="306"
   y2="516"
   id="line1168" />
		<line
   fill="none"
   stroke="#0000FF"
   stroke-width="2"
   x1="306"
   y1="516"
   x2="220"
   y2="482.5"
   id="line1170" />
		<line
   fill="none"
   stroke="#0000FF"
   stroke-width="2"
   x1="220"
   y1="482.5"
   x2="183"
   y2="396"
   id="line1172" />
		<line
   fill="none"
   stroke="#0000FF"
   stroke-width="2"
   x1="183"
   y1="396"
   x2="220"
   y2="309.5"
   id="line1174" />
	</g>
	
		<line
   id="mod2_1_"
   display="inline"
   fill="none"
   stroke="#0000FF"
   stroke-width="2"
   x1="203.966"
   y1="445.015"
   x2="406.199"
   y2="445.295" />
	
		<line
   id="mod1_1_"
   display="inline"
   fill="none"
   stroke="#0000FF"
   stroke-width="2"
   x1="203.966"
   y1="346.985"
   x2="406.199"
   y2="346.705" />
</g>
<g id="main">
	<g id="g1194" transform="translate(75.399005,69.704987)">
		<path id="_66396568" fill="#ffffff" d="m 227.4,290.1 v 0.5 c 0,2.9 4.6,5.9 6.8,6 l 5.5,-12.6 c -1.1,-0.6 -2.1,-1 -3.8,-1 h -0.5 c -5.3,0 -8,1.7 -8,7.1 z" />
		<polygon id="_97071888" points="297.7,311.3 300.5,306.3 286.1,300.5 284.1,306.2 " />
		<path id="_96394904" fill="#ffffff" d="m 229.7,320.3 c 1.8,0.4 2.3,1 4.3,1 h 0.5 c 2.4,0 6.6,-1.7 6.6,-3.8 v -6.1 c 0,-1.8 -3.9,-4.3 -5.3,-5.2 z" />
		<polygon id="_95241712" points="290.9,324.3 293.9,319.5 279.9,313.8 277.8,319.3 " />
		<path id="_94186552" d="m 235.8,306.1 c 1.4,0.9 5.3,3.5 5.3,5.3 v 6.1 c 0,2.1 -4.2,3.8 -6.6,3.8 H 234 c -2,0 -2.6,-0.6 -4.3,-1 z m -8.4,-16 c 0,-5.4 2.7,-7.1 8,-7.1 h 0.5 c 1.7,0 2.6,0.4 3.8,0.9 l -5.4,12.7 c -2.3,-0.1 -6.9,-3.1 -6.9,-6 z m 14.1,-10.4 c -0.7,-0.3 -3,-1.3 -4.1,-1.3 h -4.8 c -1.7,0 -6.2,1.4 -7.3,2.2 -0.8,0.5 -3.5,5.3 -3.5,6.2 v 4.2 c 0,5.3 9.4,10.5 9.4,12.3 0,0.9 -5.5,11.5 -6.1,14.2 -1.6,-0.8 -6.2,-4.6 -6.2,-6.6 v -1.4 c 0,-2.1 1.4,-3.4 1.9,-5.2 -2.3,-0.5 -5,-2.8 -6,-3 -0.9,-0.3 -2.5,4.3 -2.5,5.8 v 0.9 c 0,6.8 10.4,13.5 10.4,14.2 0,1.5 -1,3.6 -1.3,5 l 4.2,2 1.4,-4.2 c 3.4,0.1 5,1.9 9,1.9 h 1.4 c 3.5,0 6.6,-1.3 8,-3.3 0.8,-1.1 3.8,-5.9 3.8,-7.6 v -0.9 c 0,-6.4 -6.9,-12 -10.9,-14.7 l 6.2,-14.1 h 0.9 c 1.1,3 3.8,1.6 3.8,8.9 l 7.1,2.9 v -4.2 c 0,-5.1 -5.1,-10.3 -9.6,-11.4 l 2.1,-5.2 -5.3,-1.3 z" />
		<polygon id="_94860488" points="285.3,336.2 285.2,335.8 288.3,331.2 274,325.7 271.8,330.7 " />
		<path id="_65712592" fill="#ffffff" d="m 243.5,276 5.2,1.3 -2.1,5.2 c 4.5,1.1 9.6,6.3 9.6,11.4 v 4.2 l -7.1,-2.8 c 0,-7.4 -2.7,-6 -3.8,-8.9 h -0.9 l -6.2,14.1 c 4.1,2.7 10.9,8.2 10.9,14.7 v 0.9 c 0,1.6 -2.9,6.4 -3.8,7.6 -1.5,2 -4.6,3.3 -8,3.3 h -1.4 c -4,0 -5.6,-1.8 -9,-1.9 l -1.4,4.2 -4.2,-2 c 0.3,-1.4 1.3,-3.5 1.3,-5 0,-0.7 -10.4,-7.3 -10.4,-14.2 v -1 c 0,-1.5 1.5,-6.1 2.5,-5.9 1,0.3 3.6,2.5 6,3 -0.4,1.8 -1.8,3.2 -1.8,5.3 v 1.4 c 0,2 4.6,5.8 6.1,6.6 0.6,-2.6 6.1,-13.3 6.1,-14.2 0,-1.7 -9.4,-7 -9.4,-12.3 v -4.2 c 0,-0.9 2.8,-5.7 3.6,-6.3 1,-0.8 5.6,-2.2 7.3,-2.2 h 4.7 c 1.1,0 3.4,1 4.1,1.3 z m -54.5,38.6 66.6,32.2 27.5,-60.3 -65.1,-23.8 z" />
		<path id="_94673800" d="m 218,262.7 65.2,23.7 -27.5,60.3 -66.7,-32.1 z m -31.2,52.9 69.4,33.5 29.2,-64.2 c -2.4,-0.2 -29.4,-10.4 -33.6,-12.1 -3,-1.2 -33.3,-12.4 -33.8,-12.4 -2.2,0 -13.6,23.7 -15.9,27.1 -2.1,3.2 -14.7,25.7 -15.3,28.1 z" />
		<path id="_65976264" d="m 266.1,343.5 13.6,5.5 -0.2,-0.6 3.2,-4.5 c -2.7,-0.6 -12.4,-5.6 -13.7,-5.6 -1,0 -2.8,3.9 -2.9,5.2 z" />
		<polygon id="_64663240" fill="#ffffff" points="197.3,366.7 212.2,352.1 201.5,344.9 182.2,356.4 " />
		<path id="_94957312" d="m 201.5,344.9 10.7,7.2 -14.9,14.6 -15.1,-10.3 z m -22.7,11.3 18.5,12.3 17.8,-16.5 c -1.3,-1 -13.2,-9 -13.6,-9 -2.6,0 -18.9,12.2 -22.7,13.2 z" />
		<path id="_66295920" fill="#ffffff" d="m 178.8,356.2 c 3.8,-1 20.1,-13.2 22.7,-13.2 0.5,0 12.3,8 13.7,9 l -17.9,16.5 z m -17.9,-1.4 c 0.5,1.9 31.5,22 35.4,24.1 2,-1.4 10.7,-12.9 13.8,-16 2.7,-2.7 14.4,-12.8 15.5,-14.3 -3.9,-0.8 -21.2,-10.3 -22.3,-10.3 -2.9,0 -29.7,16.2 -42.4,16.5 z" />
		<path id="_95082912" d="m 160.9,354.8 c 12.7,-0.3 39.5,-16.5 42.5,-16.5 1,0 18.4,9.5 22.2,10.4 -1,1.5 -12.7,11.5 -15.5,14.3 -3.1,3 -11.8,14.5 -13.8,15.9 -3.9,-2.1 -34.9,-22.2 -35.4,-24.1 z m -37.8,-15.5 29.7,-6.2 27.8,14.1 -24.1,7.6 40.5,26.7 -0.1,-0.5 15.9,-18.7 L 280,394.1 330.8,277 205.3,234 c -1.4,5.5 -13.1,22.8 -16.3,29.5 -2,4.4 -5.7,11 -8.2,14.9 -3,4.4 -5.4,10.2 -8.2,14.9 -2.9,4.9 -5.3,9.6 -8.2,14.5 -2.9,4.7 -5.3,10.6 -8.3,14.9 -6.1,9.1 -0.6,6.7 -13.8,9.3 -6.5,1.3 -13,2.4 -19.2,3.9 m 155,53.7 -63,-29.6 11.9,-10 18.2,8.7 3,-5.9 -59.7,-29.2 v 0.6 l -2.6,5.6 15.1,7.2 -15.6,8.4 -29.6,-14.5 -0.5,0.1 51.7,-92.6 0.5,0.3 L 326,279 h 0.6 z" />
		<path id="_65323192" fill="#ffffff" d="m 266.1,343.5 c 0.1,-1.3 1.9,-5.2 2.9,-5.2 1.3,0 11.1,5.1 13.7,5.7 l -3.2,4.4 0.2,0.6 z m 7.9,-17.8 14.3,5.5 -3.1,4.6 0.1,0.5 -13.5,-5.6 z m 5.9,-11.9 14,5.7 -3,4.8 -13.1,-5 z m 6.2,-13.3 14.5,5.8 -2.8,5 -13.7,-5.1 z m -99.3,15.1 c 0.6,-2.4 13.2,-24.9 15.3,-28.1 2.2,-3.4 13.6,-27.1 15.9,-27.1 0.6,0 30.8,11.2 33.8,12.4 4.2,1.7 31.2,11.9 33.7,12.1 l -29.2,64.2 z M 326.6,279 H 326 l -118.4,-40.3 -0.5,-0.3 -51.8,92.6 0.5,-0.1 29.5,14.6 15.7,-8.5 -15.1,-7.2 2.6,-5.5 v -0.6 l 59.7,29.2 -3,5.9 -18.2,-8.8 -11.9,10 63,29.6 48.5,-110.6 z" />
	</g>
</g>
</svg>
