<?xml version="1.0" encoding="UTF-8" standalone="no"?>
<!-- Generator: Adobe Illustrator 16.0.0, SVG Export Plug-In . SVG Version: 6.00 Build 0)  -->

<svg version="1.1" id="Version_1.0" x="0px" y="0px" width="612px" height="792px" viewBox="0 0 612 792" enable-background="new 0 0 612 792" xml:space="preserve" sodipodi:docname="20121003.svg" inkscape:version="1.1 (c68e22c387, 2021-05-23)" xmlns:inkscape="http://www.inkscape.org/namespaces/inkscape" xmlns:sodipodi="http://sodipodi.sourceforge.net/DTD/sodipodi-0.dtd" xmlns="http://www.w3.org/2000/svg" xmlns:svg="http://www.w3.org/2000/svg"><defs id="defs1221" /><sodipodi:namedview id="namedview1219" pagecolor="#ffffff" bordercolor="#666666" borderopacity="1.0" inkscape:pageshadow="2" inkscape:pageopacity="0.0" inkscape:pagecheckerboard="0" showgrid="false" inkscape:snap-nodes="false" inkscape:zoom="1.040404" inkscape:cx="250.86408" inkscape:cy="395.51942" inkscape:window-width="1920" inkscape:window-height="1009" inkscape:window-x="1912" inkscape:window-y="-8" inkscape:window-maximized="1" inkscape:current-layer="Version_1.0" />
<g id="octagon" display="none">
	<g id="outFrame" display="inline">
		<line fill="none" stroke="#0000FF" stroke-width="2" x1="220" y1="309.5" x2="306" y2="273" id="line1192" />
		<line fill="none" stroke="#0000FF" stroke-width="2" x1="306" y1="273" x2="390.5" y2="309.5" id="line1194" />
		<line fill="none" stroke="#0000FF" stroke-width="2" x1="390.5" y1="309.5" x2="427" y2="396" id="line1196" />
		<line fill="none" stroke="#0000FF" stroke-width="2" x1="427" y1="396" x2="390.5" y2="482.5" id="line1198" />
		<line fill="none" stroke="#0000FF" stroke-width="2" x1="390.5" y1="482.5" x2="306" y2="516" id="line1200" />
		<line fill="none" stroke="#0000FF" stroke-width="2" x1="306" y1="516" x2="220" y2="482.5" id="line1202" />
		<line fill="none" stroke="#0000FF" stroke-width="2" x1="220" y1="482.5" x2="183" y2="396" id="line1204" />
		<line fill="none" stroke="#0000FF" stroke-width="2" x1="183" y1="396" x2="220" y2="309.5" id="line1206" />
	</g>
	
		<line id="mod2_1_" display="inline" fill="none" stroke="#0000FF" stroke-width="2" x1="203.966" y1="445.015" x2="406.199" y2="445.295" />
	
		<line id="mod1_1_" display="inline" fill="none" stroke="#0000FF" stroke-width="2" x1="203.966" y1="346.985" x2="406.199" y2="346.705" />
</g>
<g id="main">
	<g id="g1215" transform="translate(53.783457,53.473139)">
		<polygon id="_228463400" points="154.675,330.165 192.05,330.165 192.05,314.985 154.675,314.985 " />
		<polygon id="_234869064" points="309.695,330.165 347.76,330.165 347.76,314.985 309.695,314.985 " />
		<path id="_99379872" d="m 242.305,287.96 20.24,-0.115 c 2.3,0 5.98,14.26 5.98,17.365 l 3.68,10.695 c 0.115,0.92 5.06,16.445 5.06,17.48 v 1.61 l -48.53,-0.115 z m -49.68,-0.115 27.83,0.115 -8.855,28.06 c 0,4.37 -4.83,14.26 -4.83,17.365 v 1.61 h -52.095 v 17.94 l 46.345,0.115 -2.99,7.475 -0.23,2.07 -6.44,20.815 -9.085,28.635 c 2.875,0 23.23,0.345 24.15,-0.23 0.575,-0.345 5.06,-17.02 5.865,-19.205 1.15,-3.105 11.27,-37.605 11.27,-38.065 v -1.61 l 58.65,0.115 16.675,58.995 24.61,0.115 -3.565,-11.96 -1.725,-6.555 -5.98,-19.55 -2.185,-7.015 -4.14,-14.145 h 39.56 v -17.94 h -45.425 l -7.13,-22.195 -0.345,-2.07 -2.415,-7.475 -4.255,-15.41 h 26.565 v -17.94 h -119.83 z" />
	</g>
</g>
</svg>
