<?xml version="1.0" encoding="UTF-8" standalone="no"?>
<svg
   xmlns:dc="http://purl.org/dc/elements/1.1/"
   xmlns:cc="http://creativecommons.org/ns#"
   xmlns:rdf="http://www.w3.org/1999/02/22-rdf-syntax-ns#"
   xmlns:svg="http://www.w3.org/2000/svg"
   xmlns="http://www.w3.org/2000/svg"
   xmlns:sodipodi="http://sodipodi.sourceforge.net/DTD/sodipodi-0.dtd"
   xmlns:inkscape="http://www.inkscape.org/namespaces/inkscape"
   inkscape:version="1.0 (4035a4fb49, 2020-05-01)"
   sodipodi:docname="397.svg"
   xml:space="preserve"
   enable-background="new 0 0 612 792"
   overflow="visible"
   viewBox="0 0 612 792"
   height="792"
   width="612"
   id="Version_1.0"
   version="1.1"><metadata
     id="metadata852"><rdf:RDF><cc:Work
         rdf:about=""><dc:format>image/svg+xml</dc:format><dc:type
           rdf:resource="http://purl.org/dc/dcmitype/StillImage" /><dc:title /></cc:Work></rdf:RDF></metadata><defs
     id="defs850" /><sodipodi:namedview
     showgrid="false"
     id="namedview848"
     inkscape:window-height="1017"
     inkscape:window-width="1920"
     inkscape:pageshadow="2"
     inkscape:pageopacity="0"
     guidetolerance="10"
     gridtolerance="10"
     objecttolerance="10"
     borderopacity="1"
     bordercolor="#666666"
     pagecolor="#ffffff"
     inkscape:document-rotation="0"
     inkscape:zoom="1.0959596"
     inkscape:cx="326.23173"
     inkscape:cy="410.35767"
     inkscape:window-x="1912"
     inkscape:window-y="-8"
     inkscape:window-maximized="1"
     inkscape:current-layer="Version_1.0" /><g
     display="none"
     id="octagon"><polygon
       id="octagonOutline"
       points="305,516.5 218.733,480.768 183,394.5 218.733,308.233 305,272.5    391.268,308.233 427,394.5 391.268,480.768  "
       stroke-width="2"
       stroke="#0000FF"
       fill="none" /><line
       id="mod1"
       y2="345.7"
       x2="407.5"
       y1="345.7"
       x1="202.5"
       stroke-width="2"
       stroke="#0000FF"
       fill="none" /><line
       id="mod2"
       y2="443.3"
       x2="407.5"
       y1="443.3"
       x1="202.5"
       stroke-width="2"
       stroke="#0000FF"
       fill="none" /><path
       d="m 179.56,317.5 126.44,-73 127.44223,72.99999 m -253.88223,0 v 0 -80.26865 0 h 253.88223 v 80.26865 0"
       style="fill:none;stroke:#0000ff;stroke-width:1.999;stroke-linecap:butt;stroke-linejoin:miter;stroke-miterlimit:4;stroke-dasharray:none;stroke-opacity:1"
       id="amplifierD" /><rect
       y="150.52045"
       x="441.47321"
       height="97.589767"
       width="168.22823"
       id="amplifierAC"
       style="fill:none;fill-opacity:1;stroke:#0000ff;stroke-width:1.99172;stroke-linecap:round;stroke-linejoin:miter;stroke-miterlimit:4;stroke-dasharray:none;stroke-opacity:1;paint-order:markers fill stroke" /><rect
       style="fill:none;fill-opacity:1;stroke:#0000ff;stroke-width:1.99172;stroke-linecap:round;stroke-linejoin:miter;stroke-miterlimit:4;stroke-dasharray:none;stroke-opacity:1;paint-order:markers fill stroke"
       id="amplifierG"
       width="168.22823"
       height="97.589767"
       x="441.47321"
       y="248.11023" /><rect
       y="345.70001"
       x="441.47321"
       height="97.589767"
       width="168.22823"
       id="amplifierH"
       style="fill:none;fill-opacity:1;stroke:#0000ff;stroke-width:1.99172;stroke-linecap:round;stroke-linejoin:miter;stroke-miterlimit:4;stroke-dasharray:none;stroke-opacity:1;paint-order:markers fill stroke" /><rect
       style="fill:none;fill-opacity:1;stroke:#0000ff;stroke-width:1.99172;stroke-linecap:round;stroke-linejoin:miter;stroke-miterlimit:4;stroke-dasharray:none;stroke-opacity:1;paint-order:markers fill stroke"
       id="amplifierM"
       width="168.22823"
       height="97.589767"
       x="441.47321"
       y="443.28979" /><rect
       y="540.87958"
       x="441.47321"
       height="97.589767"
       width="168.22823"
       id="amplifierJKP"
       style="fill:none;fill-opacity:1;stroke:#0000ff;stroke-width:1.99172;stroke-linecap:round;stroke-linejoin:miter;stroke-miterlimit:4;stroke-dasharray:none;stroke-opacity:1;paint-order:markers fill stroke" /><rect
       style="fill:none;fill-opacity:1;stroke:#0000ff;stroke-width:1.99172;stroke-linecap:round;stroke-linejoin:miter;stroke-miterlimit:4;stroke-dasharray:none;stroke-opacity:1;paint-order:markers fill stroke"
       id="amplifierW"
       width="168.22823"
       height="97.589767"
       x="2.8270514"
       y="150.52045" /><rect
       y="248.11021"
       x="2.8270514"
       height="97.589767"
       width="168.22823"
       id="amplifierXY"
       style="fill:none;fill-opacity:1;stroke:#0000ff;stroke-width:1.99172;stroke-linecap:round;stroke-linejoin:miter;stroke-miterlimit:4;stroke-dasharray:none;stroke-opacity:1;paint-order:markers fill stroke" /><rect
       style="fill:none;fill-opacity:1;stroke:#0000ff;stroke-width:1.99172;stroke-linecap:round;stroke-linejoin:miter;stroke-miterlimit:4;stroke-dasharray:none;stroke-opacity:1;paint-order:markers fill stroke"
       id="amplifierVAF"
       width="168.22823"
       height="97.589767"
       x="2.8270514"
       y="345.69998" /><rect
       y="443.28973"
       x="2.8270514"
       height="97.589767"
       width="168.22823"
       id="amplifierT"
       style="fill:none;fill-opacity:1;stroke:#0000ff;stroke-width:1.99172;stroke-linecap:round;stroke-linejoin:miter;stroke-miterlimit:4;stroke-dasharray:none;stroke-opacity:1;paint-order:markers fill stroke" /><rect
       style="fill:none;fill-opacity:1;stroke:#0000ff;stroke-width:1.99172;stroke-linecap:round;stroke-linejoin:miter;stroke-miterlimit:4;stroke-dasharray:none;stroke-opacity:1;paint-order:markers fill stroke"
       id="amplifierZ"
       width="168.22823"
       height="97.589767"
       x="2.8270514"
       y="540.87952" /><rect
       y="139.86548"
       x="179.78391"
       height="97.141968"
       width="253.54138"
       id="amplifierAB"
       style="fill:none;fill-opacity:1;stroke:#0000ff;stroke-width:2.43953;stroke-linecap:round;stroke-linejoin:miter;stroke-miterlimit:4;stroke-dasharray:none;stroke-opacity:1;paint-order:markers fill stroke" /><rect
       style="fill:none;fill-opacity:1;stroke:#0000ff;stroke-width:2.43953;stroke-linecap:round;stroke-linejoin:miter;stroke-miterlimit:4;stroke-dasharray:none;stroke-opacity:1;paint-order:markers fill stroke"
       id="amplifierR"
       width="253.54138"
       height="97.141968"
       x="179.45253"
       y="547.46027" /><path
       id="amplifierQ"
       d="m 306.85589,644.52992 v 52.02633"
       style="fill:#0000ff;stroke:#0000ff;stroke-width:1.999;stroke-linecap:butt;stroke-linejoin:miter;stroke-opacity:1;fill-opacity:1;stroke-miterlimit:4;stroke-dasharray:none" /></g><g
     id="g43705"
     style="display:inline"
     transform="matrix(1.68,0,0,1.68,648.7297,96.654084)"><g
       id="g84808"><path
         id="path69118"
         d="m -73.28814,146.57402 c -0.72795,-4.9e-4 -1.45553,0.0348 -2.18359,0.10351 a 0.52663901,0.52663901 0 0 0 -0.4629,0.40821 0.52663901,0.52663901 0 0 0 -0.41015,0.55664 c 0.0965,1.18911 0.11002,2.37064 0.002,3.54882 a 0.52663901,0.52663901 0 0 0 0.36719,0.55079 0.52663901,0.52663901 0 0 0 0.47656,0.3789 c -0.368,0.38555 -0.671,0.84145 -0.79883,1.35938 l 0.20899,-0.30469 c -0.22949,0.16101 -0.41016,0.44483 -0.41016,0.77344 v 0.18945 c 0,0.25586 0.10809,0.49046 0.26758,0.65625 l -0.14649,-0.32226 c 0.0164,0.19853 0.1569,0.35833 0.2129,0.54882 -0.004,-2e-5 -0.006,-0.004 -0.01,-0.004 -0.23292,9e-5 -0.41527,0.16295 -0.61914,0.27148 -0.24289,-0.52633 -0.686,-0.96655 -1.27149,-0.9668 -0.19165,9e-5 -0.33578,0.14717 -0.50976,0.22266 -0.2064,-0.59325 -0.69442,-1.09866 -1.33008,-1.09766 -0.26305,1.1e-4 -0.47596,0.17098 -0.69922,0.30664 -0.24899,-0.51252 -0.68453,-0.93921 -1.25976,-0.93945 -0.34382,1.4e-4 -0.6508,0.18124 -0.91407,0.40039 -0.28187,-0.30677 -0.65822,-0.52131 -1.07617,-0.52148 -0.51258,2.1e-4 -0.91035,0.34479 -1.18554,0.77344 -0.24558,-0.17455 -0.50185,-0.35204 -0.80469,-0.35157 -0.67683,2.8e-4 -1.21292,0.56078 -1.37695,1.20899 -0.10109,-0.024 -0.17415,-0.12301 -0.2793,-0.12305 -0.78989,-0.001 -1.50944,0.71793 -1.50977,1.50781 3e-5,0.066 0.0665,0.11118 0.0762,0.17578 -0.69858,0.11612 -1.3122,0.70615 -1.3125,1.42188 -4.1e-4,0.26392 0.17056,0.47717 0.30664,0.70117 -0.51321,0.24955 -0.94035,0.68363 -0.93945,1.25977 1.6e-4,0.37356 0.18033,0.72116 0.4336,0.99414 -0.25327,0.27297 -0.43344,0.62057 -0.4336,0.99414 -8e-4,0.50945 0.33776,0.90674 0.76172,1.18359 -0.16406,0.24029 -0.34031,0.48476 -0.33984,0.77735 2.6e-4,0.62768 0.49512,1.10821 1.07812,1.32031 -0.12479,0.21595 -0.29286,0.41667 -0.29297,0.66797 -10e-4,0.78988 0.71793,1.50944 1.50782,1.50976 0.33408,-1.4e-4 0.62925,-0.18029 0.88867,-0.38867 0.15642,0.29057 0.42648,0.79176 0.77539,1.44922 -0.0494,0.15128 -0.13493,0.29204 -0.13477,0.45117 5.8e-4,0.59027 0.43998,1.06149 0.97461,1.29883 0.0641,0.14389 0.1243,0.28109 0.1836,0.42383 l 0.31445,1.55273 c -0.0186,0.0169 -0.10683,0.095 -0.2207,0.22852 -0.12527,0.1469 -0.28274,0.32752 -0.35743,0.63281 -0.0552,0.22546 -0.0953,0.46103 -0.0586,0.7207 0.0367,0.25968 0.16251,0.51581 0.3457,0.73047 0.21277,0.24929 0.45657,0.33518 0.67188,0.4043 0.0691,0.0222 0.10987,0.0234 0.17383,0.0391 l 0.3164,1.56641 c -0.29395,0.43276 -0.49275,0.94192 -0.43554,1.52344 0.0666,0.67648 0.52066,1.23543 1.15039,1.68945 0.62972,0.45402 1.46704,0.83263 2.47851,1.15039 2.02295,0.63551 4.74485,1.01758 7.80078,1.01758 3.05595,0 5.7783,-0.38205 7.80078,-1.01758 1.01125,-0.31776 1.84898,-0.69635 2.47852,-1.15039 0.62954,-0.45404 1.08189,-1.01306 1.14844,-1.68945 0.0556,-0.56453 -0.13115,-1.06149 -0.40821,-1.48633 l 0.31641,-1.61133 c 0.0619,-0.0157 0.10373,-0.0173 0.16992,-0.0391 0.20866,-0.0687 0.44423,-0.15722 0.64844,-0.39649 0.18281,-0.21419 0.31015,-0.46892 0.34766,-0.72851 0.0375,-0.2596 -0.003,-0.49643 -0.0586,-0.72266 -0.075,-0.30632 -0.2335,-0.48589 -0.35937,-0.63281 -0.10846,-0.12659 -0.1827,-0.19284 -0.20899,-0.2168 l 0.3125,-1.58594 c 0.0569,-0.13665 0.11567,-0.26646 0.17578,-0.40234 0.53449,-0.23735 0.97392,-0.70868 0.97461,-1.29883 a 0.52663901,0.52663901 0 0 0 0,-0.002 c -3.2e-4,-0.1592 -0.0849,-0.29999 -0.13476,-0.45117 0.34822,-0.65575 0.61849,-1.15471 0.77539,-1.44532 0.25906,0.20741 0.55352,0.38658 0.88672,0.38672 0.79088,10e-4 1.51101,-0.71888 1.50976,-1.50976 -10e-5,-0.25185 -0.16766,-0.45365 -0.29297,-0.66992 0.58143,-0.21306 1.07591,-0.69189 1.07618,-1.31836 4.6e-4,-0.29215 -0.1743,-0.53726 -0.33789,-0.77735 0.4231,-0.27702 0.76056,-0.67478 0.75976,-1.18359 -1.5e-4,-0.37395 -0.18186,-0.72103 -0.43555,-0.99414 0.25369,-0.27312 0.4354,-0.6202 0.43555,-0.99414 9.1e-4,-0.57541 -0.42524,-1.00983 -0.9375,-1.25977 0.13566,-0.22377 0.3051,-0.43767 0.30469,-0.70117 -3e-4,-0.71537 -0.61427,-1.30543 -1.3125,-1.42188 0.01,-0.0646 0.0761,-0.10977 0.0762,-0.17578 -3.3e-4,-0.78889 -0.71892,-1.50748 -1.50781,-1.50781 -0.10577,4e-5 -0.1796,0.0988 -0.28125,0.12305 -0.16403,-0.64821 -0.70012,-1.20871 -1.37696,-1.20899 -0.30245,1.3e-4 -0.55962,0.17695 -0.80468,0.35157 -0.2752,-0.42865 -0.67297,-0.77323 -1.18555,-0.77344 -0.41795,1.7e-4 -0.7943,0.21471 -1.07617,0.52148 -0.26326,-0.21915 -0.57025,-0.40024 -0.91406,-0.40039 -0.57523,2.4e-4 -1.01078,0.42693 -1.25977,0.93945 -0.22325,-0.13566 -0.43617,-0.30653 -0.69922,-0.30664 -0.63461,2.7e-4 -1.12205,0.50535 -1.32812,1.09766 -0.17464,-0.0757 -0.31938,-0.22296 -0.51172,-0.22266 -0.58548,2.5e-4 -1.0286,0.44047 -1.27149,0.9668 -0.20386,-0.10853 -0.38622,-0.27139 -0.61914,-0.27148 -0.003,0 -0.005,0.004 -0.008,0.004 0.0552,-0.18789 0.19432,-0.34525 0.21094,-0.54101 l -0.14649,0.32031 c 0.16337,-0.16888 0.26954,-0.40352 0.26954,-0.66211 v -0.18945 c 0,-0.33178 -0.18427,-0.61555 -0.41407,-0.77539 l 0.21094,0.30468 c -0.12772,-0.51716 -0.42966,-0.97217 -0.79687,-1.35742 a 0.52663901,0.52663901 0 0 0 0.48046,-0.44336 0.52663901,0.52663901 0 0 0 0.36328,-0.52343 c -0.0475,-1.21937 -0.14384,-2.39156 -0.002,-3.52149 a 0.52663901,0.52663901 0 0 0 -0.39258,-0.57617 0.52663901,0.52663901 0 0 0 -0.45703,-0.37891 c -0.72669,-0.0666 -1.45568,-0.103 -2.18359,-0.10351 z m -9.83399,10.88476 c 0.4649,0.0257 0.93858,0.15962 1.49024,0.37305 1.07951,0.4176 2.36257,1.21285 3.99023,1.71875 0.67842,0.21086 1.19409,0.29606 1.70117,0.38086 v 0.16016 c -0.94288,-0.23946 -1.93326,-0.48797 -2.86914,-0.51172 -0.57719,-0.0147 -1.12843,0.033 -1.625,0.19922 -0.33915,0.11349 -0.6336,0.31798 -0.89062,0.56836 -0.90044,-0.43101 -2.04488,-0.38197 -3.03516,0.0645 -0.57498,0.2592 -1.09984,0.66147 -1.44922,1.22265 -0.0298,0.0479 -0.0356,0.11193 -0.0625,0.16211 -0.11661,-0.45293 -0.24368,-0.91365 -0.25976,-1.32226 -0.0275,-0.69848 0.0568,-1.25121 0.27539,-1.67774 0.21856,-0.42653 0.56879,-0.7623 1.2168,-1.03906 0.5843,-0.24956 1.05235,-0.32461 1.51757,-0.29883 z m 19.64649,0 c 0.46522,-0.0257 0.9356,0.0494 1.51953,0.29883 0.64792,0.27672 0.99671,0.61261 1.21484,1.03906 0.21814,0.42646 0.30289,0.97903 0.27539,1.67774 -0.0161,0.4086 -0.14315,0.86934 -0.25976,1.32226 -0.0269,-0.0502 -0.0327,-0.11417 -0.0625,-0.16211 -0.34937,-0.56118 -0.87424,-0.96345 -1.44922,-1.22265 -0.99028,-0.44642 -2.13471,-0.49546 -3.03516,-0.0645 -0.25701,-0.25038 -0.55146,-0.45487 -0.89062,-0.56836 -0.49657,-0.16618 -1.04781,-0.21387 -1.625,-0.19922 -0.93588,0.0238 -1.92626,0.27226 -2.86914,0.51172 v -0.16016 c 0.50704,-0.0848 1.02232,-0.16987 1.70117,-0.38086 1.62754,-0.50587 2.91249,-1.30108 3.99219,-1.71875 0.55203,-0.21357 1.0234,-0.34728 1.48828,-0.37305 z m 3.05469,6.14649 -0.01,0.0996 c 0.004,-0.0227 -0.004,-0.0419 0,-0.0645 4.7e-4,-0.0177 0.01,-0.017 0.01,-0.0352 z m -25.75586,0.002 c -7e-5,0.0182 0.009,0.0175 0.01,0.0352 0.004,0.0219 -0.004,0.0405 0,0.0625 z"
         style="display:inline;fill:#bc8810;fill-opacity:1;stroke:none;stroke-width:0.4;stroke-linecap:butt;stroke-linejoin:miter;stroke-miterlimit:4;stroke-dasharray:none;stroke-opacity:1" /><g
         id="g20160"
         style="fill:#fddd10;fill-opacity:1;stroke:#bc8810;stroke-width:0.406907;stroke-miterlimit:4;stroke-dasharray:none;stroke-opacity:1"
         transform="matrix(0.98302533,0,0,0.98302533,-168.50805,37.606428)"><path
           style="display:inline;fill:#c90018;fill-opacity:1;stroke:#930011;stroke-width:0.406907;stroke-linecap:butt;stroke-linejoin:miter;stroke-miterlimit:4;stroke-dasharray:none;stroke-opacity:1"
           d="M 89.284087,136.42605 86.28618,135.712 c 0,0 -2.146936,-2.50465 -2.315958,-4.00349 -0.07787,-0.69051 0.564838,-1.78493 0.585528,-2.47878 0.0107,-0.35928 -0.267292,-0.69256 -0.265692,-1.05102 -0.505959,-2.74875 3.084408,-3.73436 4.515996,-2.66785 1.152697,-1.93954 6.219895,-0.2322 8.047445,0.41021 1.827551,-0.64241 6.894751,-2.34975 8.047451,-0.41021 1.43159,-1.06651 5.02195,-0.0809 4.51599,2.66785 0.002,0.35846 -0.27639,0.69174 -0.26569,1.05102 0.0207,0.69385 0.6634,1.78827 0.58553,2.47878 -0.16902,1.49884 -2.31596,4.00349 -2.31596,4.00349 l -2.99791,0.71405 -7.569411,-0.71405 z"
           id="path20162" /><g
           transform="matrix(0.36815683,0,0,0.36815683,79.767201,111.97682)"
           id="g20164"
           style="fill:#fddd10;fill-opacity:1;stroke:#bc8810;stroke-width:1.10525;stroke-miterlimit:4;stroke-dasharray:none;stroke-opacity:1"><g
             id="g20166"
             transform="matrix(-1,0,0,1,92.820764,0)"
             style="fill:#fddd10;fill-opacity:1;stroke:#bc8810;stroke-width:1.10525;stroke-miterlimit:4;stroke-dasharray:none;stroke-opacity:1"><path
               d="m 19.53125,20.625 c -2.207518,-0.104183 -4.56383,0.240775 -7,1.28125 C 6.5980651,24.440281 4.2852623,30.137747 4.5,35.59375 4.7147377,41.049753 6.9755572,46.59503 9.84375,50.875 L 14,48.09375 C 11.594864,44.504762 9.6632145,39.553165 9.5,35.40625 9.3367855,31.259335 10.444377,28.232135 14.5,26.5 c 3.570169,-1.5248 6.2225,-1.044129 9.40625,0.1875 3.18375,1.231629 6.652194,3.386825 10.9375,4.71875 6.740419,2.095004 10.6875,1.53125 10.6875,1.53125 v -5 c 0,0 -3.514555,0.45072 -9.1875,-1.3125 -3.507612,-1.090208 -6.832744,-3.126721 -10.625,-4.59375 -1.896128,-0.733514 -3.979982,-1.302067 -6.1875,-1.40625 z"
               style="color:#000000;font-style:normal;font-variant:normal;font-weight:normal;font-stretch:normal;font-size:medium;line-height:normal;font-family:Sans;-inkscape-font-specification:Sans;text-indent:0;text-align:start;text-decoration:none;text-decoration-line:none;letter-spacing:normal;word-spacing:normal;text-transform:none;writing-mode:lr-tb;direction:ltr;baseline-shift:baseline;text-anchor:start;display:inline;overflow:visible;visibility:visible;fill:#fddd10;fill-opacity:1;stroke:#bc8810;stroke-width:1.10525;stroke-miterlimit:4;stroke-dasharray:none;stroke-opacity:1;marker:none;enable-background:accumulate"
               id="path20168" /><g
               id="g20170"
               style="fill:#fddd10;fill-opacity:1;stroke:#bc8810;stroke-width:1.10525;stroke-miterlimit:4;stroke-dasharray:none;stroke-opacity:1"><path
                 id="circle20172"
                 d="m 176.52717,85.622284 a 3.7418478,3.7418478 0 0 1 -3.74185,3.741848 3.7418478,3.7418478 0 0 1 -3.74184,-3.741848 3.7418478,3.7418478 0 0 1 3.74184,-3.741848 3.7418478,3.7418478 0 0 1 3.74185,3.741848 z"
                 style="display:inline;fill:#fddd10;fill-opacity:1;stroke:#bc8810;stroke-width:1.52592;stroke-miterlimit:4;stroke-dasharray:none;stroke-opacity:1"
                 transform="matrix(-0.72432133,0,0,0.72432133,163.61731,-37.584357)" /><path
                 id="circle20174"
                 d="m 176.52717,85.622284 a 3.7418478,3.7418478 0 0 1 -3.74185,3.741848 3.7418478,3.7418478 0 0 1 -3.74184,-3.741848 3.7418478,3.7418478 0 0 1 3.74184,-3.741848 3.7418478,3.7418478 0 0 1 3.74185,3.741848 z"
                 style="display:inline;fill:#fddd10;fill-opacity:1;stroke:#bc8810;stroke-width:1.52592;stroke-miterlimit:4;stroke-dasharray:none;stroke-opacity:1"
                 transform="matrix(-0.72432133,0,0,0.72432133,158.39045,-39.505935)" /><path
                 id="circle20176"
                 d="m 176.52717,85.622284 a 3.7418478,3.7418478 0 0 1 -3.74185,3.741848 3.7418478,3.7418478 0 0 1 -3.74184,-3.741848 3.7418478,3.7418478 0 0 1 3.74184,-3.741848 3.7418478,3.7418478 0 0 1 3.74185,3.741848 z"
                 style="display:inline;fill:#fddd10;fill-opacity:1;stroke:#bc8810;stroke-width:1.52592;stroke-miterlimit:4;stroke-dasharray:none;stroke-opacity:1"
                 transform="matrix(-0.72432133,0,0,0.72432133,153.30898,-41.921715)" /><path
                 id="circle20178"
                 d="m 176.52717,85.622284 a 3.7418478,3.7418478 0 0 1 -3.74185,3.741848 3.7418478,3.7418478 0 0 1 -3.74184,-3.741848 3.7418478,3.7418478 0 0 1 3.74184,-3.741848 3.7418478,3.7418478 0 0 1 3.74185,3.741848 z"
                 style="display:inline;fill:#fddd10;fill-opacity:1;stroke:#bc8810;stroke-width:1.52592;stroke-miterlimit:4;stroke-dasharray:none;stroke-opacity:1"
                 transform="matrix(-0.72432133,0,0,0.72432133,147.8943,-43.671073)" /><path
                 id="circle20180"
                 d="m 176.52717,85.622284 a 3.7418478,3.7418478 0 0 1 -3.74185,3.741848 3.7418478,3.7418478 0 0 1 -3.74184,-3.741848 3.7418478,3.7418478 0 0 1 3.74184,-3.741848 3.7418478,3.7418478 0 0 1 3.74185,3.741848 z"
                 style="display:inline;fill:#fddd10;fill-opacity:1;stroke:#bc8810;stroke-width:1.52592;stroke-miterlimit:4;stroke-dasharray:none;stroke-opacity:1"
                 transform="matrix(-0.72432133,0,0,0.72432133,142.39632,-44.004284)" /><path
                 id="circle20182"
                 d="m 176.52717,85.622284 a 3.7418478,3.7418478 0 0 1 -3.74185,3.741848 3.7418478,3.7418478 0 0 1 -3.74184,-3.741848 3.7418478,3.7418478 0 0 1 3.74184,-3.741848 3.7418478,3.7418478 0 0 1 3.74185,3.741848 z"
                 style="display:inline;fill:#fddd10;fill-opacity:1;stroke:#bc8810;stroke-width:1.52592;stroke-miterlimit:4;stroke-dasharray:none;stroke-opacity:1"
                 transform="matrix(-0.72432133,0,0,0.72432133,136.89834,-42.838045)" /><path
                 id="circle20184"
                 d="m 176.52717,85.622284 a 3.7418478,3.7418478 0 0 1 -3.74185,3.741848 3.7418478,3.7418478 0 0 1 -3.74184,-3.741848 3.7418478,3.7418478 0 0 1 3.74184,-3.741848 3.7418478,3.7418478 0 0 1 3.74185,3.741848 z"
                 style="display:inline;fill:#fddd10;fill-opacity:1;stroke:#bc8810;stroke-width:1.52592;stroke-miterlimit:4;stroke-dasharray:none;stroke-opacity:1"
                 transform="matrix(-0.72432133,0,0,0.72432133,132.31669,-39.839146)" /><path
                 id="circle20186"
                 d="m 176.52717,85.622284 a 3.7418478,3.7418478 0 0 1 -3.74185,3.741848 3.7418478,3.7418478 0 0 1 -3.74184,-3.741848 3.7418478,3.7418478 0 0 1 3.74184,-3.741848 3.7418478,3.7418478 0 0 1 3.74185,3.741848 z"
                 style="display:inline;fill:#fddd10;fill-opacity:1;stroke:#bc8810;stroke-width:1.52592;stroke-miterlimit:4;stroke-dasharray:none;stroke-opacity:1"
                 transform="matrix(-0.72432133,0,0,0.72432133,128.90127,-35.4241)" /><path
                 id="circle20188"
                 d="m 176.52717,85.622284 a 3.7418478,3.7418478 0 0 1 -3.74185,3.741848 3.7418478,3.7418478 0 0 1 -3.74184,-3.741848 3.7418478,3.7418478 0 0 1 3.74184,-3.741848 3.7418478,3.7418478 0 0 1 3.74185,3.741848 z"
                 style="display:inline;fill:#fddd10;fill-opacity:1;stroke:#bc8810;stroke-width:1.52592;stroke-miterlimit:4;stroke-dasharray:none;stroke-opacity:1"
                 transform="matrix(-0.72432133,0,0,0.72432133,127.15192,-30.009421)" /><path
                 id="circle20190"
                 d="m 176.52717,85.622284 a 3.7418478,3.7418478 0 0 1 -3.74185,3.741848 3.7418478,3.7418478 0 0 1 -3.74184,-3.741848 3.7418478,3.7418478 0 0 1 3.74184,-3.741848 3.7418478,3.7418478 0 0 1 3.74185,3.741848 z"
                 style="display:inline;fill:#fddd10;fill-opacity:1;stroke:#bc8810;stroke-width:1.52592;stroke-miterlimit:4;stroke-dasharray:none;stroke-opacity:1"
                 transform="matrix(-0.72432133,0,0,0.72432133,127.15191,-24.511439)" /><path
                 id="circle20192"
                 d="m 176.52717,85.622284 a 3.7418478,3.7418478 0 0 1 -3.74185,3.741848 3.7418478,3.7418478 0 0 1 -3.74184,-3.741848 3.7418478,3.7418478 0 0 1 3.74184,-3.741848 3.7418478,3.7418478 0 0 1 3.74185,3.741848 z"
                 style="display:inline;fill:#fddd10;fill-opacity:1;stroke:#bc8810;stroke-width:1.52592;stroke-miterlimit:4;stroke-dasharray:none;stroke-opacity:1"
                 transform="matrix(-0.72432133,0,0,0.72432133,128.31815,-19.09676)" /><path
                 id="circle20194"
                 d="m 176.52717,85.622284 a 3.7418478,3.7418478 0 0 1 -3.74185,3.741848 3.7418478,3.7418478 0 0 1 -3.74184,-3.741848 3.7418478,3.7418478 0 0 1 3.74184,-3.741848 3.7418478,3.7418478 0 0 1 3.74185,3.741848 z"
                 style="display:inline;fill:#fddd10;fill-opacity:1;stroke:#bc8810;stroke-width:1.52592;stroke-miterlimit:4;stroke-dasharray:none;stroke-opacity:1"
                 transform="matrix(-0.72432133,0,0,0.72432133,130.48403,-13.598778)" /></g></g><g
             id="g20196"
             style="fill:#fddd10;fill-opacity:1;stroke:#bc8810;stroke-width:1.10525;stroke-miterlimit:4;stroke-dasharray:none;stroke-opacity:1"><path
               d="m 19.53125,20.625 c -2.207518,-0.104183 -4.56383,0.240775 -7,1.28125 C 6.5980651,24.440281 4.2852623,30.137747 4.5,35.59375 4.7147377,41.049753 6.9755572,46.59503 9.84375,50.875 L 14,48.09375 C 11.594864,44.504762 9.6632145,39.553165 9.5,35.40625 9.3367855,31.259335 10.444377,28.232135 14.5,26.5 c 3.570169,-1.5248 6.2225,-1.044129 9.40625,0.1875 3.18375,1.231629 6.652194,3.386825 10.9375,4.71875 6.740419,2.095004 10.6875,1.53125 10.6875,1.53125 v -5 c 0,0 -3.514555,0.45072 -9.1875,-1.3125 -3.507612,-1.090208 -6.832744,-3.126721 -10.625,-4.59375 -1.896128,-0.733514 -3.979982,-1.302067 -6.1875,-1.40625 z"
               style="color:#000000;font-style:normal;font-variant:normal;font-weight:normal;font-stretch:normal;font-size:medium;line-height:normal;font-family:Sans;-inkscape-font-specification:Sans;text-indent:0;text-align:start;text-decoration:none;text-decoration-line:none;letter-spacing:normal;word-spacing:normal;text-transform:none;writing-mode:lr-tb;direction:ltr;baseline-shift:baseline;text-anchor:start;display:inline;overflow:visible;visibility:visible;fill:#fddd10;fill-opacity:1;stroke:#bc8810;stroke-width:1.10525;stroke-miterlimit:4;stroke-dasharray:none;stroke-opacity:1;marker:none;enable-background:accumulate"
               id="path20198" /><g
               id="g20200"
               style="fill:#fddd10;fill-opacity:1;stroke:#bc8810;stroke-width:1.10525;stroke-miterlimit:4;stroke-dasharray:none;stroke-opacity:1"><path
                 id="circle20202"
                 d="m 176.52717,85.622284 a 3.7418478,3.7418478 0 0 1 -3.74185,3.741848 3.7418478,3.7418478 0 0 1 -3.74184,-3.741848 3.7418478,3.7418478 0 0 1 3.74184,-3.741848 3.7418478,3.7418478 0 0 1 3.74185,3.741848 z"
                 style="display:inline;fill:#fddd10;fill-opacity:1;stroke:#bc8810;stroke-width:1.52592;stroke-miterlimit:4;stroke-dasharray:none;stroke-opacity:1"
                 transform="matrix(-0.72432133,0,0,0.72432133,163.61731,-37.584357)" /><path
                 id="circle20204"
                 d="m 176.52717,85.622284 a 3.7418478,3.7418478 0 0 1 -3.74185,3.741848 3.7418478,3.7418478 0 0 1 -3.74184,-3.741848 3.7418478,3.7418478 0 0 1 3.74184,-3.741848 3.7418478,3.7418478 0 0 1 3.74185,3.741848 z"
                 style="display:inline;fill:#fddd10;fill-opacity:1;stroke:#bc8810;stroke-width:1.52592;stroke-miterlimit:4;stroke-dasharray:none;stroke-opacity:1"
                 transform="matrix(-0.72432133,0,0,0.72432133,158.39045,-39.505935)" /><path
                 id="circle20206"
                 d="m 176.52717,85.622284 a 3.7418478,3.7418478 0 0 1 -3.74185,3.741848 3.7418478,3.7418478 0 0 1 -3.74184,-3.741848 3.7418478,3.7418478 0 0 1 3.74184,-3.741848 3.7418478,3.7418478 0 0 1 3.74185,3.741848 z"
                 style="display:inline;fill:#fddd10;fill-opacity:1;stroke:#bc8810;stroke-width:1.52592;stroke-miterlimit:4;stroke-dasharray:none;stroke-opacity:1"
                 transform="matrix(-0.72432133,0,0,0.72432133,153.30898,-41.921715)" /><path
                 id="circle20208"
                 d="m 176.52717,85.622284 a 3.7418478,3.7418478 0 0 1 -3.74185,3.741848 3.7418478,3.7418478 0 0 1 -3.74184,-3.741848 3.7418478,3.7418478 0 0 1 3.74184,-3.741848 3.7418478,3.7418478 0 0 1 3.74185,3.741848 z"
                 style="display:inline;fill:#fddd10;fill-opacity:1;stroke:#bc8810;stroke-width:1.52592;stroke-miterlimit:4;stroke-dasharray:none;stroke-opacity:1"
                 transform="matrix(-0.72432133,0,0,0.72432133,147.8943,-43.671073)" /><path
                 id="circle20210"
                 d="m 176.52717,85.622284 a 3.7418478,3.7418478 0 0 1 -3.74185,3.741848 3.7418478,3.7418478 0 0 1 -3.74184,-3.741848 3.7418478,3.7418478 0 0 1 3.74184,-3.741848 3.7418478,3.7418478 0 0 1 3.74185,3.741848 z"
                 style="display:inline;fill:#fddd10;fill-opacity:1;stroke:#bc8810;stroke-width:1.52592;stroke-miterlimit:4;stroke-dasharray:none;stroke-opacity:1"
                 transform="matrix(-0.72432133,0,0,0.72432133,142.39632,-44.004284)" /><path
                 id="circle20212"
                 d="m 176.52717,85.622284 a 3.7418478,3.7418478 0 0 1 -3.74185,3.741848 3.7418478,3.7418478 0 0 1 -3.74184,-3.741848 3.7418478,3.7418478 0 0 1 3.74184,-3.741848 3.7418478,3.7418478 0 0 1 3.74185,3.741848 z"
                 style="display:inline;fill:#fddd10;fill-opacity:1;stroke:#bc8810;stroke-width:1.52592;stroke-miterlimit:4;stroke-dasharray:none;stroke-opacity:1"
                 transform="matrix(-0.72432133,0,0,0.72432133,136.89834,-42.838045)" /><path
                 id="circle20214"
                 d="m 176.52717,85.622284 a 3.7418478,3.7418478 0 0 1 -3.74185,3.741848 3.7418478,3.7418478 0 0 1 -3.74184,-3.741848 3.7418478,3.7418478 0 0 1 3.74184,-3.741848 3.7418478,3.7418478 0 0 1 3.74185,3.741848 z"
                 style="display:inline;fill:#fddd10;fill-opacity:1;stroke:#bc8810;stroke-width:1.52592;stroke-miterlimit:4;stroke-dasharray:none;stroke-opacity:1"
                 transform="matrix(-0.72432133,0,0,0.72432133,132.31669,-39.839146)" /><path
                 id="circle20216"
                 d="m 176.52717,85.622284 a 3.7418478,3.7418478 0 0 1 -3.74185,3.741848 3.7418478,3.7418478 0 0 1 -3.74184,-3.741848 3.7418478,3.7418478 0 0 1 3.74184,-3.741848 3.7418478,3.7418478 0 0 1 3.74185,3.741848 z"
                 style="display:inline;fill:#fddd10;fill-opacity:1;stroke:#bc8810;stroke-width:1.52592;stroke-miterlimit:4;stroke-dasharray:none;stroke-opacity:1"
                 transform="matrix(-0.72432133,0,0,0.72432133,128.90127,-35.4241)" /><path
                 id="circle20218"
                 d="m 176.52717,85.622284 a 3.7418478,3.7418478 0 0 1 -3.74185,3.741848 3.7418478,3.7418478 0 0 1 -3.74184,-3.741848 3.7418478,3.7418478 0 0 1 3.74184,-3.741848 3.7418478,3.7418478 0 0 1 3.74185,3.741848 z"
                 style="display:inline;fill:#fddd10;fill-opacity:1;stroke:#bc8810;stroke-width:1.52592;stroke-miterlimit:4;stroke-dasharray:none;stroke-opacity:1"
                 transform="matrix(-0.72432133,0,0,0.72432133,127.15192,-30.009421)" /><path
                 id="circle20220"
                 d="m 176.52717,85.622284 a 3.7418478,3.7418478 0 0 1 -3.74185,3.741848 3.7418478,3.7418478 0 0 1 -3.74184,-3.741848 3.7418478,3.7418478 0 0 1 3.74184,-3.741848 3.7418478,3.7418478 0 0 1 3.74185,3.741848 z"
                 style="display:inline;fill:#fddd10;fill-opacity:1;stroke:#bc8810;stroke-width:1.52592;stroke-miterlimit:4;stroke-dasharray:none;stroke-opacity:1"
                 transform="matrix(-0.72432133,0,0,0.72432133,127.15191,-24.511439)" /><path
                 id="circle20222"
                 d="m 176.52717,85.622284 a 3.7418478,3.7418478 0 0 1 -3.74185,3.741848 3.7418478,3.7418478 0 0 1 -3.74184,-3.741848 3.7418478,3.7418478 0 0 1 3.74184,-3.741848 3.7418478,3.7418478 0 0 1 3.74185,3.741848 z"
                 style="display:inline;fill:#fddd10;fill-opacity:1;stroke:#bc8810;stroke-width:1.52592;stroke-miterlimit:4;stroke-dasharray:none;stroke-opacity:1"
                 transform="matrix(-0.72432133,0,0,0.72432133,128.31815,-19.09676)" /><path
                 id="circle20224"
                 d="m 176.52717,85.622284 a 3.7418478,3.7418478 0 0 1 -3.74185,3.741848 3.7418478,3.7418478 0 0 1 -3.74184,-3.741848 3.7418478,3.7418478 0 0 1 3.74184,-3.741848 3.7418478,3.7418478 0 0 1 3.74185,3.741848 z"
                 style="display:inline;fill:#fddd10;fill-opacity:1;stroke:#bc8810;stroke-width:1.52592;stroke-miterlimit:4;stroke-dasharray:none;stroke-opacity:1"
                 transform="matrix(-0.72432133,0,0,0.72432133,130.48403,-13.598778)" /></g></g></g><g
           transform="matrix(0.36815683,0,0,0.36815683,79.321213,111.20599)"
           id="g20226"
           style="fill:#fddd10;fill-opacity:1;stroke:#bc8810;stroke-width:1.10525;stroke-miterlimit:4;stroke-dasharray:none;stroke-opacity:1"><g
             style="fill:#fddd10;fill-opacity:1;stroke:#bc8810;stroke-width:1.10525;stroke-miterlimit:4;stroke-dasharray:none;stroke-opacity:1"
             id="g20228"
             transform="translate(-153.48135,-2.6874796)"><path
               style="fill:#fddd10;fill-opacity:1;stroke:none;stroke-width:1.10525;stroke-miterlimit:4;stroke-dasharray:none;stroke-opacity:1"
               d="m 199.62317,9.1150049 c -0.46736,-2.2070159 -2.4524,-3.9278033 -4.38735,-5.6646334 3.93155,-0.3707923 7.86307,-0.3601541 11.79461,0 -1.7757,1.8108127 -4.31209,3.4104099 -4.49085,5.6646334 2.28958,-0.9924295 3.76493,-3.002205 5.52736,-4.6533125 -0.41734,3.3232542 -0.12959,6.6465046 0,9.9697596 -1.75125,-1.405377 -3.2445,-3.186806 -5.52736,-3.81722 0.67882,2.061763 2.35035,3.646465 4.53437,4.984881 h -11.9687 c 1.98069,-1.385191 3.778,-2.893313 4.51792,-4.984881 -2.17476,0.700871 -3.73813,2.515812 -5.48383,3.998487 0.3076,-3.353464 0.27225,-6.7069274 0,-10.0603946 1.68143,1.8260046 3.24923,3.8886433 5.48383,4.5626805 z"
               id="path20230" /><path
               id="circle20232"
               d="m 176.52717,85.622284 a 3.7418478,3.7418478 0 0 1 -3.74185,3.741848 3.7418478,3.7418478 0 0 1 -3.74184,-3.741848 3.7418478,3.7418478 0 0 1 3.74184,-3.741848 3.7418478,3.7418478 0 0 1 3.74185,3.741848 z"
               style="display:inline;fill:#fddd10;fill-opacity:1;stroke:#bc8810;stroke-width:1.58492;stroke-miterlimit:4;stroke-dasharray:none;stroke-opacity:1"
               transform="matrix(-0.69735688,0,0,0.69735688,321.59617,-50.184546)" /><path
               id="ellipse20234"
               d="M 182.53709,47.734879 A 10.54225,10.151795 0 0 1 171.99484,57.886674 10.54225,10.151795 0 0 1 161.45259,47.734879 10.54225,10.151795 0 0 1 171.99484,37.583083 10.54225,10.151795 0 0 1 182.53709,47.734879 Z"
               style="fill:#fddd10;fill-opacity:1;stroke:#bc8810;stroke-width:1.61368;stroke-miterlimit:4;stroke-dasharray:none;stroke-opacity:1"
               transform="matrix(0.67213181,0,0,0.69796902,85.499935,-10.472048)" /><path
               style="display:inline;fill:#fddd10;fill-opacity:1;stroke:#bc8810;stroke-width:1.10525;stroke-miterlimit:4;stroke-dasharray:none;stroke-opacity:1"
               d="m 200.81547,15.037877 c -0.65318,0 -1.17679,0.523603 -1.17679,1.176789 v 4.703864 h -4.72458 c -0.65319,0 -1.19858,0.523603 -1.19858,1.176789 v 0.526314 c 0,0.653186 0.54539,1.176789 1.19858,1.176789 h 12.39987 c 0.65319,0 1.17679,-0.523603 1.17679,-1.176789 v -0.526314 c 0,-0.653186 -0.5236,-1.176789 -1.17679,-1.176789 h -4.72458 v -4.703864 c 0,-0.653186 -0.52361,-1.176789 -1.17679,-1.176789 z"
               id="path20236" /></g><g
             id="g20238"
             transform="translate(3.505078,2.0937704)"
             style="fill:#fddd10;fill-opacity:1;stroke:#bc8810;stroke-width:1.10525;stroke-miterlimit:4;stroke-dasharray:none;stroke-opacity:1"><path
               id="rect20240"
               d="m 41.263439,25.49164 h 5.706547 c 1.270674,0 2.293636,1.022962 2.293636,2.293636 v 12.886002 c 0,1.270675 -1.022962,2.293636 -2.293636,2.293636 h -5.706547 c -1.270674,0 -2.293636,-1.022961 -2.293636,-2.293636 V 27.785276 c 0,-1.270674 1.022962,-2.293636 2.293636,-2.293636 z"
               style="fill:#fddd10;fill-opacity:1;stroke:#bc8810;stroke-width:1.10525;stroke-miterlimit:4;stroke-dasharray:none;stroke-opacity:1" /><g
               transform="matrix(1,0,0,1.2635465,-157.09759,-10.014315)"
               style="fill:#fddd10;fill-opacity:1;stroke:#bc8810;stroke-width:0.983256;stroke-miterlimit:4;stroke-dasharray:none;stroke-opacity:1"
               id="g20242"><path
                 id="rect20244"
                 d="m 196.78551,27.445124 h 1e-5 c 0.78381,0 1.41482,0.631008 1.41482,1.414816 v 11.993964 c 0,0.783809 -0.63101,1.414817 -1.41482,1.414817 h -1e-5 c -0.7838,0 -1.41481,-0.631008 -1.41481,-1.414817 V 28.85994 c 0,-0.783808 0.63101,-1.414816 1.41481,-1.414816 z"
                 style="fill:#fddd10;fill-opacity:1;stroke:#bc8810;stroke-width:0.983256;stroke-miterlimit:4;stroke-dasharray:none;stroke-opacity:1" /><path
                 id="rect20246"
                 d="m 205.64309,27.445124 v 0 c 0.78381,0 1.41482,0.631008 1.41482,1.414816 v 11.993964 c 0,0.783809 -0.63101,1.414817 -1.41482,1.414817 v 0 c -0.78381,0 -1.41482,-0.631008 -1.41482,-1.414817 V 28.85994 c 0,-0.783808 0.63101,-1.414816 1.41482,-1.414816 z"
                 style="display:inline;fill:#fddd10;fill-opacity:1;stroke:#bc8810;stroke-width:0.983256;stroke-miterlimit:4;stroke-dasharray:none;stroke-opacity:1" /></g><path
               id="circle20248"
               d="m 176.52717,85.622284 a 3.7418478,3.7418478 0 0 1 -3.74185,3.741848 3.7418478,3.7418478 0 0 1 -3.74184,-3.741848 3.7418478,3.7418478 0 0 1 3.74184,-3.741848 3.7418478,3.7418478 0 0 1 3.74185,3.741848 z"
               style="display:inline;fill:#fddd10;fill-opacity:1;stroke:#bc8810;stroke-width:1.52592;stroke-miterlimit:4;stroke-dasharray:none;stroke-opacity:1"
               transform="matrix(-0.72432133,0,0,0.72432133,169.26881,-36.423385)" /><path
               id="circle20250"
               d="m 176.52717,85.622284 a 3.7418478,3.7418478 0 0 1 -3.74185,3.741848 3.7418478,3.7418478 0 0 1 -3.74184,-3.741848 3.7418478,3.7418478 0 0 1 3.74184,-3.741848 3.7418478,3.7418478 0 0 1 3.74185,3.741848 z"
               style="display:inline;fill:#fddd10;fill-opacity:1;stroke:#bc8810;stroke-width:1.52592;stroke-miterlimit:4;stroke-dasharray:none;stroke-opacity:1"
               transform="matrix(-0.72432133,0,0,0.72432133,169.26881,-31.394438)" /><path
               id="circle20252"
               d="m 176.52717,85.622284 a 3.7418478,3.7418478 0 0 1 -3.74185,3.741848 3.7418478,3.7418478 0 0 1 -3.74184,-3.741848 3.7418478,3.7418478 0 0 1 3.74184,-3.741848 3.7418478,3.7418478 0 0 1 3.74185,3.741848 z"
               style="display:inline;fill:#fddd10;fill-opacity:1;stroke:#bc8810;stroke-width:1.52592;stroke-miterlimit:4;stroke-dasharray:none;stroke-opacity:1"
               transform="matrix(-0.72432133,0,0,0.72432133,169.26881,-26.36549)" /><path
               id="circle20254"
               d="m 176.52717,85.622284 a 3.7418478,3.7418478 0 0 1 -3.74185,3.741848 3.7418478,3.7418478 0 0 1 -3.74184,-3.741848 3.7418478,3.7418478 0 0 1 3.74184,-3.741848 3.7418478,3.7418478 0 0 1 3.74185,3.741848 z"
               style="display:inline;fill:#fddd10;fill-opacity:1;stroke:#bc8810;stroke-width:1.52592;stroke-miterlimit:4;stroke-dasharray:none;stroke-opacity:1"
               transform="matrix(-0.72432133,0,0,0.72432133,169.26881,-21.299794)" /></g></g><g
           transform="matrix(0.36815683,0,0,0.36815683,79.321212,111.41038)"
           style="fill:#fddd10;fill-opacity:1;stroke:#bc8810;stroke-width:1.10525;stroke-miterlimit:4;stroke-dasharray:none;stroke-opacity:1"
           id="g20256"><path
             style="fill:#fddd10;fill-opacity:1;stroke:#bc8810;stroke-width:1.10525;stroke-miterlimit:4;stroke-dasharray:none;stroke-opacity:1"
             d="m 14.977131,60.713289 c 7.564544,6.037967 13.282327,6.535652 16.322331,-1 5.440776,3.4443 10.881553,4.133248 16.32233,-1 5.440777,5.486228 10.881554,5.008183 16.322331,1 1.959336,7.992502 7.571784,7.94816 16.32233,1 L 76.434147,80.172387 18.937915,80.34219 Z"
             id="path20258" /><g
             style="fill:#fddd10;fill-opacity:1;stroke:#bc8810;stroke-width:1.10525;stroke-miterlimit:4;stroke-dasharray:none;stroke-opacity:1"
             id="g20260"><path
               id="rect20262"
               d="m 44.631052,66.133835 h 5.981486 c 0.869006,0 1.568602,0.699596 1.568602,1.568602 v 1.779439 c 0,0.869005 -0.699596,1.568602 -1.568602,1.568602 h -5.981486 c -0.869005,0 -1.568602,-0.699597 -1.568602,-1.568602 v -1.779439 c 0,-0.869006 0.699597,-1.568602 1.568602,-1.568602 z"
               style="display:inline;fill:#fddd10;fill-opacity:1;stroke:#bc8810;stroke-width:1.10525;stroke-miterlimit:4;stroke-dasharray:none;stroke-opacity:1" /><path
               id="ellipse20264"
               d="m 157.48298,104.18797 a 5.7754607,4.2299151 0 0 1 -5.77546,4.22992 5.7754607,4.2299151 0 0 1 -5.77546,-4.22992 5.7754607,4.2299151 0 0 1 5.77546,-4.229912 5.7754607,4.2299151 0 0 1 5.77546,4.229912 z"
               style="display:inline;fill:#fddd10;fill-opacity:1;stroke:#bc8810;stroke-width:1.67208;stroke-miterlimit:4;stroke-dasharray:none;stroke-opacity:1"
               transform="matrix(0.74042059,-0.10494666,0.1361296,0.57081394,-93.923302,26.313634)" /><path
               style="display:inline;fill:#fddd10;fill-opacity:1;stroke:#bc8810;stroke-width:1.10525;stroke-linecap:butt;stroke-linejoin:miter;stroke-miterlimit:4;stroke-dasharray:none;stroke-opacity:1"
               d="m 18.135275,73.861426 4.421314,-3.10192 -6.687042,-2.382499 c 0,0 -1.022812,0.912749 -1.215826,1.701781 -0.267081,1.091852 -0.261341,1.846789 0.486333,2.722858 0.666545,0.781012 2.995221,1.05978 2.995221,1.05978 z"
               id="path20266" /><path
               id="ellipse20268"
               d="m 157.48298,104.18797 a 5.7754607,4.2299151 0 0 1 -5.77546,4.22992 5.7754607,4.2299151 0 0 1 -5.77546,-4.22992 5.7754607,4.2299151 0 0 1 5.77546,-4.229912 5.7754607,4.2299151 0 0 1 5.77546,4.229912 z"
               style="display:inline;fill:#fddd10;fill-opacity:1;stroke:#bc8810;stroke-width:1.67208;stroke-miterlimit:4;stroke-dasharray:none;stroke-opacity:1"
               transform="matrix(-0.74042059,-0.10494666,-0.1361296,0.57081394,189.16689,26.313634)" /><path
               style="display:inline;fill:#fddd10;fill-opacity:1;stroke:#bc8810;stroke-width:1.10525;stroke-linecap:butt;stroke-linejoin:miter;stroke-miterlimit:4;stroke-dasharray:none;stroke-opacity:1"
               d="m 77.10831,73.861426 -4.421314,-3.10192 6.687042,-2.382499 c 0,0 1.022812,0.912749 1.215825,1.701781 0.267081,1.091852 0.261342,1.846789 -0.486333,2.722858 -0.666544,0.781012 -2.99522,1.05978 -2.99522,1.05978 z"
               id="path20270" /></g></g><g
           transform="matrix(0.30426184,0,0,0.30426184,79.354587,111.37211)"
           id="g20272"
           style="fill:#fddd10;fill-opacity:1;stroke:#bc8810;stroke-width:1.33736;stroke-miterlimit:4;stroke-dasharray:none;stroke-opacity:1"><path
             id="path20274"
             style="display:inline;fill:#fddd10;fill-opacity:1;stroke:#bc8810;stroke-width:1.33736;stroke-linecap:butt;stroke-linejoin:miter;stroke-miterlimit:4;stroke-dasharray:none;stroke-opacity:1"
             d="m 48.982213,78.405479 c -3.035329,0.414764 -6.158122,-0.740834 -8.824858,-3.214415 -2.284836,4.075409 -6.214578,6.175197 -10.282765,6.391552 -4.008236,0.213166 -8.150869,-1.401999 -10.987062,-4.75732 -0.864255,-2.168388 -1.739004,-4.21377 -2.535213,-5.813211 -1.550274,-3.114218 -4.765841,-8.904898 -4.765841,-8.904898 3.23151,-2.057606 6.040378,-3.711734 9.882338,-3.952073 -1.650463,4.106934 -1.535561,6.978373 -1.56863,9.953369 3.458354,-0.555938 5.046514,-3.006212 6.901952,-4.683939 l 2.196084,8.636012 c -3.462038,-1.435564 -5.769924,-0.717201 -7.999995,0.146373 0,0 1.429223,2.606821 2.509797,3.512954 1.235974,1.036439 2.59966,1.629167 4.235292,1.902846 1.547418,0.258912 3.291714,0.348103 4.705882,-0.292748 2.978818,-1.349893 4.496942,-4.293708 4.078416,-4.09844 0,0 0.298814,-2.582753 -0.470577,-3.512954 -0.575946,-0.696314 -1.758923,-1.261674 -2.666673,-1.024612 -1.431297,0.373789 -2.196071,3.366581 -2.196071,3.366581 0,0 -1.375785,-2.547882 -1.725482,-3.952073 -0.307956,-1.236554 -0.766979,-2.671009 -0.156863,-3.8057 0.455276,-0.846748 1.511577,-1.437359 2.509798,-1.610104 1.321763,-0.228735 3.764688,0.878238 3.764688,0.878238 0,0 -0.729282,-2.294566 -0.941178,-3.512954 -0.108924,-0.626093 0.05356,-1.463222 0.313727,-2.049223 0.594256,-1.338721 1.540946,-2.046356 2.143631,-2.812092 0.805674,0.749675 1.798267,1.018572 2.726958,2.179894 0.406506,0.508353 0.784566,1.282515 0.843965,1.91437 0.115664,1.229606 0.01322,3.621052 0.01322,3.621052 0,0 2.076332,-1.633401 3.417793,-1.714882 1.013108,-0.06154 2.192583,0.268637 2.856966,0.984964 0.890349,0.959915 0.823255,2.455648 0.850565,3.724897 0.03099,1.441318 -0.631369,4.226607 -0.631369,4.226607 0,0 -1.529755,-2.725517 -3.015605,-2.759506 -0.942334,-0.02156 -1.940074,0.797819 -2.314902,1.604883 -0.500725,1.07815 0.469344,3.513098 0.469344,3.513098 5.869383,4.275637 11.942788,-0.109807 13.188447,-4.383543 v -1.610103 c -2.4575,0.315816 -3.503273,0.718674 -5.960773,3.36658 L 48.762908,59.179724 c 2.352948,1.985038 4.392155,2.698503 6.745089,2.34197 -0.220895,-3.104536 -1.989543,-4.420468 -4.705867,-7.13691 4.427235,-1.106877 9.138757,-1.382253 13.421374,0 -2.716324,2.716442 -4.484973,4.032374 -4.705868,7.13691 2.352935,0.356533 4.392142,-0.356932 6.74509,-2.34197 L 65.47841,69.864959 c -2.457501,-2.647906 -3.503273,-3.050764 -5.960774,-3.36658 v 1.610103 c 1.24566,4.273736 7.319065,8.65918 13.188447,4.383543 0,0 0.970069,-2.434948 0.469345,-3.513098 -0.374828,-0.807064 -1.372569,-1.626446 -2.314902,-1.604883 -1.48585,0.03399 -3.015606,2.759506 -3.015606,2.759506 0,0 -0.662356,-2.785289 -0.631368,-4.226607 0.02731,-1.269249 -0.03978,-2.764982 0.850565,-3.724897 0.664383,-0.716327 1.843858,-1.046505 2.856966,-0.984964 1.34146,0.08148 3.417792,1.714882 3.417792,1.714882 0,0 -0.102438,-2.391446 0.01323,-3.621052 0.0594,-0.631855 0.437458,-1.406017 0.843965,-1.91437 0.928691,-1.161322 1.921284,-1.430219 2.726958,-2.179894 0.602685,0.765736 1.549374,1.473371 2.143631,2.812092 0.260172,0.586001 0.42265,1.42313 0.313726,2.049223 -0.211895,1.218388 -0.941178,3.512954 -0.941178,3.512954 0,0 2.442926,-1.106973 3.764689,-0.878238 0.998221,0.172745 2.054522,0.763356 2.509798,1.610104 0.610116,1.134691 0.151092,2.569146 -0.156864,3.8057 -0.349697,1.404191 -1.725481,3.952073 -1.725481,3.952073 0,0 -0.764775,-2.992792 -2.196072,-3.366581 -0.907749,-0.237062 -2.090726,0.328298 -2.666673,1.024612 -0.76939,0.930201 -0.470576,3.512954 -0.470576,3.512954 -0.418527,-0.195268 1.099597,2.748547 4.078415,4.09844 1.414168,0.640851 3.158464,0.55166 4.705883,0.292748 1.635632,-0.273679 2.999317,-0.866407 4.235291,-1.902846 1.080575,-0.906133 2.509798,-3.512954 2.509798,-3.512954 -2.230071,-0.863574 -4.537957,-1.581937 -7.999995,-0.146373 l 2.196084,-8.636012 c 1.855438,1.677727 3.443598,4.128001 6.901952,4.683939 -0.03307,-2.974996 0.08183,-5.846435 -1.568631,-9.953369 3.728186,0.01279 6.791575,1.98006 9.882335,3.952073 0,0 -3.21557,5.79068 -4.765838,8.904898 -0.796209,1.599441 -1.670958,3.644823 -2.535212,5.813211 -2.836193,3.355321 -6.978826,4.970486 -10.987063,4.75732 -4.068187,-0.216355 -7.997928,-2.316143 -10.282765,-6.391552 -2.666736,2.473581 -5.789528,3.629179 -8.824858,3.214415 -3.004118,-0.410499 -5.922564,-2.359231 -8.530604,-6.090871 -2.608039,3.73164 -5.526485,5.680372 -8.530603,6.090871 z" /><g
             style="fill:#fddd10;fill-opacity:1;stroke:#bc8810;stroke-width:1.10525;stroke-miterlimit:4;stroke-dasharray:none;stroke-opacity:1"
             id="g20276"
             transform="matrix(1.21,0,0,1.21,1.2761323,2.4578292)"><path
               id="circle20278"
               d="m 176.52717,85.622284 a 3.7418478,3.7418478 0 0 1 -3.74185,3.741848 3.7418478,3.7418478 0 0 1 -3.74184,-3.741848 3.7418478,3.7418478 0 0 1 3.74184,-3.741848 3.7418478,3.7418478 0 0 1 3.74185,3.741848 z"
               style="display:inline;fill:#fddd10;fill-opacity:1;stroke:#bc8810;stroke-width:1.52592;stroke-miterlimit:4;stroke-dasharray:none;stroke-opacity:1"
               transform="matrix(-0.72432133,0,0,0.72432133,171.62869,-11.331979)" /><g
               style="fill:#fddd10;fill-opacity:1;stroke:#bc8810;stroke-width:1.10525;stroke-miterlimit:4;stroke-dasharray:none;stroke-opacity:1"
               id="g20280"><path
                 id="circle20282"
                 d="m 176.52717,85.622284 a 3.7418478,3.7418478 0 0 1 -3.74185,3.741848 3.7418478,3.7418478 0 0 1 -3.74184,-3.741848 3.7418478,3.7418478 0 0 1 3.74184,-3.741848 3.7418478,3.7418478 0 0 1 3.74185,3.741848 z"
                 style="display:inline;fill:#fddd10;fill-opacity:1;stroke:#bc8810;stroke-width:1.52592;stroke-miterlimit:4;stroke-dasharray:none;stroke-opacity:1"
                 transform="matrix(-0.72432133,0,0,0.72432133,138.9417,-5.6435927)" /><path
                 id="circle20284"
                 d="m 176.52717,85.622284 a 3.7418478,3.7418478 0 0 1 -3.74185,3.741848 3.7418478,3.7418478 0 0 1 -3.74184,-3.741848 3.7418478,3.7418478 0 0 1 3.74184,-3.741848 3.7418478,3.7418478 0 0 1 3.74185,3.741848 z"
                 style="display:inline;fill:#fddd10;fill-opacity:1;stroke:#bc8810;stroke-width:1.52592;stroke-miterlimit:4;stroke-dasharray:none;stroke-opacity:1"
                 transform="matrix(-0.72432133,0,0,0.72432133,204.31569,-5.6435927)" /></g></g><g
             id="g20286"
             transform="translate(-0.1220781)"
             style="fill:#fddd10;fill-opacity:1;stroke:#bc8810;stroke-width:1.33736;stroke-miterlimit:4;stroke-dasharray:none;stroke-opacity:1"><path
               id="rect20288"
               d="m 26.167471,74.000671 h 5.372427 c 1.116121,0 2.01466,0.898539 2.01466,2.01466 0,1.116122 -0.898539,2.01466 -2.01466,2.01466 h -5.372427 c -1.116122,0 -2.01466,-0.898538 -2.01466,-2.01466 0,-1.116121 0.898538,-2.01466 2.01466,-2.01466 z"
               style="fill:#fddd10;fill-opacity:1;stroke:#bc8810;stroke-width:1.33736;stroke-miterlimit:4;stroke-dasharray:none;stroke-opacity:1"
               transform="rotate(-8.1181406)" /><path
               id="rect20290"
               d="m -87.947201,57.722885 h 5.372427 c 1.116122,0 2.01466,0.898538 2.01466,2.01466 0,1.116122 -0.898538,2.01466 -2.01466,2.01466 h -5.372427 c -1.116121,0 -2.01466,-0.898538 -2.01466,-2.01466 0,-1.116122 0.898539,-2.01466 2.01466,-2.01466 z"
               style="fill:#fddd10;fill-opacity:1;stroke:#bc8810;stroke-width:1.33736;stroke-miterlimit:4;stroke-dasharray:none;stroke-opacity:1"
               transform="matrix(-0.989979,-0.14121468,-0.14121468,0.989979,0,0)" /></g></g><g
           style="fill:#fddd10;fill-opacity:1;stroke:#bc8810;stroke-width:0.432692;stroke-miterlimit:4;stroke-dasharray:none;stroke-opacity:1"
           transform="matrix(0.94040816,0,0,0.94040816,5.8367504,8.0643456)"
           id="g20292"><path
             style="fill:#fddd10;fill-opacity:1;stroke:#bc8810;stroke-width:0.432692;stroke-linejoin:round;stroke-miterlimit:4;stroke-dasharray:none;stroke-opacity:1"
             d="m 84.987159,142.53088 c -0.353971,-3.59788 8.054995,-3.6561 11.797144,-3.65856 3.742147,0.002 12.151117,0.0607 11.797147,3.65856 -0.19784,2.01086 -5.2817,3.65857 -11.797147,3.65857 -6.515445,0 -11.599309,-1.64771 -11.797144,-3.65857 z"
             id="path20294" /><path
             style="fill:#dbb110;fill-opacity:1;stroke:#bc8810;stroke-width:0.432692;stroke-linejoin:round;stroke-miterlimit:4;stroke-dasharray:none;stroke-opacity:1"
             d="m 96.784302,141.60681 c -2.587091,0.002 -7.716901,0.0456 -9.576172,1.86523 0.436055,0.22726 0.974769,0.45243 1.617187,0.6543 1.968839,0.61867 4.78844,1.02734 7.958985,1.02734 3.170545,0 5.988728,-0.4087 7.957038,-1.02734 0.64224,-0.20186 1.18302,-0.42704 1.61914,-0.6543 -1.85928,-1.81969 -6.989093,-1.86364 -9.576178,-1.86523 z"
             id="path20296" /><path
             style="display:inline;fill:#bc8810;fill-opacity:1;stroke:none;stroke-width:0.432692;stroke-miterlimit:4;stroke-dasharray:none;stroke-opacity:1"
             d="m 30.279297,76.386719 c -0.346113,-0.0142 -0.837891,0.111328 -0.837891,0.111328 l 0.933594,0.21875 c 0,0 -0.272074,0.0616 -0.476562,0.128906 -0.146109,0.0481 -0.544922,0.25 -0.544922,0.25 l 1.064453,0.0078 c 0,0 -0.309777,0.136157 -0.433594,0.242187 -0.0943,0.0807 -0.224609,0.291016 -0.224609,0.291016 0,0 0.944744,-0.362182 1.443359,-0.451172 0.513155,-0.0916 1.566406,-0.08008 1.566406,-0.08008 l -0.58789,-0.275391 c 0,0 -0.564453,-0.0799 -1.041016,-0.216797 -0.272372,-0.0782 -0.589292,-0.215392 -0.861328,-0.226562 z M 25.75,76.578125 c -0.345222,0.0272 -0.816406,0.212891 -0.816406,0.212891 l 0.955078,0.103515 c 0,0 -0.25954,0.0944 -0.453125,0.185547 -0.138315,0.0652 -0.505859,0.3125 -0.505859,0.3125 l 1.054687,-0.11914 c 0,0 -0.286257,0.173038 -0.394531,0.292968 -0.08246,0.0913 -0.183594,0.314453 -0.183594,0.314453 0,0 0.886811,-0.473343 1.369141,-0.621093 0.496394,-0.15206 1.542968,-0.265625 1.542968,-0.265625 l -0.621093,-0.201172 c 0,0 -0.569144,-0.0129 -1.060547,-0.0918 -0.280856,-0.0451 -0.615385,-0.144417 -0.886719,-0.123047 z m 9.005859,0.04297 c -0.34456,-0.0337 -0.845703,0.06641 -0.845703,0.06641 l 0.917969,0.269531 c 0,0 -0.273942,0.04599 -0.482422,0.101563 -0.14896,0.0398 -0.560547,0.21875 -0.560547,0.21875 l 1.060547,0.06836 c 0,0 -0.316795,0.117957 -0.447265,0.216797 -0.0994,0.0753 -0.242188,0.277344 -0.242188,0.277344 0,0 0.967233,-0.306518 1.470703,-0.367188 0.51816,-0.0624 1.566406,0.0078 1.566406,0.0078 L 36.625,77.171875 c 0,0 -0.556618,-0.111871 -1.023438,-0.275391 -0.2668,-0.0935 -0.574893,-0.24887 -0.845703,-0.275389 z m 3.865235,0.414062 0.796875,0.519532 c 0,0 -0.275868,-0.03472 -0.492188,-0.04102 -0.15457,-0.004 -0.603515,0.04883 -0.603515,0.04883 l 0.996093,0.369141 c 0,0 -0.337637,0.02093 -0.492187,0.07813 -0.11769,0.0436 -0.316406,0.195312 -0.316406,0.195312 0,0 1.019161,-0.01724 1.519531,0.06836 0.51495,0.0881 1.498047,0.455078 1.498047,0.455078 l -0.453125,-0.457032 c 0,0 -0.498305,-0.265437 -0.896485,-0.554687 -0.22758,-0.16532 -0.477075,-0.401376 -0.728515,-0.503906 -0.15997,-0.0652 -0.366113,-0.110282 -0.533203,-0.138672 -0.16706,-0.0285 -0.294922,-0.03906 -0.294922,-0.03906 z M 23.298828,77.38672 c 0,0 -0.562549,0.103933 -1.060547,0.126953 -0.142305,0.007 -0.297844,0.0019 -0.453125,0.0059 -0.155282,0.004 -0.309094,0.01659 -0.439453,0.05469 -0.331711,0.0968 -0.751953,0.373047 -0.751953,0.373047 l 0.957031,-0.0918 c 0,0 -0.233011,0.144997 -0.402343,0.273437 -0.120987,0.0918 -0.425782,0.408203 -0.425782,0.408203 l 1.00586,-0.330078 c 0,0 -0.242695,0.224112 -0.322266,0.363281 -0.06061,0.10598 -0.109375,0.345704 -0.109375,0.345704 0,0 0.763777,-0.642316 1.203125,-0.884766 0.45216,-0.24953 1.449219,-0.574219 1.449219,-0.574219 l -0.650391,-0.07031 z"
             transform="translate(65.723681,63.313839)"
             id="path20298" /></g></g></g><g
       id="g88063"
       transform="translate(74.982152)"><g
         id="g88065"><path
           style="fill:#bc8810;fill-opacity:1;fill-rule:evenodd;stroke:none;stroke-width:0.4;stroke-linecap:butt;stroke-linejoin:miter;stroke-miterlimit:4;stroke-dasharray:none;stroke-opacity:1"
           d="m -175.20386,172.41191 c -0.26223,-0.002 -0.48592,0.1883 -0.52734,0.44726 -0.0638,0.39521 0.062,0.72322 0.22461,1.0625 0.16178,0.33756 0.38418,0.68095 0.63476,1.0293 0.5011,0.69662 1.11903,1.41015 1.56836,1.95703 4.42655,5.38759 11.45577,10.36955 19.20703,14.64453 a 0.04724419,0.04724419 0 0 1 0.01,0.008 0.04724419,0.04724419 0 0 1 -0.0117,0.0742 l -20.6543,10.84766 c -0.26101,0.13604 -0.36172,0.45831 -0.22461,0.71875 l 2.36914,4.51367 c 0.13664,0.25927 0.45728,0.35881 0.7168,0.22266 l 24.53516,-12.88672 a 0.04724419,0.04724419 0 0 1 0.041,-0.002 c 4.46676,2.12307 8.98761,3.97278 13.2832,5.49414 a 0.04724419,0.04724419 0 0 1 0.0313,0.0449 c 2.6e-4,0.23385 0.0124,0.48488 -0.0273,0.67187 a 0.04724419,0.04724419 0 0 1 -0.002,0.008 l -0.69922,1.83984 a 0.04724419,0.04724419 0 0 1 -0.0137,0.0176 0.04724419,0.04724419 0 0 1 -0.008,0.006 c -0.39295,0.21515 -0.72278,0.52542 -0.88477,0.94336 a 0.04724419,0.04724419 0 0 1 -0.002,0.004 c -2.2e-4,5.5e-4 2.1e-4,0.001 0,0.002 a 0.04724419,0.04724419 0 0 1 0,0.002 c -0.37074,0.97717 0.13094,2.08191 1.10937,2.45313 0.9784,0.37259 2.08855,-0.11986 2.46094,-1.09766 a 0.04724419,0.04724419 0 0 1 0.002,-0.004 0.04724419,0.04724419 0 0 1 0.002,-0.002 c 0.15769,-0.42141 0.11446,-0.87253 -0.0371,-1.29492 a 0.04724419,0.04724419 0 0 1 0,-0.0332 l 0.70117,-1.83984 a 0.04724419,0.04724419 0 0 1 0.004,-0.006 c 0.0951,-0.16697 0.27082,-0.34733 0.42578,-0.52148 a 0.04724419,0.04724419 0 0 1 0.006,-0.006 0.04724419,0.04724419 0 0 1 0.0508,-0.006 c 1.15584,0.55924 2.49592,1.03325 4.08398,1.23242 a 0.04724419,0.04724419 0 0 1 0.0312,0.0176 0.04724419,0.04724419 0 0 1 0.004,0.0508 c -0.50087,0.96244 -0.76022,1.88611 -0.58789,2.68555 0.26311,1.22052 1.33922,2.06452 2.54296,2.25 1.20212,0.18522 2.58922,-0.34154 3.38282,-1.76368 0.73426,-1.31579 0.7993,-2.61336 0.39062,-3.73046 -0.40909,-1.11822 -1.24569,-2.05187 -2.23828,-2.83985 -1.83963,-1.46042 -4.17572,-2.38892 -5.77734,-2.90625 a 0.04724419,0.04724419 0 0 1 -0.0332,-0.0469 c 0.007,-0.16965 0,-0.35873 0.0312,-0.50586 a 0.04724419,0.04724419 0 0 1 0.002,-0.008 l 0.69922,-1.83985 a 0.04724419,0.04724419 0 0 1 0.0137,-0.0176 0.04724419,0.04724419 0 0 1 0.008,-0.006 c 0.39504,-0.21563 0.72736,-0.52814 0.88867,-0.95117 0.37087,-0.97754 -0.13021,-2.08353 -1.10937,-2.45508 -0.97806,-0.37246 -2.08692,0.12069 -2.45899,1.09766 a 0.04724419,0.04724419 0 0 1 -0.002,0.004 c -0.15808,0.4205 -0.11805,0.87112 0.0332,1.29492 a 0.04724419,0.04724419 0 0 1 0,0.0332 l -0.69922,1.8418 a 0.04724419,0.04724419 0 0 1 -0.004,0.006 c -0.11236,0.19717 -0.3241,0.41167 -0.52149,0.62109 a 0.04724419,0.04724419 0 0 1 -0.0508,0.0117 c -3.36794,-1.15522 -6.49192,-2.3679 -9.47461,-3.60352 a 0.04724419,0.04724419 0 0 1 -0.0117,-0.006 0.04724419,0.04724419 0 0 1 0,-0.0742 0.04724419,0.04724419 0 0 1 0.008,-0.004 l 19.95703,-10.48438 c 0.261,-0.13602 0.36171,-0.45831 0.22461,-0.71874 l -2.3711,-4.51172 c -0.13663,-0.25928 -0.45726,-0.35881 -0.71679,-0.22266 l -24.37305,12.80273 a 0.04724419,0.04724419 0 0 1 -0.041,0.002 c -11.96145,-5.72473 -20.31117,-11.76071 -25.78125,-16.44141 -0.095,-0.0813 -0.21479,-0.12601 -0.33984,-0.12695 z"
           id="path88067" /><g
           transform="translate(-149.93987)"
           style="stroke-width:0.4;stroke-miterlimit:4;stroke-dasharray:none"
           id="g88069"><path
             id="path88071"
             d="m 19.684724,197.06791 c -22.730613,-7.45305 -36.906827,-17.23925 -44.95319,-24.12444 -0.12946,0.8024 1.399041,2.51505 2.312203,3.62646 8.481988,10.32349 26.829881,19.46747 41.454537,24.32098 z"
             style="fill:#fddd10;fill-opacity:1;fill-rule:evenodd;stroke:none;stroke-width:0.4;stroke-linecap:butt;stroke-linejoin:miter;stroke-miterlimit:4;stroke-dasharray:none;stroke-opacity:1" /><path
             style="fill:#dbb110;fill-opacity:1;fill-rule:evenodd;stroke:none;stroke-width:0.4;stroke-linecap:butt;stroke-linejoin:miter;stroke-miterlimit:4;stroke-dasharray:none;stroke-opacity:1"
             d="m -25.268466,172.94347 c -0.12946,0.8024 1.399041,2.51505 2.312203,3.62646 8.481988,10.32349 26.829881,19.46747 41.454537,24.32098 l 0.593225,-1.9115 C 6.9973123,194.22867 -15.314895,185.79614 -25.268466,172.94347 Z"
             id="path88073" /><path
             style="fill:none;fill-opacity:1;fill-rule:evenodd;stroke:#bc8810;stroke-width:0.4;stroke-linecap:butt;stroke-linejoin:miter;stroke-miterlimit:4;stroke-dasharray:none;stroke-opacity:1"
             d="m 19.684724,197.06791 c -22.730613,-7.45305 -36.906827,-17.23925 -44.95319,-24.12444 -0.12946,0.8024 1.399041,2.51505 2.312203,3.62646 8.481988,10.32349 26.829881,19.46747 41.454537,24.32098 z"
             id="path88075" /></g><g
           transform="translate(-149.93987)"
           style="stroke-width:0.4;stroke-miterlimit:4;stroke-dasharray:none"
           id="g88077"><path
             id="path88079"
             d="m 19.113433,196.76181 c 1.373433,0.18717 12.056047,3.53426 8.907008,9.17733 -1.397665,2.50462 -4.527257,1.59951 -4.945485,-0.3406 -0.176773,-0.82003 0.07572,-1.86005 0.870746,-3.0209 -2.616478,-0.10177 -4.448121,-1.19496 -6.200698,-2.05264 z"
             style="fill:#dbb110;fill-opacity:1;fill-rule:evenodd;stroke:#bc8810;stroke-width:0.4;stroke-linecap:butt;stroke-linejoin:miter;stroke-miterlimit:4;stroke-dasharray:none;stroke-opacity:1" /><path
             id="path88081"
             d="m 22.66168,198.92168 c -0.69513,0 -1.26172,0.5666 -1.26172,1.26172 0,0.69512 0.56659,1.26172 1.26172,1.26172 0.69512,0 1.26171,-0.5666 1.26171,-1.26172 0,-0.69512 -0.56659,-1.26172 -1.26171,-1.26172 z m 0,0.29883 c 0.53299,0 0.96289,0.4299 0.96289,0.96289 0,0.53299 -0.4299,0.96094 -0.96289,0.96094 -0.533,0 -0.96094,-0.42795 -0.96094,-0.96094 0,-0.53299 0.42794,-0.96289 0.96094,-0.96289 z m 0,0.44726 c -0.26927,1.3e-4 -0.51402,0.24636 -0.51368,0.51563 1.3e-4,0.26896 0.24471,0.51354 0.51368,0.51367 0.26926,3.5e-4 0.51549,-0.24441 0.51562,-0.51367 3.5e-4,-0.26957 -0.24606,-0.51597 -0.51562,-0.51563 z"
             style="color:#000000;font-style:normal;font-variant:normal;font-weight:normal;font-stretch:normal;font-size:medium;line-height:normal;font-family:sans-serif;text-indent:0;text-align:start;text-decoration:none;text-decoration-line:none;text-decoration-style:solid;text-decoration-color:#000000;letter-spacing:normal;word-spacing:normal;text-transform:none;writing-mode:lr-tb;direction:ltr;baseline-shift:baseline;text-anchor:start;white-space:normal;clip-rule:nonzero;display:inline;overflow:visible;visibility:visible;opacity:1;isolation:auto;mix-blend-mode:normal;color-interpolation:sRGB;color-interpolation-filters:linearRGB;solid-color:#000000;solid-opacity:1;fill:#fddd10;fill-opacity:1;fill-rule:nonzero;stroke:none;stroke-width:0.4;stroke-linecap:butt;stroke-linejoin:round;stroke-miterlimit:4;stroke-dasharray:none;stroke-dashoffset:0;stroke-opacity:1;color-rendering:auto;image-rendering:auto;shape-rendering:auto;text-rendering:auto;enable-background:accumulate" /><path
             style="color:#000000;font-style:normal;font-variant:normal;font-weight:normal;font-stretch:normal;font-size:medium;line-height:normal;font-family:sans-serif;text-indent:0;text-align:start;text-decoration:none;text-decoration-line:none;text-decoration-style:solid;text-decoration-color:#000000;letter-spacing:normal;word-spacing:normal;text-transform:none;writing-mode:lr-tb;direction:ltr;baseline-shift:baseline;text-anchor:start;white-space:normal;clip-rule:nonzero;display:inline;overflow:visible;visibility:visible;opacity:1;isolation:auto;mix-blend-mode:normal;color-interpolation:sRGB;color-interpolation-filters:linearRGB;solid-color:#000000;solid-opacity:1;fill:#fddd10;fill-opacity:1;fill-rule:nonzero;stroke:none;stroke-width:0.4;stroke-linecap:butt;stroke-linejoin:round;stroke-miterlimit:4;stroke-dasharray:none;stroke-dashoffset:0;stroke-opacity:1;color-rendering:auto;image-rendering:auto;shape-rendering:auto;text-rendering:auto;enable-background:accumulate"
             d="m 25.612361,200.50393 c -0.69513,0 -1.26172,0.5666 -1.26172,1.26172 0,0.69512 0.56659,1.26172 1.26172,1.26172 0.69512,0 1.26171,-0.5666 1.26171,-1.26172 0,-0.69512 -0.56659,-1.26172 -1.26171,-1.26172 z m 0,0.29883 c 0.53299,0 0.96289,0.4299 0.96289,0.96289 0,0.53299 -0.4299,0.96094 -0.96289,0.96094 -0.533,0 -0.96094,-0.42795 -0.96094,-0.96094 0,-0.53299 0.42794,-0.96289 0.96094,-0.96289 z m 0,0.44726 c -0.26927,1.3e-4 -0.51402,0.24637 -0.51368,0.51563 1.3e-4,0.26896 0.24471,0.51355 0.51368,0.51367 0.26926,3.5e-4 0.51549,-0.24441 0.51562,-0.51367 3.5e-4,-0.26957 -0.24606,-0.51597 -0.51562,-0.51563 z"
             id="path88083" /><path
             id="path88085"
             d="m 25.740651,203.71119 c -0.69513,0 -1.26172,0.56659 -1.26172,1.26172 0,0.69512 0.56659,1.26172 1.26172,1.26172 0.69512,0 1.26171,-0.5666 1.26171,-1.26172 0,-0.69513 -0.56659,-1.26172 -1.26171,-1.26172 z m 0,0.29883 c 0.53299,0 0.96289,0.4299 0.96289,0.96289 0,0.53299 -0.4299,0.96093 -0.96289,0.96093 -0.533,0 -0.96094,-0.42794 -0.96094,-0.96093 0,-0.53299 0.42794,-0.96289 0.96094,-0.96289 z m 0,0.44726 c -0.26927,1.3e-4 -0.51402,0.24636 -0.51368,0.51563 1.3e-4,0.26896 0.24471,0.51354 0.51368,0.51367 0.26926,3.5e-4 0.51549,-0.24441 0.51562,-0.51367 3.5e-4,-0.26957 -0.24606,-0.51598 -0.51562,-0.51563 z"
             style="color:#000000;font-style:normal;font-variant:normal;font-weight:normal;font-stretch:normal;font-size:medium;line-height:normal;font-family:sans-serif;text-indent:0;text-align:start;text-decoration:none;text-decoration-line:none;text-decoration-style:solid;text-decoration-color:#000000;letter-spacing:normal;word-spacing:normal;text-transform:none;writing-mode:lr-tb;direction:ltr;baseline-shift:baseline;text-anchor:start;white-space:normal;clip-rule:nonzero;display:inline;overflow:visible;visibility:visible;opacity:1;isolation:auto;mix-blend-mode:normal;color-interpolation:sRGB;color-interpolation-filters:linearRGB;solid-color:#000000;solid-opacity:1;fill:#fddd10;fill-opacity:1;fill-rule:nonzero;stroke:none;stroke-width:0.4;stroke-linecap:butt;stroke-linejoin:round;stroke-miterlimit:4;stroke-dasharray:none;stroke-dashoffset:0;stroke-opacity:1;color-rendering:auto;image-rendering:auto;shape-rendering:auto;text-rendering:auto;enable-background:accumulate" /><g
             style="stroke-width:0.4;stroke-miterlimit:4;stroke-dasharray:none"
             id="g88087"
             transform="rotate(-69.187143,183.79667,129.77971)"><path
               style="fill:#dbb110;fill-opacity:1;fill-rule:evenodd;stroke:#bc8810;stroke-width:0.4;stroke-linecap:butt;stroke-linejoin:miter;stroke-miterlimit:4;stroke-dasharray:none;stroke-opacity:1"
               d="m 63.7849,0.531052 h 2.21289 c 0.26028,0.318627 0.6486,0.503471 1.05859,0.503906 0.75771,-4.86e-4 1.37157,-0.618715 1.3711,-1.380859 4.7e-4,-0.762145 -0.61339,-1.380374 -1.3711,-1.38086 -0.40931,10e-4 -0.79679,0.185808 -1.05664,0.503906 H 63.7849 c -1.13441,-0.16667 -2.48048,-1.084553 -3.19739,-1.638671 -0.71691,0.554118 -2.06298,1.472001 -3.19739,1.638671 h -2.21484 c -0.25985,-0.318098 -0.64733,-0.502886 -1.05664,-0.503906 -0.75771,4.86e-4 -1.37157,0.618715 -1.3711,1.38086 -4.7e-4,0.762144 0.61339,1.380373 1.3711,1.380859 0.40999,-4.35e-4 0.79831,-0.185279 1.05859,-0.503906 h 2.21289 c 1.13441,0.166671 2.48048,1.084554 3.19739,1.638672 0.71691,-0.554118 2.06298,-1.472001 3.19739,-1.638672 z"
               id="path88089" /><g
               transform="translate(1.200051e-4)"
               style="fill:#fddd10;fill-opacity:1;stroke-width:0.4;stroke-miterlimit:4;stroke-dasharray:none"
               id="g88091"><path
                 id="path88093"
                 transform="translate(-260.75441,25.488083)"
                 d="m 314.87305,-26.685547 c -0.44013,-3.46e-4 -0.84403,0.403996 -0.84375,0.851563 3.5e-4,0.447163 0.40401,0.849954 0.84375,0.849609 0.43933,-2.84e-4 0.84144,-0.402851 0.84179,-0.849609 2.8e-4,-0.447162 -0.40206,-0.851278 -0.84179,-0.851563 z m 12.9375,0 c -0.43973,2.85e-4 -0.84208,0.404401 -0.8418,0.851563 3.5e-4,0.446758 0.40246,0.849325 0.8418,0.849609 0.43973,3.45e-4 0.84339,-0.402446 0.84375,-0.849609 2.7e-4,-0.447567 -0.40362,-0.851909 -0.84375,-0.851563 z"
                 style="fill:#fddd10;fill-opacity:1;stroke:none;stroke-width:0.4;stroke-linejoin:round;stroke-miterlimit:4;stroke-dasharray:none;stroke-opacity:1" /></g><g
               style="stroke-width:0.4;stroke-miterlimit:4;stroke-dasharray:none"
               transform="translate(-0.03495513)"
               id="g88095"><path
                 id="ellipse88097"
                 d="M 57.330015,-0.36934 A 0.99955916,0.50539505 0 0 1 56.330456,0.13605505 0.99955916,0.50539505 0 0 1 55.330897,-0.36934 0.99955916,0.50539505 0 0 1 56.330456,-0.87473506 0.99955916,0.50539505 0 0 1 57.330015,-0.36934 Z"
                 style="fill:#fddd10;fill-opacity:1;stroke:none;stroke-width:0.4;stroke-linejoin:round;stroke-miterlimit:4;stroke-dasharray:none;stroke-opacity:1" /><path
                 id="ellipse88099"
                 d="M 65.914034,-0.36934 A 0.99955916,0.50539505 0 0 1 64.914474,0.13605505 0.99955916,0.50539505 0 0 1 63.914915,-0.36934 0.99955916,0.50539505 0 0 1 64.914474,-0.87473506 0.99955916,0.50539505 0 0 1 65.914034,-0.36934 Z"
                 style="fill:#fddd10;fill-opacity:1;stroke:none;stroke-width:0.4;stroke-linejoin:round;stroke-miterlimit:4;stroke-dasharray:none;stroke-opacity:1" /></g><path
               style="fill:#fddd10;fill-opacity:1;fill-rule:evenodd;stroke:none;stroke-width:0.4;stroke-linecap:butt;stroke-linejoin:miter;stroke-miterlimit:4;stroke-dasharray:none;stroke-opacity:1"
               d="m 311.62891,-23.970703 c -0.78651,0.578078 -1.85738,1.28658 -3.08399,1.466797 v 0.203125 c 1.22661,0.180218 2.29748,0.888719 3.08399,1.466797 0.78651,-0.578078 1.85737,-1.286579 3.08398,-1.466797 v -0.203125 c -1.22661,-0.180217 -2.29747,-0.888719 -3.08398,-1.466797 z m 0,0.458984 c 0.61086,0 1.10937,0.498513 1.10937,1.109375 0,0.610863 -0.49851,1.111328 -1.10937,1.111328 -0.61087,0 -1.10938,-0.500465 -1.10938,-1.111328 0,-0.610862 0.49851,-1.109375 1.10938,-1.109375 z m 0,0.357422 c -0.41817,0 -0.75391,0.333785 -0.75391,0.751953 0,0.418169 0.33574,0.753906 0.75391,0.753906 0.41816,0 0.75195,-0.335737 0.75195,-0.753906 0,-0.418168 -0.33379,-0.751953 -0.75195,-0.751953 z"
               transform="translate(-251.04149,22.055699)"
               id="path88101" /></g></g><path
           id="path88103"
           transform="translate(-260.75441,25.488083)"
           d="m 105.34766,162.12891 c -0.21597,0.0167 -0.43114,0.0737 -0.64063,0.17382 0.006,0.91893 0.68019,1.6099 1.73438,1.91993 0.27299,0.58322 0.55717,1.15808 1.70117,1.01757 0.24126,1.03981 1.27904,1.6813 1.61523,1.54297 l 1.24414,-1.98828 c -0.0285,-0.36242 -1.07078,-1.00064 -2.10742,-0.74609 -0.39151,-1.08407 -1.03214,-1.07664 -1.67578,-1.05664 -0.56464,-0.60029 -1.22319,-0.91338 -1.87109,-0.86328 z m 15.63867,7.26562 c -0.32574,0.0173 -0.63922,0.12042 -0.92578,0.31836 0.15091,0.90648 0.92569,1.48348 2.01562,1.62305 0.36171,0.53276 0.73242,1.05387 1.83985,0.73437 0.40252,0.98863 1.52973,1.45729 1.83984,1.26758 l 0.91211,-2.1582 c -0.0854,-0.35336 -1.21387,-0.81944 -2.19727,-0.4043 -0.55787,-1.00859 -1.18986,-0.9007 -1.82226,-0.7793 -0.54367,-0.41961 -1.11921,-0.6304 -1.66211,-0.60156 z"
           style="fill:#bc8810;fill-opacity:1;fill-rule:evenodd;stroke:none;stroke-width:0.1;stroke-linecap:butt;stroke-linejoin:miter;stroke-miterlimit:4;stroke-dasharray:none;stroke-opacity:1" /></g><path
         id="rect88105"
         d="m 98.525116,192.29649 h 5.097834 v 56.57359 h -5.097834 z"
         style="fill:#dbb110;fill-opacity:1;stroke:none;stroke-width:0.4;stroke-linejoin:round;stroke-miterlimit:4;stroke-dasharray:none;stroke-opacity:1"
         transform="rotate(62.288565)" /><path
         style="fill:#fddd10;fill-opacity:1;stroke:none;stroke-width:0.4;stroke-linejoin:round;stroke-miterlimit:4;stroke-dasharray:none;stroke-opacity:1"
         d="m -124.00572,177.79147 0.59264,1.12828 0.59265,1.12828 -50.08464,26.30778 -0.59265,-1.12828 -0.59264,-1.12828 z"
         id="path88107" /><g
         id="g88109"
         transform="rotate(62.288565,-209.46413,-75.024684)"
         style="stroke-width:0.4;stroke-miterlimit:4;stroke-dasharray:none"><path
           style="color:#000000;font-style:normal;font-variant:normal;font-weight:normal;font-stretch:normal;font-size:medium;line-height:normal;font-family:sans-serif;text-indent:0;text-align:start;text-decoration:none;text-decoration-line:none;text-decoration-style:solid;text-decoration-color:#000000;letter-spacing:normal;word-spacing:normal;text-transform:none;writing-mode:lr-tb;direction:ltr;baseline-shift:baseline;text-anchor:start;white-space:normal;clip-rule:nonzero;display:inline;overflow:visible;visibility:visible;opacity:1;isolation:auto;mix-blend-mode:normal;color-interpolation:sRGB;color-interpolation-filters:linearRGB;solid-color:#000000;solid-opacity:1;fill:#bc8810;fill-opacity:1;fill-rule:nonzero;stroke:none;stroke-width:0.4;stroke-linecap:butt;stroke-linejoin:round;stroke-miterlimit:4;stroke-dasharray:none;stroke-dashoffset:0;stroke-opacity:1;color-rendering:auto;image-rendering:auto;shape-rendering:auto;text-rendering:auto;enable-background:accumulate"
           d="m 313.62695,-53.75 v 0.699219 H 318.75 V -53.75 Z m 0,2.277344 v 0.699218 H 318.75 v -0.699218 z m 0,2.93164 v 0.699219 H 318.75 v -0.699219 z m 0,2.277344 v 0.699219 H 318.75 v -0.699219 z m 0,30.38086 v 0.701171 H 318.75 v -0.701171 z m 0,2.277343 v 0.701172 H 318.75 v -0.701172 z m 0,2.931641 v 0.7011718 H 318.75 v -0.7011718 z m 0,2.2773436 v 0.7011719 H 318.75 v -0.7011719 z"
           transform="translate(-260.75441,25.730376)"
           id="path88111" /></g><path
         id="rect88113"
         d="m 98.525116,192.29649 h 5.097834 v 56.57359 h -5.097834 z"
         style="fill:none;fill-opacity:1;stroke:#bc8810;stroke-width:0.4;stroke-linejoin:round;stroke-miterlimit:4;stroke-dasharray:none;stroke-opacity:1"
         transform="rotate(62.288565)" /></g></g></svg>
