<?xml version="1.0" encoding="UTF-8" standalone="no"?>
<!-- Generator: Adobe Illustrator 14.0.0, SVG Export Plug-In . SVG Version: 6.00 Build 43363)  -->

<svg version="1.1" id="Version_1.0" x="0px" y="0px" width="612px" height="792px" viewBox="0 0 612 792" enable-background="new 0 0 612 792" xml:space="preserve" sodipodi:docname="60130300.svg" inkscape:version="1.2.2 (732a01da63, 2022-12-09)" xmlns:inkscape="http://www.inkscape.org/namespaces/inkscape" xmlns:sodipodi="http://sodipodi.sourceforge.net/DTD/sodipodi-0.dtd" xmlns="http://www.w3.org/2000/svg" xmlns:svg="http://www.w3.org/2000/svg"><defs id="defs28" /><sodipodi:namedview id="namedview26" pagecolor="#ffffff" bordercolor="#666666" borderopacity="1.0" inkscape:showpageshadow="2" inkscape:pageopacity="0.0" inkscape:pagecheckerboard="0" inkscape:deskcolor="#d1d1d1" showgrid="false" inkscape:zoom="1.1123737" inkscape:cx="158.2202" inkscape:cy="397.34847" inkscape:window-width="1920" inkscape:window-height="1009" inkscape:window-x="-8" inkscape:window-y="-8" inkscape:window-maximized="1" inkscape:current-layer="main" />
<g id="octagon" display="none">
	
		<line id="mod2_1_" display="inline" fill="none" stroke="#0000ff" stroke-width="2" x1="203.966" y1="445.01501" x2="406.19901" y2="445.29501" />
	
		<line id="mod1_1_" display="inline" fill="none" stroke="#0000ff" stroke-width="2" x1="203.966" y1="346.98499" x2="406.19901" y2="346.70499" />
	<g id="outFrame" display="inline">
		<line fill="none" stroke="#0000ff" stroke-width="2" x1="220" y1="309.5" x2="306" y2="273" id="line4" />
		<line fill="none" stroke="#0000ff" stroke-width="2" x1="306" y1="273" x2="390.5" y2="309.5" id="line6" />
		<line fill="none" stroke="#0000ff" stroke-width="2" x1="390.5" y1="309.5" x2="427" y2="396" id="line8" />
		<line fill="none" stroke="#0000ff" stroke-width="2" x1="427" y1="396" x2="390.5" y2="482.5" id="line10" />
		<line fill="none" stroke="#0000ff" stroke-width="2" x1="390.5" y1="482.5" x2="306" y2="516" id="line12" />
		<line fill="none" stroke="#0000ff" stroke-width="2" x1="306" y1="516" x2="220" y2="482.5" id="line14" />
		<line fill="none" stroke="#0000ff" stroke-width="2" x1="220" y1="482.5" x2="183" y2="396" id="line16" />
		<line fill="none" stroke="#0000ff" stroke-width="2" x1="183" y1="396" x2="220" y2="309.5" id="line18" />
	</g>
</g>
<g id="main" transform="translate(-2.6650577,-1.5842011)">
	
<path id="path374" style="fill:#000000;fill-opacity:1;stroke:none;stroke-width:1px;stroke-linecap:butt;stroke-linejoin:miter;stroke-opacity:1" d="m 307.66602,353.43359 c -16.84854,0 -31.14844,11.54997 -31.14844,28.23633 v 51.63867 h -10.6543 v 9.4375 h 10.6543 62.29687 10.6543 v -9.4375 h -10.6543 v -51.63867 c -0.63561,-17.3221 -14.46207,-28.23633 -31.14843,-28.23633 z m -12.24805,23.34766 c 4.96605,4.9e-4 8.9917,4.02614 8.99219,8.99219 5.9e-4,4.96681 -4.02538,8.99365 -8.99219,8.99414 -4.96757,5.9e-4 -8.99473,-4.02657 -8.99414,-8.99414 4.9e-4,-4.96681 4.02733,-8.99278 8.99414,-8.99219 z m 24.49609,0 c 4.96681,-5.9e-4 8.99365,4.02538 8.99414,8.99219 5.9e-4,4.96757 -4.02657,8.99473 -8.99414,8.99414 -4.9668,-5e-4 -8.99277,-4.02734 -8.99218,-8.99414 4.9e-4,-4.96604 4.02614,-8.99169 8.99218,-8.99219 z m -33.74804,35.81295 h 43 v 6.814 h -43 z" sodipodi:nodetypes="sscccccccccsssssssssssccccc" /></g>
</svg>
