<?xml version="1.0" encoding="UTF-8" standalone="no"?>
<!-- Generator: Adobe Illustrator 14.0.0, SVG Export Plug-In . SVG Version: 6.00 Build 43363)  -->

<svg version="1.1" id="Version_1.0" x="0px" y="0px" width="612px" height="792px" viewBox="0 0 612 792" enable-background="new 0 0 612 792" xml:space="preserve" sodipodi:docname="60150100.svg" inkscape:version="1.2.2 (732a01da63, 2022-12-09)" xmlns:inkscape="http://www.inkscape.org/namespaces/inkscape" xmlns:sodipodi="http://sodipodi.sourceforge.net/DTD/sodipodi-0.dtd" xmlns="http://www.w3.org/2000/svg" xmlns:svg="http://www.w3.org/2000/svg"><defs id="defs3880">
	
</defs><sodipodi:namedview id="namedview3878" pagecolor="#ffffff" bordercolor="#666666" borderopacity="1.0" inkscape:showpageshadow="2" inkscape:pageopacity="0.0" inkscape:pagecheckerboard="0" inkscape:deskcolor="#d1d1d1" showgrid="false" inkscape:zoom="1.573134" inkscape:cx="275.24673" inkscape:cy="554.30751" inkscape:window-width="1920" inkscape:window-height="1009" inkscape:window-x="-8" inkscape:window-y="-8" inkscape:window-maximized="1" inkscape:current-layer="Version_1.0" />
<g id="octagon" display="none">
	
		<line id="mod2_1_" display="inline" fill="none" stroke="#0000ff" stroke-width="2" x1="203.966" y1="445.01501" x2="406.19901" y2="445.29501" />
	
		<line id="mod1_1_" display="inline" fill="none" stroke="#0000ff" stroke-width="2" x1="203.966" y1="346.98499" x2="406.19901" y2="346.70499" />
	<g id="outFrame" display="inline">
		<line fill="none" stroke="#0000ff" stroke-width="2" x1="220" y1="309.5" x2="306" y2="273" id="line3856" />
		<line fill="none" stroke="#0000ff" stroke-width="2" x1="306" y1="273" x2="390.5" y2="309.5" id="line3858" />
		<line fill="none" stroke="#0000ff" stroke-width="2" x1="390.5" y1="309.5" x2="427" y2="396" id="line3860" />
		<line fill="none" stroke="#0000ff" stroke-width="2" x1="427" y1="396" x2="390.5" y2="482.5" id="line3862" />
		<line fill="none" stroke="#0000ff" stroke-width="2" x1="390.5" y1="482.5" x2="306" y2="516" id="line3864" />
		<line fill="none" stroke="#0000ff" stroke-width="2" x1="306" y1="516" x2="220" y2="482.5" id="line3866" />
		<line fill="none" stroke="#0000ff" stroke-width="2" x1="220" y1="482.5" x2="183" y2="396" id="line3868" />
		<line fill="none" stroke="#0000ff" stroke-width="2" x1="183" y1="396" x2="220" y2="309.5" id="line3870" />
	</g>
</g>

<g id="g4393"><path d="m 279.48666,425.25716 q -4.19094,2.25353 -7.7998,3.09308 -3.57006,0.83956 -8.45949,0.83956 -9.42962,0 -16.84137,-6.67224 -7.37295,-6.67224 -9.2744,-18.16088 h -5.19987 l 1.70742,-5.21407 h 2.91038 q -0.0777,-0.92792 -0.11642,-1.94422 -0.0388,-1.06049 -0.0388,-2.03261 0,-1.14886 0.0388,-2.29772 0.0388,-1.14887 0.11642,-2.20936 h -4.6178 l 1.70742,-5.21406 h 3.60886 q 2.25069,-11.35607 9.46843,-17.89576 7.21773,-6.53968 16.64734,-6.53968 5.47151,0 9.15799,0.92793 3.72528,0.88374 6.98489,2.87216 v 9.23509 h -0.62088 q -3.1044,-2.87216 -6.94609,-4.19777 -3.8417,-1.36979 -8.65352,-1.36979 -6.09238,0 -11.05942,4.59544 -4.96704,4.55127 -6.82968,12.37238 h 18.43237 l -1.70742,5.21406 h -17.53986 q -0.0776,1.06049 -0.15522,2.20936 -0.0388,1.14886 -0.0388,2.29772 0,1.01631 0.0388,2.03261 0.0388,1.0163 0.11642,1.94422 h 14.7459 l -1.70742,5.21407 h -12.26239 q 1.90145,8.04205 7.02371,12.68168 5.12227,4.59546 10.94301,4.59546 6.09239,0 9.54603,-1.3698 3.45365,-1.41398 6.09239,-4.1094 h 0.58207 z" id="path4362" style="font-size:100px;opacity:0.93;stroke-width:0.84805" /><path d="m 326.44072,405.15205 c 0,4.566 -1.56513,8.36608 -4.6954,11.40026 -3.13027,3.00472 -7.23067,4.78693 -12.30119,5.34663 v 8.79606 h -4.57899 v -8.57512 c -3.41484,-0.0294 -6.62272,-0.39767 -9.62364,-1.10468 -3.00092,-0.73644 -5.60085,-1.6791 -7.79981,-2.82797 v -8.74903 h 0.62088 c 0.49153,0.41241 1.37111,1.01629 2.63874,1.81166 1.26763,0.76591 2.49646,1.39926 3.68648,1.90005 1.34524,0.5597 2.91037,1.08995 4.69541,1.59074 1.81089,0.47132 3.73821,0.75118 5.78194,0.83955 v -19.13299 c -1.0348,-0.23566 -1.99199,-0.45659 -2.87157,-0.66281 -0.87958,-0.23566 -1.69449,-0.47133 -2.44472,-0.70699 -4.21681,-1.20777 -7.2436,-3.01945 -9.08037,-5.435 -1.83677,-2.44502 -2.75516,-5.44973 -2.75516,-9.01416 0,-4.35979 1.50046,-8.04204 4.50139,-11.04676 3.02679,-3.00472 7.2436,-4.75747 12.65043,-5.25826 V 356.704 h 4.57899 v 7.53086 c 2.61287,0.0589 5.29042,0.41244 8.03264,1.06048 2.74222,0.64808 5.04464,1.39927 6.90728,2.25355 v 8.66066 h -0.54326 c -1.94026,-1.35507 -3.97105,-2.54812 -6.09239,-3.57916 -2.09546,-1.06048 -4.86356,-1.72328 -8.30427,-1.98841 v 19.04461 c 0.7761,0.14729 1.61688,0.3535 2.52232,0.61862 0.90546,0.23567 1.6945,0.42715 2.36711,0.57443 3.85463,0.94266 6.82968,2.56285 8.92515,4.86058 2.12134,2.29773 3.18201,5.435 3.18201,9.41183 z m -21.57558,-16.21664 v -18.24925 c -2.76809,0.23567 -5.09639,1.10468 -6.9849,2.60704 -1.88851,1.4729 -2.83277,3.53496 -2.83277,6.18619 0,2.68068 0.6985,4.69855 2.09547,6.05362 1.39698,1.35507 3.97105,2.48921 7.7222,3.4024 z m 14.24144,17.36551 c 0,-2.76905 -0.76317,-4.78693 -2.2895,-6.05363 -1.50046,-1.29615 -3.95811,-2.31245 -7.37295,-3.0489 v 18.29343 c 3.1044,-0.35349 5.48444,-1.25196 7.14012,-2.6954 1.68156,-1.44345 2.52233,-3.60861 2.52233,-6.4955 z" id="path4364" style="font-size:100px;opacity:0.93;stroke-width:0.84805" sodipodi:nodetypes="scccccccccccccccccscccccscccccccccscccsscsccccs" /><path d="m 378.09019,428.63746 h -39.81394 v -9.14672 q 4.57899,-1.41398 6.55804,-5.56757 2.01787,-4.19777 2.01787,-12.37237 h -6.82968 v -6.09781 h 6.82968 v -13.69798 q 0,-8.83741 4.88942,-14.49335 4.92824,-5.70012 12.88327,-5.70012 4.07452,0 7.0237,0.75117 2.94919,0.75118 5.43271,1.50236 v 9.10253 h -0.38806 q -2.40591,-1.85586 -5.35509,-2.91634 -2.94917,-1.06049 -6.28641,-1.06049 -5.4327,0 -8.14905,3.66753 -2.67754,3.62333 -2.67754,9.98626 V 395.453 h 16.10407 v 6.0978 h -16.10407 v 2.69541 q 0,5.56757 -2.40591,9.72115 -2.40592,4.1094 -6.2088,6.62806 v 0.48605 h 32.47979 z" id="path4366" style="font-size:100px;opacity:0.93;stroke-width:0.84805" /><path style="fill:none;stroke:#000000;stroke-width:4;stroke-linecap:butt;stroke-linejoin:miter;stroke-dasharray:none;stroke-opacity:1" d="m 226.11596,364.94 v -13.035 h 157.77 v 13.035" id="path4377" sodipodi:nodetypes="cccc" /><path style="fill:none;stroke:#000000;stroke-width:4;stroke-linecap:butt;stroke-linejoin:miter;stroke-dasharray:none;stroke-opacity:1" d="m 226.11596,421.905 v 13.035 h 157.77 v -13.035" id="path4379" sodipodi:nodetypes="cccc" /></g></svg>
