<?xml version="1.0" encoding="UTF-8" standalone="no"?>
<!-- Generator: Adobe Illustrator 14.0.0, SVG Export Plug-In . SVG Version: 6.00 Build 43363)  -->

<svg version="1.1" id="Version_1.0" x="0px" y="0px" width="612px" height="792px" viewBox="0 0 612 792" enable-background="new 0 0 612 792" xml:space="preserve" sodipodi:docname="60150200.svg" inkscape:version="1.2.2 (732a01da63, 2022-12-09)" xmlns:inkscape="http://www.inkscape.org/namespaces/inkscape" xmlns:sodipodi="http://sodipodi.sourceforge.net/DTD/sodipodi-0.dtd" xmlns="http://www.w3.org/2000/svg" xmlns:svg="http://www.w3.org/2000/svg"><defs id="defs4587" /><sodipodi:namedview id="namedview4585" pagecolor="#ffffff" bordercolor="#666666" borderopacity="1.0" inkscape:showpageshadow="2" inkscape:pageopacity="0.0" inkscape:pagecheckerboard="0" inkscape:deskcolor="#d1d1d1" showgrid="false" inkscape:zoom="2.2247475" inkscape:cx="144.28604" inkscape:cy="357.34392" inkscape:window-width="1920" inkscape:window-height="1009" inkscape:window-x="-8" inkscape:window-y="-8" inkscape:window-maximized="1" inkscape:current-layer="Version_1.0" />
<g id="octagon" display="none">
	
		<line id="mod2_1_" display="inline" fill="none" stroke="#0000ff" stroke-width="2" x1="203.966" y1="445.01501" x2="406.19901" y2="445.29501" />
	
		<line id="mod1_1_" display="inline" fill="none" stroke="#0000ff" stroke-width="2" x1="203.966" y1="346.98499" x2="406.19901" y2="346.70499" />
	<g id="outFrame" display="inline">
		<line fill="none" stroke="#0000ff" stroke-width="2" x1="220" y1="309.5" x2="306" y2="273" id="line4563" />
		<line fill="none" stroke="#0000ff" stroke-width="2" x1="306" y1="273" x2="390.5" y2="309.5" id="line4565" />
		<line fill="none" stroke="#0000ff" stroke-width="2" x1="390.5" y1="309.5" x2="427" y2="396" id="line4567" />
		<line fill="none" stroke="#0000ff" stroke-width="2" x1="427" y1="396" x2="390.5" y2="482.5" id="line4569" />
		<line fill="none" stroke="#0000ff" stroke-width="2" x1="390.5" y1="482.5" x2="306" y2="516" id="line4571" />
		<line fill="none" stroke="#0000ff" stroke-width="2" x1="306" y1="516" x2="220" y2="482.5" id="line4573" />
		<line fill="none" stroke="#0000ff" stroke-width="2" x1="220" y1="482.5" x2="183" y2="396" id="line4575" />
		<line fill="none" stroke="#0000ff" stroke-width="2" x1="183" y1="396" x2="220" y2="309.5" id="line4577" />
	</g>
</g>

<g id="main" transform="translate(-1.4414996)"><path style="fill:none;stroke:#000000;stroke-width:8;stroke-linecap:butt;stroke-linejoin:miter;stroke-dasharray:none;stroke-opacity:1" d="m 262.05221,439.6 c -19.77753,0 -30.55155,-11.50708 -30.34052,-26.06992 0.21104,-14.56285 14.15891,-23.82293 21.80023,-23.59818 2.0227,-17.97957 23.14869,-17.08059 31.01475,-14.6084 2.0227,-13.25993 17.12856,-20.30706 37.7571,-20.67651 20.62854,-0.36945 33.63678,11.76164 33.71169,26.07038 16.40636,3.37117 25.5088,19.99851 25.1714,33.71169 -0.3374,13.71318 -16.40636,25.39568 -40.90352,25.17094 z" id="path6109" sodipodi:nodetypes="czcczczcc" /><g id="g1991" transform="matrix(0,0.38134865,-0.71756815,0,544.95163,287.04086)"><path style="color:#000000;fill:#000000;stroke-width:1.03595;-inkscape-stroke:none" d="m 249.91602,315.93555 v 10 h 109.98546 v -10 z" id="path1967" /><path style="color:#000000;fill:#000000;fill-rule:evenodd;stroke-width:1.04137;-inkscape-stroke:none" d="m 342.39027,298.40584 -10.4181,6.83549 26.15192,15.69422 -26.15192,16.35862 10.4181,6.17109 35.93945,-22.5297 c -11.97819,-7.51297 -23.95937,-15.02029 -35.93945,-22.52972 z" id="path1965" sodipodi:nodetypes="ccccccc" /></g></g></svg>
