<?xml version="1.0" encoding="UTF-8" standalone="no"?>
<!-- Generator: Adobe Illustrator 14.0.0, SVG Export Plug-In . SVG Version: 6.00 Build 43363)  -->

<svg version="1.1" id="Version_1.0" x="0px" y="0px" width="612px" height="792px" viewBox="0 0 612 792" enable-background="new 0 0 612 792" xml:space="preserve" sodipodi:docname="60160300.svg" inkscape:version="1.2.2 (732a01da63, 2022-12-09)" xmlns:inkscape="http://www.inkscape.org/namespaces/inkscape" xmlns:sodipodi="http://sodipodi.sourceforge.net/DTD/sodipodi-0.dtd" xmlns="http://www.w3.org/2000/svg" xmlns:svg="http://www.w3.org/2000/svg"><defs id="defs8714" /><sodipodi:namedview id="namedview8712" pagecolor="#ffffff" bordercolor="#666666" borderopacity="1.0" inkscape:showpageshadow="2" inkscape:pageopacity="0.0" inkscape:pagecheckerboard="0" inkscape:deskcolor="#d1d1d1" showgrid="false" inkscape:zoom="2.2247475" inkscape:cx="305.65267" inkscape:cy="370.37911" inkscape:window-width="1920" inkscape:window-height="1009" inkscape:window-x="-8" inkscape:window-y="-8" inkscape:window-maximized="1" inkscape:current-layer="Version_1.0" />
<g id="octagon" display="none">
	
		<line id="mod2_1_" display="inline" fill="none" stroke="#0000ff" stroke-width="2" x1="203.966" y1="445.01501" x2="406.19901" y2="445.29501" />
	
		<line id="mod1_1_" display="inline" fill="none" stroke="#0000ff" stroke-width="2" x1="203.966" y1="346.98499" x2="406.19901" y2="346.70499" />
	<g id="outFrame" display="inline">
		<line fill="none" stroke="#0000ff" stroke-width="2" x1="220" y1="309.5" x2="306" y2="273" id="line8690" />
		<line fill="none" stroke="#0000ff" stroke-width="2" x1="306" y1="273" x2="390.5" y2="309.5" id="line8692" />
		<line fill="none" stroke="#0000ff" stroke-width="2" x1="390.5" y1="309.5" x2="427" y2="396" id="line8694" />
		<line fill="none" stroke="#0000ff" stroke-width="2" x1="427" y1="396" x2="390.5" y2="482.5" id="line8696" />
		<line fill="none" stroke="#0000ff" stroke-width="2" x1="390.5" y1="482.5" x2="306" y2="516" id="line8698" />
		<line fill="none" stroke="#0000ff" stroke-width="2" x1="306" y1="516" x2="220" y2="482.5" id="line8700" />
		<line fill="none" stroke="#0000ff" stroke-width="2" x1="220" y1="482.5" x2="183" y2="396" id="line8702" />
		<line fill="none" stroke="#0000ff" stroke-width="2" x1="183" y1="396" x2="220" y2="309.5" id="line8704" />
	</g>
</g>
<g id="main" opacity="0.93">
	
</g>
<g id="g9229"><path id="rect8833" style="fill:none;fill-rule:evenodd;stroke:#000000;stroke-width:7.42225" d="m 250,355 h 119.99952 l 9.6e-4,80 H 250 Z" sodipodi:nodetypes="ccccc" /><path style="fill:none;stroke:#000000;stroke-width:6;stroke-linecap:butt;stroke-linejoin:miter;stroke-opacity:1;stroke-dasharray:none" d="M 250,355 310,400.0454 370,355" id="path9198" sodipodi:nodetypes="ccc" /><path id="path9200" style="fill:none;stroke:#000000;stroke-width:6;stroke-linecap:butt;stroke-linejoin:miter;stroke-dasharray:none;stroke-opacity:1" d="M 298.10742,391.11719 253.5,435 h 113 L 321.89258,391.11719 310,400.04492 Z" sodipodi:nodetypes="cccccc" /></g><path id="rect10014" style="fill-rule:evenodd;stroke-width:0.962933" d="m 283.08963,371.86914 101.67537,-1.4e-4 -9e-5,6.039 -94.07491,4e-5 z" sodipodi:nodetypes="ccccc" /><rect style="fill:#000000;fill-opacity:1;fill-rule:evenodd;stroke:none;stroke-width:0.644879;stroke-dasharray:none;stroke-opacity:1" id="rect10016" width="45.601505" height="6.0389004" x="199.28372" y="371.86914" /><path style="fill:none;stroke:#000000;stroke-width:4;stroke-linecap:butt;stroke-linejoin:miter;stroke-dasharray:none;stroke-opacity:1" d="m 384.765,371.869 c 0,0 2.80415,-6.37256 11.38575,-6.84932 7.787,0.31784 11.05515,7.54766 16.1462,10.02783 -4.48264,3.06366 -6.27962,7.82225 -15.65581,7.98117 -6.4362,0.0795 -11.87614,-5.12068 -11.87614,-5.12068 z" id="path10019" sodipodi:nodetypes="cccccc" /></svg>
