<?xml version="1.0" encoding="UTF-8" standalone="no"?>
<!-- Generator: Adobe Illustrator 14.0.0, SVG Export Plug-In . SVG Version: 6.00 Build 43363)  -->

<svg version="1.1" id="Version_1.0" x="0px" y="0px" width="612px" height="792px" viewBox="0 0 612 792" enable-background="new 0 0 612 792" xml:space="preserve" sodipodi:docname="60160200.svg" inkscape:version="1.2.2 (732a01da63, 2022-12-09)" xmlns:inkscape="http://www.inkscape.org/namespaces/inkscape" xmlns:sodipodi="http://sodipodi.sourceforge.net/DTD/sodipodi-0.dtd" xmlns="http://www.w3.org/2000/svg" xmlns:svg="http://www.w3.org/2000/svg"><defs id="defs8569" /><sodipodi:namedview id="namedview8567" pagecolor="#ffffff" bordercolor="#666666" borderopacity="1.0" inkscape:showpageshadow="2" inkscape:pageopacity="0.0" inkscape:pagecheckerboard="0" inkscape:deskcolor="#d1d1d1" showgrid="false" inkscape:zoom="0.55618687" inkscape:cx="933.13961" inkscape:cy="318.23837" inkscape:window-width="1920" inkscape:window-height="1009" inkscape:window-x="-8" inkscape:window-y="-8" inkscape:window-maximized="1" inkscape:current-layer="Version_1.0" />
<g id="octagon" display="none">
	
		<line id="mod2_1_" display="inline" fill="none" stroke="#0000ff" stroke-width="2" x1="203.966" y1="445.01501" x2="406.19901" y2="445.29501" />
	
		<line id="mod1_1_" display="inline" fill="none" stroke="#0000ff" stroke-width="2" x1="203.966" y1="346.98499" x2="406.19901" y2="346.70499" />
	<g id="outFrame" display="inline">
		<line fill="none" stroke="#0000ff" stroke-width="2" x1="220" y1="309.5" x2="306" y2="273" id="line8545" />
		<line fill="none" stroke="#0000ff" stroke-width="2" x1="306" y1="273" x2="390.5" y2="309.5" id="line8547" />
		<line fill="none" stroke="#0000ff" stroke-width="2" x1="390.5" y1="309.5" x2="427" y2="396" id="line8549" />
		<line fill="none" stroke="#0000ff" stroke-width="2" x1="427" y1="396" x2="390.5" y2="482.5" id="line8551" />
		<line fill="none" stroke="#0000ff" stroke-width="2" x1="390.5" y1="482.5" x2="306" y2="516" id="line8553" />
		<line fill="none" stroke="#0000ff" stroke-width="2" x1="306" y1="516" x2="220" y2="482.5" id="line8555" />
		<line fill="none" stroke="#0000ff" stroke-width="2" x1="220" y1="482.5" x2="183" y2="396" id="line8557" />
		<line fill="none" stroke="#0000ff" stroke-width="2" x1="183" y1="396" x2="220" y2="309.5" id="line8559" />
	</g>
</g>
<g id="main" opacity="0.93">
	
</g>
<g id="g9229" transform="matrix(0.64,0,0,0.64,106.60096,159.70564)"><path id="rect8833" style="fill:none;fill-rule:evenodd;stroke:#000000;stroke-width:7.42225" d="m 302.34381,355 h 67.65571 l 9.6e-4,80 H 250 v -80 h 38.59381" sodipodi:nodetypes="cccccc" /><path style="fill:none;stroke:#000000;stroke-width:6;stroke-linecap:butt;stroke-linejoin:miter;stroke-dasharray:none;stroke-opacity:1" d="M 250,355 310,400.0454 370,355" id="path9198" sodipodi:nodetypes="ccc" /><path id="path9200" style="fill:none;stroke:#000000;stroke-width:6;stroke-linecap:butt;stroke-linejoin:miter;stroke-dasharray:none;stroke-opacity:1" d="M 298.10742,391.11719 253.5,435 h 113 L 321.89258,391.11719 310,400.04492 Z" sodipodi:nodetypes="cccccc" /></g><path style="fill:none;stroke:#000000;stroke-width:4;stroke-linecap:butt;stroke-linejoin:miter;stroke-dasharray:none;stroke-opacity:1" d="m 315.96297,390.43083 c 0.0386,2.64049 -4.17398,5.23234 -8.85309,5.19661 -7.14467,-0.0546 -12.4751,-8.97888 -12.4751,-8.97888 0,0 -0.79459,-8.42268 -2.54269,-11.28321 3.65512,2.06594 4.76755,2.22485 6.83349,4.76755 -3.17837,-0.79459 -4.76755,2.5427 -4.76755,2.5427" id="path10464" sodipodi:nodetypes="cscccc" /><path style="fill:none;stroke:#000000;stroke-width:4;stroke-linecap:butt;stroke-linejoin:miter;stroke-dasharray:none;stroke-opacity:1" d="m 305,352.095 v 11.431 c -0.15892,7.787 11.08844,13.34632 11.24769,19.78527" id="path10097" sodipodi:nodetypes="ccc" /></svg>
