<?xml version="1.0" encoding="UTF-8" standalone="no"?>
<!-- Generator: Adobe Illustrator 14.0.0, SVG Export Plug-In . SVG Version: 6.00 Build 43363)  -->

<svg version="1.1" id="Version_1.0" x="0px" y="0px" width="612px" height="792px" viewBox="0 0 612 792" enable-background="new 0 0 612 792" xml:space="preserve" sodipodi:docname="60170200.svg" inkscape:version="1.2.2 (732a01da63, 2022-12-09)" xmlns:inkscape="http://www.inkscape.org/namespaces/inkscape" xmlns:sodipodi="http://sodipodi.sourceforge.net/DTD/sodipodi-0.dtd" xmlns="http://www.w3.org/2000/svg" xmlns:svg="http://www.w3.org/2000/svg"><defs id="defs11081" /><sodipodi:namedview id="namedview11079" pagecolor="#ffffff" bordercolor="#666666" borderopacity="1.0" inkscape:showpageshadow="2" inkscape:pageopacity="0.0" inkscape:pagecheckerboard="0" inkscape:deskcolor="#d1d1d1" showgrid="false" inkscape:zoom="1.573134" inkscape:cx="157.64709" inkscape:cy="428.44411" inkscape:window-width="1920" inkscape:window-height="1009" inkscape:window-x="-8" inkscape:window-y="-8" inkscape:window-maximized="1" inkscape:current-layer="Version_1.0" />
<g id="octagon" display="none">
	
		<line id="mod2_1_" display="inline" fill="none" stroke="#0000ff" stroke-width="2" x1="203.966" y1="445.01501" x2="406.19901" y2="445.29501" />
	
		<line id="mod1_1_" display="inline" fill="none" stroke="#0000ff" stroke-width="2" x1="203.966" y1="346.98499" x2="406.19901" y2="346.70499" />
	<g id="outFrame" display="inline">
		<line fill="none" stroke="#0000ff" stroke-width="2" x1="220" y1="309.5" x2="306" y2="273" id="line11059" />
		<line fill="none" stroke="#0000ff" stroke-width="2" x1="306" y1="273" x2="390.5" y2="309.5" id="line11061" />
		<line fill="none" stroke="#0000ff" stroke-width="2" x1="390.5" y1="309.5" x2="427" y2="396" id="line11063" />
		<line fill="none" stroke="#0000ff" stroke-width="2" x1="427" y1="396" x2="390.5" y2="482.5" id="line11065" />
		<line fill="none" stroke="#0000ff" stroke-width="2" x1="390.5" y1="482.5" x2="306" y2="516" id="line11067" />
		<line fill="none" stroke="#0000ff" stroke-width="2" x1="306" y1="516" x2="220" y2="482.5" id="line11069" />
		<line fill="none" stroke="#0000ff" stroke-width="2" x1="220" y1="482.5" x2="183" y2="396" id="line11071" />
		<line fill="none" stroke="#0000ff" stroke-width="2" x1="183" y1="396" x2="220" y2="309.5" id="line11073" />
	</g>
</g>

<g id="main" opacity="0.93" transform="translate(-0.12169367,0.28208751)">
<g id="g11036"><path id="path11031" style="fill:none;fill-rule:evenodd;stroke:#000000;stroke-width:4" d="m 269.55623,373.03407 -0.0308,70.98351 h 71.19531 v -95.98633 l -46.22066,0.0309 z" sodipodi:nodetypes="cccccc" /><path style="fill:none;fill-rule:evenodd;stroke:#000000;stroke-width:4" d="M 295.676,346.34543 V 374.155 h -28.14692" id="rect11023" sodipodi:nodetypes="ccc" /></g><g id="g11804" transform="translate(0.12169367,-0.28208751)"><path id="path11380" style="fill:none;stroke:#000000;stroke-width:4;stroke-linecap:butt;stroke-linejoin:miter;stroke-dasharray:none;stroke-opacity:1" d="M 316.70508 399.74414 A 14 14 0 0 1 307.34766 403.37695 A 14 14 0 0 1 298.0625 399.81445 C 294.01962 403.94385 285 415.24347 285 434 L 330 434 C 330 416.13632 320.62272 404.02846 316.70508 399.74414 z " /><circle style="fill:none;fill-rule:evenodd;stroke:#000000;stroke-width:4;stroke-dasharray:none" id="path11797" cx="307.34827" cy="389.3772" r="14" /></g></g></svg>
