<?xml version="1.0" encoding="UTF-8" standalone="no"?>
<!-- Generator: Adobe Illustrator 14.0.0, SVG Export Plug-In . SVG Version: 6.00 Build 43363)  -->

<svg version="1.1" id="Version_1.0" x="0px" y="0px" width="612px" height="792px" viewBox="0 0 612 792" enable-background="new 0 0 612 792" xml:space="preserve" sodipodi:docname="60170100.svg" inkscape:version="1.2.2 (732a01da63, 2022-12-09)" xmlns:inkscape="http://www.inkscape.org/namespaces/inkscape" xmlns:sodipodi="http://sodipodi.sourceforge.net/DTD/sodipodi-0.dtd" xmlns="http://www.w3.org/2000/svg" xmlns:svg="http://www.w3.org/2000/svg"><defs id="defs11224" /><sodipodi:namedview id="namedview11222" pagecolor="#ffffff" bordercolor="#666666" borderopacity="1.0" inkscape:showpageshadow="2" inkscape:pageopacity="0.0" inkscape:pagecheckerboard="0" inkscape:deskcolor="#d1d1d1" showgrid="false" inkscape:zoom="1.573134" inkscape:cx="267.61865" inkscape:cy="504.08928" inkscape:window-width="1920" inkscape:window-height="1009" inkscape:window-x="-8" inkscape:window-y="-8" inkscape:window-maximized="1" inkscape:current-layer="Version_1.0" />
<g id="octagon" display="none">
	
		<line id="mod2_1_" display="inline" fill="none" stroke="#0000ff" stroke-width="2" x1="203.966" y1="445.01501" x2="406.19901" y2="445.29501" />
	
		<line id="mod1_1_" display="inline" fill="none" stroke="#0000ff" stroke-width="2" x1="203.966" y1="346.98499" x2="406.19901" y2="346.70499" />
	<g id="outFrame" display="inline">
		<line fill="none" stroke="#0000ff" stroke-width="2" x1="220" y1="309.5" x2="306" y2="273" id="line11202" />
		<line fill="none" stroke="#0000ff" stroke-width="2" x1="306" y1="273" x2="390.5" y2="309.5" id="line11204" />
		<line fill="none" stroke="#0000ff" stroke-width="2" x1="390.5" y1="309.5" x2="427" y2="396" id="line11206" />
		<line fill="none" stroke="#0000ff" stroke-width="2" x1="427" y1="396" x2="390.5" y2="482.5" id="line11208" />
		<line fill="none" stroke="#0000ff" stroke-width="2" x1="390.5" y1="482.5" x2="306" y2="516" id="line11210" />
		<line fill="none" stroke="#0000ff" stroke-width="2" x1="306" y1="516" x2="220" y2="482.5" id="line11212" />
		<line fill="none" stroke="#0000ff" stroke-width="2" x1="220" y1="482.5" x2="183" y2="396" id="line11214" />
		<line fill="none" stroke="#0000ff" stroke-width="2" x1="183" y1="396" x2="220" y2="309.5" id="line11216" />
	</g>
</g>
<g id="main" opacity="0.93">
</g>
<path style="fill:none;stroke:#000000;stroke-width:6;stroke-linecap:butt;stroke-linejoin:miter;stroke-dasharray:none;stroke-opacity:1" d="m 291.45641,424.478 v 20.49362" id="path12352" /><path style="fill:none;stroke:#000000;stroke-width:6;stroke-linecap:butt;stroke-linejoin:miter;stroke-dasharray:none;stroke-opacity:1" d="M 291.45641,347.3957 V 364.89" id="path12204" /><path id="rect11831" style="color:#000000;fill:#000000;fill-rule:evenodd;-inkscape-stroke:none" d="M 277 361.71875 C 268.85627 361.71875 262.21484 368.36213 262.21484 376.50586 L 262.21484 412.50586 C 262.21484 420.64959 268.85627 427.29297 277 427.29297 L 333 427.29297 C 341.14373 427.29297 347.78711 420.64959 347.78711 412.50586 L 347.78711 405.56055 L 342.21484 405.56055 L 342.21484 412.50586 C 342.21484 417.65809 338.15223 421.71875 333 421.71875 L 277 421.71875 C 271.84777 421.71875 267.78711 417.65809 267.78711 412.50586 L 267.78711 376.50586 C 267.78711 371.35361 271.84777 367.29297 277 367.29297 L 333 367.29297 C 338.15223 367.29297 342.21484 371.35361 342.21484 376.50586 L 342.21484 380.45117 L 347.78711 380.45117 L 347.78711 376.50586 C 347.78711 368.36213 341.14373 361.71875 333 361.71875 L 277 361.71875 z " /><path style="fill:none;stroke:#000000;stroke-width:6;stroke-linecap:butt;stroke-linejoin:miter;stroke-dasharray:none;stroke-opacity:1" d="m 313.45641,424.478 v 20.49362" id="path12354" /><path style="fill:none;stroke:#000000;stroke-width:6;stroke-linecap:butt;stroke-linejoin:miter;stroke-dasharray:none;stroke-opacity:1" d="M 313.45641,347.3957 V 364.89" id="path12356" /></svg>
