<?xml version="1.0" encoding="UTF-8" standalone="no"?>
<!-- Generator: Adobe Illustrator 14.0.0, SVG Export Plug-In . SVG Version: 6.00 Build 43363)  -->

<svg version="1.1" id="Version_1.0" x="0px" y="0px" width="600px" height="400px" viewBox="0 0 600 400" enable-background="new 0 0 600 400" xml:space="preserve" sodipodi:docname="60200200.svg" inkscape:version="1.2.2 (732a01da63, 2022-12-09)" xmlns:inkscape="http://www.inkscape.org/namespaces/inkscape" xmlns:sodipodi="http://sodipodi.sourceforge.net/DTD/sodipodi-0.dtd" xmlns="http://www.w3.org/2000/svg" xmlns:svg="http://www.w3.org/2000/svg"><defs id="defs4692" /><sodipodi:namedview id="namedview4690" pagecolor="#ffffff" bordercolor="#666666" borderopacity="1.0" inkscape:showpageshadow="2" inkscape:pageopacity="0.0" inkscape:pagecheckerboard="0" inkscape:deskcolor="#d1d1d1" showgrid="false" inkscape:zoom="1.573134" inkscape:cx="259.99056" inkscape:cy="160.18978" inkscape:window-width="1920" inkscape:window-height="1009" inkscape:window-x="-8" inkscape:window-y="-8" inkscape:window-maximized="1" inkscape:current-layer="Version_1.0" />


<rect style="fill:none;fill-rule:evenodd;stroke:#909090;stroke-width:3.91257;stroke-linecap:round;stroke-opacity:1" id="rect6972" width="131.06818" height="164.30939" x="90.825691" y="98.903259" rx="9.3176422" ry="9.335762" /><rect style="fill:none;fill-rule:evenodd;stroke:#909090;stroke-width:3.91257;stroke-linecap:round;stroke-opacity:1" id="rect6974" width="131.06818" height="164.30939" x="366.82568" y="98.903259" rx="9.3176422" ry="9.335762" /><rect style="fill:#ffffff;fill-opacity:1;fill-rule:evenodd;stroke:none;stroke-width:3.86993;stroke-linecap:round" id="rect7449" width="62.772785" height="12.713475" x="99.413559" y="92.183907" /><text xml:space="preserve" style="font-style:normal;font-weight:normal;font-size:14px;line-height:1.25;font-family:sans-serif;fill:#909090;fill-opacity:1;stroke:#909090;stroke-opacity:1" x="99.258087" y="103.63" id="text6978"><tspan sodipodi:role="line" id="tspan6976" x="99.258087" y="103.63">MODNET</tspan></text><g id="g7456" transform="translate(0,14)"><rect style="fill:#ffffff;fill-opacity:1;fill-rule:evenodd;stroke:none;stroke-width:3.78072;stroke-linecap:round" id="rect7451" width="59.912254" height="12.713475" x="379.38763" y="78.183907" /><text xml:space="preserve" style="font-style:normal;font-weight:normal;font-size:14px;line-height:1.25;font-family:sans-serif;fill:#909090;fill-opacity:1;stroke:#909090;stroke-opacity:1" x="379.49722" y="89.629997" id="text7032"><tspan sodipodi:role="line" id="tspan7030" x="379.49722" y="89.629997">BOBNET</tspan></text><path style="fill:none;stroke:#000000;stroke-width:8;stroke-linecap:butt;stroke-linejoin:miter;stroke-opacity:1;stroke-dasharray:none" d="m 188.33598,111.857 24.72191,25.621 H 378.02043 L 403.591,111.857" id="path9274" sodipodi:nodetypes="cccc" /><path style="fill:none;stroke:#000000;stroke-width:8;stroke-linecap:butt;stroke-linejoin:miter;stroke-opacity:1;stroke-dasharray:none" d="m 188.33598,213.6248 24.72191,-25.621 h 164.96254 l 25.57057,25.621" id="path9276" sodipodi:nodetypes="cccc" /><g aria-label="VPN" id="text9280" style="font-weight:bold;font-size:18px;line-height:1.25" transform="translate(-3.5959137,10.338252)"><path d="m 286.82458,101.01752 -4.77246,13.08691 h -3.77929 l -4.77246,-13.08691 h 3.54199 l 3.16406,9.19336 3.16406,-9.19336 z" id="path9282" /><path d="m 299.5072,105.14838 q 0,0.8789 -0.30762,1.72265 -0.30761,0.83496 -0.8789,1.40625 -0.78223,0.77344 -1.74902,1.16895 -0.95801,0.39551 -2.39063,0.39551 h -2.10059 v 4.26269 h -3.375 v -13.08691 h 5.55469 q 1.24805,0 2.10059,0.21972 0.86133,0.21094 1.52051,0.64161 0.79101,0.51855 1.2041,1.32714 0.42187,0.8086 0.42187,1.94239 z m -3.48926,0.0791 q 0,-0.55371 -0.29882,-0.94922 -0.29883,-0.4043 -0.69434,-0.5625 -0.52734,-0.21094 -1.02832,-0.22852 -0.50098,-0.0264 -1.33594,-0.0264 h -0.58008 v 3.91992 h 0.9668 q 0.86133,0 1.41504,-0.10547 0.5625,-0.10547 0.94043,-0.42188 0.3252,-0.28125 0.46582,-0.66796 0.14941,-0.39551 0.14941,-0.95801 z" id="path9284" /><path d="m 313.79822,114.10443 h -3.25196 l -5.55468,-8.98242 v 8.98242 h -3.09375 v -13.08691 h 4.03418 l 4.77246,7.49707 v -7.49707 h 3.09375 z" id="path9286" /></g></g></svg>
