<?xml version="1.0" encoding="UTF-8" standalone="no"?>
<!-- Generator: Adobe Illustrator 14.0.0, SVG Export Plug-In . SVG Version: 6.00 Build 43363)  -->

<svg version="1.1" id="Version_1.0" x="0px" y="0px" width="600px" height="400px" viewBox="0 0 600 400" enable-background="new 0 0 600 400" xml:space="preserve" sodipodi:docname="60200100.svg" inkscape:version="1.2.2 (732a01da63, 2022-12-09)" xmlns:inkscape="http://www.inkscape.org/namespaces/inkscape" xmlns:sodipodi="http://sodipodi.sourceforge.net/DTD/sodipodi-0.dtd" xmlns="http://www.w3.org/2000/svg" xmlns:svg="http://www.w3.org/2000/svg"><defs id="defs4835" /><sodipodi:namedview id="namedview4833" pagecolor="#ffffff" bordercolor="#666666" borderopacity="1.0" inkscape:showpageshadow="2" inkscape:pageopacity="0.0" inkscape:pagecheckerboard="0" inkscape:deskcolor="#d1d1d1" showgrid="false" inkscape:zoom="0.78656701" inkscape:cx="17.798865" inkscape:cy="255.54085" inkscape:window-width="1920" inkscape:window-height="1009" inkscape:window-x="-8" inkscape:window-y="-8" inkscape:window-maximized="1" inkscape:current-layer="Version_1.0" />


<g id="main" transform="translate(97.855743,28.098509)"><path style="fill:none;stroke:#000000;stroke-width:6;stroke-linecap:butt;stroke-linejoin:miter;stroke-dasharray:none;stroke-opacity:1" d="m 122.68503,150.65468 64.20305,-25.42695 50.8539,8.89943 42.59014,29.24099" id="path4970" /><g aria-label="C2" id="text5389" style="font-weight:bold;font-size:20px;line-height:1.25" transform="translate(-3.1783687,12.077801)"><path d="m 197.22284,108.34774 q -1.62109,0 -2.99805,-0.47852 -1.36719,-0.47851 -2.35351,-1.42578 -0.98633,-0.94726 -1.53321,-2.36328 -0.53711,-1.41601 -0.53711,-3.27148 0,-1.728518 0.51758,-3.134768 0.51758,-1.40625 1.50391,-2.412109 0.94726,-0.966797 2.34375,-1.494141 1.40625,-0.527344 3.0664,-0.527344 0.91797,0 1.6504,0.107422 0.74218,0.09766 1.36718,0.263672 0.6543,0.185547 1.18164,0.419922 0.53711,0.224609 0.9375,0.419922 v 3.52539 h -0.42968 q -0.27344,-0.234375 -0.69336,-0.55664 -0.41016,-0.322266 -0.9375,-0.634766 -0.53711,-0.3125 -1.16211,-0.527344 -0.625,-0.214843 -1.33789,-0.214843 -0.79102,0 -1.50391,0.253906 -0.71289,0.244141 -1.31836,0.820312 -0.57617,0.556641 -0.9375,1.47461 -0.35156,0.917969 -0.35156,2.226559 0,1.36719 0.38086,2.28516 0.39062,0.91797 0.97656,1.44531 0.5957,0.53711 1.32813,0.77149 0.73242,0.22461 1.44531,0.22461 0.68359,0 1.34765,-0.20508 0.67383,-0.20508 1.24024,-0.55664 0.47851,-0.28321 0.88867,-0.60547 0.41016,-0.32227 0.67383,-0.55664 h 0.39062 v 3.47656 q -0.54687,0.24414 -1.04492,0.45898 -0.49805,0.21485 -1.04492,0.3711 -0.71289,0.20508 -1.33789,0.3125 -0.625,0.10742 -1.71875,0.10742 z" id="path5391" /><path d="M 216.49042,108.06454 H 205.0744 v -2.40235 q 1.3086,-0.94726 2.61719,-2.01172 1.31836,-1.06445 2.10937,-1.83593 1.18164,-1.14258 1.67969,-1.99219 0.49805,-0.84961 0.49805,-1.679688 0,-0.996094 -0.64453,-1.533203 -0.63477,-0.546875 -1.83594,-0.546875 -0.89844,0 -1.89453,0.371094 -0.98633,0.371093 -1.83594,0.947265 h -0.3125 v -3.232422 q 0.69336,-0.302734 2.04102,-0.605468 1.35742,-0.302735 2.71484,-0.302735 2.73438,0 4.16992,1.152344 1.43555,1.142578 1.43555,3.242188 0,1.376953 -0.69336,2.61719 -0.68359,1.24023 -2.09961,2.55859 -0.88867,0.82031 -1.78711,1.51367 -0.89844,0.6836 -1.2793,0.95703 h 6.53321 z" id="path5393" /></g><g id="g6815"><circle style="fill:#80e0ff;fill-opacity:1;fill-rule:evenodd;stroke:#000000;stroke-width:4;stroke-linecap:round" id="path4966" cx="73.420319" cy="178.30649" r="55" /><g id="main-2" transform="matrix(0.5,0,0,0.5,-83.335641,-19.699442)"><rect style="fill:#e1e1e1;fill-opacity:1;fill-rule:evenodd;stroke:#bababa;stroke-width:6.19731;stroke-opacity:1" id="rect16053" width="119.80269" height="74.802689" x="253.61058" y="351.59924" ry="6.4116592" rx="5.9901347" /><path id="rect17174" style="fill:#bababa;fill-opacity:1;fill-rule:evenodd;stroke-width:0.5" d="m 240.51192,431.52313 h 146 c 0,0 0.0119,9.13947 -9.99997,12 h -126 c -9.85294,-3.17837 -10.00003,-12 -10.00003,-12 z" sodipodi:nodetypes="ccccc" /><rect style="fill:#e1e1e1;fill-opacity:1;fill-rule:evenodd;stroke:none;stroke-width:0.529458;stroke-dasharray:none;stroke-opacity:1" id="rect17546" width="20" height="4" x="303.51193" y="435.52313" /><rect style="fill:#e1e1e1;fill-opacity:1;fill-rule:evenodd;stroke:#bababa;stroke-width:6.19731;stroke-opacity:1" id="rect6437" width="119.80269" height="74.802689" x="253.61058" y="351.59924" ry="6.4116592" rx="5.9901347" /></g></g><g id="g6807"><circle style="fill:#80e0ff;fill-opacity:1;fill-rule:evenodd;stroke:#000000;stroke-width:4;stroke-linecap:round" id="circle4968" cx="330.86819" cy="181.48486" r="55" /><g id="main-6" transform="matrix(0.39,0,0,0.39,211.88829,30.982246)"><circle style="fill:none;fill-rule:evenodd;stroke:#bababa;stroke-width:11.5385;stroke-dasharray:none;stroke-opacity:1" id="path18656" cx="304.75369" cy="386.11124" r="24" /><g id="g1991" transform="matrix(0,0.38134865,-0.71756815,0,560.33225,290.50518)" style="stroke:#bababa;stroke-width:2.45083;stroke-dasharray:none;stroke-opacity:1"><path style="color:#000000;fill:#bababa;fill-opacity:1;stroke:#bababa;stroke-width:2.45083;stroke-dasharray:none;stroke-opacity:1" d="m 249.91602,315.93555 v 10 h 109.98546 v -10 z" id="path1967" /><path style="color:#000000;fill:#bababa;fill-opacity:1;fill-rule:evenodd;stroke:#bababa;stroke-width:2.45083;stroke-dasharray:none;stroke-opacity:1" d="m 342.39027,298.40584 v 45.05942 l 35.93945,-22.5297 c -0.01,-0.006 -35.93945,-22.52972 -35.93945,-22.52972 z" id="path1965" sodipodi:nodetypes="cccc" /></g><g id="g18628" transform="matrix(0,-0.38134865,-0.71756815,0,509.68971,481.28919)" style="stroke:#bababa;stroke-width:2.45083;stroke-dasharray:none;stroke-opacity:1"><path style="color:#000000;fill:#bababa;fill-opacity:1;stroke:#bababa;stroke-width:2.45083;stroke-dasharray:none;stroke-opacity:1" d="m 249.91602,315.93555 v 10 h 109.98546 v -10 z" id="path18624" /><path style="color:#000000;fill:#bababa;fill-opacity:1;fill-rule:evenodd;stroke:#bababa;stroke-width:2.45083;stroke-dasharray:none;stroke-opacity:1" d="m 342.39027,298.40584 v 45.05942 l 35.93945,-22.5297 z" id="path18626" sodipodi:nodetypes="cccc" /></g><g id="g18634" transform="matrix(0.38134865,0,0,-0.71756815,210.24359,591.0785)" style="stroke:#bababa;stroke-width:2.45083;stroke-dasharray:none;stroke-opacity:1"><path style="color:#000000;fill:#bababa;fill-opacity:1;stroke:#bababa;stroke-width:2.45083;stroke-dasharray:none;stroke-opacity:1" d="m 249.91602,315.93555 v 10 h 109.98546 v -10 z" id="path18630" /><path style="color:#000000;fill:#bababa;fill-opacity:1;fill-rule:evenodd;stroke:#bababa;stroke-width:2.45083;stroke-dasharray:none;stroke-opacity:1" d="m 342.39027,298.40584 v 45.05942 l 35.93945,-22.5297 c -0.22434,-0.41463 -35.93945,-22.52972 -35.93945,-22.52972 z" id="path18632" sodipodi:nodetypes="cccc" /></g><g id="g18646" transform="matrix(-0.38134865,0,0,-0.71756815,400.1698,641.73619)" style="stroke:#bababa;stroke-width:2.45083;stroke-dasharray:none;stroke-opacity:1"><path style="color:#000000;fill:#bababa;fill-opacity:1;stroke:#bababa;stroke-width:2.45083;stroke-dasharray:none;stroke-opacity:1" d="m 249.91602,315.93555 v 10 h 109.98546 v -10 z" id="path18642" /><path style="color:#000000;fill:#bababa;fill-opacity:1;fill-rule:evenodd;stroke:#bababa;stroke-width:2.45083;stroke-dasharray:none;stroke-opacity:1" d="m 342.39027,298.40584 v 45.05942 l 35.93945,-22.5297 c -11.97819,-7.51297 -35.29286,-22.24806 -35.93945,-22.52972 z" id="path18644" sodipodi:nodetypes="cccc" /></g></g></g></g></svg>
