<?xml version="1.0" encoding="UTF-8" standalone="no"?>
<!-- Generator: Adobe Illustrator 14.0.0, SVG Export Plug-In . SVG Version: 6.00 Build 43363)  -->

<svg version="1.1" id="Version_1.0" x="0px" y="0px" width="612px" height="792px" viewBox="0 0 612 792" enable-background="new 0 0 612 792" xml:space="preserve" sodipodi:docname="64180600.svg" inkscape:version="1.2.2 (732a01da63, 2022-12-09)" xmlns:inkscape="http://www.inkscape.org/namespaces/inkscape" xmlns:sodipodi="http://sodipodi.sourceforge.net/DTD/sodipodi-0.dtd" xmlns="http://www.w3.org/2000/svg" xmlns:svg="http://www.w3.org/2000/svg"><defs id="defs175" /><sodipodi:namedview id="namedview173" pagecolor="#ffffff" bordercolor="#666666" borderopacity="1.0" inkscape:showpageshadow="2" inkscape:pageopacity="0.0" inkscape:pagecheckerboard="0" inkscape:deskcolor="#d1d1d1" showgrid="false" inkscape:zoom="1.1123737" inkscape:cx="266.99659" inkscape:cy="355.99546" inkscape:window-width="1920" inkscape:window-height="1009" inkscape:window-x="-8" inkscape:window-y="-8" inkscape:window-maximized="1" inkscape:current-layer="Version_1.0" />
<g id="octagon" display="none">
	
		<line id="mod2_1_" display="inline" fill="none" stroke="#0000ff" stroke-width="2" x1="203.966" y1="445.01501" x2="406.19901" y2="445.29501" />
	
		<line id="mod1_1_" display="inline" fill="none" stroke="#0000ff" stroke-width="2" x1="203.966" y1="346.98499" x2="406.19901" y2="346.70499" />
	<g id="outFrame" display="inline">
		<line fill="none" stroke="#0000ff" stroke-width="2" x1="220" y1="309.5" x2="306" y2="273" id="line153" />
		<line fill="none" stroke="#0000ff" stroke-width="2" x1="306" y1="273" x2="390.5" y2="309.5" id="line155" />
		<line fill="none" stroke="#0000ff" stroke-width="2" x1="390.5" y1="309.5" x2="427" y2="396" id="line157" />
		<line fill="none" stroke="#0000ff" stroke-width="2" x1="427" y1="396" x2="390.5" y2="482.5" id="line159" />
		<line fill="none" stroke="#0000ff" stroke-width="2" x1="390.5" y1="482.5" x2="306" y2="516" id="line161" />
		<line fill="none" stroke="#0000ff" stroke-width="2" x1="306" y1="516" x2="220" y2="482.5" id="line163" />
		<line fill="none" stroke="#0000ff" stroke-width="2" x1="220" y1="482.5" x2="183" y2="396" id="line165" />
		<line fill="none" stroke="#0000ff" stroke-width="2" x1="183" y1="396" x2="220" y2="309.5" id="line167" />
	</g>
</g>

<g aria-label="IOT" id="main" style="font-size:80px;line-height:1.25"><path d="m 244.70786,424.79518 c -1.0573,0.0324 -4.80613,0.004 -4.8,-7.125 v -55.54689 c -2.2e-4,-7.14718 3.87776,-7.07607 4.8,-7.125 0.92225,-0.049 4.82778,0.0904 4.80015,7.125 v 55.54689 c -0.0323,7.05026 -3.74284,7.09256 -4.80015,7.125 z" id="path558" sodipodi:nodetypes="zcczccz" style="stroke-width:1.2" /><path d="m 381.44551,363.25194 h -24.9375 v 61.54689 c -1.7481,3.49621 -6.73857,3.49621 -9.28126,0 v -61.54689 h -24.9375 c -2.70161,-1.43027 -2.54269,-6.5019 0,-8.25 h 59.15626 c 3.17837,2.70161 2.86053,6.34298 0,8.25 z" id="path562" style="stroke-width:1.2" sodipodi:nodetypes="ccccccccc" /><g id="g720"><path id="path560" style="stroke-width:1.04882" d="m 271.17188,372.10352 c -2.63546,2.68229 -4.64061,5.91146 -6.01563,9.6875 -1.37502,3.74999 -2.0625,7.99479 -2.0625,12.73437 0,4.8177 0.68748,9.10157 2.0625,12.85156 1.40367,3.75 3.3945,6.91407 5.97266,9.49219 2.57816,2.57812 5.70047,4.54427 9.36718,5.89844 3.69537,1.35416 7.79161,2.03125 12.28907,2.03125 4.61204,0 8.70828,-0.66407 12.28906,-1.99219 3.60942,-1.32812 6.73174,-3.3073 9.36719,-5.9375 2.54952,-2.52604 4.52602,-5.67709 5.92968,-9.45312 1.43231,-3.80208 2.14844,-8.09897 2.14844,-12.89063 0,-4.79166 -0.7018,-9.07552 -2.10547,-12.85156 -1.37502,-3.77604 -3.36584,-6.96615 -5.97265,-9.57031 -2.32818,-2.30674 -5.123,-4.12362 -8.38282,-5.45313 -4.41569,0.49013 -5.6256,3.34935 -2.98437,6.5293 1.87719,0.98053 3.54851,2.27241 5.00781,3.88476 3.72401,4.08854 5.58594,9.90886 5.58594,17.46094 0,7.6302 -1.89057,13.47657 -5.67188,17.53906 -3.75265,4.03646 -8.8085,6.05469 -15.16797,6.05469 -6.35946,0 -11.42963,-2.01823 -15.21093,-6.05469 -3.78131,-4.06249 -5.67188,-9.90886 -5.67188,-17.53906 0,-7.55208 1.84761,-13.3724 5.54297,-17.46094 1.75019,-1.93374 3.81186,-3.4067 6.17578,-4.43164 3.0512,-3.55413 1.38275,-5.93571 -2.50781,-6.29883 -3.69552,0.75994 -7.66918,3.46764 -9.98437,5.76954 z" sodipodi:nodetypes="ccscscscccscccccscscscccc" /><path d="m 292.80652,391.89966 c -0.88109,0.0183 -4.00511,0.002 -4,-4.03353 v -31.44561 c -1.9e-4,-4.04609 3.23146,-4.00583 4,-4.03353 0.76854,-0.0277 4.02315,0.0512 4.00012,4.03353 v 31.44561 c -0.0269,3.99122 -3.11903,4.01517 -4.00012,4.03353 z" id="path716" sodipodi:nodetypes="zcczccz" style="stroke-width:0.824216" /></g></g></svg>
