<?xml version="1.0" encoding="UTF-8" standalone="no"?>
<!-- Generator: Adobe Illustrator 14.0.0, SVG Export Plug-In . SVG Version: 6.00 Build 43363)  -->

<svg version="1.1" id="Version_1.0" x="0px" y="0px" width="612px" height="792px" viewBox="0 0 612 792" enable-background="new 0 0 612 792" xml:space="preserve" sodipodi:docname="64180900.svg" inkscape:version="1.2.2 (732a01da63, 2022-12-09)" xmlns:inkscape="http://www.inkscape.org/namespaces/inkscape" xmlns:sodipodi="http://sodipodi.sourceforge.net/DTD/sodipodi-0.dtd" xmlns="http://www.w3.org/2000/svg" xmlns:svg="http://www.w3.org/2000/svg"><defs id="defs26" /><sodipodi:namedview id="namedview24" pagecolor="#ffffff" bordercolor="#666666" borderopacity="1.0" inkscape:showpageshadow="2" inkscape:pageopacity="0.0" inkscape:pagecheckerboard="0" inkscape:deskcolor="#d1d1d1" showgrid="false" inkscape:zoom="0.25" inkscape:cx="-652" inkscape:cy="868" inkscape:window-width="1920" inkscape:window-height="1009" inkscape:window-x="-8" inkscape:window-y="-8" inkscape:window-maximized="1" inkscape:current-layer="Version_1.0" />
<g id="octagon" display="none">
	
		<line id="mod2_1_" display="inline" fill="none" stroke="#0000ff" stroke-width="2" x1="203.966" y1="445.01501" x2="406.19901" y2="445.29501" />
	
		<line id="mod1_1_" display="inline" fill="none" stroke="#0000ff" stroke-width="2" x1="203.966" y1="346.98499" x2="406.19901" y2="346.70499" />
	<g id="outFrame" display="inline">
		<line fill="none" stroke="#0000ff" stroke-width="2" x1="220" y1="309.5" x2="306" y2="273" id="line4" />
		<line fill="none" stroke="#0000ff" stroke-width="2" x1="306" y1="273" x2="390.5" y2="309.5" id="line6" />
		<line fill="none" stroke="#0000ff" stroke-width="2" x1="390.5" y1="309.5" x2="427" y2="396" id="line8" />
		<line fill="none" stroke="#0000ff" stroke-width="2" x1="427" y1="396" x2="390.5" y2="482.5" id="line10" />
		<line fill="none" stroke="#0000ff" stroke-width="2" x1="390.5" y1="482.5" x2="306" y2="516" id="line12" />
		<line fill="none" stroke="#0000ff" stroke-width="2" x1="306" y1="516" x2="220" y2="482.5" id="line14" />
		<line fill="none" stroke="#0000ff" stroke-width="2" x1="220" y1="482.5" x2="183" y2="396" id="line16" />
		<line fill="none" stroke="#0000ff" stroke-width="2" x1="183" y1="396" x2="220" y2="309.5" id="line18" />
	</g>
</g>

<g id="main" transform="matrix(0.78,0,0,0.78,67.041157,93.500405)"><circle style="fill:none;fill-rule:evenodd;stroke:#000000;stroke-width:11.5385;stroke-dasharray:none;stroke-opacity:1" id="path18656" cx="304.75369" cy="386.11124" r="24" /><g id="g1991" transform="matrix(0,0.38134865,-0.71756815,0,560.33225,290.50518)" style="stroke:#000000;stroke-width:2.45083;stroke-dasharray:none;stroke-opacity:1"><path style="color:#000000;fill:#000000;stroke:#000000;stroke-width:2.45083;stroke-dasharray:none;stroke-opacity:1" d="m 249.91602,315.93555 v 10 h 109.98546 v -10 z" id="path1967" /><path style="color:#000000;fill:#000000;fill-rule:evenodd;stroke:#000000;stroke-width:2.45083;stroke-dasharray:none;stroke-opacity:1" d="m 342.39027,298.40584 v 45.05942 l 35.93945,-22.5297 c -0.01,-0.006 -35.93945,-22.52972 -35.93945,-22.52972 z" id="path1965" sodipodi:nodetypes="cccc" /></g><g id="g18628" transform="matrix(0,-0.38134865,-0.71756815,0,509.68971,481.28919)" style="stroke:#000000;stroke-width:2.45083;stroke-dasharray:none;stroke-opacity:1"><path style="color:#000000;fill:#000000;stroke:#000000;stroke-width:2.45083;stroke-dasharray:none;stroke-opacity:1" d="m 249.91602,315.93555 v 10 h 109.98546 v -10 z" id="path18624" /><path style="color:#000000;fill:#000000;fill-rule:evenodd;stroke:#000000;stroke-width:2.45083;stroke-dasharray:none;stroke-opacity:1" d="m 342.39027,298.40584 v 45.05942 l 35.93945,-22.5297 z" id="path18626" sodipodi:nodetypes="cccc" /></g><g id="g18634" transform="matrix(0.38134865,0,0,-0.71756815,210.24359,591.0785)" style="stroke:#000000;stroke-width:2.45083;stroke-dasharray:none;stroke-opacity:1"><path style="color:#000000;fill:#000000;stroke:#000000;stroke-width:2.45083;stroke-dasharray:none;stroke-opacity:1" d="m 249.91602,315.93555 v 10 h 109.98546 v -10 z" id="path18630" /><path style="color:#000000;fill:#000000;fill-rule:evenodd;stroke:#000000;stroke-width:2.45083;stroke-dasharray:none;stroke-opacity:1" d="m 342.39027,298.40584 v 45.05942 l 35.93945,-22.5297 c -0.22434,-0.41463 -35.93945,-22.52972 -35.93945,-22.52972 z" id="path18632" sodipodi:nodetypes="cccc" /></g><g id="g18646" transform="matrix(-0.38134865,0,0,-0.71756815,400.1698,641.73619)" style="stroke:#000000;stroke-width:2.45083;stroke-dasharray:none;stroke-opacity:1"><path style="color:#000000;fill:#000000;stroke:#000000;stroke-width:2.45083;stroke-dasharray:none;stroke-opacity:1" d="m 249.91602,315.93555 v 10 h 109.98546 v -10 z" id="path18642" /><path style="color:#000000;fill:#000000;fill-rule:evenodd;stroke:#000000;stroke-width:2.45083;stroke-dasharray:none;stroke-opacity:1" d="m 342.39027,298.40584 v 45.05942 l 35.93945,-22.5297 c -11.97819,-7.51297 -35.29286,-22.24806 -35.93945,-22.52972 z" id="path18644" sodipodi:nodetypes="cccc" /></g></g></svg>
