<?xml version="1.0" encoding="UTF-8" standalone="no"?>
<!-- Generator: Adobe Illustrator 14.0.0, SVG Export Plug-In . SVG Version: 6.00 Build 43363)  -->

<svg version="1.1" id="Version_1.0" x="0px" y="0px" width="612px" height="792px" viewBox="0 0 612 792" enable-background="new 0 0 612 792" xml:space="preserve" sodipodi:docname="64190100.svg" inkscape:version="1.2.2 (732a01da63, 2022-12-09)" xmlns:inkscape="http://www.inkscape.org/namespaces/inkscape" xmlns:sodipodi="http://sodipodi.sourceforge.net/DTD/sodipodi-0.dtd" xmlns="http://www.w3.org/2000/svg" xmlns:svg="http://www.w3.org/2000/svg"><defs id="defs318" /><sodipodi:namedview id="namedview316" pagecolor="#ffffff" bordercolor="#666666" borderopacity="1.0" inkscape:showpageshadow="2" inkscape:pageopacity="0.0" inkscape:pagecheckerboard="0" inkscape:deskcolor="#d1d1d1" showgrid="false" inkscape:zoom="1.573134" inkscape:cx="376.95453" inkscape:cy="403.01716" inkscape:window-width="1920" inkscape:window-height="1009" inkscape:window-x="-8" inkscape:window-y="-8" inkscape:window-maximized="1" inkscape:current-layer="main" />
<g id="octagon" display="none">
	
		<line id="mod2_1_" display="inline" fill="none" stroke="#0000ff" stroke-width="2" x1="203.966" y1="445.01501" x2="406.19901" y2="445.29501" />
	
		<line id="mod1_1_" display="inline" fill="none" stroke="#0000ff" stroke-width="2" x1="203.966" y1="346.98499" x2="406.19901" y2="346.70499" />
	<g id="outFrame" display="inline">
		<line fill="none" stroke="#0000ff" stroke-width="2" x1="220" y1="309.5" x2="306" y2="273" id="line296" />
		<line fill="none" stroke="#0000ff" stroke-width="2" x1="306" y1="273" x2="390.5" y2="309.5" id="line298" />
		<line fill="none" stroke="#0000ff" stroke-width="2" x1="390.5" y1="309.5" x2="427" y2="396" id="line300" />
		<line fill="none" stroke="#0000ff" stroke-width="2" x1="427" y1="396" x2="390.5" y2="482.5" id="line302" />
		<line fill="none" stroke="#0000ff" stroke-width="2" x1="390.5" y1="482.5" x2="306" y2="516" id="line304" />
		<line fill="none" stroke="#0000ff" stroke-width="2" x1="306" y1="516" x2="220" y2="482.5" id="line306" />
		<line fill="none" stroke="#0000ff" stroke-width="2" x1="220" y1="482.5" x2="183" y2="396" id="line308" />
		<line fill="none" stroke="#0000ff" stroke-width="2" x1="183" y1="396" x2="220" y2="309.5" id="line310" />
	</g>
</g>
<g id="main" opacity="0.93">
<path style="fill:none;stroke:#020000;stroke-width:6.24;stroke-linecap:butt;stroke-linejoin:miter;stroke-dasharray:none;stroke-opacity:1" d="m 273.61534,411.97542 32.22865,29.74953 47.84717,-46.6076 c 5.9499,-16.11433 6.56978,-26.15471 -5.45408,-37.68274 -12.02387,-11.52803 -33.22031,-11.89981 -43.88056,8.42904 -10.16443,-18.34555 -29.49406,-19.59161 -41.89726,-8.92486 -12.4032,10.66675 -12.64355,30.74104 -5.70199,39.17007 h 30.74118 l 7.6853,-13.88297 9.9165,26.27875 10.16443,-15.3707 h 22.31215" id="path2606" sodipodi:nodetypes="ccczczcccccc" /></g>
</svg>
