<?xml version="1.0" encoding="UTF-8" standalone="no"?>
<!-- Generator: Adobe Illustrator 14.0.0, SVG Export Plug-In . SVG Version: 6.00 Build 43363)  -->

<svg version="1.1" id="Version_1.0" x="0px" y="0px" width="612px" height="792px" viewBox="0 0 612 792" enable-background="new 0 0 612 792" xml:space="preserve" sodipodi:docname="64190200.svg" inkscape:version="1.2.2 (732a01da63, 2022-12-09)" xmlns:inkscape="http://www.inkscape.org/namespaces/inkscape" xmlns:sodipodi="http://sodipodi.sourceforge.net/DTD/sodipodi-0.dtd" xmlns="http://www.w3.org/2000/svg" xmlns:svg="http://www.w3.org/2000/svg"><defs id="defs461" /><sodipodi:namedview id="namedview459" pagecolor="#ffffff" bordercolor="#666666" borderopacity="1.0" inkscape:showpageshadow="2" inkscape:pageopacity="0.0" inkscape:pagecheckerboard="0" inkscape:deskcolor="#d1d1d1" showgrid="false" inkscape:zoom="1.1123737" inkscape:cx="177.09875" inkscape:cy="480.05448" inkscape:window-width="1920" inkscape:window-height="1009" inkscape:window-x="-8" inkscape:window-y="-8" inkscape:window-maximized="1" inkscape:current-layer="Version_1.0" />
<g id="octagon" display="none">
	
		<line id="mod2_1_" display="inline" fill="none" stroke="#0000ff" stroke-width="2" x1="203.966" y1="445.01501" x2="406.19901" y2="445.29501" />
	
		<line id="mod1_1_" display="inline" fill="none" stroke="#0000ff" stroke-width="2" x1="203.966" y1="346.98499" x2="406.19901" y2="346.70499" />
	<g id="outFrame" display="inline">
		<line fill="none" stroke="#0000ff" stroke-width="2" x1="220" y1="309.5" x2="306" y2="273" id="line439" />
		<line fill="none" stroke="#0000ff" stroke-width="2" x1="306" y1="273" x2="390.5" y2="309.5" id="line441" />
		<line fill="none" stroke="#0000ff" stroke-width="2" x1="390.5" y1="309.5" x2="427" y2="396" id="line443" />
		<line fill="none" stroke="#0000ff" stroke-width="2" x1="427" y1="396" x2="390.5" y2="482.5" id="line445" />
		<line fill="none" stroke="#0000ff" stroke-width="2" x1="390.5" y1="482.5" x2="306" y2="516" id="line447" />
		<line fill="none" stroke="#0000ff" stroke-width="2" x1="306" y1="516" x2="220" y2="482.5" id="line449" />
		<line fill="none" stroke="#0000ff" stroke-width="2" x1="220" y1="482.5" x2="183" y2="396" id="line451" />
		<line fill="none" stroke="#0000ff" stroke-width="2" x1="183" y1="396" x2="220" y2="309.5" id="line453" />
	</g>
</g>

<g id="main" transform="matrix(0.76,0,0,0.76,94.057602,130.77302)"><path style="fill:none;stroke:#000000;stroke-width:6;stroke-linecap:butt;stroke-linejoin:miter;stroke-dasharray:none;stroke-opacity:1" d="M 223.916,406.19637 V 352.164 l 12.472,-4.115 -9.13464,-55.003 23.04318,-5.404 c 1.7481,11.44213 11.43911,24.07649 26.06262,24.15597 14.62351,0.0795 26.53938,-12.39601 28.12856,-24.15597 l 22.88426,5.404 -8.06398,55.003 11.56019,4.115 0.31783,54.03152 c -21.13615,8.26376 -85.97495,8.10569 -107.27002,8.5e-4 z" id="path2659" sodipodi:nodetypes="ccccczcccccc" /><rect style="fill:none;fill-rule:evenodd;stroke:#000000;stroke-width:4;stroke-dasharray:none;stroke-opacity:1" id="rect3076" width="49.21907" height="26.969353" x="252.83769" y="330.82407" /><rect style="fill:#000000;fill-opacity:1;fill-rule:evenodd;stroke:none;stroke-width:4.28782;stroke-dasharray:none;stroke-opacity:1" id="rect3130" width="23.261066" height="9.4392729" x="226.43019" y="364.19864" /><rect style="fill:#000000;fill-opacity:1;fill-rule:evenodd;stroke:none;stroke-width:4.28782;stroke-dasharray:none;stroke-opacity:1" id="rect3184" width="23.261066" height="9.4392729" x="226.43019" y="386.19864" /><rect style="fill:#000000;fill-opacity:1;fill-rule:evenodd;stroke:none;stroke-width:4.28782;stroke-dasharray:none;stroke-opacity:1" id="rect3186" width="23.261066" height="9.4392729" x="304.92999" y="386.19864" /><rect style="fill:#000000;fill-opacity:1;fill-rule:evenodd;stroke:none;stroke-width:4.28782;stroke-dasharray:none;stroke-opacity:1" id="rect3188" width="23.261066" height="9.4392729" x="304.92999" y="364.19864" /><rect style="fill:#000000;fill-opacity:1;fill-rule:evenodd;stroke:none;stroke-width:2.02558;stroke-dasharray:none;stroke-opacity:1" id="rect3190" width="7" height="7" x="260.6553" y="343.72192" /><rect style="fill:#000000;fill-opacity:1;fill-rule:evenodd;stroke:none;stroke-width:2.02558;stroke-dasharray:none;stroke-opacity:1" id="rect3192" width="7" height="7" x="273.95514" y="343.72192" /><rect style="fill:#000000;fill-opacity:1;fill-rule:evenodd;stroke:none;stroke-width:2.02558;stroke-dasharray:none;stroke-opacity:1" id="rect3194" width="7" height="7" x="287.255" y="343.72192" /></g></svg>
