<?xml version="1.0" encoding="UTF-8" standalone="no"?>
<!-- Created with Inkscape (http://www.inkscape.org/) -->
<svg width="612" height="792" viewBox="0 0 612 792" version="1.1" id="svg5" xml:space="preserve" inkscape:version="1.2.2 (732a01da63, 2022-12-09)" sodipodi:docname="375.svg" xmlns:inkscape="http://www.inkscape.org/namespaces/inkscape" xmlns:sodipodi="http://sodipodi.sourceforge.net/DTD/sodipodi-0.dtd" xmlns="http://www.w3.org/2000/svg" xmlns:svg="http://www.w3.org/2000/svg">
	<sodipodi:namedview id="namedview7" pagecolor="#ffffff" bordercolor="#666666" borderopacity="1.0" inkscape:showpageshadow="2" inkscape:pageopacity="0.0" inkscape:pagecheckerboard="0" inkscape:deskcolor="#d1d1d1" inkscape:document-units="mm" showgrid="false" inkscape:zoom="1.0771772" inkscape:cx="169.88848" inkscape:cy="373.19765" inkscape:window-width="1920" inkscape:window-height="1009" inkscape:window-x="1912" inkscape:window-y="-8" inkscape:window-maximized="1" inkscape:current-layer="octagon"/>
	<defs id="defs2">
		<inkscape:path-effect effect="fill_between_many" method="originald" linkedpaths="#path17250,0,1" id="path-effect23551"/>
		<inkscape:path-effect effect="fill_between_many" method="originald" linkedpaths="#path1502,0,1|" id="path-effect1504"/>
	</defs>
	<g display="none" id="octagon">
		<polygon id="octagonOutline" points="305,516.5 218.733,480.768 183,394.5 218.733,308.233 305,272.5    391.268,308.233 427,394.5 391.268,480.768  " stroke-width="2" stroke="#0000FF" fill="none"/>
		<line id="mod1" y2="345.7" x2="407.5" y1="345.7" x1="202.5" stroke-width="2" stroke="#0000FF" fill="none"/>
		<line id="mod2" y2="443.3" x2="407.5" y1="443.3" x1="202.5" stroke-width="2" stroke="#0000FF" fill="none"/>
		<path d="m 179.56,317.5 126.44,-73 127.44223,72.99999 m -253.88223,0 v 0 -80.26865 0 h 253.88223 v 80.26865 0" style="fill:none;stroke:#0000ff;stroke-width:1.999;stroke-linecap:butt;stroke-linejoin:miter;stroke-miterlimit:4;stroke-dasharray:none;stroke-opacity:1" id="amplifierD"/>
		<rect y="150.52045" x="441.47321" height="97.589767" width="168.22823" id="amplifierAC" style="fill:none;fill-opacity:1;stroke:#0000ff;stroke-width:1.99172;stroke-linecap:round;stroke-linejoin:miter;stroke-miterlimit:4;stroke-dasharray:none;stroke-opacity:1;paint-order:markers fill stroke"/>
		<rect style="fill:none;fill-opacity:1;stroke:#0000ff;stroke-width:1.99172;stroke-linecap:round;stroke-linejoin:miter;stroke-miterlimit:4;stroke-dasharray:none;stroke-opacity:1;paint-order:markers fill stroke" id="amplifierG" width="168.22823" height="97.589767" x="441.47321" y="248.11023"/>
		<rect y="345.70001" x="441.47321" height="97.589767" width="168.22823" id="amplifierH" style="fill:none;fill-opacity:1;stroke:#0000ff;stroke-width:1.99172;stroke-linecap:round;stroke-linejoin:miter;stroke-miterlimit:4;stroke-dasharray:none;stroke-opacity:1;paint-order:markers fill stroke"/>
		<rect style="fill:none;fill-opacity:1;stroke:#0000ff;stroke-width:1.99172;stroke-linecap:round;stroke-linejoin:miter;stroke-miterlimit:4;stroke-dasharray:none;stroke-opacity:1;paint-order:markers fill stroke" id="amplifierM" width="168.22823" height="97.589767" x="441.47321" y="443.28979"/>
		<rect y="540.87958" x="441.47321" height="97.589767" width="168.22823" id="amplifierJKP" style="fill:none;fill-opacity:1;stroke:#0000ff;stroke-width:1.99172;stroke-linecap:round;stroke-linejoin:miter;stroke-miterlimit:4;stroke-dasharray:none;stroke-opacity:1;paint-order:markers fill stroke"/>
		<rect style="fill:none;fill-opacity:1;stroke:#0000ff;stroke-width:1.99172;stroke-linecap:round;stroke-linejoin:miter;stroke-miterlimit:4;stroke-dasharray:none;stroke-opacity:1;paint-order:markers fill stroke" id="amplifierW" width="168.22823" height="97.589767" x="2.8270514" y="150.52045"/>
		<rect y="248.11021" x="2.8270514" height="97.589767" width="168.22823" id="amplifierXY" style="fill:none;fill-opacity:1;stroke:#0000ff;stroke-width:1.99172;stroke-linecap:round;stroke-linejoin:miter;stroke-miterlimit:4;stroke-dasharray:none;stroke-opacity:1;paint-order:markers fill stroke"/>
		<rect style="fill:none;fill-opacity:1;stroke:#0000ff;stroke-width:1.99172;stroke-linecap:round;stroke-linejoin:miter;stroke-miterlimit:4;stroke-dasharray:none;stroke-opacity:1;paint-order:markers fill stroke" id="amplifierVAF" width="168.22823" height="97.589767" x="2.8270514" y="345.69998"/>
		<rect y="443.28973" x="2.8270514" height="97.589767" width="168.22823" id="amplifierT" style="fill:none;fill-opacity:1;stroke:#0000ff;stroke-width:1.99172;stroke-linecap:round;stroke-linejoin:miter;stroke-miterlimit:4;stroke-dasharray:none;stroke-opacity:1;paint-order:markers fill stroke"/>
		<rect style="fill:none;fill-opacity:1;stroke:#0000ff;stroke-width:1.99172;stroke-linecap:round;stroke-linejoin:miter;stroke-miterlimit:4;stroke-dasharray:none;stroke-opacity:1;paint-order:markers fill stroke" id="amplifierZ" width="168.22823" height="97.589767" x="2.8270514" y="540.87952"/>
		<rect y="139.86548" x="179.78391" height="97.141968" width="253.54138" id="amplifierAB" style="fill:none;fill-opacity:1;stroke:#0000ff;stroke-width:2.43953;stroke-linecap:round;stroke-linejoin:miter;stroke-miterlimit:4;stroke-dasharray:none;stroke-opacity:1;paint-order:markers fill stroke"/>
		<rect style="fill:none;fill-opacity:1;stroke:#0000ff;stroke-width:2.43953;stroke-linecap:round;stroke-linejoin:miter;stroke-miterlimit:4;stroke-dasharray:none;stroke-opacity:1;paint-order:markers fill stroke" id="amplifierR" width="253.54138" height="97.141968" x="179.45253" y="547.46027"/>
		<path id="amplifierQ" d="m 306.85589,644.52992 v 52.02633" style="fill:#0000ff;stroke:#0000ff;stroke-width:1.999;stroke-linecap:butt;stroke-linejoin:miter;stroke-opacity:1;fill-opacity:1;stroke-miterlimit:4;stroke-dasharray:none"/>
	</g>
	<g inkscape:label="Layer 1" inkscape:groupmode="layer" id="layer1">
		<g id="g1155" transform="translate(448.89046,287.39473)">
			<path style="fill:#989088;fill-opacity:1;stroke:#000000;stroke-width:0.793749px;stroke-linecap:butt;stroke-linejoin:miter;stroke-opacity:1" d="m 95.487397,50.707916 -37.765083,-0.18423 0.1842,105.558034 c 0.18909,4.27899 4.052844,8.65833 11.0532,7.36878 L 95.6716,154.23951 Z" id="path382" sodipodi:nodetypes="cccccc"/>
			<path style="fill:none;fill-opacity:1;stroke:#973644;stroke-width:3.17658;stroke-linecap:butt;stroke-linejoin:miter;stroke-dasharray:none;stroke-opacity:1" d="m 60.485605,51.014949 -0.1842,104.145681 c -0.307032,3.25453 3.377375,7.3688 8.167091,5.89502 l 26.308074,-8.87351 0.588032,-0.0305" id="path480" sodipodi:nodetypes="ccccc"/>
			<path d="m 80.88808,97.518537 c 0,-2.27023 -1.88466,-4.11101 -4.19137,-4.11101 -2.30669,0 -4.19107,1.84078 -4.19107,4.11101 0,2.27024 1.88438,4.110743 4.19107,4.110743 2.30671,0 4.19137,-1.840503 4.19137,-4.110743 z" id="path23553" transform="matrix(3,0,0,3,-153.39372,-214.20033)" inkscape:original-d="M 0,0" inkscape:path-effect="#path-effect23551" class="UnoptimicedTransforms" style="fill:#6c5353"/>
			<path id="path17250" style="fill:#2c222a;fill-opacity:1;stroke:#241a22;stroke-width:0.0367619;stroke-opacity:1" d="m 93.72969,106.95793 c 0,-2.27023 -1.88466,-4.11101 -4.19137,-4.11101 -2.30669,0 -4.19107,1.84078 -4.19107,4.11101 0,2.27024 1.88438,4.11074 4.19107,4.11074 2.30671,0 4.19137,-1.8405 4.19137,-4.11074 z m -0.69926,0.20514 c -0.0219,0.36345 -0.10157,0.7116 -0.23041,1.03572 -0.0267,0.0655 -0.0551,0.13051 -0.0848,0.1948 -0.55342,1.17046 -1.76376,1.98227 -3.1769,1.98227 -1.10633,0 -2.08824,-0.49771 -2.72805,-1.2754 -0.38312,-0.48655 -0.64034,-1.07394 -0.73927,-1.68588 -0.0203,-0.14938 -0.0309,-0.3018 -0.0309,-0.45665 0,-1.88787 1.55812,-3.41821 3.49826,-3.41821 0.87319,0 1.66892,0.31009 2.28019,0.82312 0.0135,0.0115 0.0271,0.023 0.0405,0.0347 0.40842,0.35742 0.73851,0.80459 0.93197,1.31022 0.033,0.14385 0.10928,0.33502 0.16693,0.52436 0.0325,0.14711 0.0552,0.2977 0.0677,0.4512 -0.009,0.0706 -0.0344,0.13171 -0.0821,0.17777 -0.14299,-0.493 -0.7547,0.0427 -0.86081,-0.48314 -0.24899,-0.37567 -0.17253,0.14361 -0.30537,0.28935 -0.24512,-0.11408 -0.58445,-0.0648 -0.86994,-0.17957 -0.3252,-0.11829 -0.34773,-0.96798 0.14432,-0.63543 0.083,0.41352 0.48656,0.18147 0.75735,0.27004 0.32464,0.0611 -0.062,-0.35004 0.0882,-0.30243 0.14279,0.1894 0.34774,-0.0785 0.24226,0.16048 0.21283,0.2809 0.88882,-0.0382 0.45601,-0.3025 -0.0851,-0.15484 -0.69073,-0.12585 -0.56572,-0.22904 0.16826,0.12535 0.48283,-0.0305 0.13915,-0.10749 -0.43489,-0.087 0.11136,0.005 0.20032,-0.12579 -0.0251,-0.34965 -0.37989,-0.28889 -0.55725,-0.32267 -0.0684,0.0451 -0.1141,-0.18993 -0.0725,-0.15423 0.45376,-0.22607 -0.41201,-0.45655 -0.56235,-0.18446 -0.22824,0.19005 -0.0365,-0.0448 -0.12242,-0.14755 -0.19044,0.16542 -0.23669,0.17321 -0.1143,-0.0849 0.41556,-0.32977 -0.25006,-0.50464 -0.45579,-0.24972 -0.0703,0.30284 -0.41313,0.28663 -0.34658,0.6088 -0.22147,-0.1854 0.1281,-0.48471 -0.0279,-0.64233 -0.33449,0.13367 -0.66133,0.35437 -1.03536,0.44617 -0.31406,0.0493 -0.73753,0.50477 -0.98906,0.18467 -0.1731,0.13664 -0.25569,0.44944 -0.0113,0.56823 0.20341,0.3685 -0.2632,0.14607 -0.31506,0.42578 -0.14306,0.0118 -0.43679,-0.37804 -0.70831,-0.28067 -0.46384,-0.0597 -0.85208,0.67938 -0.35944,0.89176 0.39264,0.0443 0.0606,-0.17193 -0.0209,-0.31276 -0.0864,-0.40979 0.54522,-0.49667 0.78019,-0.26193 0.41576,0.19298 -0.14056,0.25992 -0.032,0.55243 0.0842,0.30964 0.54537,-0.0364 0.16349,-0.0816 0.30721,-0.18964 0.36541,0.56411 0.71571,0.57354 -0.43332,0.0478 -0.85716,-0.10311 -1.26189,-0.23744 -0.17904,0.14795 -0.4033,0.16102 -0.65138,0.19472 -0.48064,0.0974 0.0592,0.35954 0.28626,0.3086 0.27583,-0.10538 0.15978,0.23922 0.34846,0.22215 0.40095,-0.15907 0.83577,-0.25884 1.26878,-0.24864 -0.18051,0.23852 -0.43422,0.65994 -0.77917,0.5879 0.31998,-0.0596 -0.15023,-0.4372 -0.21871,-0.12436 -0.12692,0.31774 0.36649,0.24644 0.35269,0.38945 -0.2046,0.29131 -0.69833,0.49327 -0.95552,0.1576 -0.29741,-0.25303 0.27949,-0.41607 0.12041,-0.593 -0.44881,-0.013 -0.47313,0.69891 -0.0913,0.84667 0.28608,0.20599 0.68315,0.10482 0.93715,-0.10468 0.08,0.21483 0.58538,0.12395 0.37185,-0.15703 -0.29729,0.18538 -0.069,-0.21912 0.025,-0.39246 0.1178,-0.26799 0.70506,-0.7702 0.82908,-0.32296 -0.13047,0.37318 -0.83196,0.21755 -0.76173,0.72332 0.0553,0.40326 -0.25718,0.76363 -0.15725,1.16446 0.15383,0.31076 0.67599,0.35335 0.84302,0.0278 0.0558,0.10455 0.3495,0.20477 0.28943,-0.0705 -0.3442,-0.0615 -0.20346,-0.52593 -0.54885,-0.60392 -0.40636,0.0733 -0.18935,-0.43072 0.0773,-0.41192 0.38657,0.0413 0.59593,-0.18498 0.72303,-0.51646 0.22928,-0.35847 0.0935,0.27778 -0.0281,0.41343 -0.22235,0.30148 0.0753,0.41038 0.32217,0.34996 -0.22996,0.16417 -0.37299,0.42062 -0.39814,0.70185 -0.038,0.40234 0.23025,0.0521 0.2844,-0.12745 0.20403,-0.3508 0.066,0.28192 0.28016,-7.2e-4 0.25619,-0.38883 0.013,0.18742 -0.0406,0.32605 -0.17093,0.19743 0.0634,0.84752 0.27098,0.57562 -0.13648,-0.31825 0.25684,-0.17793 0.24836,-0.45068 0.004,-0.24831 0.15412,-0.26311 0.15006,0.004 -0.0447,0.41599 0.93858,0.62688 0.61705,0.1181 -0.19109,-0.18536 -0.019,-0.0893 0.0404,-0.18194 -0.0841,-0.50029 0.20003,0.16441 0.45644,0.0894 0.43922,0.0577 0.25867,-0.28612 0.0383,-0.45356 -0.1932,-0.36969 0.0225,-0.0292 0.14999,0.0918 0.24848,0.1774 0.18735,-0.11706 0.0409,-0.23242 0.21632,0.1296 0.68352,0.17899 0.63895,-0.18991 -0.21372,-0.11292 -0.12641,-0.0135 -0.0466,-0.16119 -0.37679,-0.1996 0.16773,-0.0397 0.30846,-0.22625 0.15607,-0.45837 -0.56604,-0.2408 -0.82608,-0.27054 -0.33353,-0.0232 0.0883,-0.0538 -0.0105,-0.25145 -0.22869,-0.0593 -0.7298,-0.28005 -0.80431,0.11086 -0.3137,0.38023 -0.57189,-0.18079 -0.34745,-0.45155 0.3275,-0.11929 0.67546,-0.098 1.00177,-0.14116 0.1319,0.24794 0.49788,-0.026 0.73868,0.10447 0.26499,0.23956 0.41366,-0.24559 0.6004,-0.16701 z m -1.63167,0.69991 c -0.005,0.159 -0.16451,0.42224 -0.18518,0.54209 -0.0599,-0.33818 -0.42696,0.11393 -0.62933,-0.0529 -0.3239,-0.0968 -0.37174,-0.53505 -0.56801,-0.69079 -0.21599,0.0351 0.0209,-0.19162 0.0662,-0.22804 0.24923,0.11014 0.0436,0.74486 0.48186,0.78241 0.37842,0.11332 0.73718,-0.10725 0.71879,-0.48178 0.0887,0.006 0.11807,0.0567 0.11567,0.12895 z m -1.6349,-2.57104 c -0.26586,-0.0698 -0.21428,-0.70668 -0.45479,-0.50031 -0.1402,0.33944 0.16081,0.67609 0.17131,0.96256 -0.14034,-0.37828 -0.39347,0.0377 -0.17152,0.23379 0.19004,0.30489 -0.0563,0.19336 -0.11819,-0.0212 -0.0224,-0.44681 -0.41754,-0.21817 -0.68527,-0.33337 -0.14208,-0.0476 -0.39894,-0.61816 -0.12414,-0.61462 0.3542,-0.0799 0.65679,-0.26226 0.99904,-0.36115 0.23282,-0.23609 0.37489,-0.002 0.37343,0.2424 -0.17614,0.0119 -0.0309,0.3596 0.0101,0.39188 z m -0.14109,1.97474 c 5.6e-4,0.23531 -0.23907,-0.006 -0.15911,-0.16651 -0.0557,-0.38347 -0.31978,-0.0469 -0.1757,0.16751 0.0768,0.32271 -0.11279,0.10051 -0.24491,0.006 -0.0246,-0.31913 -0.38114,-0.27363 -0.59839,-0.31477 -0.0254,-0.0392 -0.10297,-0.20015 0.0228,-0.12271 -0.0163,-0.13814 0.25023,0.1184 0.39576,-0.0574 0.0829,-0.22078 0.19714,-0.35073 0.46484,-0.26667 -0.1733,0.22057 0.27458,0.20004 0.11912,0.33926 0.0829,0.13518 0.0653,0.30956 0.17484,0.39067 5.3e-4,0.009 7.6e-4,0.0168 7.9e-4,0.0243 z m -0.7883,-0.70387 c -4.2e-4,0.0237 -0.003,0.0486 -0.007,0.0746 -0.33558,0.22156 -0.5635,-0.36804 -0.82003,-0.52665 -0.0162,-0.0942 -0.14112,-0.30797 -0.0286,-0.36532 0.43817,-0.0528 -0.122,0.12731 0.17454,0.27126 0.30081,0.0797 0.68696,0.18976 0.68067,0.54611 z m -0.92285,0.33158 c -0.29418,0.0246 -0.59099,0.0717 -0.85594,0.20872 -0.0688,-0.0368 -0.12907,-0.28781 -0.35348,-0.20463 -0.0944,-0.009 -0.18919,-0.016 -0.28282,-0.0317 -0.008,-0.15062 0.56725,0.0179 0.61361,-0.23967 0.27726,0.13805 0.58318,0.18147 0.87863,0.26731 z" transform="matrix(3,0,0,3,-191.91855,-242.51851)" class="UnoptimicedTransforms"/>
			<path inkscape:original-d="M 0,0" inkscape:path-effect="#path-effect1504" d="m 89.27052,123.55057 c 0,-6.81069 -5.65398,-12.33303 -12.57411,-12.33303 -6.92007,0 -12.57321,5.52234 -12.57321,12.33303 0,6.81072 5.65314,12.33222 12.57321,12.33222 6.92013,0 12.57411,-5.5215 12.57411,-12.33222 z" id="path1506" class="UnoptimicedTransforms" style="fill:#6c5353;fill-opacity:1"/>
			<path id="path1502" style="fill:#2c222a;fill-opacity:1;stroke:#241a22;stroke-width:0.0367619;stroke-opacity:1" d="m 93.72969,106.95793 c 0,-2.27023 -1.88466,-4.11101 -4.19137,-4.11101 -2.30669,0 -4.19107,1.84078 -4.19107,4.11101 0,2.27024 1.88438,4.11074 4.19107,4.11074 2.30671,0 4.19137,-1.8405 4.19137,-4.11074 z m -0.69926,0.20514 c -0.0219,0.36345 -0.10157,0.7116 -0.23041,1.03572 -0.0267,0.0655 -0.0551,0.13051 -0.0848,0.1948 -0.55342,1.17046 -1.76376,1.98227 -3.1769,1.98227 -1.10633,0 -2.08824,-0.49771 -2.72805,-1.2754 -0.38312,-0.48655 -0.64034,-1.07394 -0.73927,-1.68588 -0.0203,-0.14938 -0.0309,-0.3018 -0.0309,-0.45665 0,-1.88787 1.55812,-3.41821 3.49826,-3.41821 0.87319,0 1.66892,0.31009 2.28019,0.82312 0.0135,0.0115 0.0271,0.023 0.0405,0.0347 0.40842,0.35742 0.73851,0.80459 0.93197,1.31022 0.033,0.14385 0.10928,0.33502 0.16693,0.52436 0.0325,0.14711 0.0552,0.2977 0.0677,0.4512 -0.009,0.0706 -0.0344,0.13171 -0.0821,0.17777 -0.14299,-0.493 -0.7547,0.0427 -0.86081,-0.48314 -0.24899,-0.37567 -0.17253,0.14361 -0.30537,0.28935 -0.24512,-0.11408 -0.58445,-0.0648 -0.86994,-0.17957 -0.3252,-0.11829 -0.34773,-0.96798 0.14432,-0.63543 0.083,0.41352 0.48656,0.18147 0.75735,0.27004 0.32464,0.0611 -0.062,-0.35004 0.0882,-0.30243 0.14279,0.1894 0.34774,-0.0785 0.24226,0.16048 0.21283,0.2809 0.88882,-0.0382 0.45601,-0.3025 -0.0851,-0.15484 -0.69073,-0.12585 -0.56572,-0.22904 0.16826,0.12535 0.48283,-0.0305 0.13915,-0.10749 -0.43489,-0.087 0.11136,0.005 0.20032,-0.12579 -0.0251,-0.34965 -0.37989,-0.28889 -0.55725,-0.32267 -0.0684,0.0451 -0.1141,-0.18993 -0.0725,-0.15423 0.45376,-0.22607 -0.41201,-0.45655 -0.56235,-0.18446 -0.22824,0.19005 -0.0365,-0.0448 -0.12242,-0.14755 -0.19044,0.16542 -0.23669,0.17321 -0.1143,-0.0849 0.41556,-0.32977 -0.25006,-0.50464 -0.45579,-0.24972 -0.0703,0.30284 -0.41313,0.28663 -0.34658,0.6088 -0.22147,-0.1854 0.1281,-0.48471 -0.0279,-0.64233 -0.33449,0.13367 -0.66133,0.35437 -1.03536,0.44617 -0.31406,0.0493 -0.73753,0.50477 -0.98906,0.18467 -0.1731,0.13664 -0.25569,0.44944 -0.0113,0.56823 0.20341,0.3685 -0.2632,0.14607 -0.31506,0.42578 -0.14306,0.0118 -0.43679,-0.37804 -0.70831,-0.28067 -0.46384,-0.0597 -0.85208,0.67938 -0.35944,0.89176 0.39264,0.0443 0.0606,-0.17193 -0.0209,-0.31276 -0.0864,-0.40979 0.54522,-0.49667 0.78019,-0.26193 0.41576,0.19298 -0.14056,0.25992 -0.032,0.55243 0.0842,0.30964 0.54537,-0.0364 0.16349,-0.0816 0.30721,-0.18964 0.36541,0.56411 0.71571,0.57354 -0.43332,0.0478 -0.85716,-0.10311 -1.26189,-0.23744 -0.17904,0.14795 -0.4033,0.16102 -0.65138,0.19472 -0.48064,0.0974 0.0592,0.35954 0.28626,0.3086 0.27583,-0.10538 0.15978,0.23922 0.34846,0.22215 0.40095,-0.15907 0.83577,-0.25884 1.26878,-0.24864 -0.18051,0.23852 -0.43422,0.65994 -0.77917,0.5879 0.31998,-0.0596 -0.15023,-0.4372 -0.21871,-0.12436 -0.12692,0.31774 0.36649,0.24644 0.35269,0.38945 -0.2046,0.29131 -0.69833,0.49327 -0.95552,0.1576 -0.29741,-0.25303 0.27949,-0.41607 0.12041,-0.593 -0.44881,-0.013 -0.47313,0.69891 -0.0913,0.84667 0.28608,0.20599 0.68315,0.10482 0.93715,-0.10468 0.08,0.21483 0.58538,0.12395 0.37185,-0.15703 -0.29729,0.18538 -0.069,-0.21912 0.025,-0.39246 0.1178,-0.26799 0.70506,-0.7702 0.82908,-0.32296 -0.13047,0.37318 -0.83196,0.21755 -0.76173,0.72332 0.0553,0.40326 -0.25718,0.76363 -0.15725,1.16446 0.15383,0.31076 0.67599,0.35335 0.84302,0.0278 0.0558,0.10455 0.3495,0.20477 0.28943,-0.0705 -0.3442,-0.0615 -0.20346,-0.52593 -0.54885,-0.60392 -0.40636,0.0733 -0.18935,-0.43072 0.0773,-0.41192 0.38657,0.0413 0.59593,-0.18498 0.72303,-0.51646 0.22928,-0.35847 0.0935,0.27778 -0.0281,0.41343 -0.22235,0.30148 0.0753,0.41038 0.32217,0.34996 -0.22996,0.16417 -0.37299,0.42062 -0.39814,0.70185 -0.038,0.40234 0.23025,0.0521 0.2844,-0.12745 0.20403,-0.3508 0.066,0.28192 0.28016,-7.2e-4 0.25619,-0.38883 0.013,0.18742 -0.0406,0.32605 -0.17093,0.19743 0.0634,0.84752 0.27098,0.57562 -0.13648,-0.31825 0.25684,-0.17793 0.24836,-0.45068 0.004,-0.24831 0.15412,-0.26311 0.15006,0.004 -0.0447,0.41599 0.93858,0.62688 0.61705,0.1181 -0.19109,-0.18536 -0.019,-0.0893 0.0404,-0.18194 -0.0841,-0.50029 0.20003,0.16441 0.45644,0.0894 0.43922,0.0577 0.25867,-0.28612 0.0383,-0.45356 -0.1932,-0.36969 0.0225,-0.0292 0.14999,0.0918 0.24848,0.1774 0.18735,-0.11706 0.0409,-0.23242 0.21632,0.1296 0.68352,0.17899 0.63895,-0.18991 -0.21372,-0.11292 -0.12641,-0.0135 -0.0466,-0.16119 -0.37679,-0.1996 0.16773,-0.0397 0.30846,-0.22625 0.15607,-0.45837 -0.56604,-0.2408 -0.82608,-0.27054 -0.33353,-0.0232 0.0883,-0.0538 -0.0105,-0.25145 -0.22869,-0.0593 -0.7298,-0.28005 -0.80431,0.11086 -0.3137,0.38023 -0.57189,-0.18079 -0.34745,-0.45155 0.3275,-0.11929 0.67546,-0.098 1.00177,-0.14116 0.1319,0.24794 0.49788,-0.026 0.73868,0.10447 0.26499,0.23956 0.41366,-0.24559 0.6004,-0.16701 z m -1.63167,0.69991 c -0.005,0.159 -0.16451,0.42224 -0.18518,0.54209 -0.0599,-0.33818 -0.42696,0.11393 -0.62933,-0.0529 -0.3239,-0.0968 -0.37174,-0.53505 -0.56801,-0.69079 -0.21599,0.0351 0.0209,-0.19162 0.0662,-0.22804 0.24923,0.11014 0.0436,0.74486 0.48186,0.78241 0.37842,0.11332 0.73718,-0.10725 0.71879,-0.48178 0.0887,0.006 0.11807,0.0567 0.11567,0.12895 z m -1.6349,-2.57104 c -0.26586,-0.0698 -0.21428,-0.70668 -0.45479,-0.50031 -0.1402,0.33944 0.16081,0.67609 0.17131,0.96256 -0.14034,-0.37828 -0.39347,0.0377 -0.17152,0.23379 0.19004,0.30489 -0.0563,0.19336 -0.11819,-0.0212 -0.0224,-0.44681 -0.41754,-0.21817 -0.68527,-0.33337 -0.14208,-0.0476 -0.39894,-0.61816 -0.12414,-0.61462 0.3542,-0.0799 0.65679,-0.26226 0.99904,-0.36115 0.23282,-0.23609 0.37489,-0.002 0.37343,0.2424 -0.17614,0.0119 -0.0309,0.3596 0.0101,0.39188 z m -0.14109,1.97474 c 5.6e-4,0.23531 -0.23907,-0.006 -0.15911,-0.16651 -0.0557,-0.38347 -0.31978,-0.0469 -0.1757,0.16751 0.0768,0.32271 -0.11279,0.10051 -0.24491,0.006 -0.0246,-0.31913 -0.38114,-0.27363 -0.59839,-0.31477 -0.0254,-0.0392 -0.10297,-0.20015 0.0228,-0.12271 -0.0163,-0.13814 0.25023,0.1184 0.39576,-0.0574 0.0829,-0.22078 0.19714,-0.35073 0.46484,-0.26667 -0.1733,0.22057 0.27458,0.20004 0.11912,0.33926 0.0829,0.13518 0.0653,0.30956 0.17484,0.39067 5.3e-4,0.009 7.6e-4,0.0168 7.9e-4,0.0243 z m -0.7883,-0.70387 c -4.2e-4,0.0237 -0.003,0.0486 -0.007,0.0746 -0.33558,0.22156 -0.5635,-0.36804 -0.82003,-0.52665 -0.0162,-0.0942 -0.14112,-0.30797 -0.0286,-0.36532 0.43817,-0.0528 -0.122,0.12731 0.17454,0.27126 0.30081,0.0797 0.68696,0.18976 0.68067,0.54611 z m -0.92285,0.33158 c -0.29418,0.0246 -0.59099,0.0717 -0.85594,0.20872 -0.0688,-0.0368 -0.12907,-0.28781 -0.35348,-0.20463 -0.0944,-0.009 -0.18919,-0.016 -0.28282,-0.0317 -0.008,-0.15062 0.56725,0.0179 0.61361,-0.23967 0.27726,0.13805 0.58318,0.18147 0.87863,0.26731 z" transform="matrix(3,0,0,3,-191.91855,-197.32322)" class="UnoptimicedTransforms"/>
		</g>
	</g>
</svg>
