<?xml version="1.0" encoding="UTF-8" standalone="no"?>
<!-- Created with Inkscape (http://www.inkscape.org/) -->
<svg width="612" height="792" viewBox="0 0 612 792" version="1.1" id="svg5" xml:space="preserve" inkscape:version="1.2.2 (732a01da63, 2022-12-09)" sodipodi:docname="OFA.svg" xmlns:inkscape="http://www.inkscape.org/namespaces/inkscape" xmlns:sodipodi="http://sodipodi.sourceforge.net/DTD/sodipodi-0.dtd" xmlns="http://www.w3.org/2000/svg" xmlns:svg="http://www.w3.org/2000/svg">
	<sodipodi:namedview id="namedview7" pagecolor="#ffffff" bordercolor="#666666" borderopacity="1.0" inkscape:showpageshadow="2" inkscape:pageopacity="0.0" inkscape:pagecheckerboard="0" inkscape:deskcolor="#d1d1d1" inkscape:document-units="mm" showgrid="false" inkscape:zoom="1.0771772" inkscape:cx="520.3415" inkscape:cy="558.86812" inkscape:window-width="1920" inkscape:window-height="1009" inkscape:window-x="1912" inkscape:window-y="-8" inkscape:window-maximized="1" inkscape:current-layer="layer1"/>
	<defs id="defs2">
		<inkscape:path-effect effect="knot" id="path-effect15574" is_visible="true" lpeversion="1" switcher_size="15" interruption_width="3" prop_to_stroke_width="true" add_stroke_width="inkscape_1.0_and_up" both="false" inverse_width="false" add_other_stroke_width="inkscape_1.0_and_up" crossing_points_vector=""/>
		<inkscape:path-effect effect="knot" id="path-effect13075" is_visible="true" lpeversion="1" switcher_size="15" interruption_width="3" prop_to_stroke_width="true" add_stroke_width="inkscape_1.0_and_up" both="false" inverse_width="false" add_other_stroke_width="inkscape_1.0_and_up" crossing_points_vector=""/>
		<inkscape:path-effect effect="fill_between_many" method="originald" linkedpaths="#path3060,0,1" id="path-effect4080"/>
		<inkscape:path-effect effect="fill_between_many" method="originald" linkedpaths="#path3060,0,1" id="path-effect4080-0" is_visible="true" lpeversion="0" join="true" close="true" autoreverse="true"/>
		<inkscape:path-effect effect="fill_between_many" method="originald" linkedpaths="#path17442,0,1" id="path-effect17444"/>
		<inkscape:path-effect effect="fill_between_many" method="originald" linkedpaths="#path17879,0,1" id="path-effect17881"/>
		<inkscape:path-effect effect="fill_between_many" method="originald" linkedpaths="#path18250,0,1" id="path-effect18252"/>
		<inkscape:path-effect effect="fill_between_many" method="originald" linkedpaths="#path3060,0,1" id="path-effect20302" join="true" close="true" autoreverse="true"/>
		<inkscape:path-effect effect="fill_between_many" method="originald" linkedpaths="#path23017,0,1" id="path-effect23019"/>
		<inkscape:path-effect effect="fill_between_many" method="originald" linkedpaths="#path23469,0,1|" id="path-effect23778"/>
		<inkscape:path-effect effect="fill_between_many" method="originald" linkedpaths="#path25239,0,1" id="path-effect25931"/>
		<inkscape:path-effect effect="fill_between_many" method="originald" linkedpaths="#path23017,0,1" id="path-effect26418"/>
	</defs>
	<g display="none" id="octagon">
		<polygon id="octagonOutline" points="305,516.5 218.733,480.768 183,394.5 218.733,308.233 305,272.5    391.268,308.233 427,394.5 391.268,480.768  " stroke-width="2" stroke="#0000FF" fill="none"/>
		<line id="mod1" y2="345.7" x2="407.5" y1="345.7" x1="202.5" stroke-width="2" stroke="#0000FF" fill="none"/>
		<line id="mod2" y2="443.3" x2="407.5" y1="443.3" x1="202.5" stroke-width="2" stroke="#0000FF" fill="none"/>
		<path d="m 179.56,317.5 126.44,-73 127.44223,72.99999 m -253.88223,0 v 0 -80.26865 0 h 253.88223 v 80.26865 0" style="fill:none;stroke:#0000ff;stroke-width:1.999;stroke-linecap:butt;stroke-linejoin:miter;stroke-miterlimit:4;stroke-dasharray:none;stroke-opacity:1" id="amplifierD"/>
		<rect y="150.52045" x="441.47321" height="97.589767" width="168.22823" id="amplifierAC" style="fill:none;fill-opacity:1;stroke:#0000ff;stroke-width:1.99172;stroke-linecap:round;stroke-linejoin:miter;stroke-miterlimit:4;stroke-dasharray:none;stroke-opacity:1;paint-order:markers fill stroke"/>
		<rect style="fill:none;fill-opacity:1;stroke:#0000ff;stroke-width:1.99172;stroke-linecap:round;stroke-linejoin:miter;stroke-miterlimit:4;stroke-dasharray:none;stroke-opacity:1;paint-order:markers fill stroke" id="amplifierG" width="168.22823" height="97.589767" x="441.47321" y="248.11023"/>
		<rect y="345.70001" x="441.47321" height="97.589767" width="168.22823" id="amplifierH" style="fill:none;fill-opacity:1;stroke:#0000ff;stroke-width:1.99172;stroke-linecap:round;stroke-linejoin:miter;stroke-miterlimit:4;stroke-dasharray:none;stroke-opacity:1;paint-order:markers fill stroke"/>
		<rect style="fill:none;fill-opacity:1;stroke:#0000ff;stroke-width:1.99172;stroke-linecap:round;stroke-linejoin:miter;stroke-miterlimit:4;stroke-dasharray:none;stroke-opacity:1;paint-order:markers fill stroke" id="amplifierM" width="168.22823" height="97.589767" x="441.47321" y="443.28979"/>
		<rect y="540.87958" x="441.47321" height="97.589767" width="168.22823" id="amplifierJKP" style="fill:none;fill-opacity:1;stroke:#0000ff;stroke-width:1.99172;stroke-linecap:round;stroke-linejoin:miter;stroke-miterlimit:4;stroke-dasharray:none;stroke-opacity:1;paint-order:markers fill stroke"/>
		<rect style="fill:none;fill-opacity:1;stroke:#0000ff;stroke-width:1.99172;stroke-linecap:round;stroke-linejoin:miter;stroke-miterlimit:4;stroke-dasharray:none;stroke-opacity:1;paint-order:markers fill stroke" id="amplifierW" width="168.22823" height="97.589767" x="2.8270514" y="150.52045"/>
		<rect y="248.11021" x="2.8270514" height="97.589767" width="168.22823" id="amplifierXY" style="fill:none;fill-opacity:1;stroke:#0000ff;stroke-width:1.99172;stroke-linecap:round;stroke-linejoin:miter;stroke-miterlimit:4;stroke-dasharray:none;stroke-opacity:1;paint-order:markers fill stroke"/>
		<rect style="fill:none;fill-opacity:1;stroke:#0000ff;stroke-width:1.99172;stroke-linecap:round;stroke-linejoin:miter;stroke-miterlimit:4;stroke-dasharray:none;stroke-opacity:1;paint-order:markers fill stroke" id="amplifierVAF" width="168.22823" height="97.589767" x="2.8270514" y="345.69998"/>
		<rect y="443.28973" x="2.8270514" height="97.589767" width="168.22823" id="amplifierT" style="fill:none;fill-opacity:1;stroke:#0000ff;stroke-width:1.99172;stroke-linecap:round;stroke-linejoin:miter;stroke-miterlimit:4;stroke-dasharray:none;stroke-opacity:1;paint-order:markers fill stroke"/>
		<rect style="fill:none;fill-opacity:1;stroke:#0000ff;stroke-width:1.99172;stroke-linecap:round;stroke-linejoin:miter;stroke-miterlimit:4;stroke-dasharray:none;stroke-opacity:1;paint-order:markers fill stroke" id="amplifierZ" width="168.22823" height="97.589767" x="2.8270514" y="540.87952"/>
		<rect y="139.86548" x="179.78391" height="97.141968" width="253.54138" id="amplifierAB" style="fill:none;fill-opacity:1;stroke:#0000ff;stroke-width:2.43953;stroke-linecap:round;stroke-linejoin:miter;stroke-miterlimit:4;stroke-dasharray:none;stroke-opacity:1;paint-order:markers fill stroke"/>
		<rect style="fill:none;fill-opacity:1;stroke:#0000ff;stroke-width:2.43953;stroke-linecap:round;stroke-linejoin:miter;stroke-miterlimit:4;stroke-dasharray:none;stroke-opacity:1;paint-order:markers fill stroke" id="amplifierR" width="253.54138" height="97.141968" x="179.45253" y="547.46027"/>
		<path id="amplifierQ" d="m 306.85589,644.52992 v 52.02633" style="fill:#0000ff;stroke:#0000ff;stroke-width:1.999;stroke-linecap:butt;stroke-linejoin:miter;stroke-opacity:1;fill-opacity:1;stroke-miterlimit:4;stroke-dasharray:none"/>
	</g>
	<g inkscape:label="Layer 1" inkscape:groupmode="layer" id="layer1">
		<g id="g2227" transform="translate(417.96866,265.41222)">
			<path inkscape:original-d="M 0,0" inkscape:path-effect="#path-effect23778" d="m 176.39388,46.552197 c -3.86121,0 -9.33202,1.656535 -12.57029,3.80597 -1.99438,1.323798 -4.96582,4.157907 -6.23476,5.946923 -1.23921,1.747089 -2.57095,4.335634 -3.32383,6.461621 -1.32564,3.743403 -1.27124,0.80713 -1.27124,68.995269 v 63.1114 h 0.84026 v 0.0661 h 45.41428 v -0.0661 h 0.55346 l -0.0765,-63.94855 c -0.0833,-69.603381 0.0179,-64.535874 -1.36995,-68.530706 -2.11228,-6.080287 -7.13976,-11.468946 -12.99455,-13.928865 -2.43742,-1.024097 -6.60416,-1.913062 -8.9669,-1.913062 z" id="path23780" class="UnoptimicedTransforms" style="fill:#dededc;fill-opacity:1" transform="translate(-68.778947,8.3368421)"/>
			<path id="path23469" style="fill:#000000;stroke-width:0.247622" d="m 176.39388,46.552197 c -3.86121,0 -9.33202,1.656535 -12.57029,3.80597 -1.99438,1.323798 -4.96582,4.157907 -6.23476,5.946923 -1.23921,1.747089 -2.57095,4.335634 -3.32383,6.461621 -1.32564,3.743403 -1.27124,0.80713 -1.27124,68.995269 v 63.1114 h 0.84026 v 0.0661 h 45.41428 v -0.0661 h 0.55346 l -0.0765,-63.94855 c -0.0833,-69.603381 0.0179,-64.535874 -1.36995,-68.530706 -2.11228,-6.080287 -7.13976,-11.468946 -12.99455,-13.928865 -2.43742,-1.024097 -6.60416,-1.913062 -8.9669,-1.913062 z m 0.99064,2.718181 0.86662,0.0021 c 0.47666,0.0012 1.75783,0.217085 2.84737,0.479557 3.68252,0.887127 6.94542,2.710111 9.56892,5.255493 l -0.46767,0.240296 c -0.31728,0.06978 -0.83497,0.333173 -1.80661,0.883667 -0.24055,0.136287 -0.3828,0.226431 -0.57464,0.339514 l -1.75597,0.90227 0.44701,0.870748 0.71675,-0.368453 c 0.2939,-0.0377 0.71094,-0.275842 1.78645,-0.904337 0.077,-0.04498 0.10558,-0.0633 0.17674,-0.104904 l 2.19676,-1.12913 c 2.10717,2.256162 3.74571,5.012389 4.7811,8.144206 0.0408,0.123235 0.0739,0.252281 0.11214,0.377238 l -3.915,3.988904 c -0.0481,0.04084 -0.0939,0.07998 -0.1633,0.149345 -0.0607,0.06072 -0.0992,0.109134 -0.13953,0.159163 l -1.92701,1.963705 0.69763,0.687296 1.64073,-1.671732 c 0.0475,0.0089 0.0803,-0.02397 0.10128,-0.103353 l 1.15652,-1.178223 c 0.22192,-0.160142 0.56467,-0.489076 1.14515,-1.063501 0.45188,-0.447165 0.78742,-0.825979 1.02784,-1.150834 l 0.67128,-0.683679 c 0.53931,2.284198 0.74145,5.097028 0.74207,9.921358 l 0.001,5.08186 -2.1053,2.094446 -2.10581,2.094446 -2.59933,-2.59054 -2.59932,-2.591056 V 75.21453 c 0,-2.302834 -0.0999,-4.152201 -0.22376,-4.152201 -0.46765,0 -0.76688,1.657429 -0.76688,4.246253 0,1.477791 -0.0889,2.687174 -0.1974,2.687174 -0.10855,0 -0.62452,-0.437788 -1.1467,-0.97255 -0.80429,-0.823664 -1.01908,-0.928944 -1.40354,-0.688847 -0.41261,0.257677 -0.308,0.428278 1.14722,1.876371 l 1.60042,1.592668 v 6.582027 6.58151 l -2.2903,-2.271179 -2.29082,-2.271696 -1.18132,1.169438 c -0.72213,0.714798 -0.98586,1.026375 -0.98805,1.280542 l -2.92489,2.843237 -0.0894,-5.849255 c 0.0175,0.03186 0.0366,0.06112 0.0527,0.09457 0.20497,0.425078 0.27297,-0.449302 0.28577,-3.688664 l 0.0165,-4.246253 0.8754,-0.768428 c 0.48141,-0.422684 1.06658,-0.773181 1.30018,-0.779281 0.2336,-0.0061 0.75396,-0.151782 1.15651,-0.323494 l 0.73174,-0.312126 -1.01647,0.01344 c -0.55921,0.0076 -0.97249,0.08663 -0.91829,0.175183 0.0542,0.08856 -0.31631,0.122558 -0.82321,0.07545 -0.53256,-0.0495 -1.00267,0.03924 -1.11363,0.210323 -0.14163,0.218408 -0.24076,0.22212 -0.37775,0.01499 -0.20992,-0.31742 -2.29082,-0.333825 -2.29082,-0.01809 0,0.11248 -0.13409,0.121563 -0.29817,0.02015 -0.16408,-0.101406 -0.6374,-0.208855 -1.05213,-0.238745 -0.52745,-0.03801 -0.38233,0.05459 0.48369,0.308508 0.68096,0.199653 1.37747,0.408535 1.54771,0.464054 0.78706,0.256681 0.2277,1.262053 -1.911,3.433383 l -2.22105,2.254642 -2.11253,-2.099096 -2.11253,-2.099614 v -3.503662 c 0,-2.806644 -0.0865,-3.694738 -0.43357,-4.462777 l -0.43305,-0.958597 -0.0687,3.950663 -0.0682,3.950663 -2.43396,-2.424658 -2.43344,-2.424141 -2.79828,2.859773 c -1.53896,1.573001 -2.89242,2.801753 -3.00757,2.730583 -0.11518,-0.07117 -0.20929,-2.630188 -0.20929,-5.686475 0,-4.971242 0.0459,-5.602146 0.43512,-5.989815 0.23929,-0.238337 1.70393,-1.158036 3.25458,-2.043286 0.72992,-0.416707 1.32478,-0.790983 1.83193,-1.133781 l 2.40967,-1.423686 c 0.0287,0.132936 0.18575,0.01457 0.36122,-0.213423 l 0.68884,-0.406694 -0.24236,-0.410828 c 0.0148,-0.042 0.0329,-0.0851 0.0439,-0.125573 0.13436,-0.49161 0.11804,-0.52711 -0.18035,-0.106454 l -0.11886,-0.201021 -3.83129,2.263428 c -0.22971,0.131678 -0.44735,0.254528 -0.6904,0.396358 -1.79178,1.045566 -3.32256,1.836319 -3.40186,1.756999 -0.22983,-0.229833 0.42086,-2.796847 1.18546,-4.675684 0.81266,-1.996936 2.03422,-3.924104 3.75119,-5.919019 l 1.21285,-1.409216 2.68097,1.558045 c 2.37834,1.382318 2.7439,1.524813 3.23701,1.260905 0.52141,-0.279046 0.39115,-0.392282 -2.09806,-1.820561 -1.45962,-0.83751 -2.77161,-1.449621 -2.91558,-1.360641 -0.75356,0.465725 0.26775,-0.546049 1.38027,-1.367358 2.84015,-2.096713 7.509,-3.742225 10.62985,-3.746025 l 1.42368,-0.0016 v 2.723865 c 0,2.586226 0.0262,2.723865 0.51108,2.723865 0.48954,0 0.50725,-0.112651 0.43305,-2.724382 z m -0.5519,6.223909 c -0.24906,-0.0038 -0.31471,0.196209 -0.31471,0.816488 0,0.72881 0.0897,0.8847 0.51056,0.8847 0.42734,0 0.49847,-0.132101 0.43357,-0.803051 -0.0511,-0.528687 -0.22568,-0.830631 -0.51108,-0.884701 -0.0434,-0.0082 -0.0828,-0.01289 -0.11834,-0.01344 z m -7.71839,2.289783 c -0.10082,-0.0049 -0.19145,0.0042 -0.26924,0.02894 -0.71421,0.226681 -0.62305,0.45204 0.42426,1.050581 0.72178,0.412495 1.00485,0.465184 1.29967,0.242363 0.20736,-0.156717 0.41097,-0.303595 0.45217,-0.326595 0.0412,-0.023 -0.31922,-0.285159 -0.80099,-0.58291 -0.40966,-0.25318 -0.80344,-0.397668 -1.10587,-0.412378 z m 16.57366,0.258899 c -0.30626,0.0018 -0.73806,0.13112 -1.24075,0.387573 -0.85075,0.434019 -0.98046,0.590105 -0.73639,0.884184 0.16297,0.196367 0.34266,0.357084 0.39946,0.357084 0.34212,0 2.06499,-1.043799 2.06499,-1.251087 0,-0.253577 -0.18105,-0.37951 -0.48731,-0.377754 z m -24.17372,17.95756 2.48719,2.478918 2.4877,2.478402 -0.0703,6.600114 -0.0698,6.599597 -2.38538,-2.385384 c -1.31212,-1.312116 -2.45293,-2.385901 -2.53473,-2.385901 -0.0818,0 -1.37044,1.22575 -2.86391,2.723865 -1.49347,1.498113 -2.80079,2.723865 -2.90525,2.723865 -0.10444,0 -0.19017,-2.87586 -0.19017,-6.390825 v -6.390824 l 3.02204,-3.025655 z m 26.39426,4.753198 2.5988,2.640149 2.59933,2.640666 2.10581,-2.094963 2.10582,-2.094962 v 6.561873 6.56239 l -2.04846,2.037085 c -1.12642,1.120577 -2.10322,2.037602 -2.17092,2.037602 -0.0677,0 -1.26315,-1.144185 -2.65669,-2.542481 l -2.53369,-2.54248 v -6.602181 z m -12.04526,1.204061 c 0.11064,0 0.16404,0.724184 0.11834,1.609721 -0.0553,1.07177 -0.006,1.527812 0.17621,1.595768 l 0.14625,9.466606 -4.98936,4.85035 -3.90829,-3.874699 c -0.0228,-0.265669 -0.0422,-0.582217 -0.0558,-1.00614 l 0.009,-1.243852 h -0.0269 c -0.0132,-1.069753 -0.0164,-2.353041 0,-4.14755 0.0346,-3.782484 0.11285,-6.927451 0.17415,-6.988721 0.0613,-0.06127 0.99961,0.771356 2.08515,1.850533 l 1.97352,1.962154 2.04794,-2.037085 c 1.12632,-1.120486 2.13907,-2.037085 2.24999,-2.037085 z m 6.38669,8.22017 4.66793,4.649329 v 0.382922 l -0.0527,10.897011 0.0548,5.2e-4 c -1.1e-4,0.0143 -0.002,0.028 -0.002,0.0424 0,0.72182 -0.0788,1.31258 -0.17518,1.31258 -0.0964,0 -0.61489,-0.4179 -1.15239,-0.92862 -0.33841,-0.32157 -0.56425,-0.50145 -0.6413,-0.52142 l -2.69131,-2.68046 -4.79609,4.66329 -0.19895,-12.969239 z m -20.91294,0.752409 4.81573,4.773869 c 0.14927,0.255472 0.21239,0.459652 0.21239,0.654223 0,0.129572 0.007,0.221146 0.0181,0.307475 l -0.0786,11.160046 0.0605,5.1e-4 v 0.98909 l -2.41846,-2.40967 -2.41846,-2.40967 -0.13745,0.13746 -0.10749,-0.10646 -5.61516,5.49527 c -0.1094,-0.14499 -0.19844,-3.00853 -0.19844,-6.44663 v -6.338632 l 2.89646,-2.932638 c 1.39935,-1.416799 2.63068,-2.605717 2.97088,-2.874243 z m 26.57151,4.883423 5.01519,4.99504 0.17467,-0.16329 0.0419,0.0418 0.9002,-0.925004 3.08922,-2.894914 c 0.10489,0.270909 0.18862,3.05241 0.18862,6.452838 v 6.50554 l -0.894,0.88936 -3.4153,3.20187 -2.50114,-2.49287 -2.59932,-2.59054 v -2.91404 c 0,-1.41164 -0.009,-2.13608 -0.0791,-2.51251 l 0.0171,-3.461799 c 0.0371,-0.04332 0.062,-0.09749 0.062,-0.158647 0,-0.06023 -0.0244,-0.11405 -0.0605,-0.157096 l 0.009,-1.933732 c 0.0396,-0.194932 0.0512,-0.488626 0.0512,-0.941545 z m -11.58431,0.125057 0.19999,12.968713 -5.10357,4.96249 -1.973,-1.96319 -2.09186,-2.08101 v -2.54351 c 0,-1.21963 -0.009,-1.85253 -0.0801,-2.18436 l 0.0579,-8.113719 c 0.033,-0.0042 0.0684,-0.0082 0.0977,-0.01292 l 3.87729,3.843178 z m 5.92574,8.731253 4.66793,4.64933 v 6.5474 6.57376 l -2.2872,-2.28772 -2.28771,-2.2872 -2.41743,2.40813 -2.41742,2.40863 v -4.14341 -3.34657 l 0.0641,-0.001 -0.0904,-5.88595 z m -20.81114,0.85317 5.04931,5.00538 -0.0693,6.51227 -0.0698,6.61561 -2.46858,-2.45928 -2.46859,-2.45928 -2.78897,2.78174 c -1.53413,1.52977 -2.87139,2.78123 -2.9714,2.78123 -0.10004,0 -0.1819,-2.8715 -0.1819,-6.38101 v -6.381 l 3.01739,-3.04064 z m 15.10554,4.69326 0.077,4.99039 0.16071,-0.003 c -0.23606,0.45423 -0.26406,1.31076 -0.26406,4.33462 l -5.2e-4,4.15168 -2.543,2.53473 -2.54299,2.53421 -2.03761,-2.04897 -2.03811,-2.04845 v -6.4947 c 0,-3.5722 0.0812,-6.49521 0.18035,-6.49521 0.041,0 0.25017,0.17244 0.52865,0.4191 l 3.24373,3.21531 0.032,-0.031 0.22324,0.22169 1.61024,-1.59577 c 0.8472,-0.83965 1.37625,-1.49795 1.54564,-1.91099 z m 11.36417,0.0894 2.62103,2.61018 2.5647,2.59415 2.11201,-2.09909 2.11202,-2.09962 v 6.56239 6.56188 l -2.04846,2.0376 c -1.12642,1.12058 -2.10322,2.03708 -2.17092,2.03708 -0.0677,0 -1.26315,-1.14418 -2.65669,-2.54248 l -2.53369,-2.54196 v -6.58048 z m -5.57176,9.29039 c 0.13093,0 1.2153,0.97278 2.40968,2.16162 l 2.17144,2.16111 v 6.50555 c 0,3.57788 -0.0571,6.50503 -0.12712,6.50503 -0.07,0 -1.08693,-0.95929 -2.2593,-2.13166 l -2.13165,-2.13113 -2.26446,2.25516 c -1.24565,1.24047 -2.34625,2.25516 -2.44585,2.25516 -0.0996,0 -0.18138,-2.92678 -0.18138,-6.50452 v -6.50503 l 2.29547,-2.28564 c 1.26233,-1.25709 2.40222,-2.28565 2.53317,-2.28565 z m -20.9367,0.61908 2.48253,2.47168 2.48254,2.47117 v 6.56239 6.56188 l -2.4443,-2.435 -2.44429,-2.43551 -2.85409,2.85719 c -1.56992,1.57137 -2.92144,2.78985 -3.00344,2.70785 -0.0819,-0.082 -0.14934,-2.99048 -0.14934,-6.46369 v -6.31486 l 2.96519,-2.99155 z m 26.50846,4.71341 2.59932,2.59105 2.59933,2.59054 2.10581,-2.09444 2.1053,-2.09445 v 6.6859 6.6859 l -2.04846,2.03708 c -1.12642,1.12058 -2.10159,2.02888 -2.16679,2.01848 -0.0652,-0.0104 -1.26071,-1.18497 -2.65668,-2.61069 l -2.53783,-2.59209 v -6.6089 z m -11.39052,0.24753 v 6.68641 6.6859 l -2.41898,2.40967 c -1.3303,1.32532 -2.47481,2.40967 -2.54351,2.40967 -0.0687,0 -1.04156,-0.9215 -2.16214,-2.04793 l -2.0376,-2.04846 v -6.49469 c 0,-3.5722 0.0432,-6.4947 0.0961,-6.4947 0.0529,0 0.96714,0.89436 2.0314,1.988 l 1.93477,1.98851 2.54972,-2.54093 z m 5.87819,8.9793 2.26085,2.28668 2.26084,2.28668 v 6.58926 6.58926 l -2.2872,-2.2872 -2.28771,-2.28771 -2.41743,2.40812 -2.41742,2.40864 v -6.56187 -6.56239 l 2.44429,-2.43448 z m -20.91655,0.74517 2.50476,2.49545 2.50475,2.49598 -0.0698,6.56187 -0.0698,6.56187 -2.34766,-2.34766 c -1.29124,-1.29124 -2.43201,-2.34766 -2.53473,-2.34766 -0.10272,0 -1.40868,1.22576 -2.90215,2.72387 -1.49347,1.49812 -2.80079,2.72335 -2.90525,2.72335 -0.10444,0 -0.19017,-2.89678 -0.19017,-6.43734 v -6.43733 l 3.00498,-2.9962 z m 26.42888,4.75216 2.59829,2.63964 2.59829,2.63963 2.04484,-2.01487 2.04432,-2.01486 0.0661,6.48539 0.0661,6.4854 -2.04174,2.05207 c -1.1229,1.12876 -2.10156,2.05258 -2.17506,2.05258 -0.0735,0 -1.274,-1.14418 -2.66754,-2.54248 l -2.53369,-2.54248 v -6.61975 z m -11.39052,0.38138 v 6.56187 6.56187 l -2.41898,2.41019 c -1.3303,1.32532 -2.52809,2.39955 -2.66185,2.38745 -0.13375,-0.0121 -1.10665,-0.90846 -2.16214,-1.99212 l -1.91926,-1.97043 v -6.42699 c 0,-3.53479 0.0812,-6.427 0.18035,-6.427 0.0991,0 1.04647,0.86147 2.10529,1.91409 l 1.92495,1.91358 2.47582,-2.466 z m 5.82807,8.78086 2.28616,2.29546 2.28565,2.29547 v 6.49521 c 0,3.57249 -0.06,6.49573 -0.13384,6.49573 -0.064,0 -0.30399,-0.18053 -0.55552,-0.40256 l -2.07791,-2.06964 c -0.19729,-0.28549 -1.08983,-1.18462 -1.23765,-1.23248 l -0.41083,-0.40928 -4.91185,4.77593 0.0134,-12.68811 h -0.0956 v -0.73587 l 2.41897,-2.41019 z m -20.88658,0.99115 c 0.10831,0 1.25635,1.04879 2.55126,2.33112 l 2.35438,2.33164 v 5.71645 c 0,0.82147 0.004,1.32466 0.007,1.92753 h -0.0672 v 5.59914 l -2.40296,-2.38176 c -0.22113,-0.24516 -0.47385,-0.51037 -0.76326,-0.79737 l -1.74149,-1.72703 -2.80293,2.90525 c -1.54166,1.59779 -2.87535,2.83284 -2.96365,2.74454 -0.0883,-0.0883 -0.16071,-3.00084 -0.16071,-6.47248 v -6.31227 l 2.89646,-2.93264 c 1.59302,-1.61288 2.98504,-2.93212 3.09336,-2.93212 z m 26.44903,4.5899 2.59932,2.59054 2.59984,2.59054 2.1053,-2.09445 2.1053,-2.09444 v 6.69933 6.69933 l -1.95285,1.90015 c -1.0739,1.04504 -2.11112,1.90014 -2.30529,1.90014 -0.0917,0 -0.28681,-0.12177 -0.524,-0.31006 l -3.35535,-3.34243 c -0.0528,-0.0956 -0.17622,-0.22704 -0.39171,-0.39946 -0.0137,-0.011 -0.0228,-0.0158 -0.0362,-0.0264 l -0.86403,-0.86041 v -0.78186 l 0.0196,0.002 v -6.23631 z m -11.48664,0.62787 c 0.0701,0.006 0.0961,0.0761 0.0961,0.19534 0,0.14755 0.0514,0.3453 0.13074,0.54828 l -0.0119,12.21786 -5.07617,4.93613 -4.30465,-4.2664 v -3.86953 c 0.0447,-0.72416 0.0617,-1.89715 0.0785,-3.88865 0.0233,-2.75233 0.0926,-5.05459 0.15451,-5.11649 0.0619,-0.0619 0.94229,0.7412 1.95595,1.78491 1.01367,1.04371 1.93125,1.89807 2.03916,1.89807 0.10791,0 1.28452,-1.08435 2.61482,-2.40967 1.50353,-1.49788 2.11244,-2.0491 2.32286,-2.02985 z m 6.0725,8.59482 2.62723,2.6169 c 0.0348,0.0524 0.0809,0.10077 0.14521,0.14418 l 1.6707,1.66398 v 7.0869 h 0.03 c -0.0308,0.69683 -0.0496,1.5613 -0.0496,2.76262 v 4.21628 l -2.07016,-2.05878 c -1.19071,-1.18458 -1.78185,-1.69939 -2.05052,-1.75287 l -0.29507,-0.29404 -0.84749,0.82424 c -0.69784,0.18675 -1.57734,1.01311 -1.69964,1.65261 l -1.13947,1.10795 c -0.53074,0.29466 -0.79071,0.55893 -1.10071,1.07021 l -0.14107,0.13695 0.015,-14.40739 z m -21.02094,0.74466 2.04742,2.03657 c 0.58935,0.58629 1.13914,1.09004 1.55339,1.43454 l 1.23042,1.21956 v 9.7622 h 0.0605 v 4.53305 l -2.44636,-2.43706 -2.44637,-2.43706 -2.84478,2.86649 c -1.56481,1.57647 -2.91547,2.79581 -3.00137,2.70991 -0.0859,-0.0859 -0.15658,-3.22727 -0.15658,-6.98045 v -6.82387 l 0.49971,-0.49661 z m 26.41544,4.62814 3.26802,3.25458 c 0.17569,0.19 0.31546,0.34373 0.55862,0.60358 l 1.45417,1.55443 1.84434,-1.88154 2.21795,-2.07946 c 0.0477,0.22896 0.0863,3.21926 0.0863,6.92878 v 7.01301 l -1.96681,1.90117 c -1.08174,1.04572 -2.05504,1.90118 -2.16266,1.90118 -0.10762,0 -1.33951,-1.14016 -2.73781,-2.5337 l -2.54248,-2.53369 v -5.6379 c 0,-1.70139 -0.003,-2.84632 -0.0196,-3.67626 z m -11.25306,0.3235 -0.0139,14.40635 -0.70797,0.68833 c -0.5332,0.41969 -1.29553,1.09069 -2.08773,1.8588 -1.22906,1.19168 -2.2708,2.16628 -2.3151,2.16628 -0.0443,0 -0.99712,-0.9215 -2.1177,-2.04794 l -2.0376,-2.04793 v -5.38055 c 0,-2.95608 -0.008,-4.26305 -0.0997,-4.86379 v -4.09691 l 4.2969,4.25969 z m 5.85856,10.02471 4.4235,4.40593 v 5.48907 c 0,2.58901 0.005,3.96631 0.0589,4.72426 h -9.52603 c 0.0521,-0.73279 0.0574,-2.04196 0.0574,-4.47621 v -5.26221 h 0.0641 v -0.0961 z m -20.97082,0.69505 4.6266,4.58628 0.21497,0.21394 v 5.01933 c 0,2.20271 0.006,3.41038 0.0543,4.10466 h -10.94972 v -3.53467 -4.4483 l 0.55449,-0.55759 z m 26.38496,4.69738 5.26169,5.24051 0.0631,-0.0589 0.005,0.005 0.14831,-0.14831 3.93154,-3.6866 v 4.27261 3.60288 h -9.46454 c 0.0496,-0.7063 0.0553,-1.94544 0.0553,-4.2199 z m -11.39104,0.41807 v 4.81727 c 0,2.1322 0.006,3.30919 0.0532,3.99149 h -9.263 c 0.0423,-0.63327 0.0481,-1.6892 0.0481,-3.54294 0,-2.45145 0.0411,-4.45709 0.0915,-4.45709 0.0503,0 0.99242,0.91889 2.09342,2.04225 l 2.00194,2.04277 1.96629,-1.96887 z" class="UnoptimicedTransforms" transform="translate(-68.778947,8.3368421)"/>
			<path style="fill:none;stroke:#919297;stroke-width:0.450321;stroke-linecap:butt;stroke-linejoin:miter;stroke-dasharray:none;stroke-opacity:1" d="m 92.597703,202.62745 0.24563,-119.620133 15.228847,-17.930739 16.21135,18.667619 0.49125,118.883253 H 113.23033 V 81.779184 l -11.54444,0.245626 1.22813,120.60264" id="path24610"/>
			<path id="path25233" style="fill:#000000;stroke-width:0.247622" d="m 176.39388,46.552197 c -3.86121,0 -9.33202,1.656535 -12.57029,3.80597 -1.99438,1.323798 -4.96582,4.157907 -6.23476,5.946923 -1.23921,1.747089 -2.57095,4.335634 -3.32383,6.461621 -1.32564,3.743403 -1.27124,0.80713 -1.27124,68.995269 v 63.1114 h 0.84026 v 0.0661 h 45.41428 v -0.0661 h 0.55346 l -0.0765,-63.94855 c -0.0833,-69.603381 0.0179,-64.535874 -1.36995,-68.530706 -2.11228,-6.080287 -7.13976,-11.468946 -12.99455,-13.928865 -2.43742,-1.024097 -6.60416,-1.913062 -8.9669,-1.913062 z m 0.99064,2.718181 0.86662,0.0021 c 0.47666,0.0012 1.75783,0.217085 2.84737,0.479557 3.68252,0.887127 6.94542,2.710111 9.56892,5.255493 l -0.46767,0.240296 c -0.31728,0.06978 -0.83497,0.333173 -1.80661,0.883667 -0.24055,0.136287 -0.3828,0.226431 -0.57464,0.339514 l -1.75597,0.90227 0.44701,0.870748 0.71675,-0.368453 c 0.2939,-0.0377 0.71094,-0.275842 1.78645,-0.904337 0.077,-0.04498 0.10558,-0.0633 0.17674,-0.104904 l 2.19676,-1.12913 c 2.10717,2.256162 3.74571,5.012389 4.7811,8.144206 0.0408,0.123235 0.0739,0.252281 0.11214,0.377238 l -3.915,3.988904 c -0.0481,0.04084 -0.0939,0.07998 -0.1633,0.149345 -0.0607,0.06072 -0.0992,0.109134 -0.13953,0.159163 l -1.92701,1.963705 0.69763,0.687296 1.64073,-1.671732 c 0.0475,0.0089 0.0803,-0.02397 0.10128,-0.103353 l 1.15652,-1.178223 c 0.22192,-0.160142 0.56467,-0.489076 1.14515,-1.063501 0.45188,-0.447165 0.78742,-0.825979 1.02784,-1.150834 l 0.67128,-0.683679 c 0.53931,2.284198 0.74145,5.097028 0.74207,9.921358 l 0.001,5.08186 -2.1053,2.094446 -2.10581,2.094446 -2.59933,-2.59054 -2.59932,-2.591056 V 75.21453 c 0,-2.302834 -0.0999,-4.152201 -0.22376,-4.152201 -0.46765,0 -0.76688,1.657429 -0.76688,4.246253 0,1.477791 -0.0889,2.687174 -0.1974,2.687174 -0.10855,0 -0.62452,-0.437788 -1.1467,-0.97255 -0.80429,-0.823664 -1.01908,-0.928944 -1.40354,-0.688847 -0.41261,0.257677 -0.308,0.428278 1.14722,1.876371 l 1.60042,1.592668 v 6.582027 6.58151 l -2.2903,-2.271179 -2.29082,-2.271696 -1.18132,1.169438 c -0.72213,0.714798 -0.98586,1.026375 -0.98805,1.280542 l -2.92489,2.843237 -0.0894,-5.849255 c 0.0175,0.03186 0.0366,0.06112 0.0527,0.09457 0.20497,0.425078 0.27297,-0.449302 0.28577,-3.688664 l 0.0165,-4.246253 0.8754,-0.768428 c 0.48141,-0.422684 1.06658,-0.773181 1.30018,-0.779281 0.2336,-0.0061 0.75396,-0.151782 1.15651,-0.323494 l 0.73174,-0.312126 -1.01647,0.01344 c -0.55921,0.0076 -0.97249,0.08663 -0.91829,0.175183 0.0542,0.08856 -0.31631,0.122558 -0.82321,0.07545 -0.53256,-0.0495 -1.00267,0.03924 -1.11363,0.210323 -0.14163,0.218408 -0.24076,0.22212 -0.37775,0.01499 -0.20992,-0.31742 -2.29082,-0.333825 -2.29082,-0.01809 0,0.11248 -0.13409,0.121563 -0.29817,0.02015 -0.16408,-0.101406 -0.6374,-0.208855 -1.05213,-0.238745 -0.52745,-0.03801 -0.38233,0.05459 0.48369,0.308508 0.68096,0.199653 1.37747,0.408535 1.54771,0.464054 0.78706,0.256681 0.2277,1.262053 -1.911,3.433383 l -2.22105,2.254642 -2.11253,-2.099096 -2.11253,-2.099614 v -3.503662 c 0,-2.806644 -0.0865,-3.694738 -0.43357,-4.462777 l -0.43305,-0.958597 -0.0687,3.950663 -0.0682,3.950663 -2.43396,-2.424658 -2.43344,-2.424141 -2.79828,2.859773 c -1.53896,1.573001 -2.89242,2.801753 -3.00757,2.730583 -0.11518,-0.07117 -0.20929,-2.630188 -0.20929,-5.686475 0,-4.971242 0.0459,-5.602146 0.43512,-5.989815 0.23929,-0.238337 1.70393,-1.158036 3.25458,-2.043286 0.72992,-0.416707 1.32478,-0.790983 1.83193,-1.133781 l 2.40967,-1.423686 c 0.0287,0.132936 0.18575,0.01457 0.36122,-0.213423 l 0.68884,-0.406694 -0.24236,-0.410828 c 0.0148,-0.042 0.0329,-0.0851 0.0439,-0.125573 0.13436,-0.49161 0.11804,-0.52711 -0.18035,-0.106454 l -0.11886,-0.201021 -3.83129,2.263428 c -0.22971,0.131678 -0.44735,0.254528 -0.6904,0.396358 -1.79178,1.045566 -3.32256,1.836319 -3.40186,1.756999 -0.22983,-0.229833 0.42086,-2.796847 1.18546,-4.675684 0.81266,-1.996936 2.03422,-3.924104 3.75119,-5.919019 l 1.21285,-1.409216 2.68097,1.558045 c 2.37834,1.382318 2.7439,1.524813 3.23701,1.260905 0.52141,-0.279046 0.39115,-0.392282 -2.09806,-1.820561 -1.45962,-0.83751 -2.77161,-1.449621 -2.91558,-1.360641 -0.75356,0.465725 0.26775,-0.546049 1.38027,-1.367358 2.84015,-2.096713 7.509,-3.742225 10.62985,-3.746025 l 1.42368,-0.0016 v 2.723865 c 0,2.586226 0.0262,2.723865 0.51108,2.723865 0.48954,0 0.50725,-0.112651 0.43305,-2.724382 z m -0.5519,6.223909 c -0.24906,-0.0038 -0.31471,0.196209 -0.31471,0.816488 0,0.72881 0.0897,0.8847 0.51056,0.8847 0.42734,0 0.49847,-0.132101 0.43357,-0.803051 -0.0511,-0.528687 -0.22568,-0.830631 -0.51108,-0.884701 -0.0434,-0.0082 -0.0828,-0.01289 -0.11834,-0.01344 z m -7.71839,2.289783 c -0.10082,-0.0049 -0.19145,0.0042 -0.26924,0.02894 -0.71421,0.226681 -0.62305,0.45204 0.42426,1.050581 0.72178,0.412495 1.00485,0.465184 1.29967,0.242363 0.20736,-0.156717 0.41097,-0.303595 0.45217,-0.326595 0.0412,-0.023 -0.31922,-0.285159 -0.80099,-0.58291 -0.40966,-0.25318 -0.80344,-0.397668 -1.10587,-0.412378 z m 16.57366,0.258899 c -0.30626,0.0018 -0.73806,0.13112 -1.24075,0.387573 -0.85075,0.434019 -0.98046,0.590105 -0.73639,0.884184 0.16297,0.196367 0.34266,0.357084 0.39946,0.357084 0.34212,0 2.06499,-1.043799 2.06499,-1.251087 0,-0.253577 -0.18105,-0.37951 -0.48731,-0.377754 z m -24.17372,17.95756 2.48719,2.478918 2.4877,2.478402 -0.0703,6.600114 -0.0698,6.599597 -2.38538,-2.385384 c -1.31212,-1.312116 -2.45293,-2.385901 -2.53473,-2.385901 -0.0818,0 -1.37044,1.22575 -2.86391,2.723865 -1.49347,1.498113 -2.80079,2.723865 -2.90525,2.723865 -0.10444,0 -0.19017,-2.87586 -0.19017,-6.390825 v -6.390824 l 3.02204,-3.025655 z m 26.39426,4.753198 2.5988,2.640149 2.59933,2.640666 2.10581,-2.094963 2.10582,-2.094962 v 6.561873 6.56239 l -2.04846,2.037085 c -1.12642,1.120577 -2.10322,2.037602 -2.17092,2.037602 -0.0677,0 -1.26315,-1.144185 -2.65669,-2.542481 l -2.53369,-2.54248 v -6.602181 z m -12.04526,1.204061 c 0.11064,0 0.16404,0.724184 0.11834,1.609721 -0.0553,1.07177 -0.006,1.527812 0.17621,1.595768 l 0.14625,9.466606 -4.98936,4.85035 -3.90829,-3.874699 c -0.0228,-0.265669 -0.0422,-0.582217 -0.0558,-1.00614 l 0.009,-1.243852 h -0.0269 c -0.0132,-1.069753 -0.0164,-2.353041 0,-4.14755 0.0346,-3.782484 0.11285,-6.927451 0.17415,-6.988721 0.0613,-0.06127 0.99961,0.771356 2.08515,1.850533 l 1.97352,1.962154 2.04794,-2.037085 c 1.12632,-1.120486 2.13907,-2.037085 2.24999,-2.037085 z m 6.38669,8.22017 4.66793,4.649329 v 0.382922 l -0.0527,10.897011 0.0548,5.2e-4 c -1.1e-4,0.0143 -0.002,0.028 -0.002,0.0424 0,0.72182 -0.0788,1.31258 -0.17518,1.31258 -0.0964,0 -0.61489,-0.4179 -1.15239,-0.92862 -0.33841,-0.32157 -0.56425,-0.50145 -0.6413,-0.52142 l -2.69131,-2.68046 -4.79609,4.66329 -0.19895,-12.969239 z m -20.91294,0.752409 4.81573,4.773869 c 0.14927,0.255472 0.21239,0.459652 0.21239,0.654223 0,0.129572 0.007,0.221146 0.0181,0.307475 l -0.0786,11.160046 0.0605,5.1e-4 v 0.98909 l -2.41846,-2.40967 -2.41846,-2.40967 -0.13745,0.13746 -0.10749,-0.10646 -5.61516,5.49527 c -0.1094,-0.14499 -0.19844,-3.00853 -0.19844,-6.44663 v -6.338632 l 2.89646,-2.932638 c 1.39935,-1.416799 2.63068,-2.605717 2.97088,-2.874243 z m 26.57151,4.883423 5.01519,4.99504 0.17467,-0.16329 0.0419,0.0418 0.9002,-0.925004 3.08922,-2.894914 c 0.10489,0.270909 0.18862,3.05241 0.18862,6.452838 v 6.50554 l -0.894,0.88936 -3.4153,3.20187 -2.50114,-2.49287 -2.59932,-2.59054 v -2.91404 c 0,-1.41164 -0.009,-2.13608 -0.0791,-2.51251 l 0.0171,-3.461799 c 0.0371,-0.04332 0.062,-0.09749 0.062,-0.158647 0,-0.06023 -0.0244,-0.11405 -0.0605,-0.157096 l 0.009,-1.933732 c 0.0396,-0.194932 0.0512,-0.488626 0.0512,-0.941545 z m -11.58431,0.125057 0.19999,12.968713 -5.10357,4.96249 -1.973,-1.96319 -2.09186,-2.08101 v -2.54351 c 0,-1.21963 -0.009,-1.85253 -0.0801,-2.18436 l 0.0579,-8.113719 c 0.033,-0.0042 0.0684,-0.0082 0.0977,-0.01292 l 3.87729,3.843178 z m 5.92574,8.731253 4.66793,4.64933 v 6.5474 6.57376 l -2.2872,-2.28772 -2.28771,-2.2872 -2.41743,2.40813 -2.41742,2.40863 v -4.14341 -3.34657 l 0.0641,-0.001 -0.0904,-5.88595 z m -20.81114,0.85317 5.04931,5.00538 -0.0693,6.51227 -0.0698,6.61561 -2.46858,-2.45928 -2.46859,-2.45928 -2.78897,2.78174 c -1.53413,1.52977 -2.87139,2.78123 -2.9714,2.78123 -0.10004,0 -0.1819,-2.8715 -0.1819,-6.38101 v -6.381 l 3.01739,-3.04064 z m 15.10554,4.69326 0.077,4.99039 0.16071,-0.003 c -0.23606,0.45423 -0.26406,1.31076 -0.26406,4.33462 l -5.2e-4,4.15168 -2.543,2.53473 -2.54299,2.53421 -2.03761,-2.04897 -2.03811,-2.04845 v -6.4947 c 0,-3.5722 0.0812,-6.49521 0.18035,-6.49521 0.041,0 0.25017,0.17244 0.52865,0.4191 l 3.24373,3.21531 0.032,-0.031 0.22324,0.22169 1.61024,-1.59577 c 0.8472,-0.83965 1.37625,-1.49795 1.54564,-1.91099 z m 11.36417,0.0894 2.62103,2.61018 2.5647,2.59415 2.11201,-2.09909 2.11202,-2.09962 v 6.56239 6.56188 l -2.04846,2.0376 c -1.12642,1.12058 -2.10322,2.03708 -2.17092,2.03708 -0.0677,0 -1.26315,-1.14418 -2.65669,-2.54248 l -2.53369,-2.54196 v -6.58048 z m -5.57176,9.29039 c 0.13093,0 1.2153,0.97278 2.40968,2.16162 l 2.17144,2.16111 v 6.50555 c 0,3.57788 -0.0571,6.50503 -0.12712,6.50503 -0.07,0 -1.08693,-0.95929 -2.2593,-2.13166 l -2.13165,-2.13113 -2.26446,2.25516 c -1.24565,1.24047 -2.34625,2.25516 -2.44585,2.25516 -0.0996,0 -0.18138,-2.92678 -0.18138,-6.50452 v -6.50503 l 2.29547,-2.28564 c 1.26233,-1.25709 2.40222,-2.28565 2.53317,-2.28565 z m -20.9367,0.61908 2.48253,2.47168 2.48254,2.47117 v 6.56239 6.56188 l -2.4443,-2.435 -2.44429,-2.43551 -2.85409,2.85719 c -1.56992,1.57137 -2.92144,2.78985 -3.00344,2.70785 -0.0819,-0.082 -0.14934,-2.99048 -0.14934,-6.46369 v -6.31486 l 2.96519,-2.99155 z m 26.50846,4.71341 2.59932,2.59105 2.59933,2.59054 2.10581,-2.09444 2.1053,-2.09445 v 6.6859 6.6859 l -2.04846,2.03708 c -1.12642,1.12058 -2.10159,2.02888 -2.16679,2.01848 -0.0652,-0.0104 -1.26071,-1.18497 -2.65668,-2.61069 l -2.53783,-2.59209 v -6.6089 z m -11.39052,0.24753 v 6.68641 6.6859 l -2.41898,2.40967 c -1.3303,1.32532 -2.47481,2.40967 -2.54351,2.40967 -0.0687,0 -1.04156,-0.9215 -2.16214,-2.04793 l -2.0376,-2.04846 v -6.49469 c 0,-3.5722 0.0432,-6.4947 0.0961,-6.4947 0.0529,0 0.96714,0.89436 2.0314,1.988 l 1.93477,1.98851 2.54972,-2.54093 z m 5.87819,8.9793 2.26085,2.28668 2.26084,2.28668 v 6.58926 6.58926 l -2.2872,-2.2872 -2.28771,-2.28771 -2.41743,2.40812 -2.41742,2.40864 v -6.56187 -6.56239 l 2.44429,-2.43448 z m -20.91655,0.74517 2.50476,2.49545 2.50475,2.49598 -0.0698,6.56187 -0.0698,6.56187 -2.34766,-2.34766 c -1.29124,-1.29124 -2.43201,-2.34766 -2.53473,-2.34766 -0.10272,0 -1.40868,1.22576 -2.90215,2.72387 -1.49347,1.49812 -2.80079,2.72335 -2.90525,2.72335 -0.10444,0 -0.19017,-2.89678 -0.19017,-6.43734 v -6.43733 l 3.00498,-2.9962 z m 26.42888,4.75216 2.59829,2.63964 2.59829,2.63963 2.04484,-2.01487 2.04432,-2.01486 0.0661,6.48539 0.0661,6.4854 -2.04174,2.05207 c -1.1229,1.12876 -2.10156,2.05258 -2.17506,2.05258 -0.0735,0 -1.274,-1.14418 -2.66754,-2.54248 l -2.53369,-2.54248 v -6.61975 z m -11.39052,0.38138 v 6.56187 6.56187 l -2.41898,2.41019 c -1.3303,1.32532 -2.52809,2.39955 -2.66185,2.38745 -0.13375,-0.0121 -1.10665,-0.90846 -2.16214,-1.99212 l -1.91926,-1.97043 v -6.42699 c 0,-3.53479 0.0812,-6.427 0.18035,-6.427 0.0991,0 1.04647,0.86147 2.10529,1.91409 l 1.92495,1.91358 2.47582,-2.466 z m 5.82807,8.78086 2.28616,2.29546 2.28565,2.29547 v 6.49521 c 0,3.57249 -0.06,6.49573 -0.13384,6.49573 -0.064,0 -0.30399,-0.18053 -0.55552,-0.40256 l -2.07791,-2.06964 c -0.19729,-0.28549 -1.08983,-1.18462 -1.23765,-1.23248 l -0.41083,-0.40928 -4.91185,4.77593 0.0134,-12.68811 h -0.0956 v -0.73587 l 2.41897,-2.41019 z m -20.88658,0.99115 c 0.10831,0 1.25635,1.04879 2.55126,2.33112 l 2.35438,2.33164 v 5.71645 c 0,0.82147 0.004,1.32466 0.007,1.92753 h -0.0672 v 5.59914 l -2.40296,-2.38176 c -0.22113,-0.24516 -0.47385,-0.51037 -0.76326,-0.79737 l -1.74149,-1.72703 -2.80293,2.90525 c -1.54166,1.59779 -2.87535,2.83284 -2.96365,2.74454 -0.0883,-0.0883 -0.16071,-3.00084 -0.16071,-6.47248 v -6.31227 l 2.89646,-2.93264 c 1.59302,-1.61288 2.98504,-2.93212 3.09336,-2.93212 z m 26.44903,4.5899 2.59932,2.59054 2.59984,2.59054 2.1053,-2.09445 2.1053,-2.09444 v 6.69933 6.69933 l -1.95285,1.90015 c -1.0739,1.04504 -2.11112,1.90014 -2.30529,1.90014 -0.0917,0 -0.28681,-0.12177 -0.524,-0.31006 l -3.35535,-3.34243 c -0.0528,-0.0956 -0.17622,-0.22704 -0.39171,-0.39946 -0.0137,-0.011 -0.0228,-0.0158 -0.0362,-0.0264 l -0.86403,-0.86041 v -0.78186 l 0.0196,0.002 v -6.23631 z m -11.48664,0.62787 c 0.0701,0.006 0.0961,0.0761 0.0961,0.19534 0,0.14755 0.0514,0.3453 0.13074,0.54828 l -0.0119,12.21786 -5.07617,4.93613 -4.30465,-4.2664 v -3.86953 c 0.0447,-0.72416 0.0617,-1.89715 0.0785,-3.88865 0.0233,-2.75233 0.0926,-5.05459 0.15451,-5.11649 0.0619,-0.0619 0.94229,0.7412 1.95595,1.78491 1.01367,1.04371 1.93125,1.89807 2.03916,1.89807 0.10791,0 1.28452,-1.08435 2.61482,-2.40967 1.50353,-1.49788 2.11244,-2.0491 2.32286,-2.02985 z m 6.0725,8.59482 2.62723,2.6169 c 0.0348,0.0524 0.0809,0.10077 0.14521,0.14418 l 1.6707,1.66398 v 7.0869 h 0.03 c -0.0308,0.69683 -0.0496,1.5613 -0.0496,2.76262 v 4.21628 l -2.07016,-2.05878 c -1.19071,-1.18458 -1.78185,-1.69939 -2.05052,-1.75287 l -0.29507,-0.29404 -0.84749,0.82424 c -0.69784,0.18675 -1.57734,1.01311 -1.69964,1.65261 l -1.13947,1.10795 c -0.53074,0.29466 -0.79071,0.55893 -1.10071,1.07021 l -0.14107,0.13695 0.015,-14.40739 z m -21.02094,0.74466 2.04742,2.03657 c 0.58935,0.58629 1.13914,1.09004 1.55339,1.43454 l 1.23042,1.21956 v 9.7622 h 0.0605 v 4.53305 l -2.44636,-2.43706 -2.44637,-2.43706 -2.84478,2.86649 c -1.56481,1.57647 -2.91547,2.79581 -3.00137,2.70991 -0.0859,-0.0859 -0.15658,-3.22727 -0.15658,-6.98045 v -6.82387 l 0.49971,-0.49661 z m 26.41544,4.62814 3.26802,3.25458 c 0.17569,0.19 0.31546,0.34373 0.55862,0.60358 l 1.45417,1.55443 1.84434,-1.88154 2.21795,-2.07946 c 0.0477,0.22896 0.0863,3.21926 0.0863,6.92878 v 7.01301 l -1.96681,1.90117 c -1.08174,1.04572 -2.05504,1.90118 -2.16266,1.90118 -0.10762,0 -1.33951,-1.14016 -2.73781,-2.5337 l -2.54248,-2.53369 v -5.6379 c 0,-1.70139 -0.003,-2.84632 -0.0196,-3.67626 z m -11.25306,0.3235 -0.0139,14.40635 -0.70797,0.68833 c -0.5332,0.41969 -1.29553,1.09069 -2.08773,1.8588 -1.22906,1.19168 -2.2708,2.16628 -2.3151,2.16628 -0.0443,0 -0.99712,-0.9215 -2.1177,-2.04794 l -2.0376,-2.04793 v -5.38055 c 0,-2.95608 -0.008,-4.26305 -0.0997,-4.86379 v -4.09691 l 4.2969,4.25969 z m 5.85856,10.02471 4.4235,4.40593 v 5.48907 c 0,2.58901 0.005,3.96631 0.0589,4.72426 h -9.52603 c 0.0521,-0.73279 0.0574,-2.04196 0.0574,-4.47621 v -5.26221 h 0.0641 v -0.0961 z m -20.97082,0.69505 4.6266,4.58628 0.21497,0.21394 v 5.01933 c 0,2.20271 0.006,3.41038 0.0543,4.10466 h -10.94972 v -3.53467 -4.4483 l 0.55449,-0.55759 z m 26.38496,4.69738 5.26169,5.24051 0.0631,-0.0589 0.005,0.005 0.14831,-0.14831 3.93154,-3.6866 v 4.27261 3.60288 h -9.46454 c 0.0496,-0.7063 0.0553,-1.94544 0.0553,-4.2199 z m -11.39104,0.41807 v 4.81727 c 0,2.1322 0.006,3.30919 0.0532,3.99149 h -9.263 c 0.0423,-0.63327 0.0481,-1.6892 0.0481,-3.54294 0,-2.45145 0.0411,-4.45709 0.0915,-4.45709 0.0503,0 0.99242,0.91889 2.09342,2.04225 l 2.00194,2.04277 1.96629,-1.96887 z" class="UnoptimicedTransforms" transform="translate(-68.778947,8.3368421)"/>
			<ellipse style="fill:#b08d30;fill-opacity:1;stroke:#4e4627;stroke-width:0.842361;stroke-dasharray:none;stroke-opacity:1" id="path5313" cx="107.90094" cy="75.179886" rx="13.233358" ry="13.089473"/>
		</g>
	</g>
</svg>
