<?xml version="1.0" encoding="UTF-8" standalone="no"?>
<!-- Created with Inkscape (http://www.inkscape.org/) -->
<svg width="612" height="792" viewBox="0 0 612 792" version="1.1" id="svg5" xml:space="preserve" inkscape:version="1.2.2 (732a01da63, 2022-12-09)" sodipodi:docname="OF1.svg" xmlns:inkscape="http://www.inkscape.org/namespaces/inkscape" xmlns:sodipodi="http://sodipodi.sourceforge.net/DTD/sodipodi-0.dtd" xmlns="http://www.w3.org/2000/svg" xmlns:svg="http://www.w3.org/2000/svg">
	<sodipodi:namedview id="namedview7" pagecolor="#ffffff" bordercolor="#666666" borderopacity="1.0" inkscape:showpageshadow="2" inkscape:pageopacity="0.0" inkscape:pagecheckerboard="0" inkscape:deskcolor="#d1d1d1" inkscape:document-units="mm" showgrid="false" inkscape:zoom="0.7616793" inkscape:cx="282.92747" inkscape:cy="551.41317" inkscape:window-width="1920" inkscape:window-height="1009" inkscape:window-x="1912" inkscape:window-y="-8" inkscape:window-maximized="1" inkscape:current-layer="layer1"/>
	<defs id="defs2">
		<inkscape:path-effect effect="knot" id="path-effect15574" is_visible="true" lpeversion="1" switcher_size="15" interruption_width="3" prop_to_stroke_width="true" add_stroke_width="inkscape_1.0_and_up" both="false" inverse_width="false" add_other_stroke_width="inkscape_1.0_and_up" crossing_points_vector=""/>
		<inkscape:path-effect effect="knot" id="path-effect13075" is_visible="true" lpeversion="1" switcher_size="15" interruption_width="3" prop_to_stroke_width="true" add_stroke_width="inkscape_1.0_and_up" both="false" inverse_width="false" add_other_stroke_width="inkscape_1.0_and_up" crossing_points_vector=""/>
		<inkscape:path-effect effect="fill_between_many" method="originald" linkedpaths="#path3060,0,1" id="path-effect4080"/>
		<inkscape:path-effect effect="fill_between_many" method="originald" linkedpaths="#path3060,0,1" id="path-effect4080-0" is_visible="true" lpeversion="0" join="true" close="true" autoreverse="true"/>
		<inkscape:path-effect effect="fill_between_many" method="originald" linkedpaths="#path17442,0,1" id="path-effect17444"/>
		<inkscape:path-effect effect="fill_between_many" method="originald" linkedpaths="#path17879,0,1" id="path-effect17881"/>
		<inkscape:path-effect effect="fill_between_many" method="originald" linkedpaths="#path18250,0,1" id="path-effect18252"/>
		<inkscape:path-effect effect="fill_between_many" method="originald" linkedpaths="#path3060,0,1" id="path-effect20302" join="true" close="true" autoreverse="true"/>
		<inkscape:path-effect effect="fill_between_many" method="originald" linkedpaths="#path23017,0,1" id="path-effect23019"/>
		<inkscape:path-effect effect="fill_between_many" method="originald" linkedpaths="#path23469,0,1" id="path-effect23778"/>
		<inkscape:path-effect effect="fill_between_many" method="originald" linkedpaths="#path25239,0,1|" id="path-effect25931"/>
		<inkscape:path-effect effect="fill_between_many" method="originald" linkedpaths="#path23017,0,1" id="path-effect26418"/>
	</defs>
	<g display="none" id="octagon">
		<polygon id="octagonOutline" points="305,516.5 218.733,480.768 183,394.5 218.733,308.233 305,272.5    391.268,308.233 427,394.5 391.268,480.768  " stroke-width="2" stroke="#0000FF" fill="none"/>
		<line id="mod1" y2="345.7" x2="407.5" y1="345.7" x1="202.5" stroke-width="2" stroke="#0000FF" fill="none"/>
		<line id="mod2" y2="443.3" x2="407.5" y1="443.3" x1="202.5" stroke-width="2" stroke="#0000FF" fill="none"/>
		<path d="m 179.56,317.5 126.44,-73 127.44223,72.99999 m -253.88223,0 v 0 -80.26865 0 h 253.88223 v 80.26865 0" style="fill:none;stroke:#0000ff;stroke-width:1.999;stroke-linecap:butt;stroke-linejoin:miter;stroke-miterlimit:4;stroke-dasharray:none;stroke-opacity:1" id="amplifierD"/>
		<rect y="150.52045" x="441.47321" height="97.589767" width="168.22823" id="amplifierAC" style="fill:none;fill-opacity:1;stroke:#0000ff;stroke-width:1.99172;stroke-linecap:round;stroke-linejoin:miter;stroke-miterlimit:4;stroke-dasharray:none;stroke-opacity:1;paint-order:markers fill stroke"/>
		<rect style="fill:none;fill-opacity:1;stroke:#0000ff;stroke-width:1.99172;stroke-linecap:round;stroke-linejoin:miter;stroke-miterlimit:4;stroke-dasharray:none;stroke-opacity:1;paint-order:markers fill stroke" id="amplifierG" width="168.22823" height="97.589767" x="441.47321" y="248.11023"/>
		<rect y="345.70001" x="441.47321" height="97.589767" width="168.22823" id="amplifierH" style="fill:none;fill-opacity:1;stroke:#0000ff;stroke-width:1.99172;stroke-linecap:round;stroke-linejoin:miter;stroke-miterlimit:4;stroke-dasharray:none;stroke-opacity:1;paint-order:markers fill stroke"/>
		<rect style="fill:none;fill-opacity:1;stroke:#0000ff;stroke-width:1.99172;stroke-linecap:round;stroke-linejoin:miter;stroke-miterlimit:4;stroke-dasharray:none;stroke-opacity:1;paint-order:markers fill stroke" id="amplifierM" width="168.22823" height="97.589767" x="441.47321" y="443.28979"/>
		<rect y="540.87958" x="441.47321" height="97.589767" width="168.22823" id="amplifierJKP" style="fill:none;fill-opacity:1;stroke:#0000ff;stroke-width:1.99172;stroke-linecap:round;stroke-linejoin:miter;stroke-miterlimit:4;stroke-dasharray:none;stroke-opacity:1;paint-order:markers fill stroke"/>
		<rect style="fill:none;fill-opacity:1;stroke:#0000ff;stroke-width:1.99172;stroke-linecap:round;stroke-linejoin:miter;stroke-miterlimit:4;stroke-dasharray:none;stroke-opacity:1;paint-order:markers fill stroke" id="amplifierW" width="168.22823" height="97.589767" x="2.8270514" y="150.52045"/>
		<rect y="248.11021" x="2.8270514" height="97.589767" width="168.22823" id="amplifierXY" style="fill:none;fill-opacity:1;stroke:#0000ff;stroke-width:1.99172;stroke-linecap:round;stroke-linejoin:miter;stroke-miterlimit:4;stroke-dasharray:none;stroke-opacity:1;paint-order:markers fill stroke"/>
		<rect style="fill:none;fill-opacity:1;stroke:#0000ff;stroke-width:1.99172;stroke-linecap:round;stroke-linejoin:miter;stroke-miterlimit:4;stroke-dasharray:none;stroke-opacity:1;paint-order:markers fill stroke" id="amplifierVAF" width="168.22823" height="97.589767" x="2.8270514" y="345.69998"/>
		<rect y="443.28973" x="2.8270514" height="97.589767" width="168.22823" id="amplifierT" style="fill:none;fill-opacity:1;stroke:#0000ff;stroke-width:1.99172;stroke-linecap:round;stroke-linejoin:miter;stroke-miterlimit:4;stroke-dasharray:none;stroke-opacity:1;paint-order:markers fill stroke"/>
		<rect style="fill:none;fill-opacity:1;stroke:#0000ff;stroke-width:1.99172;stroke-linecap:round;stroke-linejoin:miter;stroke-miterlimit:4;stroke-dasharray:none;stroke-opacity:1;paint-order:markers fill stroke" id="amplifierZ" width="168.22823" height="97.589767" x="2.8270514" y="540.87952"/>
		<rect y="139.86548" x="179.78391" height="97.141968" width="253.54138" id="amplifierAB" style="fill:none;fill-opacity:1;stroke:#0000ff;stroke-width:2.43953;stroke-linecap:round;stroke-linejoin:miter;stroke-miterlimit:4;stroke-dasharray:none;stroke-opacity:1;paint-order:markers fill stroke"/>
		<rect style="fill:none;fill-opacity:1;stroke:#0000ff;stroke-width:2.43953;stroke-linecap:round;stroke-linejoin:miter;stroke-miterlimit:4;stroke-dasharray:none;stroke-opacity:1;paint-order:markers fill stroke" id="amplifierR" width="253.54138" height="97.141968" x="179.45253" y="547.46027"/>
		<path id="amplifierQ" d="m 306.85589,644.52992 v 52.02633" style="fill:#0000ff;stroke:#0000ff;stroke-width:1.999;stroke-linecap:butt;stroke-linejoin:miter;stroke-opacity:1;fill-opacity:1;stroke-miterlimit:4;stroke-dasharray:none"/>
	</g>
	<g inkscape:label="Layer 1" inkscape:groupmode="layer" id="layer1">
		<g id="g2227" transform="translate(417.96866,265.41222)">
			<g id="g2995">
				<path style="fill:#dededc;stroke:#000000;stroke-width:1.865;stroke-linecap:butt;stroke-linejoin:miter;stroke-opacity:1;stroke-dasharray:none;fill-opacity:1" d="m 85.515957,202.39629 v -125 c 0.173684,-13.2 13.227278,-20.913141 22.000003,-21 8.77272,-0.08686 22,9.536842 22,21 v 125 z" id="path416" sodipodi:nodetypes="cczccc"/>
				<path style="fill:none;stroke:#919297;stroke-width:0.450321;stroke-linecap:butt;stroke-linejoin:miter;stroke-dasharray:none;stroke-opacity:1" d="m 92.597703,202.62745 v -120 l 15.999997,-18 16,18 v 120 l -11.02,0 L 113.23033,82 H 102.728 v 120" id="path24610" sodipodi:nodetypes="ccccccccc"/>
				<path style="fill:none;stroke:#000000;stroke-width:1.365;stroke-linecap:butt;stroke-linejoin:miter;stroke-opacity:1;stroke-dasharray:none" d="M 98,202.39629 98,77.617994" id="path1021"/>
				<path style="fill:none;stroke:#000000;stroke-width:1.365;stroke-linecap:butt;stroke-linejoin:miter;stroke-dasharray:none;stroke-opacity:1" d="M 118.387,202.15066 V 77.372367" id="path1023"/>
				<path style="fill:none;stroke:#000000;stroke-width:1.365;stroke-linecap:butt;stroke-linejoin:miter;stroke-dasharray:none;stroke-opacity:1" d="M 108.07068,202.39629 V 77.617994" id="path1025"/>
				<path style="fill:none;stroke:#000000;stroke-width:1.065;stroke-linecap:butt;stroke-linejoin:miter;stroke-dasharray:none;stroke-opacity:1" d="m 85.540117,194.41342 7.000358,-6.87754 10.193505,9.94787 10.93038,-10.31631 10.68476,10.43913 5.03534,-4.91253" id="path1027" sodipodi:nodetypes="cccccc"/>
				<path style="fill:none;stroke:#000000;stroke-width:1.065;stroke-linecap:butt;stroke-linejoin:miter;stroke-dasharray:none;stroke-opacity:1" d="m 85.540119,179.59645 7.000358,-6.87754 10.193503,9.94787 10.93038,-10.31631 10.68476,10.43913 5.03534,-4.91253" id="path1027-6" sodipodi:nodetypes="cccccc"/>
				<path style="fill:none;stroke:#000000;stroke-width:1.065;stroke-linecap:butt;stroke-linejoin:miter;stroke-dasharray:none;stroke-opacity:1" d="m 85.540115,164.77948 7.000358,-6.87754 10.193507,9.94787 10.93038,-10.31631 10.68476,10.43913 5.03534,-4.91253" id="path1027-5" sodipodi:nodetypes="cccccc"/>
				<path style="fill:none;stroke:#000000;stroke-width:1.065;stroke-linecap:butt;stroke-linejoin:miter;stroke-dasharray:none;stroke-opacity:1" d="m 85.540119,149.96251 7.000358,-6.87754 10.193503,9.94787 10.93038,-10.31631 10.68476,10.43913 5.03534,-4.91253" id="path1027-9" sodipodi:nodetypes="cccccc"/>
				<path style="fill:none;stroke:#000000;stroke-width:1.065;stroke-linecap:butt;stroke-linejoin:miter;stroke-dasharray:none;stroke-opacity:1" d="m 85.540114,135.14554 7.000358,-6.87754 10.193508,9.94787 10.93038,-10.31631 10.68476,10.43913 5.03534,-4.91253" id="path1027-0" sodipodi:nodetypes="cccccc"/>
				<path style="fill:none;stroke:#000000;stroke-width:1.065;stroke-linecap:butt;stroke-linejoin:miter;stroke-dasharray:none;stroke-opacity:1" d="m 85.54012,120.32856 7.000358,-6.87754 10.193492,9.94787 10.93038,-10.31631 10.68476,10.43913 5.03534,-4.91253" id="path1027-8" sodipodi:nodetypes="cccccc"/>
				<path style="fill:none;stroke:#000000;stroke-width:1.065;stroke-linecap:butt;stroke-linejoin:miter;stroke-dasharray:none;stroke-opacity:1" d="m 85.54012,105.51159 7.000358,-6.877537 10.193492,9.947867 10.93038,-10.316307 10.68476,10.439127 5.03534,-4.91253" id="path1027-2" sodipodi:nodetypes="cccccc"/>
				<path style="fill:none;stroke:#000000;stroke-width:1.065;stroke-linecap:butt;stroke-linejoin:miter;stroke-dasharray:none;stroke-opacity:1" d="m 85.540115,90.694625 7.000358,-6.877544 10.193507,9.947874 10.93038,-10.316314 10.68476,10.439134 5.03534,-4.91253" id="path1027-91" sodipodi:nodetypes="cccccc"/>
				<path style="fill:none;stroke:#000000;stroke-width:0.965;stroke-linecap:butt;stroke-linejoin:miter;stroke-opacity:1;stroke-dasharray:none" d="M 85.969297,76.758299 96.408424,70.494823" id="path1129"/>
				<path style="fill:none;stroke:#000000;stroke-width:0.965;stroke-linecap:butt;stroke-linejoin:miter;stroke-dasharray:none;stroke-opacity:1" d="m 93.460908,62.634772 10.561932,6.509105" id="path1131" sodipodi:nodetypes="cc"/>
				<path style="fill:none;stroke:#000000;stroke-width:0.965;stroke-linecap:butt;stroke-linejoin:miter;stroke-dasharray:none;stroke-opacity:1" d="m 112.74259,69.143876 9.45662,-5.64941" id="path1133" sodipodi:nodetypes="cc"/>
				<path style="fill:none;stroke:#000000;stroke-width:0.965;stroke-linecap:butt;stroke-linejoin:miter;stroke-dasharray:none;stroke-opacity:1" d="m 121.83078,79.337378 6.38628,-6.754729" id="path1135" sodipodi:nodetypes="cc"/>
				<path style="fill:none;stroke:#000000;stroke-width:0.965;stroke-linecap:butt;stroke-linejoin:miter;stroke-dasharray:none;stroke-opacity:1" d="m 108.32132,65.827917 -1e-5,-8.228488" id="path1137" sodipodi:nodetypes="cc"/>
				<path style="fill:none;stroke:#000000;stroke-width:1.865;stroke-linecap:butt;stroke-linejoin:miter;stroke-opacity:1;stroke-dasharray:none;fill-opacity:1" d="m 85.515957,202.39629 v -125 c 0.173684,-13.2 13.227278,-20.913141 22.000003,-21 8.77272,-0.08686 22,9.536842 22,21 v 125 z" id="path2611" sodipodi:nodetypes="cczccc"/>
			</g>
			<path inkscape:original-d="M 0,0" inkscape:path-effect="#path-effect25931" d="m 176.90731,147.57047 c -0.0297,-9.5e-4 -0.0587,-4.5e-4 -0.0868,0.001 -1.21577,0.0859 -1.03422,2.84374 -2.2053,3.25096 -2.30521,-0.70456 -1.95005,1.65783 -2.36032,3.07656 -0.85972,0.34764 -1.8449,0.0369 -2.76029,0.0551 l 0.12402,2.78277 c 0.31498,0.89442 -0.69896,0.51747 -1.24256,0.59067 -1.20033,-0.27649 -3.17515,0.30986 -1.85803,1.78593 1.26949,1.4873 -1.48676,-0.0963 -2.07119,0.83871 -1.9494,0.35972 -0.21809,2.12633 -0.85111,2.882 -1.63888,0.32874 -3.33619,0.66315 -4.69351,1.70454 0.89584,1.03347 1.96445,2.03866 3.38971,2.20608 2.65855,0.16909 -1.92171,2.19774 0.29998,2.99904 0.78554,1.08378 3.37614,0.11385 2.96726,1.72237 -1.0859,2.30732 1.75931,1.82352 2.98277,1.25883 0.36074,0.88485 0.1159,1.91351 0.16666,2.86262 -0.30025,0.87972 0.65399,0.53784 1.18442,0.60849 2.17546,-0.64242 1.30051,2.16453 2.57116,2.69674 1.77778,-0.51201 2.15772,0.91008 2.59674,2.2673 0.76319,1.88383 2.56141,1.06332 3.1657,-0.40928 -0.26652,-2.23053 2.71241,-1.05594 2.91145,-3.04788 -0.50356,-2.14122 1.3547,-2.00145 2.84169,-2.1177 0.16971,-1.36599 -0.0692,-3.33115 2.01925,-2.87967 2.25705,0.4142 0.39174,-2.67736 2.20839,-2.83161 1.76195,0.15942 1.84514,-1.31211 1.51697,-2.62464 1.05451,-0.75996 3.04775,-0.69264 3.94317,-2.07429 0.31483,-1.70671 -3.1756,-1.49704 -3.0254,-3.33081 0.14088,-2.3134 -3.95111,-0.23635 -3.57265,-2.21691 0.99174,-1.36399 -0.47221,-3.57978 -1.87818,-1.95415 -1.81133,1.11886 -0.65441,-0.93039 -0.69376,-1.84562 0.22997,-2.31811 -2.20384,-1.59732 -3.26336,-0.56199 0.035,-1.09764 0.75488,-3.52839 -0.79918,-3.77418 -2.10978,0.60717 -1.46784,-2.74297 -2.77812,-3.66102 -0.29614,-0.17431 -0.5419,-0.25392 -0.74957,-0.26044 z" id="path25933" class="UnoptimicedTransforms" style="fill:#b08d30;fill-opacity:1" transform="translate(-68.778947,8.3368421)"/>
			<path id="path25239" style="fill:#000000;stroke-width:0.264583" d="m 24.581947,119.16506 c -0.01978,-6.3e-4 -0.03912,-3e-4 -0.05788,0.001 -0.810509,0.0573 -0.689477,1.89583 -1.470194,2.16731 -1.536808,-0.46971 -1.300036,1.10522 -1.573547,2.05104 -0.573151,0.23176 -1.229937,0.0246 -1.840198,0.0367 l 0.08268,1.85518 c 0.209989,0.59628 -0.46597,0.34498 -0.828373,0.39378 -0.80022,-0.18433 -2.116764,0.20657 -1.238684,1.19062 0.846325,0.99153 -0.991173,-0.0642 -1.380794,0.55914 -1.299598,0.23981 -0.145391,1.41755 -0.567408,1.92133 -1.092586,0.21916 -2.224125,0.4421 -3.129008,1.13636 0.597227,0.68898 1.309634,1.35911 2.259811,1.47072 1.772368,0.11273 -1.281139,1.46516 0.199988,1.99936 0.523691,0.72252 2.250756,0.0759 1.978173,1.14825 -0.723939,1.53821 1.172868,1.21568 1.988509,0.83922 0.240492,0.5899 0.07727,1.27567 0.111105,1.90841 -0.200164,0.58648 0.435997,0.35856 0.789616,0.40566 1.450305,-0.42828 0.867004,1.44302 1.714107,1.79783 1.185185,-0.34134 1.438479,0.60672 1.73116,1.51153 0.508796,1.25589 1.707607,0.70888 2.110466,-0.27285 -0.177681,-1.48702 1.808274,-0.70396 1.940967,-2.03192 -0.335707,-1.42748 0.903134,-1.3343 1.894458,-1.4118 0.113143,-0.91066 -0.04615,-2.22077 1.346171,-1.91978 1.504698,0.27613 0.261155,-1.78491 1.472261,-1.88774 1.174633,0.10628 1.230088,-0.87474 1.011308,-1.74976 0.703008,-0.50664 2.031836,-0.46176 2.62878,-1.38286 0.20989,-1.13781 -2.117067,-0.99803 -2.016931,-2.22054 0.09392,-1.54227 -2.634076,-0.15757 -2.381767,-1.47794 0.661159,-0.90933 -0.314804,-2.38652 -1.25212,-1.30277 -1.207551,0.74591 -0.436274,-0.62026 -0.462504,-1.23041 0.15331,-1.54541 -1.469229,-1.06488 -2.175578,-0.37466 0.02336,-0.73176 0.503256,-2.35226 -0.532784,-2.51612 -1.406517,0.40478 -0.978563,-1.82865 -1.852083,-2.44068 -0.197421,-0.11621 -0.361263,-0.16928 -0.499711,-0.17363 z m -0.06046,0.88108 c 0.336249,0.008 0.763227,0.54493 0.794783,1.06712 0.423293,0.8173 0.209345,1.61448 -0.217041,2.36213 -0.158074,0.66226 -0.368408,0.3281 -0.583944,-0.11317 -0.60014,-0.77052 -0.816701,-1.73306 -0.395841,-2.64015 0.0315,-0.49446 0.200292,-0.68052 0.402043,-0.67593 z m -2.006079,1.6552 c 0.734412,0.6641 1.38995,1.57547 1.701188,2.50785 -0.31341,0.23369 -0.728818,0.27365 -1.106393,0.24185 -1.298147,-0.0439 -1.320551,-2.10617 -0.594795,-2.7497 z m 4.294828,0.67076 c 0.46074,0.0232 0.515841,1.46108 0.09664,1.99264 -0.141761,0.23475 -0.356965,0.63328 -0.701766,0.43667 -1.473065,-0.0232 -0.531094,-1.31432 0.01189,-1.89498 0.241144,-0.39267 0.439666,-0.54206 0.593246,-0.53433 z m -6.440951,1.59525 c 0.637171,-0.009 1.654654,0.5705 0.937928,1.12086 -0.416178,0.55909 -1.049076,0.22933 -1.218014,-0.33435 -0.347825,-0.56301 -0.102215,-0.78095 0.280086,-0.78651 z m 8.221721,0.22531 c 0.470025,-0.0218 0.611843,0.89083 0.281119,1.58853 -0.219857,1.11761 -2.050049,-0.72522 -0.974617,-1.06505 0.275816,-0.36333 0.509574,-0.51497 0.693498,-0.52348 z m -4.229716,0.90485 c 0.483209,-0.001 0.972802,0.0524 1.440222,0.1726 1.200992,0.30895 2.471901,1.0739 3.285071,2.40657 0.711316,1.14067 0.979105,2.66798 0.762744,4.19044 -0.236576,1.66472 -1.428507,2.96064 -2.753321,3.81941 -1.382367,0.73411 -3.246453,0.77013 -4.306197,0.48524 -1.059745,-0.28488 -1.305435,-0.49812 -1.786971,-0.78807 -0.569024,-0.3426 -1.058719,-1.05335 -1.289843,-1.35392 -0.613082,-0.79728 -0.989563,-1.98326 -1.037663,-2.98845 -0.177306,-2.45576 1.215704,-4.51238 3.454569,-5.52834 0.638367,-0.25727 1.426037,-0.41306 2.231389,-0.41548 z m -0.04806,0.35347 c -2.929499,0 -5.310271,2.38129 -5.310271,5.31078 0,2.9295 2.380772,5.31027 5.310271,5.31027 2.9295,0 5.310787,-2.38077 5.310787,-5.31027 0,-2.92949 -2.381287,-5.31078 -5.310787,-5.31078 z m 0,0.59583 c 2.607398,0 4.714957,2.10756 4.714957,4.71495 0,2.6074 -2.107559,4.71445 -4.714957,4.71445 -2.607399,0 -4.71444,-2.10705 -4.714441,-4.71445 0,-2.60739 2.107042,-4.71495 4.714441,-4.71495 z m -5.403805,0.0868 c 0.461198,0.0103 0.882077,0.20159 0.598413,0.5948 -0.224895,0.49473 -0.840519,0.74987 -1.182873,0.20567 -0.623158,-0.5042 -0.06852,-0.78333 0.491959,-0.79995 0.03091,-9.2e-4 0.06176,-0.001 0.0925,-5.2e-4 z m 11.707296,0.15762 c 0.407644,0.0176 0.632038,0.33255 0.157096,0.925 l -0.103353,0.19534 -0.09612,0.17157 c -0.404832,1.4913 -1.919484,-0.79528 -0.77773,-0.99787 0.264741,-0.20819 0.575518,-0.3046 0.820105,-0.29404 z m -13.326835,1.4552 c 0.668916,-0.014 1.373717,0.32548 0.983919,1.05317 -0.203651,1.11296 -1.46494,0.21477 -1.894458,-0.21549 -0.242118,-0.53795 0.320317,-0.82532 0.910539,-0.83768 z m 14.634249,0.52142 c 0.141574,3.7e-4 0.283076,0.0171 0.420129,0.0517 0.980727,-0.19035 1.016508,0.69032 0.194303,0.99942 -0.485842,0.16537 -1.492511,1.33223 -1.965771,0.80202 -0.626618,-1.05984 0.360315,-1.85574 1.351339,-1.85312 z m -7.575765,0.23564 c -1.229026,0 -2.230355,1.0034 -2.230355,2.23243 0,1.22902 1.001329,2.23087 2.230355,2.23087 1.229026,0 2.230871,-1.00185 2.230871,-2.23087 0,-1.22903 -1.001845,-2.23243 -2.230871,-2.23243 z m 0,0.51212 c 0.952322,0 1.718758,0.76798 1.718758,1.72031 0,0.95232 -0.766436,1.71875 -1.718758,1.71875 -0.952321,0 -1.718758,-0.76643 -1.718759,-1.71875 0,-0.95233 0.766438,-1.72031 1.718759,-1.72031 z m -7.913729,0.817 c 0.635212,-0.0174 1.232075,0.12734 1.485697,0.71934 l -0.05891,0.24184 c -0.869734,1.06101 -2.494206,0.75126 -3.644222,0.38706 -1.510415,-0.30782 0.12563,-1.04948 0.807703,-1.14928 0.39788,-0.0743 0.915556,-0.18541 1.409732,-0.19896 z m 16.810343,0.14418 c 0.70186,-0.002 1.420351,0.29158 1.802474,0.80098 -0.746561,0.68763 -1.993745,0.72507 -2.969844,0.71417 -1.082958,-0.032 -0.942796,-0.96787 -0.0016,-1.17305 0.332735,-0.23237 0.747806,-0.34064 1.168921,-0.3421 z m -15.54117,1.80402 c 0.571245,-0.0337 0.769512,0.99272 0.304374,1.54513 -0.560884,0.79205 -1.683861,0.4969 -2.465482,0.29249 -0.624863,-0.59545 1.132909,-1.10948 1.599902,-1.52601 0.21205,-0.20938 0.401257,-0.30215 0.561206,-0.31161 z m 13.352156,0.045 c 0.625844,-0.0262 1.500875,0.82284 1.681035,1.40457 -0.517895,0.62156 -2.852202,0.6649 -2.291333,-0.71934 0.09293,-0.48085 0.325825,-0.67332 0.610298,-0.68523 z m -0.91984,1.9141 c 0.360494,0.47695 0.82594,0.90398 1.013375,1.48466 -0.604083,0.33982 -1.69603,0.34626 -2.314588,0.0305 0.149654,-0.66061 0.863315,-1.02283 1.301213,-1.51515 z m -11.594641,0.12247 c 0.621077,0.0169 1.289404,1.1901 0.190169,1.45624 -0.158723,0.0821 -0.319009,0.16161 -0.482141,0.23461 -1.05556,0.66166 -0.802955,-0.55464 -0.306441,-1.05575 0.119911,-0.47098 0.355382,-0.64172 0.598413,-0.6351 z m 1.569413,1.65675 c 1.109205,0.008 1.560989,1.62846 0.322978,2.11976 -1.449974,0.96695 -0.638448,-1.53191 -0.552938,-2.09909 0.07949,-0.0146 0.156013,-0.0212 0.22996,-0.0207 z m 7.88324,0.29714 c 0.54404,-0.009 0.982782,0.78542 1.038696,1.50791 -0.422659,0.71918 -1.804857,-0.30098 -1.819527,-0.91622 0.264781,-0.41813 0.533539,-0.58771 0.780831,-0.59169 z m -5.50509,0.86403 c 0.07433,-5.1e-4 0.153192,0.008 0.237194,0.0248 1.148418,0.0253 0.831845,1.05582 0.303858,1.66295 -0.222958,0.26136 -0.924199,1.8978 -1.296045,1.03611 -0.407554,-0.81059 -0.360004,-2.71622 0.754993,-2.72386 z m 3.111438,0.25838 c 0.815636,-0.0235 1.457269,0.93328 1.315681,1.78335 -0.01448,0.30668 0.0097,0.66017 -0.204638,0.91054 -1.081659,0.0429 -1.525036,-1.66312 -1.696021,-2.50786 0.199289,-0.12313 0.396753,-0.18062 0.584978,-0.18603 z m -1.292945,0.63975 c 0.646303,0.83487 1.131785,2.03942 0.660425,3.0763 -0.04866,0.14042 -0.100393,0.27984 -0.157613,0.41703 -0.231623,1.193 -1.172372,0.54632 -1.176672,-0.33021 -0.423444,-1.08271 -0.278024,-2.41277 0.67386,-3.16312 z" transform="matrix(1.5,0,0,1.5,71.255438,-22.84028)" class="UnoptimicedTransforms"/>
			<ellipse style="fill:#b08d30;fill-opacity:1;stroke:#4e4627;stroke-width:0.842361;stroke-dasharray:none;stroke-opacity:1" id="path5313" cx="107.51596" cy="74.797607" rx="13.233358" ry="13.089473"/>
		</g>
	</g>
</svg>
