<?xml version="1.0" encoding="UTF-8" standalone="no"?>
<!-- Created with Inkscape (http://www.inkscape.org/) -->

<svg width="612" height="792" viewBox="0 0 612 792" version="1.1" id="svg5" xml:space="preserve" inkscape:version="1.2.2 (732a01da63, 2022-12-09)" sodipodi:docname="392.svg" xmlns:inkscape="http://www.inkscape.org/namespaces/inkscape" xmlns:sodipodi="http://sodipodi.sourceforge.net/DTD/sodipodi-0.dtd" xmlns="http://www.w3.org/2000/svg" xmlns:svg="http://www.w3.org/2000/svg">
	<sodipodi:namedview id="namedview7" pagecolor="#ffffff" bordercolor="#666666" borderopacity="1.0" inkscape:showpageshadow="2" inkscape:pageopacity="0.0" inkscape:pagecheckerboard="0" inkscape:deskcolor="#d1d1d1" inkscape:document-units="mm" showgrid="false" inkscape:zoom="0.76167929" inkscape:cx="258.63904" inkscape:cy="657.75715" inkscape:window-width="1920" inkscape:window-height="1009" inkscape:window-x="1912" inkscape:window-y="-8" inkscape:window-maximized="1" inkscape:current-layer="octagon" />
	<defs id="defs2">
		<inkscape:path-effect effect="knot" id="path-effect15574" is_visible="true" lpeversion="1" switcher_size="15" interruption_width="3" prop_to_stroke_width="true" add_stroke_width="inkscape_1.0_and_up" both="false" inverse_width="false" add_other_stroke_width="inkscape_1.0_and_up" crossing_points_vector="" />
		<inkscape:path-effect effect="knot" id="path-effect13075" is_visible="true" lpeversion="1" switcher_size="15" interruption_width="3" prop_to_stroke_width="true" add_stroke_width="inkscape_1.0_and_up" both="false" inverse_width="false" add_other_stroke_width="inkscape_1.0_and_up" crossing_points_vector="" />
		<inkscape:path-effect effect="fill_between_many" method="originald" linkedpaths="#path3060,0,1" id="path-effect4080" />
		<inkscape:path-effect effect="fill_between_many" method="originald" linkedpaths="#path3060,0,1" id="path-effect4080-0" is_visible="true" lpeversion="0" join="true" close="true" autoreverse="true" />
		<inkscape:path-effect effect="fill_between_many" method="originald" linkedpaths="#path17442,0,1" id="path-effect17444" />
		<inkscape:path-effect effect="fill_between_many" method="originald" linkedpaths="#path17879,0,1" id="path-effect17881" />
		<inkscape:path-effect effect="fill_between_many" method="originald" linkedpaths="#path18250,0,1" id="path-effect18252" />
	</defs>
	<g display="none" id="octagon">
		<polygon id="octagonOutline" points="305,516.5 218.733,480.768 183,394.5 218.733,308.233 305,272.5    391.268,308.233 427,394.5 391.268,480.768  " stroke-width="2" stroke="#0000FF" fill="none" />
		<line id="mod1" y2="345.7" x2="407.5" y1="345.7" x1="202.5" stroke-width="2" stroke="#0000FF" fill="none" />
		<line id="mod2" y2="443.3" x2="407.5" y1="443.3" x1="202.5" stroke-width="2" stroke="#0000FF" fill="none" />
		<path d="m 179.56,317.5 126.44,-73 127.44223,72.99999 m -253.88223,0 v 0 -80.26865 0 h 253.88223 v 80.26865 0" style="fill:none;stroke:#0000ff;stroke-width:1.999;stroke-linecap:butt;stroke-linejoin:miter;stroke-miterlimit:4;stroke-dasharray:none;stroke-opacity:1" id="amplifierD" />
		<rect y="150.52045" x="441.47321" height="97.589767" width="168.22823" id="amplifierAC" style="fill:none;fill-opacity:1;stroke:#0000ff;stroke-width:1.99172;stroke-linecap:round;stroke-linejoin:miter;stroke-miterlimit:4;stroke-dasharray:none;stroke-opacity:1;paint-order:markers fill stroke" />
		<rect style="fill:none;fill-opacity:1;stroke:#0000ff;stroke-width:1.99172;stroke-linecap:round;stroke-linejoin:miter;stroke-miterlimit:4;stroke-dasharray:none;stroke-opacity:1;paint-order:markers fill stroke" id="amplifierG" width="168.22823" height="97.589767" x="441.47321" y="248.11023" />
		<rect y="345.70001" x="441.47321" height="97.589767" width="168.22823" id="amplifierH" style="fill:none;fill-opacity:1;stroke:#0000ff;stroke-width:1.99172;stroke-linecap:round;stroke-linejoin:miter;stroke-miterlimit:4;stroke-dasharray:none;stroke-opacity:1;paint-order:markers fill stroke" />
		<rect style="fill:none;fill-opacity:1;stroke:#0000ff;stroke-width:1.99172;stroke-linecap:round;stroke-linejoin:miter;stroke-miterlimit:4;stroke-dasharray:none;stroke-opacity:1;paint-order:markers fill stroke" id="amplifierM" width="168.22823" height="97.589767" x="441.47321" y="443.28979" />
		<rect y="540.87958" x="441.47321" height="97.589767" width="168.22823" id="amplifierJKP" style="fill:none;fill-opacity:1;stroke:#0000ff;stroke-width:1.99172;stroke-linecap:round;stroke-linejoin:miter;stroke-miterlimit:4;stroke-dasharray:none;stroke-opacity:1;paint-order:markers fill stroke" />
		<rect style="fill:none;fill-opacity:1;stroke:#0000ff;stroke-width:1.99172;stroke-linecap:round;stroke-linejoin:miter;stroke-miterlimit:4;stroke-dasharray:none;stroke-opacity:1;paint-order:markers fill stroke" id="amplifierW" width="168.22823" height="97.589767" x="2.8270514" y="150.52045" />
		<rect y="248.11021" x="2.8270514" height="97.589767" width="168.22823" id="amplifierXY" style="fill:none;fill-opacity:1;stroke:#0000ff;stroke-width:1.99172;stroke-linecap:round;stroke-linejoin:miter;stroke-miterlimit:4;stroke-dasharray:none;stroke-opacity:1;paint-order:markers fill stroke" />
		<rect style="fill:none;fill-opacity:1;stroke:#0000ff;stroke-width:1.99172;stroke-linecap:round;stroke-linejoin:miter;stroke-miterlimit:4;stroke-dasharray:none;stroke-opacity:1;paint-order:markers fill stroke" id="amplifierVAF" width="168.22823" height="97.589767" x="2.8270514" y="345.69998" />
		<rect y="443.28973" x="2.8270514" height="97.589767" width="168.22823" id="amplifierT" style="fill:none;fill-opacity:1;stroke:#0000ff;stroke-width:1.99172;stroke-linecap:round;stroke-linejoin:miter;stroke-miterlimit:4;stroke-dasharray:none;stroke-opacity:1;paint-order:markers fill stroke" />
		<rect style="fill:none;fill-opacity:1;stroke:#0000ff;stroke-width:1.99172;stroke-linecap:round;stroke-linejoin:miter;stroke-miterlimit:4;stroke-dasharray:none;stroke-opacity:1;paint-order:markers fill stroke" id="amplifierZ" width="168.22823" height="97.589767" x="2.8270514" y="540.87952" />
		<rect y="139.86548" x="179.78391" height="97.141968" width="253.54138" id="amplifierAB" style="fill:none;fill-opacity:1;stroke:#0000ff;stroke-width:2.43953;stroke-linecap:round;stroke-linejoin:miter;stroke-miterlimit:4;stroke-dasharray:none;stroke-opacity:1;paint-order:markers fill stroke" />
		<rect style="fill:none;fill-opacity:1;stroke:#0000ff;stroke-width:2.43953;stroke-linecap:round;stroke-linejoin:miter;stroke-miterlimit:4;stroke-dasharray:none;stroke-opacity:1;paint-order:markers fill stroke" id="amplifierR" width="253.54138" height="97.141968" x="179.45253" y="547.46027" />
		<path id="amplifierQ" d="m 306.85589,644.52992 v 52.02633" style="fill:#0000ff;stroke:#0000ff;stroke-width:1.999;stroke-linecap:butt;stroke-linejoin:miter;stroke-opacity:1;fill-opacity:1;stroke-miterlimit:4;stroke-dasharray:none" />
	</g>
	<g inkscape:label="Layer 1" inkscape:groupmode="layer" id="layer1">
		<g id="g2227" transform="translate(436.63324,274.62536)">
			<path style="color:#000000;fill:#b9b9b9;fill-opacity:1;stroke:#b9b9b9;stroke-width:3.175;stroke-dasharray:none;stroke-opacity:1" d="m 88.558594,47.673828 c -12.14199,0 -20.403939,8.173961 -23.38086,17.894531 -1.856426,6.061802 -0.859759,11.427613 0.832032,15.353516 0.612679,1.42176 1.315753,2.448924 2,3.5 -1.936532,2.678543 -3.34083,5.699289 -3.695313,9.041016 -0.756307,7.129739 0.698481,15.280889 6.214844,20.816409 l 1.74414,1.75 -3.460937,3.46484 c -2.138708,2.14152 -3.875041,4.85092 -4.429688,7.96484 -0.554646,3.11393 0.333636,6.67108 3.050782,9.39258 l 4.964843,4.97266 -1.716796,1.73828 0.113281,-0.10742 c -3.192054,2.86962 -5.401755,5.43729 -6.25,8.53906 -0.848245,3.10177 0.02609,6.30981 1.908203,9.43555 0.471247,0.78263 0.984954,1.34165 1.769531,2.22265 0.784577,0.881 1.782625,1.94677 2.935547,3.15039 0.278994,0.29127 0.696074,0.69973 0.992188,1.00586 l -3.50586,3.51172 c -2.350823,2.31466 -3.872568,5.12409 -4.193359,8.10938 -0.320791,2.98529 0.656536,6.08506 2.841797,8.54883 3.519689,3.96827 10.170594,5.84626 15.96875,1.75781 l 0.18164,-0.12696 5.421875,-5.37109 c 1.300737,1.22897 3.786169,3.69631 4.40625,4.23242 3.38165,2.92372 6.973906,3.93839 10.050786,3.4961 3.07687,-0.4423 5.44271,-2.14492 7.06054,-3.87696 1.82281,-1.95147 2.89391,-4.6929 2.92383,-7.71093 0.0299,-3.01803 -1.12429,-6.35089 -3.86719,-8.94141 l 0.0566,0.0547 -3.85937,-3.86719 4.12305,-4.08398 c 2.80032,-2.77404 3.8887,-6.28987 3.63281,-9.45704 -0.2559,-3.16716 -1.6996,-5.99523 -3.74414,-8.04687 l -4.13867,-4.15234 4.38281,-4.39063 c 2.35069,-2.35454 3.71114,-5.51439 3.68164,-8.79492 -0.0295,-3.28053 -1.55104,-6.65997 -4.57617,-9.08008 l 0.23633,0.21484 -3.81836,-3.90039 3.76953,-3.81445 c 3.21277,-3.25184 4.30914,-8.24286 4.36914,-13.281249 0.0598,-5.01979 -0.98157,-10.16041 -3.56055,-13.9375 3.06339,-4.8043 5.17683,-11.967993 2.62109,-19.570313 -1.32544,-3.942686 -3.67309,-8.314086 -7.58007,-11.767578 -3.90699,-3.453492 -9.409242,-5.888672 -16.476566,-5.888672 z m 0,5.291016 c 5.89004,0 9.949872,1.890578 12.972656,4.5625 3.02278,2.671922 4.97157,6.225755 6.06836,9.488281 1.65435,4.921065 0.48757,9.997599 -1.25586,13.59375 -4.07594,-3.952201 -9.890756,-7.273015 -17.216797,-7.501953 -5.278745,-0.16496 -10.948613,2.078237 -15.654297,5.677734 -0.613569,0.469335 -1.156132,1.030167 -1.734375,1.548828 -0.294029,-0.526548 -0.609374,-0.903055 -0.86914,-1.505859 -1.31465,-3.050725 -2.084824,-6.9633 -0.63086,-11.710938 2.449174,-7.997312 8.477384,-14.152343 18.320313,-14.152343 z m 0.404297,25.43164 c 6.158496,0.192453 10.983137,3.20536 14.269529,6.632813 L 89.054687,99.224609 74.808594,84.671875 c 0.605402,-0.578578 1.201747,-1.165617 1.878906,-1.683594 3.868437,-2.959066 8.715695,-4.703036 12.275391,-4.591797 z m -17.496094,10.425782 13.849609,14.146484 -9.304687,9.31641 -1.734375,-1.74024 c -3.958155,-3.97189 -5.332067,-10.557549 -4.699219,-16.523436 0.187347,-1.766132 0.896704,-3.520169 1.888672,-5.199218 z m 34.802733,0.652343 c 1.17964,2.473988 2.03351,5.830576 1.99219,9.300782 -0.0498,4.179159 -1.30526,8.071759 -2.83984,9.624999 l -3.70704,3.75195 -8.957028,-9.14648 z m -17.251952,17.273441 8.976563,9.16992 -9.140625,9.25195 -9.107422,-9.13672 z m 12.679692,12.95117 3.86914,3.95117 0.125,0.10156 c 1.88738,1.50991 2.57588,3.22487 2.59179,4.99414 0.0159,1.76927 -0.74417,3.61494 -2.13672,5.00977 l -4.37304,4.37891 -9.185549,-9.21485 z m -25.689458,0.0781 9.126954,9.15821 -9.015625,9.125 -4.941407,-4.94922 c -1.622667,-1.62527 -1.884672,-3.03647 -1.583984,-4.72461 0.300688,-1.68814 1.424185,-3.61357 2.962891,-5.1543 z m 12.861329,12.90625 9.166015,9.19727 -9.050781,9.06641 -9.126953,-9.14063 z m -12.730469,12.88672 9.105469,9.1211 -9.353516,9.37109 c -0.268099,-0.27734 -0.657592,-0.65625 -0.910156,-0.91992 -1.12603,-1.17555 -2.090968,-2.20833 -2.804688,-3.00977 -0.71372,-0.80143 -1.234249,-1.50799 -1.189453,-1.43359 -1.489601,-2.47388 -1.733301,-3.85556 -1.335937,-5.3086 0.397363,-1.45303 1.796392,-3.40443 4.683593,-6 l 0.05859,-0.0527 z m 25.632808,0.0586 4.12891,4.14453 c 1.17182,1.17588 2.07359,2.9639 2.2168,4.73633 0.1432,1.77242 -0.31522,3.52126 -2.08203,5.27148 l -4.13868,4.09961 -9.173824,-9.18945 z m -12.787105,12.80859 9.152344,9.16797 -9.328125,9.24023 c -2.226025,-2.1478 -3.239176,-3.04051 -5.716797,-5.49609 -1.269176,-1.25789 -2.280128,-2.31205 -3.482422,-3.52344 z m 12.892575,12.91211 3.90039,3.9082 0.0293,0.0273 c 1.67838,1.58513 2.22593,3.33157 2.20899,5.04101 -0.017,1.70944 -0.74265,3.34153 -1.5,4.15235 -1.02157,1.09368 -2.43178,2.03243 -3.94532,2.25 -1.51354,0.21757 -3.324515,-0.0887 -5.837888,-2.26172 -0.432002,-0.37351 -2.938551,-2.84547 -4.109375,-3.95118 z m -26.007809,0.22266 c 1.205215,1.2141 2.228124,2.28042 3.496093,3.5371 2.433576,2.41193 3.51514,3.36265 5.683594,5.46094 l -4.9375,4.89063 c -3.733237,2.56827 -6.806257,1.32065 -8.859375,-0.99414 -1.302813,-1.46886 -1.706497,-2.91256 -1.539062,-4.47071 0.167434,-1.55814 1.003923,-3.29088 2.644531,-4.90625 l 0.0078,-0.008 z" id="path5259" />
			<path style="color:#000000;fill:none;stroke:#b9b9b9;stroke-width:3.175;stroke-dasharray:none;stroke-opacity:1" d="m 83.490234,112.28516 24.546876,-24.580082 0.0449,-0.05078 c 3.99636,-4.440391 7.60869,-13.175847 4.5332,-22.324219 -1.32544,-3.942686 -3.67309,-8.314086 -7.58007,-11.767578 -3.90699,-3.453492 -9.409242,-5.888672 -16.476566,-5.888672 l 2e-5,-10e-7 c -12.14199,0 -20.403939,8.173961 -23.38086,17.894531 -1.350772,4.410686 -1.202359,8.47506 -0.357422,11.851563 m 5.132813,-1.285156 c -0.643371,-2.571014 -0.772777,-5.563104 0.285156,-9.017579 2.449174,-7.997312 8.477384,-14.152343 18.320313,-14.152343 5.89004,0 9.949872,1.890578 12.972656,4.5625 3.02278,2.671922 4.97157,6.225755 6.06836,9.488281 2.30763,6.864303 -0.80443,14.145024 -3.4375,17.082031 L 79.746094,108.54492 m 5.386718,12.89258 -10.855468,-10.89258 c -3.958155,-3.97189 -5.332067,-10.557549 -4.699219,-16.523436 0.427491,-4.029979 3.240938,-8.074137 7.109375,-11.033203 3.868437,-2.959066 8.715695,-4.703036 12.275391,-4.591797 4.130675,0.129084 7.639208,1.493418 10.535156,3.429688 m 2.941403,-4.398438 c -3.596087,-2.404394 -8.101583,-4.157472 -13.312497,-4.320312 -5.278745,-0.16496 -10.948613,2.078237 -15.654297,5.677734 -4.705683,3.599498 -8.522792,8.687684 -9.158203,14.677735 -0.756307,7.129739 0.698481,15.280889 6.214844,20.816409 l 10.855469,10.89258 m 27.800804,-13.05265 0.004,-0.004 m 0,0 c 4.48903,-4.5477 5.12906,-12.415885 3.85743,-19.259761 m -5.20325,0.966797 c 1.03721,5.582215 -0.27605,12.406204 -2.42187,14.578124 l -0.002,0.002 -0.0195,0.0215 m -22.064443,55.66986 26.556643,-26.59961 c 2.35069,-2.35454 3.71114,-5.51439 3.68164,-8.79492 -0.0295,-3.28053 -1.55104,-6.65997 -4.57617,-9.08008 l 0.23633,0.21484 -12.753911,-13.02734 m -3.78125,3.70313 12.867191,13.14062 0.125,0.10156 c 1.88738,1.50991 2.57588,3.22487 2.59179,4.99414 0.0159,1.76927 -0.74417,3.61494 -2.13672,5.00977 l -26.554683,26.59766 m 5.351562,12.82617 c -3.261749,-3.21125 -6.607911,-6.56048 -9.238281,-9.28321 -1.315185,-1.36136 -2.453458,-2.56777 -3.298828,-3.50586 -0.84537,-0.93808 -1.469392,-1.77356 -1.419922,-1.6914 -1.489601,-2.47388 -1.733301,-3.85556 -1.335937,-5.3086 0.397363,-1.45303 1.796392,-3.40443 4.683593,-6 l 0.05859,-0.0527 23.617188,-23.9043 m -3.765621,-3.71878 -23.5625,23.84766 0.113281,-0.10742 c -3.192054,2.86962 -5.401755,5.43729 -6.25,8.53906 -0.848245,3.10177 0.02609,6.30981 1.908203,9.43555 0.520406,0.86427 1.109261,1.48947 2.023437,2.5039 0.914177,1.01444 2.081062,2.25078 3.421875,3.63868 2.681628,2.77578 6.048918,6.14662 9.332032,9.3789 M 68.486328,119.82813 c -2.036508,2.14317 -3.665719,4.81886 -4.142578,7.87109 -0.476859,3.05223 0.442553,6.50081 3.089844,9.15234 l 1.21289,1.2168 m 3.746094,-3.74024 -1.214844,-1.21679 c -1.58095,-1.58349 -1.860783,-2.95956 -1.605468,-4.59375 0.255314,-1.63419 1.288626,-3.50701 2.75,-5.04492 m 37.064454,40.43552 0.37305,-0.36718 c 2.80032,-2.77404 3.8887,-6.28987 3.63281,-9.45704 -0.2559,-3.16716 -1.6996,-5.99523 -3.74414,-8.04687 l -0.40039,-0.40039 m -3.74805,3.73633 0.40039,0.40039 c 1.17182,1.17588 2.07359,2.9639 2.2168,4.73633 0.1432,1.77242 -0.31522,3.52126 -2.08203,5.27148 l -0.3711,0.36719 m -12.892576,27.87885 c 0.186451,0.16801 0.352075,0.31546 0.5,0.44336 3.38165,2.92372 6.973906,3.93839 10.050786,3.4961 3.07687,-0.4423 5.44271,-2.14492 7.06054,-3.87696 1.82281,-1.95147 2.89391,-4.6929 2.92383,-7.71093 0.0299,-3.01803 -1.12429,-6.35089 -3.86719,-8.94141 l 0.0566,0.0547 -13.031206,-13.0527 m -3.746094,3.73828 13.05859,13.08008 0.0293,0.0273 c 1.67838,1.58513 2.22593,3.33157 2.20899,5.04101 -0.017,1.70944 -0.74265,3.34153 -1.5,4.15235 -1.02157,1.09368 -2.43178,2.03243 -3.94532,2.25 -1.51354,0.21757 -3.324515,-0.0887 -5.837888,-2.26172 -0.108512,-0.0938 -0.250274,-0.21803 -0.417969,-0.36914 m -1.929687,-12.77534 -14.273438,14.13867 c -3.733237,2.56827 -6.806257,1.32065 -8.859375,-0.99414 -1.274899,-1.43739 -1.685284,-2.85158 -1.548828,-4.3711 0.136456,-1.51952 0.907285,-3.20474 2.447266,-4.79687 m -3.804688,-3.67969 c -2.228517,2.30399 -3.651273,5.07759 -3.914062,8.00391 -0.262789,2.92631 0.72289,5.94448 2.861328,8.35547 3.519689,3.96827 10.170594,5.84626 15.96875,1.75781 l 0.18164,-0.12696 14.666016,-14.52929" id="path13073" sodipodi:nodetypes="cccssccsccssssccccsssccssscccccccsccccsccccccscccsscsscccccssssccscccsscccsccccsccccssscccccccssscccssccssccc" />
			<ellipse style="fill:#b08d30;fill-opacity:1;stroke:#4e4627;stroke-width:0.842361;stroke-dasharray:none;stroke-opacity:1" id="path5313" cx="88.346573" cy="68.071175" rx="13.233358" ry="13.089473" />
		</g>
	</g>
</svg>
