<?xml version="1.0" encoding="UTF-8" standalone="no"?>
<!-- Created with Inkscape (http://www.inkscape.org/) -->
<svg width="612" height="792" viewBox="0 0 612 792" version="1.1" id="svg5" xml:space="preserve" inkscape:version="1.2.2 (732a01da63, 2022-12-09)" sodipodi:docname="OF7.svg" xmlns:inkscape="http://www.inkscape.org/namespaces/inkscape" xmlns:sodipodi="http://sodipodi.sourceforge.net/DTD/sodipodi-0.dtd" xmlns="http://www.w3.org/2000/svg" xmlns:svg="http://www.w3.org/2000/svg">
	<sodipodi:namedview id="namedview7" pagecolor="#ffffff" bordercolor="#666666" borderopacity="1.0" inkscape:showpageshadow="2" inkscape:pageopacity="0.0" inkscape:pagecheckerboard="0" inkscape:deskcolor="#d1d1d1" inkscape:document-units="mm" showgrid="false" inkscape:zoom="0.76167929" inkscape:cx="441.78699" inkscape:cy="656.44426" inkscape:window-width="1920" inkscape:window-height="1009" inkscape:window-x="1912" inkscape:window-y="-8" inkscape:window-maximized="1" inkscape:current-layer="layer1"/>
	<defs id="defs2">
		<inkscape:path-effect effect="knot" id="path-effect15574" is_visible="true" lpeversion="1" switcher_size="15" interruption_width="3" prop_to_stroke_width="true" add_stroke_width="inkscape_1.0_and_up" both="false" inverse_width="false" add_other_stroke_width="inkscape_1.0_and_up" crossing_points_vector=""/>
		<inkscape:path-effect effect="knot" id="path-effect13075" is_visible="true" lpeversion="1" switcher_size="15" interruption_width="3" prop_to_stroke_width="true" add_stroke_width="inkscape_1.0_and_up" both="false" inverse_width="false" add_other_stroke_width="inkscape_1.0_and_up" crossing_points_vector=""/>
		<inkscape:path-effect effect="fill_between_many" method="originald" linkedpaths="#path3060,0,1|" id="path-effect4080"/>
	</defs>
	<g display="none" id="octagon">
		<polygon id="octagonOutline" points="305,516.5 218.733,480.768 183,394.5 218.733,308.233 305,272.5    391.268,308.233 427,394.5 391.268,480.768  " stroke-width="2" stroke="#0000FF" fill="none"/>
		<line id="mod1" y2="345.7" x2="407.5" y1="345.7" x1="202.5" stroke-width="2" stroke="#0000FF" fill="none"/>
		<line id="mod2" y2="443.3" x2="407.5" y1="443.3" x1="202.5" stroke-width="2" stroke="#0000FF" fill="none"/>
		<path d="m 179.56,317.5 126.44,-73 127.44223,72.99999 m -253.88223,0 v 0 -80.26865 0 h 253.88223 v 80.26865 0" style="fill:none;stroke:#0000ff;stroke-width:1.999;stroke-linecap:butt;stroke-linejoin:miter;stroke-miterlimit:4;stroke-dasharray:none;stroke-opacity:1" id="amplifierD"/>
		<rect y="150.52045" x="441.47321" height="97.589767" width="168.22823" id="amplifierAC" style="fill:none;fill-opacity:1;stroke:#0000ff;stroke-width:1.99172;stroke-linecap:round;stroke-linejoin:miter;stroke-miterlimit:4;stroke-dasharray:none;stroke-opacity:1;paint-order:markers fill stroke"/>
		<rect style="fill:none;fill-opacity:1;stroke:#0000ff;stroke-width:1.99172;stroke-linecap:round;stroke-linejoin:miter;stroke-miterlimit:4;stroke-dasharray:none;stroke-opacity:1;paint-order:markers fill stroke" id="amplifierG" width="168.22823" height="97.589767" x="441.47321" y="248.11023"/>
		<rect y="345.70001" x="441.47321" height="97.589767" width="168.22823" id="amplifierH" style="fill:none;fill-opacity:1;stroke:#0000ff;stroke-width:1.99172;stroke-linecap:round;stroke-linejoin:miter;stroke-miterlimit:4;stroke-dasharray:none;stroke-opacity:1;paint-order:markers fill stroke"/>
		<rect style="fill:none;fill-opacity:1;stroke:#0000ff;stroke-width:1.99172;stroke-linecap:round;stroke-linejoin:miter;stroke-miterlimit:4;stroke-dasharray:none;stroke-opacity:1;paint-order:markers fill stroke" id="amplifierM" width="168.22823" height="97.589767" x="441.47321" y="443.28979"/>
		<rect y="540.87958" x="441.47321" height="97.589767" width="168.22823" id="amplifierJKP" style="fill:none;fill-opacity:1;stroke:#0000ff;stroke-width:1.99172;stroke-linecap:round;stroke-linejoin:miter;stroke-miterlimit:4;stroke-dasharray:none;stroke-opacity:1;paint-order:markers fill stroke"/>
		<rect style="fill:none;fill-opacity:1;stroke:#0000ff;stroke-width:1.99172;stroke-linecap:round;stroke-linejoin:miter;stroke-miterlimit:4;stroke-dasharray:none;stroke-opacity:1;paint-order:markers fill stroke" id="amplifierW" width="168.22823" height="97.589767" x="2.8270514" y="150.52045"/>
		<rect y="248.11021" x="2.8270514" height="97.589767" width="168.22823" id="amplifierXY" style="fill:none;fill-opacity:1;stroke:#0000ff;stroke-width:1.99172;stroke-linecap:round;stroke-linejoin:miter;stroke-miterlimit:4;stroke-dasharray:none;stroke-opacity:1;paint-order:markers fill stroke"/>
		<rect style="fill:none;fill-opacity:1;stroke:#0000ff;stroke-width:1.99172;stroke-linecap:round;stroke-linejoin:miter;stroke-miterlimit:4;stroke-dasharray:none;stroke-opacity:1;paint-order:markers fill stroke" id="amplifierVAF" width="168.22823" height="97.589767" x="2.8270514" y="345.69998"/>
		<rect y="443.28973" x="2.8270514" height="97.589767" width="168.22823" id="amplifierT" style="fill:none;fill-opacity:1;stroke:#0000ff;stroke-width:1.99172;stroke-linecap:round;stroke-linejoin:miter;stroke-miterlimit:4;stroke-dasharray:none;stroke-opacity:1;paint-order:markers fill stroke"/>
		<rect style="fill:none;fill-opacity:1;stroke:#0000ff;stroke-width:1.99172;stroke-linecap:round;stroke-linejoin:miter;stroke-miterlimit:4;stroke-dasharray:none;stroke-opacity:1;paint-order:markers fill stroke" id="amplifierZ" width="168.22823" height="97.589767" x="2.8270514" y="540.87952"/>
		<rect y="139.86548" x="179.78391" height="97.141968" width="253.54138" id="amplifierAB" style="fill:none;fill-opacity:1;stroke:#0000ff;stroke-width:2.43953;stroke-linecap:round;stroke-linejoin:miter;stroke-miterlimit:4;stroke-dasharray:none;stroke-opacity:1;paint-order:markers fill stroke"/>
		<rect style="fill:none;fill-opacity:1;stroke:#0000ff;stroke-width:2.43953;stroke-linecap:round;stroke-linejoin:miter;stroke-miterlimit:4;stroke-dasharray:none;stroke-opacity:1;paint-order:markers fill stroke" id="amplifierR" width="253.54138" height="97.141968" x="179.45253" y="547.46027"/>
		<path id="amplifierQ" d="m 306.85589,644.52992 v 52.02633" style="fill:#0000ff;stroke:#0000ff;stroke-width:1.999;stroke-linecap:butt;stroke-linejoin:miter;stroke-opacity:1;fill-opacity:1;stroke-miterlimit:4;stroke-dasharray:none"/>
	</g>
	<g inkscape:label="Layer 1" inkscape:groupmode="layer" id="layer1">
		<g id="g2227" transform="translate(436.61667,274.63053)">
			<path style="color:#000000;fill:#dfc73f;fill-opacity:1;stroke-width:0.26458333;stroke-dasharray:none;stroke:#000000;stroke-opacity:1" d="m 88.558594,42.382812 c -14.441048,0 -24.934786,10.190939 -28.439453,21.634766 -2.25889,7.375966 -1.039634,14.198921 1.029296,19 0.230341,0.53452 0.497896,0.814005 0.740235,1.302734 -1.402235,2.594539 -2.498459,5.40256 -2.835938,8.583985 -0.796021,7.504133 0.430003,16.154733 5.902344,22.996093 -2.684058,2.72286 -4.985173,6.16148 -5.78125,10.63086 -0.808605,4.53972 0.70205,10.24086 4.513672,14.05859 l 1.298828,1.30078 c -2.429073,2.47099 -4.557656,5.09886 -5.544922,8.70899 -1.299126,4.7505 0.203895,9.78099 2.478516,13.55859 0.98729,1.63965 1.496129,2.05116 2.351562,3.01172 0.142699,0.16024 0.359436,0.38085 0.511719,0.54883 -2.977726,2.99118 -5.127911,6.81137 -5.59375,11.14648 -0.474147,4.41243 1.076824,9.16632 4.144531,12.625 4.966812,5.59984 15.163482,8.08092 22.978516,2.57032 l 0.541016,-0.38086 2.074218,-2.05469 c 0.178771,0.15909 0.728276,0.71405 0.882813,0.84766 4.249925,3.67442 9.625424,5.39944 14.265623,4.73242 4.6402,-0.66703 7.95973,-3.13156 10.17383,-5.50196 2.88825,-3.09213 4.30671,-6.94486 4.34961,-11.27148 0.0427,-4.3035 -1.70927,-9.1886 -5.47461,-12.7793 l 0.006,-0.006 0.10937,0.10547 -0.10742,-0.10742 0.34961,-0.3457 c 3.83383,-3.79784 5.55218,-9.07873 5.1836,-13.64063 -0.36859,-4.5619 -2.35227,-8.42807 -5.26954,-11.35547 l -0.41406,-0.41601 0.6543,-0.6543 c 3.30884,-3.31425 5.27161,-7.79025 5.22851,-12.58203 -0.0411,-4.57565 -2.24397,-9.33642 -6.0625,-12.66016 l 0.0254,-0.0273 0.1875,0.16992 -0.17579,-0.17968 0.11133,-0.11329 c 4.89097,-4.95044 5.8243,-11.04184 5.89453,-16.939449 0.0565,-4.741158 -0.65806,-9.487887 -2.77148,-13.88086 2.91197,-5.797753 4.29443,-13.23114 1.55664,-21.375 -1.5541,-4.622846 -4.29866,-9.811814 -9.08984,-14.046875 -4.79119,-4.23506 -11.737819,-7.214843 -19.982426,-7.214844 z m 0,15.875 c 4.712758,0 7.330166,1.344022 9.46875,3.234375 2.138586,1.890354 3.688506,4.628571 4.556636,7.210938 0.31212,0.928434 0.35627,1.918526 0.37305,2.902344 -3.883121,-2.134669 -8.427075,-3.623454 -13.664061,-3.78711 -5.107078,-0.159595 -9.9352,1.285468 -14.332032,3.710938 0.05054,-0.916065 0.0039,-1.77067 0.337891,-2.861328 1.921427,-6.274056 5.715896,-10.410157 13.259766,-10.410157 z m 0.238281,25.427735 c 2.428848,0.0759 4.543885,0.849017 6.427734,1.871094 l -6.132812,6.140625 -6.064453,-6.19336 c 2.274546,-1.095524 4.516405,-1.857519 5.769531,-1.818359 z m -13.699219,16.410153 2.775391,2.83594 -1.482422,1.48438 c -0.616354,-1.24515 -1.017138,-2.74213 -1.292969,-4.32032 z m 27.556644,0.48828 c -0.37564,2.2282 -0.99084,3.95579 -0.95703,3.98829 l -1.49805,-1.5293 z m -13.673831,13.69141 1.591797,1.625 -1.736329,1.75781 -1.615234,-1.62109 z m 12.701171,12.9707 0.32813,0.33594 0.37695,0.30078 c 0.74964,0.59971 0.60119,0.65214 0.60351,0.91016 0.002,0.25801 -0.15349,0.78754 -0.58789,1.22265 l -0.62695,0.62696 -1.73242,-1.73828 z m -25.613281,0.0898 1.611328,1.61523 -1.582031,1.59961 -1.175781,-1.17773 c -0.528191,-0.52904 -0.16587,0.20375 -0.119141,-0.0586 0.03948,-0.22165 0.585053,-1.15369 1.265625,-1.97851 z m 12.81836,12.85937 1.673828,1.68164 -1.576172,1.58008 -1.669922,-1.67187 z m -12.707032,12.90625 1.587891,1.58985 -1.775391,1.77929 c -0.423004,-0.53396 -0.909258,-1.22704 -0.472656,-0.50195 -1.097092,-1.82201 -0.712107,-1.37734 -0.765625,-1.18164 -0.03575,0.13071 0.486058,-0.61248 1.425781,-1.68555 z m 25.587893,0.0195 0.38476,0.38672 c 0.29909,0.30013 0.65894,1.05005 0.68946,1.42774 0.0305,0.37769 0.20205,0.35952 -0.53125,1.08593 l -0.39258,0.38868 -1.7168,-1.71875 z m -12.783205,12.80469 1.654297,1.6582 -1.886719,1.86914 c -0.745491,-0.73018 -0.938516,-0.88192 -1.677734,-1.61328 z m 12.871095,12.89258 0.23242,0.23242 0.084,0.0801 c 0.61385,0.57975 0.5567,0.74173 0.55273,1.14258 -0.004,0.40085 -0.38427,0.92359 -0.0762,0.59375 -0.4253,0.45532 -0.88182,0.6302 -0.83203,0.62304 0.0498,-0.007 0.022,0.39694 -1.62305,-1.02539 z m -25.951173,0.30078 c 0.662714,0.65631 0.918365,0.86725 1.568359,1.50781 l -0.607422,0.60157 c -1.191567,0.76716 -1.095341,0.35871 -1.654297,-0.27149 -0.420366,-0.47394 -0.252359,-0.26547 -0.238281,-0.39648 0.01194,-0.11115 0.330152,-0.73688 0.931641,-1.44141 z" id="path8842"/>
			<path style="color:#000000;fill:#ccb537;fill-opacity:1;stroke:#000000;stroke-opacity:1;stroke-width:0.52916667;stroke-dasharray:none" d="m 88.558594,47.673828 c -12.14199,0 -20.403939,8.173961 -23.38086,17.894531 -1.856426,6.061802 -0.859759,11.427613 0.832032,15.353516 0.612679,1.42176 1.315753,2.448924 2,3.5 -1.936532,2.678543 -3.34083,5.699289 -3.695313,9.041016 -0.756307,7.129739 0.698481,15.280889 6.214844,20.816409 l 1.74414,1.75 -3.460937,3.46484 c -2.138708,2.14152 -3.875041,4.85092 -4.429688,7.96484 -0.554646,3.11393 0.333636,6.67108 3.050782,9.39258 l 4.964843,4.97266 -1.716796,1.73828 0.113281,-0.10742 c -3.192054,2.86962 -5.401755,5.43729 -6.25,8.53906 -0.848245,3.10177 0.02609,6.30981 1.908203,9.43555 0.471247,0.78263 0.984954,1.34165 1.769531,2.22265 0.784577,0.881 1.782625,1.94677 2.935547,3.15039 0.278994,0.29127 0.696074,0.69973 0.992188,1.00586 l -3.50586,3.51172 c -2.350823,2.31466 -3.872568,5.12409 -4.193359,8.10938 -0.320791,2.98529 0.656536,6.08506 2.841797,8.54883 3.519689,3.96827 10.170594,5.84626 15.96875,1.75781 l 0.18164,-0.12696 5.421875,-5.37109 c 1.300737,1.22897 3.786169,3.69631 4.40625,4.23242 3.38165,2.92372 6.973906,3.93839 10.050786,3.4961 3.07687,-0.4423 5.44271,-2.14492 7.06054,-3.87696 1.82281,-1.95147 2.89391,-4.6929 2.92383,-7.71093 0.0299,-3.01803 -1.12429,-6.35089 -3.86719,-8.94141 l 0.0566,0.0547 -3.85937,-3.86719 4.12305,-4.08398 c 2.80032,-2.77404 3.8887,-6.28987 3.63281,-9.45704 -0.2559,-3.16716 -1.6996,-5.99523 -3.74414,-8.04687 l -4.13867,-4.15234 4.38281,-4.39063 c 2.35069,-2.35454 3.71114,-5.51439 3.68164,-8.79492 -0.0295,-3.28053 -1.55104,-6.65997 -4.57617,-9.08008 l 0.23633,0.21484 -3.81836,-3.90039 3.76953,-3.81445 c 3.21277,-3.25184 4.30914,-8.24286 4.36914,-13.281249 0.0598,-5.01979 -0.98157,-10.16041 -3.56055,-13.9375 3.06339,-4.8043 5.17683,-11.967993 2.62109,-19.570313 -1.32544,-3.942686 -3.67309,-8.314086 -7.58007,-11.767578 -3.90699,-3.453492 -9.409242,-5.888672 -16.476566,-5.888672 z m 0,5.291016 c 5.89004,0 9.949872,1.890578 12.972656,4.5625 3.02278,2.671922 4.97157,6.225755 6.06836,9.488281 1.65435,4.921065 0.48757,9.997599 -1.25586,13.59375 -4.07594,-3.952201 -9.890756,-7.273015 -17.216797,-7.501953 -5.278745,-0.16496 -10.948613,2.078237 -15.654297,5.677734 -0.613569,0.469335 -1.156132,1.030167 -1.734375,1.548828 -0.294029,-0.526548 -0.609374,-0.903055 -0.86914,-1.505859 -1.31465,-3.050725 -2.084824,-6.9633 -0.63086,-11.710938 2.449174,-7.997312 8.477384,-14.152343 18.320313,-14.152343 z m 0.404297,25.43164 c 6.158496,0.192453 10.983137,3.20536 14.269529,6.632813 L 89.054687,99.224609 74.808594,84.671875 c 0.605402,-0.578578 1.201747,-1.165617 1.878906,-1.683594 3.868437,-2.959066 8.715695,-4.703036 12.275391,-4.591797 z m -17.496094,10.425782 13.849609,14.146484 -9.304687,9.31641 -1.734375,-1.74024 c -3.958155,-3.97189 -5.332067,-10.557549 -4.699219,-16.523436 0.187347,-1.766132 0.896704,-3.520169 1.888672,-5.199218 z m 34.802733,0.652343 c 1.17964,2.473988 2.03351,5.830576 1.99219,9.300782 -0.0498,4.179159 -1.30526,8.071759 -2.83984,9.624999 l -3.70704,3.75195 -8.957028,-9.14648 z m -17.251952,17.273441 8.976563,9.16992 -9.140625,9.25195 -9.107422,-9.13672 z m 12.679692,12.95117 3.86914,3.95117 0.125,0.10156 c 1.88738,1.50991 2.57588,3.22487 2.59179,4.99414 0.0159,1.76927 -0.74417,3.61494 -2.13672,5.00977 l -4.37304,4.37891 -9.185549,-9.21485 z m -25.689458,0.0781 9.126954,9.15821 -9.015625,9.125 -4.941407,-4.94922 c -1.622667,-1.62527 -1.884672,-3.03647 -1.583984,-4.72461 0.300688,-1.68814 1.424185,-3.61357 2.962891,-5.1543 z m 12.861329,12.90625 9.166015,9.19727 -9.050781,9.06641 -9.126953,-9.14063 z m -12.730469,12.88672 9.105469,9.1211 -9.353516,9.37109 c -0.268099,-0.27734 -0.657592,-0.65625 -0.910156,-0.91992 -1.12603,-1.17555 -2.090968,-2.20833 -2.804688,-3.00977 -0.71372,-0.80143 -1.234249,-1.50799 -1.189453,-1.43359 -1.489601,-2.47388 -1.733301,-3.85556 -1.335937,-5.3086 0.397363,-1.45303 1.796392,-3.40443 4.683593,-6 l 0.05859,-0.0527 z m 25.632808,0.0586 4.12891,4.14453 c 1.17182,1.17588 2.07359,2.9639 2.2168,4.73633 0.1432,1.77242 -0.31522,3.52126 -2.08203,5.27148 l -4.13868,4.09961 -9.173824,-9.18945 z m -12.787105,12.80859 9.152344,9.16797 -9.328125,9.24023 c -2.226025,-2.1478 -3.239176,-3.04051 -5.716797,-5.49609 -1.269176,-1.25789 -2.280128,-2.31205 -3.482422,-3.52344 z m 12.892575,12.91211 3.90039,3.9082 0.0293,0.0273 c 1.67838,1.58513 2.22593,3.33157 2.20899,5.04101 -0.017,1.70944 -0.74265,3.34153 -1.5,4.15235 -1.02157,1.09368 -2.43178,2.03243 -3.94532,2.25 -1.51354,0.21757 -3.324515,-0.0887 -5.837888,-2.26172 -0.432002,-0.37351 -2.938551,-2.84547 -4.109375,-3.95118 z m -26.007809,0.22266 c 1.205215,1.2141 2.228124,2.28042 3.496093,3.5371 2.433576,2.41193 3.51514,3.36265 5.683594,5.46094 l -4.9375,4.89063 c -3.733237,2.56827 -6.806257,1.32065 -8.859375,-0.99414 -1.302813,-1.46886 -1.706497,-2.91256 -1.539062,-4.47071 0.167434,-1.55814 1.003923,-3.29088 2.644531,-4.90625 l 0.0078,-0.008 z" id="path5259"/>
			<path style="color:#000000;fill:none;stroke:#000000;stroke-width:0.52916667;stroke-dasharray:none;stroke-opacity:1" d="m 83.490234,112.28516 24.546876,-24.580082 0.0449,-0.05078 c 3.99636,-4.440391 7.60869,-13.175847 4.5332,-22.324219 -1.32544,-3.942686 -3.67309,-8.314086 -7.58007,-11.767578 -3.90699,-3.453492 -9.409242,-5.888672 -16.476566,-5.888672 l 2e-5,-10e-7 c -12.14199,0 -20.403939,8.173961 -23.38086,17.894531 -1.350772,4.410686 -1.202359,8.47506 -0.357422,11.851563 m 5.132813,-1.285156 c -0.643371,-2.571014 -0.772777,-5.563104 0.285156,-9.017579 2.449174,-7.997312 8.477384,-14.152343 18.320313,-14.152343 5.89004,0 9.949872,1.890578 12.972656,4.5625 3.02278,2.671922 4.97157,6.225755 6.06836,9.488281 2.30763,6.864303 -0.80443,14.145024 -3.4375,17.082031 L 79.746094,108.54492 m 5.386718,12.89258 -10.855468,-10.89258 c -3.958155,-3.97189 -5.332067,-10.557549 -4.699219,-16.523436 0.427491,-4.029979 3.240938,-8.074137 7.109375,-11.033203 3.868437,-2.959066 8.715695,-4.703036 12.275391,-4.591797 4.130675,0.129084 7.639208,1.493418 10.535156,3.429688 m 2.941403,-4.398438 c -3.596087,-2.404394 -8.101583,-4.157472 -13.312497,-4.320312 -5.278745,-0.16496 -10.948613,2.078237 -15.654297,5.677734 -4.705683,3.599498 -8.522792,8.687684 -9.158203,14.677735 -0.756307,7.129739 0.698481,15.280889 6.214844,20.816409 l 10.855469,10.89258 m 27.800804,-13.05265 0.004,-0.004 m 0,0 c 4.48903,-4.5477 5.12906,-12.415885 3.85743,-19.259761 m -5.20325,0.966797 c 1.03721,5.582215 -0.27605,12.406204 -2.42187,14.578124 l -0.002,0.002 -0.0195,0.0215 m -22.064443,55.66986 26.556643,-26.59961 c 2.35069,-2.35454 3.71114,-5.51439 3.68164,-8.79492 -0.0295,-3.28053 -1.55104,-6.65997 -4.57617,-9.08008 l 0.23633,0.21484 -12.753911,-13.02734 m -3.78125,3.70313 12.867191,13.14062 0.125,0.10156 c 1.88738,1.50991 2.57588,3.22487 2.59179,4.99414 0.0159,1.76927 -0.74417,3.61494 -2.13672,5.00977 l -26.554683,26.59766 m 5.351562,12.82617 c -3.261749,-3.21125 -6.607911,-6.56048 -9.238281,-9.28321 -1.315185,-1.36136 -2.453458,-2.56777 -3.298828,-3.50586 -0.84537,-0.93808 -1.469392,-1.77356 -1.419922,-1.6914 -1.489601,-2.47388 -1.733301,-3.85556 -1.335937,-5.3086 0.397363,-1.45303 1.796392,-3.40443 4.683593,-6 l 0.05859,-0.0527 23.617188,-23.9043 m -3.765621,-3.71878 -23.5625,23.84766 0.113281,-0.10742 c -3.192054,2.86962 -5.401755,5.43729 -6.25,8.53906 -0.848245,3.10177 0.02609,6.30981 1.908203,9.43555 0.520406,0.86427 1.109261,1.48947 2.023437,2.5039 0.914177,1.01444 2.081062,2.25078 3.421875,3.63868 2.681628,2.77578 6.048918,6.14662 9.332032,9.3789 M 68.486328,119.82813 c -2.036508,2.14317 -3.665719,4.81886 -4.142578,7.87109 -0.476859,3.05223 0.442553,6.50081 3.089844,9.15234 l 1.21289,1.2168 m 3.746094,-3.74024 -1.214844,-1.21679 c -1.58095,-1.58349 -1.860783,-2.95956 -1.605468,-4.59375 0.255314,-1.63419 1.288626,-3.50701 2.75,-5.04492 m 37.064454,40.43552 0.37305,-0.36718 c 2.80032,-2.77404 3.8887,-6.28987 3.63281,-9.45704 -0.2559,-3.16716 -1.6996,-5.99523 -3.74414,-8.04687 l -0.40039,-0.40039 m -3.74805,3.73633 0.40039,0.40039 c 1.17182,1.17588 2.07359,2.9639 2.2168,4.73633 0.1432,1.77242 -0.31522,3.52126 -2.08203,5.27148 l -0.3711,0.36719 m -12.892576,27.87885 c 0.186451,0.16801 0.352075,0.31546 0.5,0.44336 3.38165,2.92372 6.973906,3.93839 10.050786,3.4961 3.07687,-0.4423 5.44271,-2.14492 7.06054,-3.87696 1.82281,-1.95147 2.89391,-4.6929 2.92383,-7.71093 0.0299,-3.01803 -1.12429,-6.35089 -3.86719,-8.94141 l 0.0566,0.0547 -13.031206,-13.0527 m -3.746094,3.73828 13.05859,13.08008 0.0293,0.0273 c 1.67838,1.58513 2.22593,3.33157 2.20899,5.04101 -0.017,1.70944 -0.74265,3.34153 -1.5,4.15235 -1.02157,1.09368 -2.43178,2.03243 -3.94532,2.25 -1.51354,0.21757 -3.324515,-0.0887 -5.837888,-2.26172 -0.108512,-0.0938 -0.250274,-0.21803 -0.417969,-0.36914 m -1.929687,-12.77534 -14.273438,14.13867 c -3.733237,2.56827 -6.806257,1.32065 -8.859375,-0.99414 -1.274899,-1.43739 -1.685284,-2.85158 -1.548828,-4.3711 0.136456,-1.51952 0.907285,-3.20474 2.447266,-4.79687 m -3.804688,-3.67969 c -2.228517,2.30399 -3.651273,5.07759 -3.914062,8.00391 -0.262789,2.92631 0.72289,5.94448 2.861328,8.35547 3.519689,3.96827 10.170594,5.84626 15.96875,1.75781 l 0.18164,-0.12696 14.666016,-14.52929" id="path13073" sodipodi:nodetypes="cccssccsccssssccccsssccssscccccccsccccsccccccscccsscsscccccssssccscccsscccsccccsccccssscccccccssscccssccssccc"/>
			<path d="m 89.58305,102.52211 c -0.02967,-9.4e-4 -0.05868,-4.5e-4 -0.08682,0.002 -1.215763,0.0859 -1.034215,2.84375 -2.20529,3.25097 -2.305213,-0.70457 -1.950055,1.65783 -2.360321,3.07656 -0.859727,0.34764 -1.844906,0.0369 -2.760297,0.055 l 0.12402,2.78277 c 0.314983,0.89442 -0.698955,0.51747 -1.242559,0.59067 -1.200331,-0.2765 -3.175147,0.30985 -1.858026,1.78593 1.269487,1.48729 -1.48676,-0.0963 -2.071192,0.83871 -1.949396,0.35971 -0.218086,2.12632 -0.851112,2.88199 -1.638879,0.32874 -3.336187,0.66315 -4.693512,1.70454 0.895841,1.03347 1.964451,2.03867 3.389717,2.20608 2.658552,0.1691 -1.921709,2.19774 0.299982,2.99904 0.785536,1.08378 3.376134,0.11385 2.967259,1.72238 -1.085908,2.30731 1.759303,1.82352 2.982764,1.25883 0.360738,0.88485 0.115905,1.9135 0.166657,2.86261 -0.300246,0.87972 0.653996,0.53784 1.184424,0.60849 2.175458,-0.64242 1.300506,2.16453 2.571161,2.69675 1.777777,-0.51201 2.157718,0.91008 2.59674,2.26729 0.763194,1.88384 2.56141,1.06332 3.165699,-0.40927 -0.266522,-2.23053 2.712411,-1.05594 2.91145,-3.04788 -0.50356,-2.14122 1.354701,-2.00145 2.841687,-2.1177 0.169715,-1.36599 -0.06922,-3.33116 2.019257,-2.87967 2.257042,0.41419 0.391732,-2.67737 2.208392,-2.83161 1.76195,0.15942 1.84513,-1.31211 1.51696,-2.62464 1.05451,-0.75996 3.04776,-0.69264 3.94317,-2.07429 0.31484,-1.70672 -3.1756,-1.49705 -3.0254,-3.33081 0.14088,-2.31341 -3.951109,-0.23636 -3.572646,-2.21691 0.991736,-1.364 -0.472206,-3.57978 -1.87818,-1.95416 -1.811326,1.11887 -0.654411,-0.93039 -0.693756,-1.84561 0.229965,-2.31812 -2.203843,-1.59732 -3.263367,-0.56199 0.03504,-1.09764 0.754884,-3.52839 -0.799176,-3.77418 -2.109775,0.60717 -1.467844,-2.74298 -2.778124,-3.66102 -0.296132,-0.17432 -0.541895,-0.25392 -0.749567,-0.26045 z" id="path4082" style="fill:#bebebd;fill-opacity:1" inkscape:original-d="M 0,0" inkscape:path-effect="#path-effect4080" class="UnoptimicedTransforms"/>
			<path id="path3060" style="fill:#000000;stroke-width:0.264583" d="m 24.581947,119.16506 c -0.01978,-6.3e-4 -0.03912,-3e-4 -0.05788,0.001 -0.810509,0.0573 -0.689477,1.89583 -1.470194,2.16731 -1.536808,-0.46971 -1.300036,1.10522 -1.573547,2.05104 -0.573151,0.23176 -1.229937,0.0246 -1.840198,0.0367 l 0.08268,1.85518 c 0.209989,0.59628 -0.46597,0.34498 -0.828373,0.39378 -0.80022,-0.18433 -2.116764,0.20657 -1.238684,1.19062 0.846325,0.99153 -0.991173,-0.0642 -1.380794,0.55914 -1.299598,0.23981 -0.145391,1.41755 -0.567408,1.92133 -1.092586,0.21916 -2.224125,0.4421 -3.129008,1.13636 0.597227,0.68898 1.309634,1.35911 2.259811,1.47072 1.772368,0.11273 -1.281139,1.46516 0.199988,1.99936 0.523691,0.72252 2.250756,0.0759 1.978173,1.14825 -0.723939,1.53821 1.172868,1.21568 1.988509,0.83922 0.240492,0.5899 0.07727,1.27567 0.111105,1.90841 -0.200164,0.58648 0.435997,0.35856 0.789616,0.40566 1.450305,-0.42828 0.867004,1.44302 1.714107,1.79783 1.185185,-0.34134 1.438479,0.60672 1.73116,1.51153 0.508796,1.25589 1.707607,0.70888 2.110466,-0.27285 -0.177681,-1.48702 1.808274,-0.70396 1.940967,-2.03192 -0.335707,-1.42748 0.903134,-1.3343 1.894458,-1.4118 0.113143,-0.91066 -0.04615,-2.22077 1.346171,-1.91978 1.504698,0.27613 0.261155,-1.78491 1.472261,-1.88774 1.174633,0.10628 1.230088,-0.87474 1.011308,-1.74976 0.703008,-0.50664 2.031836,-0.46176 2.62878,-1.38286 0.20989,-1.13781 -2.117067,-0.99803 -2.016931,-2.22054 0.09392,-1.54227 -2.634076,-0.15757 -2.381767,-1.47794 0.661159,-0.90933 -0.314804,-2.38652 -1.25212,-1.30277 -1.207551,0.74591 -0.436274,-0.62026 -0.462504,-1.23041 0.15331,-1.54541 -1.469229,-1.06488 -2.175578,-0.37466 0.02336,-0.73176 0.503256,-2.35226 -0.532784,-2.51612 -1.406517,0.40478 -0.978563,-1.82865 -1.852083,-2.44068 -0.197421,-0.11621 -0.361263,-0.16928 -0.499711,-0.17363 z m -0.06046,0.88108 c 0.336249,0.008 0.763227,0.54493 0.794783,1.06712 0.423293,0.8173 0.209345,1.61448 -0.217041,2.36213 -0.158074,0.66226 -0.368408,0.3281 -0.583944,-0.11317 -0.60014,-0.77052 -0.816701,-1.73306 -0.395841,-2.64015 0.0315,-0.49446 0.200292,-0.68052 0.402043,-0.67593 z m -2.006079,1.6552 c 0.734412,0.6641 1.38995,1.57547 1.701188,2.50785 -0.31341,0.23369 -0.728818,0.27365 -1.106393,0.24185 -1.298147,-0.0439 -1.320551,-2.10617 -0.594795,-2.7497 z m 4.294828,0.67076 c 0.46074,0.0232 0.515841,1.46108 0.09664,1.99264 -0.141761,0.23475 -0.356965,0.63328 -0.701766,0.43667 -1.473065,-0.0232 -0.531094,-1.31432 0.01189,-1.89498 0.241144,-0.39267 0.439666,-0.54206 0.593246,-0.53433 z m -6.440951,1.59525 c 0.637171,-0.009 1.654654,0.5705 0.937928,1.12086 -0.416178,0.55909 -1.049076,0.22933 -1.218014,-0.33435 -0.347825,-0.56301 -0.102215,-0.78095 0.280086,-0.78651 z m 8.221721,0.22531 c 0.470025,-0.0218 0.611843,0.89083 0.281119,1.58853 -0.219857,1.11761 -2.050049,-0.72522 -0.974617,-1.06505 0.275816,-0.36333 0.509574,-0.51497 0.693498,-0.52348 z m -4.229716,0.90485 c 0.483209,-0.001 0.972802,0.0524 1.440222,0.1726 1.200992,0.30895 2.471901,1.0739 3.285071,2.40657 0.711316,1.14067 0.979105,2.66798 0.762744,4.19044 -0.236576,1.66472 -1.428507,2.96064 -2.753321,3.81941 -1.382367,0.73411 -3.246453,0.77013 -4.306197,0.48524 -1.059745,-0.28488 -1.305435,-0.49812 -1.786971,-0.78807 -0.569024,-0.3426 -1.058719,-1.05335 -1.289843,-1.35392 -0.613082,-0.79728 -0.989563,-1.98326 -1.037663,-2.98845 -0.177306,-2.45576 1.215704,-4.51238 3.454569,-5.52834 0.638367,-0.25727 1.426037,-0.41306 2.231389,-0.41548 z m -0.04806,0.35347 c -2.929499,0 -5.310271,2.38129 -5.310271,5.31078 0,2.9295 2.380772,5.31027 5.310271,5.31027 2.9295,0 5.310787,-2.38077 5.310787,-5.31027 0,-2.92949 -2.381287,-5.31078 -5.310787,-5.31078 z m 0,0.59583 c 2.607398,0 4.714957,2.10756 4.714957,4.71495 0,2.6074 -2.107559,4.71445 -4.714957,4.71445 -2.607399,0 -4.71444,-2.10705 -4.714441,-4.71445 0,-2.60739 2.107042,-4.71495 4.714441,-4.71495 z m -5.403805,0.0868 c 0.461198,0.0103 0.882077,0.20159 0.598413,0.5948 -0.224895,0.49473 -0.840519,0.74987 -1.182873,0.20567 -0.623158,-0.5042 -0.06852,-0.78333 0.491959,-0.79995 0.03091,-9.2e-4 0.06176,-0.001 0.0925,-5.2e-4 z m 11.707296,0.15762 c 0.407644,0.0176 0.632038,0.33255 0.157096,0.925 l -0.103353,0.19534 -0.09612,0.17157 c -0.404832,1.4913 -1.919484,-0.79528 -0.77773,-0.99787 0.264741,-0.20819 0.575518,-0.3046 0.820105,-0.29404 z m -13.326835,1.4552 c 0.668916,-0.014 1.373717,0.32548 0.983919,1.05317 -0.203651,1.11296 -1.46494,0.21477 -1.894458,-0.21549 -0.242118,-0.53795 0.320317,-0.82532 0.910539,-0.83768 z m 14.634249,0.52142 c 0.141574,3.7e-4 0.283076,0.0171 0.420129,0.0517 0.980727,-0.19035 1.016508,0.69032 0.194303,0.99942 -0.485842,0.16537 -1.492511,1.33223 -1.965771,0.80202 -0.626618,-1.05984 0.360315,-1.85574 1.351339,-1.85312 z m -7.575765,0.23564 c -1.229026,0 -2.230355,1.0034 -2.230355,2.23243 0,1.22902 1.001329,2.23087 2.230355,2.23087 1.229026,0 2.230871,-1.00185 2.230871,-2.23087 0,-1.22903 -1.001845,-2.23243 -2.230871,-2.23243 z m 0,0.51212 c 0.952322,0 1.718758,0.76798 1.718758,1.72031 0,0.95232 -0.766436,1.71875 -1.718758,1.71875 -0.952321,0 -1.718758,-0.76643 -1.718759,-1.71875 0,-0.95233 0.766438,-1.72031 1.718759,-1.72031 z m -7.913729,0.817 c 0.635212,-0.0174 1.232075,0.12734 1.485697,0.71934 l -0.05891,0.24184 c -0.869734,1.06101 -2.494206,0.75126 -3.644222,0.38706 -1.510415,-0.30782 0.12563,-1.04948 0.807703,-1.14928 0.39788,-0.0743 0.915556,-0.18541 1.409732,-0.19896 z m 16.810343,0.14418 c 0.70186,-0.002 1.420351,0.29158 1.802474,0.80098 -0.746561,0.68763 -1.993745,0.72507 -2.969844,0.71417 -1.082958,-0.032 -0.942796,-0.96787 -0.0016,-1.17305 0.332735,-0.23237 0.747806,-0.34064 1.168921,-0.3421 z m -15.54117,1.80402 c 0.571245,-0.0337 0.769512,0.99272 0.304374,1.54513 -0.560884,0.79205 -1.683861,0.4969 -2.465482,0.29249 -0.624863,-0.59545 1.132909,-1.10948 1.599902,-1.52601 0.21205,-0.20938 0.401257,-0.30215 0.561206,-0.31161 z m 13.352156,0.045 c 0.625844,-0.0262 1.500875,0.82284 1.681035,1.40457 -0.517895,0.62156 -2.852202,0.6649 -2.291333,-0.71934 0.09293,-0.48085 0.325825,-0.67332 0.610298,-0.68523 z m -0.91984,1.9141 c 0.360494,0.47695 0.82594,0.90398 1.013375,1.48466 -0.604083,0.33982 -1.69603,0.34626 -2.314588,0.0305 0.149654,-0.66061 0.863315,-1.02283 1.301213,-1.51515 z m -11.594641,0.12247 c 0.621077,0.0169 1.289404,1.1901 0.190169,1.45624 -0.158723,0.0821 -0.319009,0.16161 -0.482141,0.23461 -1.05556,0.66166 -0.802955,-0.55464 -0.306441,-1.05575 0.119911,-0.47098 0.355382,-0.64172 0.598413,-0.6351 z m 1.569413,1.65675 c 1.109205,0.008 1.560989,1.62846 0.322978,2.11976 -1.449974,0.96695 -0.638448,-1.53191 -0.552938,-2.09909 0.07949,-0.0146 0.156013,-0.0212 0.22996,-0.0207 z m 7.88324,0.29714 c 0.54404,-0.009 0.982782,0.78542 1.038696,1.50791 -0.422659,0.71918 -1.804857,-0.30098 -1.819527,-0.91622 0.264781,-0.41813 0.533539,-0.58771 0.780831,-0.59169 z m -5.50509,0.86403 c 0.07433,-5.1e-4 0.153192,0.008 0.237194,0.0248 1.148418,0.0253 0.831845,1.05582 0.303858,1.66295 -0.222958,0.26136 -0.924199,1.8978 -1.296045,1.03611 -0.407554,-0.81059 -0.360004,-2.71622 0.754993,-2.72386 z m 3.111438,0.25838 c 0.815636,-0.0235 1.457269,0.93328 1.315681,1.78335 -0.01448,0.30668 0.0097,0.66017 -0.204638,0.91054 -1.081659,0.0429 -1.525036,-1.66312 -1.696021,-2.50786 0.199289,-0.12313 0.396753,-0.18062 0.584978,-0.18603 z m -1.292945,0.63975 c 0.646303,0.83487 1.131785,2.03942 0.660425,3.0763 -0.04866,0.14042 -0.100393,0.27984 -0.157613,0.41703 -0.231623,1.193 -1.172372,0.54632 -1.176672,-0.33021 -0.423444,-1.08271 -0.278024,-2.41277 0.67386,-3.16312 z" transform="matrix(1.5,0,0,1.5,52.71013,-76.225478)" class="UnoptimicedTransforms"/>
			<ellipse style="fill:#b08d30;fill-opacity:1;stroke:#4e4627;stroke-width:0.842361;stroke-dasharray:none;stroke-opacity:1" id="path5313" cx="88.346573" cy="68.071175" rx="13.233358" ry="13.089473"/>
		</g>
	</g>
</svg>
