<?xml version="1.0" encoding="UTF-8" standalone="no"?>
<svg
   xmlns:dc="http://purl.org/dc/elements/1.1/"
   xmlns:cc="http://creativecommons.org/ns#"
   xmlns:rdf="http://www.w3.org/1999/02/22-rdf-syntax-ns#"
   xmlns:svg="http://www.w3.org/2000/svg"
   xmlns="http://www.w3.org/2000/svg"
   xmlns:sodipodi="http://sodipodi.sourceforge.net/DTD/sodipodi-0.dtd"
   xmlns:inkscape="http://www.inkscape.org/namespaces/inkscape"
   inkscape:version="1.0 (4035a4fb49, 2020-05-01)"
   sodipodi:docname="27110199.svg"
   xml:space="preserve"
   enable-background="new 0 0 612 792"
   viewBox="0 0 612 792"
   height="792px"
   width="612px"
   y="0px"
   x="0px"
   id="Version_1.0"
   version="1.1"><metadata
   id="metadata923"><rdf:RDF><cc:Work
       rdf:about=""><dc:format>image/svg+xml</dc:format><dc:type
         rdf:resource="http://purl.org/dc/dcmitype/StillImage" /></cc:Work></rdf:RDF></metadata><defs
   id="defs921" /><sodipodi:namedview
   inkscape:current-layer="Version_1.0"
   inkscape:window-maximized="1"
   inkscape:window-y="-8"
   inkscape:window-x="1912"
   inkscape:cy="446.35841"
   inkscape:cx="303.76051"
   inkscape:zoom="1.0732323"
   showgrid="false"
   id="namedview919"
   inkscape:window-height="1017"
   inkscape:window-width="1920"
   inkscape:pageshadow="2"
   inkscape:pageopacity="0"
   guidetolerance="10"
   gridtolerance="10"
   objecttolerance="10"
   borderopacity="1"
   bordercolor="#666666"
   pagecolor="#ffffff" />
<g
   display="none"
   id="octagon">
	
		<line
   y2="445.295"
   x2="406.199"
   y1="445.015"
   x1="203.966"
   stroke-width="2"
   stroke="#0000FF"
   fill="none"
   display="inline"
   id="mod2_1_" />
	
		<line
   y2="346.705"
   x2="406.199"
   y1="346.985"
   x1="203.966"
   stroke-width="2"
   stroke="#0000FF"
   fill="none"
   display="inline"
   id="mod1_1_" />
	<g
   display="inline"
   id="outFrame">
		<line
   id="line881"
   y2="273"
   x2="306"
   y1="309.5"
   x1="220"
   stroke-width="2"
   stroke="#0000FF"
   fill="none" />
		<line
   id="line883"
   y2="309.5"
   x2="390.5"
   y1="273"
   x1="306"
   stroke-width="2"
   stroke="#0000FF"
   fill="none" />
		<line
   id="line885"
   y2="396"
   x2="427"
   y1="309.5"
   x1="390.5"
   stroke-width="2"
   stroke="#0000FF"
   fill="none" />
		<line
   id="line887"
   y2="482.5"
   x2="390.5"
   y1="396"
   x1="427"
   stroke-width="2"
   stroke="#0000FF"
   fill="none" />
		<line
   id="line889"
   y2="516"
   x2="306"
   y1="482.5"
   x1="390.5"
   stroke-width="2"
   stroke="#0000FF"
   fill="none" />
		<line
   id="line891"
   y2="482.5"
   x2="220"
   y1="516"
   x1="306"
   stroke-width="2"
   stroke="#0000FF"
   fill="none" />
		<line
   id="line893"
   y2="396"
   x2="183"
   y1="482.5"
   x1="220"
   stroke-width="2"
   stroke="#0000FF"
   fill="none" />
		<line
   id="line895"
   y2="309.5"
   x2="220"
   y1="396"
   x1="183"
   stroke-width="2"
   stroke="#0000FF"
   fill="none" />
	</g>
</g>
<g
   transform="translate(1,-1.5)"
   display="none"
   id="Frame"><g
     id="XMLID_33_"><g
       id="g6660"><g
         id="XMLID_3_"><g
           id="g6657"><polygon
             id="polygon6655"
             points="305,543.5 178.56,470.5 178.56,324.5 305,251.5 431.44,324.5 431.44,470.5 "
             stroke-width="5"
             stroke="#000000"
             fill="none" /></g></g></g></g></g><g
   id="main">
	
	<path
   sodipodi:nodetypes="cc"
   id="path901"
   d="m 178.342,370.75 c 11.697,0 21.18,10.082 21.18,22.518"
   stroke-width="5"
   stroke="#000000"
   fill="none" />
	<path
   id="path903"
   d="M242.136,392.398c0,12.438-9.482,22.519-21.18,22.519   c-11.697,0-21.182-10.081-21.182-22.519"
   stroke-width="5"
   stroke="#000000"
   fill="none" />
	<path
   id="path905"
   d="M242.136,393.268c0-12.436,9.483-22.518,21.182-22.518   c11.697,0,21.179,10.082,21.179,22.518"
   stroke-width="5"
   stroke="#000000"
   fill="none" />
	<path
   id="path907"
   d="M326.857,392.398c0,12.438-9.483,22.519-21.18,22.519   c-11.698,0-21.181-10.081-21.181-22.519"
   stroke-width="5"
   stroke="#000000"
   fill="none" />
	<path
   id="path909"
   d="M326.857,393.268c0-12.436,9.481-22.518,21.182-22.518   c11.698,0,21.181,10.082,21.181,22.518"
   stroke-width="5"
   stroke="#000000"
   fill="none" />
	<path
   id="path911"
   d="M411.579,392.398c0,12.438-9.481,22.519-21.182,22.519   c-11.697,0-21.18-10.081-21.18-22.519"
   stroke-width="5"
   stroke="#000000"
   fill="none" />
	<path
   sodipodi:nodetypes="cc"
   id="path913"
   d="m 411.579,393.268 c 0,-12.436 9.483,-22.518 21.181,-22.518"
   stroke-width="5"
   stroke="#000000"
   fill="none" />
	
</g>
</svg>
