<?xml version="1.0" encoding="UTF-8" standalone="no"?>
<!-- Generator: Adobe Illustrator 14.0.0, SVG Export Plug-In . SVG Version: 6.00 Build 43363)  -->

<svg version="1.1" id="Version_1.0" x="0px" y="0px" width="612px" height="792px" viewBox="0 0 612 792" enable-background="new 0 0 612 792" xml:space="preserve" sodipodi:docname="0_060_0.svg" inkscape:version="1.2.2 (732a01da63, 2022-12-09)" xmlns:inkscape="http://www.inkscape.org/namespaces/inkscape" xmlns:sodipodi="http://sodipodi.sourceforge.net/DTD/sodipodi-0.dtd" xmlns="http://www.w3.org/2000/svg" xmlns:svg="http://www.w3.org/2000/svg"><defs id="defs639" /><sodipodi:namedview id="namedview637" pagecolor="#ffffff" bordercolor="#666666" borderopacity="1.0" inkscape:showpageshadow="2" inkscape:pageopacity="0.0" inkscape:pagecheckerboard="0" inkscape:deskcolor="#d1d1d1" showgrid="false" inkscape:zoom="1.1123737" inkscape:cx="183.3916" inkscape:cy="396.44949" inkscape:window-width="1920" inkscape:window-height="1009" inkscape:window-x="-8" inkscape:window-y="-8" inkscape:window-maximized="1" inkscape:current-layer="g868" />
<g id="frame">
	<path fill="#FFFF80" stroke="#000000" stroke-width="5" stroke-dasharray="5,5" d="M221,480c0,115,170,115,170,0   c115,0,115-170,0-170c0-115-170-115-170,0C106,310,106,480,221,480z" id="path633" />
</g>
<g id="g868">
	<path fill="#FFFF80" stroke="#000000" stroke-width="5" stroke-dasharray="5,5" d="M221,480c0,115,170,115,170,0   c115,0,115-170,0-170c0-115-170-115-170,0C106,310,106,480,221,480z" id="path866" />
<path id="path975" d="M 420.72266 314.35352 L 420.72266 475.64648 C 496.07309 451.92442 496.07309 338.07558 420.72266 314.35352 z " /></g></svg>
