<?xml version="1.0" encoding="UTF-8" standalone="no"?>
<!-- Generator: Adobe Illustrator 16.0.0, SVG Export Plug-In . SVG Version: 6.00 Build 0)  -->

<svg version="1.1" id="Version_1.0" x="0px" y="0px" width="612px" height="792px" viewBox="0 0 612 792" enable-background="new 0 0 612 792" xml:space="preserve" sodipodi:docname="10111300.svg" inkscape:version="1.2.2 (732a01da63, 2022-12-09)" xmlns:inkscape="http://www.inkscape.org/namespaces/inkscape" xmlns:sodipodi="http://sodipodi.sourceforge.net/DTD/sodipodi-0.dtd" xmlns="http://www.w3.org/2000/svg" xmlns:svg="http://www.w3.org/2000/svg"><defs id="defs3298" /><sodipodi:namedview id="namedview3296" pagecolor="#ffffff" bordercolor="#666666" borderopacity="1.0" inkscape:pageshadow="2" inkscape:pageopacity="0.0" inkscape:pagecheckerboard="0" showgrid="false" inkscape:zoom="2.1010102" inkscape:cx="149.45192" inkscape:cy="411.70671" inkscape:window-width="1920" inkscape:window-height="1009" inkscape:window-x="-8" inkscape:window-y="-8" inkscape:window-maximized="1" inkscape:current-layer="Version_1.0" inkscape:showpageshadow="2" inkscape:deskcolor="#d1d1d1" />
<g id="octagon" display="none">
	<g id="outFrame" display="inline">
		<line fill="none" stroke="#0000ff" stroke-width="2" x1="220" y1="309.5" x2="306" y2="273" id="line3262" />
		<line fill="none" stroke="#0000ff" stroke-width="2" x1="306" y1="273" x2="390.5" y2="309.5" id="line3264" />
		<line fill="none" stroke="#0000ff" stroke-width="2" x1="390.5" y1="309.5" x2="427" y2="396" id="line3266" />
		<line fill="none" stroke="#0000ff" stroke-width="2" x1="427" y1="396" x2="390.5" y2="482.5" id="line3268" />
		<line fill="none" stroke="#0000ff" stroke-width="2" x1="390.5" y1="482.5" x2="306" y2="516" id="line3270" />
		<line fill="none" stroke="#0000ff" stroke-width="2" x1="306" y1="516" x2="220" y2="482.5" id="line3272" />
		<line fill="none" stroke="#0000ff" stroke-width="2" x1="220" y1="482.5" x2="183" y2="396" id="line3274" />
		<line fill="none" stroke="#0000ff" stroke-width="2" x1="183" y1="396" x2="220" y2="309.5" id="line3276" />
	</g>
	
		<line id="mod2_1_" display="inline" fill="none" stroke="#0000ff" stroke-width="2" x1="203.966" y1="445.01501" x2="406.19901" y2="445.29501" />
	
		<line id="mod1_1_" display="inline" fill="none" stroke="#0000ff" stroke-width="2" x1="203.966" y1="346.98499" x2="406.19901" y2="346.70499" />
</g>

<g id="main" transform="matrix(1.4740158,0,0,1.1338583,142.96932,244.97142)" style="fill:#000000;fill-opacity:1;stroke:#000000;stroke-width:0.77351642;stroke-dasharray:none;stroke-opacity:1"><path id="path2529" style="fill:#000000;fill-opacity:1;stroke:#000000;stroke-width:2.92352667;stroke-opacity:1;stroke-dasharray:none" inkscape:transform-center-y="-1.9383252e-06" d="m 230.70699,433.14545 -9.96744,132.9427 -30.03256,-26.27604 15.75521,34.88281 -29.08854,16.78386 29.08854,16.78385 -15.75521,34.88281 30.03256,-26.27604 9.96744,132.94271 15.96355,-127.70182 24.03645,21.03515 -14.12109,-31.26953 40.78776,-20.39713 -40.78776,-20.39714 14.12109,-31.26953 -24.03645,21.03516 z" transform="matrix(0.26458333,0,0,0.26458333,47.120192,-23.203125)" /></g></svg>
