<?xml version="1.0" encoding="UTF-8" standalone="no"?>
<!-- Generator: Adobe Illustrator 16.0.0, SVG Export Plug-In . SVG Version: 6.00 Build 0)  -->

<svg version="1.1" id="Version_1.0" x="0px" y="0px" width="612px" height="792px" viewBox="0 0 612 792" enable-background="new 0 0 612 792" xml:space="preserve" sodipodi:docname="10111500.svg" inkscape:version="1.2.2 (732a01da63, 2022-12-09)" xmlns:inkscape="http://www.inkscape.org/namespaces/inkscape" xmlns:sodipodi="http://sodipodi.sourceforge.net/DTD/sodipodi-0.dtd" xmlns="http://www.w3.org/2000/svg" xmlns:svg="http://www.w3.org/2000/svg"><defs id="defs3298"><marker style="overflow:visible" id="Arrow1Send" refX="0" refY="0" orient="auto" inkscape:stockid="Arrow1Send" inkscape:isstock="true"><path transform="matrix(-0.2,0,0,-0.2,-1.2,0)" style="fill:context-stroke;fill-rule:evenodd;stroke:context-stroke;stroke-width:1pt" d="M 0,0 5,-5 -12.5,0 5,5 Z" id="path4003" /></marker><marker style="overflow:visible" id="Arrow1Sstart" refX="0" refY="0" orient="auto" inkscape:stockid="Arrow1Sstart" inkscape:isstock="true"><path transform="matrix(0.2,0,0,0.2,1.2,0)" style="fill:context-stroke;fill-rule:evenodd;stroke:context-stroke;stroke-width:1pt" d="M 0,0 5,-5 -12.5,0 5,5 Z" id="path4000" /></marker><marker style="overflow:visible" id="Arrow2Mstart" refX="0.0" refY="0.0" orient="auto" inkscape:stockid="Arrow2Mstart" inkscape:isstock="true"><path transform="scale(0.6) translate(0,0)" d="M 8.7185878,4.0337352 L -2.2072895,0.016013256 L 8.7185884,-4.0017078 C 6.9730900,-1.6296469 6.9831476,1.6157441 8.7185878,4.0337352 z " style="fill-rule:evenodd;fill:context-stroke;stroke-width:0.62500000;stroke-linejoin:round" id="path4012" /></marker><marker style="overflow:visible" id="Arrow2Lstart" refX="0.0" refY="0.0" orient="auto" inkscape:stockid="Arrow2Lstart" inkscape:isstock="true"><path transform="scale(1.1) translate(1,0)" d="M 8.7185878,4.0337352 L -2.2072895,0.016013256 L 8.7185884,-4.0017078 C 6.9730900,-1.6296469 6.9831476,1.6157441 8.7185878,4.0337352 z " style="fill-rule:evenodd;fill:context-stroke;stroke-width:0.62500000;stroke-linejoin:round" id="path4006" /></marker></defs><sodipodi:namedview id="namedview3296" pagecolor="#ffffff" bordercolor="#666666" borderopacity="1.0" inkscape:pageshadow="2" inkscape:pageopacity="0.0" inkscape:pagecheckerboard="0" showgrid="false" inkscape:zoom="1.0505051" inkscape:cx="226.55768" inkscape:cy="530.22113" inkscape:window-width="1920" inkscape:window-height="1009" inkscape:window-x="-8" inkscape:window-y="-8" inkscape:window-maximized="1" inkscape:current-layer="Version_1.0" inkscape:showpageshadow="2" inkscape:deskcolor="#d1d1d1" />
<g id="octagon" display="none">
	<g id="outFrame" display="inline">
		<line fill="none" stroke="#0000ff" stroke-width="2" x1="220" y1="309.5" x2="306" y2="273" id="line3262" />
		<line fill="none" stroke="#0000ff" stroke-width="2" x1="306" y1="273" x2="390.5" y2="309.5" id="line3264" />
		<line fill="none" stroke="#0000ff" stroke-width="2" x1="390.5" y1="309.5" x2="427" y2="396" id="line3266" />
		<line fill="none" stroke="#0000ff" stroke-width="2" x1="427" y1="396" x2="390.5" y2="482.5" id="line3268" />
		<line fill="none" stroke="#0000ff" stroke-width="2" x1="390.5" y1="482.5" x2="306" y2="516" id="line3270" />
		<line fill="none" stroke="#0000ff" stroke-width="2" x1="306" y1="516" x2="220" y2="482.5" id="line3272" />
		<line fill="none" stroke="#0000ff" stroke-width="2" x1="220" y1="482.5" x2="183" y2="396" id="line3274" />
		<line fill="none" stroke="#0000ff" stroke-width="2" x1="183" y1="396" x2="220" y2="309.5" id="line3276" />
	</g>
	
		<line id="mod2_1_" display="inline" fill="none" stroke="#0000ff" stroke-width="2" x1="203.966" y1="445.01501" x2="406.19901" y2="445.29501" />
	
		<line id="mod1_1_" display="inline" fill="none" stroke="#0000ff" stroke-width="2" x1="203.966" y1="346.98499" x2="406.19901" y2="346.70499" />
</g>

<g id="main" transform="translate(0.13012733,3.2621339)"><g id="g11345"><path id="path11167" style="color:#000000;fill:#000000;-inkscape-stroke:none" d="m 304.86985,345.40913 -9.18359,15.89063 h 5.68359 v 70 h 7 v -70 h 5.68555 z" /><path id="path11326" style="color:#000000;fill:#000000;-inkscape-stroke:none" d="m 390.76146,427.89233 -15.89063,-9.18359 v 5.68359 h -70 v 7 h 70 v 5.68555 z" /><path id="path11328" style="color:#000000;fill:#000000;-inkscape-stroke:none" d="m 218.9802,427.89233 15.89063,-9.18359 v 5.68359 h 70 v 7 h -70 v 5.68555 z" /><path id="path11334" style="color:#000000;fill:#000000;-inkscape-stroke:none" d="m 364.68893,367.70321 -17.73015,4.74259 4.0189,4.01891 -49.49747,49.49747 4.94975,4.94975 49.49747,-49.49748 4.02029,4.0203 z" /><path id="path11336" style="color:#000000;fill:#000000;-inkscape-stroke:none" d="m 245.03794,367.70321 17.73015,4.74259 -4.0189,4.01891 49.49747,49.49747 -4.94975,4.94975 -49.49747,-49.49748 -4.02029,4.0203 z" /></g></g></svg>
