<?xml version="1.0" encoding="UTF-8" standalone="no"?>
<!-- Generator: Adobe Illustrator 16.0.0, SVG Export Plug-In . SVG Version: 6.00 Build 0)  -->

<svg version="1.1" id="Version_1.0" x="0px" y="0px" width="612px" height="792px" viewBox="0 0 612 792" enable-background="new 0 0 612 792" xml:space="preserve" sodipodi:docname="10150800_1.svg" inkscape:version="1.2.2 (732a01da63, 2022-12-09)" xmlns:inkscape="http://www.inkscape.org/namespaces/inkscape" xmlns:sodipodi="http://sodipodi.sourceforge.net/DTD/sodipodi-0.dtd" xmlns="http://www.w3.org/2000/svg" xmlns:svg="http://www.w3.org/2000/svg"><defs id="defs14893" /><sodipodi:namedview id="namedview14891" pagecolor="#ffffff" bordercolor="#666666" borderopacity="1.0" inkscape:showpageshadow="2" inkscape:pageopacity="0.0" inkscape:pagecheckerboard="0" inkscape:deskcolor="#d1d1d1" showgrid="false" inkscape:zoom="1.1123737" inkscape:cx="183.3916" inkscape:cy="396.44949" inkscape:window-width="1920" inkscape:window-height="1009" inkscape:window-x="-8" inkscape:window-y="-8" inkscape:window-maximized="1" inkscape:current-layer="Version_1.0" />
<g id="octagon" display="none">
	
		<line id="mod2_1_" display="inline" fill="none" stroke="#0000FF" stroke-width="2" x1="203.966" y1="445.015" x2="406.199" y2="445.295" />
	
		<line id="mod1_1_" display="inline" fill="none" stroke="#0000FF" stroke-width="2" x1="203.966" y1="346.985" x2="406.199" y2="346.705" />
	<g id="outFrame" display="inline">
		<line fill="none" stroke="#0000FF" stroke-width="2" x1="220" y1="309.5" x2="306" y2="273" id="line14808" />
		<line fill="none" stroke="#0000FF" stroke-width="2" x1="306" y1="273" x2="390.5" y2="309.5" id="line14810" />
		<line fill="none" stroke="#0000FF" stroke-width="2" x1="390.5" y1="309.5" x2="427" y2="396" id="line14812" />
		<line fill="none" stroke="#0000FF" stroke-width="2" x1="427" y1="396" x2="390.5" y2="482.5" id="line14814" />
		<line fill="none" stroke="#0000FF" stroke-width="2" x1="390.5" y1="482.5" x2="306" y2="516" id="line14816" />
		<line fill="none" stroke="#0000FF" stroke-width="2" x1="306" y1="516" x2="220" y2="482.5" id="line14818" />
		<line fill="none" stroke="#0000FF" stroke-width="2" x1="220" y1="482.5" x2="183" y2="396" id="line14820" />
		<line fill="none" stroke="#0000FF" stroke-width="2" x1="183" y1="396" x2="220" y2="309.5" id="line14822" />
	</g>
</g>
<g id="main">
	<g id="waves2" transform="matrix(0.96,0,0,0.96,12.231595,12.07732)">
		<path fill="none" stroke="#000000" stroke-width="5" d="m 239.603,301.813 c 0,1.889 -0.383,3.688 -1.075,5.324 -0.692,1.637 -1.694,3.111 -2.932,4.349 -1.238,1.238 -2.712,2.239 -4.349,2.932 -1.637,0.693 -3.436,1.075 -5.325,1.075 -1.889,0 -3.688,-0.383 -5.325,-1.075 -1.637,-0.692 -3.111,-1.694 -4.349,-2.932 -1.238,-1.238 -2.24,-2.712 -2.932,-4.349 -0.692,-1.637 -1.075,-3.436 -1.075,-5.324" id="path14826" />
		<path fill="none" stroke="#000000" stroke-width="5" d="m 184.882,302.053 c 0,-1.889 0.383,-3.688 1.075,-5.324 0.692,-1.637 1.694,-3.111 2.932,-4.349 1.238,-1.238 2.712,-2.239 4.349,-2.932 1.637,-0.693 3.436,-1.075 5.325,-1.075 1.889,0 3.688,0.383 5.325,1.075 1.637,0.692 3.111,1.694 4.349,2.932 1.238,1.238 2.24,2.712 2.932,4.349 0.692,1.637 1.075,3.436 1.075,5.324" id="path14828" />
		<path fill="none" stroke="#000000" stroke-width="5" d="m 294.324,301.813 c 0,1.889 -0.383,3.688 -1.075,5.324 -0.692,1.637 -1.694,3.111 -2.932,4.349 -1.238,1.238 -2.712,2.239 -4.349,2.932 -1.637,0.693 -3.436,1.075 -5.325,1.075 -1.889,0 -3.688,-0.383 -5.325,-1.075 -1.637,-0.692 -3.111,-1.694 -4.349,-2.932 -1.238,-1.238 -2.24,-2.712 -2.932,-4.349 -0.692,-1.637 -1.075,-3.436 -1.075,-5.324" id="path14830" />
		<path fill="none" stroke="#000000" stroke-width="5" d="m 239.603,302.053 c 0,-1.889 0.383,-3.688 1.075,-5.324 0.692,-1.637 1.694,-3.111 2.932,-4.349 1.238,-1.238 2.712,-2.239 4.349,-2.932 1.637,-0.693 3.436,-1.075 5.325,-1.075 1.889,0 3.688,0.383 5.325,1.075 1.637,0.692 3.111,1.694 4.349,2.932 1.238,1.238 2.24,2.712 2.932,4.349 0.692,1.637 1.075,3.436 1.075,5.324" id="path14832" />
		<path fill="none" stroke="#000000" stroke-width="5" d="m 349.046,301.813 c 0,1.889 -0.383,3.688 -1.075,5.324 -0.688,1.636 -1.689,3.111 -2.932,4.349 -1.239,1.238 -2.712,2.239 -4.349,2.932 -1.641,0.693 -3.438,1.075 -5.325,1.075 -1.892,0 -3.688,-0.383 -5.325,-1.075 -1.637,-0.692 -3.11,-1.694 -4.349,-2.932 -1.239,-1.238 -2.239,-2.712 -2.936,-4.349 -0.689,-1.637 -1.075,-3.436 -1.075,-5.324" id="path14834" />
		<path fill="none" stroke="#000000" stroke-width="5" d="m 294.324,302.053 c 0,-1.889 0.383,-3.688 1.075,-5.324 0.692,-1.636 1.694,-3.111 2.932,-4.349 1.238,-1.238 2.712,-2.239 4.348,-2.932 1.637,-0.692 3.436,-1.075 5.325,-1.075 1.889,0 3.688,0.383 5.324,1.075 1.636,0.692 3.111,1.694 4.349,2.932 1.238,1.238 2.239,2.712 2.936,4.349 0.689,1.637 1.071,3.436 1.071,5.324" id="path14836" />
		<path fill="none" stroke="#000000" stroke-width="5" d="m 184.882,301.813 c 0,1.889 -0.383,3.688 -1.075,5.324 -0.692,1.637 -1.694,3.111 -2.932,4.349 -1.238,1.238 -2.712,2.239 -4.349,2.932 -1.637,0.693 -3.436,1.075 -5.325,1.075 -1.889,0 -3.688,-0.383 -5.325,-1.075 -1.637,-0.692 -3.111,-1.694 -4.349,-2.932 -1.238,-1.238 -2.24,-2.712 -2.932,-4.349 -0.692,-1.637 -1.075,-3.436 -1.075,-5.324" id="path14838" />
		<path fill="none" stroke="#000000" stroke-width="5" d="m 130.162,302.053 c 0,-1.889 0.383,-3.688 1.075,-5.324 0.692,-1.637 1.694,-3.111 2.932,-4.349 1.238,-1.238 2.712,-2.239 4.349,-2.932 1.637,-0.693 3.436,-1.075 5.325,-1.075 1.889,0 3.688,0.383 5.325,1.075 1.637,0.692 3.111,1.694 4.349,2.932 1.238,1.238 2.24,2.712 2.932,4.349 0.692,1.637 1.075,3.436 1.075,5.324" id="path14840" />
		<path fill="none" stroke="#000000" stroke-width="5" d="m 403.767,301.813 c 0,1.889 -0.383,3.688 -1.071,5.324 -0.692,1.636 -1.693,3.111 -2.936,4.349 -1.237,1.238 -2.712,2.239 -4.349,2.932 -1.637,0.693 -3.438,1.075 -5.325,1.075 -1.887,0 -3.688,-0.383 -5.325,-1.075 -1.637,-0.692 -3.106,-1.694 -4.349,-2.932 -1.239,-1.238 -2.239,-2.712 -2.936,-4.349 -0.689,-1.637 -1.071,-3.436 -1.071,-5.324" id="path14842" />
		<path fill="none" stroke="#000000" stroke-width="5" d="m 349.046,302.053 c 0,-1.889 0.383,-3.688 1.075,-5.324 0.691,-1.636 1.693,-3.111 2.932,-4.349 1.239,-1.238 2.712,-2.239 4.353,-2.932 1.636,-0.692 3.436,-1.075 5.32,-1.075 1.892,0 3.688,0.383 5.324,1.075 1.641,0.692 3.11,1.694 4.353,2.932 1.235,1.238 2.235,2.712 2.932,4.349 0.693,1.637 1.075,3.436 1.075,5.324" id="path14844" />
		<path fill="none" stroke="#000000" stroke-width="5" d="m 458.487,301.813 c 0,1.889 -0.387,3.688 -1.075,5.324 -0.692,1.636 -1.693,3.111 -2.932,4.349 -1.239,1.238 -2.716,2.239 -4.353,2.932 -1.637,0.693 -3.437,1.075 -5.325,1.075 -1.888,0 -3.688,-0.383 -5.325,-1.075 -1.637,-0.692 -3.106,-1.694 -4.349,-2.932 -1.239,-1.238 -2.239,-2.712 -2.932,-4.349 -0.693,-1.637 -1.075,-3.436 -1.075,-5.324" id="path14846" />
		<path fill="none" stroke="#000000" stroke-width="5" d="m 403.765,302.053 c 0,-1.889 0.387,-3.688 1.075,-5.324 0.692,-1.636 1.693,-3.111 2.936,-4.349 1.235,-1.238 2.712,-2.239 4.349,-2.932 1.636,-0.692 3.436,-1.075 5.324,-1.075 1.888,0 3.688,0.383 5.324,1.075 1.636,0.692 3.106,1.694 4.349,2.932 1.239,1.238 2.239,2.712 2.932,4.349 0.693,1.637 1.075,3.436 1.075,5.324" id="path14848" />
		<path fill="none" stroke="#000000" stroke-width="5" d="m 458.485,302.053 c 0,-1.889 0.383,-3.688 1.071,-5.324 0.692,-1.636 1.693,-3.111 2.936,-4.349 1.239,-1.238 2.712,-2.239 4.349,-2.932 1.636,-0.692 3.438,-1.075 5.324,-1.075 1.886,0 3.688,0.383 5.324,1.075 1.636,0.692 3.106,1.694 4.349,2.932 1.239,1.238 2.239,2.712 2.932,4.349 0.693,1.637 1.075,3.436 1.075,5.324" id="path14850" />
		<path fill="none" stroke="#000000" stroke-width="5" d="m 130.162,300.864 c 0,0.472 -0.024,0.938 -0.071,1.399 -0.046,0.46 -0.116,0.913 -0.207,1.358 -0.091,0.444 -0.204,0.882 -0.337,1.311 -0.133,0.429 -0.287,0.848 -0.46,1.257 -0.173,0.409 -0.366,0.809 -0.576,1.195 -0.21,0.388 -0.439,0.764 -0.685,1.128 -0.246,0.364 -0.509,0.715 -0.788,1.053 -0.279,0.338 -0.574,0.662 -0.883,0.972 -0.309,0.31 -0.633,0.604 -0.971,0.883 -0.338,0.279 -0.689,0.542 -1.054,0.788 -0.364,0.245 -0.74,0.475 -1.128,0.685 -0.194,0.105 -0.392,0.207 -0.591,0.303" id="path14852" />
		<path fill="none" stroke="#000000" stroke-width="5" d="m 488.181,309.461 c -0.245,-0.364 -0.475,-0.74 -0.685,-1.129 -0.211,-0.387 -0.403,-0.786 -0.576,-1.195 -0.173,-0.409 -0.326,-0.828 -0.46,-1.257 -0.134,-0.429 -0.246,-0.866 -0.337,-1.311 -0.092,-0.445 -0.161,-0.898 -0.208,-1.358 -0.046,-0.46 -0.07,-0.926 -0.07,-1.398" id="path14854" />
	</g>
	<g id="waves1" transform="matrix(0.96,0,0,0.96,12.229061,13.297)">
		<path fill="none" stroke="#000000" stroke-width="5" d="m 239.604,332.305 c 0,7.556 -6.125,13.68 -13.68,13.68 -7.555,0 -13.68,-6.124 -13.68,-13.68" id="path14857" />
		<path fill="none" stroke="#000000" stroke-width="5" d="m 184.883,332.545 c 0,-7.556 6.125,-13.68 13.68,-13.68 7.555,0 13.68,6.124 13.68,13.68" id="path14859" />
		<path fill="none" stroke="#000000" stroke-width="5" d="m 294.325,332.305 c 0,7.556 -6.125,13.68 -13.681,13.68 -7.555,0 -13.68,-6.124 -13.68,-13.68" id="path14861" />
		<path fill="none" stroke="#000000" stroke-width="5" d="m 239.604,332.545 c 0,-7.556 6.125,-13.68 13.68,-13.68 7.555,0 13.68,6.124 13.68,13.68" id="path14863" />
		<path fill="none" stroke="#000000" stroke-width="5" d="m 349.047,332.305 c 0,7.556 -6.125,13.68 -13.681,13.68 -7.56,0 -13.685,-6.124 -13.685,-13.68" id="path14865" />
		<path fill="none" stroke="#000000" stroke-width="5" d="m 294.325,332.545 c 0,-7.556 6.125,-13.68 13.68,-13.68 7.555,0 13.68,6.124 13.68,13.68" id="path14867" />
		<path fill="none" stroke="#000000" stroke-width="5" d="m 184.883,332.305 c 0,7.556 -6.125,13.68 -13.68,13.68 -7.555,0 -13.68,-6.124 -13.68,-13.68" id="path14869" />
		<path fill="none" stroke="#000000" stroke-width="5" d="m 130.163,332.545 c 0,-7.556 6.125,-13.68 13.68,-13.68 7.555,0 13.68,6.124 13.68,13.68" id="path14871" />
		<path fill="none" stroke="#000000" stroke-width="5" d="m 403.768,332.305 c 0,7.556 -6.125,13.68 -13.681,13.68 -7.556,0 -13.681,-6.124 -13.681,-13.68" id="path14873" />
		<path fill="none" stroke="#000000" stroke-width="5" d="m 349.047,332.545 c 0,-7.556 6.125,-13.68 13.68,-13.68 7.559,0 13.684,6.124 13.684,13.68" id="path14875" />
		<path fill="none" stroke="#000000" stroke-width="5" d="m 458.488,332.305 c 0,7.556 -6.125,13.68 -13.685,13.68 -7.556,0 -13.681,-6.124 -13.681,-13.68" id="path14877" />
		<path fill="none" stroke="#000000" stroke-width="5" d="m 403.766,332.545 c 0,-7.556 6.125,-13.68 13.684,-13.68 7.555,0 13.68,6.124 13.68,13.68" id="path14879" />
		<path fill="none" stroke="#000000" stroke-width="5" d="m 458.486,332.545 c 0,-7.556 6.125,-13.68 13.68,-13.68 7.555,0 13.68,6.124 13.68,13.68" id="path14881" />
		<path fill="none" stroke="#000000" stroke-width="5" d="m 130.163,331.356 c 0,0.472 -0.024,0.939 -0.071,1.399 -0.046,0.46 -0.116,0.913 -0.208,1.358 -0.091,0.445 -0.204,0.883 -0.337,1.311 -0.133,0.428 -0.287,0.847 -0.46,1.257 -0.173,0.409 -0.365,0.808 -0.576,1.196 -0.211,0.388 -0.44,0.764 -0.686,1.127 -0.246,0.363 -0.509,0.715 -0.788,1.053 -0.279,0.338 -0.574,0.662 -0.883,0.971 -0.309,0.31 -0.633,0.604 -0.971,0.883 -0.338,0.279 -0.689,0.542 -1.054,0.787 -0.364,0.246 -0.74,0.475 -1.128,0.685 -0.245,0.133 -0.494,0.259 -0.748,0.377" id="path14883" />
		<path fill="none" stroke="#000000" stroke-width="5" d="m 488.182,339.953 c -0.246,-0.364 -0.475,-0.74 -0.685,-1.129 -0.21,-0.387 -0.403,-0.786 -0.576,-1.195 -0.173,-0.409 -0.327,-0.828 -0.46,-1.257 -0.134,-0.429 -0.246,-0.866 -0.337,-1.311 -0.091,-0.445 -0.161,-0.898 -0.208,-1.358 -0.047,-0.46 -0.07,-0.926 -0.07,-1.398" id="path14885" />
	</g>
</g>
<rect id="greyBox" x="125.985" y="277" display="none" fill="none" stroke="#CCCCCC" stroke-width="10" width="359.861" height="242.5" />
</svg>
