<?xml version="1.0" encoding="UTF-8" standalone="no"?>
<!-- Generator: Adobe Illustrator 14.0.0, SVG Export Plug-In . SVG Version: 6.00 Build 43363)  -->

<svg
   version="1.1"
   id="Version_1.0"
   x="0px"
   y="0px"
   width="612px"
   height="792px"
   viewBox="0 0 612 792"
   enable-background="new 0 0 612 792"
   xml:space="preserve"
   sodipodi:docname="10200300.svg"
   inkscape:version="1.1 (c68e22c387, 2021-05-23)"
   xmlns:inkscape="http://www.inkscape.org/namespaces/inkscape"
   xmlns:sodipodi="http://sodipodi.sourceforge.net/DTD/sodipodi-0.dtd"
   xmlns="http://www.w3.org/2000/svg"
   xmlns:svg="http://www.w3.org/2000/svg"><defs
   id="defs1897" /><sodipodi:namedview
   id="namedview1895"
   pagecolor="#ffffff"
   bordercolor="#666666"
   borderopacity="1.0"
   inkscape:pageshadow="2"
   inkscape:pageopacity="0.0"
   inkscape:pagecheckerboard="0"
   showgrid="false"
   inkscape:zoom="1.040404"
   inkscape:cx="288.8301"
   inkscape:cy="395.51942"
   inkscape:window-width="1920"
   inkscape:window-height="1009"
   inkscape:window-x="-8"
   inkscape:window-y="-8"
   inkscape:window-maximized="1"
   inkscape:current-layer="Version_1.0" />
<g
   id="octagon"
   display="none">
	<g
   id="outFrame"
   display="inline">
		<line
   fill="none"
   stroke="#0000FF"
   stroke-width="2"
   x1="220"
   y1="309.5"
   x2="306"
   y2="273"
   id="line1855" />
		<line
   fill="none"
   stroke="#0000FF"
   stroke-width="2"
   x1="306"
   y1="273"
   x2="390.5"
   y2="309.5"
   id="line1857" />
		<line
   fill="none"
   stroke="#0000FF"
   stroke-width="2"
   x1="390.5"
   y1="309.5"
   x2="427"
   y2="396"
   id="line1859" />
		<line
   fill="none"
   stroke="#0000FF"
   stroke-width="2"
   x1="427"
   y1="396"
   x2="390.5"
   y2="482.5"
   id="line1861" />
		<line
   fill="none"
   stroke="#0000FF"
   stroke-width="2"
   x1="390.5"
   y1="482.5"
   x2="306"
   y2="516"
   id="line1863" />
		<line
   fill="none"
   stroke="#0000FF"
   stroke-width="2"
   x1="306"
   y1="516"
   x2="220"
   y2="482.5"
   id="line1865" />
		<line
   fill="none"
   stroke="#0000FF"
   stroke-width="2"
   x1="220"
   y1="482.5"
   x2="183"
   y2="396"
   id="line1867" />
		<line
   fill="none"
   stroke="#0000FF"
   stroke-width="2"
   x1="183"
   y1="396"
   x2="220"
   y2="309.5"
   id="line1869" />
	</g>
	<line
   id="bottom"
   fill="none"
   stroke="#0000FF"
   stroke-width="2"
   x1="203.966"
   y1="445.015"
   x2="406.199"
   y2="445.295" />
	<line
   id="top"
   fill="none"
   stroke="#0000FF"
   stroke-width="2"
   x1="203.966"
   y1="346.985"
   x2="406.199"
   y2="346.705" />
</g>
<g
   id="main"
   transform="translate(56.708738,63.825243)">
	<g
   id="g1891">
		<g
   id="g1881">
			<path
   id="_65363480"
   d="m 275.5,245.8 h 27.4 V 238 h -32.6 c 0.8,1.5 3.6,7.8 5.2,7.8 z" />
			<path
   id="_65379072"
   d="m 270.9,254.1 h 3.6 v 1.6 c 0,7.4 6.8,12.9 14.5,12.9 9.5,0 14,-8.1 14,-18.1 h -28 c -1.5,0 -3.5,2.6 -4.1,3.6 z" />
			<path
   id="_94401360"
   d="m 193.3,324.4 v 1 c 0,1.6 4.5,6.7 7.2,6.7 h 1.5 c 3.7,0 49.2,-33.9 57.4,-38.3 l 0.3,34.8 37.5,-55.5 h -37.7 c -1.9,0 -30.3,21.1 -34.6,23.9 -5.6,3.7 -12,8.1 -17.3,12.2 -4.9,3.9 -14.3,7.3 -14.3,15.2 z" />
			<path
   id="_66403960"
   d="m 175.7,342 v -68.8 h -8.3 c -2,0 -4.7,2 -4.7,3.6 v 61.1 c 0,2.3 1.2,3.2 2.6,4.1 z" />
			<path
   id="_66403768"
   d="m 270.3,328.6 h 31 v 12.9 H 260 v 62.6 h 20.7 c 2.7,0 3.8,-17.6 4.3,-21 1.2,-6.9 2.9,-15.9 3.4,-22.5 h 0.8 l 6.4,43.4 h 21.7 V 281 c 0,-2.6 -5.1,-7.8 -8.3,-7.8 h -0.4 c -2.3,0 -17.2,23.7 -19.5,27.1 -2.5,3.9 -18.2,26.2 -18.8,28.3 z" />
			<polygon
   id="_66403824"
   points="245,405.1 245,342 175.7,342 175.7,405.1 " />
		</g>
		<g
   id="g1889">
			<line
   id="_40181744"
   fill="none"
   x1="259.70001"
   y1="328.79999"
   x2="260"
   y2="341.5" />
			<line
   id="_39704416"
   fill="none"
   x1="297.20001"
   y1="273.20001"
   x2="308.60001"
   y2="273.20001" />
			<line
   id="_39663360"
   fill="none"
   x1="302.89999"
   y1="245.8"
   x2="302.89999"
   y2="250.5" />
			<line
   id="_40245400"
   fill="none"
   x1="275.5"
   y1="245.8"
   x2="275"
   y2="250.5" />
			<path
   id="_41573280"
   fill="#ffffff"
   d="m 301.4,328.6 h -31 c 0.5,-2 16.2,-24.4 18.8,-28.2 2.3,-3.4 17.2,-27.1 19.5,-27.1 h -11.5 l -37.5,55.5 0.3,12.7 h 41.4 z" />
			<polygon
   id="_41396192"
   fill="#ffffff"
   points="302.9,245.8 275.5,245.8 275,250.5 302.9,250.5 " />
		</g>
	</g>
</g>
</svg>
