<?xml version="1.0" encoding="utf-8"?>
<!-- Generator: Adobe Illustrator 14.0.0, SVG Export Plug-In . SVG Version: 6.00 Build 43363)  -->
<!DOCTYPE svg PUBLIC "-//W3C//DTD SVG 1.1//EN" "http://www.w3.org/Graphics/SVG/1.1/DTD/svg11.dtd">
<svg version="1.1" id="Version_1.0" xmlns="http://www.w3.org/2000/svg" xmlns:xlink="http://www.w3.org/1999/xlink" x="0px" y="0px"
	 width="612px" height="792px" viewBox="0 0 612 792" enable-background="new 0 0 612 792" xml:space="preserve">
<g id="octagon" display="none">
	<g id="outFrame" display="inline">
		<line fill="none" stroke="#0000FF" stroke-width="2" x1="220" y1="309.5" x2="306" y2="273"/>
		<line fill="none" stroke="#0000FF" stroke-width="2" x1="306" y1="273" x2="390.5" y2="309.5"/>
		<line fill="none" stroke="#0000FF" stroke-width="2" x1="390.5" y1="309.5" x2="427" y2="396"/>
		<line fill="none" stroke="#0000FF" stroke-width="2" x1="427" y1="396" x2="390.5" y2="482.5"/>
		<line fill="none" stroke="#0000FF" stroke-width="2" x1="390.5" y1="482.5" x2="306" y2="516"/>
		<line fill="none" stroke="#0000FF" stroke-width="2" x1="306" y1="516" x2="220" y2="482.5"/>
		<line fill="none" stroke="#0000FF" stroke-width="2" x1="220" y1="482.5" x2="183" y2="396"/>
		<line fill="none" stroke="#0000FF" stroke-width="2" x1="183" y1="396" x2="220" y2="309.5"/>
	</g>
	<line id="bottom" fill="none" stroke="#0000FF" stroke-width="2" x1="203.966" y1="445.015" x2="406.199" y2="445.295"/>
	<line id="top" fill="none" stroke="#0000FF" stroke-width="2" x1="203.966" y1="346.985" x2="406.199" y2="346.705"/>
</g>
<g
   id="main"
   transform="translate(64.5,50.9)">
	<g
   id="g858">
		<path
   id="_64249792"
   d="m 274.1,250.5 v 3.8 h 29.2 v -1.6 c 0,-9.5 -5.6,-14.6 -15.1,-14.6 -7.6,0 -14.1,4.8 -14.1,12.4 z" />
		<path
   id="_65485904"
   d="m 251.4,261.8 h 23.2 l -0.1,3.9 1.3,8.6 c 2.8,1.8 2.2,4.3 7.2,6.8 3.3,1.6 8.1,1.4 11.3,-0.1 5.8,-2.8 9.8,-10.8 7.9,-19.1 H 326 v -3.3 h -74.6 z" />
		<path
   id="_65378144"
   d="m 208.8,285.1 v 0.5 c 0,3.6 10.3,15.8 12.7,19.1 3.2,4.3 9.9,16 15.9,16 3.5,0 20.6,-13.2 24.3,-15.7 l 0.1,34.6 35.5,-53 c -8.9,0 -29.7,-1 -36.5,0.7 -5.1,1.4 -18.6,14.7 -22.3,15 -0.5,-1.7 -7.7,-10.9 -9.3,-13.3 -2,-3 -7.1,-11.4 -11.2,-11.4 h -2.2 c -3.8,-0.1 -7,3.5 -7,7.5 z" />
		<polygon
   id="_65379000"
   fill="#ffffff"
   points="146.7,323.4 159.1,331.5 159,312.7 146.7,304.5 " />
		<path
   id="_65378808"
   d="m 196.9,339.6 13,8.6 -0.1,19 -12.9,-8.7 z m -24.8,-17.8 12.4,8.6 v 19 l -12.4,-8.7 z m -25.4,-17.3 12.3,8.2 0.1,18.8 -12.4,-8.1 z m -14.1,11.3 c 0,2.1 36.8,26.4 41.4,29.4 7.3,4.9 13.8,9.7 21.1,14.6 3.7,2.6 6.9,4.8 10.5,7.2 3.4,2.3 8.6,4.4 8.6,9.3 v 32.9 h 29.2 v -29.6 c 0,-2.9 4.3,-7 4.3,-7.6 0,-2.9 -2.8,-0.4 -3.9,-4.7 -1,-3.8 -0.7,-3.3 -2.9,-6.3 -2.5,-3.4 -6.6,-6.3 -12.1,-6.3 -7.8,0 -5.6,-0.7 -11.6,-4.6 -3.7,-2.5 -7.1,-4.8 -10.5,-7.3 -6.4,-4.9 -14,-10 -20.7,-14.4 -6,-4 -38.6,-28 -42,-28.8 -1,2 -11.4,16.2 -11.4,16.2 z" />
		<polygon
   id="_65377104"
   fill="#ffffff"
   points="172.1,340.7 184.4,349.4 184.5,330.4 172.1,321.8 " />
		<polygon
   id="_65450664"
   fill="#ffffff"
   points="196.9,358.5 209.8,367.2 209.9,348.2 196.9,339.6 " />
		<path
   id="_65717896"
   d="m 271.4,339.6 h 30.2 v 11.3 h -40 v 58.3 h 20.9 l 3.5,-40.4 h 6 l 3.2,40.5 h 20.5 V 292.6 c 0,-2 -6,-5.9 -8.1,-5.9 -2.1,0 -33.3,47.5 -36.2,52.9 z" />
		<line
   id="_40116400"
   fill="none"
   x1="297.29999"
   y1="286.70001"
   x2="307.60001"
   y2="286.70001" />
		<line
   id="_40133808"
   fill="none"
   x1="261.79999"
   y1="339.70001"
   x2="261.70001"
   y2="350.90002" />
		<path
   id="_39914448"
   fill="#ffffff"
   d="m 261.8,339.7 -0.1,11.2 h 40 v -11.3 h -30.2 c 2.8,-5.4 34,-52.9 36.2,-52.9 h -10.3 z" />
		<line
   id="_41336896"
   fill="none"
   x1="274.09998"
   y1="254.3"
   x2="274.09998"
   y2="258.60001" />
		<line
   id="_41336344"
   fill="none"
   x1="303.29999"
   y1="254.3"
   x2="303.29999"
   y2="258.60001" />
		<polygon
   id="_41325752"
   fill="#ffffff"
   points="303.3,258.6 303.3,254.3 274.1,254.3 274.1,258.6 " />
	</g>
</g>
</svg>
