<?xml version="1.0" encoding="utf-8"?>
<!-- Generator: Adobe Illustrator 14.0.0, SVG Export Plug-In . SVG Version: 6.00 Build 43363)  -->
<!DOCTYPE svg PUBLIC "-//W3C//DTD SVG 1.1//EN" "http://www.w3.org/Graphics/SVG/1.1/DTD/svg11.dtd">
<svg version="1.1" id="Version_1.0" xmlns="http://www.w3.org/2000/svg" xmlns:xlink="http://www.w3.org/1999/xlink" x="0px" y="0px"
	 width="612px" height="792px" viewBox="0 0 612 792" enable-background="new 0 0 612 792" xml:space="preserve">
<g id="octagon" display="none">
	<g id="outFrame" display="inline">
		<line fill="none" stroke="#0000FF" stroke-width="2" x1="220" y1="309.5" x2="306" y2="273"/>
		<line fill="none" stroke="#0000FF" stroke-width="2" x1="306" y1="273" x2="390.5" y2="309.5"/>
		<line fill="none" stroke="#0000FF" stroke-width="2" x1="390.5" y1="309.5" x2="427" y2="396"/>
		<line fill="none" stroke="#0000FF" stroke-width="2" x1="427" y1="396" x2="390.5" y2="482.5"/>
		<line fill="none" stroke="#0000FF" stroke-width="2" x1="390.5" y1="482.5" x2="306" y2="516"/>
		<line fill="none" stroke="#0000FF" stroke-width="2" x1="306" y1="516" x2="220" y2="482.5"/>
		<line fill="none" stroke="#0000FF" stroke-width="2" x1="220" y1="482.5" x2="183" y2="396"/>
		<line fill="none" stroke="#0000FF" stroke-width="2" x1="183" y1="396" x2="220" y2="309.5"/>
	</g>
	<line id="bottom" fill="none" stroke="#0000FF" stroke-width="2" x1="203.966" y1="445.015" x2="406.199" y2="445.295"/>
	<line id="top" fill="none" stroke="#0000FF" stroke-width="2" x1="203.966" y1="346.985" x2="406.199" y2="346.705"/>
</g>
<g
   id="main"
   transform="translate(73.168539,59.325843)">
	<g
   id="g876">
		<polygon
   id="_94647176"
   fill="#ffffff"
   points="171.5,270.9 171.5,271.4 173.5,271.4 " />
		<path
   id="_94720800"
   d="m 293.9,279.8 27.9,77 h -56.3 z m -121.9,0.1 27.9,77 -55.6,-0.2 z m 1.5,-8.5 h -2 v -0.5 z m 0,0 7.6,1.2 1.6,-0.2 23.8,-3.4 2.6,0.3 c 7.9,0 8.2,9.1 10.2,9.1 h 7.1 V 394.8 H 199 v 5.6 h -11.2 v 6.1 h -9.2 v 9.7 h 108.8 v -10.1 h -9.7 v -5.6 h -11.2 v -5.6 H 238.1 V 278.5 h 8.1 c 2.4,0 1.5,-9.1 11.2,-9.1 h 1.5 l 23.4,3 2.5,0.1 7.6,-0.9 c -2.7,5.7 -5.6,15.4 -8,21.7 -2.8,7.5 -5,14.7 -7.9,22.1 -2.9,7.5 -5.2,14.6 -8,22 -1.2,3.3 -2.8,7.4 -3.9,10.8 -0.7,2.1 -1.4,3.7 -2,5.6 -0.9,3 -0.3,3 -4.1,3 5.1,7.6 19.2,17.3 32,17.3 h 6.1 c 12.9,0 27.5,-9.7 32.5,-17.3 h -2.6 L 294.8,271 c 2.4,-0.3 6.8,-2.1 6.8,-4.1 0,-2 -3.6,0.5 -6.1,0.5 h -1 c -13.1,0 -23.1,-10.7 -36.6,-10.7 h -3 c -7,0 -13,3.3 -16.8,6.6 -1.9,-0.9 -3.1,-0.6 -3.1,-3.6 0,-1 2.6,-8.2 3,-9.1 l -4.7,-14.7 -0.8,-0.1 c -0.2,2.3 -2.8,9.7 -3.6,12.2 -2,6 1.6,6.3 1.6,11.8 v 1.5 c 0,1.8 -1.1,1.3 -2.5,2 -4,-3.4 -9.7,-6.6 -16.8,-6.6 h -3 c -13.8,0 -23.6,10.7 -36.6,10.7 H 170 c -3.9,0 -5.8,-3.5 -6.1,0.5 l 6.9,3.4 c -5.9,12.3 -10.3,29.7 -15.9,43.5 -3,7.3 -5.2,14.5 -8.1,21.9 -1.5,3.8 -2.4,7.1 -3.9,10.8 -1.2,3 -1.6,9.2 -5.4,9.3 5.1,7.6 18.5,17.3 31,17.3 h 6.6 c 13.3,0 26.7,-9.3 32,-17.3 H 204 l -30.5,-85.4 z" />
	</g>
</g>
</svg>
