<?xml version="1.0" encoding="UTF-8" standalone="no"?>
<!-- Generator: Adobe Illustrator 16.0.0, SVG Export Plug-In . SVG Version: 6.00 Build 0)  -->

<svg
   version="1.1"
   id="Version_1.0"
   x="0px"
   y="0px"
   width="612px"
   height="792px"
   viewBox="0 0 612 792"
   enable-background="new 0 0 612 792"
   xml:space="preserve"
   sodipodi:docname="20120101.svg"
   inkscape:version="1.1 (c68e22c387, 2021-05-23)"
   xmlns:inkscape="http://www.inkscape.org/namespaces/inkscape"
   xmlns:sodipodi="http://sodipodi.sourceforge.net/DTD/sodipodi-0.dtd"
   xmlns="http://www.w3.org/2000/svg"
   xmlns:svg="http://www.w3.org/2000/svg"><defs
   id="defs1147" /><sodipodi:namedview
   id="namedview1145"
   pagecolor="#ffffff"
   bordercolor="#666666"
   borderopacity="1.0"
   inkscape:pageshadow="2"
   inkscape:pageopacity="0.0"
   inkscape:pagecheckerboard="0"
   showgrid="false"
   inkscape:zoom="1.1010101"
   inkscape:cx="299.72477"
   inkscape:cy="395.54587"
   inkscape:window-width="1920"
   inkscape:window-height="1009"
   inkscape:window-x="1912"
   inkscape:window-y="-8"
   inkscape:window-maximized="1"
   inkscape:current-layer="g1139" />
<g
   id="octagon"
   display="none">
	<g
   id="outFrame"
   display="inline">
		<line
   fill="none"
   stroke="#0000FF"
   stroke-width="2"
   x1="220"
   y1="309.5"
   x2="306"
   y2="273"
   id="line1072" />
		<line
   fill="none"
   stroke="#0000FF"
   stroke-width="2"
   x1="306"
   y1="273"
   x2="390.5"
   y2="309.5"
   id="line1074" />
		<line
   fill="none"
   stroke="#0000FF"
   stroke-width="2"
   x1="390.5"
   y1="309.5"
   x2="427"
   y2="396"
   id="line1076" />
		<line
   fill="none"
   stroke="#0000FF"
   stroke-width="2"
   x1="427"
   y1="396"
   x2="390.5"
   y2="482.5"
   id="line1078" />
		<line
   fill="none"
   stroke="#0000FF"
   stroke-width="2"
   x1="390.5"
   y1="482.5"
   x2="306"
   y2="516"
   id="line1080" />
		<line
   fill="none"
   stroke="#0000FF"
   stroke-width="2"
   x1="306"
   y1="516"
   x2="220"
   y2="482.5"
   id="line1082" />
		<line
   fill="none"
   stroke="#0000FF"
   stroke-width="2"
   x1="220"
   y1="482.5"
   x2="183"
   y2="396"
   id="line1084" />
		<line
   fill="none"
   stroke="#0000FF"
   stroke-width="2"
   x1="183"
   y1="396"
   x2="220"
   y2="309.5"
   id="line1086" />
	</g>
	
		<line
   id="mod2_1_"
   display="inline"
   fill="none"
   stroke="#0000FF"
   stroke-width="2"
   x1="203.966"
   y1="445.015"
   x2="406.199"
   y2="445.295" />
	
		<line
   id="mod1_1_"
   display="inline"
   fill="none"
   stroke="#0000FF"
   stroke-width="2"
   x1="203.966"
   y1="346.985"
   x2="406.199"
   y2="346.705" />
</g>
<g
   id="main">
	<g
   id="g1139"
   transform="translate(115.34862,41.779817)">
		<polygon id="_41234416" points="184.1,263.8 184.3,263.1 181.7,262.7 181.5,263.3 " />
		<path id="_41732696" fill="#ffffff" d="m 185.2,263.3 4.6,0.9 1.6,-9.2 c -0.9,-0.1 -0.5,-0.2 -1.4,-0.2 -4,0 -3.5,5.8 -4.8,8.5 z" />
		<path id="_40069960" fill="#ffffff" d="m 190.8,264.4 4.6,0.9 0.4,-6.6 0.6,0.5 c -0.1,-1 -0.1,-0.8 -0.9,-0.7 l 0.2,-0.2 -3,-2.8 -0.2,0.2 z" />
		<polygon id="_41956312" fill="#ffffff" points="199.8,266.1 196.4,259.6 196.1,265.5 " />
		<polygon id="_42934992" fill="#ffffff" points="184.1,263.8 181.5,263.3 179.1,269.9 182.6,270.6 " />
		<polygon id="_41956504" points="183.5,270.6 185,264 184.1,263.8 182.6,270.6 " />
		<polygon id="_40859248" fill="#ffffff" points="182.8,271.2 183.2,271.5 183.5,271 183.5,270.6 182.6,270.6 182.4,271.2 " />
		<polygon id="_42441848" fill="#ffffff" points="185,264 183.5,270.6 188.7,271.5 189.6,264.9 185.2,264 185.2,263.3 184.3,263.1 184.1,263.8 " />
		<polygon id="_41956696" fill="#ffffff" points="194.9,272.6 195.3,266 190.7,265.1 189.6,271.7 " />
		<path id="_42713152" fill="#ffffff" d="m 201,274.8 1,-0.1 -0.8,-1 c 0,-3.3 -0.1,-3.1 -0.8,-5.5 -0.4,-1.4 -0.1,-1.2 -1.7,-1.5 -0.9,-0.2 -1.9,-0.4 -2.7,-0.5 l -0.5,6.5 5.5,1 z" />
		<polygon id="_41956984" points="182.6,270.6 179.1,269.9 181.5,263.3 180.5,262.6 176.2,276.9 176.4,276.9 177.2,276.7 178.9,270.6 182.4,271.2 " />
		<polygon id="_42712984" fill="#ffffff" points="182.2,278 187.6,279.1 188.5,272.4 183.2,271.5 " />
		<path id="_41957464" fill="#ffffff" d="m 188.5,279.4 5.7,1.3 c 0,-8.6 3.2,-6.2 -4.7,-8.1 z" />
		<path id="_41874056" fill="#ffffff" d="m 200.6,282 0.4,-7.2 -5.5,-1.1 c 0,8.4 -3.2,6.4 5.1,8.3 z" />
		<path id="_42057872" fill="#ffffff" d="m 201.2,282.2 2.6,0.4 c -0.3,-1.5 -0.6,-7.5 -2.1,-7.6 z" />
		<polygon id="_42036056" fill="#ffffff" points="201.2,282.9 201.2,282.2 200.6,282 200.6,282.7 " />
		<path id="_41873672" d="m 179.9,284.4 c 2,0 1.3,-4.3 2,-5.7 l -1.1,-0.2 z" />
		<polygon id="_42712872" fill="#ffffff" points="193.5,287.7 194.2,281.3 188.4,280 187.6,286.2 " />
		<polygon id="_41957272" fill="#ffffff" points="200.6,282.7 194.9,281.6 194.2,287.8 200.1,289.2 " />
		<polygon id="_42934600" points="200.8,289.5 201.2,282.9 200.6,282.7 200.1,289.2 " />
		<polygon id="_42934656" fill="#ffffff" points="200.8,290.3 200.8,289.5 200.1,289.2 200.1,290.3 " />
		<path id="_42934824" fill="#ffffff" d="m 200.8,289.5 4.2,0.8 c -0.2,-0.4 -0.6,-4 -0.7,-4.8 -0.3,-2.4 -0.6,-2.4 -3.1,-2.6 z" />
		<path id="_42525368" fill="#ffffff" d="m 179.9,284.4 -0.2,0.7 c -2.9,-0.1 -3.7,-2.3 -4.2,0.8 -0.2,0.9 -0.8,5.3 -0.7,6 0.1,0.5 1.8,0.6 2.4,0.8 1.7,0.4 1.7,0.6 1.7,-1.3 0,-1.9 0.7,-4.3 0.9,-6.1 h 0.9 l -0.9,8 5.9,1.4 0.9,-7.9 -5.8,-1.3 v -1 l 5.8,1.4 0.7,-6.1 -5.4,-1.1 c -0.7,1.4 0,5.7 -2,5.7 z" />
		<path id="_42713768" fill="#ffffff" d="M 186.3 295.6 L 186.5 294.9 L 186.1 294.7 H 185.7 c 0 0.9 -0.2 0.7 0.6 0.9 z" />
		<polygon id="_41955736" fill="#ffffff" points="192.7,296.3 193.5,288.6 187.4,287 186.5,294.9 " />
		<polygon id="_42360728" points="192.7,297.1 192.7,296.3 186.5,294.9 186.3,295.6 " />
		<polygon id="_42713880" fill="#ffffff" points="199.5,297.8 200.1,290.3 194.2,288.8 193.6,296.5 " />
		<polygon id="_42620888" fill="#ffffff" points="205.7,299.1 205,291.5 200.8,290.6 200.3,298 " />
		<polygon id="_41955448" fill="#ffffff" points="177.9,301.1 178.6,293.9 174.7,293 174.1,300.2 " />
		<polygon id="_42934320" fill="#ffffff" points="185.7,303.5 185.7,302.6 184.9,302.6 185.4,295.4 179.6,294.1 178.9,301.2 184.8,302.4 184.8,303.5 " />
		<polygon id="_41955352" fill="#ffffff" points="186.3,295.6 185.9,302.8 192,303.9 192.7,297.1 " />
		<path id="_42934208" fill="#ffffff" d="m 192.7,297.1 h 0.7 l -0.5,7 H 192 v 0.9 l 0.7,0.2 c 0,-0.4 0,-0.9 0.4,-0.9 1.7,0 3.9,1.1 5.7,1.1 0,-0.8 0.7,-6.3 0.6,-6.6 -0.1,-0.4 -4.9,-1.4 -5.8,-1.4 v -0.9 l -0.9,-0.2 z" />
		<path id="_42714104" fill="#ffffff" d="m 205.8,307 0.1,-2.9 -0.3,-4.1 -5.5,-1.1 c 0,0.9 -0.4,6.7 -0.4,6.7 0.3,0.4 5.4,1.4 6.1,1.4 z" />
		<path id="_41955064" fill="#ffffff" d="m 174,307 c 0,1.3 -0.5,0.5 1.3,1.1 0.7,0.3 1.6,0.6 2.5,0.7 v -5.3 c 0,-1.7 1,-1.4 -1,-1.8 -1.1,-0.2 -1.7,-0.6 -2.8,-0.6 z" />
		<polygon id="_40821288" fill="#ffffff" points="184.8,303.5 178.6,302.2 178.7,304.6 178.4,309.1 184.3,311 " />
		<path id="_42714272" fill="#ffffff" d="m 199.2,311.8 c 2,-1 3.8,-2 6.9,-2 -0.2,-0.2 -0.3,-0.2 -0.3,-0.6 v -1 l -6.2,-1.4 z" />
		<polygon id="_41954776" fill="#ffffff" points="190.9,312.9 192,305 185.7,303.7 185.2,311.2 " />
		<polygon id="_42714440" points="191.8,313.2 192.7,305.3 192,305 190.9,312.9 " />
		<polygon id="_41954488" fill="#ffffff" points="191.4,314 191.8,314 191.8,313.2 190.9,312.9 190.9,313.8 " />
		<path id="_42714608" d="m 191.8,314 4.1,1.2 0.5,-0.1 c -0.3,-1.2 -3.5,-1.4 -4.6,-2 z" />
		<path id="_41954200" fill="#ffffff" d="m 185.2,311.2 -0.9,-0.2 v 0.9 l -5.9,-1.6 v 0.9 c 0,0.6 -0.1,0.5 -0.2,0.9 1,1.8 4,6.6 4,8.8 h 0.5 l -0.3,-0.9 2,0.9 v -8.8 h 0.9 l -0.1,-0.9 z" />
		<polygon id="_42714776" fill="#ffffff" points="185.2,312.3 185.2,312.9 185.2,321.5 189.4,323.5 190.9,313.8 " />
		<path id="_41953912" fill="#ffffff" d="m 184.5,324.8 0.1,-1.4 c 0,-1.3 -0.5,-1.9 -1.6,-2.2 z" />
		<path id="_42706992" fill="#ffffff" d="m 191.8,313.2 c 1.1,0.5 4.3,0.7 4.6,2 l -0.5,0.1 -4.1,-1.3 -1.5,10 2.2,1.2 c 0.9,-1.7 1.9,-4.9 2.7,-6.9 0.9,-2.1 2.5,-4.2 3.6,-6 h -0.5 l 0.5,-5.7 -6.1,-1.3 z" />
		<path id="_41953624" fill="#ffffff" d="m 185.8,327.9 -0.8,-1.6 c 0,1.5 0.9,4.5 2,4.8 l -0.2,-0.6 c 1.4,-0.4 2.2,-4.4 2.4,-6.1 l -4,-2 z" />
		<path id="_42707160" fill="#ffffff" d="m 187.2,331.4 1.6,5.1 3.4,-10.5 -2.2,-1 c -0.8,1.8 -0.6,5.8 -2.8,6.4 z" />
		<path id="_41953336" d="m 187.2,331.4 c 2.2,-0.6 2,-4.6 2.8,-6.4 l 2.2,1 -3.4,10.5 z m -0.4,-0.9 0.2,0.6 c -1.2,-0.2 -2,-3.3 -2,-4.8 l 0.9,1.5 -0.8,-5.4 4,2 c -0.1,1.7 -0.9,5.7 -2.3,6.1 z m -2.3,-5.7 -1.6,-3.5 c 1.1,0.2 1.6,0.8 1.6,2.2 z m 6.4,-11 -1.5,9.7 -4.2,-2 v -8.6 -0.7 z m -6.6,-2.8 0.9,0.2 v 0.9 h -0.9 v 8.8 l -1.9,-0.9 0.2,0.9 h -0.5 c 0,-2.2 -3,-6.9 -4,-8.8 0.2,-0.3 0.2,-0.3 0.2,-0.9 v -0.9 l 5.9,1.6 z m 15.3,-4.2 6.2,1.4 v 1 c 0,0.4 0.1,0.4 0.2,0.7 -3.1,0 -4.8,0.9 -6.9,2 z m -15.3,4.2 -5.9,-1.9 0.2,-4.5 v -2.4 l 6.1,1.3 z m 21.5,-4 c -0.7,0 -5.8,-1 -6,-1.4 0,0 0.4,-5.8 0.4,-6.7 l 5.4,1.1 0.3,4.1 z M 174,301.1 c 1,0 1.7,0.4 2.7,0.6 2,0.4 1,0.2 1,1.8 v 5.3 c -0.8,-0.1 -1.7,-0.4 -2.4,-0.7 -1.8,-0.5 -1.3,0.2 -1.3,-1.1 z m 26.8,-10.5 4.2,0.9 0.7,7.6 -5.4,-1.1 z m -16,12.9 v -1.1 l -5.9,-1.2 0.7,-7.1 5.9,1.3 -0.6,7.2 h 0.7 v 0.9 z m -10.1,-10.5 3.9,0.9 -0.7,7.2 -3.8,-0.9 z m 18.9,3.5 0.7,-7.7 5.9,1.5 -0.7,7.5 z m -0.9,-0.2 0.9,0.2 v 0.9 c 1,0 5.8,1 5.9,1.6 0.1,0.2 -0.6,5.8 -0.6,6.6 -1.9,0 -4,-1.1 -5.7,-1.1 -0.4,0 -0.4,0.5 -0.4,0.9 l 6.1,1.3 -0.6,5.6 h 0.5 c -1.2,1.8 -2.8,3.9 -3.6,6 -0.8,2 -1.8,5.2 -2.7,6.9 l -2.2,-1.1 1.5,-10 h -0.4 l -0.5,-0.3 v -0.9 l -5.7,-1.7 0.5,-7.5 6.3,1.3 v -0.8 h 0.9 l 0.5,-7 h -0.7 l -0.7,6.7 -6.1,-1.1 0.4,-7.2 c -0.8,-0.2 -0.6,0 -0.7,-0.9 h 0.4 l 0.4,0.2 1,-7.9 6.1,1.6 z m 7.9,-13.6 V 282 l 0.7,0.2 v 0.7 c 2.4,0.2 2.7,0.2 3,2.6 0.1,0.8 0.5,4.4 0.7,4.8 l -4.2,-0.8 v 0.9 h -0.7 v -1.2 l -5.9,-1.4 0.7,-6.2 z m 0.6,-0.5 0.5,-7.2 c 1.5,0.2 1.8,6.1 2.1,7.7 z m -12.8,-2.2 5.9,1.3 -0.8,6.4 -6,-1.5 z m 12.2,2 c -8.2,-1.9 -5,0.1 -5,-8.3 l 5.4,1.1 z m -11.1,-9.4 c 8,1.9 4.7,-0.5 4.7,8.1 l -5.7,-1.3 z m -6.3,-1.1 5.3,0.9 -0.9,6.7 -5.4,-1.1 z m 17.8,3.3 v -1.1 l -5.5,-1 0.5,-6.5 c 0.8,0.1 1.7,0.3 2.7,0.5 1.6,0.3 1.3,0.1 1.7,1.4 0.7,2.4 0.8,2.2 0.8,5.5 l 0.8,1 z m -10.3,-9.7 4.6,0.9 -0.4,6.6 -5.3,-0.9 z m 5.7,-5.5 3.4,6.5 -3.7,-0.6 z m -3.9,-3.9 0.1,-0.2 3.1,2.9 -0.2,0.1 c 0.8,-0.2 0.8,-0.3 0.9,0.7 l -0.6,-0.5 -0.4,6.6 -4.6,-0.9 z m -7.3,7.6 c 1.3,-2.7 0.8,-8.5 4.8,-8.5 0.8,0 0.4,0.1 1.3,0.2 l -1.5,9.2 z m -0.9,-0.2 0.9,0.2 v 0.7 l 4.4,0.9 -0.9,6.6 -5.2,-0.9 v 0.4 l -0.3,0.5 -0.4,-0.3 h -0.5 l -1.3,6.5 -3.9,-0.7 v 0.7 c 1.2,0.1 2.4,0.7 3.5,0.7 0.4,0 0,-0.4 1.3,-0.4 v 0.9 l 5.5,1.1 -0.7,5.9 -5.9,-1.4 v 1 l 5.7,1.4 -0.8,7.8 -6,-1.4 0.9,-8 h -0.9 c -0.1,1.9 -0.8,4.3 -0.8,6.1 -0.1,1.9 -0.1,1.7 -1.8,1.3 -0.5,-0.1 -2.2,-0.2 -2.3,-0.8 -0.1,-0.7 0.5,-5.1 0.7,-6 0.5,-3.1 1.3,-0.9 4.2,-0.8 l 0.2,-0.7 c -0.6,-0.3 -3.9,-0.8 -3.9,-1.3 0,-2 0.9,-3.7 0.9,-5.7 -1.5,0.2 -1.8,5.8 -2,7.4 -0.3,2.1 -1,6.5 -0.9,8.2 0.1,2.1 -0.6,6 -0.6,8.7 0,3.3 -0.2,6 -0.2,9.4 h 0.7 v -2.3 l 3.7,1 v 2.4 L 169,311 h -0.2 c -12.6,0 -21.9,24.3 -21.9,38.4 0,5.7 1.9,13.4 5,15.6 1.8,-3.6 3.2,-7.7 5.1,-11.4 1.9,-3.7 3.5,-7.7 5.2,-11.5 0.8,-1.8 1.7,-3.7 2.6,-5.5 1,-2.1 1.9,-3.7 4.6,-2.9 2.3,0.7 4.8,8 5.3,11.4 1.3,9.5 0,22.6 1.5,31.6 1.7,10 5.8,15.9 13.4,19.9 2.4,-1 6.2,-1.4 8.4,-2.9 2.3,-1.6 4.4,-3.1 6,-5.4 3.1,-4.5 4.9,-10.3 4.9,-17.9 l 0.1,-1.5 -0.8,-14 v -0.7 c 0,-6.8 1.2,-20.8 7,-20.8 h 0.2 c 3.6,0 5.1,1.4 6.6,3.5 1.4,1.9 3.1,3.6 4.6,5.5 2.9,3.7 6.4,7.2 6.4,13.8 v 1.5 l 0.9,0.2 c 0.9,-4 4.6,-7.1 4.6,-12.9 v -3.8 c 0,-8.8 -3.6,-15.6 -7.4,-20.7 -2,-2.7 -4.4,-4.9 -7.1,-7 -1.8,-1.2 -6.7,-4.7 -9.4,-4.7 l -2,-0.1 -5.7,1 c -0.5,-2.1 0.2,-5 -0.3,-7.8 -0.3,-2 -0.4,-6.2 -0.5,-8.3 -0.4,-5.2 -1.3,-10.6 -2.2,-15.3 -1.6,-8.2 -5,-20.4 -11.4,-23.5 v 0.7 l -1,-0.3 0.3,-0.8 -2,-0.2 c -2.3,-0.3 -4.8,2 -5.8,3.2 -0.5,0.7 -4.2,4.9 -2.1,5.1 0.4,-1.5 3.2,-5.4 4.4,-6.1 z" />
	</g>
	<text transform="matrix(1 0 0 1 254.5654 483.9999)" font-family="sans-serif" font-size="52" id="text1141">LAB</text>
</g>
</svg>
