<?xml version="1.0" encoding="UTF-8" standalone="no"?>
<!-- Generator: Adobe Illustrator 16.0.0, SVG Export Plug-In . SVG Version: 6.00 Build 0)  -->

<svg version="1.1" id="Version_1.0" x="0px" y="0px" width="612px" height="792px" viewBox="0 0 612 792" enable-background="new 0 0 612 792" xml:space="preserve" sodipodi:docname="20121100.svg" inkscape:version="1.1 (c68e22c387, 2021-05-23)" xmlns:inkscape="http://www.inkscape.org/namespaces/inkscape" xmlns:sodipodi="http://sodipodi.sourceforge.net/DTD/sodipodi-0.dtd" xmlns="http://www.w3.org/2000/svg" xmlns:svg="http://www.w3.org/2000/svg"><defs id="defs884" /><sodipodi:namedview id="namedview882" pagecolor="#ffffff" bordercolor="#666666" borderopacity="1.0" inkscape:pageshadow="2" inkscape:pageopacity="0.0" inkscape:pagecheckerboard="0" showgrid="false" inkscape:zoom="1.0113636" inkscape:cx="249.16854" inkscape:cy="396" inkscape:window-width="1920" inkscape:window-height="1009" inkscape:window-x="1912" inkscape:window-y="-8" inkscape:window-maximized="1" inkscape:current-layer="Version_1.0" />
<g id="octagon" display="none">
	<g id="outFrame" display="inline">
		<line fill="none" stroke="#0000FF" stroke-width="2" x1="220" y1="309.5" x2="306" y2="273" id="line855" />
		<line fill="none" stroke="#0000FF" stroke-width="2" x1="306" y1="273" x2="390.5" y2="309.5" id="line857" />
		<line fill="none" stroke="#0000FF" stroke-width="2" x1="390.5" y1="309.5" x2="427" y2="396" id="line859" />
		<line fill="none" stroke="#0000FF" stroke-width="2" x1="427" y1="396" x2="390.5" y2="482.5" id="line861" />
		<line fill="none" stroke="#0000FF" stroke-width="2" x1="390.5" y1="482.5" x2="306" y2="516" id="line863" />
		<line fill="none" stroke="#0000FF" stroke-width="2" x1="306" y1="516" x2="220" y2="482.5" id="line865" />
		<line fill="none" stroke="#0000FF" stroke-width="2" x1="220" y1="482.5" x2="183" y2="396" id="line867" />
		<line fill="none" stroke="#0000FF" stroke-width="2" x1="183" y1="396" x2="220" y2="309.5" id="line869" />
	</g>
	
		<line id="mod2_1_" display="inline" fill="none" stroke="#0000FF" stroke-width="2" x1="203.966" y1="445.015" x2="406.199" y2="445.295" />
	
		<line id="mod1_1_" display="inline" fill="none" stroke="#0000FF" stroke-width="2" x1="203.966" y1="346.985" x2="406.199" y2="346.705" />
</g>
<g id="main">
	<g id="g878" transform="translate(41.300957,57.556693)">
		<path id="_102612720" fill="#ffffff" d="m 219.96,280.2 c 0,-2.64 0.12,-8.88 -1.2,-9.96 0,2.64 -0.12,8.88 1.2,9.96 z" />
		<path id="_41173376" d="m 218.76,270.24 c 1.32,1.08 1.2,7.2 1.2,9.96 l 6.24,73.68 63.6,0.12 24.96,57.48 c 3.72,-0.36 13.68,-3.84 17.76,-5.16 3,-0.96 16.32,-3.48 16.32,-6.6 v -0.6 c 0,-1.8 -4.68,-12 -5.04,-15.72 L 324.84,390 302.4,335.88 H 242.76 L 241.68,321 H 285 v -13.56 h -44.28 l -2.76,-32.28 c 6.48,-0.6 12.96,-9.72 12.96,-16.68 v -5.52 h -1.2 v -1.92 c 0,-1.92 -5.16,-7.68 -6.72,-8.76 -2.4,-1.8 -8.16,-3.96 -12.12,-3.24 -5.4,0.96 -7.92,1.92 -11.04,5.04 -1.68,1.68 -5.4,7.92 -5.4,10.68 v 3.12 c 0,5.88 1.92,8.88 4.32,12.36 z" />
		<path id="_98494696" d="m 196.44,365.04 c 0,-9.6 2.4,-14.4 5.76,-20.88 3.6,-6.96 8.28,-9.48 11.52,-14.4 l -2.64,-20.4 c -6.6,1.68 -19.32,16.2 -22.92,22.56 -5.88,10.2 -9.6,19.68 -9.6,35.52 v 8.16 c 0,5.4 5.4,20.16 7.68,23.88 4.92,8.04 7.44,11.28 13.8,17.76 9,9.12 26.64,17.76 44.76,17.76 h 2.4 c 12.36,0 24.72,-4.08 32.64,-8.88 4.2,-2.52 21.36,-15.48 21.36,-19.56 0,-2.88 -7.68,-16.56 -8.64,-21 -2.88,3.84 -4.08,7.56 -7.44,11.88 -2.88,3.84 -5.76,6.84 -9.6,9.6 -6.48,4.92 -16.92,9.96 -28.32,9.96 h -3.12 c -25.56,0 -47.64,-22.44 -47.64,-48.36 z" />
	</g>
</g>
</svg>
