<?xml version="1.0" encoding="utf-8"?>
<!-- Generator: Adobe Illustrator 16.0.0, SVG Export Plug-In . SVG Version: 6.00 Build 0)  -->
<!DOCTYPE svg PUBLIC "-//W3C//DTD SVG 1.1//EN" "http://www.w3.org/Graphics/SVG/1.1/DTD/svg11.dtd">
<svg version="1.1" id="Version_1.0" xmlns="http://www.w3.org/2000/svg" xmlns:xlink="http://www.w3.org/1999/xlink" x="0px" y="0px"
	 width="612px" height="792px" viewBox="0 0 612 792" enable-background="new 0 0 612 792" xml:space="preserve">
<g id="octagon" display="none">
	
		<line id="mod2_1_" display="inline" fill="none" stroke="#0000FF" stroke-width="2" x1="203.966" y1="445.015" x2="406.199" y2="445.295"/>
	
		<line id="mod1_1_" display="inline" fill="none" stroke="#0000FF" stroke-width="2" x1="203.966" y1="346.985" x2="406.199" y2="346.705"/>
	<g id="outFrame" display="inline">
		<line fill="none" stroke="#0000FF" stroke-width="2" x1="220" y1="309.5" x2="306" y2="273"/>
		<line fill="none" stroke="#0000FF" stroke-width="2" x1="306" y1="273" x2="390.5" y2="309.5"/>
		<line fill="none" stroke="#0000FF" stroke-width="2" x1="390.5" y1="309.5" x2="427" y2="396"/>
		<line fill="none" stroke="#0000FF" stroke-width="2" x1="427" y1="396" x2="390.5" y2="482.5"/>
		<line fill="none" stroke="#0000FF" stroke-width="2" x1="390.5" y1="482.5" x2="306" y2="516"/>
		<line fill="none" stroke="#0000FF" stroke-width="2" x1="306" y1="516" x2="220" y2="482.5"/>
		<line fill="none" stroke="#0000FF" stroke-width="2" x1="220" y1="482.5" x2="183" y2="396"/>
		<line fill="none" stroke="#0000FF" stroke-width="2" x1="183" y1="396" x2="220" y2="309.5"/>
	</g>
</g>
<g id="main">
	<g transform="translate(76,65)">
		<polygon id="_43846288" points="209.4,305.4 210.5,304.3 209.4,303.8"/>
		<path id="_102731816" d="M 235.2 378.1 L 265.1 358 l 7.1 23 l 3.3 10 l 5.3 17.2 L 235.2 378.1 z M 177.7 408.2 l 8.5 -29.3 l 4.9 -14.7 l 2 -6.4 l 29.7 20.5 L 177.7 408.2 z M 228.8 321.6 L 261.3 352 C 257.5 354.5 230.6 373.2 228.5 373.2 c -0.3 0 -28.9 -19.2 -31.8 -21.3 L 228.8 321.6 z M 248.1 303.8 l 0.6 0.4 l 4.5 14.2 l 6.3 21.7 L 234.2 316.9 L 248.1 303.8 L 248.1 303.8 z M 209.4 305.4 V 303.8 l 1.1 0.5 l 13.4 12.6 l -25 23.5 L 205.4 318 L 209.4 305.4 z M 216.7 301.2 l 24.4 -0.1 l -12.5 11 L 216.7 301.2 z M 225.8 243.4 v 9 H 214.7 c -1.2 0 -2.6 1.4 -2.6 2.6 v 1.6 c 0 1.7 1.9 2.6 3.7 2.6 h 10.1 v 10.6 h -18 c -1.2 0 -2.6 1.4 -2.6 2.6 v 0.5 c 0 2.5 1.2 3.7 3.7 3.7 h 16.9 v 17.5 h -17 c -1.9 0 -2.6 0.8 -3.3 1.7 L 204 300.8 L 191.8 339.9 L 184.4 363.8 L 176.6 387.4 L 176.4 389.5 L 169.2 411.3 l -0.3 2 L 167.6 418.7 C 170 419.3 168.9 420.3 170.8 420.3 h 0.5 c 2.1 0 50.3 -34.2 57.7 -38.1 c 6.2 4.2 56 38.1 58.8 38.1 c 1.5 0 2.6 -1.8 2.6 -3.2 c 0 -0.3 -3.4 -10.1 -3.7 -10.6 l -0.3 -2 L 278.7 380.2 L 271.5 356.9 L 259.7 317.6 C 258.3 315.5 256.3 308.2 255.3 305 C 253.7 300.4 254 294.3 249.1 294.3 H 232.2 V 276.8 h 18 c 1.2 0 2.6 -1.4 2.6 -2.6 V 273.1 c 0 -1.6 -0.5 -3.2 -2.1 -3.2 H 232.2 V 259.3 h 10.1 c 1.8 0 3.7 -0.9 3.7 -2.6 V 255.1 c 0 -1.7 -1.9 -2.6 -3.7 -2.6 H 232.2 V 242.4 c 0 -1.5 -1.8 -2.6 -3.2 -2.6 C 227 239.7 225.8 241.3 225.8 243.4 L 225.8 243.4 z"/>
	</g>
</g>
</svg>
