<?xml version="1.0" encoding="UTF-8" standalone="no"?>
<!-- Generator: Adobe Illustrator 16.0.0, SVG Export Plug-In . SVG Version: 6.00 Build 0)  -->

<svg version="1.1" id="Version_1.0" x="0px" y="0px" width="612px" height="792px" viewBox="0 0 612 792" enable-background="new 0 0 612 792" xml:space="preserve" sodipodi:docname="20121200.svg" inkscape:version="1.1 (c68e22c387, 2021-05-23)" xmlns:inkscape="http://www.inkscape.org/namespaces/inkscape" xmlns:sodipodi="http://sodipodi.sourceforge.net/DTD/sodipodi-0.dtd" xmlns="http://www.w3.org/2000/svg" xmlns:svg="http://www.w3.org/2000/svg"><defs id="defs888" /><sodipodi:namedview id="namedview886" pagecolor="#ffffff" bordercolor="#666666" borderopacity="1.0" inkscape:pageshadow="2" inkscape:pageopacity="0.0" inkscape:pagecheckerboard="0" showgrid="false" inkscape:zoom="1.0113636" inkscape:cx="249.16854" inkscape:cy="396" inkscape:window-width="1920" inkscape:window-height="1009" inkscape:window-x="1912" inkscape:window-y="-8" inkscape:window-maximized="1" inkscape:current-layer="Version_1.0" />
<g id="octagon" display="none">
	
		<line id="mod2_1_" display="inline" fill="none" stroke="#0000FF" stroke-width="2" x1="203.966" y1="445.015" x2="406.199" y2="445.295" />
	
		<line id="mod1_1_" display="inline" fill="none" stroke="#0000FF" stroke-width="2" x1="203.966" y1="346.985" x2="406.199" y2="346.705" />
	<g id="outFrame" display="inline">
		<line fill="none" stroke="#0000FF" stroke-width="2" x1="220" y1="309.5" x2="306" y2="273" id="line859" />
		<line fill="none" stroke="#0000FF" stroke-width="2" x1="306" y1="273" x2="390.5" y2="309.5" id="line861" />
		<line fill="none" stroke="#0000FF" stroke-width="2" x1="390.5" y1="309.5" x2="427" y2="396" id="line863" />
		<line fill="none" stroke="#0000FF" stroke-width="2" x1="427" y1="396" x2="390.5" y2="482.5" id="line865" />
		<line fill="none" stroke="#0000FF" stroke-width="2" x1="390.5" y1="482.5" x2="306" y2="516" id="line867" />
		<line fill="none" stroke="#0000FF" stroke-width="2" x1="306" y1="516" x2="220" y2="482.5" id="line869" />
		<line fill="none" stroke="#0000FF" stroke-width="2" x1="220" y1="482.5" x2="183" y2="396" id="line871" />
		<line fill="none" stroke="#0000FF" stroke-width="2" x1="183" y1="396" x2="220" y2="309.5" id="line873" />
	</g>
</g>
<g id="main">
	<g id="g882" transform="translate(62.945957,89.255639)">
		<path id="_42218880" d="m 190.52,293.37 v 7.37 c 0,4.84 0.55,7.7 2.09,11.22 0.44,0.99 3.74,10.01 3.85,10.01 l 0.88,-0.11 3.63,-7.37 c -2.2,-2.97 -3.52,-10.12 -3.52,-15.62 v -4.4 c 0,-9.35 5.83,-20.68 10.56,-25.63 4.4,-4.51 14.63,-13.75 22.77,-13.97 l -1.1,-6.93 c -17.6,1.43 -39.16,25.63 -39.16,45.43 z" />
		<path id="_95654976" d="m 163.79,293.37 v 12.87 c 0,10.56 13.42,40.81 19.8,42.57 0.33,-1.32 2.42,-5.5 2.42,-6.38 0,0 -5.17,-7.37 -5.83,-8.58 -1.76,-3.3 -3.3,-5.94 -4.84,-9.57 -2.53,-6.49 -4.62,-14.96 -4.62,-23.98 v -5.94 c 0,-20.02 8.36,-32.34 17.27,-43.67 3.41,-4.4 11.66,-11 16.72,-13.97 3.52,-2.09 6.16,-3.52 10.23,-5.17 1.32,-0.55 11.33,-3.19 11.33,-4.07 l -0.55,-6.38 c -5.94,0.22 -19.91,6.6 -24.09,9.13 -7.92,4.84 -12.1,9.02 -18.37,15.29 -9.02,9.02 -19.47,29.92 -19.47,47.85 z" />
		<path id="_230091728" d="m 252.78,254.76 c 15.07,1.21 33.33,22.88 33.33,40.15 v 5.39 c 0,3.74 -3.41,13.75 -3.41,13.86 0,0.55 3.08,7.15 3.41,7.92 l 0.44,0.22 3.96,-8.58 0.33,-1.43 1.65,-14.85 0.44,-1.1 -2.42,-14.85 c -1.76,-0.66 -1.54,-3.52 -2.75,-5.61 -1.1,-1.98 -2.09,-4.07 -3.19,-5.72 -2.64,-4.07 -4.62,-6.38 -8.03,-9.79 -5.39,-5.5 -14.41,-10.45 -23.1,-12.54 z" />
		<path id="_230091784" d="m 256.74,228.03 c 17.38,4.07 27.28,11.44 37.84,22.22 7.48,7.59 18.15,27.5 18.15,42.24 v 9.9 c 0,5.17 -3.63,19.14 -5.61,22.55 -1.76,2.86 -2.97,5.94 -4.73,9.02 -0.66,1.1 -5.94,8.25 -5.94,8.47 0,1.65 2.42,4.07 2.97,6.38 4.18,-1.1 11.88,-15.84 14.19,-20.46 3.08,-6.27 6.71,-19.58 6.71,-28.49 v -8.91 c 0,-0.22 -2.31,-12.32 -2.53,-13.75 -0.66,-2.2 -3.52,-9.13 -4.62,-11.88 -2.2,-5.5 -9.13,-15.95 -13.09,-20.02 -8.91,-9.02 -26.4,-22.88 -42.24,-24.2 z" />
		<path id="_42189704" d="m 266.2,346.83 10.23,33.55 -0.44,0.33 -30.47,-20.9 z m -49.17,0.11 19.91,12.87 -30.25,21.12 z m 24.42,-24.42 22.11,20.57 c -4.29,1.21 -20.13,14.08 -22,14.08 -0.44,0 -20.57,-13.42 -21.45,-14.52 z m 13.2,-12.1 7.81,24.53 L 245.3,319 Z m -26.29,0.33 9.46,8.14 -17.27,16.06 z m 5.17,-2.42 15.95,-0.11 -8.03,8.03 z m 6.49,-41.14 c -0.11,1.54 -0.44,1.76 -0.44,3.41 v 4.95 h -7.48 c -1.21,0 -1.98,0.77 -1.98,1.98 0,1.32 0.22,1.32 0.55,2.42 1.1,0.22 1.1,0.55 2.42,0.55 h 6.38 v 6.93 h -11.33 c -1.54,0 -2.97,0.44 -2.97,1.98 0,1.21 0.77,1.98 1.98,1.98 h 12.32 v 12.32 h -11.33 c -1.32,0 -1.32,0.22 -2.2,0.55 l -6.27,19.8 -2.53,8.03 -10.34,33.22 -2.86,7.81 c 0,5.06 -3.41,8.69 -3.41,13.86 0,1.1 0.22,0.55 0.55,1.98 h 1.32 c 1.43,0 37.73,-25.74 38.61,-25.74 1.54,0 35.42,23.43 39.6,26.18 1.1,-0.55 2.42,-0.88 2.42,-2.42 v -1.54 c 0,-0.11 -3.74,-11.11 -4.29,-12.54 -0.88,-2.75 -3.52,-10.67 -3.85,-13.09 l -2.53,-7.92 -10.34,-33.11 -2.2,-8.58 c -2.42,-0.99 -0.66,-6.38 -3.96,-6.38 h -11.88 v -12.43 h 11.88 c 1.21,0 1.98,-0.77 1.98,-1.98 0,-1.21 -0.77,-1.98 -1.98,-1.98 h -11.88 v -6.93 h 5.94 c 1.65,0 3.41,-0.88 3.41,-2.42 v -0.55 c 0,-1.21 -0.77,-1.98 -1.98,-1.98 h -7.37 v -6.38 c 0,-0.99 -1.43,-2.42 -1.98,-2.42 -0.11,-0.11 -1.76,0.33 -1.98,0.44 z" />
	</g>
</g>
</svg>
