<?xml version="1.0" encoding="UTF-8" standalone="no"?>
<!-- Generator: Adobe Illustrator 16.0.0, SVG Export Plug-In . SVG Version: 6.00 Build 0)  -->

<svg
   version="1.1"
   id="Version_1.0"
   x="0px"
   y="0px"
   width="612px"
   height="792px"
   viewBox="0 0 612 792"
   enable-background="new 0 0 612 792"
   xml:space="preserve"
   sodipodi:docname="20120100.svg"
   inkscape:version="1.1 (c68e22c387, 2021-05-23)"
   xmlns:inkscape="http://www.inkscape.org/namespaces/inkscape"
   xmlns:sodipodi="http://sodipodi.sourceforge.net/DTD/sodipodi-0.dtd"
   xmlns="http://www.w3.org/2000/svg"
   xmlns:svg="http://www.w3.org/2000/svg"><defs
   id="defs890" /><sodipodi:namedview
   id="namedview888"
   pagecolor="#ffffff"
   bordercolor="#666666"
   borderopacity="1.0"
   inkscape:pageshadow="2"
   inkscape:pageopacity="0.0"
   inkscape:pagecheckerboard="0"
   showgrid="false"
   inkscape:zoom="1.0113636"
   inkscape:cx="298.60674"
   inkscape:cy="396"
   inkscape:window-width="1920"
   inkscape:window-height="1009"
   inkscape:window-x="1912"
   inkscape:window-y="-8"
   inkscape:window-maximized="1"
   inkscape:current-layer="Version_1.0" />
<g
   id="octagon"
   display="none">
	<g
   id="outFrame"
   display="inline">
		<line
   fill="none"
   stroke="#0000FF"
   stroke-width="2"
   x1="220"
   y1="309.5"
   x2="306"
   y2="273"
   id="line858" />
		<line
   fill="none"
   stroke="#0000FF"
   stroke-width="2"
   x1="306"
   y1="273"
   x2="390.5"
   y2="309.5"
   id="line860" />
		<line
   fill="none"
   stroke="#0000FF"
   stroke-width="2"
   x1="390.5"
   y1="309.5"
   x2="427"
   y2="396"
   id="line862" />
		<line
   fill="none"
   stroke="#0000FF"
   stroke-width="2"
   x1="427"
   y1="396"
   x2="390.5"
   y2="482.5"
   id="line864" />
		<line
   fill="none"
   stroke="#0000FF"
   stroke-width="2"
   x1="390.5"
   y1="482.5"
   x2="306"
   y2="516"
   id="line866" />
		<line
   fill="none"
   stroke="#0000FF"
   stroke-width="2"
   x1="306"
   y1="516"
   x2="220"
   y2="482.5"
   id="line868" />
		<line
   fill="none"
   stroke="#0000FF"
   stroke-width="2"
   x1="220"
   y1="482.5"
   x2="183"
   y2="396"
   id="line870" />
		<line
   fill="none"
   stroke="#0000FF"
   stroke-width="2"
   x1="183"
   y1="396"
   x2="220"
   y2="309.5"
   id="line872" />
	</g>
	
		<line
   id="mod2_1_"
   display="inline"
   fill="none"
   stroke="#0000FF"
   stroke-width="2"
   x1="203.966"
   y1="445.015"
   x2="406.199"
   y2="445.295" />
	
		<line
   id="mod1_1_"
   display="inline"
   fill="none"
   stroke="#0000FF"
   stroke-width="2"
   x1="203.966"
   y1="346.985"
   x2="406.199"
   y2="346.705" />
</g>
<g
   id="main"
   transform="translate(77.123596,57.348315)">
	<g
   id="g884">
		<path
   id="_96021888"
   fill="#ffffff"
   d="m 237,272.2 v 1.6 h 23.8 c 0,0 11.4,-10.2 11.9,-10.8 -3.1,-4.6 -8.9,-9.2 -16.8,-9.2 h -1.6 c -7.7,0 -17.3,11.4 -17.3,18.4 z" />
		<path
   id="_63611392"
   fill="#ffffff"
   d="m 237,290.6 c 2.7,0.6 9.1,4.3 12.1,5.8 5.6,2.7 4.3,7.4 7.9,9.8 0,-4.9 0,-9.7 0,-14.6 0,-6.2 1.8,-8.4 2.2,-12.4 H 237 Z" />
		<path
   id="_65261088"
   fill="#ffffff"
   d="m 266.7,290.6 h 37.8 c 0,-11.4 -7.6,-20.5 -18.9,-20.5 h -1 c -10.6,-0.1 -17.9,9.6 -17.9,20.5 z" />
		<path
   id="_94931304"
   fill="#ffffff"
   d="m 266.2,323 c 0,0.3 13.3,22.9 14.6,24.9 h -6.5 v 47 h 30.3 v -99.5 h -38.4 z" />
		<path
   id="_96394904"
   d="m 172.7,393.8 h -19.5 v -53.5 c 0,-2.5 16.9,-33.2 18.4,-34.1 2.5,-1.5 34.8,-17.8 35.2,-17.8 1.3,0 33.1,15.8 35.9,17.6 1.1,0.7 19.3,32.8 19.3,34.2 v 53.5 H 243 V 350 h -70.3 z m 93.5,-98.4 h 38.4 v 99.5 h -30.3 v -47 h 6.5 c -1.3,-2 -14.6,-24.6 -14.6,-24.9 z m 0.5,-4.8 c 0,-10.9 7.3,-20.6 17.9,-20.6 h 1.1 c 11.3,0 18.9,9.2 18.9,20.5 H 266.7 Z M 237,279.2 h 22.2 c -0.4,4.1 -2.2,6.2 -2.2,12.4 0,4.9 0,9.7 0,14.6 -3.6,-2.4 -2.3,-7.1 -7.9,-9.9 -3,-1.4 -9.4,-5.1 -12.1,-5.7 z m 0,-7 c 0,-7 9.5,-18.4 17.3,-18.4 h 1.6 c 7.8,0 13.7,4.6 16.8,9.2 -0.5,0.6 -11.9,10.8 -11.9,10.8 H 237 Z m -29.7,3.8 c -8,4.2 -16.4,7.9 -24.7,12 -4.3,2.2 -8.2,3.8 -12.4,6 -7,3.5 -5.7,1.7 -10,7.8 -2.3,3.2 -4.6,8.1 -6.7,11.7 -2.3,4 -4.7,7.5 -6.9,11.5 -3.9,7.2 -9,16.2 -13.4,22.8 h 7 V 404 H 184 v -43.2 h 47.6 V 404 h 83.2 V 292.7 c 0,-18.7 -10.6,-32.4 -29.2,-32.4 h -4.3 c -2,-7.3 -14.7,-16.2 -24.9,-16.2 h -1 c -15.9,0 -27.6,14.7 -27.6,30.3 v 11.4 L 207.3,276 Z" />
		<path
   id="_94860488"
   fill="#ffffff"
   d="M 172.7,350 H 243 v 43.8 h 18.9 v -53.5 c 0,-1.4 -18.1,-33.5 -19.3,-34.2 -2.8,-1.9 -34.5,-17.7 -35.9,-17.7 -0.3,0 -32.6,16.3 -35.2,17.8 -1.4,0.9 -18.3,31.6 -18.3,34.1 v 53.5 h 19.5 z" />
	</g>
</g>
</svg>
