<?xml version="1.0" encoding="utf-8"?>
<!-- Generator: Adobe Illustrator 16.0.0, SVG Export Plug-In . SVG Version: 6.00 Build 0)  -->
<!DOCTYPE svg PUBLIC "-//W3C//DTD SVG 1.1//EN" "http://www.w3.org/Graphics/SVG/1.1/DTD/svg11.dtd">
<svg version="1.1" id="Version_1.0" xmlns="http://www.w3.org/2000/svg" xmlns:xlink="http://www.w3.org/1999/xlink" x="0px"
	 y="0px" width="612px" height="792px" viewBox="0 0 612 792" enable-background="new 0 0 612 792" xml:space="preserve">
<g id="octagon" display="none">
	<g id="outFrame" display="inline">
		<line fill="none" stroke="#0000FF" stroke-width="2" x1="220" y1="309.5" x2="306" y2="273"/>
		<line fill="none" stroke="#0000FF" stroke-width="2" x1="306" y1="273" x2="390.5" y2="309.5"/>
		<line fill="none" stroke="#0000FF" stroke-width="2" x1="390.5" y1="309.5" x2="427" y2="396"/>
		<line fill="none" stroke="#0000FF" stroke-width="2" x1="427" y1="396" x2="390.5" y2="482.5"/>
		<line fill="none" stroke="#0000FF" stroke-width="2" x1="390.5" y1="482.5" x2="306" y2="516"/>
		<line fill="none" stroke="#0000FF" stroke-width="2" x1="306" y1="516" x2="220" y2="482.5"/>
		<line fill="none" stroke="#0000FF" stroke-width="2" x1="220" y1="482.5" x2="183" y2="396"/>
		<line fill="none" stroke="#0000FF" stroke-width="2" x1="183" y1="396" x2="220" y2="309.5"/>
	</g>
	
		<line id="mod2_1_" display="inline" fill="none" stroke="#0000FF" stroke-width="2" x1="203.966" y1="445.015" x2="406.199" y2="445.295"/>
	
		<line id="mod1_1_" display="inline" fill="none" stroke="#0000FF" stroke-width="2" x1="203.966" y1="346.985" x2="406.199" y2="346.705"/>
</g>
<g id="main">
	<g transform="translate(74.6667,72.6667)">
		<path id="_42832520" fill="#FFFFFF" d="M 143.3 295.8 v 3.7 c 7.5 0 7.7 -2.5 11.7 -5.1 c 3.1 2.3 4.2 5.1 10.3 5.1 h 1.4 c 7.3 0 7.3 -2.5 11.2 -5.1 C 181.4 296.7 182 299.5 188.7 299.5 h 1.4 c 6.7 0 7.3 -2.8 10.8 -5.1 c 4.1 2.7 4 5.1 11.7 5.1 V 295.8 c -5 0 -9.4 -3.6 -9.4 -8.4 H 198.5 v 1.9 c 0 2.9 -4.7 6.5 -8.4 6.5 H 189.6 c -5.1 0 -9.2 -3.5 -9.4 -8.4 H 175.6 C 175.5 291.6 171.3 295.8 166.7 295.8 H 165.8 c -4.9 0 -8 -3.8 -8.4 -8.4 H 152.7 C 152.3 291.9 148.4 295.8 143.3 295.8 L 143.3 295.8 z"/>
		<path id="_43470376" d="M 257.5 288.7 c 0 3.4 -4.5 7 -8.9 7 v 3.7 c 4.5 0 9.9 -2.3 10.8 -5.6 c 4.1 2.7 4.3 5.6 12.2 5.6 h 0.9 c 6.6 0 7.3 -3.3 10.8 -5.6 c 0.7 3.3 6 5.7 10.2 5.7 h 1.9 c 6.8 0 7.6 -3.2 11.2 -5.6 c 0.9 3.3 6.7 5.6 11.2 5.6 V 295.8 c -4.3 0 -9.4 -3.9 -9.4 -7 V 287.3 H 304.2 c -0.3 4.5 -4 8.5 -8.9 8.5 H 293.9 c -3.9 0 -8.4 -3.5 -8.4 -7 V 287.3 H 280.8 c 0 4.3 -4.3 8.5 -8.8 8.5 H 271 c -4.7 0 -8.8 -3.8 -8.9 -8.4 H 257.5 V 288.7 z"/>
		<path id="_97615680" fill="#FFFFFF" d="M 143.3 325.7 v 3.7 c 5.8 0 8.9 -2.2 11.2 -5.6 C 158.1 326.2 159 329.4 165.8 329.4 h 1.4 c 7.7 0 8.7 -4.9 11.2 -5.6 C 179.3 327 184.5 329.4 188.7 329.4 h 1.4 c 4.2 0 9.4 -2.4 10.3 -5.6 c 2.7 0.7 3.1 5.6 12.2 5.6 V 325.7 c -5 0 -9.4 -3.6 -9.4 -8.4 H 198.5 v 1.9 c 0 2.9 -4.7 6.5 -8.4 6.5 H 189.6 c -5.1 0 -9.2 -3.5 -9.4 -8.4 H 175.6 C 175.5 321.4 171.3 325.7 166.7 325.7 H 165.8 c -4.9 0 -8 -3.8 -8.4 -8.4 H 152.7 C 152.3 321.9 148.4 325.7 143.3 325.7 L 143.3 325.7 z"/>
		<path id="_99122624" d="M 257.5 318.7 c 0 3.4 -4.5 7 -8.9 7 v 3.7 c 8.6 0 8.8 -4.8 11.7 -5.6 C 261.2 327.1 267 329.4 271.5 329.4 H 272 c 7.2 0 7.5 -3.2 10.8 -5.6 C 285.9 326.1 287 329.4 293.6 329.4 h 1.9 c 6.5 0 7.6 -3.3 10.8 -5.6 C 309.9 326.4 310 329.4 317.8 329.4 V 325.7 c -4.3 0 -9.4 -3.9 -9.4 -7 V 317.3 H 304.2 c -0.3 4.5 -4 8.4 -8.9 8.4 H 293.9 c -3.5 0 -8.4 -3.6 -8.4 -6.1 V 317.3 H 280.8 c 0 4.3 -4.3 8.4 -8.8 8.4 H 271 c -4.7 0 -8.8 -3.8 -8.9 -8.4 H 257.5 V 318.7 z"/>
		<path id="_101638640" d="M 243 276.1 h 80 v 92.6 h -80 V 276.1 z M 143.3 359.4 V 355.6 c 4.9 0 9.3 -3.9 9.4 -8.4 h 4.7 c 0.1 4.5 3.8 8.4 8.4 8.4 h 0.9 c 4.6 0 8.8 -3.9 8.9 -8.4 h 4.7 c 0.1 5 4.2 8.4 9.4 8.4 h 0.5 c 5.4 0 7.9 -4 8.9 -8.4 h 4.2 c 0.1 4.9 4.2 8.4 9.4 8.4 v 3.7 c -5 0 -10.3 -2.5 -11.2 -6.1 C 198.1 355.5 197.2 359.4 190.1 359.4 H 188.7 c -7.2 0 -7.7 -3.7 -11.2 -6.1 C 176.6 356.6 171.6 359.4 167.2 359.4 H 165.8 c -5.9 0 -8.4 -3.1 -11.2 -6.1 C 153.6 356.8 148.1 359.4 143.3 359.4 L 143.3 359.4 z M 221.9 306 h 16.8 v 33.2 H 221.9 V 306 z M 143.3 325.7 c 5.1 0 9 -3.8 9.4 -8.4 h 4.7 c 0.4 4.6 3.5 8.4 8.4 8.4 h 0.9 c 4.6 0 8.8 -4.3 8.9 -8.4 h 4.7 c 0.1 4.9 4.3 8.4 9.4 8.4 h 0.5 c 3.7 0 8.4 -3.7 8.4 -6.5 V 317.3 h 4.7 c 0 4.8 4.4 8.4 9.4 8.4 v 3.7 c -9 0 -9.5 -4.9 -12.2 -5.6 C 199.5 327 194.3 329.4 190.1 329.4 H 188.7 c -4.2 0 -9.4 -2.4 -10.3 -5.6 C 175.9 324.5 174.9 329.4 167.2 329.4 H 165.8 c -6.8 0 -7.6 -3.2 -11.2 -5.6 C 152.2 327.3 149.1 329.4 143.3 329.4 V 325.7 L 143.3 325.7 z M 143.3 295.8 c 5.1 0 9 -3.8 9.4 -8.4 h 4.7 C 157.7 292 160.9 295.8 165.8 295.8 h 0.9 c 4.6 0 8.8 -4.2 8.9 -8.4 h 4.7 c 0.1 4.9 4.3 8.4 9.4 8.4 h 0.5 c 3.7 0 8.4 -3.7 8.4 -6.5 v -2 h 4.7 c 0 4.8 4.4 8.4 9.4 8.4 v 3.7 c -7.7 0 -7.6 -2.4 -11.7 -5.1 C 197.4 296.7 196.8 299.5 190.1 299.5 H 188.7 c -6.7 0 -7.3 -2.8 -10.8 -5.1 C 174 297 174 299.5 166.7 299.5 H 165.3 c -6.1 0 -7.2 -2.9 -10.3 -5.1 C 151 297 150.8 299.5 143.3 299.5 V 295.8 L 143.3 295.8 z M 221.9 349.1 h 16.8 v 25.3 h 88.9 V 271 L 238.8 270.4 v 25.8 H 221.9 V 271 L 133.5 270.4 v 104 h 88.4 V 349.1 z"/>
		<path id="_42932440" fill="#FFFFFF" d="M 248.6 359.4 V 355.6 c 5.4 0 8.5 -3.5 8.9 -8.4 h 3.3 c 2.4 0 2 8.4 10.3 8.4 H 272 c 5.5 0 5.9 -3.5 8.3 -5.2 l 0.6 -3.3 h 4.2 c 0.4 5 3.9 8.4 9.4 8.4 h 0.9 c 4.6 0 8.8 -4 8.9 -8.4 H 308 c 1 4.5 4.3 8.4 9.8 8.4 v 3.7 c -4.7 0 -10.3 -2.6 -11.2 -6.1 C 302.9 355.7 302.2 359.4 295.3 359.4 H 294.4 c -4.9 0 -10.3 -2.5 -11.2 -6.1 H 282.3 C 281.4 356.6 276.5 359.4 272 359.4 H 271 c -7.3 0 -7.8 -3.5 -11.7 -6.1 C 258.4 356.8 253.3 359.4 248.6 359.4 z M 257.5 317.3 h 4.7 c 0 4.6 4.1 8.4 8.8 8.4 h 1 c 4.5 0 8.8 -4.1 8.9 -8.4 h 4.7 v 2.3 c 0 2.4 4.9 6.1 8.4 6.1 h 1.4 c 4.8 0 8.5 -3.9 8.9 -8.4 h 4.2 v 1.4 c 0 3.1 5.1 7 9.4 7 v 3.7 c -7.8 0 -7.9 -3.1 -11.7 -5.6 C 303 326.1 301.9 329.4 295.3 329.4 H 293.5 c -6.5 0 -7.6 -3.3 -10.8 -5.6 C 279.4 326.2 279.1 329.4 272 329.4 H 271.5 c -4.5 0 -10.4 -2.4 -11.2 -5.6 c -2.9 0.8 -3 5.6 -11.7 5.6 V 325.7 c 4.4 0 8.9 -3.6 8.9 -7 V 317.3 L 257.5 317.3 z M 257.5 287.3 h 4.7 c 0 4.7 4.1 8.5 8.8 8.5 h 1 c 4.5 0 8.8 -4.1 8.9 -8.4 h 4.7 v 1.4 c 0 3.5 4.5 7 8.4 7 h 1.4 c 4.8 0 8.5 -3.9 8.9 -8.4 h 4.2 v 1.4 c 0 3.1 5.1 7 9.4 7 v 3.7 c -4.5 0 -10.4 -2.4 -11.2 -5.6 C 303 296.3 302.2 299.5 295.3 299.5 H 293.5 c -4.2 0 -9.4 -2.4 -10.3 -5.6 C 279.7 296.2 279 299.5 272.4 299.5 H 271.5 c -7.8 0 -8.1 -2.9 -12.2 -5.6 C 258.4 297.2 253.1 299.5 248.6 299.5 V 295.8 c 4.4 0 8.9 -3.6 8.9 -7 V 287.3 z M 243 368.7 h 80 V 276.1 h -80 V 368.7 z"/>
		<path id="_43758872" fill="#FFFFFF" d="M 143.3 359.4 c 4.7 0 10.3 -2.6 11.2 -6.1 c 2.8 3 5.4 6.1 11.2 6.1 h 1.4 c 4.4 0 9.4 -2.8 10.3 -6.1 C 181 355.7 181.5 359.4 188.7 359.4 h 1.4 c 7.1 0 8 -3.9 11.2 -6.1 c 0.9 3.6 6.2 6.1 11.2 6.1 V 355.6 c -5.2 0 -9.2 -3.5 -9.4 -8.4 H 199 C 198 351.6 195.5 355.6 190.1 355.6 H 189.6 c -5.2 0 -9.2 -3.4 -9.4 -8.4 H 175.6 C 175.5 351.7 171.3 355.6 166.7 355.6 H 165.8 c -4.6 0 -8.3 -3.9 -8.4 -8.4 H 152.7 C 152.6 351.8 148.3 355.6 143.3 355.6 V 359.4 L 143.3 359.4 z"/>
		<path id="_230091784" d="M 248.6 359.4 c 4.7 0 9.8 -2.6 10.8 -6.1 C 263.2 355.9 263.7 359.4 271 359.4 h 1 c 4.6 0 9.4 -2.7 10.3 -6.1 h 0.9 c 1 3.6 6.3 6.1 11.2 6.1 h 0.9 c 6.8 0 7.6 -3.7 11.2 -6.1 C 307.4 356.8 313 359.4 317.7 359.4 V 355.6 c -5.5 0 -8.8 -3.9 -9.8 -8.4 H 304.2 C 304.1 351.6 299.9 355.6 295.3 355.6 H 294.4 c -5.4 0 -8.9 -3.5 -9.4 -8.4 H 280.8 L 280.3 350.5 C 277.8 352.2 277.5 355.6 272 355.6 H 271 c -8.2 0 -7.9 -8.4 -10.3 -8.4 H 257.5 C 257 352.2 254 355.6 248.6 355.6 V 359.4 z"/>
	</g>
</g>
</svg>
