<?xml version="1.0" encoding="utf-8"?>
<!-- Generator: Adobe Illustrator 16.0.0, SVG Export Plug-In . SVG Version: 6.00 Build 0)  -->
<!DOCTYPE svg PUBLIC "-//W3C//DTD SVG 1.1//EN" "http://www.w3.org/Graphics/SVG/1.1/DTD/svg11.dtd">
<svg version="1.1" id="Version_1.0" xmlns="http://www.w3.org/2000/svg" xmlns:xlink="http://www.w3.org/1999/xlink" x="0px" y="0px"
	 width="612px" height="792px" viewBox="0 0 612 792" enable-background="new 0 0 612 792" xml:space="preserve">
<g id="octagon" display="none">
	<g id="outFrame" display="inline">
		<line fill="none" stroke="#0000FF" stroke-width="2" x1="220" y1="309.5" x2="306" y2="273"/>
		<line fill="none" stroke="#0000FF" stroke-width="2" x1="306" y1="273" x2="390.5" y2="309.5"/>
		<line fill="none" stroke="#0000FF" stroke-width="2" x1="390.5" y1="309.5" x2="427" y2="396"/>
		<line fill="none" stroke="#0000FF" stroke-width="2" x1="427" y1="396" x2="390.5" y2="482.5"/>
		<line fill="none" stroke="#0000FF" stroke-width="2" x1="390.5" y1="482.5" x2="306" y2="516"/>
		<line fill="none" stroke="#0000FF" stroke-width="2" x1="306" y1="516" x2="220" y2="482.5"/>
		<line fill="none" stroke="#0000FF" stroke-width="2" x1="220" y1="482.5" x2="183" y2="396"/>
		<line fill="none" stroke="#0000FF" stroke-width="2" x1="183" y1="396" x2="220" y2="309.5"/>
	</g>
	
		<line id="mod2_1_" display="inline" fill="none" stroke="#0000FF" stroke-width="2" x1="203.966" y1="445.015" x2="406.199" y2="445.295"/>
	
		<line id="mod1_1_" display="inline" fill="none" stroke="#0000FF" stroke-width="2" x1="203.966" y1="346.985" x2="406.199" y2="346.705"/>
</g>
<g id="main">
	<g transform="translate(74,73)">
		<path id="_150414912" d="M 152.3 295.1 c 5.8 0 7.9 -4.3 11.4 -6.6 c 2.7 2 5.6 6.6 11 6.6 h 0.4 c 6.5 0 8.3 -4.3 11.7 -6.6 c 3.5 2.3 5.5 6.6 11.7 6.6 c 6 0 8.2 -4.5 11.4 -6.6 c 1.6 1.1 2.8 2.8 4.8 4 c 1 0.6 5.5 2.2 5.5 3.3 v 16.9 C 216.9 311.9 211.1 306.8 210.3 303.9 H 209.5 C 208.8 306.7 202.1 313 198.2 313 c -3.8 0 -10.2 -6.6 -11 -9.5 C 184.8 305.1 180.6 313 175.8 313 H 174.7 c -3 0 -10 -6.8 -10.6 -9.2 C 162.1 304.4 157.7 313 152.3 313 H 151.6 c -2.7 0 -4.2 -1.8 -5.9 -2.9 L 143.1 313 C 145.6 314.7 147 317.4 151.2 317.4 h 1.1 c 5.7 0 7.8 -4.6 11.4 -7 c 1.8 2.7 7 7 11.7 7 c 5.7 0 8.3 -4.9 11.4 -7 c 3.1 2.1 6.4 7 11.7 7 s 8.4 -5.2 11.7 -7 c 1.8 2.6 6.5 5.9 10 6.7 v 17.6 C 216.8 334.4 211.7 328.6 210.3 325.9 C 207.6 327.7 204 335 198.5 335 H 198.2 c -5.7 0 -10.2 -8.8 -11.7 -9.2 C 185.8 328.2 179 335 176.2 335 H 175.1 c -5.4 0 -9 -7.3 -11.7 -9.2 C 162 328.4 156.4 335 153.1 335 H 150.9 c -1.8 0 -4.2 -2.4 -5.5 -3.3 L 143.1 335.4 c 2.7 1.8 4.3 4 8.9 4 c 6.7 0 7.8 -4.5 11.7 -6.6 c 3.4 2.3 5.1 6.6 11.7 6.6 c 5.5 0 8.4 -4.6 11.4 -6.6 c 3.5 2.4 6.3 6.6 12.1 6.6 c 4.5 0 8.5 -4.9 11 -6.6 C 212.1 334 212.4 335.3 214.8 336.7 c 1.1 0.7 5.4 1.8 5.4 3.1 v 16.9 c -3.4 -0.8 -9 -5.6 -9.9 -8.8 C 207.6 349.7 204 357.4 198.2 357.4 c -3.6 0 -10.2 -6.6 -11 -9.5 c -2.9 2 -6.4 9.5 -12.1 9.5 c -5 0 -9.3 -7.9 -11.7 -9.5 C 162.6 350.5 155.9 357.4 152.7 357.4 H 151.2 c -2.1 0 -4.5 -2.4 -5.9 -3.3 L 143.1 357.3 C 145.8 359.1 147.6 361.8 152 361.8 c 5.6 0 8.2 -4.6 11.7 -7 c 2.9 2 6.4 7.2 11.7 7 c 5.7 -0.3 8.2 -4.8 11.4 -7 c 3 2 6.8 7 11.7 7 c 4.7 0 8.6 -5.1 11.4 -7 C 213.8 357.4 214.3 359.7 220.2 361 v 12.5 h 42.5 L 259.3 360.4 c 2.1 0.5 2.6 1.4 5.6 1.4 c 5 0 8.2 -4.8 11.4 -7 c 3.3 2.2 5.9 7 11.7 7 c 4 0 9.6 -4.4 11 -7 c 3.3 0.8 6.2 7 12.8 7 c 2.9 0 6.5 -3.4 8.4 -4.4 L 317.7 354.1 C 316 355.2 314 357.4 311.1 357.4 c -5.2 0 -9.2 -7.7 -11.7 -9.5 C 297.7 351.4 292.6 357.4 287.6 357.4 c -3.3 0 -10.7 -6.5 -11 -9.5 C 274.1 349.6 270.1 357.4 264.9 357.4 H 264.5 c -2.7 0 -5.4 -2.3 -6.8 -3.8 C 256.8 352.7 255.6 347.3 255 345.7 C 254.1 343.2 250.6 331.6 250.6 329.2 L 249.8 328.1 l 0.1 -1.5 L 249.1 325.5 V 324 L 248.4 323 L 235.2 276.5 l 0.4 -0.1 l -0.8 -1 l 0.1 -1.5 C 234.4 273.1 234.1 273.2 234.1 272.3 V 271.2 H 220.2 v 19.4 c -3.5 -1.8 -3 -1.3 -6 -3.9 C 213.9 286.4 211.7 284.4 211.6 284.2 c -1 -1.3 -0.3 -2.2 -2 -2.7 C 209.3 284.4 201.9 291 198.9 291 H 198.5 c -6.3 0 -10.5 -9.1 -12.1 -9.5 C 185.7 284.2 179 291 175.8 291 H 174.7 c -3 0 -10.4 -6.8 -10.6 -9.5 C 162.9 281.8 157.1 291 153.1 291 H 150.9 c -1.8 0 -4.2 -2.4 -5.5 -3.3 L 143.2 291 c 2.6 1.7 4 4 8.4 4 h 0.7 V 295.1 z"/>
	</g>
</g>
</svg>
