<?xml version="1.0" encoding="UTF-8" standalone="no"?>
<!-- Generator: Adobe Illustrator 16.0.0, SVG Export Plug-In . SVG Version: 6.00 Build 0)  -->

<svg version="1.1" id="Version_1.0" x="0px" y="0px" width="612px" height="792px" viewBox="0 0 612 792" enable-background="new 0 0 612 792" xml:space="preserve" sodipodi:docname="20120600.svg" inkscape:version="1.1 (c68e22c387, 2021-05-23)" xmlns:inkscape="http://www.inkscape.org/namespaces/inkscape" xmlns:sodipodi="http://sodipodi.sourceforge.net/DTD/sodipodi-0.dtd" xmlns="http://www.w3.org/2000/svg" xmlns:svg="http://www.w3.org/2000/svg"><defs id="defs902" /><sodipodi:namedview id="namedview900" pagecolor="#ffffff" bordercolor="#666666" borderopacity="1.0" inkscape:pageshadow="2" inkscape:pageopacity="0.0" inkscape:pagecheckerboard="0" showgrid="false" inkscape:snap-nodes="false" inkscape:zoom="1.0113636" inkscape:cx="257.57303" inkscape:cy="396" inkscape:window-width="1920" inkscape:window-height="1009" inkscape:window-x="1912" inkscape:window-y="-8" inkscape:window-maximized="1" inkscape:current-layer="Version_1.0" />
<g id="octagon" display="none">
	<g id="outFrame" display="inline">
		<line fill="none" stroke="#0000FF" stroke-width="2" x1="220" y1="309.5" x2="306" y2="273" id="line864" />
		<line fill="none" stroke="#0000FF" stroke-width="2" x1="306" y1="273" x2="390.5" y2="309.5" id="line866" />
		<line fill="none" stroke="#0000FF" stroke-width="2" x1="390.5" y1="309.5" x2="427" y2="396" id="line868" />
		<line fill="none" stroke="#0000FF" stroke-width="2" x1="427" y1="396" x2="390.5" y2="482.5" id="line870" />
		<line fill="none" stroke="#0000FF" stroke-width="2" x1="390.5" y1="482.5" x2="306" y2="516" id="line872" />
		<line fill="none" stroke="#0000FF" stroke-width="2" x1="306" y1="516" x2="220" y2="482.5" id="line874" />
		<line fill="none" stroke="#0000FF" stroke-width="2" x1="220" y1="482.5" x2="183" y2="396" id="line876" />
		<line fill="none" stroke="#0000FF" stroke-width="2" x1="183" y1="396" x2="220" y2="309.5" id="line878" />
	</g>
	
		<line id="mod2_1_" display="inline" fill="none" stroke="#0000FF" stroke-width="2" x1="203.966" y1="445.015" x2="406.199" y2="445.295" />
	
		<line id="mod1_1_" display="inline" fill="none" stroke="#0000FF" stroke-width="2" x1="203.966" y1="346.985" x2="406.199" y2="346.705" />
</g>
<g id="main">
	<g transform="translate(76,72.033708)" id="g896">
		<path id="_83824000" fill="#ffffff" d="m 165.4,284.9 h 128.9 c -3.5,-2.4 -64.2,-32.3 -64.7,-32.3 -0.5,0 -62.3,30.7 -64.2,32.3 z" />
		<path id="_146958160" d="m 165.4,284.9 c 1.9,-1.7 63.7,-32.4 64.2,-32.4 0.5,0 61.2,29.9 64.7,32.4 z m -20.2,3.2 v 1.1 c 0,1.4 0.3,1.5 0.5,2.7 1.3,0.2 1.3,0.5 2.7,0.5 h 162.4 c 1.7,0 4.2,-1.6 4.2,-2.7 0,-5.6 -4.3,-5.9 -8.1,-7.8 -3.8,-1.9 -7.3,-3.6 -11,-5.4 -7.3,-3.7 -14.6,-7 -22.1,-10.8 -4.3,-2.2 -43.3,-21.6 -44.2,-21.6 -0.7,0 -39,19.2 -43,21.2 -7.1,3.6 -14.1,6.8 -21.4,10.4 -3.7,1.9 -6.8,3.5 -10.6,5.3 -2.9,1.5 -9.4,3.3 -9.4,7.1 z" />
		<polygon id="_145556760" points="290.8,316.8 289,369.3 285.3,369.3 285.3,378.9 305,378.9 305,369.3 301.2,369.3 301.4,367.2 299.1,309.4 299.1,305.6 305,305.6 305,297.7 285.3,297.7 285.3,305.6 290.6,305.6 " />
		<polygon id="_145352632" points="243.4,369.3 243.4,378.9 262.5,378.9 262.5,369.3 258.9,369.3 257.2,305.6 262.5,305.6 262.5,297.7 243.4,297.7 243.4,305.6 248.8,305.6 247.6,350.2 246.6,369.3 " />
		<polygon id="_89423368" points="168.6,305.6 174.4,305.6 174.4,297.7 154.3,297.7 154.3,305.6 160.3,305.6 158,369.3 154.3,369.3 154.3,378.9 174.4,378.9 174.4,369.3 170.7,369.3 169.6,347.6 " />
		<path id="_146630112" d="m 170.7,369.3 -1.1,-21.7 z" />
		<path id="_88600024" d="m 246.6,369.3 1.1,-19.1 z" />
		<polygon id="_89808904" points="200.4,369.3 196.7,369.3 196.7,378.9 216.3,378.9 216.3,369.3 212.1,369.3 212.1,364 210.6,310.9 210.5,305.6 216.3,305.6 216.3,297.7 196.7,297.7 196.7,305.6 202.5,305.6 202.5,310.9 200.4,367.2 " />
		<polygon id="_84215880" points="308.7,384.2 150.5,384.2 150.5,391.6 308.7,391.6 " />
		<polygon id="_89454344" points="314.5,400.1 145.2,400.1 145.2,407.5 314.5,407.5 " />
		<polygon id="_90903432" points="168.6,305.6 174.4,305.6 174.4,297.7 154.3,297.7 154.3,305.6 160.3,305.6 158,369.3 154.3,369.3 154.3,378.9 174.4,378.9 174.4,369.3 170.7,369.3 169.6,347.6 " />
		<polygon id="_83554896" points="243.4,369.3 243.4,378.9 262.5,378.9 262.5,369.3 258.9,369.3 257.2,305.6 262.5,305.6 262.5,297.7 243.4,297.7 243.4,305.6 248.8,305.6 247.6,350.2 246.6,369.3 " />
	</g>
</g>
</svg>
