<?xml version="1.0" encoding="utf-8"?>
<!-- Generator: Adobe Illustrator 16.0.0, SVG Export Plug-In . SVG Version: 6.00 Build 0)  -->
<!DOCTYPE svg PUBLIC "-//W3C//DTD SVG 1.1//EN" "http://www.w3.org/Graphics/SVG/1.1/DTD/svg11.dtd">
<svg version="1.1" id="Version_1.0" xmlns="http://www.w3.org/2000/svg" xmlns:xlink="http://www.w3.org/1999/xlink" x="0px" y="0px"
	 width="612px" height="792px" viewBox="0 0 612 792" enable-background="new 0 0 612 792" xml:space="preserve">
<g id="octagon" display="none">
	<g id="outFrame" display="inline">
		<line fill="none" stroke="#0000FF" stroke-width="2" x1="220" y1="309.5" x2="306" y2="273"/>
		<line fill="none" stroke="#0000FF" stroke-width="2" x1="306" y1="273" x2="390.5" y2="309.5"/>
		<line fill="none" stroke="#0000FF" stroke-width="2" x1="390.5" y1="309.5" x2="427" y2="396"/>
		<line fill="none" stroke="#0000FF" stroke-width="2" x1="427" y1="396" x2="390.5" y2="482.5"/>
		<line fill="none" stroke="#0000FF" stroke-width="2" x1="390.5" y1="482.5" x2="306" y2="516"/>
		<line fill="none" stroke="#0000FF" stroke-width="2" x1="306" y1="516" x2="220" y2="482.5"/>
		<line fill="none" stroke="#0000FF" stroke-width="2" x1="220" y1="482.5" x2="183" y2="396"/>
		<line fill="none" stroke="#0000FF" stroke-width="2" x1="183" y1="396" x2="220" y2="309.5"/>
	</g>
	
		<line id="mod2_1_" display="inline" fill="none" stroke="#0000FF" stroke-width="2" x1="203.966" y1="445.015" x2="406.199" y2="445.295"/>
	
		<line id="mod1_1_" display="inline" fill="none" stroke="#0000FF" stroke-width="2" x1="203.966" y1="346.985" x2="406.199" y2="346.705"/>
</g>
<g id="main">
	<g transform="translate(75 89)">
		<path id="_237775544" d="M 216.2 288.9 l 27.5 0.2 c 1.5 0 16.1 -22.2 17.6 -25 H 198.9 L 216.2 288.9 z"/>
		<polygon id="_99526056" points="183.1,273.1 199.8,298.9 202.5,297.0 186.3,271.6 		"/>
		<polygon id="_238955144" points="257.8,297.3 261.4,298.7 277.4,273.0 274.3,271.7 		"/>
		<polygon id="_230110800" points="212.7,303.0 247.3,303.0 247.3,298.8 212.7,298.8 		"/>
		<polygon id="_102162872" points="164.6,275.8 188.7,314.2 192.1,312.6 167.8,273.8 		"/>
		<path id="_232237944" d="M 269.1 311.8 c 0 1.5 1.6 1.7 2.7 2.3 l 24 -38.6 L 292.7 273.9 C 291.3 279 269.1 310.2 269.1 311.8 z"/>
		<polygon id="_42914064" points="199.7,318.7 260.7,318.7 260.7,314.6 199.7,314.6 		"/>
		<polygon id="_98549864" points="145.9,278.2 177.5,328.4 181.0,326.4 149.2,276.1 		"/>
		<path id="_242270816" d="M 280.2 326.1 c 0 0.4 2.4 2 2.7 2.2 L 315 278.2 h 0.6 l -4 -2 C 308.4 282.2 280.2 324.5 280.2 326.1 z"/>
		<polygon id="_43062768" points="186.8,334.0 274.2,334.0 274.2,329.8 186.8,329.8 		"/>
		<path id="_42201224" d="M 290.8 340.5 C 291.4 340.8 293.3 341.8 294 341.8 c 0.5 0 36.1 -56.1 39.8 -61.6 L 330.1 278.9 L 290.8 340.5 z"/>
		<polygon id="_102022312" points="127.6,280.4 166.9,341.9 169.6,340.5 130.3,278.9 		"/>
		<polygon id="_97525480" points="173.8,349.7 286.6,349.7 286.6,346.0 173.8,346.0 		"/>
	</g>
</g>
</svg>
