<?xml version="1.0" encoding="utf-8"?>
<!-- Generator: Adobe Illustrator 16.0.0, SVG Export Plug-In . SVG Version: 6.00 Build 0)  -->
<!DOCTYPE svg PUBLIC "-//W3C//DTD SVG 1.1//EN" "http://www.w3.org/Graphics/SVG/1.1/DTD/svg11.dtd">
<svg version="1.1" id="Version_1.0" xmlns="http://www.w3.org/2000/svg" xmlns:xlink="http://www.w3.org/1999/xlink" x="0px" y="0px"
	 width="612px" height="792px" viewBox="0 0 612 792" enable-background="new 0 0 612 792" xml:space="preserve">
<g id="octagon" display="none">
	<g id="outFrame" display="inline">
		<line fill="none" stroke="#0000FF" stroke-width="2" x1="220" y1="309.5" x2="306" y2="273"/>
		<line fill="none" stroke="#0000FF" stroke-width="2" x1="306" y1="273" x2="390.5" y2="309.5"/>
		<line fill="none" stroke="#0000FF" stroke-width="2" x1="390.5" y1="309.5" x2="427" y2="396"/>
		<line fill="none" stroke="#0000FF" stroke-width="2" x1="427" y1="396" x2="390.5" y2="482.5"/>
		<line fill="none" stroke="#0000FF" stroke-width="2" x1="390.5" y1="482.5" x2="306" y2="516"/>
		<line fill="none" stroke="#0000FF" stroke-width="2" x1="306" y1="516" x2="220" y2="482.5"/>
		<line fill="none" stroke="#0000FF" stroke-width="2" x1="220" y1="482.5" x2="183" y2="396"/>
		<line fill="none" stroke="#0000FF" stroke-width="2" x1="183" y1="396" x2="220" y2="309.5"/>
	</g>
	
		<line id="mod2_1_" display="inline" fill="none" stroke="#0000FF" stroke-width="2" x1="203.966" y1="445.015" x2="406.199" y2="445.295"/>
	
		<line id="mod1_1_" display="inline" fill="none" stroke="#0000FF" stroke-width="2" x1="203.966" y1="346.985" x2="406.199" y2="346.705"/>
</g>
<g id="main">
	<g transform="translate(74 57)">
		<path id="_100900712" d="M 148.4 333.8 c 0 3.3 -1.7 6.5 -1.8 10.7 C 146.5 349 146.1 352.2 146.1 357 v 8 l 1.4 8.9 h 6.8 L 152.4 357.8 V 353.4 c 0 -20.2 12.4 -44.7 23.2 -53.7 c 13.9 -11.5 29.1 -22.8 54.2 -22.8 H 232 c 22.4 0 42.7 10.9 53.9 22.1 c 8 8 10.3 11.8 16.1 21.8 c 3.5 6 8.3 20.9 8.3 30 v 10.7 c 0 3.5 -1.8 7.6 -1.8 11.1 v 1.3 h 6.8 l 1.6 -16 V 348.5 c 0 -4 -2.5 -13.1 -3.6 -16.5 C 311.4 325.7 310.1 323 307.5 317.8 C 302.9 308.3 298.1 301.7 290.8 294.6 C 279.3 283.2 256.9 270.7 234.2 270.7 H 228 c -19.6 0 -41.5 10.2 -51.5 19.7 C 169.4 297.1 165.4 300.7 159.7 309.2 C 157 313.3 155.9 316.6 153.5 320.7 C 151.2 324.6 150.5 330.6 148.4 333.8 z"/>
		<polygon id="_238946784" points="148.4,390.3 313.8,390.3 313.8,383.2 148.4,383.2 		"/>
		<polygon id="_234617384" points="141.2,405.9 321.4,405.9 321.4,398.3 141.2,398.3 		"/>
	</g>
	<ellipse fill="none" stroke="#000000" stroke-width="5" cx="275" cy="378" rx="12" ry="12"/>
	<ellipse fill="none" stroke="#000000" stroke-width="5" cx="335" cy="378" rx="12" ry="12"/>
	<line fill="none" stroke="#000000" stroke-width="5" x1="275" y1="389" x2="275" y2="429"/>
	<line fill="none" stroke="#000000" stroke-width="5" x1="335" y1="389" x2="335" y2="429"/>
	<line fill="none" stroke="#000000" stroke-width="5" x1="263" y1="403" x2="287" y2="403"/>
	<line fill="none" stroke="#000000" stroke-width="5" x1="323" y1="403" x2="347" y2="403"/>
</g>
</svg>
