<?xml version="1.0" encoding="utf-8"?>
<!-- Generator: Adobe Illustrator 16.0.0, SVG Export Plug-In . SVG Version: 6.00 Build 0)  -->
<!DOCTYPE svg PUBLIC "-//W3C//DTD SVG 1.1//EN" "http://www.w3.org/Graphics/SVG/1.1/DTD/svg11.dtd">
<svg version="1.1" id="Version_1.0" xmlns="http://www.w3.org/2000/svg" xmlns:xlink="http://www.w3.org/1999/xlink" x="0px" y="0px"
	 width="612px" height="792px" viewBox="0 0 612 792" enable-background="new 0 0 612 792" xml:space="preserve">
<g id="octagon" display="none">
	<g id="outFrame" display="inline">
		<line fill="none" stroke="#0000FF" stroke-width="2" x1="220" y1="309.5" x2="306" y2="273"/>
		<line fill="none" stroke="#0000FF" stroke-width="2" x1="306" y1="273" x2="390.5" y2="309.5"/>
		<line fill="none" stroke="#0000FF" stroke-width="2" x1="390.5" y1="309.5" x2="427" y2="396"/>
		<line fill="none" stroke="#0000FF" stroke-width="2" x1="427" y1="396" x2="390.5" y2="482.5"/>
		<line fill="none" stroke="#0000FF" stroke-width="2" x1="390.5" y1="482.5" x2="306" y2="516"/>
		<line fill="none" stroke="#0000FF" stroke-width="2" x1="306" y1="516" x2="220" y2="482.5"/>
		<line fill="none" stroke="#0000FF" stroke-width="2" x1="220" y1="482.5" x2="183" y2="396"/>
		<line fill="none" stroke="#0000FF" stroke-width="2" x1="183" y1="396" x2="220" y2="309.5"/>
	</g>
	
		<line id="mod2_1_" display="inline" fill="none" stroke="#0000FF" stroke-width="2" x1="203.966" y1="445.015" x2="406.199" y2="445.295"/>
	
		<line id="mod1_1_" display="inline" fill="none" stroke="#0000FF" stroke-width="2" x1="203.966" y1="346.985" x2="406.199" y2="346.705"/>
</g>
<g id="main">
	<g transform="translate(74,73)">
		<polygon id="_95654976" points="139.6,263.7 139.6,297.2 188.4,297.2 188.4,300.2 195.1,300.2 195.1,260.8 188.4,260.8 188.4,263.7"/>
		<path id="_43185824" d="M 269.9 293.2 C 275.1 296 282.2 310.4 282.2 318.9 c 0 5.4 -1.8 9.3 -7.1 9.3 H 274.4 c -3.3 0 -4.7 -4 -6 -6 L 268.1 315.9 C 269 316.5 270.2 317.3 271.8 317.3 c 3.1 0 4.8 -2.4 4.8 -5.6 v -3 C 276.6 305.9 271.3 296.2 269.9 293.2 z M 205.9 275 v 0.3 c 20.2 0 40.4 3 51.5 12.2 c 7.1 5.9 7.7 11.2 7.7 23.9 c 0 10.2 1.3 20.8 11.2 20.8 h 1.9 c 4.3 0 7.1 -6.5 7.1 -10.8 V 319.2 c 0 -12.8 -8.3 -26.7 -14.8 -33.2 c -4 -3.9 -8.9 -7.5 -15.2 -9.1 C 249.9 275.6 240.2 274.2 233.8 274.2 L 229.4 274 L 205.9 275 z"/>
		<g transform="scale(1.1) translate(-0.156364 -0.116364)">
			<path id="_43399624" d="M 260.3 275.3 C 261.7 278.4 267 288.1 267 291 v 3 c 0 3.2 -1.7 5.6 -4.8 5.6 c -1.6 0 -2.8 -0.9 -3.7 -1.5 l 0.4 6.3 c 1.3 1.9 2.7 6 6 6 h 0.7 c 5.2 0 7.1 -3.9 7.1 -9.3 C 272.6 292.5 265.5 278.1 260.3 275.3 z"/>
		</g>
		<path id="_96525016" d="M 139.6 351.2 v 33.5 h 183.9 V 352 L 315.8 353.3 L 313.1 353.1 c -5.6 0 -9.1 -1.7 -12.3 -4.1 C 299.3 347.9 298.1 346.2 297 344.6 C 296.1 343 296.4 339.3 294.5 339.3 H 293.4 c -2 0 -1.8 3.9 -3 5.6 C 289.3 346.5 288.2 348 286.5 349.2 C 283.3 351.6 279.1 353.1 273.7 353.1 H 271.4 c -7.9 0 -17.1 -5.3 -17.1 -12.7 c -0.8 -0.5 -1 -1.1 -1.9 -1.1 H 251.7 c -1.8 0 -2 3.7 -2.8 5.3 C 248 346.2 246.4 348 245.1 349.1 c -3 2.4 -6.7 4 -12 4 H 230.9 c -8.8 0 -18.2 -5.3 -18.2 -13.4 c -0.9 -0.2 -0.9 -0.4 -2 -0.4 H 210 c -1.4 0 -1.5 3.7 -2.7 5.5 C 206 346.9 205.5 347.6 203.5 349.1 c -3.2 2.4 -6.8 4 -12.1 4 H 188.8 c -8.8 0 -16.8 -5.4 -17.5 -13.4 C 170.5 339.5 170.4 339.3 169.4 339.3 H 169.1 c -1.7 0 -1.9 3.8 -3 5.6 C 165.1 346.5 163.8 348 162.2 349.2 C 158.8 351.8 155.5 353.1 149.7 353.1 H 147.1 C 144.2 353.1 141.5 352.2 139.6 351.2 L 139.6 351.2 z"/>
	</g>
	<ellipse transform="matrix(-0.9821 0.1886 -0.1886 -0.9821 761.3433 686.5066)" stroke="#000000" cx="348.008" cy="379.477" rx="5" ry="14.501"/>
</g>
</svg>
