<?xml version="1.0" encoding="UTF-8" standalone="no"?>
<svg
   xmlns:dc="http://purl.org/dc/elements/1.1/"
   xmlns:cc="http://creativecommons.org/ns#"
   xmlns:rdf="http://www.w3.org/1999/02/22-rdf-syntax-ns#"
   xmlns:svg="http://www.w3.org/2000/svg"
   xmlns="http://www.w3.org/2000/svg"
   xmlns:sodipodi="http://sodipodi.sourceforge.net/DTD/sodipodi-0.dtd"
   xmlns:inkscape="http://www.inkscape.org/namespaces/inkscape"
   version="1.1"
   id="Version_1.0"
   x="0px"
   y="0px"
   width="612px"
   height="792px"
   viewBox="0 0 612 792"
   enable-background="new 0 0 612 792"
   xml:space="preserve"
   sodipodi:docname="15180103.svg"
   inkscape:version="1.0 (4035a4fb49, 2020-05-01)"><metadata
   id="metadata909"><rdf:RDF><cc:Work
       rdf:about=""><dc:format>image/svg+xml</dc:format><dc:type
         rdf:resource="http://purl.org/dc/dcmitype/StillImage" /><dc:title /></cc:Work></rdf:RDF></metadata><defs
   id="defs907" /><sodipodi:namedview
   inkscape:document-rotation="0"
   pagecolor="#ffffff"
   bordercolor="#666666"
   borderopacity="1"
   objecttolerance="10"
   gridtolerance="10"
   guidetolerance="10"
   inkscape:pageopacity="0"
   inkscape:pageshadow="2"
   inkscape:window-width="1920"
   inkscape:window-height="1017"
   id="namedview905"
   showgrid="false"
   inkscape:zoom="1.0732323"
   inkscape:cx="306"
   inkscape:cy="396"
   inkscape:window-x="1912"
   inkscape:window-y="-8"
   inkscape:window-maximized="1"
   inkscape:current-layer="Version_1.0" />
<g
   id="octagon"
   display="none">
	<g
   id="outFrame"
   display="inline">
		<line
   fill="none"
   stroke="#0000FF"
   stroke-width="2"
   x1="220"
   y1="309.5"
   x2="306"
   y2="273"
   id="line881" />
		<line
   fill="none"
   stroke="#0000FF"
   stroke-width="2"
   x1="306"
   y1="273"
   x2="390.5"
   y2="309.5"
   id="line883" />
		<line
   fill="none"
   stroke="#0000FF"
   stroke-width="2"
   x1="390.5"
   y1="309.5"
   x2="427"
   y2="396"
   id="line885" />
		<line
   fill="none"
   stroke="#0000FF"
   stroke-width="2"
   x1="427"
   y1="396"
   x2="390.5"
   y2="482.5"
   id="line887" />
		<line
   fill="none"
   stroke="#0000FF"
   stroke-width="2"
   x1="390.5"
   y1="482.5"
   x2="306"
   y2="516"
   id="line889" />
		<line
   fill="none"
   stroke="#0000FF"
   stroke-width="2"
   x1="306"
   y1="516"
   x2="220"
   y2="482.5"
   id="line891" />
		<line
   fill="none"
   stroke="#0000FF"
   stroke-width="2"
   x1="220"
   y1="482.5"
   x2="183"
   y2="396"
   id="line893" />
		<line
   fill="none"
   stroke="#0000FF"
   stroke-width="2"
   x1="183"
   y1="396"
   x2="220"
   y2="309.5"
   id="line895" />
	</g>
	
		<line
   id="mod2_1_"
   display="inline"
   fill="none"
   stroke="#0000FF"
   stroke-width="2"
   x1="203.966"
   y1="445.015"
   x2="406.199"
   y2="445.295" />
	
		<line
   id="mod1_1_"
   display="inline"
   fill="none"
   stroke="#0000FF"
   stroke-width="2"
   x1="203.966"
   y1="346.985"
   x2="406.199"
   y2="346.705" />
</g>
<g
   id="main"
   transform="matrix(0.96,0,0,0.96,12.388374,18.797019)">
	
<path
   style="stroke-width:0.375976"
   id="path62"
   d="m 212.0312,425.74447 c 5.19271,11.82229 6.87736,21.07263 9.07074,33.39793 0.54361,3.09651 -0.0438,2.69614 3.56914,3.24219 9.27059,1.38107 11.90761,-2.67224 4.77845,-4.93569 -7.2645,-2.3181 -9.73633,-25.63302 -5.07197,-39.53835 4.35679,-12.85966 4.23789,-8.50284 7.10471,-12.87278 1.88063,-2.84291 3.06441,-8.43616 3.06441,-8.43616 0.46708,0.0681 4.05156,5.73126 0.35088,22.46574 -0.88284,3.99624 -1.72333,7.06503 -1.61602,6.68133 22.80369,29.0366 9.89912,37.17728 24.43591,34.26424 0.24941,-0.0496 2.02645,-0.37963 2.13473,-0.5957 0.20483,-0.41017 0.1424,-1.58958 -0.46061,-2.1915 -1.58054,-1.57461 -2.38283,-0.51469 -3.47063,-2.66723 -5.26471,-10.3936 -14.00672,-23.58388 -10.57977,-35.3617 5.11135,-17.44728 3.56026,-9.21901 8.02247,-16.44367 5.23228,-8.38957 1.96936,-9.41619 5.99691,-7.71154 9.79814,3.96725 31.54909,7.88503 34.43542,7.92795 0.9166,0.0268 1.74122,24.337 -0.97432,27.01322 -1.3062,1.29285 1.52017,1.60347 -10.91988,11.61328 -3.41852,2.75575 -4.18125,4.42466 -8.34635,2.94659 -5.40321,-1.89995 -6.85261,23.07972 1.48726,8.13394 0.42922,-0.76492 2.67914,-1.61759 4.12227,-2.1764 4.61666,-1.81579 1.1539,-1.39853 5.4402,-5.16606 1.05,-0.92088 3.99648,-3.11955 6.79009,-5.07084 6.4499,-4.47171 5.71672,-3.54732 5.87088,-2.54363 0.82687,5.94649 1.06081,8.21896 2.30013,19.57988 -1.3924,2.85087 -2.85444,3.39479 3.68515,4.56676 7.82725,1.56802 9.34822,1.07223 8.61929,-2.38809 -0.54629,-2.54924 -9.80173,3.11058 -8.95003,-26.49049 0.36093,-12.38298 2.56475,-26.05172 4.27987,-32.83406 12.77934,-8.85924 10.55479,-7.64622 16.34902,-6.54855 3.98312,0.66632 12.30604,2.31126 15.80112,0.28388 4.43243,-2.50857 8.90565,0.4222 35.34688,-22.24085 14.40781,-2.80015 17.18106,-2.2849 21.13165,-0.83841 1.32297,-1.35981 0.97467,-1.00171 2.14152,-2.20102 -0.64734,-9.0134 -0.71936,-10.5125 -16.29099,-12.88699 -0.28715,-0.18476 -6.97549,-4.4133 -7.3156,-4.5384 -1.03644,-0.36391 -2.72055,1.70698 -8.14006,-1.36889 -2.66376,5.07226 -2.41888,4.86129 -4.15784,6.34769 -8.65868,7.44132 -14.27038,13.5334 -17.09294,14.82082 -3.86533,1.71317 -10.45993,1.20548 -14.99294,-1.02409 -7.05036,-3.36707 -5.303,-11.34788 -13.91858,-18.6047 -4.26752,-3.53981 -12.08322,-7.5339 -19.34786,-8.07983 -9.43168,-7.78251 -6.76925,-3.19566 -9.03716,-7.31262 -2.65174,-4.78466 -4.69585,-6.73672 -13.27248,-8.88774 -2.62009,-0.79783 -21.23346,-1.87786 -18.41134,1.91988 2.20534,2.99009 -3.44723,12.29229 -25.77529,19.68008 -7.17286,7.90611 -5.1626,4.59523 -12.26731,18.78176 -0.76343,44.61668 0.009,43.17305 -5.91913,58.28882 z"
   inkscape:connector-curvature="0" /></g>
</svg>
