<?xml version="1.0" encoding="UTF-8" standalone="no"?>
<!-- Generator: Adobe Illustrator 16.0.0, SVG Export Plug-In . SVG Version: 6.00 Build 0)  -->

<svg version="1.1" id="Version_1.0" x="0px" y="0px" width="612px" height="792px" viewBox="0 0 612 792" enable-background="new 0 0 612 792" xml:space="preserve" sodipodi:docname="15141300.svg" inkscape:version="1.2.2 (732a01da63, 2022-12-09)" xmlns:inkscape="http://www.inkscape.org/namespaces/inkscape" xmlns:sodipodi="http://sodipodi.sourceforge.net/DTD/sodipodi-0.dtd" xmlns="http://www.w3.org/2000/svg" xmlns:svg="http://www.w3.org/2000/svg"><defs id="defs170" /><sodipodi:namedview id="namedview168" pagecolor="#ffffff" bordercolor="#666666" borderopacity="1.0" inkscape:showpageshadow="2" inkscape:pageopacity="0.0" inkscape:pagecheckerboard="0" inkscape:deskcolor="#d1d1d1" showgrid="false" inkscape:zoom="0.74281925" inkscape:cx="188.47115" inkscape:cy="500.79478" inkscape:window-width="1920" inkscape:window-height="1009" inkscape:window-x="-8" inkscape:window-y="-8" inkscape:window-maximized="1" inkscape:current-layer="Version_1.0" />
<g id="octagon" display="none">
	
		<line id="mod2_1_" display="inline" fill="none" stroke="#0000FF" stroke-width="2" x1="203.966" y1="445.015" x2="406.199" y2="445.295" />
	
		<line id="mod1_1_" display="inline" fill="none" stroke="#0000FF" stroke-width="2" x1="203.966" y1="346.985" x2="406.199" y2="346.705" />
	<g id="outFrame" display="inline">
		<line fill="none" stroke="#0000FF" stroke-width="2" x1="220" y1="309.5" x2="306" y2="273" id="line134" />
		<line fill="none" stroke="#0000FF" stroke-width="2" x1="306" y1="273" x2="390.5" y2="309.5" id="line136" />
		<line fill="none" stroke="#0000FF" stroke-width="2" x1="390.5" y1="309.5" x2="427" y2="396" id="line138" />
		<line fill="none" stroke="#0000FF" stroke-width="2" x1="427" y1="396" x2="390.5" y2="482.5" id="line140" />
		<line fill="none" stroke="#0000FF" stroke-width="2" x1="390.5" y1="482.5" x2="306" y2="516" id="line142" />
		<line fill="none" stroke="#0000FF" stroke-width="2" x1="306" y1="516" x2="220" y2="482.5" id="line144" />
		<line fill="none" stroke="#0000FF" stroke-width="2" x1="220" y1="482.5" x2="183" y2="396" id="line146" />
		<line fill="none" stroke="#0000FF" stroke-width="2" x1="183" y1="396" x2="220" y2="309.5" id="line148" />
	</g>
</g>
<g id="main" transform="translate(0 29) scale(1 0.8)">
	<g id="g283" transform="matrix(0.6,0,0,0.6,78.4,190.25)">
		<line fill="none" stroke="#000000" stroke-width="5" x1="226" y1="367.5" x2="226" y2="507.5" id="line152" />
		<line fill="none" stroke="#000000" stroke-width="5" x1="386" y1="367.5" x2="386" y2="507.5" id="line154" />
		<line fill="none" stroke="#000000" stroke-width="5" x1="226" y1="505" x2="386" y2="505" id="line156" />
		<path fill="none" stroke="#000000" stroke-width="5" d="m 226,370.25 c 70,26 90,26 160,0" id="path158" />
		<g id="g164">
			<ellipse fill="none" stroke="#000000" stroke-width="5" cx="236" cy="527.5" rx="13" ry="16.25" id="ellipse160" />
			<ellipse fill="none" stroke="#000000" stroke-width="5" cx="376" cy="527.5" rx="13" ry="16.25" id="ellipse162" />
		</g>
	</g>
    <line fill="none" stroke="#000000" stroke-width="5" x1="309.75481" y1="464.82573" x2="373.05769" y2="464.82573" id="path826" />
    <g transform="matrix(0.3,0,0,0.375,275.84388,328.17064)" id="main-3">
	   <path style="stroke-width:0.815516" id="path12" d="m 422.36483,454.28218 c -0.96904,2.42261 -1.87751,4.78464 -2.96768,6.96498 -5.08746,9.5087 -15.14125,13.92995 -25.19504,15.80745 v -17.26102 h 7.32837 c 1.39299,-3.57332 4.23954,-6.23818 7.93401,-7.38892 1.15073,-0.60565 1.87751,-1.57469 2.11977,-2.84655 0.12114,0 0.12114,0 0.12114,0 0.96903,-7.93402 2.30147,-16.29199 3.93672,-24.77108 0.78734,-2.11978 0.0605,-4.05786 -2.24091,-4.78464 -4.96633,-0.60564 -9.75096,-1.57469 -14.53559,-2.84655 -10.29605,-0.48452 -20.65267,-2.78599 -29.55572,-8.17628 -7.93401,4.30012 -10.84114,12.65809 -15.14125,19.98645 v -0.12113 c -10.17491,15.86803 -18.41175,32.82622 -24.77107,50.39006 -0.42395,1.09018 -0.60565,2.24091 -0.60565,3.39165 0,1.81695 0.54508,3.51277 1.39299,4.96633 4.8452,4.96633 7.99458,11.08338 10.47774,17.44272 l -19.13853,0.18168 c -0.12113,-4.60293 -0.54508,-9.02418 -3.27051,-12.90034 -2.4226,-2.11977 -4.30011,-3.93672 -4.6635,-7.32835 0.54508,-4.30012 3.2705,-8.11571 5.08746,-11.99187 v 0 c 2.2409,-4.78464 3.57333,-9.8721 4.23954,-15.02011 0.72678,-4.42125 1.93808,-8.78193 3.14938,-13.14261 3.57334,-11.9313 5.32972,-24.28656 7.75232,-36.52069 -21.56113,3.4522 -43.4251,1.81696 -64.68341,-2.54372 -2.36203,12.53694 -5.93536,24.64994 -10.47773,36.52068 -1.69582,6.17762 3.08881,12.47639 6.11705,17.44271 6.72272,9.93266 14.29335,19.13854 20.7738,29.25289 3.93673,4.8452 7.20723,10.29605 9.75096,16.11029 l -20.22871,0.30282 -0.60565,-7.38892 c -0.0605,-1.09017 -0.0605,-2.18034 -1.02961,-2.72542 -2.90711,-0.90849 -4.36067,-3.45222 -5.39027,-6.11707 -2.24091,-5.39029 -5.08746,-10.59887 -8.4791,-15.5652 -6.23819,-8.60023 -13.74825,-16.11029 -22.34848,-22.34848 0,0 0,0 -0.12113,-0.12114 -2.2409,-1.45355 -2.66486,-3.81559 -2.66486,-6.23818 0.84791,-4.54238 1.75638,-9.08475 2.54374,-13.6877 0.72677,-8.90304 -3.27052,-17.44272 -10.59888,-22.6513 -3.93672,5.99594 -8.96362,11.02283 -14.5356,15.5652 -6.72271,4.72407 -13.08204,9.99323 -18.95685,15.7469 v 0 c -1.45355,1.45356 -2.84654,2.84656 -4.11841,4.23954 -3.08881,3.9973 -5.20859,8.6608 -6.96497,13.32431 -3.51277,8.96361 -6.0565,17.6244 -7.81288,25.92181 -0.60566,2.72543 0.0606,5.45085 1.39299,7.81288 v 0 c 3.14938,4.11843 5.69311,8.66079 7.51006,13.68769 l -18.83571,0.1817 -0.12113,-8.47911 c 0.12113,-0.78734 -0.1817,-1.21129 -0.60565,-1.81694 h -0.12113 c -3.27052,-1.63525 -4.48181,-4.54238 -3.99729,-8.05514 5.81424,-14.05108 7.99458,-25.92182 11.44678,-38.51934 v 0 c 1.393,-4.42124 1.69582,-9.20587 1.15074,-13.86938 -0.36339,-2.2409 0.36339,-4.30011 1.69581,-6.11706 2.24091,-2.72542 4.54239,-5.69312 6.90441,-8.66079 4.90577,-6.11707 7.14667,-13.74825 8.60023,-21.25832 2.4226,-11.56791 0.24226,-23.74147 1.45356,-35.7939 1.75638,-9.62984 7.20723,-18.10893 13.32429,-25.49786 -27.67819,3.51277 -24.83164,46.08995 -25.0739,67.77222 0,1.39299 0,2.72542 0,4.23954 l -25.19503,-0.30281 c 1.09017,-38.45877 6.11707,-83.39799 55.17471,-77.64432 11.7496,-3.87616 23.43864,-7.93401 35.91503,-8.23684 29.07119,0.24227 51.48024,8.4791 80.36973,5.51141 40.39685,-5.20858 44.93923,-53.90283 88.96997,-54.75074 5.51141,0 11.14395,0.84791 16.4131,2.4226 8.35797,-1.87752 16.9582,-2.36204 25.49786,-1.69582 -4.54236,3.57333 -8.78192,7.08611 -13.02147,10.72 -1.75638,11.20453 -0.42395,22.53019 -0.8479,33.79527 0.12113,3.63389 -0.84792,20.47096 -1.69582,27.98102 0.48451,6.54102 -6.60159,9.87209 -13.3243,9.20588 -3.39164,-0.36339 -3.63391,-2.78599 -8.41854,-3.39165 -3.08881,-1.93808 -1.93807,-5.6931 -2.2409,-8.78191 -0.54508,-7.51007 -4.17898,-14.29334 -5.81424,-21.6217 -2.66486,-1.02961 -5.08746,-2.24091 -7.38892,-3.51277 -5.2086,8.17627 -7.93403,17.56385 -8.05515,27.13311 -0.18169,8.47909 -0.30283,16.9582 -0.30283,25.43729 0,-0.60564 0,-0.18169 -0.12113,0.12114 -0.42395,6.48045 -2.24089,12.71864 -5.26915,18.29062 11.14396,1.87751 21.8034,5.26915 31.97831,10.17491 4.11842,2.30148 9.26644,4.36068 11.99188,8.4791 0.12113,0 0.12113,0 0.12113,0.12113 1.45355,2.30147 1.57468,4.96633 1.0296,7.51005 -3.08882,14.23278 -6.90441,27.25426 -12.113,38.33764 z" />
    </g>
</g>
</svg>
