<?xml version="1.0" encoding="UTF-8" standalone="no"?>
<!-- Generator: Adobe Illustrator 16.0.0, SVG Export Plug-In . SVG Version: 6.00 Build 0)  -->

<svg version="1.1" id="Version_1.0" x="0px" y="0px" width="612px" height="792px" viewBox="0 0 612 792" enable-background="new 0 0 612 792" xml:space="preserve" sodipodi:docname="15250000.svg" inkscape:version="1.2.2 (732a01da63, 2022-12-09)" xmlns:inkscape="http://www.inkscape.org/namespaces/inkscape" xmlns:sodipodi="http://sodipodi.sourceforge.net/DTD/sodipodi-0.dtd" xmlns="http://www.w3.org/2000/svg" xmlns:svg="http://www.w3.org/2000/svg"><defs id="defs170" /><sodipodi:namedview id="namedview168" pagecolor="#ffffff" bordercolor="#666666" borderopacity="1.0" inkscape:showpageshadow="2" inkscape:pageopacity="0.0" inkscape:pagecheckerboard="0" inkscape:deskcolor="#d1d1d1" showgrid="false" inkscape:zoom="1.4856385" inkscape:cx="220.10738" inkscape:cy="474.54344" inkscape:window-width="1920" inkscape:window-height="1009" inkscape:window-x="1912" inkscape:window-y="-8" inkscape:window-maximized="1" inkscape:current-layer="main" />
<g id="octagon" display="none">
	
		<line id="mod2_1_" display="inline" fill="none" stroke="#0000FF" stroke-width="2" x1="203.966" y1="445.015" x2="406.199" y2="445.295" />
	
		<line id="mod1_1_" display="inline" fill="none" stroke="#0000FF" stroke-width="2" x1="203.966" y1="346.985" x2="406.199" y2="346.705" />
	<g id="outFrame" display="inline">
		<line fill="none" stroke="#0000FF" stroke-width="2" x1="220" y1="309.5" x2="306" y2="273" id="line134" />
		<line fill="none" stroke="#0000FF" stroke-width="2" x1="306" y1="273" x2="390.5" y2="309.5" id="line136" />
		<line fill="none" stroke="#0000FF" stroke-width="2" x1="390.5" y1="309.5" x2="427" y2="396" id="line138" />
		<line fill="none" stroke="#0000FF" stroke-width="2" x1="427" y1="396" x2="390.5" y2="482.5" id="line140" />
		<line fill="none" stroke="#0000FF" stroke-width="2" x1="390.5" y1="482.5" x2="306" y2="516" id="line142" />
		<line fill="none" stroke="#0000FF" stroke-width="2" x1="306" y1="516" x2="220" y2="482.5" id="line144" />
		<line fill="none" stroke="#0000FF" stroke-width="2" x1="220" y1="482.5" x2="183" y2="396" id="line146" />
		<line fill="none" stroke="#0000FF" stroke-width="2" x1="183" y1="396" x2="220" y2="309.5" id="line148" />
	</g>
</g>
<g id="main" transform="translate(0 29) scale(1 0.8)">
	<g id="g283" transform="matrix(0.6,0,0,0.6,78.4,190.25)">
	    <line fill="none" stroke="#000000" stroke-width="5" x1="226" y1="367.5" x2="226" y2="507.5" id="line152" />
	    <line fill="none" stroke="#000000" stroke-width="5" x1="386" y1="367.5" x2="386" y2="507.5" id="line154" />
	    <line fill="none" stroke="#000000" stroke-width="5" x1="226" y1="505" x2="386" y2="505" id="line156" />
	    <path fill="none" stroke="#000000" stroke-width="5" d="m 226,370.25 c 70,26 90,26 160,0" id="path158" />
	    <g id="g164">
		    <ellipse fill="none" stroke="#000000" stroke-width="5" cx="236" cy="527.5" rx="13" ry="16.25" id="ellipse160" />
		    <ellipse fill="none" stroke="#000000" stroke-width="5" cx="376" cy="527.5" rx="13" ry="16.25" id="ellipse162" />
	    </g>
	</g>
    <line fill="none" stroke="#000000" stroke-width="5" x1="309.75481" y1="464.82573" x2="373.05769" y2="464.82573" id="path826" />
  </g>
</svg>
