<?xml version="1.0" encoding="UTF-8" standalone="no"?>
<!-- Generator: Adobe Illustrator 16.0.0, SVG Export Plug-In . SVG Version: 6.00 Build 0)  -->

<svg version="1.1" id="Version_1.0" x="0px" y="0px" width="612px" height="792px" viewBox="0 0 612 792" enable-background="new 0 0 612 792" xml:space="preserve" sodipodi:docname="15250200.svg" inkscape:version="1.2.2 (732a01da63, 2022-12-09)" xmlns:inkscape="http://www.inkscape.org/namespaces/inkscape" xmlns:sodipodi="http://sodipodi.sourceforge.net/DTD/sodipodi-0.dtd" xmlns="http://www.w3.org/2000/svg" xmlns:svg="http://www.w3.org/2000/svg"><defs id="defs170" /><sodipodi:namedview id="namedview168" pagecolor="#ffffff" bordercolor="#666666" borderopacity="1.0" inkscape:showpageshadow="2" inkscape:pageopacity="0.0" inkscape:pagecheckerboard="0" inkscape:deskcolor="#d1d1d1" showgrid="false" inkscape:zoom="1.4856385" inkscape:cx="215.3956" inkscape:cy="453.00388" inkscape:window-width="1920" inkscape:window-height="1009" inkscape:window-x="1912" inkscape:window-y="-8" inkscape:window-maximized="1" inkscape:current-layer="Version_1.0" />
<g id="octagon" display="none">
	
		<line id="mod2_1_" display="inline" fill="none" stroke="#0000FF" stroke-width="2" x1="203.966" y1="445.015" x2="406.199" y2="445.295" />
	
		<line id="mod1_1_" display="inline" fill="none" stroke="#0000FF" stroke-width="2" x1="203.966" y1="346.985" x2="406.199" y2="346.705" />
	<g id="outFrame" display="inline">
		<line fill="none" stroke="#0000FF" stroke-width="2" x1="220" y1="309.5" x2="306" y2="273" id="line134" />
		<line fill="none" stroke="#0000FF" stroke-width="2" x1="306" y1="273" x2="390.5" y2="309.5" id="line136" />
		<line fill="none" stroke="#0000FF" stroke-width="2" x1="390.5" y1="309.5" x2="427" y2="396" id="line138" />
		<line fill="none" stroke="#0000FF" stroke-width="2" x1="427" y1="396" x2="390.5" y2="482.5" id="line140" />
		<line fill="none" stroke="#0000FF" stroke-width="2" x1="390.5" y1="482.5" x2="306" y2="516" id="line142" />
		<line fill="none" stroke="#0000FF" stroke-width="2" x1="306" y1="516" x2="220" y2="482.5" id="line144" />
		<line fill="none" stroke="#0000FF" stroke-width="2" x1="220" y1="482.5" x2="183" y2="396" id="line146" />
		<line fill="none" stroke="#0000FF" stroke-width="2" x1="183" y1="396" x2="220" y2="309.5" id="line148" />
	</g>
</g>
<g id="main" transform="translate(0 29) scale(1 0.8)">
    <g id="g283" transform="matrix(0.6,0,0,0.6,78.4,190.25)">
	    <line fill="none" stroke="#000000" stroke-width="5" x1="226" y1="367.5" x2="226" y2="507.5" id="line152" />
	    <line fill="none" stroke="#000000" stroke-width="5" x1="386" y1="367.5" x2="386" y2="507.5" id="line154" />
	    <line fill="none" stroke="#000000" stroke-width="5" x1="226" y1="505" x2="386" y2="505" id="line156" />
	    <path fill="none" stroke="#000000" stroke-width="5" d="m 226,370.25 c 70,26 90,26 160,0" id="path158" />
	    <g id="g164">
	       <ellipse fill="none" stroke="#000000" stroke-width="5" cx="236" cy="527.5" rx="13" ry="16.25" id="ellipse160" />
	       <ellipse fill="none" stroke="#000000" stroke-width="5" cx="376" cy="527.5" rx="13" ry="16.25" id="ellipse162" />
	    </g>
	</g>
    <line fill="none" stroke="#000000" stroke-width="5" x1="309.75481" y1="464.82573" x2="373.05769" y2="464.82573" id="path826" />
    <g id="main-8" transform="matrix(-0.48,0,0,0.6,522.01585,237.7698)">
	   <path id="path2" d="m 402.24679,403.28319 c -0.13719,-0.6858 -0.13719,-1.44017 -0.0685,-2.12597 v -2.60603 c -0.0686,-0.82296 0,-1.6459 0.1372,-2.46886 0.41146,-2.19455 0.68582,-4.25196 0.82301,-6.37793 0.13707,-1.50875 0.20572,-3.01749 0.27427,-4.52623 l 0.13716,-2.3317 0.41146,-3.22333 0.41146,-4.11482 c 0.0686,-0.27432 0.0686,-0.54864 0.0686,-0.75436 0,-0.27432 0,-0.54865 -0.0686,-0.75438 l -0.41146,-3.97769 c 0.41146,1.85166 0.82301,3.70343 1.02873,5.55485 l 1.02863,6.72091 0.0685,0.89153 0.20572,1.92022 0.13719,1.44018 v 2.19453 l -0.0686,1.92023 0.20574,3.29174 0.20572,4.11483 0.20584,3.08619 -0.0685,5.21217 -0.1372,1.85165 -0.13719,1.6459 -0.34291,2.05738 c 0,0.41148 0.0685,0.89154 0.0685,1.30302 0,0.54864 -0.0685,1.16585 -0.0685,1.78305 v 0.20574 c 0,0.41148 0.0685,0.82298 0.13719,1.16586 0.27436,0.75437 0.41146,1.50874 0.48011,2.33171 0.13707,0.82296 0.20571,1.6459 0.41146,2.46886 0.20571,0.82296 0.34291,1.6459 0.34291,2.53746 l 0.0685,1.71449 c 0,0.34289 0.20575,0.6858 0.48002,0.82297 0.41146,0.27431 0.96017,0.48004 1.5087,0.48004 0.0685,0 0.1372,0.0685 0.20575,0.0685 0.41155,0 0.75437,-0.13716 1.09728,-0.27432 0.68581,-0.20574 1.02872,-0.82295 1.02872,-1.50873 v -3.42888 c 0,-1.50873 -0.13719,-3.01748 -0.41146,-4.52621 -0.20571,-1.23442 -0.20571,-2.53744 -0.0686,-3.84057 0.0686,-0.34288 0.1372,-0.75436 0.27427,-1.16584 0.0686,-0.41149 0.0686,-0.82297 0.0686,-1.30302 0,-0.34288 -0.0686,-0.6858 -0.27427,-0.89153 -0.41155,-0.54865 -0.68582,-1.02869 -0.89153,-1.6459 -0.34291,-0.75437 -0.61721,-1.50874 -0.82301,-2.33171 -0.20575,-0.61721 -0.34282,-1.30301 -0.27427,-1.98881 0.0685,-1.09729 0.0685,-2.19454 0.0685,-3.29174 v -0.0686 c 0,-1.44017 0.1372,-2.88035 0.34282,-4.32037 0.20583,-1.23445 0.3429,-2.53746 0.3429,-3.84056 v -8.641 l 0.1372,-10.97286 -0.1372,-4.8692 c -0.0685,-0.82296 -0.0685,-1.6459 -0.13707,-2.46886 -0.0685,-2.67462 -0.54874,-5.21217 -1.44018,-7.68082 -0.89153,-2.4003 -2.12601,-4.52623 -3.84055,-6.44635 -1.57738,-1.7145 -3.29183,-3.29175 -5.21222,-4.66335 -1.23444,-0.89154 -2.53743,-1.6459 -3.90897,-2.19455 -1.98885,-0.82296 -4.11485,-1.57733 -6.24086,-2.12597 -1.44015,-0.41148 -2.88034,-0.61721 -4.38907,-0.68581 -1.02864,-0.0686 -2.33163,-0.0686 -3.56598,-0.13716 h -1.44018 c -2.05736,0 -4.04608,0.13716 -6.03492,0.48005 -0.96018,0.20574 -1.85161,0.34289 -2.81182,0.48005 -1.37154,0.20574 -2.67454,0.34288 -3.97762,0.48005 -3.22329,0.34289 -6.51512,0.61721 -9.80683,0.82296 -5.76074,0.27432 -12.06989,0.82297 -18.44781,1.44017 -2.67463,0.3429 -4.86918,0.54865 -7.06365,0.68581 -0.54862,0.0685 -1.5087,0.13716 -2.40027,0.20574 -1.02872,0.0685 -1.78309,0.0685 -2.53743,-0.0685 -0.6172,-0.0685 -1.23447,-0.13717 -1.92029,-0.20573 -2.33162,-0.3429 -4.59492,-0.48006 -6.85799,-0.48006 -6.03501,0 -12.13867,-0.41148 -18.17356,-1.30301 -6.65227,-0.96013 -13.16726,-1.50874 -19.81945,-1.50874 h -0.6173 c -1.71445,0 -3.42877,0 -5.07499,0.13716 -1.7831,0.13715 -3.70339,0.34289 -5.62355,0.54864 -1.71445,0.20574 -3.566,0.34289 -5.48648,0.48005 -2.40027,0.20574 -4.59492,0.27432 -6.78926,0.20574 -1.57735,-0.0685 -3.15464,-0.20574 -4.80054,-0.34289 -1.783,-0.13716 -3.56597,-0.48005 -5.34928,-0.96012 -2.1261,-0.54865 -4.2521,-1.23445 -6.30937,-2.12599 -0.82301,-0.27431 -1.57735,-0.6858 -2.33172,-1.09728 l -1.23447,-0.75437 0.54865,-1.30301 c 0.20581,-0.20574 0.27436,-0.48004 0.27436,-0.82297 v -0.20573 c -0.13719,-0.54865 -0.41146,-0.96013 -0.96008,-1.16586 -0.6173,-0.20573 -1.30312,-0.48004 -2.05746,-0.6858 -0.48001,-0.20574 -1.02863,-0.41148 -1.50873,-0.6172 -0.68582,-0.3429 -1.44019,-0.61721 -2.19456,-0.75438 -0.75437,-0.13716 -1.44019,-0.54864 -1.92016,-1.16585 l -2.74318,-3.36046 c -0.1372,-0.13715 -0.27439,-0.20573 -0.41146,-0.27432 h -0.20584 c -0.20572,0 -0.34279,0.13716 -0.47998,0.3429 -0.0685,0.20573 -0.0685,0.41148 -0.0685,0.6172 0,0.20573 0,0.41149 0.0685,0.54864 l 0.34291,0.82297 0.68572,1.85165 0.82302,2.19455 h -0.0686 c -1.16593,0.0685 -2.19456,0.34289 -3.15464,0.82296 -0.48011,0.27432 -1.23448,0.6858 -1.92029,1.09728 -0.96009,0.48006 -1.50871,0.96013 -1.98872,1.57734 -0.20581,0.20574 -0.41155,0.41149 -0.68582,0.54865 -0.34291,0.20574 -0.75437,0.27432 -1.16592,0.13715 -0.61717,-0.13715 -1.23435,-0.54864 -1.6459,-1.09728 l -3.01744,-3.90898 c -0.20572,-0.20573 -0.41146,-0.34289 -0.68582,-0.34289 -0.0685,-0.0685 -0.1371,-0.0685 -0.1371,-0.0685 -0.27436,0 -0.48007,0.13716 -0.61727,0.34289 -0.13707,0.27432 -0.20571,0.54865 -0.20571,0.82297 0,0.13715 0,0.34289 0.0685,0.54864 l 0.48001,1.09729 0.89153,2.19454 0.68582,1.3716 0.75436,1.0287 0.54866,0.82296 1.1658,1.98882 c 0.0685,0.13716 0.13719,0.27432 0.13719,0.41148 0,0.20574 -0.0685,0.34289 -0.20575,0.48006 -0.48007,0.6172 -1.02872,1.23441 -1.6459,1.85165 -0.4801,0.48004 -1.09727,0.82297 -1.71454,0.96012 -0.75437,0.20574 -1.37154,0.82296 -1.57726,1.57734 -0.20574,0.6858 -0.41146,1.44017 -0.4801,2.12597 -0.1371,1.16585 -0.68582,2.19455 -1.44019,3.01748 -0.61717,0.54865 -1.09728,1.16586 -1.50874,1.85166 -0.68581,1.02869 -1.37154,2.05738 -2.19452,3.01748 -0.61717,0.75437 -1.09728,1.6459 -1.50874,2.46886 -0.41146,1.02869 -0.96008,1.98882 -1.71445,2.74319 l -4.32043,4.66334 c -0.0685,0.34289 -0.1371,0.68581 -0.1371,1.02869 0,0.27432 0,0.48006 0.0685,0.68581 0.13719,0.96012 0.41146,1.92022 0.68582,2.81176 0.27426,0.75436 0.68581,1.3716 1.16582,1.98881 0.48008,0.54865 0.96018,1.09729 1.57735,1.57733 0.61718,0.48005 1.37164,0.89153 2.12601,1.16586 0.34281,0.0685 0.68582,0.13715 1.02863,0.13715 0.54863,0 1.09728,-0.13715 1.57738,-0.41148 0.48008,-0.27432 0.96009,-0.41148 1.50871,-0.54863 0.75437,-0.20575 1.57738,-0.20575 2.40027,-0.0686 1.16592,0.20574 2.19455,0.41148 3.15464,0.61721 -0.34291,-0.0685 0.20574,-0.0685 0.75437,-0.0685 0.54862,0 1.16592,-0.0685 1.78309,-0.13715 1.02863,-0.27433 2.05736,-0.48006 3.01744,-0.61721 0.54866,-0.13717 1.44019,-0.41149 2.2632,-0.75438 0.61718,-0.27431 1.303,-0.27431 1.98881,-0.0685 0.75437,0.27432 1.50874,0.61721 2.26311,1.02869 1.71454,0.96013 3.56597,1.57734 5.48645,1.92023 0.68582,0.13715 1.37154,0.27432 1.98881,0.41149 0.89156,0.13715 1.98884,0.27431 3.01748,0.27431 0.75433,0.0685 1.5087,0.20574 2.26316,0.54864 1.37155,0.68581 2.60602,1.7145 3.49755,3.01748 1.16583,1.71449 2.19456,3.49758 3.08618,5.41772 0.68585,1.44017 1.50874,2.94891 2.33175,4.38908 0.61717,1.02869 1.16579,2.26314 1.6459,3.49759 0.68572,1.7145 1.37154,3.22332 2.12591,4.80048 0.48011,1.09728 0.96018,2.19454 1.37164,3.36045 0.13719,0.34289 0.34291,0.68581 0.54862,0.96013 1.9202,2.60603 4.52618,4.52622 7.54375,5.48644 l 1.85161,0.61721 -1.92016,1.71449 -3.90901,3.49758 -2.05745,1.98882 -1.64581,1.78306 c -0.4801,0.75437 -0.96018,1.57733 -1.57738,2.33171 -0.48008,0.75437 -0.89153,1.37161 -1.1658,2.05738 -0.27436,0.61721 -0.41155,1.23444 -0.41155,1.92021 0,0.27432 0.0686,0.54865 0.0686,0.82298 0.20571,1.02868 0.61717,1.98881 1.09724,2.88034 l 1.02864,1.7145 1.23447,1.6459 3.70348,3.49758 1.64581,1.6459 1.50883,1.57734 0.82289,1.02869 2.46891,3.08618 4.32034,4.59494 2.26311,2.12598 1.78309,1.37161 1.44019,0.96011 1.02873,0.48005 0.54862,0.0685 c 0.61717,1.57734 1.6459,3.01747 2.88037,4.11482 0.47998,0.48005 1.09728,0.82297 1.78301,0.96013 0.61717,0.13716 1.16589,0.27432 1.78309,0.41148 h 0.41143 c 0.27439,0 0.4801,0 0.75437,-0.0685 l 0.41155,-0.13715 -3.22338,-11.04129 c -0.13719,-0.41147 -0.41146,-0.75436 -0.89153,-0.82296 l -2.94892,-0.68581 c -0.27427,-0.13716 -0.41146,-0.41148 -0.34291,-0.61721 l 0.61727,-1.85164 c 0.0685,-0.13716 0.1371,-0.41149 0.1371,-0.61722 0,-0.61721 -0.34282,-1.16584 -0.89144,-1.44017 -0.4801,-0.27431 -1.02873,-0.48005 -1.57738,-0.6858 -0.75437,-0.13717 -1.44019,-0.54864 -2.05736,-0.96013 -0.82302,-0.61721 -1.6459,-1.23444 -2.46892,-1.92022 -1.09728,-0.89154 -2.05736,-2.05738 -2.74317,-3.29175 -0.61718,-1.16584 -1.23435,-2.3317 -1.92017,-3.42887 -0.6173,-1.09727 -0.89156,-2.05738 -1.02876,-3.08618 -0.13716,-1.0973 0.1372,-2.19455 0.82301,-3.15462 0.68582,-0.96007 1.64591,-1.78305 2.67466,-2.26313 l 3.90888,-1.85166 c 1.16593,-0.54865 2.33172,-1.09728 3.5661,-1.57734 1.1658,-0.41148 2.19452,-1.02869 3.22328,-1.71449 0.68582,-0.54865 1.37151,-0.96013 2.12598,-1.37161 1.50873,-0.96012 2.67466,-2.19453 3.566,-3.77184 l 0.41146,-0.75438 1.71455,3.49759 0.68581,1.50875 0.54863,1.16584 1.09727,1.57733 1.37155,1.98882 2.05745,2.94891 1.71445,2.7432 1.85165,3.01746 0.89156,1.44018 2.60598,4.59493 1.02873,1.98882 1.30299,2.60603 0.68585,1.57732 0.47998,1.44019 c 0.34291,0.75437 0.54875,1.50873 0.68582,2.3317 0.0685,0.6172 0.20572,1.23441 0.34291,1.92022 0,0.27431 0.0686,0.54864 0.0686,0.82296 0,0.96013 -0.34291,1.85167 -1.02873,2.53747 l -2.19455,2.46886 -0.34282,0.54864 c -2.126,0.54865 -3.70348,2.33171 -4.04617,4.52622 l -0.0685,0.48005 h 11.72731 c 0.96008,-1.02869 1.5087,-2.33171 1.5087,-3.70343 0,-0.82296 -0.20571,-1.64591 -0.54862,-2.4003 l -0.34291,-0.61722 c -0.0686,-0.27432 0.0686,-0.48004 0.27436,-0.48004 h 1.37154 c 0.89156,-0.13715 1.44019,-0.89153 1.44019,-1.71449 0,-0.13716 0,-0.20574 -0.0686,-0.34289 l -0.54863,-2.74318 -0.96008,-3.36046 -1.09737,-4.04611 -1.09728,-3.77185 -0.68573,-2.74318 -0.61726,-2.53747 -0.41146,-1.6459 -0.41146,-1.6459 -0.27436,-1.50873 -0.34291,-1.57734 -0.27426,-1.16585 -0.75437,-2.88035 c -0.41156,-1.30301 -0.89156,-2.67462 -1.23447,-3.97769 -0.54863,-1.98882 -1.303,-3.97769 -2.26308,-5.7607 l -0.61727,-1.16585 5.34939,-0.13715 h 1.16579 c 1.50874,0 3.15464,0 4.73212,-0.13717 2.53734,-0.13715 5.21209,0.0685 7.81788,0.68581 3.70348,0.75436 7.40656,1.16585 11.17846,1.23445 0.41146,0.0685 0.75437,0.0685 1.1658,0.0685 4.11485,0 8.16092,-0.41148 12.13867,-1.23441 2.81173,-0.54864 4.86918,-0.96012 6.92644,-1.37161 l 0.41143,-0.0685 c 1.50884,1.23445 3.15555,2.3317 4.93764,3.15461 l 0.20572,0.13716 -0.96009,5.41771 c 0.0686,1.0973 0.96009,1.98882 2.05736,1.98882 0.89157,0 1.71455,-0.48004 1.98884,-1.30301 l 1.71455,-4.52621 2.53747,0.54863 -0.61731,4.45781 v 0.41148 c 0,0.41148 0.0686,0.82297 0.27436,1.16585 0.34295,0.54864 0.82292,0.82296 1.44019,0.89153 h 0.27427 c 0.41145,0 0.82301,-0.0685 1.23447,-0.13716 0.54862,-0.13715 1.02863,-0.54865 1.09728,-1.16586 l 0.96008,-5.00632 2.33172,0.13716 c 0.13719,0.89153 0.20574,1.85166 0.20574,2.81175 v 0.41148 c 0,1.37159 -0.13719,2.67462 -0.27426,4.04611 -0.1372,1.16585 -0.41156,2.26314 -0.82301,3.29174 -0.96009,2.19454 -2.05737,4.45781 -3.29171,6.58377 l -0.82302,1.44019 -1.50873,2.67461 c -0.61717,1.44018 -1.50871,2.74319 -2.53747,3.90898 l -0.82288,0.96013 -0.96018,0.96012 -2.46882,2.05739 -1.92029,1.6459 -2.40027,1.98881 c -0.27426,0.20574 -0.54862,0.48005 -0.82289,0.68581 -1.57738,1.44016 -2.81185,3.22333 -3.63474,5.14345 l -0.20572,0.6172 c -1.02875,0.4115 -1.98884,0.96013 -2.81182,1.57735 -1.02863,0.89153 -1.85164,1.92022 -2.4003,3.15461 l -0.27426,0.6172 h 11.65847 l 0.27435,-0.0685 3.36045,-6.24079 c 0.0686,-0.20575 0.2743,-0.34289 0.48001,-0.34289 0.1372,0 0.27436,0.0686 0.34291,0.13715 l 0.89153,0.75437 c 0.1372,0.13717 0.34294,0.27432 0.48001,0.27432 0.1372,0 0.20572,-0.0685 0.27436,-0.0685 0.34291,-0.20574 0.68582,-0.41149 0.96008,-0.6858 l 0.34294,-0.41148 1.303,-1.50874 1.02872,-1.37161 3.70336,-6.2408 c 0.54865,-0.82296 1.02876,-1.50874 1.50874,-2.19455 0.4801,-0.68581 1.23447,-1.50873 2.126,-2.19454 l 1.92029,-1.44017 7.26936,-5.41772 c 0.27436,-0.3429 0.54862,-0.75437 0.61727,-1.23445 l 2.05736,-8.9153 0.41146,-1.57734 0.96017,-2.3317 1.02864,-1.78306 0.82301,-0.82297 c 1.09728,2.12599 2.53746,4.11483 4.11482,5.82941 0.96008,1.02869 1.85164,1.92023 2.74317,2.81175 1.09728,1.16585 2.05736,2.40031 2.81173,3.84056 1.50874,2.88035 2.60602,6.10367 3.22338,9.3267 0.34281,1.78307 0.61717,3.566 0.96008,5.3493 0.0686,0.6858 0.13719,1.50874 0.13719,2.3317 0,0.82297 -0.0685,1.6459 -0.20583,2.46888 -0.0685,0.54863 -0.27427,1.02868 -0.61718,1.44016 -0.34291,0.41149 -0.68581,0.89154 -0.96008,1.37161 -0.20571,0.34289 -0.27436,0.75437 -0.34291,1.23445 l -0.0686,1.30301 -1.30299,1.37161 -1.37154,1.23442 c -0.48011,0.68579 -0.75437,1.3716 -0.89154,2.12598 l -0.27439,1.57733 h 11.65857 l 1.09728,-1.85165 c 0.27435,-0.41149 0.3429,-0.89154 0.3429,-1.37161 0,-0.20574 0,-0.48005 -0.0685,-0.68581 -0.0686,-0.41149 -0.27426,-0.89153 -0.54862,-1.30301 -0.13719,-0.27432 -0.27439,-0.61721 -0.41146,-0.96013 -0.13719,-0.41148 -0.20575,-0.82295 -0.27436,-1.23441 0,-0.27432 0.0685,-0.54864 0.20572,-0.75437 0.20571,-0.27432 0.4801,-0.41149 0.75437,-0.48005 l 1.30308,-0.27432 c 0.20575,0 0.34281,-0.13716 0.48001,-0.27432 0.27436,-0.34289 0.41143,-0.75437 0.41143,-1.16585 0,-0.27431 -0.0685,-0.54865 -0.13707,-0.75437 -0.1372,-0.27431 -0.20571,-0.54865 -0.27436,-0.82296 -0.34291,-2.53747 -0.82292,-5.28059 -1.37154,-7.95539 l -0.41155,-2.26314 -0.75437,-5.62356 c -0.1372,-0.75437 -0.34291,-1.6459 -0.41146,-2.53747 -0.1372,-0.96013 -0.1372,-1.85165 0.0685,-2.74318 0.34281,-1.6459 0.61717,-3.36045 0.82289,-5.07503 0.20574,-1.57734 0.41155,-3.08619 0.61729,-4.59493 0.0685,-0.41148 0.0685,-0.82297 0.0685,-1.30302 v -1.09728 c -0.13716,-1.16586 -0.54871,-2.26314 -1.16589,-3.15461 -0.27426,-0.48005 -0.54865,-0.96013 -0.75437,-1.50874 l -0.75436,-2.19455 c -0.0686,-0.27431 -0.20572,-0.48004 -0.27427,-0.6858 -0.4801,-1.57733 -0.82301,-3.1546 -0.89153,-4.73206 z" inkscape:connector-curvature="0" style="stroke-width:0.294906" />
    </g>
</g>
</svg>
