<?xml version="1.0" encoding="utf-8"?>
<!-- Generator: Adobe Illustrator 16.0.0, SVG Export Plug-In . SVG Version: 6.00 Build 0)  -->
<!DOCTYPE svg PUBLIC "-//W3C//DTD SVG 1.1//EN" "http://www.w3.org/Graphics/SVG/1.1/DTD/svg11.dtd">
<svg version="1.1" id="Version_1.0" xmlns="http://www.w3.org/2000/svg" xmlns:xlink="http://www.w3.org/1999/xlink" x="0px" y="0px"
	 width="612px" height="792px" viewBox="0 0 612 792" enable-background="new 0 0 612 792" xml:space="preserve">
<g id="octagon" display="none">
	<g id="outFrame" display="inline">
		<line fill="none" stroke="#0000FF" stroke-width="2" x1="220" y1="309.5" x2="306" y2="273"/>
		<line fill="none" stroke="#0000FF" stroke-width="2" x1="306" y1="273" x2="390.5" y2="309.5"/>
		<line fill="none" stroke="#0000FF" stroke-width="2" x1="390.5" y1="309.5" x2="427" y2="396"/>
		<line fill="none" stroke="#0000FF" stroke-width="2" x1="427" y1="396" x2="390.5" y2="482.5"/>
		<line fill="none" stroke="#0000FF" stroke-width="2" x1="390.5" y1="482.5" x2="306" y2="516"/>
		<line fill="none" stroke="#0000FF" stroke-width="2" x1="306" y1="516" x2="220" y2="482.5"/>
		<line fill="none" stroke="#0000FF" stroke-width="2" x1="220" y1="482.5" x2="183" y2="396"/>
		<line fill="none" stroke="#0000FF" stroke-width="2" x1="183" y1="396" x2="220" y2="309.5"/>
	</g>
	
		<line id="mod2_1_" display="inline" fill="none" stroke="#0000FF" stroke-width="2" x1="203.966" y1="445.015" x2="406.199" y2="445.295"/>
	
		<line id="mod1_1_" display="inline" fill="none" stroke="#0000FF" stroke-width="2" x1="203.966" y1="346.985" x2="406.199" y2="346.705"/>
</g>
<g id="main">
	<g transform="translate(70,62)">
		<path id="_99217032" d="M 243.1 304.4 v 0.9 c 0 3.7 3.5 7.9 7 7.9 H 251 c 3.9 0 7.5 -3.1 7.5 -7 V 303 c 0 -2.4 -3.9 -5.1 -7 -5.1 H 251.1 C 247.3 297.8 243.1 301.4 243.1 304.4 z"/>
		<path id="_99122624" fill="#FFFFFF" d="M 259 331.9 c 0 3.5 -1.4 3.9 -1.4 6.1 v 1.5 l 11.2 -4.3 V 326.3 C 267.6 326 262.4 323.7 261.5 324.1 C 260.6 324.6 260.3 330 259 331.9 z"/>
		<path id="_230953504" fill="#FFFFFF" d="M 250.6 341.3 c 1 -1.4 0.9 -1.9 0.9 -4.2 L 250.6 341.3 z"/>
		<path id="_43470376" d="M 176.8 334.2 c 0 4.4 2.8 8.4 7.5 8.4 h 1.4 c 3.4 0 6.1 -3.8 6.1 -7.5 C 191.8 324.3 176.8 324.6 176.8 334.2 z"/>
		<path id="_100750160" fill="#FFFFFF" d="M 176.8 334.2 c 0 -9.7 14.9 -10 14.9 0.9 c 0 3.6 -2.7 7.5 -6.1 7.5 H 184.3 C 179.7 342.7 176.8 338.7 176.8 334.2 z M 250.6 341.3 L 251.5 337 l 2.8 -17.7 h 0.9 V 317.9 c 0 -2.1 6.4 -9.3 8 -10.4 l 28.5 3.9 c -1.3 2 -2.3 6 -3.6 8.5 C 287.3 321.3 287 322.6 286.4 324.3 C 285.7 326 284.7 326.3 283.9 327.9 l 15.5 -7.1 L 301.9 328 l -22.8 10 v 1.4 c 0 5.2 0.5 9.3 0.5 14 c 0 4.4 2.1 10.7 -3.3 10.7 c -5.2 0 -3.3 -5.4 -3.8 -9.8 C 272.1 350.9 271.6 345.6 271.6 341.6 L 238.5 356.2 v 24.7 h 7 v 16.8 h -21 V 380.9 H 232 V 360 L 196.9 375.8 c 2.7 2.3 21 12.2 21 14.5 v 0.9 c 0 1.8 -2.6 3.7 -4.7 3.7 H 211.9 c -3 0 -22.3 -12 -26.2 -14 l -15.4 7 L 167.1 381.5 l 10.2 -4.3 C 176.6 374.6 172.2 373.4 172.2 371.1 V 359.5 c 0 -1.1 5.7 -14 7 -14 h 10.7 c 2 0 17 16.8 18.2 16.8 c 3.8 0 36.4 -18.2 42.5 -18.7 V 341.3 z M 243.1 304.4 c 0 -3 4.2 -6.5 7.9 -6.5 h 0.5 c 3.1 0 7 2.7 7 5.1 v 3.3 c 0 3.9 -3.6 7 -7.5 7 H 250.1 c -3.5 0 -7 -4.3 -7 -7.9 V 304.4 z M 147.2 316.7 C 150.5 317 158.6 315.9 158.6 318.8 v 87.3 h 153.6 V 318.8 c 0 -3 8.2 -1.9 11.4 -2.2 L 235.2 262.3 L 147.2 316.7 L 147.2 316.7 z"/>
		<path id="_99216936" fill="#FFFFFF" d="M 188 364.1 c 0 1.5 1.9 4.3 2.5 6.3 l 12 -5.5 l 0.4 -0.3 L 188 353.9 V 364.1 z"/>
		<path id="_231407800" d="M 188 353.9 l 14.8 10.8 L 202.5 364.9 l -12 5.5 C 189.9 368.4 188 365.7 188 364.1 V 353.9 z M 259 331.9 C 260.3 330 260.6 324.6 261.5 324.1 C 262.4 323.7 267.6 326 268.8 326.3 v 8.9 L 257.7 339.5 V 338 C 257.6 335.8 259 335.4 259 331.9 z M 251.5 337 c 0 2.3 0.1 2.8 -0.9 4.2 v 2.3 C 244.5 344.1 212 362.3 208.1 362.3 c -1.3 0 -16.2 -16.8 -18.2 -16.8 H 179.2 c -1.3 0 -7 12.9 -7 14 v 11.7 c 0 2.2 4.5 3.5 5.1 6.1 L 167.1 381.5 l 3.2 6.4 l 15.4 -7 c 3.8 2 23.2 14 26.2 14 h 1.4 c 2.1 0 4.7 -1.9 4.7 -3.7 V 390.3 c 0 -2.3 -18.3 -12.1 -21 -14.5 L 232 360 v 20.9 H 224.5 v 16.8 h 21 V 380.9 h -7 V 356.2 l 33.1 -14.6 c 0 3.9 0.5 9.2 0.9 12.7 C 273 358.8 271 364.1 276.3 364.1 c 5.3 0 3.2 -6.3 3.3 -10.7 c 0 -4.7 -0.5 -8.8 -0.5 -14 V 338 l 22.8 -10 L 299.4 320.8 L 283.9 327.9 C 284.7 326.3 285.7 326 286.4 324.3 c 0.6 -1.7 0.9 -3 1.7 -4.4 c 1.3 -2.5 2.3 -6.5 3.6 -8.5 L 263.2 307.5 c -1.5 1.2 -8 8.3 -8 10.4 v 1.4 H 254.3 L 251.5 337 z"/>
		<path id="_231407992" d="M 235.2 262.3 l 88.5 54.3 C 320.4 317 312.2 315.9 312.2 318.8 v 87.3 H 158.6 V 318.8 c 0 -3 -8.2 -1.9 -11.4 -2.2 L 235.2 262.3 L 235.2 262.3 z M 135.7 318.4 c 0.5 2 0.7 3.2 3.3 3.2 h 15.4 V 408 c 0 1.3 0.2 1.3 0.5 2.3 H 315 c 1.1 0 1.9 -0.8 1.9 -1.9 V 321.6 h 14.9 c 1.9 0 3.3 -1 3.3 -2.8 c 0 -1.5 -44.6 -28 -49.5 -31.3 c -3.9 -2.6 -49.9 -30.8 -50 -30.8 C 235 256.7 143.8 313 135.7 318.4 L 135.7 318.4 z"/>
	</g>
</g>
</svg>
