<?xml version="1.0" encoding="UTF-8" standalone="no"?>
<!-- Generator: Adobe Illustrator 16.0.0, SVG Export Plug-In . SVG Version: 6.00 Build 0)  -->

<svg version="1.1" id="Version_1.0" x="0px" y="0px" width="612px" height="792px" viewBox="0 0 612 792" enable-background="new 0 0 612 792" xml:space="preserve" sodipodi:docname="20120800.svg" inkscape:version="1.1 (c68e22c387, 2021-05-23)" xmlns:inkscape="http://www.inkscape.org/namespaces/inkscape" xmlns:sodipodi="http://sodipodi.sourceforge.net/DTD/sodipodi-0.dtd" xmlns="http://www.w3.org/2000/svg" xmlns:svg="http://www.w3.org/2000/svg"><defs id="defs1079" /><sodipodi:namedview id="namedview1077" pagecolor="#ffffff" bordercolor="#666666" borderopacity="1.0" inkscape:pageshadow="2" inkscape:pageopacity="0.0" inkscape:pagecheckerboard="0" showgrid="false" inkscape:snap-nodes="false" inkscape:zoom="1.040404" inkscape:cx="259.03398" inkscape:cy="395.51942" inkscape:window-width="1920" inkscape:window-height="1009" inkscape:window-x="1912" inkscape:window-y="-8" inkscape:window-maximized="1" inkscape:current-layer="Version_1.0" />
<g id="octagon" display="none">
	<g id="outFrame" display="inline">
		<line fill="none" stroke="#0000FF" stroke-width="2" x1="220" y1="309.5" x2="306" y2="273" id="line1047" />
		<line fill="none" stroke="#0000FF" stroke-width="2" x1="306" y1="273" x2="390.5" y2="309.5" id="line1049" />
		<line fill="none" stroke="#0000FF" stroke-width="2" x1="390.5" y1="309.5" x2="427" y2="396" id="line1051" />
		<line fill="none" stroke="#0000FF" stroke-width="2" x1="427" y1="396" x2="390.5" y2="482.5" id="line1053" />
		<line fill="none" stroke="#0000FF" stroke-width="2" x1="390.5" y1="482.5" x2="306" y2="516" id="line1055" />
		<line fill="none" stroke="#0000FF" stroke-width="2" x1="306" y1="516" x2="220" y2="482.5" id="line1057" />
		<line fill="none" stroke="#0000FF" stroke-width="2" x1="220" y1="482.5" x2="183" y2="396" id="line1059" />
		<line fill="none" stroke="#0000FF" stroke-width="2" x1="183" y1="396" x2="220" y2="309.5" id="line1061" />
	</g>
	
		<line id="mod2_1_" display="inline" fill="none" stroke="#0000FF" stroke-width="2" x1="203.966" y1="445.015" x2="406.199" y2="445.295" />
	
		<line id="mod1_1_" display="inline" fill="none" stroke="#0000FF" stroke-width="2" x1="203.966" y1="346.985" x2="406.199" y2="346.705" />
</g>
<g id="main">
	<g id="g1073" transform="translate(49.019417,48.058252)">
		<path id="_88979200" fill="#ffffff" d="M 317.52,377.76 305.04,417.12 210.72,417 188.88,351.36 c 0,-5.76 -7.32,-20.64 -7.32,-23.28 v -1.68 c 2.4,-0.6 33,-23.76 37.92,-27.24 3.48,-2.52 37.8,-27.72 37.92,-27.72 1.68,0 69,50.04 76.68,55.44 z M 170.76,324.12 c 0,0 15.12,46.68 16.56,50.28 2.4,6 15.96,46.8 16.32,51.12 h 107.64 c 1.56,-6.96 5.76,-17.52 8.28,-25.08 2.88,-8.76 5.28,-17.04 8.4,-25.68 1.56,-4.2 16.8,-50.52 16.8,-50.64 0,-1.2 -38.88,-28.8 -43.2,-32.16 -4.32,-3.24 -42.72,-31.32 -44.16,-31.32 -0.24,0 -39.48,28.56 -43.44,31.44 -4.32,3.24 -43.2,30.84 -43.2,32.04 z" />
		<path id="_145458120" fill="#ffffff" d="m 208.08,334.92 2.16,9.24 0.72,-0.24 c 0,4.08 6.12,20.52 7.68,25.68 1.32,4.44 2.76,8.4 4.2,12.72 0.6,1.92 3.24,12 5.04,12 h 59.52 c 2.4,0 8.16,-21.48 9.36,-25.2 1.56,-4.68 8.16,-22.44 8.16,-26.4 1.32,-1.68 2.4,-3.84 2.4,-6.72 0,-2.04 -21.24,-16.2 -24.24,-18.24 -2.52,-1.68 -24.84,-18 -25.08,-18 -1.32,0 -22.08,15.6 -24.96,17.52 -3.36,2.4 -22.92,17.04 -24.96,17.64 z" />
		<path id="_41045776" d="m 208.08,334.92 c 2.04,-0.48 21.48,-15.24 24.96,-17.52 2.88,-2.04 23.64,-17.64 24.96,-17.64 0.12,0 22.44,16.32 25.08,18 3,2.04 24.24,16.2 24.24,18.24 0,2.88 -1.08,5.04 -2.28,6.84 0,3.96 -6.6,21.72 -8.16,26.4 -1.2,3.6 -7.08,25.2 -9.36,25.2 H 228 c -1.8,0 -4.44,-10.08 -5.04,-12 -1.44,-4.32 -3,-8.28 -4.32,-12.72 -1.56,-5.28 -7.68,-21.72 -7.68,-25.8 l -0.72,0.24 z m -7.92,-1.68 22.08,67.44 70.56,-0.12 21.84,-67.92 c -8.04,-4.32 -54.36,-40.8 -57.24,-40.8 -0.84,0 -51.48,37.56 -57.24,41.4 z" />
		<path id="_87773328" fill="#ffffff" d="m 200.16,333.24 c 5.76,-3.84 56.4,-41.4 57.24,-41.4 2.88,0 49.2,36.48 57.24,40.8 l -21.72,67.92 -70.68,0.12 z m -8.88,-3.24 2.16,8.52 8.52,24.24 c 0,3.84 5.64,18.96 7.2,23.4 0.96,3.24 6.36,21.84 8.64,21.84 l 81.36,-0.12 13.8,-43.56 c 1.08,-1.56 11.28,-31.56 11.28,-33.48 0,-2.4 -59.76,-42.96 -66.6,-49.08 z" />
		<path id="_38029144" d="m 257.76,281.88 c 6.84,6.12 66.6,46.68 66.6,49.08 0,1.92 -10.32,31.8 -11.28,33.48 L 299.16,407.88 217.8,408 c -2.16,0 -7.56,-18.6 -8.76,-21.84 -1.56,-4.56 -7.2,-19.56 -7.2,-23.4 l -8.4,-24.24 -2.16,-8.52 z m 76.32,45 c -7.68,-5.28 -75,-55.44 -76.68,-55.44 -0.24,0 -34.44,25.32 -37.92,27.72 -4.92,3.48 -35.64,26.64 -37.92,27.24 v 1.68 c 0,2.52 7.32,17.52 7.32,23.28 l 21.84,65.64 94.32,0.12 12.48,-39.24 z" />
		<path id="_83657320" d="m 170.76,324.12 c 0,-1.2 38.88,-28.8 43.32,-32.04 3.84,-2.88 43.2,-31.44 43.44,-31.44 1.44,0 39.72,28.08 44.04,31.32 4.32,3.24 43.2,30.96 43.2,32.16 0,0.12 -15.24,46.44 -16.8,50.64 -3.12,8.52 -5.52,16.92 -8.4,25.68 -2.52,7.56 -6.72,18.12 -8.28,25.08 H 203.64 c -0.36,-4.32 -13.92,-45.12 -16.32,-51.12 -1.44,-3.6 -16.56,-50.28 -16.56,-50.28 z m 20.88,96.24 5.04,15.24 122.52,0.12 21.12,-65.88 16.56,-51.36 -99.36,-71.64 -99.12,72.12 33.24,101.4 z" />
	</g>
</g>
</svg>
