<?xml version="1.0" encoding="utf-8"?>
<!-- Generator: Adobe Illustrator 16.0.0, SVG Export Plug-In . SVG Version: 6.00 Build 0)  -->
<!DOCTYPE svg PUBLIC "-//W3C//DTD SVG 1.1//EN" "http://www.w3.org/Graphics/SVG/1.1/DTD/svg11.dtd">
<svg version="1.1" id="Version_1.0" xmlns="http://www.w3.org/2000/svg" xmlns:xlink="http://www.w3.org/1999/xlink" x="0px" y="0px"
	 width="612px" height="792px" viewBox="0 0 612 792" enable-background="new 0 0 612 792" xml:space="preserve">
<g id="octagon" display="none">
	<g id="outFrame" display="inline">
		<line fill="none" stroke="#0000FF" stroke-width="2" x1="220" y1="309.5" x2="306" y2="273"/>
		<line fill="none" stroke="#0000FF" stroke-width="2" x1="306" y1="273" x2="390.5" y2="309.5"/>
		<line fill="none" stroke="#0000FF" stroke-width="2" x1="390.5" y1="309.5" x2="427" y2="396"/>
		<line fill="none" stroke="#0000FF" stroke-width="2" x1="427" y1="396" x2="390.5" y2="482.5"/>
		<line fill="none" stroke="#0000FF" stroke-width="2" x1="390.5" y1="482.5" x2="306" y2="516"/>
		<line fill="none" stroke="#0000FF" stroke-width="2" x1="306" y1="516" x2="220" y2="482.5"/>
		<line fill="none" stroke="#0000FF" stroke-width="2" x1="220" y1="482.5" x2="183" y2="396"/>
		<line fill="none" stroke="#0000FF" stroke-width="2" x1="183" y1="396" x2="220" y2="309.5"/>
	</g>
	
		<line id="mod2_1_" display="inline" fill="none" stroke="#0000FF" stroke-width="2" x1="203.966" y1="445.015" x2="406.199" y2="445.295"/>
	
		<line id="mod1_1_" display="inline" fill="none" stroke="#0000FF" stroke-width="2" x1="203.966" y1="346.985" x2="406.199" y2="346.705"/>
</g>
<g id="main">
	<g transform="translate(85,74)">
		<path id="_150321544" d="M 156.6 249.8 v 1.6 c 0 10.7 9.2 19.8 20.3 19.8 h 0.5 c 9.2 0 19.2 -9.1 19.2 -17.6 V 248.1 c 0 -7.9 -9.7 -17 -18.7 -17 H 174.8 C 166.2 231.1 156.6 241 156.6 249.8 z"/>
		<path id="_146307440" d="M 269.8 369.5 c 0 -15.7 5.7 -20.4 9.7 -31.5 c 2.4 -6.6 4 -8.2 4.6 -16.3 C 284.5 315.7 286.3 310 286.3 303.6 V 297 c 0 -6.4 -5.6 -22.2 -8.3 -26.3 c -3.3 -5 -12.1 -13.5 -16.8 -17.2 c -5.6 -4.4 -13.4 -11.6 -20.6 -14 C 236.7 238.3 216.1 233.4 212.1 233.8 L 197.8 235.2 v 2 c 0 1.9 5 6.7 6 8.2 c 0 8.3 2.1 17.1 -3.3 20.9 C 195 270.3 193.6 274.9 191.1 282 C 190.2 284.4 188.9 289.7 188.6 292.1 c -0.4 2.6 -0.5 10 -1.1 11.5 C 184.8 309.7 180.9 314.1 178.1 319.5 L 165.4 320.7 C 160.1 328.6 153.9 331 153.9 344.8 v 65.9 c 1.6 0.4 0.9 0.5 2.2 0.5 c 1.2 0 0.7 -0.2 2.2 -0.5 V 342 c 0 -1.8 2 -7.5 2.7 -8.8 c 0.9 0.6 2 1.6 3.3 1.6 c 0.7 0 2.7 -0.8 3.3 -1.1 L 174.1 336 l 2.1 -1.4 l 1.4 6.2 C 178.5 341.6 178.5 342 179.7 342 h 1.1 c 1.3 0 1.6 -0.4 1.6 -1.6 V 339.3 c 0 -2.4 -2.9 -7.5 -3.8 -9.3 c 3 -6.2 15.8 -6.6 20.5 -14.6 C 201.4 311.5 203.6 308 205.5 304.1 c 1.1 -2.2 5.8 -10.3 6 -11 h 11 c 5.8 0 5.3 6.3 6.5 10.5 C 230.5 308.5 234 308.7 234 315 c 0 7 -7.2 17.4 -10 22.4 C 223.2 339.2 214.3 359.3 214.3 359.6 v 4.9 c 0 7.5 6.6 22.8 6.6 28 V 398 c -2.9 0.7 -17 6.1 -17 8.8 c 0 0.7 1.1 1.6 2.2 1.6 h 17 c 5.8 0 11.2 -2.6 16.5 -2.7 V 398.1 c 0 -1.4 -2.7 -5.4 -2.7 -9.3 C 234.7 385.5 232.5 373.9 232.5 368.4 c 0 -7.9 3 -13.6 6.2 -18.6 c 6.3 -10 1 -5.8 11.4 -12.7 l 4.5 4.3 c -2.5 4.5 -5.7 9.2 -5.7 16 v 14.8 H 250 v 1.6 c 0 2.3 12.5 22.4 14.3 25.8 c -3.8 5.7 -16.8 4.1 -17 12.6 H 266 c 3 0 8.3 -2.5 11.3 -3.5 C 281.2 407.4 284.6 406 284.6 401.2 c 0 -1.7 -7.3 -11.6 -8.9 -14.2 C 274.9 385.9 269.8 372.1 269.8 370.6 V 369.5 z"/>
	</g>
</g>
</svg>
