<?xml version="1.0" encoding="UTF-8" standalone="no"?>
<!-- Generator: Adobe Illustrator 16.0.0, SVG Export Plug-In . SVG Version: 6.00 Build 0)  -->

<svg
   version="1.1"
   id="Version_1.0"
   x="0px"
   y="0px"
   width="612px"
   height="792px"
   viewBox="0 0 612 792"
   enable-background="new 0 0 612 792"
   xml:space="preserve"
   sodipodi:docname="20120104.svg"
   inkscape:version="1.1 (c68e22c387, 2021-05-23)"
   xmlns:inkscape="http://www.inkscape.org/namespaces/inkscape"
   xmlns:sodipodi="http://sodipodi.sourceforge.net/DTD/sodipodi-0.dtd"
   xmlns="http://www.w3.org/2000/svg"
   xmlns:svg="http://www.w3.org/2000/svg"><defs
   id="defs1781" /><sodipodi:namedview
   id="namedview1779"
   pagecolor="#ffffff"
   bordercolor="#666666"
   borderopacity="1.0"
   inkscape:pageshadow="2"
   inkscape:pageopacity="0.0"
   inkscape:pagecheckerboard="0"
   showgrid="false"
   inkscape:zoom="1.1010101"
   inkscape:cx="282.46789"
   inkscape:cy="395.54587"
   inkscape:window-width="1920"
   inkscape:window-height="1009"
   inkscape:window-x="1912"
   inkscape:window-y="-8"
   inkscape:window-maximized="1"
   inkscape:current-layer="Version_1.0" />
<g
   id="octagon"
   display="none">
	<g
   id="outFrame"
   display="inline">
		<line
   fill="none"
   stroke="#0000FF"
   stroke-width="2"
   x1="220"
   y1="309.5"
   x2="306"
   y2="273"
   id="line1751" />
		<line
   fill="none"
   stroke="#0000FF"
   stroke-width="2"
   x1="306"
   y1="273"
   x2="390.5"
   y2="309.5"
   id="line1753" />
		<line
   fill="none"
   stroke="#0000FF"
   stroke-width="2"
   x1="390.5"
   y1="309.5"
   x2="427"
   y2="396"
   id="line1755" />
		<line
   fill="none"
   stroke="#0000FF"
   stroke-width="2"
   x1="427"
   y1="396"
   x2="390.5"
   y2="482.5"
   id="line1757" />
		<line
   fill="none"
   stroke="#0000FF"
   stroke-width="2"
   x1="390.5"
   y1="482.5"
   x2="306"
   y2="516"
   id="line1759" />
		<line
   fill="none"
   stroke="#0000FF"
   stroke-width="2"
   x1="306"
   y1="516"
   x2="220"
   y2="482.5"
   id="line1761" />
		<line
   fill="none"
   stroke="#0000FF"
   stroke-width="2"
   x1="220"
   y1="482.5"
   x2="183"
   y2="396"
   id="line1763" />
		<line
   fill="none"
   stroke="#0000FF"
   stroke-width="2"
   x1="183"
   y1="396"
   x2="220"
   y2="309.5"
   id="line1765" />
	</g>
	
		<line
   id="mod2_1_"
   display="inline"
   fill="none"
   stroke="#0000FF"
   stroke-width="2"
   x1="203.966"
   y1="445.015"
   x2="406.199"
   y2="445.295" />
	
		<line
   id="mod1_1_"
   display="inline"
   fill="none"
   stroke="#0000FF"
   stroke-width="2"
   x1="203.966"
   y1="346.985"
   x2="406.199"
   y2="346.705" />
</g>
<g id="main" transform="translate(-6.7673917,1.3946299)">
	<g id="g1775" transform="translate(79.018349,67.211009)">
		<path id="_65323024" d="m 202.9,305.9 c 0,1.3 0.2,0.6 0.5,2.2 h 1.6 c 2.2,0 21.3,-15.9 25.2,-17 v -1.7 c 0,-1.3 -0.4,-1.6 -1.6,-1.6 h -1 c -1,-0.1 -24.7,17.1 -24.7,18.1 z" />
		<path id="_65787840" fill="#ffffff" d="m 152.5,346.5 c 0,3.5 -1.1,4.2 -1.1,7.7 0,13.5 10.2,24.1 23.6,24.1 h 1.6 c 11.9,0 21.9,-10.7 21.9,-23 v -2.8 c 0,-11.7 -10.8,-21.9 -22.5,-21.9 h -1.6 c -5.6,0 -10.7,2.3 -13.8,4.8 -5.4,4.2 -4.8,6.1 -8.1,11.1 z" />
		<path id="_95571104" d="m 282.5,373.3 v -0.5 c 0,-5.1 3.7,-9.3 8.8,-9.3 h 1.1 c 5.6,0 9.3,4.1 9.3,9.9 v 1.6 c 0,3 -5.2,7.1 -9.3,7.1 h -1.1 c -4.8,0 -8.8,-4 -8.8,-8.8 z m -130,-26.8 c 3.3,-4.9 2.7,-6.8 8.1,-11.1 3.2,-2.5 8.3,-4.8 13.8,-4.8 h 1.6 c 11.7,0 22.5,10.2 22.5,21.9 v 2.7 c 0,12.4 -10,23 -21.9,23 H 175 c -13.4,0 -23.6,-10.6 -23.6,-24.1 0,-3.5 1.1,-4.1 1.1,-7.6 z M 172.2,296 c -2.1,0 -3.8,-11.1 -4.4,-13.2 -0.6,-2.5 -3.3,-11.5 -3.3,-13.7 h 60.3 c 1.3,0 3.3,-2 3.3,-3.3 v -5.5 c 0,-1.8 -2,-2.7 -3.8,-2.7 h -79.5 c -1.8,0 -3.8,1 -3.8,2.7 v 5.5 c 0,1.3 2,3.3 3.3,3.3 h 8.7 l 6.6,40 -17,6.2 7.1,8.6 c -2.5,3.3 -5.7,5.3 -9,10.4 -1.1,2 -4.7,11 -4.7,13.8 v 5.5 c 0,13.4 4.1,21.9 10.8,28.7 5.8,5.8 16.2,11.9 27.6,11.9 h 1.1 c 22,0 39.5,-18.4 39.5,-40 h 33.5 c 1.4,0 4.8,3.6 6,4.4 h 21.4 c -2.8,4.1 -5.5,7.2 -5.5,14.2 0,11.6 9.7,21.4 21.4,21.4 10.9,0 21.9,-9.6 21.9,-19.7 v -5 c 0,-3.1 -3.7,-8.6 -4.9,-11 h 18.1 l 2.6,-11.5 h -17.9 v -1.6 l 3,-20.3 -0.3,-8.3 c 0,-1.6 -4.3,-5.2 -5.5,-6 l -40,-1.3 v -38.2 c 0,-1.3 -0.9,-2.2 -2.2,-2.2 -1.3,0 -2.2,0.9 -2.2,2.2 v 38.4 c -5.4,-0.5 -14.9,-1.1 -20.3,-1.1 -3.3,0 -7.3,0.2 -10.4,0 -5.3,-0.3 -5.1,-3.3 -7.2,-3.3 H 215 l 5,30.7 h -9.4 v -13.7 c 0,-1.9 -10.2,-10.4 -12.6,-10.4 h -18.6 v -11.5 l -2.9,-4.3 z" />
		<path id="_95599384" fill="#ffffff" d="m 282.5,373.3 c 0,4.8 4,8.8 8.8,8.8 h 1.1 c 4.1,0 9.3,-4.1 9.3,-7.1 v -1.7 c 0,-5.8 -3.7,-9.9 -9.3,-9.9 h -1.1 c -5.1,0 -8.8,4.3 -8.8,9.3 z" />
	</g>
</g>
</svg>
