<?xml version="1.0" encoding="UTF-8" standalone="no"?>
<!-- Generator: Adobe Illustrator 16.0.0, SVG Export Plug-In . SVG Version: 6.00 Build 0)  -->
<svg version="1.1" id="Version_1.0" x="0px" y="0px" width="612px" height="792px" viewBox="0 0 612 792" enable-background="new 0 0 612 792" xml:space="preserve" sodipodi:docname="20120304.svg" inkscape:version="1.1 (c68e22c387, 2021-05-23)" xmlns:inkscape="http://www.inkscape.org/namespaces/inkscape" xmlns:sodipodi="http://sodipodi.sourceforge.net/DTD/sodipodi-0.dtd" xmlns="http://www.w3.org/2000/svg" xmlns:svg="http://www.w3.org/2000/svg"><defs id="defs1161" /><sodipodi:namedview id="namedview1159" pagecolor="#ffffff" bordercolor="#666666" borderopacity="1.0" inkscape:pageshadow="2" inkscape:pageopacity="0.0" inkscape:pagecheckerboard="0" showgrid="false" inkscape:zoom="1.1010101" inkscape:cx="261.12385" inkscape:cy="395.54587" inkscape:window-width="1920" inkscape:window-height="1009" inkscape:window-x="-8" inkscape:window-y="-8" inkscape:window-maximized="1" inkscape:current-layer="Version_1.0" />
<g id="octagon" display="none">
	<g id="outFrame" display="inline">
		<line fill="none" stroke="#0000FF" stroke-width="2" x1="220" y1="309.5" x2="306" y2="273" id="line1127" />
		<line fill="none" stroke="#0000FF" stroke-width="2" x1="306" y1="273" x2="390.5" y2="309.5" id="line1129" />
		<line fill="none" stroke="#0000FF" stroke-width="2" x1="390.5" y1="309.5" x2="427" y2="396" id="line1131" />
		<line fill="none" stroke="#0000FF" stroke-width="2" x1="427" y1="396" x2="390.5" y2="482.5" id="line1133" />
		<line fill="none" stroke="#0000FF" stroke-width="2" x1="390.5" y1="482.5" x2="306" y2="516" id="line1135" />
		<line fill="none" stroke="#0000FF" stroke-width="2" x1="306" y1="516" x2="220" y2="482.5" id="line1137" />
		<line fill="none" stroke="#0000FF" stroke-width="2" x1="220" y1="482.5" x2="183" y2="396" id="line1139" />
		<line fill="none" stroke="#0000FF" stroke-width="2" x1="183" y1="396" x2="220" y2="309.5" id="line1141" />
	</g>
	
		<line id="mod2_1_" display="inline" fill="none" stroke="#0000FF" stroke-width="2" x1="203.966" y1="445.015" x2="406.199" y2="445.295" />
	
		<line id="mod1_1_" display="inline" fill="none" stroke="#0000FF" stroke-width="2" x1="203.966" y1="346.985" x2="406.199" y2="346.705" />
</g>
<g id="main">
	<g transform="translate(72,73)" id="g1155">
		<path id="_65376456" fill="#FFFFFF" d="M 233.3 391.5 L 182.2 341.7 l 51.1 -49.9 l 51.3 50.1 L 233.3 391.5 z M 246.2 289.6 H 149.3 v 103.6 h 168.4 V 289.6 H 298.9 V 252.1 H 286.4 v 37.5 H 258.7 V 252.1 H 246.2 V 289.6 z" />
		<path id="_65846384" fill="#FFFFFF" d="M 196.7 330.3 V 341 h 8.9 V 321.3 C 204.4 322.1 196.7 329.2 196.7 330.3 z" />
		<polygon id="_65247944" fill="#FFFFFF" points="216.6,310.5 216.3,341.0 227.0,341.0 226.9,300.2   " />
		<path id="_64268320" fill="#FFFFFF" d="M 239.5 341 h 10.7 v -30 c 0 -1.1 -9.4 -9.8 -10.7 -10.7 V 341 z" />
		<path id="_64249792" fill="#FFFFFF" d="M 261 341 h 8.9 V 331.1 c 0 -1.7 -0.1 -0.2 0.4 -1.3 L 261 321.3 V 341 z" />
		<polygon id="_94571432" fill="#FFFFFF" points="233.2,388.9 281.5,342.3 185.0,342.3   " />
		<path id="_94539784" d="M 185 342.3 h 96.5 L 233.2 388.9 L 185 342.3 z M 239.5 300.3 C 240.8 301.2 250.3 309.9 250.3 311 v 30 H 239.5 V 300.3 z M 226.9 300.2 L 227 341 H 216.3 l 0.3 -30.5 L 226.9 300.2 L 226.9 300.2 z M 196.7 330.3 c 0 -1.1 7.8 -8.1 8.9 -8.9 V 341 H 196.7 V 330.3 z M 261 321.3 l 9.3 8.6 C 269.8 331 269.9 329.4 269.9 331.1 V 341 H 261 V 321.3 z M 284.6 341.8 l -51.3 -50 L 182.2 341.7 l 51.1 49.8 L 284.6 341.8 z" />
		<path id="_65451144" d="M 246.2 252.1 h 12.5 v 37.5 h 27.7 V 252.1 h 12.5 v 37.5 h 18.8 v 103.6 H 149.3 V 289.6 h 96.9 V 252.1 z M 146.2 396.8 h 174.6 V 286.5 H 303 v -38 H 282.9 v 38 H 262.8 v -38 H 242.7 v 38 H 146.2 V 396.8 L 146.2 396.8 z" />
	</g>
</g>
</svg>
