<?xml version="1.0" encoding="UTF-8" standalone="no"?>
<!-- Generator: Adobe Illustrator 16.0.0, SVG Export Plug-In . SVG Version: 6.00 Build 0)  -->

<svg version="1.1" id="Version_1.0" x="0px" y="0px" width="612px" height="792px" viewBox="0 0 612 792" enable-background="new 0 0 612 792" xml:space="preserve" sodipodi:docname="20120309.svg" inkscape:version="1.1 (c68e22c387, 2021-05-23)" xmlns:inkscape="http://www.inkscape.org/namespaces/inkscape" xmlns:sodipodi="http://sodipodi.sourceforge.net/DTD/sodipodi-0.dtd" xmlns="http://www.w3.org/2000/svg" xmlns:svg="http://www.w3.org/2000/svg"><defs id="defs926" /><sodipodi:namedview id="namedview924" pagecolor="#ffffff" bordercolor="#666666" borderopacity="1.0" inkscape:pageshadow="2" inkscape:pageopacity="0.0" inkscape:pagecheckerboard="0" showgrid="false" inkscape:zoom="1.4302842" inkscape:cx="266.03105" inkscape:cy="383.49023" inkscape:window-width="1920" inkscape:window-height="1009" inkscape:window-x="1912" inkscape:window-y="-8" inkscape:window-maximized="1" inkscape:current-layer="main" />
<g id="octagon" display="none">
	<g id="outFrame" display="inline">
		<line fill="none" stroke="#0000FF" stroke-width="2" x1="220" y1="309.5" x2="306" y2="273" id="line876" />
		<line fill="none" stroke="#0000FF" stroke-width="2" x1="306" y1="273" x2="390.5" y2="309.5" id="line878" />
		<line fill="none" stroke="#0000FF" stroke-width="2" x1="390.5" y1="309.5" x2="427" y2="396" id="line880" />
		<line fill="none" stroke="#0000FF" stroke-width="2" x1="427" y1="396" x2="390.5" y2="482.5" id="line882" />
		<line fill="none" stroke="#0000FF" stroke-width="2" x1="390.5" y1="482.5" x2="306" y2="516" id="line884" />
		<line fill="none" stroke="#0000FF" stroke-width="2" x1="306" y1="516" x2="220" y2="482.5" id="line886" />
		<line fill="none" stroke="#0000FF" stroke-width="2" x1="220" y1="482.5" x2="183" y2="396" id="line888" />
		<line fill="none" stroke="#0000FF" stroke-width="2" x1="183" y1="396" x2="220" y2="309.5" id="line890" />
	</g>
	
		<line id="mod2_1_" display="inline" fill="none" stroke="#0000FF" stroke-width="2" x1="203.966" y1="445.015" x2="406.199" y2="445.295" />
	
		<line id="mod1_1_" display="inline" fill="none" stroke="#0000FF" stroke-width="2" x1="203.966" y1="346.985" x2="406.199" y2="346.705" />
</g>
<g id="main">
	<g transform="scale(1.2) translate(47.5 30)" id="g906">
		<path fill="#FFFFFF" stroke="#000000" stroke-width="3" d="M164.624,311.551c-3.399,0.851-25.261-2.08-26.508,0    c-2.935,4.892,16.201,9.47,15.684,15.149c-0.517,5.684-27.992,2.906-28.462,5.962c-0.799,5.191,25.847,4.111,27.897,13.411    c2.492,11.305,26.379-0.03,28.598,0.636c9.194,2.76,8.526,12.399,18.673,15.168c10.848,2.959,22.78-9.124,35.387-8.103    c2.677,0.218,24.106,5.394,25.63,0.751C272.803,344.75,241.841,336.92,238,331.6c-3.938-5.452,22.993,0.71,23.806-0.419    c0.295-0.409-4.103-5.211-12.818-7.014" id="path896" />
		<path display="none" fill="#FFFFFF" stroke="#000000" stroke-width="3" stroke-miterlimit="10" d="M164.5,312.2l-6.9,0.9l-13-0.6    h-6.1c-1,0-1.6,0.2-2.2,0.6c0.9,3.3,17.5,9,17.5,13.6c0,4.8-27.5,2.2-27.5,6.7v0.6c0,5.1,11.7,4.8,16.6,5.7    c3.5,0.601,5.9,1,8.3,2.8c2.7,2.1,1.7,6.8,4.6,6.8c5.9,0,11.3-3.6,17.5-3.6h2.7c14.1,0,16.4,15.2,25.6,16.4    c11.9,1.501,20.7-9.999,31.7-9.999c3.8,0,9.7,3.9,15.1,4.7c4.7,0.5,14.6-0.4,14.6-4.9c0-7.4-25-13.6-25-20.3v-0.2    c0-1.8,1.8-2.799,3.6-2.799h0.6c2.9,0,8.201,0.7,9.701-1.401c-0.7-0.9-5.2-3.599-6.7-3.599l-42.2,0.1l-14.8-0.2l-17.2,0.4    c-2.1-1.5-5.532-8.651-5.532-8.651L164.5,312.2z" id="path898" />
		<polyline fill="#FFFFFF" stroke="#000000" stroke-width="3" points="276.833,324.167 171.833,324.167 171.833,246.167     276.833,246.167   " id="polyline900" />
		<ellipse fill="#FFFFFF" stroke="#000000" stroke-width="3" cx="171.833" cy="285.167" rx="10" ry="39" id="ellipse902" />
		<path fill="#FFFFFF" stroke="#000000" stroke-width="3" d="M276.833,246.167c5.523,0,10,17.794,10,39.333    c0,21.539-4.477,38.666-10,38.666" id="path904" />
	</g>
	<g id="g920" transform="translate(126.54828,72.013661)">
		<path fill="#ffffff" d="m 180.03,296.65 v 9.095 h 7.565 V 289 c -0.935,0.68 -7.565,6.715 -7.565,7.65 z" id="path908" />
		<polygon fill="#ffffff" points="205.87,305.745 205.785,271.065 197.03,279.82 196.775,305.745 " id="polygon910" />
		<path fill="#ffffff" d="m 216.495,305.745 h 9.095 V 280.33 c 0,-0.935 -7.99,-8.33 -9.095,-9.095 z" id="path912" />
		<path fill="#ffffff" d="m 234.685,305.745 h 7.565 v -8.33 c 0,-1.445 -0.085,-0.17 0.34,-1.105 L 234.685,289 Z" id="path914" />
		<polygon fill="#ffffff" points="170.17,306.85 211.055,346.46 252.195,306.85 " id="polygon916" />
		<path d="m 170.17,306.85 h 82.025 l -41.14,39.61 z m 46.325,-35.7 c 1.105,0.765 9.095,8.245 9.095,9.18 v 25.415 h -9.095 z m -10.71,-0.085 0.085,34.595 h -9.095 l 0.255,-25.925 z M 180.03,296.65 c 0,-0.935 6.63,-6.885 7.565,-7.565 v 16.745 h -7.565 z m 54.655,-7.65 7.905,7.31 c -0.425,0.935 -0.255,-0.425 -0.255,1.105 v 8.33 h -7.65 z m 20.145,17.425 -43.605,-42.5 -43.435,42.415 43.435,42.33 z" id="path918" />
	</g>
</g>
</svg>
