<?xml version="1.0" encoding="utf-8"?>
<!-- Generator: Adobe Illustrator 16.0.0, SVG Export Plug-In . SVG Version: 6.00 Build 0)  -->
<!DOCTYPE svg PUBLIC "-//W3C//DTD SVG 1.1//EN" "http://www.w3.org/Graphics/SVG/1.1/DTD/svg11.dtd">
<svg version="1.1" id="Version_1.0" xmlns="http://www.w3.org/2000/svg" xmlns:xlink="http://www.w3.org/1999/xlink" x="0px" y="0px"
	 width="612px" height="792px" viewBox="0 0 612 792" enable-background="new 0 0 612 792" xml:space="preserve">
<g id="octagon" display="none">
	<g id="outFrame" display="inline">
		<line fill="none" stroke="#0000FF" stroke-width="2" x1="220" y1="309.5" x2="306" y2="273"/>
		<line fill="none" stroke="#0000FF" stroke-width="2" x1="306" y1="273" x2="390.5" y2="309.5"/>
		<line fill="none" stroke="#0000FF" stroke-width="2" x1="390.5" y1="309.5" x2="427" y2="396"/>
		<line fill="none" stroke="#0000FF" stroke-width="2" x1="427" y1="396" x2="390.5" y2="482.5"/>
		<line fill="none" stroke="#0000FF" stroke-width="2" x1="390.5" y1="482.5" x2="306" y2="516"/>
		<line fill="none" stroke="#0000FF" stroke-width="2" x1="306" y1="516" x2="220" y2="482.5"/>
		<line fill="none" stroke="#0000FF" stroke-width="2" x1="220" y1="482.5" x2="183" y2="396"/>
		<line fill="none" stroke="#0000FF" stroke-width="2" x1="183" y1="396" x2="220" y2="309.5"/>
	</g>
	
		<line id="mod2_1_" display="inline" fill="none" stroke="#0000FF" stroke-width="2" x1="203.966" y1="445.015" x2="406.199" y2="445.295"/>
	
		<line id="mod1_1_" display="inline" fill="none" stroke="#0000FF" stroke-width="2" x1="203.966" y1="346.985" x2="406.199" y2="346.705"/>
</g>
<g id="main">
	<g transform="translate(65,64)">
		<path id="_98251192" fill="#1F1A17" d="M 229.2 334.2 L 224.3 327.1 L 218.5 327.2 L 229.2 334.2 z M 155.5 378.6 c 0 -1.3 2.1 -2.3 3.5 -2.3 h 78.8 c 2.1 0 3.3 1.5 3.5 3.5 C 239.8 380.1 238.8 380.6 237 380.6 H 160.1 c -1.6 0 -4.6 0 -4.6 -1.5 V 378.6 z M 178.9 353.2 l 37.7 0.1 L 237 353.7 c 1.2 2.2 4.9 7.6 4.6 10.7 L 241.1 370.9 C 239.9 371.3 239.9 371.7 238.5 371.7 H 157.8 c -1.4 0 -1.3 -0.5 -2.7 -0.8 C 154.9 369.1 154.3 368.5 154.3 366.3 V 364.8 c 0 -2.7 3.8 -8.7 5 -11.1 L 178.9 353.2 z M 164.3 348.3 C 164.5 345.5 173 330.6 175.1 330.6 h 46.1 c 2.5 0 9.9 14.5 10.8 17.7 H 164.3 z M 218.5 327.2 l 5.8 -0.1 l 4.9 7.1 L 218.5 327.2 z M 329.2 396.7 V 266 C 326.8 266.6 303.5 281 299.4 283.4 c -3.3 2 -29 16.3 -29 17.9 c 0 0 3.2 5.3 3.5 5.8 l 12.3 -7 v 48.1 L 285.3 349 C 278.1 344.1 201.8 294.1 201.2 294.1 c -0.3 0 -9.7 14 -10 15.4 l 27 17.5 L 172.4 327.1 C 170.1 330.6 167.7 333 165.5 336.7 c -0.5 0.8 -5 11.1 -5 11.5 v 1.9 H 157.4 C 157.2 352.3 150.9 361.7 150.9 363.6 v 1.9 c 0 3.7 1 7.2 3.5 8.5 C 153.8 374.8 152 376.7 152 377.9 v 2.3 c 0 2.8 3.8 3.8 6.5 3.8 v 5.8 l 0.4 5 c 1.3 0.5 0.8 1.2 3 1.5 c 1.6 0.2 2.4 0.4 4.2 0.4 h 2.7 L 173 396.3 l 0.7 -0.8 l 0.5 -4.9 l 0.1 -6.2 H 222 v 7.7 c 0 2.1 0.8 2.9 1.5 4.2 L 227 396.8 l 3.1 -0.1 c 4.2 0 7.7 -0.3 7.7 -4.6 V 384.4 c 2.1 -0.5 6.5 -1.2 6.5 -3.5 V 376.7 c 0 -1.3 -1.2 -1.7 -2.3 -1.9 c 0.3 -1.3 3 -2.7 3 -6.2 v -5 c 0 -3.7 -5.3 -10.3 -6.2 -13.5 h -3 V 349 c 0 -2.8 -5.4 -11.9 -6.2 -14.6 l 47.5 31.2 C 276.1 369.5 272 375.5 272 378.6 v 18.1 H 329.2 L 329.2 396.7 z"/>
		<path id="_99217032" fill="#FFFFFF" d="M 164.3 348.3 H 232 C 231.1 345.1 223.7 330.6 221.2 330.6 H 175.1 C 173 330.6 164.5 345.5 164.3 348.3 z"/>
		<path id="_230953256" d="M 229.7 367.9 H 229.3 c -2.7 0 -4.6 -1.7 -4.6 -4.2 V 362.5 c 0 -2.5 1.4 -4.6 3.8 -4.6 h 1.2 c 2.4 0 3.8 2.7 3.8 5 C 233.5 365.6 232.3 367.9 229.7 367.9 z M 222 361.7 v 2.7 c 0 2.6 3.9 6.2 7.3 6.2 c 3.6 0 6.5 -3.3 6.5 -6.9 v -2 c 0 -2.9 -3.2 -6.5 -6.2 -6.5 H 229.3 C 225.8 355.2 222 358.6 222 361.7 z"/>
		<path id="_42189704" fill="#FFFFFF" d="M 162.8 362.1 v 2.3 c 0 1.5 2.4 3.5 4.2 3.5 h 0.4 c 1.6 0 3.8 -1.9 3.8 -3.1 V 361.7 c 0 -1.9 -1.9 -3.8 -3.8 -3.8 H 166.2 C 164.8 357.9 162.8 360.4 162.8 362.1 z"/>
		<path id="_43365128" fill="#FFFFFF" d="M 229.7 367.9 c 2.7 0 3.8 -2.3 3.8 -5 c 0 -2.3 -1.4 -5 -3.8 -5 H 228.5 c -2.4 0 -3.8 2.1 -3.8 4.6 v 1.2 c 0 2.5 1.9 4.2 4.6 4.2 H 229.7 L 229.7 367.9 z"/>
		<path id="_230929656" d="M 162.8 362.1 c 0 -1.7 2 -4.2 3.5 -4.2 h 1.2 c 1.9 0 3.8 1.9 3.8 3.8 v 3.1 c 0 1.2 -2.3 3.1 -3.8 3.1 H 167 c -1.9 0 -4.2 -1.9 -4.2 -3.5 V 362.1 L 162.8 362.1 z M 160.1 363.3 V 364 c 0 3.1 3.8 6.5 7.3 6.5 c 3.3 0 6.9 -3.8 6.9 -6.2 V 361.7 c 0 -2.9 -3.6 -6.5 -6.9 -6.5 C 163.2 355.2 160.1 359.2 160.1 363.3 z"/>
		<path id="_42155152" fill="#FFFFFF" d="M 222 361.7 c 0 -3.1 3.8 -6.5 7.3 -6.5 h 0.4 c 3 0 6.2 3.6 6.2 6.5 v 1.9 c 0 3.6 -2.9 6.9 -6.5 6.9 c -3.4 0 -7.3 -3.6 -7.3 -6.2 V 361.7 H 222 z M 160.1 363.3 c 0 -4 3.1 -8.1 7.3 -8.1 c 3.3 0 6.9 3.7 6.9 6.5 v 2.7 c 0 2.3 -3.6 6.2 -6.9 6.2 c -3.5 0 -7.3 -3.4 -7.3 -6.5 V 363.3 z M 159.3 353.7 c -1.2 2.4 -5 8.4 -5 11.1 v 1.5 c 0 2.2 0.6 2.7 0.8 4.6 c 1.3 0.3 1.3 0.8 2.7 0.8 h 80.7 c 1.4 0 1.3 -0.5 2.6 -0.8 l 0.5 -6.5 C 241.8 361.3 238.2 355.9 237 353.7 L 216.6 353.3 L 178.9 353.2 L 159.3 353.7 z"/>
		<path id="_238692352" fill="#FFFFFF" d="M 155.5 378.6 V 379 c 0 1.5 3 1.5 4.6 1.5 H 237 c 1.8 0 2.8 -0.4 4.2 -0.8 C 241 377.8 239.8 376.3 237.7 376.3 H 158.9 C 157.6 376.3 155.5 377.3 155.5 378.6 z"/>
		<rect id="_40876200" x="295.2" y="312.5" fill="#FFFFFF" stroke="#1F1A17" stroke-width="0.3" width="027.1" height="040.3"/>
		<ellipse id="_100514776" fill="#FFFFFF" stroke="#1F1A17" stroke-width="0.3" cx="201.7" cy="305.9" rx="4.5" ry="4.0"/>
		<ellipse id="_42175408" fill="#FFFFFF" stroke="#1F1A17" stroke-width="0.3" cx="216.2" cy="315.2" rx="4.5" ry="4.0"/>
		<ellipse id="_41153192" fill="#FFFFFF" stroke="#1F1A17" stroke-width="0.3" cx="257.8" cy="342.6" rx="4.5" ry="4.0"/>
		<ellipse id="_100723592" fill="#FFFFFF" stroke="#1F1A17" stroke-width="0.3" cx="229.8" cy="324.1" rx="4.5" ry="4.0"/>
		<ellipse id="_100505816" fill="#FFFFFF" stroke="#1F1A17" stroke-width="0.3" cx="243.6" cy="333.3" rx="4.5" ry="4.0"/>
		<ellipse id="_42439480" fill="#FFFFFF" stroke="#1F1A17" stroke-width="0.3" cx="271.7" cy="351.2" rx="4.5" ry="4.0"/>
	</g>
</g>
</svg>
