<?xml version="1.0" encoding="UTF-8" standalone="no"?>
<!-- Generator: Adobe Illustrator 16.0.0, SVG Export Plug-In . SVG Version: 6.00 Build 0)  -->

<svg
   version="1.1"
   id="Version_1.0"
   x="0px"
   y="0px"
   width="612px"
   height="792px"
   viewBox="0 0 612 792"
   enable-background="new 0 0 612 792"
   xml:space="preserve"
   sodipodi:docname="20120108.svg"
   inkscape:version="1.1 (c68e22c387, 2021-05-23)"
   xmlns:inkscape="http://www.inkscape.org/namespaces/inkscape"
   xmlns:sodipodi="http://sodipodi.sourceforge.net/DTD/sodipodi-0.dtd"
   xmlns="http://www.w3.org/2000/svg"
   xmlns:svg="http://www.w3.org/2000/svg"><defs
   id="defs1916" /><sodipodi:namedview
   id="namedview1914"
   pagecolor="#ffffff"
   bordercolor="#666666"
   borderopacity="1.0"
   inkscape:pageshadow="2"
   inkscape:pageopacity="0.0"
   inkscape:pagecheckerboard="0"
   showgrid="false"
   inkscape:zoom="1.1010101"
   inkscape:cx="282.46789"
   inkscape:cy="395.54587"
   inkscape:window-width="1920"
   inkscape:window-height="1009"
   inkscape:window-x="1912"
   inkscape:window-y="-8"
   inkscape:window-maximized="1"
   inkscape:current-layer="Version_1.0" />
<g
   id="octagon"
   display="none">
	<g
   id="outFrame"
   display="inline">
		<line
   fill="none"
   stroke="#0000FF"
   stroke-width="2"
   x1="220"
   y1="309.5"
   x2="306"
   y2="273"
   id="line1879" />
		<line
   fill="none"
   stroke="#0000FF"
   stroke-width="2"
   x1="306"
   y1="273"
   x2="390.5"
   y2="309.5"
   id="line1881" />
		<line
   fill="none"
   stroke="#0000FF"
   stroke-width="2"
   x1="390.5"
   y1="309.5"
   x2="427"
   y2="396"
   id="line1883" />
		<line
   fill="none"
   stroke="#0000FF"
   stroke-width="2"
   x1="427"
   y1="396"
   x2="390.5"
   y2="482.5"
   id="line1885" />
		<line
   fill="none"
   stroke="#0000FF"
   stroke-width="2"
   x1="390.5"
   y1="482.5"
   x2="306"
   y2="516"
   id="line1887" />
		<line
   fill="none"
   stroke="#0000FF"
   stroke-width="2"
   x1="306"
   y1="516"
   x2="220"
   y2="482.5"
   id="line1889" />
		<line
   fill="none"
   stroke="#0000FF"
   stroke-width="2"
   x1="220"
   y1="482.5"
   x2="183"
   y2="396"
   id="line1891" />
		<line
   fill="none"
   stroke="#0000FF"
   stroke-width="2"
   x1="183"
   y1="396"
   x2="220"
   y2="309.5"
   id="line1893" />
	</g>
	
		<line
   id="mod2_1_"
   display="inline"
   fill="none"
   stroke="#0000FF"
   stroke-width="2"
   x1="203.966"
   y1="445.015"
   x2="406.199"
   y2="445.295" />
	
		<line
   id="mod1_1_"
   display="inline"
   fill="none"
   stroke="#0000FF"
   stroke-width="2"
   x1="203.966"
   y1="346.985"
   x2="406.199"
   y2="346.705" />
</g>
<g id="main" transform="translate(-3.751002)">
	<g id="g1908" transform="translate(99,133.51376)">
		<path id="_94682064" fill="#ffffff" d="m 160.56,220.64 v 3.44 c 0,3.28 6,13.2 8.4,13.84 0,-3.2 0.96,-3.76 0.96,-6.96 v -10.4 c 0,-1.52 -2.08,-5.44 -3.44,-5.44 h -1.52 c -1.92,0.08 -4.4,3.2 -4.4,5.52 z" />
		<path id="_65712424" fill="#ffffff" d="m 239.84,227.6 v 8.88 c 3.36,-1.2 10.88,-13.28 10.88,-18.24 0,-1.68 -0.88,-3.44 -2.48,-3.44 h -1.52 c -7.04,-0.08 -6.88,5.92 -6.88,12.8 z" />
		<path id="_95425992" d="m 172.96,238.48 c 1.28,4.72 22.16,7.92 29.76,7.92 h 2.48 c 7.76,0 31.28,-3.44 31.68,-8.88 -10.16,-2.4 -16.32,-4.48 -29.76,-4.48 h -3.44 c -6,0 -10.96,0.88 -16.32,1.52 -7.2,0.88 -9.44,2.64 -14.4,3.92 z" />
		<path id="_94470944" fill="#ffffff" d="m 144.16,240.96 v 2 c 0,2 3.6,4.96 5.92,4.96 h 0.96 c 4.88,0 14.56,-4.72 16.32,-7.44 -4.88,-1.12 -6.4,-1.52 -12.4,-2 -9.6,-0.64 -5.36,1.04 -10.8,2.48 z" />
		<path id="_64876472" fill="#ffffff" d="m 242.24,238.8 c 1.84,2.96 12.88,9.68 17.36,9.68 h 1.52 c 1.52,0 2.96,-0.48 2.96,-2 v -1.52 c 0,-5.52 -6.4,-8.24 -11.92,-7.68 z" />
		<path id="_64182128" fill="#ffffff" d="m 218.48,288.56 2.88,-2.96 0.64,2.96 1.68,4.64 3.76,-5.12 c -0.32,-0.64 -1.04,-1.68 -1.04,-2.48 0,-1.2 1.52,-1.92 1.52,-5.44 h 0.4 l 0.96,5.68 8.48,-14.32 -0.4,-0.32 c 3.28,0.88 -0.96,5.92 -1.92,7.52 -1.52,2.56 -3.2,5.36 -4.48,8 l 3.44,-1.12 c -2.08,3.04 -2.24,4.24 -5.92,4 l -3.52,4.88 6.96,-0.4 c -0.8,0.48 -5.12,2.88 -6,2.88 -1.36,0 -1.36,-0.24 -2.48,-0.48 l -3.44,6.96 8,-0.4 -7.52,3.36 -2.08,-1.04 -2.88,7.84 8.96,-0.88 c -0.64,0.4 -7.36,3.52 -7.92,3.52 -1.28,0 -0.48,-0.32 -2.48,-0.48 -0.64,7.36 -7.92,20.56 -7.92,30.64 l -0.16,2.48 0.64,5.44 h -3.52 c 0,-9.92 -2.96,-34 -5.92,-39.6 h -2.48 l -5.44,-4 7.44,1.52 c 0,-1.76 -1.92,-8.48 -2.88,-8.64 -3.2,-0.56 -5.76,-1.28 -7.52,-3.84 l 7.2,1.04 -2.72,-6.88 c -3.84,0.32 -6.24,-1.6 -8.88,-4 l 8,1.52 -2.64,-5.44 c -0.56,0.16 -1.36,0.48 -1.44,0.48 -1.68,0 -4.88,-2.56 -5.92,-3.6 l 6.4,1.12 -1.52,-2.48 h -2.4 l -2.48,-4.64 3.28,1.68 -6.24,-14.16 0.96,-0.48 6.88,14.64 0.8,-0.08 1.68,-5.92 c 0,3.2 0.96,3.12 0.96,5.92 v 0.48 c 0,1.76 -1.52,1.52 -1.52,2.48 0,1.04 1.28,2.48 1.76,2.88 l 1.68,-4.4 h 0.96 v 4 c 0,1.2 -0.8,1.44 -1.52,2.48 0.48,2.24 1.28,5.36 3.2,5.76 l 3.28,-5.28 c 0,3.84 0.08,6.56 -2.48,7.92 l 1.68,4.16 2.8,-3.12 0.08,5.04 -1.44,1.92 2.08,7.04 2.88,-3.04 0.08,5.04 -1.52,1.84 2.96,8.96 c 0,-6.96 1.12,-9.92 2.16,-15.6 0.64,-3.2 3.2,-13.92 3.12,-14.88 l -2.24,-1.2 -0.4,-6.16 3.76,4.64 1.36,-6.8 -1.6,-1.2 -1.12,-6.96 4.24,5.52 2,-5.92 c -2.56,-1.36 -1.92,-2.08 -1.68,-6.08 l 2.48,3.52 2.24,-5.36 c -1.12,-0.32 -1.52,-0.08 -1.52,-1.52 0,-2 0.96,-2.16 0.96,-5.92 l 0.32,0.08 1.2,5.36 0.8,-0.08 5.2,-14.8 1.92,0.24 -5.84,15.36 3.36,-1.68 c -0.56,2.16 -1.6,4.4 -4.4,4.48 l -2,4.88 5.92,-0.96 c -1.76,1.52 -3.84,3.52 -7.04,3.44 l -1.84,6.08 7.44,-2 c -0.56,0.8 -6,4.96 -6.96,4.96 -1.12,0 -0.56,-0.16 -2,-0.48 l -2,6.72 z m -45.52,-50.08 c 5.04,-1.36 7.28,-3.12 14.4,-3.92 5.36,-0.64 10.24,-1.52 16.32,-1.52 h 3.44 c 13.44,0 19.52,2.08 29.76,4.48 -0.48,5.52 -24,8.96 -31.76,8.96 h -2.48 c -7.6,0 -28.48,-3.2 -29.68,-8 z m -14.4,83.76 v 5.92 c 0,13.76 -0.16,29.76 13.36,29.76 h 65.92 c 6.96,0 9.6,-4.32 12.32,-8.4 l 1.04,-8.96 v -20.8 c 0,-22.48 -1.92,-39.76 -5.04,-58.88 -4,-25.28 -6.48,-28.32 -35.6,-28.32 h -10.88 c -33.36,0 -28.88,4.32 -35.84,29.52 -1.12,3.92 -0.88,10.08 -2,14.4 -1.28,4.88 -0.56,9.84 -1.52,14.88 -1.44,8.24 -1.76,21.52 -1.76,30.88 z" />
		<path id="_65522656" fill="#ffffff" d="m 218.48,288.56 c -0.8,0.64 -5.6,4.48 -6.48,4.48 -1.12,0 -0.56,-0.16 -2,-0.48 0,3.68 -2.72,10.72 -3.36,14.88 -0.64,4.08 -2.48,12.08 -2.48,15.76 l -0.24,4.48 1.28,10.4 7.84,-24.24 -2,-0.48 -0.96,-8.96 3.84,7.6 3.04,-7.44 -1.36,-1.6 0.24,-5.12 2.56,4.24 4.16,-7.6 h -1.04 l 0.56,-5.92 -0.72,-2.96 z" />
		<path id="_95748448" d="m 158.56,322.24 c 0,-9.36 0.32,-22.64 1.76,-30.88 0.88,-5.04 0.24,-10 1.52,-14.88 1.12,-4.24 0.88,-10.48 2,-14.4 7.04,-25.2 2.48,-29.52 35.84,-29.52 h 10.88 c 29.12,0 31.6,3.04 35.6,28.32 3.12,19.12 5.04,36.4 5.04,58.88 v 20.8 l -1.04,8.96 c -2.72,4.08 -5.36,8.4 -12.32,8.4 h -65.92 c -13.52,0 -13.36,-16 -13.36,-29.76 z m -14.4,-81.28 c 5.36,-1.44 1.12,-3.2 10.88,-2.48 6,0.4 7.52,0.8 12.4,2 -1.76,2.72 -11.44,7.44 -16.32,7.44 h -0.96 c -2.32,0 -5.92,-2.96 -5.92,-4.96 v -2 z m 108,-3.68 c 5.52,-0.56 11.92,2.16 11.92,7.68 v 1.52 c 0,1.52 -1.44,2 -2.96,2 h -1.52 c -4.48,0 -15.52,-6.72 -17.36,-9.68 z m -91.6,-16.64 c 0,-2.4 2.48,-5.44 4.48,-5.44 h 1.52 c 1.44,0 3.44,3.92 3.44,5.44 v 10.4 c 0,3.2 -0.96,3.76 -0.96,6.96 -2.4,-0.64 -8.4,-10.64 -8.4,-13.84 v -3.52 z m 79.28,6.96 c 0,-6.88 -0.08,-12.88 6.96,-12.88 h 1.52 c 1.6,0 2.48,1.76 2.48,3.44 0,5.04 -7.52,17.12 -10.88,18.32 v -8.88 z m 3.44,9.44 c 1.2,-4.56 9.44,-12.48 9.44,-17.84 v -3.44 c -1.6,-0.64 -1.68,-2.96 -4,-2.96 h -1.44 c -6.4,0 -9.44,5.04 -9.44,11.36 v 10.4 c -5.04,-1.36 -5.76,-2.48 -12.88,-2.96 -4.96,-0.4 -9.2,-1.04 -14.88,-1.04 h -8.88 c -12,0 -22.24,0.72 -30.24,4.96 0.4,-1.76 0.96,-2.32 0.96,-4.48 v -8.4 c 0,-3.6 -2.48,-9.44 -5.44,-9.44 h -2 c -2,0 -6.48,4.64 -6.48,7.44 0,4.88 5.28,13.68 7.44,16.88 l -14.32,-1.2 c -3.04,0 -8.4,2.8 -8.4,5.2 v 1.52 c 0,3.36 4.24,6.96 7.44,6.96 h 0.48 c 7.28,0 11.36,-4.88 15.84,-5.92 -4.64,8.8 -9.44,55.04 -9.44,70.32 v 14.88 c 0,14.8 0.72,30.72 15.36,30.72 h 65.36 c 10.24,0 15.36,-9.52 15.36,-19.84 v -26.32 c 0,-5.68 -0.4,-13.68 -1.04,-19.28 -0.56,-4.48 -1.92,-14.32 -1.92,-18.4 0,-6.48 -1.84,-11.84 -2.48,-17.76 -0.56,-5.2 -3.28,-10.8 -4.4,-15.44 2.88,1.52 12.24,7.44 15.36,7.44 h 2.96 c 2.48,0 4.48,-2 4.48,-4.48 v -0.48 c 0,-5.44 -3.68,-9.44 -9.44,-9.44 h -6.4 z" />
		<path id="_65522824" d="m 222,288.56 -0.56,5.92 h 1.04 l -4.16,7.6 -2.56,-4.24 -0.24,5.12 1.36,1.6 -2.96,7.44 -3.84,-7.6 0.96,8.96 2,0.56 -7.84,24.24 -1.28,-10.4 0.24,-4.56 c 0,-3.76 1.92,-11.76 2.56,-15.84 0.64,-4.16 3.36,-11.2 3.44,-14.88 1.44,0.32 0.88,0.48 2,0.48 0.88,0 5.68,-3.76 6.48,-4.48 l -7.6,1.44 2,-6.8 c 1.44,0.32 0.88,0.48 2,0.48 0.88,0 6.4,-4.16 6.96,-4.96 l -7.44,2.08 1.84,-6.08 c 3.2,0.08 5.28,-1.92 7.04,-3.44 l -5.92,0.96 2,-4.88 c 2.8,-0.08 3.84,-2.32 4.4,-4.48 l -3.36,1.68 5.84,-15.36 -1.92,-0.24 -5.2,14.8 -0.8,0.08 -1.2,-5.36 -0.24,-0.08 c 0,3.84 -0.96,3.92 -0.96,5.92 0,1.36 0.4,1.2 1.52,1.52 l -2.32,5.36 -2.48,-3.52 c -0.24,4 -0.88,4.72 1.76,6.08 l -2,5.92 -4.32,-5.52 1.12,7.04 1.6,1.2 -1.36,6.72 -3.76,-4.64 0.4,6.08 2.24,1.2 c 0.08,0.96 -2.56,11.6 -3.12,14.88 -1.12,5.76 -2.24,8.72 -2.24,15.68 l -2.88,-8.96 1.52,-1.92 -0.08,-4.96 -2.88,3.04 -2.08,-7.04 1.52,-1.92 -0.08,-4.96 -2.72,3.12 -1.68,-4.16 c 2.56,-1.36 2.48,-4.08 2.48,-7.92 l -3.28,5.28 c -1.84,-0.4 -2.64,-3.52 -3.2,-5.76 0.72,-1.04 1.52,-1.28 1.52,-2.48 v -4 h -1.04 l -1.68,4.4 c -0.48,-0.4 -1.76,-1.84 -1.76,-2.88 0,-0.96 1.52,-0.72 1.52,-2.48 v -0.48 c 0,-2.8 -0.96,-2.72 -0.96,-5.92 l -1.76,5.84 -0.8,0.08 -6.88,-14.64 -0.96,0.48 6.24,14.16 -3.28,-1.68 2.48,4.64 2.4,0.08 1.52,2.48 -6.4,-1.12 c 1.04,0.96 4.24,3.6 5.92,3.6 0.16,0 0.88,-0.32 1.52,-0.48 l 2.56,5.44 -8,-1.52 c 2.72,2.4 5.12,4.32 8.88,4 l 2.8,6.8 -7.2,-1.04 c 1.68,2.56 4.32,3.28 7.44,3.84 0.88,0.16 2.8,6.88 2.88,8.64 l -7.44,-1.52 5.44,4 h 2.48 c 2.96,5.68 5.92,29.76 5.92,39.6 h 3.44 L 206,348.48 206.08,346 c 0,-10.08 7.28,-23.28 7.92,-30.72 2,0.16 1.28,0.56 2.56,0.56 0.56,0 7.28,-3.04 7.92,-3.44 l -8.96,0.8 2.88,-7.84 2.08,1.04 7.52,-3.36 -8,0.4 3.44,-6.96 c 1.12,0.24 1.12,0.48 2.48,0.48 0.8,0 5.2,-2.48 5.92,-2.96 l -6.88,0.48 3.52,-4.88 c 3.68,0.24 3.84,-0.96 5.92,-4 l -3.44,1.12 c 1.28,-2.64 2.96,-5.44 4.48,-8 0.96,-1.6 5.12,-6.64 1.92,-7.52 l 0.48,0.24 -8.56,14.4 -0.96,-5.68 h -0.4 c 0,3.52 -1.52,4.24 -1.52,5.44 0,0.8 0.64,1.84 0.96,2.48 l -3.68,5.12 z" />
	</g>
	<text transform="translate(235.2461,341)" font-family="sans-serif" font-size="52px" id="text1910">STOR</text>
</g>
</svg>
