<?xml version="1.0" encoding="utf-8"?>
<!-- Generator: Adobe Illustrator 16.0.0, SVG Export Plug-In . SVG Version: 6.00 Build 0)  -->
<!DOCTYPE svg PUBLIC "-//W3C//DTD SVG 1.1//EN" "http://www.w3.org/Graphics/SVG/1.1/DTD/svg11.dtd">
<svg version="1.1" id="Version_1.0" xmlns="http://www.w3.org/2000/svg" xmlns:xlink="http://www.w3.org/1999/xlink" x="0px" y="0px"
	 width="612px" height="792px" viewBox="0 0 612 792" enable-background="new 0 0 612 792" xml:space="preserve">
<g id="octagon" display="none">
	<g id="outFrame" display="inline">
		<line fill="none" stroke="#0000FF" stroke-width="2" x1="220" y1="309.5" x2="306" y2="273"/>
		<line fill="none" stroke="#0000FF" stroke-width="2" x1="306" y1="273" x2="390.5" y2="309.5"/>
		<line fill="none" stroke="#0000FF" stroke-width="2" x1="390.5" y1="309.5" x2="427" y2="396"/>
		<line fill="none" stroke="#0000FF" stroke-width="2" x1="427" y1="396" x2="390.5" y2="482.5"/>
		<line fill="none" stroke="#0000FF" stroke-width="2" x1="390.5" y1="482.5" x2="306" y2="516"/>
		<line fill="none" stroke="#0000FF" stroke-width="2" x1="306" y1="516" x2="220" y2="482.5"/>
		<line fill="none" stroke="#0000FF" stroke-width="2" x1="220" y1="482.5" x2="183" y2="396"/>
		<line fill="none" stroke="#0000FF" stroke-width="2" x1="183" y1="396" x2="220" y2="309.5"/>
	</g>
	
		<line id="mod2_1_" display="inline" fill="none" stroke="#0000FF" stroke-width="2" x1="203.966" y1="445.015" x2="406.199" y2="445.295"/>
	
		<line id="mod1_1_" display="inline" fill="none" stroke="#0000FF" stroke-width="2" x1="203.966" y1="346.985" x2="406.199" y2="346.705"/>
</g>
<g id="main">
	<g transform="translate(74,49)">
		<path id="_234374400" fill="#FFFFFF" d="M 212.5 302 l 8.8 19.7 l 11.4 -1.6 h 2.5 c 3.2 0 6.4 0.7 9.1 1.4 c 4.3 1.1 4 -0.2 5.4 -3.8 C 250.8 314.9 255.4 304.4 255.4 302 C 248.5 300.4 245.3 297.3 235.2 297.3 H 231.8 C 222.7 297.3 218.8 300.5 212.5 302 z"/>
		<path id="_43225312" fill="#FFFFFF" d="M 176.2 329.4 l 19 11.4 C 198.4 335.9 211.8 325 218.3 323.5 L 208.7 303.7 C 201 305.4 180.2 323.4 176.2 329.4 z"/>
		<path id="_95705736" fill="#FFFFFF" d="M 251.2 324.5 c 5.3 1.3 19.1 14 20.4 18.5 l 15.8 -15.3 C 283.6 321.9 266.2 305.7 259.1 304 L 251.2 324.5 z"/>
		<path id="_102731816" d="M 217.1 387.9 c 0 -8.7 6.4 -18.1 14.7 -18.1 c 7.9 0 13.9 9.9 13.9 17.7 v 2.1 H 217.1 V 387.9 z M 285.1 376.1 l 22.6 -10.5 c 0.4 4.2 1.9 8 2.6 13 c 0.7 4.5 1.6 8.3 1.6 14 v 1.3 h -25 L 285.1 376.1 z M 176.4 388.3 l 0.3 5.5 H 151 c 0.1 -4 0.7 -9.6 1.4 -13.4 C 152.7 378.7 153 376 153.6 374.4 c 0.2 -0.6 1.7 -5.6 1.8 -6.1 l 23.1 7.8 L 176.4 388.3 z M 274 346.2 l 15.6 -15.6 C 291.1 333 292.7 335 294.4 337.5 C 296.3 340.3 297.3 342.4 299 345.2 c 1.6 2.6 7 14 6.9 17.2 L 284.1 372.8 C 283.9 366.5 276.7 350.3 274 346.2 z M 179.2 372.3 L 156.4 364.7 C 156.7 361.8 162.3 350 163.9 347.3 c 3 -5.2 7.4 -10.5 9.9 -15.1 l 18.9 11 C 192.3 344.5 186.3 354 185.1 356.7 C 183.2 361 181 368.9 179.2 372.3 z M 259.1 304 c 7.1 1.7 24.5 17.8 28.3 23.6 L 271.6 343 C 270.3 338.5 256.5 325.8 251.2 324.5 L 259.1 304 z M 176.2 329.4 c 4 -6 24.8 -23.9 32.4 -25.7 l 9.6 19.8 C 211.8 325 198.4 335.9 195.2 340.7 L 176.2 329.4 z M 212.5 302 c 6.4 -1.5 10.2 -4.6 19.4 -4.6 h 3.4 c 10.1 0 13.3 3 20.2 4.6 C 255.4 304.4 250.8 314.9 249.7 317.7 c -1.4 3.5 -1 4.9 -5.4 3.8 C 241.6 320.8 238.4 320.1 235.2 320.1 H 232.7 L 221.3 321.7 L 212.5 302 z M 147.2 395.5 H 132 c -1 0 -1.3 0.3 -1.3 1.3 v 0.4 c 0 1 0.3 1.3 1.3 1.3 h 197.6 c 0.8 0 1.7 -0.8 1.7 -1.3 c 0 -1 -0.7 -1.7 -1.7 -1.7 H 315.3 V 391.7 c 0 -25.3 -12.2 -51 -23.7 -64.8 C 280.4 313.6 260.1 293.5 236.5 293.5 H 231.4 c -24.2 0 -46.9 21.1 -58.9 34.2 C 160 341.6 147.2 369.1 147.2 395.5 L 147.2 395.5 z"/>
		<path id="_95491320" fill="#FFFFFF" d="M 179.2 372.3 C 181 368.9 183.2 361 185.1 356.7 C 186.3 354 192.3 344.5 192.7 343.3 l -18.9 -11 c -2.5 4.5 -6.9 9.9 -9.9 15 C 162.3 350 156.7 361.8 156.4 364.7 L 179.2 372.3 z"/>
		<path id="_230322080" fill="#FFFFFF" d="M 274 346.2 c 2.7 4.1 10 20.3 10.1 26.5 l 21.8 -10.4 C 306 359.2 300.6 347.8 299 345.2 C 297.3 342.4 296.3 340.3 294.4 337.5 C 292.7 335 291.1 333 289.6 330.6 L 274 346.2 z"/>
		<path id="_43277104" fill="#FFFFFF" d="M 286.9 393.8 h 25 V 392.6 c 0 -5.7 -0.9 -9.5 -1.6 -14 c -0.7 -5 -2.3 -8.8 -2.6 -13 L 285.1 376.1 L 286.9 393.8 z"/>
		<path id="_42218880" fill="#FFFFFF" d="M 217.1 389.6 h 28.6 V 387.5 c 0 -7.8 -6.1 -17.7 -13.9 -17.7 c -8.3 0 -14.7 9.4 -14.7 18.1 V 389.6 z"/>
		<path id="_41709736" fill="#FFFFFF" d="M 178.4 376.1 L 155.2 368.3 C 155.1 368.8 153.7 373.9 153.5 374.4 C 152.9 376 152.6 378.7 152.3 380.4 C 151.7 384.2 151 389.8 151 393.8 h 25.7 L 176.4 388.3 L 178.4 376.1 z"/>
	</g>
</g>
</svg>
