<?xml version="1.0" encoding="utf-8"?>
<!-- Generator: Adobe Illustrator 16.0.0, SVG Export Plug-In . SVG Version: 6.00 Build 0)  -->
<!DOCTYPE svg PUBLIC "-//W3C//DTD SVG 1.1//EN" "http://www.w3.org/Graphics/SVG/1.1/DTD/svg11.dtd">
<svg version="1.1" id="Version_1.0" xmlns="http://www.w3.org/2000/svg" xmlns:xlink="http://www.w3.org/1999/xlink" x="0px" y="0px"
	 width="612px" height="792px" viewBox="0 0 612 792" enable-background="new 0 0 612 792" xml:space="preserve">
<g id="octagon" display="none">
	<g id="outFrame" display="inline">
		<line fill="none" stroke="#0000FF" stroke-width="2" x1="220" y1="309.5" x2="306" y2="273"/>
		<line fill="none" stroke="#0000FF" stroke-width="2" x1="306" y1="273" x2="390.5" y2="309.5"/>
		<line fill="none" stroke="#0000FF" stroke-width="2" x1="390.5" y1="309.5" x2="427" y2="396"/>
		<line fill="none" stroke="#0000FF" stroke-width="2" x1="427" y1="396" x2="390.5" y2="482.5"/>
		<line fill="none" stroke="#0000FF" stroke-width="2" x1="390.5" y1="482.5" x2="306" y2="516"/>
		<line fill="none" stroke="#0000FF" stroke-width="2" x1="306" y1="516" x2="220" y2="482.5"/>
		<line fill="none" stroke="#0000FF" stroke-width="2" x1="220" y1="482.5" x2="183" y2="396"/>
		<line fill="none" stroke="#0000FF" stroke-width="2" x1="183" y1="396" x2="220" y2="309.5"/>
	</g>
	
		<line id="mod2_1_" display="inline" fill="none" stroke="#0000FF" stroke-width="2" x1="203.966" y1="445.015" x2="406.199" y2="445.295"/>
	
		<line id="mod1_1_" display="inline" fill="none" stroke="#0000FF" stroke-width="2" x1="203.966" y1="346.985" x2="406.199" y2="346.705"/>
</g>
<g id="main">
	<g transform="translate(73,65)">
		<path id="_97310896" d="M 223 342.8 h 17.5 c 1.4 0 11.1 -15 12.5 -17.1 H 210.4 C 211.9 327.9 221.3 342.8 223 342.8 z"/>
		<path id="_102375856" d="M 200.1 331.6 L 210.4 349 c 0.7 -0.2 2.1 -0.5 2.1 -1.3 c 0 -1.4 -9.3 -14 -10 -17.2 L 200.1 331.6 z"/>
		<path id="_233402632" d="M 250.9 347.4 c 0 1.4 0.8 1.6 1.8 1.5 l 10.6 -17.2 l -1.6 -1 C 261.1 331.2 250.9 347.2 250.9 347.4 z"/>
		<polygon id="_43097984" points="219.6,352.0 243.8,352.0 243.8,349.4 219.6,349.4 		"/>
		<polygon id="_228322304" points="257.5,358.6 259.9,359.4 275.9,333.2 273.9,332.4 		"/>
		<polygon id="_102470720" points="187.5,333.2 204.2,359.5 205.9,358.6 189.2,332.3 		"/>
		<polygon id="_102470608" points="211.3,362.4 252.5,362.4 252.5,359.9 211.3,359.9 		"/>
		<path id="_102470552" d="M 175 335.3 c 0 0.8 9.3 14.7 10.4 16.7 c 0.9 1.6 10.5 16.7 10.8 16.7 c 1.1 0 1.2 -0.6 1.7 -1.3 L 176.7 334 C 176.2 334.3 175 334.6 175 335.3 z"/>
		<polygon id="_229399824" points="265.4,367.3 267.4,368.9 288.8,335.0 286.7,334.0 		"/>
		<path id="_43097864" fill="#FFFFFF" d="M 144.2 372.4 L 145 366.5 C 144.1 366.5 144.2 371.1 144.2 372.4 z"/>
		<polygon id="_238795024" points="202.5,372.8 261.3,372.8 261.3,370.3 202.5,370.3 		"/>
		<path id="_95239824" d="M 150.8 376.5 c 0.8 0 0.8 -5.7 0.8 -7.1 L 150.8 376.5 z"/>
		<path id="_236038376" fill="#FFFFFF" d="M 193.4 380.7 h 76.7 v 2.9 H 193.4 V 380.7 z M 202.5 370.3 h 58.8 v 2.5 H 202.5 V 370.3 z M 211.3 359.9 h 41.3 v 2.5 H 211.3 V 359.9 z M 219.6 349.4 h 24.2 V 352 H 219.6 V 349.4 z M 275.5 378.2 l -2.7 -1 l 26.5 -41.5 C 300 335.9 301.3 336.1 301.3 336.9 c 0 0.8 -11.4 17.9 -12.8 20.5 C 286.1 361.8 276.3 374.9 275.5 378.2 z M 162 336.6 l 2.5 -1.1 l 25.9 41.8 l -2 0.9 L 162 336.6 z M 196.3 368.6 c -0.4 0 -9.9 -15.1 -10.8 -16.7 C 184.3 350 175 336.1 175 335.3 c 0 -0.7 1.1 -1 1.7 -1.2 L 198 367.3 C 197.5 368 197.4 368.6 196.3 368.6 z M 286.7 334 l 2 1 L 267.3 369 l -2 -1.6 L 286.7 334 z M 273.9 332.4 l 2 0.7 l -16 26.2 L 257.5 358.6 L 273.9 332.4 z M 189.2 332.3 L 206 358.5 l -1.8 1 L 187.5 333.2 L 189.2 332.3 z M 250.9 347.4 c 0 -0.2 10.2 -16.2 10.8 -16.7 l 1.6 1 L 252.7 348.9 C 251.7 348.9 250.9 348.7 250.9 347.4 z M 202.5 330.6 c 0.8 3.2 10 15.7 10 17.2 c 0 0.8 -1.4 1.1 -2.1 1.3 L 200.1 331.6 L 202.5 330.6 z M 223 342.8 c -1.6 0 -11.1 -14.9 -12.5 -17.1 H 253 C 251.6 327.8 241.9 342.8 240.5 342.8 H 223 z M 151.7 369.5 c 0 1.3 -0.1 7.1 -0.8 7.1 L 150.4 389 h 163 l 0.2 -5.4 L 310.5 356.5 V 354 H 309.7 V 352.4 c 0 -4.5 -7.1 -26.6 -9 -30.2 c -1.1 -2 -1.8 -4.6 -2.8 -6.8 C 296.7 312.9 295.4 311.3 294.2 309 c -2.3 -4.5 -5 -7.8 -8 -11.6 C 275.6 283.9 257.1 271.9 233 271.9 H 230.5 c -27 0 -46.2 14.6 -57 30.9 C 167.2 312.2 163.3 321.2 159.3 332.9 C 156.6 340.9 151.9 359.6 151.7 369.5 L 151.7 369.5 z"/>
		<path id="_100039048" d="M 275.5 378.2 c 0.9 -3.3 10.6 -16.5 13 -20.8 c 1.4 -2.6 12.8 -19.7 12.8 -20.5 c 0 -0.8 -1.4 -1.1 -2.1 -1.3 L 272.7 377.2 L 275.5 378.2 z"/>
		<polygon id="_236038544" points="188.4,378.2 190.4,377.3 164.5,335.5 162.0,336.6 		"/>
		<polygon id="_97615280" points="193.4,383.6 270.1,383.6 270.1,380.7 193.4,380.7 		"/>
		<path id="_237429648" d="M 150.8 376.5 l 0.8 -7.1 c 0.2 -9.8 4.9 -28.5 7.6 -36.5 c 4 -11.7 7.9 -20.7 14.1 -30.1 c 10.9 -16.3 30 -30.9 57 -30.9 H 233 c 24.1 0 42.6 12 53.3 25.5 c 3 3.8 5.7 7.1 8 11.6 c 1.2 2.2 2.4 3.9 3.6 6.4 c 1 2.2 1.7 4.8 2.8 6.8 c 1.9 3.6 9 25.7 9 30.2 V 354 h 0.8 v 2.5 l 3.1 27.1 L 313.4 389 h -163 L 150.8 376.5 L 150.8 376.5 z M 145 366.5 L 144.2 372.4 L 143.3 386.5 v 9.6 h 177.2 V 393.6 c 0 -5.1 0.2 -15.9 -0.6 -20.3 c -1.1 -6 -1.3 -12.9 -2.6 -18.7 C 316.2 349.5 310 322.9 307.6 321.9 c 0 -3.9 -8.7 -18.9 -10.8 -22.1 C 292.4 293.3 287.4 287.3 281.2 282.4 C 268.9 272.7 255 264.8 233 264.8 H 230.5 c -29.4 0 -49 14.8 -61.4 31.9 C 165.5 301.5 163.2 306.2 160.4 311.5 C 157.5 317.2 156.2 322.1 153.8 328.2 C 150.7 335.8 145.2 356.6 145 366.5 L 145 366.5 z"/>
	</g>
</g>
</svg>
