<?xml version="1.0" encoding="UTF-8" standalone="no"?>
<svg inkscape:version="1.2.2 (732a01da63, 2022-12-09)" sodipodi:docname="375.svg" xml:space="preserve" enable-background="new 0 0 612 792" overflow="visible" viewBox="0 0 612 792" height="792" width="612" id="Version_1.0" version="1.1" xmlns:inkscape="http://www.inkscape.org/namespaces/inkscape" xmlns:sodipodi="http://sodipodi.sourceforge.net/DTD/sodipodi-0.dtd" xmlns="http://www.w3.org/2000/svg" xmlns:svg="http://www.w3.org/2000/svg" xmlns:rdf="http://www.w3.org/1999/02/22-rdf-syntax-ns#" xmlns:cc="http://creativecommons.org/ns#" xmlns:dc="http://purl.org/dc/elements/1.1/"><metadata id="metadata852"><rdf:RDF><cc:Work rdf:about=""><dc:format>image/svg+xml</dc:format><dc:type rdf:resource="http://purl.org/dc/dcmitype/StillImage" /><dc:title /></cc:Work></rdf:RDF></metadata><defs id="defs850" /><sodipodi:namedview showgrid="false" id="namedview848" inkscape:window-height="1009" inkscape:window-width="1920" inkscape:pageshadow="2" inkscape:pageopacity="0" guidetolerance="10" gridtolerance="10" objecttolerance="10" borderopacity="1" bordercolor="#666666" pagecolor="#ffffff" inkscape:document-rotation="0" inkscape:zoom="1.0959596" inkscape:cx="295.63134" inkscape:cy="449.8341" inkscape:window-x="1912" inkscape:window-y="-8" inkscape:window-maximized="1" inkscape:current-layer="Version_1.0" inkscape:snap-nodes="false" inkscape:showpageshadow="2" inkscape:pagecheckerboard="0" inkscape:deskcolor="#d1d1d1" /><g display="none" id="octagon"><polygon id="octagonOutline" points="305,516.5 218.733,480.768 183,394.5 218.733,308.233 305,272.5    391.268,308.233 427,394.5 391.268,480.768  " stroke-width="2" stroke="#0000FF" fill="none" /><line id="mod1" y2="345.7" x2="407.5" y1="345.7" x1="202.5" stroke-width="2" stroke="#0000FF" fill="none" /><line id="mod2" y2="443.3" x2="407.5" y1="443.3" x1="202.5" stroke-width="2" stroke="#0000FF" fill="none" /><path d="m 179.56,317.5 126.44,-73 127.44223,72.99999 m -253.88223,0 v 0 -80.26865 0 h 253.88223 v 80.26865 0" style="fill:none;stroke:#0000ff;stroke-width:1.999;stroke-linecap:butt;stroke-linejoin:miter;stroke-miterlimit:4;stroke-dasharray:none;stroke-opacity:1" id="amplifierD" /><rect y="150.52045" x="441.47321" height="97.589767" width="168.22823" id="amplifierAC" style="fill:none;fill-opacity:1;stroke:#0000ff;stroke-width:1.99172;stroke-linecap:round;stroke-linejoin:miter;stroke-miterlimit:4;stroke-dasharray:none;stroke-opacity:1;paint-order:markers fill stroke" /><rect style="fill:none;fill-opacity:1;stroke:#0000ff;stroke-width:1.99172;stroke-linecap:round;stroke-linejoin:miter;stroke-miterlimit:4;stroke-dasharray:none;stroke-opacity:1;paint-order:markers fill stroke" id="amplifierG" width="168.22823" height="97.589767" x="441.47321" y="248.11023" /><rect y="345.70001" x="441.47321" height="97.589767" width="168.22823" id="amplifierH" style="fill:none;fill-opacity:1;stroke:#0000ff;stroke-width:1.99172;stroke-linecap:round;stroke-linejoin:miter;stroke-miterlimit:4;stroke-dasharray:none;stroke-opacity:1;paint-order:markers fill stroke" /><rect style="fill:none;fill-opacity:1;stroke:#0000ff;stroke-width:1.99172;stroke-linecap:round;stroke-linejoin:miter;stroke-miterlimit:4;stroke-dasharray:none;stroke-opacity:1;paint-order:markers fill stroke" id="amplifierM" width="168.22823" height="97.589767" x="441.47321" y="443.28979" /><rect y="540.87958" x="441.47321" height="97.589767" width="168.22823" id="amplifierJKP" style="fill:none;fill-opacity:1;stroke:#0000ff;stroke-width:1.99172;stroke-linecap:round;stroke-linejoin:miter;stroke-miterlimit:4;stroke-dasharray:none;stroke-opacity:1;paint-order:markers fill stroke" /><rect style="fill:none;fill-opacity:1;stroke:#0000ff;stroke-width:1.99172;stroke-linecap:round;stroke-linejoin:miter;stroke-miterlimit:4;stroke-dasharray:none;stroke-opacity:1;paint-order:markers fill stroke" id="amplifierW" width="168.22823" height="97.589767" x="2.8270514" y="150.52045" /><rect y="248.11021" x="2.8270514" height="97.589767" width="168.22823" id="amplifierXY" style="fill:none;fill-opacity:1;stroke:#0000ff;stroke-width:1.99172;stroke-linecap:round;stroke-linejoin:miter;stroke-miterlimit:4;stroke-dasharray:none;stroke-opacity:1;paint-order:markers fill stroke" /><rect style="fill:none;fill-opacity:1;stroke:#0000ff;stroke-width:1.99172;stroke-linecap:round;stroke-linejoin:miter;stroke-miterlimit:4;stroke-dasharray:none;stroke-opacity:1;paint-order:markers fill stroke" id="amplifierVAF" width="168.22823" height="97.589767" x="2.8270514" y="345.69998" /><rect y="443.28973" x="2.8270514" height="97.589767" width="168.22823" id="amplifierT" style="fill:none;fill-opacity:1;stroke:#0000ff;stroke-width:1.99172;stroke-linecap:round;stroke-linejoin:miter;stroke-miterlimit:4;stroke-dasharray:none;stroke-opacity:1;paint-order:markers fill stroke" /><rect style="fill:none;fill-opacity:1;stroke:#0000ff;stroke-width:1.99172;stroke-linecap:round;stroke-linejoin:miter;stroke-miterlimit:4;stroke-dasharray:none;stroke-opacity:1;paint-order:markers fill stroke" id="amplifierZ" width="168.22823" height="97.589767" x="2.8270514" y="540.87952" /><rect y="139.86548" x="179.78391" height="97.141968" width="253.54138" id="amplifierAB" style="fill:none;fill-opacity:1;stroke:#0000ff;stroke-width:2.43953;stroke-linecap:round;stroke-linejoin:miter;stroke-miterlimit:4;stroke-dasharray:none;stroke-opacity:1;paint-order:markers fill stroke" /><rect style="fill:none;fill-opacity:1;stroke:#0000ff;stroke-width:2.43953;stroke-linecap:round;stroke-linejoin:miter;stroke-miterlimit:4;stroke-dasharray:none;stroke-opacity:1;paint-order:markers fill stroke" id="amplifierR" width="253.54138" height="97.141968" x="179.45253" y="547.46027" /><path id="amplifierQ" d="m 306.85589,644.52992 v 52.02633" style="fill:#0000ff;stroke:#0000ff;stroke-width:1.999;stroke-linecap:butt;stroke-linejoin:miter;stroke-opacity:1;fill-opacity:1;stroke-miterlimit:4;stroke-dasharray:none" /></g><g transform="translate(0,4.1524023)" id="g3121"><g transform="matrix(1.4,0,0,1.4,208.30598,-66.491331)" id="g16649"><g transform="matrix(1.0833259,0,0,1.0833259,-100.35359,-86.545329)" id="g16762"><path sodipodi:nodetypes="ccccccc" style="fill:#636a3e;fill-opacity:1;fill-rule:evenodd;stroke:#444a2a;stroke-width:0.923083;stroke-miterlimit:4;stroke-dasharray:none;stroke-opacity:1" id="path16764" d="m 267.85388,359.38969 -0.0812,27.39663 c 14.75659,1.94506 26.90379,10.39473 34.05996,15.95086 7.15617,-5.55613 19.30337,-14.0058 34.05996,-15.95086 l -0.0812,-27.39663 c -14.97239,1.55319 -23.87236,7.01632 -33.97876,14.14833 -10.1064,-7.13201 -19.00637,-12.59514 -33.97876,-14.14833 z" inkscape:connector-curvature="0" /></g></g><g id="g356"><path style="fill:#d0d1a9;fill-opacity:1;stroke:#444a2a;stroke-width:0.4;stroke-linecap:butt;stroke-linejoin:miter;stroke-miterlimit:4;stroke-dasharray:none;stroke-opacity:1" d="m 480.29102,366.36785 c 11.4522,1.61299 30.40967,11.13851 45.24914,21.78422 13.79102,-10.64571 33.89125,-20.00994 45.34345,-21.78422 l 0.0806,8.32341 c -14.03297,1.45169 -38.92637,17.8058 -45.37831,22.56411 -8.62947,-7.01649 -34.59032,-21.64138 -45.23602,-22.60917 z" id="path28148" sodipodi:nodetypes="ccccccc" /><path sodipodi:nodetypes="ccccccc" id="path1371" d="m 480.29102,382.36785 c 11.4522,1.61299 30.40967,11.13851 45.24914,21.78422 13.79102,-10.64571 33.89125,-20.00994 45.34345,-21.78422 l 0.0806,8.32341 c -14.03297,1.45169 -38.92637,17.8058 -45.37831,22.56411 -8.62947,-7.01649 -34.59032,-21.64138 -45.23602,-22.60917 z" style="fill:#d0d1a9;fill-opacity:1;stroke:#444a2a;stroke-width:0.4;stroke-linecap:butt;stroke-linejoin:miter;stroke-miterlimit:4;stroke-dasharray:none;stroke-opacity:1" /></g></g><g id="g490" transform="matrix(0.44088044,0,0,0.44088044,293.86615,178.41594)"><path sodipodi:nodetypes="ccccc" style="display:inline;fill:#636a3e;fill-opacity:1;fill-rule:evenodd;stroke:#444a2a;stroke-width:0.923083;stroke-miterlimit:4;stroke-dasharray:none;stroke-opacity:1" id="path16774" d="m 270,380 35,35 35,-35 -35,-35 z" inkscape:connector-curvature="0" transform="matrix(1.0833259,0,0,1.0833259,195.17292,-17.168949)" /><g id="g10090" transform="matrix(0.54,0,0,0.54,588.14871,99.862346)" style="fill:#f4e6d9;fill-opacity:1;stroke:#444a2a;stroke-width:1.85477;stroke-miterlimit:4;stroke-dasharray:none;stroke-opacity:1"><g transform="translate(-420.89739,220.49732)" style="display:inline;fill:#f4e6d9;fill-opacity:1;stroke:#444a2a;stroke-width:1.85477;stroke-miterlimit:4;stroke-dasharray:none;stroke-opacity:1" id="g10088"><g id="g10086" style="fill:#f4e6d9;fill-opacity:1;stroke:#444a2a;stroke-width:1.85477;stroke-miterlimit:4;stroke-dasharray:none;stroke-opacity:1"><g transform="matrix(1.0833259,0,0,1.0833259,-25.371439,-86.545329)" id="g10084" style="fill:#f4e6d9;fill-opacity:1;stroke:#444a2a;stroke-width:1.71211;stroke-miterlimit:4;stroke-dasharray:none;stroke-opacity:1"><path sodipodi:nodetypes="ccccc" style="fill:#f4e6d9;fill-opacity:1;fill-rule:evenodd;stroke:#444a2a;stroke-width:1.71211;stroke-miterlimit:4;stroke-dasharray:none;stroke-opacity:1" id="path10082" d="m 270,380 35,35 35,-35 -35,-35 z" inkscape:connector-curvature="0" /></g></g></g></g></g></svg>
