<?xml version="1.0" encoding="UTF-8" standalone="no"?>
<!-- Generator: Adobe Illustrator 16.0.0, SVG Export Plug-In . SVG Version: 6.00 Build 0)  -->

<svg version="1.1" id="Version_1.0" x="0px" y="0px" width="612px" height="792px" viewBox="0 0 612 792" enable-background="new 0 0 612 792" xml:space="preserve" sodipodi:docname="05121400.svg" inkscape:version="1.2.2 (732a01da63, 2022-12-09)" xmlns:inkscape="http://www.inkscape.org/namespaces/inkscape" xmlns:sodipodi="http://sodipodi.sourceforge.net/DTD/sodipodi-0.dtd" xmlns="http://www.w3.org/2000/svg" xmlns:svg="http://www.w3.org/2000/svg"><defs id="defs7695" /><sodipodi:namedview id="namedview7693" pagecolor="#ffffff" bordercolor="#666666" borderopacity="1.0" inkscape:showpageshadow="2" inkscape:pageopacity="0.0" inkscape:pagecheckerboard="0" inkscape:deskcolor="#d1d1d1" showgrid="false" inkscape:zoom="1.1123737" inkscape:cx="61.130536" inkscape:cy="396.4495" inkscape:window-width="1920" inkscape:window-height="1009" inkscape:window-x="-8" inkscape:window-y="-8" inkscape:window-maximized="1" inkscape:current-layer="text7689" />
<g id="octagon" display="none">
	
		<line id="mod2_1_" display="inline" fill="none" stroke="#0000FF" stroke-width="2" x1="203.966" y1="445.015" x2="406.199" y2="445.295" />
	
		<line id="mod1_1_" display="inline" fill="none" stroke="#0000FF" stroke-width="2" x1="203.966" y1="346.985" x2="406.199" y2="346.705" />
	<g id="outFrame" display="inline">
		<line fill="none" stroke="#0000FF" stroke-width="2" x1="220" y1="309.5" x2="306" y2="273" id="line7671" />
		<line fill="none" stroke="#0000FF" stroke-width="2" x1="306" y1="273" x2="390.5" y2="309.5" id="line7673" />
		<line fill="none" stroke="#0000FF" stroke-width="2" x1="390.5" y1="309.5" x2="427" y2="396" id="line7675" />
		<line fill="none" stroke="#0000FF" stroke-width="2" x1="427" y1="396" x2="390.5" y2="482.5" id="line7677" />
		<line fill="none" stroke="#0000FF" stroke-width="2" x1="390.5" y1="482.5" x2="306" y2="516" id="line7679" />
		<line fill="none" stroke="#0000FF" stroke-width="2" x1="306" y1="516" x2="220" y2="482.5" id="line7681" />
		<line fill="none" stroke="#0000FF" stroke-width="2" x1="220" y1="482.5" x2="183" y2="396" id="line7683" />
		<line fill="none" stroke="#0000FF" stroke-width="2" x1="183" y1="396" x2="220" y2="309.5" id="line7685" />
	</g>
</g>
<g id="main">
	<g aria-label="SV" transform="matrix(1 0 0 1 222.9995 443.25)" id="text7689" style="font-size:130px"><path d="m 81.376953,-26.977539 q 0,5.522461 -2.602539,10.917969 -2.539062,5.395507 -7.172852,9.1406247 -5.078125,4.0625 -11.870117,6.34765624 -6.728515,2.28515626 -16.25,2.28515626 -10.219726,0 -18.408203,-1.90429689 -8.125,-1.90429691 -16.5673826,-5.64941401 V -21.582031 h 0.8886719 q 7.1728517,5.966797 16.5673827,9.204101 9.394531,3.237305 17.646484,3.237305 11.679688,0 18.154297,-4.379883 6.538086,-4.379883 6.538086,-11.679687 0,-6.28418 -3.110351,-9.267578 -3.046875,-2.983399 -9.331055,-4.633789 -4.760742,-1.269532 -10.34668,-2.094727 -5.522461,-0.825195 -11.743164,-2.094727 -12.568359,-2.666015 -18.662109,-9.077148 -6.0302736,-6.474609 -6.0302736,-16.821289 0,-11.870117 10.0292966,-19.423828 10.029297,-7.617188 25.454102,-7.617188 9.96582,0 18.28125,1.904297 8.31543,1.904297 14.726562,4.697266 v 14.853515 h -0.888672 q -5.395507,-4.570312 -14.21875,-7.553711 -8.759765,-3.046875 -17.963867,-3.046875 -10.092773,0 -16.25,4.189454 -6.09375,4.189453 -6.09375,10.791015 0,5.903321 3.046875,9.267578 3.046875,3.364258 10.727539,5.141602 4.0625,0.888672 11.552735,2.158203 7.490234,1.269531 12.695312,2.602539 10.53711,2.792969 15.869141,8.442383 5.332031,5.649414 5.332031,15.805664 z" id="path7814" style="stroke:#000000;stroke-opacity:1;fill:#ffffff;stroke-width:5;stroke-dasharray:none;fill-opacity:1" /><path d="M 176.08398,-94.516602 141.67969,0 H 124.92188 L 90.517578,-94.516602 h 13.457032 l 29.64355,83.154297 29.64356,-83.154297 z" id="path7816" style="stroke:#000000;stroke-opacity:1;fill:#ffffff;stroke-width:5;stroke-dasharray:none;fill-opacity:1" /></g>
</g>
</svg>
