<?xml version="1.0" encoding="UTF-8" standalone="no"?>
<!-- Generator: Adobe Illustrator 16.0.0, SVG Export Plug-In . SVG Version: 6.00 Build 0)  -->

<svg version="1.1" id="Version_1.0" x="0px" y="0px" width="612px" height="792px" viewBox="0 0 612 792" enable-background="new 0 0 612 792" xml:space="preserve" sodipodi:docname="05121300.svg" inkscape:version="1.2.2 (732a01da63, 2022-12-09)" xmlns:inkscape="http://www.inkscape.org/namespaces/inkscape" xmlns:sodipodi="http://sodipodi.sourceforge.net/DTD/sodipodi-0.dtd" xmlns="http://www.w3.org/2000/svg" xmlns:svg="http://www.w3.org/2000/svg"><defs id="defs7550" /><sodipodi:namedview id="namedview7548" pagecolor="#ffffff" bordercolor="#666666" borderopacity="1.0" inkscape:showpageshadow="2" inkscape:pageopacity="0.0" inkscape:pagecheckerboard="0" inkscape:deskcolor="#d1d1d1" showgrid="false" inkscape:zoom="1.1123737" inkscape:cx="61.130536" inkscape:cy="396.4495" inkscape:window-width="1920" inkscape:window-height="1009" inkscape:window-x="-8" inkscape:window-y="-8" inkscape:window-maximized="1" inkscape:current-layer="Version_1.0" />
<g id="octagon" display="none">
	
		<line id="mod2_1_" display="inline" fill="none" stroke="#0000FF" stroke-width="2" x1="203.966" y1="445.015" x2="406.199" y2="445.295" />
	
		<line id="mod1_1_" display="inline" fill="none" stroke="#0000FF" stroke-width="2" x1="203.966" y1="346.985" x2="406.199" y2="346.705" />
	<g id="outFrame" display="inline">
		<line fill="none" stroke="#0000FF" stroke-width="2" x1="220" y1="309.5" x2="306" y2="273" id="line7526" />
		<line fill="none" stroke="#0000FF" stroke-width="2" x1="306" y1="273" x2="390.5" y2="309.5" id="line7528" />
		<line fill="none" stroke="#0000FF" stroke-width="2" x1="390.5" y1="309.5" x2="427" y2="396" id="line7530" />
		<line fill="none" stroke="#0000FF" stroke-width="2" x1="427" y1="396" x2="390.5" y2="482.5" id="line7532" />
		<line fill="none" stroke="#0000FF" stroke-width="2" x1="390.5" y1="482.5" x2="306" y2="516" id="line7534" />
		<line fill="none" stroke="#0000FF" stroke-width="2" x1="306" y1="516" x2="220" y2="482.5" id="line7536" />
		<line fill="none" stroke="#0000FF" stroke-width="2" x1="220" y1="482.5" x2="183" y2="396" id="line7538" />
		<line fill="none" stroke="#0000FF" stroke-width="2" x1="183" y1="396" x2="220" y2="309.5" id="line7540" />
	</g>
</g>
<g id="main">
	<g aria-label="PL" transform="matrix(1 0 0 1 231.9995 443.25)" id="text7544" style="font-size:130px;stroke:#000000;stroke-opacity:1;stroke-width:5;stroke-dasharray:none;fill:none"><path d="m 74.521484,-65.952148 q 0,6.284179 -2.221679,11.679687 -2.158203,5.332031 -6.09375,9.267578 -4.887696,4.887696 -11.552735,7.363281 -6.665039,2.41211 -16.821289,2.41211 H 25.263672 V 0 H 12.695313 v -94.516602 h 25.644531 q 8.505859,0 14.409179,1.459961 5.903321,1.396485 10.473633,4.44336 5.395508,3.618164 8.31543,9.013672 2.983398,5.395507 2.983398,13.647461 z m -13.076172,0.317382 q 0,-4.887695 -1.713867,-8.505859 -1.713867,-3.618164 -5.205078,-5.90332 -3.046875,-1.967774 -6.982422,-2.792969 -3.87207,-0.888672 -9.838867,-0.888672 H 25.263672 v 37.768555 h 10.600586 q 7.617187,0 12.377929,-1.333008 4.760743,-1.396484 7.744141,-4.379883 2.983399,-3.046875 4.189453,-6.411133 1.269531,-3.364257 1.269531,-7.553711 z" id="path8568" style="stroke:#000000;stroke-opacity:1;stroke-width:5;stroke-dasharray:none;fill:#ffffff;fill-opacity:1" /><path d="M 150.88379,0 H 91.088867 v -94.516602 h 12.568363 v 83.344727 h 47.22656 z" id="path8570" style="stroke:#000000;stroke-opacity:1;stroke-width:5;stroke-dasharray:none;fill:#ffffff;fill-opacity:1" /></g>
</g>
</svg>
