<?xml version="1.0" encoding="UTF-8" standalone="no"?>
<!-- Generator: Adobe Illustrator 16.0.0, SVG Export Plug-In . SVG Version: 6.00 Build 0)  -->

<svg version="1.1" id="Version_1.0" x="0px" y="0px" width="612px" height="792px" viewBox="0 0 612 792" enable-background="new 0 0 612 792" xml:space="preserve" sodipodi:docname="10602.svg" inkscape:version="1.2.2 (732a01da63, 2022-12-09)" xmlns:inkscape="http://www.inkscape.org/namespaces/inkscape" xmlns:sodipodi="http://sodipodi.sourceforge.net/DTD/sodipodi-0.dtd" xmlns="http://www.w3.org/2000/svg" xmlns:svg="http://www.w3.org/2000/svg"><defs id="defs2126" /><sodipodi:namedview id="namedview2124" pagecolor="#ffffff" bordercolor="#666666" borderopacity="1.0" inkscape:showpageshadow="2" inkscape:pageopacity="0.0" inkscape:pagecheckerboard="0" inkscape:deskcolor="#d1d1d1" showgrid="false" inkscape:zoom="1.1123737" inkscape:cx="58.4336" inkscape:cy="396.4495" inkscape:window-width="1920" inkscape:window-height="1009" inkscape:window-x="-8" inkscape:window-y="-8" inkscape:window-maximized="1" inkscape:current-layer="Version_1.0" />
<g id="Octagon" display="none">
	
		<line id="mod2_1_" display="inline" fill="none" stroke="#0000ff" stroke-width="2" x1="203.966" y1="445.01501" x2="406.19901" y2="445.29501" />
	
		<line id="mod1_1_" display="inline" fill="none" stroke="#0000ff" stroke-width="2" x1="203.966" y1="346.98499" x2="406.19901" y2="346.70499" />
	<g id="outFrame" display="inline">
		<line fill="none" stroke="#0000ff" stroke-width="2" x1="220" y1="309.5" x2="306" y2="273" id="line2102" />
		<line fill="none" stroke="#0000ff" stroke-width="2" x1="306" y1="273" x2="390.5" y2="309.5" id="line2104" />
		<line fill="none" stroke="#0000ff" stroke-width="2" x1="390.5" y1="309.5" x2="427" y2="396" id="line2106" />
		<line fill="none" stroke="#0000ff" stroke-width="2" x1="427" y1="396" x2="390.5" y2="482.5" id="line2108" />
		<line fill="none" stroke="#0000ff" stroke-width="2" x1="390.5" y1="482.5" x2="306" y2="516" id="line2110" />
		<line fill="none" stroke="#0000ff" stroke-width="2" x1="306" y1="516" x2="220" y2="482.5" id="line2112" />
		<line fill="none" stroke="#0000ff" stroke-width="2" x1="220" y1="482.5" x2="183" y2="396" id="line2114" />
		<line fill="none" stroke="#0000ff" stroke-width="2" x1="183" y1="396" x2="220" y2="309.5" id="line2116" />
	</g>
</g>

<g id="mod2" transform="matrix(0.6,0,0,0.6,122.03876,220.8816)">
	<path fill="none" stroke="#000000" stroke-width="5" d="m 147.176,398.398 c 0,12.438 -10.082,22.519 -22.518,22.519" id="path2410" />
	<path fill="none" stroke="#000000" stroke-width="5" d="m 147.176,399.268 c 0,-12.436 10.082,-22.518 22.519,-22.518 12.436,0 22.518,10.082 22.518,22.518" id="path2412" />
	<path fill="none" stroke="#000000" stroke-width="5" d="m 237.518,398.398 c 0,12.438 -10.081,22.519 -22.518,22.519 -12.436,0 -22.519,-10.081 -22.519,-22.519" id="path2414" />
	<path fill="none" stroke="#000000" stroke-width="5" d="m 237.518,399.268 c 0,-12.436 10.082,-22.518 22.519,-22.518 12.436,0 22.517,10.082 22.517,22.518" id="path2416" />
	<path fill="none" stroke="#000000" stroke-width="5" d="m 327.59,398.398 c 0,12.438 -10.082,22.519 -22.517,22.519 -12.438,0 -22.519,-10.081 -22.519,-22.519" id="path2418" />
	<path fill="none" stroke="#000000" stroke-width="5" d="m 327.59,399.268 c 0,-12.436 10.082,-22.518 22.521,-22.518 12.437,0 22.518,10.082 22.518,22.518" id="path2420" />
	<path fill="none" stroke="#000000" stroke-width="5" d="m 417.662,398.398 c 0,12.438 -10.082,22.519 -22.521,22.519 -12.436,0 -22.518,-10.081 -22.518,-22.519" id="path2422" />
	<path fill="none" stroke="#000000" stroke-width="5" d="m 417.662,399.268 c 0,-12.436 10.082,-22.518 22.518,-22.518 12.438,0 22.521,10.082 22.521,22.518" id="path2424" />
	<path fill="none" stroke="#000000" stroke-width="5" d="m 485.216,420.917 c -12.436,0 -22.517,-10.081 -22.517,-22.519" id="path2426" />
</g></svg>
