<?xml version="1.0" encoding="UTF-8" standalone="no"?>
<!-- Generator: Adobe Illustrator 16.0.0, SVG Export Plug-In . SVG Version: 6.00 Build 0)  -->

<svg version="1.1" id="Version_1.0" x="0px" y="0px" width="612px" height="792px" viewBox="0 0 612 792" enable-background="new 0 0 612 792" xml:space="preserve" sodipodi:docname="10832.svg" inkscape:version="1.2.2 (732a01da63, 2022-12-09)" xmlns:inkscape="http://www.inkscape.org/namespaces/inkscape" xmlns:sodipodi="http://sodipodi.sourceforge.net/DTD/sodipodi-0.dtd" xmlns="http://www.w3.org/2000/svg" xmlns:svg="http://www.w3.org/2000/svg"><defs id="defs6123"><pattern id="EMFhbasepattern" patternUnits="userSpaceOnUse" width="6" height="6" x="0" y="0" /></defs><sodipodi:namedview id="namedview6121" pagecolor="#ffffff" bordercolor="#666666" borderopacity="1.0" inkscape:showpageshadow="2" inkscape:pageopacity="0.0" inkscape:pagecheckerboard="0" inkscape:deskcolor="#d1d1d1" showgrid="false" inkscape:zoom="1.573134" inkscape:cx="243.46304" inkscape:cy="409.37389" inkscape:window-width="1920" inkscape:window-height="1009" inkscape:window-x="-8" inkscape:window-y="-8" inkscape:window-maximized="1" inkscape:current-layer="Version_1.0" />
<g id="Octagon" display="none">
	
		<line id="mod2_1_" display="inline" fill="none" stroke="#0000ff" stroke-width="2" x1="203.966" y1="445.01501" x2="406.19901" y2="445.29501" />
	
		<line id="mod1_1_" display="inline" fill="none" stroke="#0000ff" stroke-width="2" x1="203.966" y1="346.98499" x2="406.19901" y2="346.70499" />
	<g id="outFrame" display="inline">
		<line fill="none" stroke="#0000ff" stroke-width="2" x1="220" y1="309.5" x2="306" y2="273" id="line6099" />
		<line fill="none" stroke="#0000ff" stroke-width="2" x1="306" y1="273" x2="390.5" y2="309.5" id="line6101" />
		<line fill="none" stroke="#0000ff" stroke-width="2" x1="390.5" y1="309.5" x2="427" y2="396" id="line6103" />
		<line fill="none" stroke="#0000ff" stroke-width="2" x1="427" y1="396" x2="390.5" y2="482.5" id="line6105" />
		<line fill="none" stroke="#0000ff" stroke-width="2" x1="390.5" y1="482.5" x2="306" y2="516" id="line6107" />
		<line fill="none" stroke="#0000ff" stroke-width="2" x1="306" y1="516" x2="220" y2="482.5" id="line6109" />
		<line fill="none" stroke="#0000ff" stroke-width="2" x1="220" y1="482.5" x2="183" y2="396" id="line6111" />
		<line fill="none" stroke="#0000ff" stroke-width="2" x1="183" y1="396" x2="220" y2="309.5" id="line6113" />
	</g>
</g><g id="mod2" transform="translate(0,-0.90047)" style="stroke-width:1;stroke-dasharray:none;fill:#000000;fill-opacity:1"><path d="m 344.91184,473.70119 q 4.76146,0 7.21222,-1.61049 2.48577,-1.6105 3.29101,-3.92121 0.84026,-2.31071 1.08534,-7.70238 0.24507,-5.98684 2.66082,-8.89274 2.45075,-2.9409 8.01747,-2.9409 v 1.33041 q -1.99561,0.14004 -2.73084,1.57548 -0.70022,1.40043 -0.70022,5.98685 0,6.72207 -1.43544,10.3982 -1.40043,3.64113 -5.67175,5.91683 -4.27131,2.2757 -11.72861,2.45075 v 11.09842 q 0,4.09627 0.45514,5.32164 0.49015,1.19037 1.99561,1.9256 1.54048,0.73522 4.72646,0.73522 v 1.2954 h -21.0765 v -1.2954 q 3.11596,-0.035 4.62143,-0.6652 1.54047,-0.66521 2.03062,-1.89058 0.52516,-1.26039 0.52516,-5.42668 v -11.09842 q -7.52732,-0.17505 -11.6936,-2.41574 -4.16628,-2.24069 -5.67175,-5.8468 -1.47045,-3.64113 -1.47045,-10.53825 0,-4.41136 -0.66521,-5.8468 -0.6652,-1.47046 -2.76585,-1.68052 v -1.33041 q 3.53609,0.07 5.70676,1.12034 2.17067,1.05033 3.46607,3.71115 1.33041,2.66082 1.50546,7.00215 0.24508,5.35666 1.01532,7.66737 0.80524,2.31071 3.32602,3.95622 2.52078,1.61049 7.24723,1.61049 v -15.2647 q 0,-4.09626 -0.49015,-5.28663 -0.45514,-1.22538 -1.9606,-1.92559 -1.50547,-0.70022 -4.72646,-0.73523 v -1.2954 h 21.0765 v 1.2954 q -3.22099,0.035 -4.72646,0.73523 -1.50546,0.6652 -1.99561,1.89058 -0.45514,1.22538 -0.45514,5.32164 z" style="font-size:71.7021px;stroke-width:1;stroke-dasharray:none;fill:#000000;fill-opacity:1" id="path7000" /></g>

</svg>
