<?xml version="1.0" encoding="UTF-8" standalone="no"?>
<svg
   xmlns:dc="http://purl.org/dc/elements/1.1/"
   xmlns:cc="http://creativecommons.org/ns#"
   xmlns:rdf="http://www.w3.org/1999/02/22-rdf-syntax-ns#"
   xmlns:svg="http://www.w3.org/2000/svg"
   xmlns="http://www.w3.org/2000/svg"
   xmlns:sodipodi="http://sodipodi.sourceforge.net/DTD/sodipodi-0.dtd"
   xmlns:inkscape="http://www.inkscape.org/namespaces/inkscape"
   version="1.1"
   id="Version_1.0"
   width="612"
   height="792"
   viewBox="0 0 612 792"
   overflow="visible"
   enable-background="new 0 0 612 792"
   xml:space="preserve"
   sodipodi:docname="378.svg"
   inkscape:version="1.0 (4035a4fb49, 2020-05-01)"><metadata
     id="metadata852"><rdf:RDF><cc:Work
         rdf:about=""><dc:format>image/svg+xml</dc:format><dc:type
           rdf:resource="http://purl.org/dc/dcmitype/StillImage" /><dc:title></dc:title></cc:Work></rdf:RDF></metadata><defs
     id="defs850" /><sodipodi:namedview
     inkscape:current-layer="Version_1.0"
     inkscape:window-maximized="1"
     inkscape:window-y="-8"
     inkscape:window-x="1912"
     inkscape:cy="396"
     inkscape:cx="306"
     inkscape:zoom="1.1464646"
     inkscape:document-rotation="0"
     pagecolor="#ffffff"
     bordercolor="#666666"
     borderopacity="1"
     objecttolerance="10"
     gridtolerance="10"
     guidetolerance="10"
     inkscape:pageopacity="0"
     inkscape:pageshadow="2"
     inkscape:window-width="1920"
     inkscape:window-height="1017"
     id="namedview848"
     showgrid="false" /><g
     id="octagon"
     display="none"><polygon
       fill="none"
       stroke="#0000FF"
       stroke-width="2"
       points="305,516.5 218.733,480.768 183,394.5 218.733,308.233 305,272.5    391.268,308.233 427,394.5 391.268,480.768  "
       id="octagonOutline" /><line
       fill="none"
       stroke="#0000FF"
       stroke-width="2"
       x1="202.5"
       y1="345.7"
       x2="407.5"
       y2="345.7"
       id="mod1" /><line
       fill="none"
       stroke="#0000FF"
       stroke-width="2"
       x1="202.5"
       y1="443.3"
       x2="407.5"
       y2="443.3"
       id="mod2" /><path
       id="amplifierD"
       style="fill:none;stroke:#0000ff;stroke-width:1.999;stroke-linecap:butt;stroke-linejoin:miter;stroke-miterlimit:4;stroke-dasharray:none;stroke-opacity:1"
       d="m 179.56,317.5 126.44,-73 127.44223,72.99999 m -253.88223,0 v 0 -80.26865 0 h 253.88223 v 80.26865 0" /><rect
       style="fill:none;fill-opacity:1;stroke:#0000ff;stroke-width:1.99172;stroke-linecap:round;stroke-linejoin:miter;stroke-miterlimit:4;stroke-dasharray:none;stroke-opacity:1;paint-order:markers fill stroke"
       id="amplifierAC"
       width="168.22823"
       height="97.589767"
       x="441.47321"
       y="150.52045" /><rect
       y="248.11023"
       x="441.47321"
       height="97.589767"
       width="168.22823"
       id="amplifierG"
       style="fill:none;fill-opacity:1;stroke:#0000ff;stroke-width:1.99172;stroke-linecap:round;stroke-linejoin:miter;stroke-miterlimit:4;stroke-dasharray:none;stroke-opacity:1;paint-order:markers fill stroke" /><rect
       style="fill:none;fill-opacity:1;stroke:#0000ff;stroke-width:1.99172;stroke-linecap:round;stroke-linejoin:miter;stroke-miterlimit:4;stroke-dasharray:none;stroke-opacity:1;paint-order:markers fill stroke"
       id="amplifierH"
       width="168.22823"
       height="97.589767"
       x="441.47321"
       y="345.70001" /><rect
       y="443.28979"
       x="441.47321"
       height="97.589767"
       width="168.22823"
       id="amplifierM"
       style="fill:none;fill-opacity:1;stroke:#0000ff;stroke-width:1.99172;stroke-linecap:round;stroke-linejoin:miter;stroke-miterlimit:4;stroke-dasharray:none;stroke-opacity:1;paint-order:markers fill stroke" /><rect
       style="fill:none;fill-opacity:1;stroke:#0000ff;stroke-width:1.99172;stroke-linecap:round;stroke-linejoin:miter;stroke-miterlimit:4;stroke-dasharray:none;stroke-opacity:1;paint-order:markers fill stroke"
       id="amplifierJKP"
       width="168.22823"
       height="97.589767"
       x="441.47321"
       y="540.87958" /><rect
       y="150.52045"
       x="2.8270514"
       height="97.589767"
       width="168.22823"
       id="amplifierW"
       style="fill:none;fill-opacity:1;stroke:#0000ff;stroke-width:1.99172;stroke-linecap:round;stroke-linejoin:miter;stroke-miterlimit:4;stroke-dasharray:none;stroke-opacity:1;paint-order:markers fill stroke" /><rect
       style="fill:none;fill-opacity:1;stroke:#0000ff;stroke-width:1.99172;stroke-linecap:round;stroke-linejoin:miter;stroke-miterlimit:4;stroke-dasharray:none;stroke-opacity:1;paint-order:markers fill stroke"
       id="amplifierXY"
       width="168.22823"
       height="97.589767"
       x="2.8270514"
       y="248.11021" /><rect
       y="345.69998"
       x="2.8270514"
       height="97.589767"
       width="168.22823"
       id="amplifierVAF"
       style="fill:none;fill-opacity:1;stroke:#0000ff;stroke-width:1.99172;stroke-linecap:round;stroke-linejoin:miter;stroke-miterlimit:4;stroke-dasharray:none;stroke-opacity:1;paint-order:markers fill stroke" /><rect
       style="fill:none;fill-opacity:1;stroke:#0000ff;stroke-width:1.99172;stroke-linecap:round;stroke-linejoin:miter;stroke-miterlimit:4;stroke-dasharray:none;stroke-opacity:1;paint-order:markers fill stroke"
       id="amplifierT"
       width="168.22823"
       height="97.589767"
       x="2.8270514"
       y="443.28973" /><rect
       y="540.87952"
       x="2.8270514"
       height="97.589767"
       width="168.22823"
       id="amplifierZ"
       style="fill:none;fill-opacity:1;stroke:#0000ff;stroke-width:1.99172;stroke-linecap:round;stroke-linejoin:miter;stroke-miterlimit:4;stroke-dasharray:none;stroke-opacity:1;paint-order:markers fill stroke" /><rect
       style="fill:none;fill-opacity:1;stroke:#0000ff;stroke-width:2.43953;stroke-linecap:round;stroke-linejoin:miter;stroke-miterlimit:4;stroke-dasharray:none;stroke-opacity:1;paint-order:markers fill stroke"
       id="amplifierAB"
       width="253.54138"
       height="97.141968"
       x="179.78391"
       y="139.86548" /><rect
       y="547.46027"
       x="179.45253"
       height="97.141968"
       width="253.54138"
       id="amplifierR"
       style="fill:none;fill-opacity:1;stroke:#0000ff;stroke-width:2.43953;stroke-linecap:round;stroke-linejoin:miter;stroke-miterlimit:4;stroke-dasharray:none;stroke-opacity:1;paint-order:markers fill stroke" /><path
       style="fill:#0000ff;stroke:#0000ff;stroke-width:1.999;stroke-linecap:butt;stroke-linejoin:miter;stroke-opacity:1;fill-opacity:1;stroke-miterlimit:4;stroke-dasharray:none"
       d="m 306.85589,644.52992 v 52.02633"
       id="amplifierQ" /></g><g
     transform="matrix(1.0227273,0,0,1.0227273,481.17035,307.61351)"
     id="g675"><path
       d="M 43.429921,-0.666 C 34.477386,24.194006 18.441827,45.670899 -2.2508889,61.330992 v 95.517178 c 13.0464919,8.65822 28.6762729,13.7192 45.4969879,13.7192 0.0616,0 0.122222,0 0.183822,0 0.0616,0 0.122223,0 0.183823,0 16.820715,0 32.450496,-5.06098 45.496988,-13.7192 V 61.330992 C 68.417038,45.670899 52.381479,24.194006 43.429921,-0.666 Z"
       id="path7798_1_"
       style="fill:#3c3624;fill-opacity:1"
       inkscape:connector-curvature="0" /><path
       d="M 43.442388,67.768927 C 31.739362,80.640396 18.105227,91.706888 2.9868234,100.52449 v 15.18611 c 8.8283576,12.71894 23.5023606,21.05279 40.1500086,21.05279 17.031914,0 31.999252,-8.72129 40.761121,-21.9389 v -14.3 C 68.779548,91.706888 55.145413,80.640396 43.442388,67.768927 Z m 0,13.780558 c 10.154619,9.974824 21.462476,18.759435 33.733341,26.125005 0.0045,0.003 -0.0045,0.0279 0,0.0305 -6.834192,11.69163 -19.526872,19.525 -34.038897,19.525 -14.402474,0 -27.016003,-7.73486 -33.8861179,-19.28056 C 21.689994,100.53094 33.1675,91.642392 43.442388,81.549427 Z"
       id="path7800_1_"
       style="fill:#f4e6d9;fill-opacity:1"
       inkscape:connector-curvature="0" /><path
       d="m 83.915797,122.35118 c -9.812002,11.57298 -24.440539,18.94445 -40.79192,18.94445 -16.010137,0 -30.385429,-7.05467 -40.1808092,-18.21111 v 13.23031 c 10.9022242,9.06107 24.9040052,14.51414 40.1808092,14.51414 15.558403,0 29.798762,-5.67111 40.79192,-15.03334 z"
       id="path7802_1_"
       style="fill:#f4e6d9;fill-opacity:1"
       inkscape:connector-curvature="0" /><path
       d="m 83.915797,141.17341 c -11.311913,8.668 -25.451561,13.84143 -40.79192,13.84143 -15.074404,0 -28.973518,-4.98569 -40.1808092,-13.38383 v 11.61111 c 11.6912912,7.20232 25.4456942,11.36667 40.1808092,11.36667 14.980537,0 28.971562,-4.30711 40.79192,-11.73333 z"
       id="path7804_1_"
       style="fill:#f4e6d9;fill-opacity:1"
       inkscape:connector-curvature="0" /><path
       d="M 43.429921,15.406715 C 33.845741,34.754986 19.933916,51.606012 2.9743567,64.662282 V 77.190551 C 18.973738,66.10646 32.739875,52.012768 43.429921,35.725919 54.11899,52.012768 67.885127,66.10646 83.885486,77.189573 V 64.662282 C 66.924949,51.606012 53.014101,34.754986 43.429921,15.406715 Z"
       id="path7806_1_"
       style="fill:#f4e6d9;fill-opacity:1"
       inkscape:connector-curvature="0" /><path
       d="M 43.429921,44.43401 C 32.396674,59.640414 18.671605,72.774906 2.9743567,83.148152 V 94.484511 C 18.264849,85.190731 31.916585,73.479884 43.429921,59.895614 54.94228,73.479884 68.594994,85.190731 83.885486,94.484511 V 83.148152 C 68.18726,72.774906 54.463168,59.640414 43.429921,44.43401 Z"
       id="path7808_1_"
       style="fill:#f4e6d9;fill-opacity:1"
       inkscape:connector-curvature="0" /></g></svg>
