<?xml version="1.0" encoding="UTF-8" standalone="no"?>
<!-- Generator: Adobe Illustrator 12.0.1, SVG Export Plug-In . SVG Version: 6.00 Build 51448)  -->

<svg version="1.1" id="Version_1.0" width="612" height="792" viewBox="0 0 612 792" overflow="visible" enable-background="new 0 0 612 792" xml:space="preserve" sodipodi:docname="27261.svg" inkscape:version="1.2.2 (732a01da63, 2022-12-09)" xmlns:inkscape="http://www.inkscape.org/namespaces/inkscape" xmlns:sodipodi="http://sodipodi.sourceforge.net/DTD/sodipodi-0.dtd" xmlns="http://www.w3.org/2000/svg" xmlns:svg="http://www.w3.org/2000/svg"><defs id="defs6044" /><sodipodi:namedview id="namedview6042" pagecolor="#ffffff" bordercolor="#666666" borderopacity="1.0" inkscape:showpageshadow="2" inkscape:pageopacity="0.0" inkscape:pagecheckerboard="0" inkscape:deskcolor="#d1d1d1" showgrid="false" inkscape:zoom="1.1123737" inkscape:cx="211.25993" inkscape:cy="420.72191" inkscape:window-width="1920" inkscape:window-height="1009" inkscape:window-x="-8" inkscape:window-y="-8" inkscape:window-maximized="1" inkscape:current-layer="Version_1.0" />
<g id="octagon" display="none">
	<polygon fill="none" stroke="#0000ff" stroke-width="2" points="183,394.5 218.733,308.233 305,272.5 391.268,308.233 427,394.5 391.268,480.768 305,516.5 218.733,480.768 " id="polygon6027" />
	<line fill="none" stroke="#0000ff" stroke-width="2" x1="202.5" y1="345.70001" x2="407.5" y2="345.70001" id="line6029" />
	<line fill="none" stroke="#0000ff" stroke-width="2" x1="202.5" y1="443.29999" x2="407.5" y2="443.29999" id="line6031" />
</g>
<g id="main" transform="matrix(0.6,0,0,0.6,122.36381,78.22658)">
	<path fill="none" stroke="#000000" stroke-width="5" d="m 261.659,351.621 c 0,71.906 16.594,77.438 45.909,88.5" id="path6034" />
	<path fill="none" stroke="#000000" stroke-width="5" d="m 350.159,351.621 c 0,71.906 -16.594,77.438 -45.909,88.5" id="path6036" />
	<path fill="none" stroke="#000000" stroke-width="5" d="m 260,351.621 c 23.785,13.828 23.785,13.828 45.91,0 22.125,13.828 22.125,13.828 45.909,0" id="path6038" />
</g>
</svg>
