<?xml version="1.0" encoding="UTF-8" standalone="no"?>
<!-- Generator: Adobe Illustrator 16.0.0, SVG Export Plug-In . SVG Version: 6.00 Build 0)  -->

<svg version="1.1" id="Version_1.0" x="0px" y="0px" width="612px" height="792px" viewBox="0 0 612 792" enable-background="new 0 0 612 792" xml:space="preserve" sodipodi:docname="C01042.svg" inkscape:version="1.2.2 (732a01da63, 2022-12-09)" xmlns:inkscape="http://www.inkscape.org/namespaces/inkscape" xmlns:sodipodi="http://sodipodi.sourceforge.net/DTD/sodipodi-0.dtd" xmlns="http://www.w3.org/2000/svg" xmlns:svg="http://www.w3.org/2000/svg"><defs id="defs3736" /><sodipodi:namedview id="namedview3734" pagecolor="#ffffff" bordercolor="#666666" borderopacity="1.0" inkscape:showpageshadow="2" inkscape:pageopacity="0.0" inkscape:pagecheckerboard="0" inkscape:deskcolor="#d1d1d1" showgrid="false" inkscape:zoom="1.1123737" inkscape:cx="58.4336" inkscape:cy="396.4495" inkscape:window-width="1920" inkscape:window-height="1009" inkscape:window-x="-8" inkscape:window-y="-8" inkscape:window-maximized="1" inkscape:current-layer="Version_1.0" />
<g id="octagon" display="none">
	<g id="outFrame" display="inline">
		<line fill="none" stroke="#0000ff" stroke-width="2" x1="220" y1="309.5" x2="306" y2="273" id="line3710" />
		<line fill="none" stroke="#0000ff" stroke-width="2" x1="306" y1="273" x2="390.5" y2="309.5" id="line3712" />
		<line fill="none" stroke="#0000ff" stroke-width="2" x1="390.5" y1="309.5" x2="427" y2="396" id="line3714" />
		<line fill="none" stroke="#0000ff" stroke-width="2" x1="427" y1="396" x2="390.5" y2="482.5" id="line3716" />
		<line fill="none" stroke="#0000ff" stroke-width="2" x1="390.5" y1="482.5" x2="306" y2="516" id="line3718" />
		<line fill="none" stroke="#0000ff" stroke-width="2" x1="306" y1="516" x2="220" y2="482.5" id="line3720" />
		<line fill="none" stroke="#0000ff" stroke-width="2" x1="220" y1="482.5" x2="183" y2="396" id="line3722" />
		<line fill="none" stroke="#0000ff" stroke-width="2" x1="183" y1="396" x2="220" y2="309.5" id="line3724" />
	</g>
	
		<line id="mod2_1_" display="inline" fill="none" stroke="#0000ff" stroke-width="2" x1="203.966" y1="445.01501" x2="406.19901" y2="445.29501" />
	
		<line id="mod1_1_" display="inline" fill="none" stroke="#0000ff" stroke-width="2" x1="203.966" y1="346.98499" x2="406.19901" y2="346.70499" />
</g>

<g id="main" transform="matrix(0.55,0,0,0.55,136.70096,255.82803)">
	<path fill="none" stroke="#000000" stroke-width="5" d="m 250.552,441 c -22.895,0 -41.457,-19.98 -41.457,-44.626 0,-24.646 18.562,-44.624 41.457,-44.624" id="path3579" />
	<path fill="none" stroke="#000000" stroke-width="5" d="m 361.448,351.75 c 22.896,0 41.457,19.979 41.457,44.624 0,24.645 -18.561,44.626 -41.457,44.626" id="path3581" />
	<line fill="none" stroke="#000000" stroke-width="5" x1="250.552" y1="351.75" x2="361.448" y2="351.75" id="line3583" />
	<line fill="none" stroke="#000000" stroke-width="5" x1="250.552" y1="441" x2="361.448" y2="441" id="line3585" />
</g></svg>
