<?xml version="1.0" encoding="UTF-8" standalone="no"?>
<svg
   xmlns:dc="http://purl.org/dc/elements/1.1/"
   xmlns:cc="http://creativecommons.org/ns#"
   xmlns:rdf="http://www.w3.org/1999/02/22-rdf-syntax-ns#"
   xmlns:svg="http://www.w3.org/2000/svg"
   xmlns="http://www.w3.org/2000/svg"
   xmlns:sodipodi="http://sodipodi.sourceforge.net/DTD/sodipodi-0.dtd"
   xmlns:inkscape="http://www.inkscape.org/namespaces/inkscape"
   version="1.1"
   id="Version_1.0"
   width="612"
   height="792"
   viewBox="0 0 612 792"
   overflow="visible"
   enable-background="new 0 0 612 792"
   xml:space="preserve"
   sodipodi:docname="379.svg"
   inkscape:version="1.0 (4035a4fb49, 2020-05-01)"><metadata
     id="metadata852"><rdf:RDF><cc:Work
         rdf:about=""><dc:format>image/svg+xml</dc:format><dc:type
           rdf:resource="http://purl.org/dc/dcmitype/StillImage" /><dc:title></dc:title></cc:Work></rdf:RDF></metadata><defs
     id="defs850" /><sodipodi:namedview
     inkscape:current-layer="Version_1.0"
     inkscape:window-maximized="1"
     inkscape:window-y="-8"
     inkscape:window-x="1912"
     inkscape:cy="396"
     inkscape:cx="306"
     inkscape:zoom="1.1464646"
     inkscape:document-rotation="0"
     pagecolor="#ffffff"
     bordercolor="#666666"
     borderopacity="1"
     objecttolerance="10"
     gridtolerance="10"
     guidetolerance="10"
     inkscape:pageopacity="0"
     inkscape:pageshadow="2"
     inkscape:window-width="1920"
     inkscape:window-height="1017"
     id="namedview848"
     showgrid="false" /><g
     id="octagon"
     display="none"><polygon
       fill="none"
       stroke="#0000FF"
       stroke-width="2"
       points="305,516.5 218.733,480.768 183,394.5 218.733,308.233 305,272.5    391.268,308.233 427,394.5 391.268,480.768  "
       id="octagonOutline" /><line
       fill="none"
       stroke="#0000FF"
       stroke-width="2"
       x1="202.5"
       y1="345.7"
       x2="407.5"
       y2="345.7"
       id="mod1" /><line
       fill="none"
       stroke="#0000FF"
       stroke-width="2"
       x1="202.5"
       y1="443.3"
       x2="407.5"
       y2="443.3"
       id="mod2" /><path
       id="amplifierD"
       style="fill:none;stroke:#0000ff;stroke-width:1.999;stroke-linecap:butt;stroke-linejoin:miter;stroke-miterlimit:4;stroke-dasharray:none;stroke-opacity:1"
       d="m 179.56,317.5 126.44,-73 127.44223,72.99999 m -253.88223,0 v 0 -80.26865 0 h 253.88223 v 80.26865 0" /><rect
       style="fill:none;fill-opacity:1;stroke:#0000ff;stroke-width:1.99172;stroke-linecap:round;stroke-linejoin:miter;stroke-miterlimit:4;stroke-dasharray:none;stroke-opacity:1;paint-order:markers fill stroke"
       id="amplifierAC"
       width="168.22823"
       height="97.589767"
       x="441.47321"
       y="150.52045" /><rect
       y="248.11023"
       x="441.47321"
       height="97.589767"
       width="168.22823"
       id="amplifierG"
       style="fill:none;fill-opacity:1;stroke:#0000ff;stroke-width:1.99172;stroke-linecap:round;stroke-linejoin:miter;stroke-miterlimit:4;stroke-dasharray:none;stroke-opacity:1;paint-order:markers fill stroke" /><rect
       style="fill:none;fill-opacity:1;stroke:#0000ff;stroke-width:1.99172;stroke-linecap:round;stroke-linejoin:miter;stroke-miterlimit:4;stroke-dasharray:none;stroke-opacity:1;paint-order:markers fill stroke"
       id="amplifierH"
       width="168.22823"
       height="97.589767"
       x="441.47321"
       y="345.70001" /><rect
       y="443.28979"
       x="441.47321"
       height="97.589767"
       width="168.22823"
       id="amplifierM"
       style="fill:none;fill-opacity:1;stroke:#0000ff;stroke-width:1.99172;stroke-linecap:round;stroke-linejoin:miter;stroke-miterlimit:4;stroke-dasharray:none;stroke-opacity:1;paint-order:markers fill stroke" /><rect
       style="fill:none;fill-opacity:1;stroke:#0000ff;stroke-width:1.99172;stroke-linecap:round;stroke-linejoin:miter;stroke-miterlimit:4;stroke-dasharray:none;stroke-opacity:1;paint-order:markers fill stroke"
       id="amplifierJKP"
       width="168.22823"
       height="97.589767"
       x="441.47321"
       y="540.87958" /><rect
       y="150.52045"
       x="2.8270514"
       height="97.589767"
       width="168.22823"
       id="amplifierW"
       style="fill:none;fill-opacity:1;stroke:#0000ff;stroke-width:1.99172;stroke-linecap:round;stroke-linejoin:miter;stroke-miterlimit:4;stroke-dasharray:none;stroke-opacity:1;paint-order:markers fill stroke" /><rect
       style="fill:none;fill-opacity:1;stroke:#0000ff;stroke-width:1.99172;stroke-linecap:round;stroke-linejoin:miter;stroke-miterlimit:4;stroke-dasharray:none;stroke-opacity:1;paint-order:markers fill stroke"
       id="amplifierXY"
       width="168.22823"
       height="97.589767"
       x="2.8270514"
       y="248.11021" /><rect
       y="345.69998"
       x="2.8270514"
       height="97.589767"
       width="168.22823"
       id="amplifierVAF"
       style="fill:none;fill-opacity:1;stroke:#0000ff;stroke-width:1.99172;stroke-linecap:round;stroke-linejoin:miter;stroke-miterlimit:4;stroke-dasharray:none;stroke-opacity:1;paint-order:markers fill stroke" /><rect
       style="fill:none;fill-opacity:1;stroke:#0000ff;stroke-width:1.99172;stroke-linecap:round;stroke-linejoin:miter;stroke-miterlimit:4;stroke-dasharray:none;stroke-opacity:1;paint-order:markers fill stroke"
       id="amplifierT"
       width="168.22823"
       height="97.589767"
       x="2.8270514"
       y="443.28973" /><rect
       y="540.87952"
       x="2.8270514"
       height="97.589767"
       width="168.22823"
       id="amplifierZ"
       style="fill:none;fill-opacity:1;stroke:#0000ff;stroke-width:1.99172;stroke-linecap:round;stroke-linejoin:miter;stroke-miterlimit:4;stroke-dasharray:none;stroke-opacity:1;paint-order:markers fill stroke" /><rect
       style="fill:none;fill-opacity:1;stroke:#0000ff;stroke-width:2.43953;stroke-linecap:round;stroke-linejoin:miter;stroke-miterlimit:4;stroke-dasharray:none;stroke-opacity:1;paint-order:markers fill stroke"
       id="amplifierAB"
       width="253.54138"
       height="97.141968"
       x="179.78391"
       y="139.86548" /><rect
       y="547.46027"
       x="179.45253"
       height="97.141968"
       width="253.54138"
       id="amplifierR"
       style="fill:none;fill-opacity:1;stroke:#0000ff;stroke-width:2.43953;stroke-linecap:round;stroke-linejoin:miter;stroke-miterlimit:4;stroke-dasharray:none;stroke-opacity:1;paint-order:markers fill stroke" /><path
       style="fill:#0000ff;stroke:#0000ff;stroke-width:1.999;stroke-linecap:butt;stroke-linejoin:miter;stroke-opacity:1;fill-opacity:1;stroke-miterlimit:4;stroke-dasharray:none"
       d="m 306.85589,644.52992 v 52.02633"
       id="amplifierQ" /></g><g
     transform="translate(147.30607,-140.3045)"
     id="layer1"><path
       d="m 378.28125,447.23686 c -9.15529,25.42539 -25.55617,47.38993 -46.71875,63.40625 v 97.6875 c 13.34263,8.85651 29.32802,14.03125 46.53125,14.03125 0.0623,0 0.12522,1.4e-4 0.1875,0 0.0623,1.4e-4 0.12519,0 0.1875,0 17.20323,0 33.18862,-5.17474 46.53125,-14.03125 v -97.6875 c -21.16258,-16.01632 -37.56343,-37.98086 -46.71875,-63.40625 z"
       id="path7798"
       style="fill:#3c3624;fill-opacity:1;stroke:none;stroke-width:0;stroke-miterlimit:4;stroke-dasharray:none;stroke-opacity:1"
       inkscape:connector-curvature="0" /><path
       d="m 378.28175,517.237 c -11.96861,13.16411 -25.91245,24.48212 -41.375,33.5 v 15.53125 c 9.02951,13.00905 24.03684,21.53126 41.0625,21.53125 17.41835,1e-5 32.72636,-8.91891 41.6875,-22.4375 v -14.625 c -15.46255,-9.01788 -29.40636,-20.33589 -41.375,-33.5 z m 0,14.09375 c 10.38409,10.20017 21.9519,19.18656 34.5,26.71875 -6.98911,11.9575 -19.97098,20 -34.8125,20 -14.72097,0 -27.59642,-7.92184 -34.625,-19.71875 12.72097,-7.5865 24.42996,-16.67857 34.9375,-27 z"
       id="path7800"
       style="fill:#f4e6d9;fill-opacity:1;stroke:none;stroke-width:0;stroke-miterlimit:4;stroke-dasharray:none;stroke-opacity:1"
       inkscape:connector-curvature="0" /><path
       d="m 419.6875,573.04936 c -10.03526,11.83628 -24.99593,19.375 -41.71875,19.375 -16.3737,0 -31.07557,-7.21385 -41.09375,-18.625 v 13.53125 c 11.15031,9.267 25.46949,14.84375 41.09375,14.84375 15.91233,0 30.47584,-5.79912 41.71875,-15.375 z"
       id="path7802"
       style="fill:#f4e6d9;fill-opacity:1;stroke:none;stroke-width:0;stroke-miterlimit:4;stroke-dasharray:none;stroke-opacity:1"
       inkscape:connector-curvature="0" /><path
       d="m 419.6875,592.29936 c -11.56973,8.86625 -26.02972,14.15625 -41.71875,14.15625 -15.41699,10e-6 -29.63252,-5.09799 -41.09375,-13.6875 v 11.875 c 11.95718,7.36665 26.02373,11.62499 41.09375,11.625 15.32168,0 29.62926,-4.40483 41.71875,-12 z"
       id="path7804"
       style="fill:#f4e6d9;fill-opacity:1;stroke:none;stroke-width:0;stroke-miterlimit:4;stroke-dasharray:none;stroke-opacity:1"
       inkscape:connector-curvature="0" /><path
       d="m 378.28125,463.67436 c -9.80201,19.78862 -24.02909,37.02277 -41.375,50.375 v 12.8125 c 16.36319,-11.3349 30.44222,-25.74882 41.375,-42.40625 10.93278,16.65743 25.01184,31.07135 41.375,42.40625 v -12.8125 c -17.34591,-13.35223 -31.57296,-30.58638 -41.375,-50.375 z"
       id="path7806"
       style="fill:#f4e6d9;fill-opacity:1;stroke:none;stroke-width:0;stroke-miterlimit:4;stroke-dasharray:none;stroke-opacity:1"
       inkscape:connector-curvature="0" /><path
       d="m 378.28125,493.36186 c -11.28393,15.5519 -25.32034,28.98516 -41.375,39.59375 v 11.59375 c 15.63772,-9.50463 29.59998,-21.48184 41.375,-35.375 11.77503,13.89316 25.7373,25.87037 41.375,35.375 v -11.59375 c -16.05466,-10.60859 -30.09105,-24.04185 -41.375,-39.59375 z"
       id="path7808"
       style="fill:#f4e6d9;fill-opacity:1;stroke:none;stroke-width:0;stroke-miterlimit:4;stroke-dasharray:none;stroke-opacity:1"
       inkscape:connector-curvature="0" /><path
       d="m 780.55103,666.22891 3.65879,11.56332 12.128,-0.0935 -9.86675,7.05297 3.83673,11.50551 -9.75677,-7.20434 -9.75678,7.20434 3.83673,-11.50551 -9.86675,-7.05297 12.12801,0.0935 z"
       transform="matrix(1.11363,0,0,1.11363,-491.0581,-202.5907)"
       id="path7814"
       style="fill:#f4e6d9;fill-opacity:1;stroke:none;stroke-width:0;stroke-miterlimit:4;stroke-dasharray:none;stroke-opacity:1"
       inkscape:connector-curvature="0" /></g></svg>
