<?xml version="1.0" encoding="UTF-8" standalone="no"?>
<!-- Generator: Adobe Illustrator 12.0.1, SVG Export Plug-In . SVG Version: 6.00 Build 51448)  -->

<svg version="1.1" id="Version_1.0" width="612" height="792" viewBox="0 0 612 792" overflow="visible" enable-background="new 0 0 612 792" xml:space="preserve" sodipodi:docname="10381.svg" inkscape:version="1.2.2 (732a01da63, 2022-12-09)" xmlns:inkscape="http://www.inkscape.org/namespaces/inkscape" xmlns:sodipodi="http://sodipodi.sourceforge.net/DTD/sodipodi-0.dtd" xmlns="http://www.w3.org/2000/svg" xmlns:svg="http://www.w3.org/2000/svg"><defs id="defs11775" /><sodipodi:namedview id="namedview11773" pagecolor="#ffffff" bordercolor="#666666" borderopacity="1.0" inkscape:showpageshadow="2" inkscape:pageopacity="0.0" inkscape:pagecheckerboard="0" inkscape:deskcolor="#d1d1d1" showgrid="false" inkscape:zoom="2.2247475" inkscape:cx="250.81498" inkscape:cy="370.8286" inkscape:window-width="1920" inkscape:window-height="1009" inkscape:window-x="-8" inkscape:window-y="-8" inkscape:window-maximized="1" inkscape:current-layer="Version_1.0" />
<g id="octagon" display="none">
	<polygon fill="none" stroke="#0000ff" stroke-width="2" points="183,394.5 218.733,308.233 305,272.5 391.268,308.233 427,394.5 391.268,480.768 305,516.5 218.733,480.768 " id="polygon11762" />
	<line fill="none" stroke="#0000ff" stroke-width="2" x1="202.5" y1="345.70001" x2="407.5" y2="345.70001" id="line11764" />
	<line fill="none" stroke="#0000ff" stroke-width="2" x1="202.5" y1="443.29999" x2="407.5" y2="443.29999" id="line11766" />
</g>

<g id="mod1" transform="translate(2.8487488,-4)"><g id="g11916" transform="matrix(1.04696,0,0,1.04696,6.191029,-14.329486)">
	
	<g id="g11908"><line id="line11904" fill="none" stroke="#000000" stroke-width="8" x1="313.25" y1="294.5" x2="313.25" y2="344.5" /><line id="line11906" fill="none" stroke="#000000" stroke-width="8" x1="338.25" y1="319.5" x2="288.25" y2="319.5" /></g>
<g id="g11914"><line id="line11910" fill="none" stroke="#000000" stroke-width="8" x1="313.25" y1="294.5" x2="313.25" y2="344.5" /><line id="line11912" fill="none" stroke="#000000" stroke-width="8" x1="338.25" y1="319.5" x2="288.25" y2="319.5" /></g></g><g id="g12061" transform="matrix(1.04696,0,0,1.04696,-57.808971,-14.329486)">
	
	<g id="g12053"><line id="line12049" fill="none" stroke="#000000" stroke-width="8" x1="313.25" y1="294.5" x2="313.25" y2="344.5" /><line id="line12051" fill="none" stroke="#000000" stroke-width="8" x1="338.25" y1="319.5" x2="288.25" y2="319.5" /></g>
<g id="g12059"><line id="line12055" fill="none" stroke="#000000" stroke-width="8" x1="313.25" y1="294.5" x2="313.25" y2="344.5" /><line id="line12057" fill="none" stroke="#000000" stroke-width="8" x1="338.25" y1="319.5" x2="288.25" y2="319.5" /></g></g></g></svg>
