<?xml version="1.0" encoding="UTF-8" standalone="no"?>
<svg
   xmlns:dc="http://purl.org/dc/elements/1.1/"
   xmlns:cc="http://creativecommons.org/ns#"
   xmlns:rdf="http://www.w3.org/1999/02/22-rdf-syntax-ns#"
   xmlns:svg="http://www.w3.org/2000/svg"
   xmlns="http://www.w3.org/2000/svg"
   xmlns:sodipodi="http://sodipodi.sourceforge.net/DTD/sodipodi-0.dtd"
   xmlns:inkscape="http://www.inkscape.org/namespaces/inkscape"
   version="1.1"
   id="Version_1.0"
   width="612"
   height="792"
   viewBox="0 0 612 792"
   overflow="visible"
   enable-background="new 0 0 612 792"
   xml:space="preserve"
   sodipodi:docname="377.svg"
   inkscape:version="1.0 (4035a4fb49, 2020-05-01)"><metadata
     id="metadata852"><rdf:RDF><cc:Work
         rdf:about=""><dc:format>image/svg+xml</dc:format><dc:type
           rdf:resource="http://purl.org/dc/dcmitype/StillImage" /><dc:title /></cc:Work></rdf:RDF></metadata><defs
     id="defs850" /><sodipodi:namedview
     inkscape:snap-nodes="false"
     inkscape:current-layer="Version_1.0"
     inkscape:window-maximized="1"
     inkscape:window-y="-8"
     inkscape:window-x="1912"
     inkscape:cy="412.84109"
     inkscape:cx="411.96871"
     inkscape:zoom="2.1919192"
     inkscape:document-rotation="0"
     pagecolor="#ffffff"
     bordercolor="#666666"
     borderopacity="1"
     objecttolerance="10"
     gridtolerance="10"
     guidetolerance="10"
     inkscape:pageopacity="0"
     inkscape:pageshadow="2"
     inkscape:window-width="1920"
     inkscape:window-height="1017"
     id="namedview848"
     showgrid="false" /><g
     id="octagon"
     display="none"><polygon
       fill="none"
       stroke="#0000FF"
       stroke-width="2"
       points="305,516.5 218.733,480.768 183,394.5 218.733,308.233 305,272.5    391.268,308.233 427,394.5 391.268,480.768  "
       id="octagonOutline" /><line
       fill="none"
       stroke="#0000FF"
       stroke-width="2"
       x1="202.5"
       y1="345.7"
       x2="407.5"
       y2="345.7"
       id="mod1" /><line
       fill="none"
       stroke="#0000FF"
       stroke-width="2"
       x1="202.5"
       y1="443.3"
       x2="407.5"
       y2="443.3"
       id="mod2" /><path
       id="amplifierD"
       style="fill:none;stroke:#0000ff;stroke-width:1.999;stroke-linecap:butt;stroke-linejoin:miter;stroke-miterlimit:4;stroke-dasharray:none;stroke-opacity:1"
       d="m 179.56,317.5 126.44,-73 127.44223,72.99999 m -253.88223,0 v 0 -80.26865 0 h 253.88223 v 80.26865 0" /><rect
       style="fill:none;fill-opacity:1;stroke:#0000ff;stroke-width:1.99172;stroke-linecap:round;stroke-linejoin:miter;stroke-miterlimit:4;stroke-dasharray:none;stroke-opacity:1;paint-order:markers fill stroke"
       id="amplifierAC"
       width="168.22823"
       height="97.589767"
       x="441.47321"
       y="150.52045" /><rect
       y="248.11023"
       x="441.47321"
       height="97.589767"
       width="168.22823"
       id="amplifierG"
       style="fill:none;fill-opacity:1;stroke:#0000ff;stroke-width:1.99172;stroke-linecap:round;stroke-linejoin:miter;stroke-miterlimit:4;stroke-dasharray:none;stroke-opacity:1;paint-order:markers fill stroke" /><rect
       style="fill:none;fill-opacity:1;stroke:#0000ff;stroke-width:1.99172;stroke-linecap:round;stroke-linejoin:miter;stroke-miterlimit:4;stroke-dasharray:none;stroke-opacity:1;paint-order:markers fill stroke"
       id="amplifierH"
       width="168.22823"
       height="97.589767"
       x="441.47321"
       y="345.70001" /><rect
       y="443.28979"
       x="441.47321"
       height="97.589767"
       width="168.22823"
       id="amplifierM"
       style="fill:none;fill-opacity:1;stroke:#0000ff;stroke-width:1.99172;stroke-linecap:round;stroke-linejoin:miter;stroke-miterlimit:4;stroke-dasharray:none;stroke-opacity:1;paint-order:markers fill stroke" /><rect
       style="fill:none;fill-opacity:1;stroke:#0000ff;stroke-width:1.99172;stroke-linecap:round;stroke-linejoin:miter;stroke-miterlimit:4;stroke-dasharray:none;stroke-opacity:1;paint-order:markers fill stroke"
       id="amplifierJKP"
       width="168.22823"
       height="97.589767"
       x="441.47321"
       y="540.87958" /><rect
       y="150.52045"
       x="2.8270514"
       height="97.589767"
       width="168.22823"
       id="amplifierW"
       style="fill:none;fill-opacity:1;stroke:#0000ff;stroke-width:1.99172;stroke-linecap:round;stroke-linejoin:miter;stroke-miterlimit:4;stroke-dasharray:none;stroke-opacity:1;paint-order:markers fill stroke" /><rect
       style="fill:none;fill-opacity:1;stroke:#0000ff;stroke-width:1.99172;stroke-linecap:round;stroke-linejoin:miter;stroke-miterlimit:4;stroke-dasharray:none;stroke-opacity:1;paint-order:markers fill stroke"
       id="amplifierXY"
       width="168.22823"
       height="97.589767"
       x="2.8270514"
       y="248.11021" /><rect
       y="345.69998"
       x="2.8270514"
       height="97.589767"
       width="168.22823"
       id="amplifierVAF"
       style="fill:none;fill-opacity:1;stroke:#0000ff;stroke-width:1.99172;stroke-linecap:round;stroke-linejoin:miter;stroke-miterlimit:4;stroke-dasharray:none;stroke-opacity:1;paint-order:markers fill stroke" /><rect
       style="fill:none;fill-opacity:1;stroke:#0000ff;stroke-width:1.99172;stroke-linecap:round;stroke-linejoin:miter;stroke-miterlimit:4;stroke-dasharray:none;stroke-opacity:1;paint-order:markers fill stroke"
       id="amplifierT"
       width="168.22823"
       height="97.589767"
       x="2.8270514"
       y="443.28973" /><rect
       y="540.87952"
       x="2.8270514"
       height="97.589767"
       width="168.22823"
       id="amplifierZ"
       style="fill:none;fill-opacity:1;stroke:#0000ff;stroke-width:1.99172;stroke-linecap:round;stroke-linejoin:miter;stroke-miterlimit:4;stroke-dasharray:none;stroke-opacity:1;paint-order:markers fill stroke" /><rect
       style="fill:none;fill-opacity:1;stroke:#0000ff;stroke-width:2.43953;stroke-linecap:round;stroke-linejoin:miter;stroke-miterlimit:4;stroke-dasharray:none;stroke-opacity:1;paint-order:markers fill stroke"
       id="amplifierAB"
       width="253.54138"
       height="97.141968"
       x="179.78391"
       y="139.86548" /><rect
       y="547.46027"
       x="179.45253"
       height="97.141968"
       width="253.54138"
       id="amplifierR"
       style="fill:none;fill-opacity:1;stroke:#0000ff;stroke-width:2.43953;stroke-linecap:round;stroke-linejoin:miter;stroke-miterlimit:4;stroke-dasharray:none;stroke-opacity:1;paint-order:markers fill stroke" /><path
       style="fill:#0000ff;stroke:#0000ff;stroke-width:1.999;stroke-linecap:butt;stroke-linejoin:miter;stroke-opacity:1;fill-opacity:1;stroke-miterlimit:4;stroke-dasharray:none"
       d="m 306.85589,644.52992 v 52.02633"
       id="amplifierQ" /></g><g
     transform="translate(0,22.753418)"
     id="g1332"><g
       id="g869"><g
         transform="matrix(1.4,0,0,1.4,418.256,-53.938894)"
         id="g16621"><g
           transform="matrix(1.0833259,0,0,1.0833259,-250.31789,-86.545329)"
           id="g16623"><path
             sodipodi:nodetypes="ccccccc"
             style="fill:#636a3e;fill-opacity:1;fill-rule:evenodd;stroke:#444a2a;stroke-width:0.923083;stroke-miterlimit:4;stroke-dasharray:none;stroke-opacity:1"
             id="path16625"
             d="m 267.85388,348.31269 -0.0812,38.47363 c 14.75659,1.94506 26.90379,10.39473 34.05996,15.95086 7.15617,-5.55613 19.30337,-14.0058 34.05996,-15.95086 l -0.0812,-38.47363 c -14.97239,1.55319 -23.87236,7.01632 -33.97876,14.14833 -10.1064,-7.13201 -19.00637,-12.59514 -33.97876,-14.14833 z"
             inkscape:connector-curvature="0" /></g></g><g
         id="g840"><path
           style="fill:#d0d1a9;fill-opacity:1;stroke:#444a2a;stroke-width:0.4;stroke-linecap:butt;stroke-linejoin:miter;stroke-miterlimit:4;stroke-dasharray:none;stroke-opacity:1"
           d="m 480.29102,360.36785 c 11.4522,1.61299 30.40967,11.13851 45.24914,21.78422 13.79102,-10.64571 33.89125,-20.00994 45.34345,-21.78422 l 0.0806,8.32341 c -14.03297,1.45169 -38.92637,17.8058 -45.37831,22.56411 -8.62947,-7.01649 -34.59032,-21.64138 -45.23602,-22.60917 z"
           id="path28148"
           sodipodi:nodetypes="ccccccc" /><path
           sodipodi:nodetypes="ccccccc"
           id="path28150"
           d="m 480.29104,378.51394 c 11.4522,1.61299 30.40967,11.13851 45.24914,21.78422 13.79102,-10.64571 33.89125,-20.00994 45.34345,-21.78422 l 0.0806,8.32341 c -14.03297,1.45169 -38.92637,17.8058 -45.37831,22.56411 -8.62947,-7.01649 -34.59032,-21.64138 -45.23602,-22.60917 z"
           style="fill:#d0d1a9;fill-opacity:1;stroke:#444a2a;stroke-width:0.4;stroke-linecap:butt;stroke-linejoin:miter;stroke-miterlimit:4;stroke-dasharray:none;stroke-opacity:1" /><path
           style="fill:#d0d1a9;fill-opacity:1;stroke:#444a2a;stroke-width:0.4;stroke-linecap:butt;stroke-linejoin:miter;stroke-miterlimit:4;stroke-dasharray:none;stroke-opacity:1"
           d="m 480.29104,396.57938 c 11.4522,1.61299 30.40967,11.13851 45.24914,21.78422 13.79102,-10.64571 33.89125,-20.00994 45.34345,-21.78422 l 0.0806,8.32341 c -14.03297,1.45169 -38.92637,17.8058 -45.37831,22.56411 -8.62947,-7.01649 -34.59032,-21.64138 -45.23602,-22.60917 z"
           id="path28152"
           sodipodi:nodetypes="ccccccc" /></g></g><g
       id="g16659"
       transform="matrix(1.4,0,0,1.4,417.85677,-54.158126)"><g
         style="stroke-width:0.534158;stroke-miterlimit:4;stroke-dasharray:none"
         transform="matrix(0.56163125,0,0,0.56163125,-50.43304,65.266883)"
         id="g16026"><path
           style="fill:#636a3e;fill-opacity:1;fill-rule:evenodd;stroke:#444a2a;stroke-width:1.78053;stroke-linecap:butt;stroke-linejoin:miter;stroke-miterlimit:4;stroke-dasharray:none;stroke-opacity:1"
           d="m 208.8495,395.28425 -10.21213,-24.9595 c -1.82383,-7.84761 0.48744,-13.07781 4.5939,-15.70978 4.65345,-2.98256 11.6122,-2.62862 17.47122,1.0339 v -11.53942 l 5.59949,-0.25086 5.5995,0.25086 v 11.53942 c 5.85902,-3.66252 12.81777,-4.01646 17.47122,-1.0339 4.10646,2.63197 6.41773,7.86217 4.5939,15.70978 l -10.21213,24.9595 c -2.55949,3.53558 -12.69408,4.51541 -17.45249,4.51541 -4.7584,0 -14.89299,-0.97983 -17.45248,-4.51541 z"
           id="path16028"
           inkscape:connector-curvature="0"
           sodipodi:nodetypes="ccscccccsccsc" /><g
           id="g16030"
           style="fill:#d0d1a9;fill-opacity:1;stroke:#636a3e;stroke-width:0.353781;stroke-miterlimit:4;stroke-dasharray:none;stroke-opacity:1"
           transform="matrix(1.5098577,0,0,1.5098577,80.066982,177.69162)"><g
             transform="matrix(0.36815683,0,0,0.36815683,79.767201,111.97682)"
             id="g16032"
             style="fill:#d0d1a9;fill-opacity:1;stroke:#636a3e;stroke-width:0.960951;stroke-miterlimit:4;stroke-dasharray:none;stroke-opacity:1"><g
               id="g16034"
               transform="matrix(-1,0,0,1,92.820764,0)"
               style="fill:#d0d1a9;fill-opacity:1;stroke:#636a3e;stroke-width:0.960951;stroke-miterlimit:4;stroke-dasharray:none;stroke-opacity:1"><path
                 sodipodi:nodetypes="sssccssssccsss"
                 inkscape:connector-curvature="0"
                 d="m 19.53125,20.625 c -2.207518,-0.104183 -4.56383,0.240775 -7,1.28125 C 6.5980651,24.440281 4.2852623,30.137747 4.5,35.59375 4.7147377,41.049753 6.9755572,46.59503 9.84375,50.875 L 14,48.09375 C 11.594864,44.504762 9.6632145,39.553165 9.5,35.40625 9.3367855,31.259335 10.444377,28.232135 14.5,26.5 c 3.570169,-1.5248 6.2225,-1.044129 9.40625,0.1875 3.18375,1.231629 6.652194,3.386825 10.9375,4.71875 6.740419,2.095004 10.6875,1.53125 10.6875,1.53125 v -5 c 0,0 -3.514555,0.45072 -9.1875,-1.3125 -3.507612,-1.090208 -6.832744,-3.126721 -10.625,-4.59375 -1.896128,-0.733514 -3.979982,-1.302067 -6.1875,-1.40625 z"
                 style="color:#000000;font-style:normal;font-variant:normal;font-weight:normal;font-stretch:normal;font-size:medium;line-height:normal;font-family:Sans;-inkscape-font-specification:Sans;text-indent:0;text-align:start;text-decoration:none;text-decoration-line:none;letter-spacing:normal;word-spacing:normal;text-transform:none;writing-mode:lr-tb;direction:ltr;baseline-shift:baseline;text-anchor:start;display:inline;overflow:visible;visibility:visible;fill:#d0d1a9;fill-opacity:1;stroke:#636a3e;stroke-width:0.960951;stroke-miterlimit:4;stroke-dasharray:none;stroke-opacity:1;marker:none;enable-background:accumulate"
                 id="path16036" /><g
                 id="g16038"
                 style="fill:#d0d1a9;fill-opacity:1;stroke:#636a3e;stroke-width:0.960951;stroke-miterlimit:4;stroke-dasharray:none;stroke-opacity:1"><path
                   inkscape:connector-curvature="0"
                   transform="matrix(-0.72432133,0,0,0.72432133,163.61731,-37.584357)"
                   style="display:inline;fill:#d0d1a9;fill-opacity:1;stroke:#636a3e;stroke-width:1.32669;stroke-miterlimit:4;stroke-dasharray:none;stroke-opacity:1"
                   d="m 176.52717,85.622284 a 3.7418478,3.7418478 0 0 1 -3.74185,3.741848 3.7418478,3.7418478 0 0 1 -3.74184,-3.741848 3.7418478,3.7418478 0 0 1 3.74184,-3.741848 3.7418478,3.7418478 0 0 1 3.74185,3.741848 z"
                   id="circle16040" /><path
                   inkscape:connector-curvature="0"
                   transform="matrix(-0.72432133,0,0,0.72432133,158.39045,-39.505935)"
                   style="display:inline;fill:#d0d1a9;fill-opacity:1;stroke:#636a3e;stroke-width:1.32669;stroke-miterlimit:4;stroke-dasharray:none;stroke-opacity:1"
                   d="m 176.52717,85.622284 a 3.7418478,3.7418478 0 0 1 -3.74185,3.741848 3.7418478,3.7418478 0 0 1 -3.74184,-3.741848 3.7418478,3.7418478 0 0 1 3.74184,-3.741848 3.7418478,3.7418478 0 0 1 3.74185,3.741848 z"
                   id="circle16042" /><path
                   inkscape:connector-curvature="0"
                   transform="matrix(-0.72432133,0,0,0.72432133,153.30898,-41.921715)"
                   style="display:inline;fill:#d0d1a9;fill-opacity:1;stroke:#636a3e;stroke-width:1.32669;stroke-miterlimit:4;stroke-dasharray:none;stroke-opacity:1"
                   d="m 176.52717,85.622284 a 3.7418478,3.7418478 0 0 1 -3.74185,3.741848 3.7418478,3.7418478 0 0 1 -3.74184,-3.741848 3.7418478,3.7418478 0 0 1 3.74184,-3.741848 3.7418478,3.7418478 0 0 1 3.74185,3.741848 z"
                   id="circle16044" /><path
                   inkscape:connector-curvature="0"
                   transform="matrix(-0.72432133,0,0,0.72432133,147.8943,-43.671073)"
                   style="display:inline;fill:#d0d1a9;fill-opacity:1;stroke:#636a3e;stroke-width:1.32669;stroke-miterlimit:4;stroke-dasharray:none;stroke-opacity:1"
                   d="m 176.52717,85.622284 a 3.7418478,3.7418478 0 0 1 -3.74185,3.741848 3.7418478,3.7418478 0 0 1 -3.74184,-3.741848 3.7418478,3.7418478 0 0 1 3.74184,-3.741848 3.7418478,3.7418478 0 0 1 3.74185,3.741848 z"
                   id="circle16046" /><path
                   inkscape:connector-curvature="0"
                   transform="matrix(-0.72432133,0,0,0.72432133,142.39632,-44.004284)"
                   style="display:inline;fill:#d0d1a9;fill-opacity:1;stroke:#636a3e;stroke-width:1.32669;stroke-miterlimit:4;stroke-dasharray:none;stroke-opacity:1"
                   d="m 176.52717,85.622284 a 3.7418478,3.7418478 0 0 1 -3.74185,3.741848 3.7418478,3.7418478 0 0 1 -3.74184,-3.741848 3.7418478,3.7418478 0 0 1 3.74184,-3.741848 3.7418478,3.7418478 0 0 1 3.74185,3.741848 z"
                   id="circle16048" /><path
                   inkscape:connector-curvature="0"
                   transform="matrix(-0.72432133,0,0,0.72432133,136.89834,-42.838045)"
                   style="display:inline;fill:#d0d1a9;fill-opacity:1;stroke:#636a3e;stroke-width:1.32669;stroke-miterlimit:4;stroke-dasharray:none;stroke-opacity:1"
                   d="m 176.52717,85.622284 a 3.7418478,3.7418478 0 0 1 -3.74185,3.741848 3.7418478,3.7418478 0 0 1 -3.74184,-3.741848 3.7418478,3.7418478 0 0 1 3.74184,-3.741848 3.7418478,3.7418478 0 0 1 3.74185,3.741848 z"
                   id="circle16050" /><path
                   inkscape:connector-curvature="0"
                   transform="matrix(-0.72432133,0,0,0.72432133,132.31669,-39.839146)"
                   style="display:inline;fill:#d0d1a9;fill-opacity:1;stroke:#636a3e;stroke-width:1.32669;stroke-miterlimit:4;stroke-dasharray:none;stroke-opacity:1"
                   d="m 176.52717,85.622284 a 3.7418478,3.7418478 0 0 1 -3.74185,3.741848 3.7418478,3.7418478 0 0 1 -3.74184,-3.741848 3.7418478,3.7418478 0 0 1 3.74184,-3.741848 3.7418478,3.7418478 0 0 1 3.74185,3.741848 z"
                   id="circle16052" /><path
                   inkscape:connector-curvature="0"
                   transform="matrix(-0.72432133,0,0,0.72432133,128.90127,-35.4241)"
                   style="display:inline;fill:#d0d1a9;fill-opacity:1;stroke:#636a3e;stroke-width:1.32669;stroke-miterlimit:4;stroke-dasharray:none;stroke-opacity:1"
                   d="m 176.52717,85.622284 a 3.7418478,3.7418478 0 0 1 -3.74185,3.741848 3.7418478,3.7418478 0 0 1 -3.74184,-3.741848 3.7418478,3.7418478 0 0 1 3.74184,-3.741848 3.7418478,3.7418478 0 0 1 3.74185,3.741848 z"
                   id="circle16054" /><path
                   inkscape:connector-curvature="0"
                   transform="matrix(-0.72432133,0,0,0.72432133,127.15192,-30.009421)"
                   style="display:inline;fill:#d0d1a9;fill-opacity:1;stroke:#636a3e;stroke-width:1.32669;stroke-miterlimit:4;stroke-dasharray:none;stroke-opacity:1"
                   d="m 176.52717,85.622284 a 3.7418478,3.7418478 0 0 1 -3.74185,3.741848 3.7418478,3.7418478 0 0 1 -3.74184,-3.741848 3.7418478,3.7418478 0 0 1 3.74184,-3.741848 3.7418478,3.7418478 0 0 1 3.74185,3.741848 z"
                   id="circle16056" /><path
                   inkscape:connector-curvature="0"
                   transform="matrix(-0.72432133,0,0,0.72432133,127.15191,-24.511439)"
                   style="display:inline;fill:#d0d1a9;fill-opacity:1;stroke:#636a3e;stroke-width:1.32669;stroke-miterlimit:4;stroke-dasharray:none;stroke-opacity:1"
                   d="m 176.52717,85.622284 a 3.7418478,3.7418478 0 0 1 -3.74185,3.741848 3.7418478,3.7418478 0 0 1 -3.74184,-3.741848 3.7418478,3.7418478 0 0 1 3.74184,-3.741848 3.7418478,3.7418478 0 0 1 3.74185,3.741848 z"
                   id="circle16058" /><path
                   inkscape:connector-curvature="0"
                   transform="matrix(-0.72432133,0,0,0.72432133,128.31815,-19.09676)"
                   style="display:inline;fill:#d0d1a9;fill-opacity:1;stroke:#636a3e;stroke-width:1.32669;stroke-miterlimit:4;stroke-dasharray:none;stroke-opacity:1"
                   d="m 176.52717,85.622284 a 3.7418478,3.7418478 0 0 1 -3.74185,3.741848 3.7418478,3.7418478 0 0 1 -3.74184,-3.741848 3.7418478,3.7418478 0 0 1 3.74184,-3.741848 3.7418478,3.7418478 0 0 1 3.74185,3.741848 z"
                   id="circle16060" /><path
                   inkscape:connector-curvature="0"
                   transform="matrix(-0.72432133,0,0,0.72432133,130.48403,-13.598778)"
                   style="display:inline;fill:#d0d1a9;fill-opacity:1;stroke:#636a3e;stroke-width:1.32669;stroke-miterlimit:4;stroke-dasharray:none;stroke-opacity:1"
                   d="m 176.52717,85.622284 a 3.7418478,3.7418478 0 0 1 -3.74185,3.741848 3.7418478,3.7418478 0 0 1 -3.74184,-3.741848 3.7418478,3.7418478 0 0 1 3.74184,-3.741848 3.7418478,3.7418478 0 0 1 3.74185,3.741848 z"
                   id="circle16062" /></g></g><g
               id="g16064"
               style="fill:#d0d1a9;fill-opacity:1;stroke:#636a3e;stroke-width:0.960951;stroke-miterlimit:4;stroke-dasharray:none;stroke-opacity:1"><path
                 sodipodi:nodetypes="sssccssssccsss"
                 inkscape:connector-curvature="0"
                 d="m 19.53125,20.625 c -2.207518,-0.104183 -4.56383,0.240775 -7,1.28125 C 6.5980651,24.440281 4.2852623,30.137747 4.5,35.59375 4.7147377,41.049753 6.9755572,46.59503 9.84375,50.875 L 14,48.09375 C 11.594864,44.504762 9.6632145,39.553165 9.5,35.40625 9.3367855,31.259335 10.444377,28.232135 14.5,26.5 c 3.570169,-1.5248 6.2225,-1.044129 9.40625,0.1875 3.18375,1.231629 6.652194,3.386825 10.9375,4.71875 6.740419,2.095004 10.6875,1.53125 10.6875,1.53125 v -5 c 0,0 -3.514555,0.45072 -9.1875,-1.3125 -3.507612,-1.090208 -6.832744,-3.126721 -10.625,-4.59375 -1.896128,-0.733514 -3.979982,-1.302067 -6.1875,-1.40625 z"
                 style="color:#000000;font-style:normal;font-variant:normal;font-weight:normal;font-stretch:normal;font-size:medium;line-height:normal;font-family:Sans;-inkscape-font-specification:Sans;text-indent:0;text-align:start;text-decoration:none;text-decoration-line:none;letter-spacing:normal;word-spacing:normal;text-transform:none;writing-mode:lr-tb;direction:ltr;baseline-shift:baseline;text-anchor:start;display:inline;overflow:visible;visibility:visible;fill:#d0d1a9;fill-opacity:1;stroke:#636a3e;stroke-width:0.960951;stroke-miterlimit:4;stroke-dasharray:none;stroke-opacity:1;marker:none;enable-background:accumulate"
                 id="path16066" /><g
                 id="g16068"
                 style="fill:#d0d1a9;fill-opacity:1;stroke:#636a3e;stroke-width:0.960951;stroke-miterlimit:4;stroke-dasharray:none;stroke-opacity:1"><path
                   inkscape:connector-curvature="0"
                   transform="matrix(-0.72432133,0,0,0.72432133,163.61731,-37.584357)"
                   style="display:inline;fill:#d0d1a9;fill-opacity:1;stroke:#636a3e;stroke-width:1.32669;stroke-miterlimit:4;stroke-dasharray:none;stroke-opacity:1"
                   d="m 176.52717,85.622284 a 3.7418478,3.7418478 0 0 1 -3.74185,3.741848 3.7418478,3.7418478 0 0 1 -3.74184,-3.741848 3.7418478,3.7418478 0 0 1 3.74184,-3.741848 3.7418478,3.7418478 0 0 1 3.74185,3.741848 z"
                   id="circle16070" /><path
                   inkscape:connector-curvature="0"
                   transform="matrix(-0.72432133,0,0,0.72432133,158.39045,-39.505935)"
                   style="display:inline;fill:#d0d1a9;fill-opacity:1;stroke:#636a3e;stroke-width:1.32669;stroke-miterlimit:4;stroke-dasharray:none;stroke-opacity:1"
                   d="m 176.52717,85.622284 a 3.7418478,3.7418478 0 0 1 -3.74185,3.741848 3.7418478,3.7418478 0 0 1 -3.74184,-3.741848 3.7418478,3.7418478 0 0 1 3.74184,-3.741848 3.7418478,3.7418478 0 0 1 3.74185,3.741848 z"
                   id="circle16072" /><path
                   inkscape:connector-curvature="0"
                   transform="matrix(-0.72432133,0,0,0.72432133,153.30898,-41.921715)"
                   style="display:inline;fill:#d0d1a9;fill-opacity:1;stroke:#636a3e;stroke-width:1.32669;stroke-miterlimit:4;stroke-dasharray:none;stroke-opacity:1"
                   d="m 176.52717,85.622284 a 3.7418478,3.7418478 0 0 1 -3.74185,3.741848 3.7418478,3.7418478 0 0 1 -3.74184,-3.741848 3.7418478,3.7418478 0 0 1 3.74184,-3.741848 3.7418478,3.7418478 0 0 1 3.74185,3.741848 z"
                   id="circle16074" /><path
                   inkscape:connector-curvature="0"
                   transform="matrix(-0.72432133,0,0,0.72432133,147.8943,-43.671073)"
                   style="display:inline;fill:#d0d1a9;fill-opacity:1;stroke:#636a3e;stroke-width:1.32669;stroke-miterlimit:4;stroke-dasharray:none;stroke-opacity:1"
                   d="m 176.52717,85.622284 a 3.7418478,3.7418478 0 0 1 -3.74185,3.741848 3.7418478,3.7418478 0 0 1 -3.74184,-3.741848 3.7418478,3.7418478 0 0 1 3.74184,-3.741848 3.7418478,3.7418478 0 0 1 3.74185,3.741848 z"
                   id="circle16076" /><path
                   inkscape:connector-curvature="0"
                   transform="matrix(-0.72432133,0,0,0.72432133,142.39632,-44.004284)"
                   style="display:inline;fill:#d0d1a9;fill-opacity:1;stroke:#636a3e;stroke-width:1.32669;stroke-miterlimit:4;stroke-dasharray:none;stroke-opacity:1"
                   d="m 176.52717,85.622284 a 3.7418478,3.7418478 0 0 1 -3.74185,3.741848 3.7418478,3.7418478 0 0 1 -3.74184,-3.741848 3.7418478,3.7418478 0 0 1 3.74184,-3.741848 3.7418478,3.7418478 0 0 1 3.74185,3.741848 z"
                   id="circle16078" /><path
                   inkscape:connector-curvature="0"
                   transform="matrix(-0.72432133,0,0,0.72432133,136.89834,-42.838045)"
                   style="display:inline;fill:#d0d1a9;fill-opacity:1;stroke:#636a3e;stroke-width:1.32669;stroke-miterlimit:4;stroke-dasharray:none;stroke-opacity:1"
                   d="m 176.52717,85.622284 a 3.7418478,3.7418478 0 0 1 -3.74185,3.741848 3.7418478,3.7418478 0 0 1 -3.74184,-3.741848 3.7418478,3.7418478 0 0 1 3.74184,-3.741848 3.7418478,3.7418478 0 0 1 3.74185,3.741848 z"
                   id="circle16080" /><path
                   inkscape:connector-curvature="0"
                   transform="matrix(-0.72432133,0,0,0.72432133,132.31669,-39.839146)"
                   style="display:inline;fill:#d0d1a9;fill-opacity:1;stroke:#636a3e;stroke-width:1.32669;stroke-miterlimit:4;stroke-dasharray:none;stroke-opacity:1"
                   d="m 176.52717,85.622284 a 3.7418478,3.7418478 0 0 1 -3.74185,3.741848 3.7418478,3.7418478 0 0 1 -3.74184,-3.741848 3.7418478,3.7418478 0 0 1 3.74184,-3.741848 3.7418478,3.7418478 0 0 1 3.74185,3.741848 z"
                   id="circle16082" /><path
                   inkscape:connector-curvature="0"
                   transform="matrix(-0.72432133,0,0,0.72432133,128.90127,-35.4241)"
                   style="display:inline;fill:#d0d1a9;fill-opacity:1;stroke:#636a3e;stroke-width:1.32669;stroke-miterlimit:4;stroke-dasharray:none;stroke-opacity:1"
                   d="m 176.52717,85.622284 a 3.7418478,3.7418478 0 0 1 -3.74185,3.741848 3.7418478,3.7418478 0 0 1 -3.74184,-3.741848 3.7418478,3.7418478 0 0 1 3.74184,-3.741848 3.7418478,3.7418478 0 0 1 3.74185,3.741848 z"
                   id="circle16084" /><path
                   inkscape:connector-curvature="0"
                   transform="matrix(-0.72432133,0,0,0.72432133,127.15192,-30.009421)"
                   style="display:inline;fill:#d0d1a9;fill-opacity:1;stroke:#636a3e;stroke-width:1.32669;stroke-miterlimit:4;stroke-dasharray:none;stroke-opacity:1"
                   d="m 176.52717,85.622284 a 3.7418478,3.7418478 0 0 1 -3.74185,3.741848 3.7418478,3.7418478 0 0 1 -3.74184,-3.741848 3.7418478,3.7418478 0 0 1 3.74184,-3.741848 3.7418478,3.7418478 0 0 1 3.74185,3.741848 z"
                   id="circle16086" /><path
                   inkscape:connector-curvature="0"
                   transform="matrix(-0.72432133,0,0,0.72432133,127.15191,-24.511439)"
                   style="display:inline;fill:#d0d1a9;fill-opacity:1;stroke:#636a3e;stroke-width:1.32669;stroke-miterlimit:4;stroke-dasharray:none;stroke-opacity:1"
                   d="m 176.52717,85.622284 a 3.7418478,3.7418478 0 0 1 -3.74185,3.741848 3.7418478,3.7418478 0 0 1 -3.74184,-3.741848 3.7418478,3.7418478 0 0 1 3.74184,-3.741848 3.7418478,3.7418478 0 0 1 3.74185,3.741848 z"
                   id="circle16088" /><path
                   inkscape:connector-curvature="0"
                   transform="matrix(-0.72432133,0,0,0.72432133,128.31815,-19.09676)"
                   style="display:inline;fill:#d0d1a9;fill-opacity:1;stroke:#636a3e;stroke-width:1.32669;stroke-miterlimit:4;stroke-dasharray:none;stroke-opacity:1"
                   d="m 176.52717,85.622284 a 3.7418478,3.7418478 0 0 1 -3.74185,3.741848 3.7418478,3.7418478 0 0 1 -3.74184,-3.741848 3.7418478,3.7418478 0 0 1 3.74184,-3.741848 3.7418478,3.7418478 0 0 1 3.74185,3.741848 z"
                   id="circle16090" /><path
                   inkscape:connector-curvature="0"
                   transform="matrix(-0.72432133,0,0,0.72432133,130.48403,-13.598778)"
                   style="display:inline;fill:#d0d1a9;fill-opacity:1;stroke:#636a3e;stroke-width:1.32669;stroke-miterlimit:4;stroke-dasharray:none;stroke-opacity:1"
                   d="m 176.52717,85.622284 a 3.7418478,3.7418478 0 0 1 -3.74185,3.741848 3.7418478,3.7418478 0 0 1 -3.74184,-3.741848 3.7418478,3.7418478 0 0 1 3.74184,-3.741848 3.7418478,3.7418478 0 0 1 3.74185,3.741848 z"
                   id="circle16092" /></g></g></g><g
             transform="matrix(0.36815683,0,0,0.36815683,79.321213,111.20599)"
             id="g16094"
             style="fill:#d0d1a9;fill-opacity:1;stroke:#636a3e;stroke-width:0.960951;stroke-miterlimit:4;stroke-dasharray:none;stroke-opacity:1"><g
               style="fill:#d0d1a9;fill-opacity:1;stroke:#636a3e;stroke-width:0.960951;stroke-miterlimit:4;stroke-dasharray:none;stroke-opacity:1"
               id="g16096"
               transform="translate(-153.48135,-2.6874796)"><path
                 style="fill:#d0d1a9;fill-opacity:1;stroke:none;stroke-width:0.960951;stroke-miterlimit:4;stroke-dasharray:none;stroke-opacity:1"
                 d="m 199.62317,9.1150049 c -0.46736,-2.2070159 -2.4524,-3.9278033 -4.38735,-5.6646334 3.93155,-0.3707923 7.86307,-0.3601541 11.79461,0 -1.7757,1.8108127 -4.31209,3.4104099 -4.49085,5.6646334 2.28958,-0.9924295 3.76493,-3.002205 5.52736,-4.6533125 -0.41734,3.3232542 -0.12959,6.6465046 0,9.9697596 -1.75125,-1.405377 -3.2445,-3.186806 -5.52736,-3.81722 0.67882,2.061763 2.35035,3.646465 4.53437,4.984881 h -11.9687 c 1.98069,-1.385191 3.778,-2.893313 4.51792,-4.984881 -2.17476,0.700871 -3.73813,2.515812 -5.48383,3.998487 0.3076,-3.353464 0.27225,-6.7069274 0,-10.0603946 1.68143,1.8260046 3.24923,3.8886433 5.48383,4.5626805 z"
                 id="path16098"
                 sodipodi:nodetypes="ccccccccccccc"
                 inkscape:connector-curvature="0" /><path
                 inkscape:connector-curvature="0"
                 transform="matrix(-0.69735688,0,0,0.69735688,321.59617,-50.184546)"
                 style="display:inline;fill:#d0d1a9;fill-opacity:1;stroke:#636a3e;stroke-width:1.37799;stroke-miterlimit:4;stroke-dasharray:none;stroke-opacity:1"
                 d="m 176.52717,85.622284 a 3.7418478,3.7418478 0 0 1 -3.74185,3.741848 3.7418478,3.7418478 0 0 1 -3.74184,-3.741848 3.7418478,3.7418478 0 0 1 3.74184,-3.741848 3.7418478,3.7418478 0 0 1 3.74185,3.741848 z"
                 id="circle16100" /><path
                 inkscape:connector-curvature="0"
                 transform="matrix(0.67213181,0,0,0.69796902,85.499935,-10.472048)"
                 style="fill:#d0d1a9;fill-opacity:1;stroke:#636a3e;stroke-width:1.40299;stroke-miterlimit:4;stroke-dasharray:none;stroke-opacity:1"
                 d="M 182.53709,47.734879 A 10.54225,10.151795 0 0 1 171.99484,57.886674 10.54225,10.151795 0 0 1 161.45259,47.734879 10.54225,10.151795 0 0 1 171.99484,37.583083 10.54225,10.151795 0 0 1 182.53709,47.734879 Z"
                 id="ellipse16102" /><path
                 inkscape:connector-curvature="0"
                 style="display:inline;fill:#d0d1a9;fill-opacity:1;stroke:#636a3e;stroke-width:0.960951;stroke-miterlimit:4;stroke-dasharray:none;stroke-opacity:1"
                 d="m 200.81547,15.037877 c -0.65318,0 -1.17679,0.523603 -1.17679,1.176789 v 4.703864 h -4.72458 c -0.65319,0 -1.19858,0.523603 -1.19858,1.176789 v 0.526314 c 0,0.653186 0.54539,1.176789 1.19858,1.176789 h 12.39987 c 0.65319,0 1.17679,-0.523603 1.17679,-1.176789 v -0.526314 c 0,-0.653186 -0.5236,-1.176789 -1.17679,-1.176789 h -4.72458 v -4.703864 c 0,-0.653186 -0.52361,-1.176789 -1.17679,-1.176789 z"
                 id="path16104"
                 sodipodi:nodetypes="ccccccccccccccc" /></g><g
               id="g16106"
               transform="translate(3.505078,2.0937704)"
               style="fill:#d0d1a9;fill-opacity:1;stroke:#636a3e;stroke-width:0.960951;stroke-miterlimit:4;stroke-dasharray:none;stroke-opacity:1"><path
                 inkscape:connector-curvature="0"
                 style="fill:#d0d1a9;fill-opacity:1;stroke:#636a3e;stroke-width:0.960951;stroke-miterlimit:4;stroke-dasharray:none;stroke-opacity:1"
                 d="m 41.263439,25.49164 h 5.706547 c 1.270674,0 2.293636,1.022962 2.293636,2.293636 v 12.886002 c 0,1.270675 -1.022962,2.293636 -2.293636,2.293636 h -5.706547 c -1.270674,0 -2.293636,-1.022961 -2.293636,-2.293636 V 27.785276 c 0,-1.270674 1.022962,-2.293636 2.293636,-2.293636 z"
                 id="rect16108" /><g
                 transform="matrix(1,0,0,1.2635465,-157.09759,-10.014315)"
                 style="fill:#d0d1a9;fill-opacity:1;stroke:#636a3e;stroke-width:0.854881;stroke-miterlimit:4;stroke-dasharray:none;stroke-opacity:1"
                 id="g16110"><path
                   inkscape:connector-curvature="0"
                   style="fill:#d0d1a9;fill-opacity:1;stroke:#636a3e;stroke-width:0.854881;stroke-miterlimit:4;stroke-dasharray:none;stroke-opacity:1"
                   d="m 196.78551,27.445124 h 1e-5 c 0.78381,0 1.41482,0.631008 1.41482,1.414816 v 11.993964 c 0,0.783809 -0.63101,1.414817 -1.41482,1.414817 h -1e-5 c -0.7838,0 -1.41481,-0.631008 -1.41481,-1.414817 V 28.85994 c 0,-0.783808 0.63101,-1.414816 1.41481,-1.414816 z"
                   id="rect16112" /><path
                   inkscape:connector-curvature="0"
                   style="display:inline;fill:#d0d1a9;fill-opacity:1;stroke:#636a3e;stroke-width:0.854881;stroke-miterlimit:4;stroke-dasharray:none;stroke-opacity:1"
                   d="m 205.64309,27.445124 v 0 c 0.78381,0 1.41482,0.631008 1.41482,1.414816 v 11.993964 c 0,0.783809 -0.63101,1.414817 -1.41482,1.414817 v 0 c -0.78381,0 -1.41482,-0.631008 -1.41482,-1.414817 V 28.85994 c 0,-0.783808 0.63101,-1.414816 1.41482,-1.414816 z"
                   id="rect16114" /></g><path
                 inkscape:connector-curvature="0"
                 transform="matrix(-0.72432133,0,0,0.72432133,169.26881,-36.423385)"
                 style="display:inline;fill:#d0d1a9;fill-opacity:1;stroke:#636a3e;stroke-width:1.32669;stroke-miterlimit:4;stroke-dasharray:none;stroke-opacity:1"
                 d="m 176.52717,85.622284 a 3.7418478,3.7418478 0 0 1 -3.74185,3.741848 3.7418478,3.7418478 0 0 1 -3.74184,-3.741848 3.7418478,3.7418478 0 0 1 3.74184,-3.741848 3.7418478,3.7418478 0 0 1 3.74185,3.741848 z"
                 id="circle16116" /><path
                 inkscape:connector-curvature="0"
                 transform="matrix(-0.72432133,0,0,0.72432133,169.26881,-31.394438)"
                 style="display:inline;fill:#d0d1a9;fill-opacity:1;stroke:#636a3e;stroke-width:1.32669;stroke-miterlimit:4;stroke-dasharray:none;stroke-opacity:1"
                 d="m 176.52717,85.622284 a 3.7418478,3.7418478 0 0 1 -3.74185,3.741848 3.7418478,3.7418478 0 0 1 -3.74184,-3.741848 3.7418478,3.7418478 0 0 1 3.74184,-3.741848 3.7418478,3.7418478 0 0 1 3.74185,3.741848 z"
                 id="circle16118" /><path
                 inkscape:connector-curvature="0"
                 transform="matrix(-0.72432133,0,0,0.72432133,169.26881,-26.36549)"
                 style="display:inline;fill:#d0d1a9;fill-opacity:1;stroke:#636a3e;stroke-width:1.32669;stroke-miterlimit:4;stroke-dasharray:none;stroke-opacity:1"
                 d="m 176.52717,85.622284 a 3.7418478,3.7418478 0 0 1 -3.74185,3.741848 3.7418478,3.7418478 0 0 1 -3.74184,-3.741848 3.7418478,3.7418478 0 0 1 3.74184,-3.741848 3.7418478,3.7418478 0 0 1 3.74185,3.741848 z"
                 id="circle16120" /><path
                 inkscape:connector-curvature="0"
                 transform="matrix(-0.72432133,0,0,0.72432133,169.26881,-21.299794)"
                 style="display:inline;fill:#d0d1a9;fill-opacity:1;stroke:#636a3e;stroke-width:1.32669;stroke-miterlimit:4;stroke-dasharray:none;stroke-opacity:1"
                 d="m 176.52717,85.622284 a 3.7418478,3.7418478 0 0 1 -3.74185,3.741848 3.7418478,3.7418478 0 0 1 -3.74184,-3.741848 3.7418478,3.7418478 0 0 1 3.74184,-3.741848 3.7418478,3.7418478 0 0 1 3.74185,3.741848 z"
                 id="circle16122" /></g></g><g
             transform="matrix(0.36815683,0,0,0.36815683,79.321212,111.41038)"
             style="fill:#d0d1a9;fill-opacity:1;stroke:#636a3e;stroke-width:0.960951;stroke-miterlimit:4;stroke-dasharray:none;stroke-opacity:1"
             id="g16124"><path
               style="fill:#d0d1a9;fill-opacity:1;stroke:#636a3e;stroke-width:0.960951;stroke-miterlimit:4;stroke-dasharray:none;stroke-opacity:1"
               d="m 14.977131,60.713289 c 7.564544,6.037967 13.282327,6.535652 16.322331,-1 5.440776,3.4443 10.881553,4.133248 16.32233,-1 5.440777,5.486228 10.881554,5.008183 16.322331,1 1.959336,7.992502 7.571784,7.94816 16.32233,1 L 76.434147,80.172387 18.937915,80.34219 Z"
               id="path16126"
               inkscape:connector-curvature="0"
               sodipodi:nodetypes="cccccccc" /><g
               style="fill:#d0d1a9;fill-opacity:1;stroke:#636a3e;stroke-width:0.960951;stroke-miterlimit:4;stroke-dasharray:none;stroke-opacity:1"
               id="g16128"><path
                 inkscape:connector-curvature="0"
                 style="display:inline;fill:#d0d1a9;fill-opacity:1;stroke:#636a3e;stroke-width:0.960951;stroke-miterlimit:4;stroke-dasharray:none;stroke-opacity:1"
                 d="m 44.631052,66.133835 h 5.981486 c 0.869006,0 1.568602,0.699596 1.568602,1.568602 v 1.779439 c 0,0.869005 -0.699596,1.568602 -1.568602,1.568602 h -5.981486 c -0.869005,0 -1.568602,-0.699597 -1.568602,-1.568602 v -1.779439 c 0,-0.869006 0.699597,-1.568602 1.568602,-1.568602 z"
                 id="rect16130" /><path
                 inkscape:connector-curvature="0"
                 transform="matrix(0.74042059,-0.10494666,0.1361296,0.57081394,-93.923302,26.313634)"
                 style="display:inline;fill:#d0d1a9;fill-opacity:1;stroke:#636a3e;stroke-width:1.45377;stroke-miterlimit:4;stroke-dasharray:none;stroke-opacity:1"
                 d="m 157.48298,104.18797 a 5.7754607,4.2299151 0 0 1 -5.77546,4.22992 5.7754607,4.2299151 0 0 1 -5.77546,-4.22992 5.7754607,4.2299151 0 0 1 5.77546,-4.229912 5.7754607,4.2299151 0 0 1 5.77546,4.229912 z"
                 id="ellipse16132" /><path
                 inkscape:connector-curvature="0"
                 style="display:inline;fill:#d0d1a9;fill-opacity:1;stroke:#636a3e;stroke-width:0.960951;stroke-linecap:butt;stroke-linejoin:miter;stroke-miterlimit:4;stroke-dasharray:none;stroke-opacity:1"
                 d="m 18.135275,73.861426 4.421314,-3.10192 -6.687042,-2.382499 c 0,0 -1.022812,0.912749 -1.215826,1.701781 -0.267081,1.091852 -0.261341,1.846789 0.486333,2.722858 0.666545,0.781012 2.995221,1.05978 2.995221,1.05978 z"
                 id="path16134"
                 sodipodi:nodetypes="cccssc" /><path
                 inkscape:connector-curvature="0"
                 transform="matrix(-0.74042059,-0.10494666,-0.1361296,0.57081394,189.16689,26.313634)"
                 style="display:inline;fill:#d0d1a9;fill-opacity:1;stroke:#636a3e;stroke-width:1.45377;stroke-miterlimit:4;stroke-dasharray:none;stroke-opacity:1"
                 d="m 157.48298,104.18797 a 5.7754607,4.2299151 0 0 1 -5.77546,4.22992 5.7754607,4.2299151 0 0 1 -5.77546,-4.22992 5.7754607,4.2299151 0 0 1 5.77546,-4.229912 5.7754607,4.2299151 0 0 1 5.77546,4.229912 z"
                 id="ellipse16136" /><path
                 inkscape:connector-curvature="0"
                 style="display:inline;fill:#d0d1a9;fill-opacity:1;stroke:#636a3e;stroke-width:0.960951;stroke-linecap:butt;stroke-linejoin:miter;stroke-miterlimit:4;stroke-dasharray:none;stroke-opacity:1"
                 d="m 77.10831,73.861426 -4.421314,-3.10192 6.687042,-2.382499 c 0,0 1.022812,0.912749 1.215825,1.701781 0.267081,1.091852 0.261342,1.846789 -0.486333,2.722858 -0.666544,0.781012 -2.99522,1.05978 -2.99522,1.05978 z"
                 id="path16138"
                 sodipodi:nodetypes="cccssc" /></g></g><g
             transform="matrix(0.30426184,0,0,0.30426184,79.354587,111.37211)"
             id="g16140"
             style="fill:#d0d1a9;fill-opacity:1;stroke:#636a3e;stroke-width:1.16275;stroke-miterlimit:4;stroke-dasharray:none;stroke-opacity:1"><path
               id="path16142"
               style="display:inline;fill:#d0d1a9;fill-opacity:1;stroke:#636a3e;stroke-width:1.16275;stroke-linecap:butt;stroke-linejoin:miter;stroke-miterlimit:4;stroke-dasharray:none;stroke-opacity:1"
               d="m 48.982213,78.405479 c -3.035329,0.414764 -6.158122,-0.740834 -8.824858,-3.214415 -2.284836,4.075409 -6.214578,6.175197 -10.282765,6.391552 -4.008236,0.213166 -8.150869,-1.401999 -10.987062,-4.75732 -0.864255,-2.168388 -1.739004,-4.21377 -2.535213,-5.813211 -1.550274,-3.114218 -4.765841,-8.904898 -4.765841,-8.904898 3.23151,-2.057606 6.040378,-3.711734 9.882338,-3.952073 -1.650463,4.106934 -1.535561,6.978373 -1.56863,9.953369 3.458354,-0.555938 5.046514,-3.006212 6.901952,-4.683939 l 2.196084,8.636012 c -3.462038,-1.435564 -5.769924,-0.717201 -7.999995,0.146373 0,0 1.429223,2.606821 2.509797,3.512954 1.235974,1.036439 2.59966,1.629167 4.235292,1.902846 1.547418,0.258912 3.291714,0.348103 4.705882,-0.292748 2.978818,-1.349893 4.496942,-4.293708 4.078416,-4.09844 0,0 0.298814,-2.582753 -0.470577,-3.512954 -0.575946,-0.696314 -1.758923,-1.261674 -2.666673,-1.024612 -1.431297,0.373789 -2.196071,3.366581 -2.196071,3.366581 0,0 -1.375785,-2.547882 -1.725482,-3.952073 -0.307956,-1.236554 -0.766979,-2.671009 -0.156863,-3.8057 0.455276,-0.846748 1.511577,-1.437359 2.509798,-1.610104 1.321763,-0.228735 3.764688,0.878238 3.764688,0.878238 0,0 -0.729282,-2.294566 -0.941178,-3.512954 -0.108924,-0.626093 0.05356,-1.463222 0.313727,-2.049223 0.594256,-1.338721 1.540946,-2.046356 2.143631,-2.812092 0.805674,0.749675 1.798267,1.018572 2.726958,2.179894 0.406506,0.508353 0.784566,1.282515 0.843965,1.91437 0.115664,1.229606 0.01322,3.621052 0.01322,3.621052 0,0 2.076332,-1.633401 3.417793,-1.714882 1.013108,-0.06154 2.192583,0.268637 2.856966,0.984964 0.890349,0.959915 0.823255,2.455648 0.850565,3.724897 0.03099,1.441318 -0.631369,4.226607 -0.631369,4.226607 0,0 -1.529755,-2.725517 -3.015605,-2.759506 -0.942334,-0.02156 -1.940074,0.797819 -2.314902,1.604883 -0.500725,1.07815 0.469344,3.513098 0.469344,3.513098 5.869383,4.275637 11.942788,-0.109807 13.188447,-4.383543 v -1.610103 c -2.4575,0.315816 -3.503273,0.718674 -5.960773,3.36658 L 48.762908,59.179724 c 2.352948,1.985038 4.392155,2.698503 6.745089,2.34197 -0.220895,-3.104536 -1.989543,-4.420468 -4.705867,-7.13691 4.427235,-1.106877 9.138757,-1.382253 13.421374,0 -2.716324,2.716442 -4.484973,4.032374 -4.705868,7.13691 2.352935,0.356533 4.392142,-0.356932 6.74509,-2.34197 L 65.47841,69.864959 c -2.457501,-2.647906 -3.503273,-3.050764 -5.960774,-3.36658 v 1.610103 c 1.24566,4.273736 7.319065,8.65918 13.188447,4.383543 0,0 0.970069,-2.434948 0.469345,-3.513098 -0.374828,-0.807064 -1.372569,-1.626446 -2.314902,-1.604883 -1.48585,0.03399 -3.015606,2.759506 -3.015606,2.759506 0,0 -0.662356,-2.785289 -0.631368,-4.226607 0.02731,-1.269249 -0.03978,-2.764982 0.850565,-3.724897 0.664383,-0.716327 1.843858,-1.046505 2.856966,-0.984964 1.34146,0.08148 3.417792,1.714882 3.417792,1.714882 0,0 -0.102438,-2.391446 0.01323,-3.621052 0.0594,-0.631855 0.437458,-1.406017 0.843965,-1.91437 0.928691,-1.161322 1.921284,-1.430219 2.726958,-2.179894 0.602685,0.765736 1.549374,1.473371 2.143631,2.812092 0.260172,0.586001 0.42265,1.42313 0.313726,2.049223 -0.211895,1.218388 -0.941178,3.512954 -0.941178,3.512954 0,0 2.442926,-1.106973 3.764689,-0.878238 0.998221,0.172745 2.054522,0.763356 2.509798,1.610104 0.610116,1.134691 0.151092,2.569146 -0.156864,3.8057 -0.349697,1.404191 -1.725481,3.952073 -1.725481,3.952073 0,0 -0.764775,-2.992792 -2.196072,-3.366581 -0.907749,-0.237062 -2.090726,0.328298 -2.666673,1.024612 -0.76939,0.930201 -0.470576,3.512954 -0.470576,3.512954 -0.418527,-0.195268 1.099597,2.748547 4.078415,4.09844 1.414168,0.640851 3.158464,0.55166 4.705883,0.292748 1.635632,-0.273679 2.999317,-0.866407 4.235291,-1.902846 1.080575,-0.906133 2.509798,-3.512954 2.509798,-3.512954 -2.230071,-0.863574 -4.537957,-1.581937 -7.999995,-0.146373 l 2.196084,-8.636012 c 1.855438,1.677727 3.443598,4.128001 6.901952,4.683939 -0.03307,-2.974996 0.08183,-5.846435 -1.568631,-9.953369 3.728186,0.01279 6.791575,1.98006 9.882335,3.952073 0,0 -3.21557,5.79068 -4.765838,8.904898 -0.796209,1.599441 -1.670958,3.644823 -2.535212,5.813211 -2.836193,3.355321 -6.978826,4.970486 -10.987063,4.75732 -4.068187,-0.216355 -7.997928,-2.316143 -10.282765,-6.391552 -2.666736,2.473581 -5.789528,3.629179 -8.824858,3.214415 -3.004118,-0.410499 -5.922564,-2.359231 -8.530604,-6.090871 -2.608039,3.73164 -5.526485,5.680372 -8.530603,6.090871 z"
               inkscape:connector-curvature="0"
               sodipodi:nodetypes="scscsccccccssscsscscscccccccscccssccccccccccccccsscccscccccccscscsscsssccccccscscscs" /><g
               style="fill:#d0d1a9;fill-opacity:1;stroke:#636a3e;stroke-width:0.960951;stroke-miterlimit:4;stroke-dasharray:none;stroke-opacity:1"
               id="g16144"
               transform="matrix(1.21,0,0,1.21,1.2761323,2.4578292)"><path
                 inkscape:connector-curvature="0"
                 transform="matrix(-0.72432133,0,0,0.72432133,171.62869,-11.331979)"
                 style="display:inline;fill:#d0d1a9;fill-opacity:1;stroke:#636a3e;stroke-width:1.32669;stroke-miterlimit:4;stroke-dasharray:none;stroke-opacity:1"
                 d="m 176.52717,85.622284 a 3.7418478,3.7418478 0 0 1 -3.74185,3.741848 3.7418478,3.7418478 0 0 1 -3.74184,-3.741848 3.7418478,3.7418478 0 0 1 3.74184,-3.741848 3.7418478,3.7418478 0 0 1 3.74185,3.741848 z"
                 id="circle16146" /><g
                 style="fill:#d0d1a9;fill-opacity:1;stroke:#636a3e;stroke-width:0.960951;stroke-miterlimit:4;stroke-dasharray:none;stroke-opacity:1"
                 id="g16148"><path
                   inkscape:connector-curvature="0"
                   transform="matrix(-0.72432133,0,0,0.72432133,138.9417,-5.6435927)"
                   style="display:inline;fill:#d0d1a9;fill-opacity:1;stroke:#636a3e;stroke-width:1.32669;stroke-miterlimit:4;stroke-dasharray:none;stroke-opacity:1"
                   d="m 176.52717,85.622284 a 3.7418478,3.7418478 0 0 1 -3.74185,3.741848 3.7418478,3.7418478 0 0 1 -3.74184,-3.741848 3.7418478,3.7418478 0 0 1 3.74184,-3.741848 3.7418478,3.7418478 0 0 1 3.74185,3.741848 z"
                   id="circle16150" /><path
                   inkscape:connector-curvature="0"
                   transform="matrix(-0.72432133,0,0,0.72432133,204.31569,-5.6435927)"
                   style="display:inline;fill:#d0d1a9;fill-opacity:1;stroke:#636a3e;stroke-width:1.32669;stroke-miterlimit:4;stroke-dasharray:none;stroke-opacity:1"
                   d="m 176.52717,85.622284 a 3.7418478,3.7418478 0 0 1 -3.74185,3.741848 3.7418478,3.7418478 0 0 1 -3.74184,-3.741848 3.7418478,3.7418478 0 0 1 3.74184,-3.741848 3.7418478,3.7418478 0 0 1 3.74185,3.741848 z"
                   id="circle16152" /></g></g><g
               id="g16154"
               transform="translate(-0.1220781)"
               style="fill:#d0d1a9;fill-opacity:1;stroke:#636a3e;stroke-width:1.16275;stroke-miterlimit:4;stroke-dasharray:none;stroke-opacity:1"><path
                 inkscape:connector-curvature="0"
                 transform="rotate(-8.1181406)"
                 style="fill:#d0d1a9;fill-opacity:1;stroke:#636a3e;stroke-width:1.16275;stroke-miterlimit:4;stroke-dasharray:none;stroke-opacity:1"
                 d="m 26.167471,74.000671 h 5.372427 c 1.116121,0 2.01466,0.898539 2.01466,2.01466 0,1.116122 -0.898539,2.01466 -2.01466,2.01466 h -5.372427 c -1.116122,0 -2.01466,-0.898538 -2.01466,-2.01466 0,-1.116121 0.898538,-2.01466 2.01466,-2.01466 z"
                 id="rect16156" /><path
                 inkscape:connector-curvature="0"
                 transform="matrix(-0.989979,-0.14121468,-0.14121468,0.989979,0,0)"
                 style="fill:#d0d1a9;fill-opacity:1;stroke:#636a3e;stroke-width:1.16275;stroke-miterlimit:4;stroke-dasharray:none;stroke-opacity:1"
                 d="m -87.947201,57.722885 h 5.372427 c 1.116122,0 2.01466,0.898538 2.01466,2.01466 0,1.116122 -0.898538,2.01466 -2.01466,2.01466 h -5.372427 c -1.116121,0 -2.01466,-0.898538 -2.01466,-2.01466 0,-1.116122 0.898539,-2.01466 2.01466,-2.01466 z"
                 id="rect16158" /></g></g><g
             style="fill:#d0d1a9;fill-opacity:1;stroke:#636a3e;stroke-width:0.376199;stroke-miterlimit:4;stroke-dasharray:none;stroke-opacity:1"
             transform="matrix(0.94040816,0,0,0.94040816,5.8367504,8.0643456)"
             id="g16160"><path
               inkscape:connector-curvature="0"
               style="fill:#d0d1a9;fill-opacity:1;stroke:#636a3e;stroke-width:0.376199;stroke-linejoin:round;stroke-miterlimit:4;stroke-dasharray:none;stroke-opacity:1"
               d="m 84.987159,142.53088 c -0.353971,-3.59788 8.054995,-3.6561 11.797144,-3.65856 3.742147,0.002 12.151117,0.0607 11.797147,3.65856 -0.19784,2.01086 -5.2817,3.65857 -11.797147,3.65857 -6.515445,0 -11.599309,-1.64771 -11.797144,-3.65857 z"
               id="path16162" /><path
               style="fill:#d0d1a9;fill-opacity:1;stroke:#636a3e;stroke-width:0.376199;stroke-linejoin:round;stroke-miterlimit:4;stroke-dasharray:none;stroke-opacity:1"
               d="m 96.784302,141.60681 c -2.587091,0.002 -7.716901,0.0456 -9.576172,1.86523 0.436055,0.22726 0.974769,0.45243 1.617187,0.6543 1.968839,0.61867 4.78844,1.02734 7.958985,1.02734 3.170545,0 5.988728,-0.4087 7.957038,-1.02734 0.64224,-0.20186 1.18302,-0.42704 1.61914,-0.6543 -1.85928,-1.81969 -6.989093,-1.86364 -9.576178,-1.86523 z"
               id="path16164"
               inkscape:connector-curvature="0" /><path
               inkscape:connector-curvature="0"
               style="display:inline;fill:#636a3e;fill-opacity:1;stroke:none;stroke-width:0.376199;stroke-miterlimit:4;stroke-dasharray:none;stroke-opacity:1"
               d="m 30.279297,76.386719 c -0.346113,-0.0142 -0.837891,0.111328 -0.837891,0.111328 l 0.933594,0.21875 c 0,0 -0.272074,0.0616 -0.476562,0.128906 -0.146109,0.0481 -0.544922,0.25 -0.544922,0.25 l 1.064453,0.0078 c 0,0 -0.309777,0.136157 -0.433594,0.242187 -0.0943,0.0807 -0.224609,0.291016 -0.224609,0.291016 0,0 0.944744,-0.362182 1.443359,-0.451172 0.513155,-0.0916 1.566406,-0.08008 1.566406,-0.08008 l -0.58789,-0.275391 c 0,0 -0.564453,-0.0799 -1.041016,-0.216797 -0.272372,-0.0782 -0.589292,-0.215392 -0.861328,-0.226562 z M 25.75,76.578125 c -0.345222,0.0272 -0.816406,0.212891 -0.816406,0.212891 l 0.955078,0.103515 c 0,0 -0.25954,0.0944 -0.453125,0.185547 -0.138315,0.0652 -0.505859,0.3125 -0.505859,0.3125 l 1.054687,-0.11914 c 0,0 -0.286257,0.173038 -0.394531,0.292968 -0.08246,0.0913 -0.183594,0.314453 -0.183594,0.314453 0,0 0.886811,-0.473343 1.369141,-0.621093 0.496394,-0.15206 1.542968,-0.265625 1.542968,-0.265625 l -0.621093,-0.201172 c 0,0 -0.569144,-0.0129 -1.060547,-0.0918 -0.280856,-0.0451 -0.615385,-0.144417 -0.886719,-0.123047 z m 9.005859,0.04297 c -0.34456,-0.0337 -0.845703,0.06641 -0.845703,0.06641 l 0.917969,0.269531 c 0,0 -0.273942,0.04599 -0.482422,0.101563 -0.14896,0.0398 -0.560547,0.21875 -0.560547,0.21875 l 1.060547,0.06836 c 0,0 -0.316795,0.117957 -0.447265,0.216797 -0.0994,0.0753 -0.242188,0.277344 -0.242188,0.277344 0,0 0.967233,-0.306518 1.470703,-0.367188 0.51816,-0.0624 1.566406,0.0078 1.566406,0.0078 L 36.625,77.171875 c 0,0 -0.556618,-0.111871 -1.023438,-0.275391 -0.2668,-0.0935 -0.574893,-0.24887 -0.845703,-0.275389 z m 3.865235,0.414062 0.796875,0.519532 c 0,0 -0.275868,-0.03472 -0.492188,-0.04102 -0.15457,-0.004 -0.603515,0.04883 -0.603515,0.04883 l 0.996093,0.369141 c 0,0 -0.337637,0.02093 -0.492187,0.07813 -0.11769,0.0436 -0.316406,0.195312 -0.316406,0.195312 0,0 1.019161,-0.01724 1.519531,0.06836 0.51495,0.0881 1.498047,0.455078 1.498047,0.455078 l -0.453125,-0.457032 c 0,0 -0.498305,-0.265437 -0.896485,-0.554687 -0.22758,-0.16532 -0.477075,-0.401376 -0.728515,-0.503906 -0.15997,-0.0652 -0.366113,-0.110282 -0.533203,-0.138672 -0.16706,-0.0285 -0.294922,-0.03906 -0.294922,-0.03906 z M 23.298828,77.38672 c 0,0 -0.562549,0.103933 -1.060547,0.126953 -0.142305,0.007 -0.297844,0.0019 -0.453125,0.0059 -0.155282,0.004 -0.309094,0.01659 -0.439453,0.05469 -0.331711,0.0968 -0.751953,0.373047 -0.751953,0.373047 l 0.957031,-0.0918 c 0,0 -0.233011,0.144997 -0.402343,0.273437 -0.120987,0.0918 -0.425782,0.408203 -0.425782,0.408203 l 1.00586,-0.330078 c 0,0 -0.242695,0.224112 -0.322266,0.363281 -0.06061,0.10598 -0.109375,0.345704 -0.109375,0.345704 0,0 0.763777,-0.642316 1.203125,-0.884766 0.45216,-0.24953 1.449219,-0.574219 1.449219,-0.574219 l -0.650391,-0.07031 z"
               transform="translate(65.723681,63.313839)"
               id="path16166" /></g></g></g></g></g></svg>
